<svg width="150" height="32" viewBox="0 0 150 32" fill="none" xmlns="http://www.w3.org/2000/svg">
<rect x="52.5" y="6.5" width="19" height="19" rx="3.5" fill="white" fill-opacity="0.01"/>
<rect x="52.5" y="6.5" width="19" height="19" rx="3.5" stroke="black"/>
<g clip-path="url(#clip0_1_18204)">
<rect width="14" height="14" transform="translate(55 9)" fill="white" fill-opacity="0.01"/>
<path fill-rule="evenodd" clip-rule="evenodd" d="M57.0361 17.723C57.0838 17.7408 57.1356 17.7503 57.1895 17.7503H57.627V18.1878C57.627 18.4295 57.8228 18.6253 58.0645 18.6253H58.502V19.0628C58.502 19.3045 58.6978 19.5003 58.9395 19.5003H59.377V19.9378C59.377 20.1795 59.5728 20.3753 59.8145 20.3753H60.252V20.8128C60.252 20.8667 60.2615 20.9185 60.2793 20.9661L60.124 21.1224C60.0821 21.1643 60.0316 21.1971 59.9766 21.2191L55.6016 22.9691C55.4391 23.0339 55.2536 22.9961 55.1299 22.8724C55.0062 22.7487 54.9684 22.5631 55.0332 22.4007L56.7832 18.0257C56.8052 17.9707 56.838 17.9202 56.8799 17.8783L57.0361 17.723ZM66.8145 14.432L61.127 20.1195V19.9378C61.127 19.6962 60.9311 19.5003 60.6895 19.5003H60.252V19.0628C60.252 18.8212 60.0561 18.6253 59.8145 18.6253H59.377V18.1878C59.377 17.9462 59.1811 17.7503 58.9395 17.7503H58.502V17.3128C58.502 17.0712 58.3061 16.8753 58.0645 16.8753H57.8828L63.5703 11.1878L66.8145 14.432ZM65.6299 9.12826C65.8007 8.95741 66.0782 8.95741 66.249 9.12826L68.874 11.7533C69.0449 11.9241 69.0449 12.2015 68.874 12.3724L67.4336 13.8128L64.1895 10.5687L65.6299 9.12826Z" fill="black"/>
</g>
<rect x="78.5" y="6.5" width="19" height="19" rx="3.5" fill="white" fill-opacity="0.01"/>
<rect x="78.5" y="6.5" width="19" height="19" rx="3.5" stroke="black"/>
<g clip-path="url(#clip1_1_18204)">
<rect width="14" height="14" transform="translate(81 9)" fill="white" fill-opacity="0.01"/>
<path fill-rule="evenodd" clip-rule="evenodd" d="M89.3145 9.00012C90.0393 9.00014 90.627 9.58776 90.627 10.3126V11.1876H93.6895C93.9311 11.1876 94.127 11.3835 94.127 11.6251C94.127 11.8667 93.9311 12.0626 93.6895 12.0626H93.2188L92.4717 21.3898C92.3989 22.2992 91.6399 23.0001 90.7275 23.0001H85.2764C84.364 23.0001 83.604 22.2992 83.5312 21.3898L82.7852 12.0626H82.3145C82.0728 12.0626 81.877 11.8667 81.877 11.6251C81.877 11.3835 82.0728 11.1876 82.3145 11.1876H85.377V10.3126C85.377 9.58775 85.9646 9.00012 86.6895 9.00012H89.3145ZM88.002 12.9376C87.7603 12.9376 87.5645 13.1335 87.5645 13.3751V20.8126C87.5645 21.0542 87.7603 21.2501 88.002 21.2501C88.2436 21.2501 88.4395 21.0542 88.4395 20.8126V13.3751C88.4395 13.1335 88.2436 12.9376 88.002 12.9376ZM90.6533 12.9386C90.4121 12.9244 90.2056 13.1085 90.1914 13.3497L89.7539 20.7872C89.7399 21.0282 89.9232 21.2347 90.1641 21.2491C90.4053 21.2633 90.6128 21.0792 90.627 20.838L91.0645 13.4005C91.0785 13.1594 90.8944 12.9528 90.6533 12.9386ZM85.3506 12.9376C85.1094 12.9518 84.9253 13.1593 84.9395 13.4005L85.377 20.838C85.3914 21.0788 85.598 21.2621 85.8389 21.2482C86.0801 21.234 86.2642 21.0274 86.25 20.7863L85.8125 13.3488C85.7983 13.1076 85.5917 12.9235 85.3506 12.9376ZM86.6895 9.87512C86.4478 9.87512 86.252 10.071 86.252 10.3126V11.1876H89.752V10.3126C89.752 10.071 89.5561 9.87514 89.3145 9.87512H86.6895Z" fill="black"/>
</g>
<defs>
<clipPath id="clip0_1_18204">
<rect width="14" height="14" fill="white" transform="translate(55 9)"/>
</clipPath>
<clipPath id="clip1_1_18204">
<rect width="14" height="14" fill="white" transform="translate(81 9)"/>
</clipPath>
</defs>
</svg>
