<svg width="20" height="20" viewBox="0 0 20 20" fill="none" xmlns="http://www.w3.org/2000/svg">
<rect x="0.5" y="0.5" width="19" height="19" rx="3.5" fill="white" fill-opacity="0.01"/>
<rect x="0.5" y="0.5" width="19" height="19" rx="3.5" stroke="black"/>
<g clip-path="url(#clip0_1_18206)">
<rect width="14" height="14" transform="translate(3 3)" fill="white" fill-opacity="0.01"/>
<path fill-rule="evenodd" clip-rule="evenodd" d="M11.3145 3.00012C12.0393 3.00014 12.627 3.58776 12.627 4.31262V5.18762H15.6895C15.9311 5.18764 16.127 5.38351 16.127 5.62512C16.127 5.86673 15.9311 6.0626 15.6895 6.06262H15.2188L14.4717 15.3898C14.3989 16.2992 13.6399 17.0001 12.7275 17.0001H7.27637C6.36401 17.0001 5.60404 16.2992 5.53125 15.3898L4.78516 6.06262H4.31445C4.07283 6.06262 3.87695 5.86675 3.87695 5.62512C3.87695 5.3835 4.07283 5.18762 4.31445 5.18762H7.37695V4.31262C7.37695 3.58775 7.96458 3.00012 8.68945 3.00012H11.3145ZM10.002 6.93762C9.76033 6.93762 9.56445 7.1335 9.56445 7.37512V14.8126C9.56445 15.0542 9.76033 15.2501 10.002 15.2501C10.2436 15.2501 10.4395 15.0542 10.4395 14.8126V7.37512C10.4395 7.13351 10.2436 6.93764 10.002 6.93762ZM12.6533 6.9386C12.4121 6.92443 12.2056 7.10854 12.1914 7.34973L11.7539 14.7872C11.7399 15.0282 11.9232 15.2347 12.1641 15.2491C12.4053 15.2633 12.6128 15.0792 12.627 14.838L13.0645 7.40051C13.0785 7.15943 12.8944 6.95278 12.6533 6.9386ZM7.35059 6.93762C7.10938 6.95181 6.92526 7.1593 6.93945 7.40051L7.37695 14.838C7.39137 15.0788 7.598 15.2621 7.83887 15.2482C8.08006 15.234 8.26416 15.0274 8.25 14.7863L7.8125 7.34875C7.79831 7.10759 7.59174 6.92351 7.35059 6.93762ZM8.68945 3.87512C8.44783 3.87512 8.25195 4.071 8.25195 4.31262V5.18762H11.752V4.31262C11.752 4.07101 11.5561 3.87514 11.3145 3.87512H8.68945Z" fill="black"/>
</g>
<defs>
<clipPath id="clip0_1_18206">
<rect width="14" height="14" fill="white" transform="translate(3 3)"/>
</clipPath>
</defs>
</svg>
