<svg width="1440" height="900" viewBox="0 0 1440 900" fill="none" xmlns="http://www.w3.org/2000/svg">
<g clip-path="url(#clip0_1_22404)">
<rect width="1440" height="900" fill="white"/>
<rect width="1440" height="900" fill="#0C0C0C" fill-opacity="0.38"/>
<g clip-path="url(#clip1_1_22404)">
<rect x="440" y="270" width="560" height="360" rx="12" fill="white"/>
<rect width="560" height="141" transform="translate(440 270)" fill="white"/>
<g clip-path="url(#clip2_1_22404)">
<rect width="48" height="48" transform="translate(696 302)" fill="white" fill-opacity="0.01"/>
<path d="M716.852 303.306C718.59 301.567 721.41 301.567 723.148 303.306L742.696 322.854C744.435 324.592 744.435 327.412 742.696 329.15L723.148 348.698C721.41 350.437 718.59 350.437 716.852 348.698L697.304 329.15C695.565 327.412 695.565 324.592 697.304 322.854L716.852 303.306ZM720.005 332.002C718.348 332.002 717.005 333.345 717.005 335.002C717.005 336.659 718.348 338.002 720.005 338.002C721.662 338.002 723.005 336.659 723.005 335.002C723.005 333.345 721.662 332.002 720.005 332.002ZM720 314.002C718.394 314.002 717.139 315.389 717.299 316.987L718.351 327.51C718.435 328.357 719.149 329.002 720 329.002C720.851 329.002 721.565 328.357 721.649 327.51L722.701 316.987C722.861 315.389 721.606 314.002 720 314.002Z" fill="#FD7E14"/>
</g>
<path d="M629.36 388.36C628.368 388.36 627.664 388.104 627.248 387.592C626.848 387.064 626.648 386.24 626.648 385.12C626.648 381.76 628.24 380.08 631.424 380.08C632.112 380.08 632.736 380.176 633.296 380.368C633.872 380.544 634.304 380.816 634.592 381.184V379.6C634.592 378.784 634.36 378.168 633.896 377.752C633.448 377.336 632.736 377.128 631.76 377.128C630.336 377.128 629.136 377.568 628.16 378.448L626.84 376.648C628.216 375.512 629.984 374.944 632.144 374.944C634.016 374.944 635.432 375.36 636.392 376.192C637.352 377.024 637.832 378.16 637.832 379.6V388H634.688C634.688 386.576 634.584 385.448 634.376 384.616C634.168 383.784 633.832 383.184 633.368 382.816C632.92 382.448 632.304 382.264 631.52 382.264C630.896 382.264 630.416 382.376 630.08 382.6C629.76 382.824 629.576 383.192 629.528 383.704L629.912 383.68C630.664 383.68 631.216 383.872 631.568 384.256C631.92 384.64 632.096 385.224 632.096 386.008C632.096 386.824 631.896 387.424 631.496 387.808C631.096 388.176 630.384 388.36 629.36 388.36ZM629.432 386.896C629.8 386.896 630.048 386.832 630.176 386.704C630.32 386.56 630.392 386.304 630.392 385.936C630.392 385.6 630.32 385.368 630.176 385.24C630.048 385.112 629.8 385.048 629.432 385.048C629.064 385.048 628.808 385.112 628.664 385.24C628.536 385.368 628.472 385.6 628.472 385.936C628.472 386.288 628.544 386.536 628.688 386.68C628.832 386.824 629.08 386.896 629.432 386.896ZM647.961 388.36C645.897 388.36 644.425 387.96 643.545 387.16C642.665 386.344 642.225 385.168 642.225 383.632V379.576C641.521 379.576 640.969 379.392 640.569 379.024C640.169 378.64 639.969 378.08 639.969 377.344C639.969 376.512 640.169 375.904 640.569 375.52C640.969 375.136 641.681 374.944 642.705 374.944C643.729 374.944 644.441 375.16 644.841 375.592C645.257 376.008 645.465 376.704 645.465 377.68V383.776C645.465 384.592 645.649 385.2 646.017 385.6C646.401 385.984 647.033 386.176 647.913 386.176C648.793 386.176 649.417 385.984 649.785 385.6C650.169 385.2 650.361 384.592 650.361 383.776V375.304H653.601V383.632C653.601 385.168 653.177 386.344 652.329 387.16C651.481 387.96 650.025 388.36 647.961 388.36ZM642.633 378.256C643.001 378.256 643.249 378.192 643.377 378.064C643.521 377.936 643.593 377.704 643.593 377.368C643.593 377 643.521 376.752 643.377 376.624C643.249 376.496 643.001 376.432 642.633 376.432C642.265 376.432 642.009 376.496 641.865 376.624C641.737 376.752 641.673 377 641.673 377.368C641.673 377.704 641.737 377.936 641.865 378.064C642.009 378.192 642.265 378.256 642.633 378.256ZM661.877 388.36C658.293 388.36 656.501 386.832 656.501 383.776V382.792C656.501 382.184 656.621 381.608 656.861 381.064C657.101 380.52 657.445 380.04 657.893 379.624C657.189 379.576 656.693 379.376 656.405 379.024C656.117 378.656 655.973 378.08 655.973 377.296C655.973 376.48 656.165 375.888 656.549 375.52C656.949 375.136 657.661 374.944 658.685 374.944C659.725 374.944 660.437 375.12 660.821 375.472C661.221 375.824 661.421 376.456 661.421 377.368V378.208C661.421 378.544 661.357 378.832 661.229 379.072C661.117 379.312 660.933 379.6 660.677 379.936C660.373 380.336 660.141 380.72 659.981 381.088C659.821 381.44 659.741 381.88 659.741 382.408V383.92C659.741 384.688 659.877 385.256 660.149 385.624C660.421 385.992 660.997 386.176 661.877 386.176C662.485 386.176 662.941 386.088 663.245 385.912C663.565 385.72 663.773 385.472 663.869 385.168C663.965 384.848 664.013 384.432 664.013 383.92V375.304H667.253V383.632C667.253 386.784 665.461 388.36 661.877 388.36ZM658.661 378.256C659.029 378.256 659.277 378.192 659.405 378.064C659.549 377.936 659.621 377.704 659.621 377.368C659.621 377 659.549 376.752 659.405 376.624C659.277 376.496 659.029 376.432 658.661 376.432C658.293 376.432 658.037 376.504 657.893 376.648C657.749 376.776 657.677 377.016 657.677 377.368C657.677 377.704 657.749 377.936 657.893 378.064C658.037 378.192 658.293 378.256 658.661 378.256ZM661.684 372.28C662.052 372.28 662.332 372.256 662.524 372.208C662.7 372.144 662.82 372.024 662.884 371.848C662.228 371.912 661.74 371.8 661.42 371.512C661.084 371.208 660.916 370.76 660.916 370.168C660.916 369.496 661.1 369.016 661.468 368.728C661.82 368.44 662.388 368.296 663.172 368.296C663.988 368.296 664.564 368.448 664.9 368.752C665.22 369.04 665.38 369.536 665.38 370.24C665.38 371.024 665.204 371.608 664.852 371.992C665.572 371.896 666.068 371.656 666.34 371.272C666.612 370.872 666.748 370.248 666.748 369.4V368.968H669.148V369.472C669.148 370.272 668.98 371.008 668.644 371.68C668.308 372.352 667.82 372.888 667.18 373.288C666.524 373.672 665.74 373.864 664.828 373.864H661.684V372.28ZM663.172 370.912C663.492 370.912 663.708 370.856 663.82 370.744C663.932 370.632 663.988 370.432 663.988 370.144C663.988 369.856 663.932 369.656 663.82 369.544C663.692 369.432 663.476 369.376 663.172 369.376C662.852 369.376 662.636 369.432 662.524 369.544C662.412 369.64 662.356 369.84 662.356 370.144C662.356 370.432 662.412 370.632 662.524 370.744C662.636 370.856 662.852 370.912 663.172 370.912ZM675.772 388.36C673.708 388.36 672.292 387.976 671.524 387.208C670.756 386.424 670.372 385.376 670.372 384.064V382.624C670.372 381.648 670.572 380.952 670.972 380.536C671.388 380.104 672.108 379.888 673.132 379.888C674.156 379.888 674.868 380.08 675.268 380.464C675.668 380.848 675.868 381.456 675.868 382.288C675.868 383.008 675.652 383.536 675.22 383.872C674.804 384.192 674.228 384.352 673.492 384.352V384.688C673.492 385.184 673.676 385.56 674.044 385.816C674.412 386.056 674.988 386.176 675.772 386.176C676.556 386.176 677.156 386.04 677.572 385.768C677.988 385.48 678.196 385.08 678.196 384.568V379.6C678.196 378.752 677.948 378.128 677.452 377.728C676.956 377.328 676.18 377.128 675.124 377.128C674.42 377.128 673.78 377.232 673.204 377.44C672.644 377.648 672.092 377.968 671.548 378.4L670.228 376.648C670.916 376.088 671.708 375.664 672.604 375.376C673.516 375.088 674.5 374.944 675.556 374.944C677.62 374.944 679.116 375.344 680.044 376.144C680.972 376.944 681.436 378.088 681.436 379.576V384.4C681.436 385.04 681.252 385.664 680.884 386.272C680.532 386.864 679.932 387.36 679.084 387.76C678.252 388.16 677.148 388.36 675.772 388.36ZM673.204 383.2C673.572 383.2 673.82 383.136 673.948 383.008C674.092 382.88 674.164 382.648 674.164 382.312C674.164 381.944 674.092 381.696 673.948 381.568C673.82 381.44 673.572 381.376 673.204 381.376C672.836 381.376 672.58 381.44 672.436 381.568C672.308 381.696 672.244 381.944 672.244 382.312C672.244 382.648 672.308 382.88 672.436 383.008C672.58 383.136 672.836 383.2 673.204 383.2ZM686.692 388.36C685.716 388.36 685.02 388.168 684.604 387.784C684.204 387.4 684.004 386.808 684.004 386.008C684.004 385.208 684.172 384.624 684.508 384.256C684.86 383.888 685.388 383.688 686.092 383.656V379.576C685.388 379.576 684.828 379.392 684.412 379.024C684.012 378.64 683.812 378.08 683.812 377.344C683.812 376.512 684.012 375.904 684.412 375.52C684.812 375.136 685.524 374.944 686.548 374.944C687.588 374.944 688.308 375.16 688.708 375.592C689.124 376.008 689.332 376.704 689.332 377.68V383.752L692.764 385.024V375.304H696.004V388H694.132L689.5 386.296C689.452 387 689.228 387.52 688.828 387.856C688.428 388.192 687.716 388.36 686.692 388.36ZM686.476 378.256C686.844 378.256 687.092 378.192 687.22 378.064C687.364 377.936 687.436 377.704 687.436 377.368C687.436 377 687.364 376.752 687.22 376.624C687.092 376.496 686.844 376.432 686.476 376.432C686.108 376.432 685.852 376.496 685.708 376.624C685.58 376.752 685.516 377 685.516 377.368C685.516 377.704 685.58 377.936 685.708 378.064C685.852 378.192 686.108 378.256 686.476 378.256ZM686.812 386.896C687.18 386.896 687.428 386.832 687.556 386.704C687.7 386.56 687.772 386.32 687.772 385.984C687.772 385.632 687.7 385.392 687.556 385.264C687.428 385.136 687.18 385.072 686.812 385.072C686.444 385.072 686.188 385.136 686.044 385.264C685.916 385.392 685.852 385.632 685.852 385.984C685.852 386.336 685.916 386.576 686.044 386.704C686.188 386.832 686.444 386.896 686.812 386.896ZM693.293 395.584C692.285 395.584 691.485 395.392 690.893 395.008C690.301 394.64 690.005 394.08 690.005 393.328V393.184C689.925 393.2 689.805 393.208 689.645 393.208C688.973 393.208 688.461 393.04 688.109 392.704C687.741 392.384 687.557 391.856 687.557 391.12C687.557 390.352 687.757 389.8 688.157 389.464C688.557 389.144 689.213 388.984 690.125 388.984C691.069 388.984 691.717 389.152 692.069 389.488C692.421 389.84 692.597 390.472 692.597 391.384V392.824C692.597 393.096 692.645 393.28 692.741 393.376C692.837 393.488 693.013 393.544 693.269 393.544C693.541 393.544 693.725 393.488 693.821 393.376C693.917 393.28 693.965 393.096 693.965 392.824V389.128H696.605V392.68C696.605 393.624 696.349 394.344 695.837 394.84C695.325 395.336 694.477 395.584 693.293 395.584ZM690.077 392.032C690.429 392.032 690.677 391.968 690.821 391.84C690.949 391.712 691.013 391.488 691.013 391.168C691.013 390.832 690.949 390.6 690.821 390.472C690.677 390.344 690.429 390.28 690.077 390.28C689.741 390.28 689.501 390.344 689.357 390.472C689.213 390.6 689.141 390.832 689.141 391.168C689.141 391.488 689.213 391.712 689.357 391.84C689.501 391.968 689.741 392.032 690.077 392.032ZM701.693 388.36C700.701 388.36 699.997 388.104 699.581 387.592C699.181 387.064 698.981 386.24 698.981 385.12C698.981 381.76 700.573 380.08 703.757 380.08C704.445 380.08 705.069 380.176 705.629 380.368C706.205 380.544 706.637 380.816 706.925 381.184V379.6C706.925 378.784 706.693 378.168 706.229 377.752C705.781 377.336 705.069 377.128 704.093 377.128C702.669 377.128 701.469 377.568 700.493 378.448L699.173 376.648C700.549 375.512 702.317 374.944 704.477 374.944C706.349 374.944 707.765 375.36 708.725 376.192C709.685 377.024 710.165 378.16 710.165 379.6V388H707.021C707.021 386.576 706.917 385.448 706.709 384.616C706.501 383.784 706.165 383.184 705.701 382.816C705.253 382.448 704.637 382.264 703.853 382.264C703.229 382.264 702.749 382.376 702.413 382.6C702.093 382.824 701.909 383.192 701.861 383.704L702.245 383.68C702.997 383.68 703.549 383.872 703.901 384.256C704.253 384.64 704.429 385.224 704.429 386.008C704.429 386.824 704.229 387.424 703.829 387.808C703.429 388.176 702.717 388.36 701.693 388.36ZM701.765 386.896C702.133 386.896 702.381 386.832 702.509 386.704C702.653 386.56 702.725 386.304 702.725 385.936C702.725 385.6 702.653 385.368 702.509 385.24C702.381 385.112 702.133 385.048 701.765 385.048C701.397 385.048 701.141 385.112 700.997 385.24C700.869 385.368 700.805 385.6 700.805 385.936C700.805 386.288 700.877 386.536 701.021 386.68C701.165 386.824 701.413 386.896 701.765 386.896ZM721.906 385.912H723.25C723.602 385.912 723.85 385.84 723.994 385.696C724.138 385.536 724.21 385.296 724.21 384.976V375.52L722.122 376.792L720.946 374.872L724.738 372.472H727.354V384.976C727.354 385.296 727.426 385.536 727.57 385.696C727.73 385.84 727.986 385.912 728.338 385.912H729.682V388H721.906V385.912ZM745.358 388.36C744.334 388.36 743.622 388.168 743.222 387.784C742.822 387.4 742.622 386.792 742.622 385.96C742.622 385.224 742.822 384.672 743.222 384.304C743.622 383.92 744.174 383.728 744.878 383.728V382.696C744.878 382.28 744.798 381.984 744.638 381.808C744.478 381.616 744.182 381.456 743.75 381.328L739.982 380.224V378.784C739.982 377.44 740.438 376.464 741.35 375.856C742.262 375.248 743.486 374.944 745.022 374.944C746.174 374.944 747.126 375.064 747.878 375.304C748.63 375.528 749.334 375.896 749.99 376.408L748.67 378.184C748.286 377.864 747.822 377.608 747.278 377.416C746.734 377.224 746.134 377.128 745.478 377.128C744.726 377.128 744.158 377.256 743.774 377.512C743.406 377.752 743.222 378.096 743.222 378.544V378.904L746.438 379.84C746.934 379.984 747.302 380.168 747.542 380.392C747.782 380.6 747.934 380.872 747.998 381.208C748.078 381.544 748.118 382.008 748.118 382.6V385.624C748.118 386.6 747.91 387.304 747.494 387.736C747.094 388.152 746.382 388.36 745.358 388.36ZM745.286 386.872C745.654 386.872 745.902 386.808 746.03 386.68C746.174 386.552 746.246 386.304 746.246 385.936C746.246 385.6 746.174 385.368 746.03 385.24C745.902 385.112 745.654 385.048 745.286 385.048C744.918 385.048 744.662 385.112 744.518 385.24C744.39 385.368 744.326 385.6 744.326 385.936C744.326 386.304 744.39 386.552 744.518 386.68C744.662 386.808 744.918 386.872 745.286 386.872ZM757.375 379.6C757.375 378.736 757.215 378.112 756.895 377.728C756.575 377.328 756.015 377.128 755.215 377.128C754.255 377.128 753.359 377.512 752.527 378.28L751.231 376.528C751.839 375.984 752.503 375.584 753.223 375.328C753.943 375.072 754.759 374.944 755.671 374.944C757.495 374.944 758.775 375.352 759.511 376.168C760.247 376.984 760.615 378.136 760.615 379.624V388H757.375V379.6ZM768.763 388.36C766.859 388.36 765.419 388.024 764.443 387.352C763.483 386.68 763.003 385.72 763.003 384.472C763.003 383.864 763.099 383.352 763.291 382.936C763.499 382.504 763.843 382.152 764.323 381.88C763.475 381.208 763.051 380.136 763.051 378.664V377.752C763.051 376.776 763.251 376.064 763.651 375.616C764.067 375.168 764.787 374.944 765.811 374.944C766.835 374.944 767.547 375.136 767.947 375.52C768.347 375.904 768.547 376.512 768.547 377.344C768.547 378.08 768.347 378.64 767.947 379.024C767.547 379.392 766.995 379.576 766.291 379.576C766.291 380.008 766.379 380.32 766.555 380.512C766.747 380.704 767.083 380.8 767.563 380.8H768.523V383.032H767.707C766.683 383.032 766.171 383.536 766.171 384.544C766.171 385.088 766.403 385.496 766.867 385.768C767.331 386.04 767.955 386.176 768.739 386.176C769.587 386.176 770.211 385.984 770.611 385.6C771.027 385.216 771.235 384.616 771.235 383.8V375.304H774.475V383.272C774.475 386.664 772.571 388.36 768.763 388.36ZM765.883 378.256C766.251 378.256 766.499 378.192 766.627 378.064C766.771 377.936 766.843 377.704 766.843 377.368C766.843 377 766.771 376.752 766.627 376.624C766.499 376.496 766.251 376.432 765.883 376.432C765.515 376.432 765.259 376.496 765.115 376.624C764.987 376.752 764.923 377 764.923 377.368C764.923 377.704 764.987 377.936 765.115 378.064C765.259 378.192 765.515 378.256 765.883 378.256ZM777.301 383.056C777.301 382.352 777.397 381.776 777.589 381.328C777.797 380.88 778.157 380.504 778.669 380.2L776.845 379.12V377.248C777.613 376.512 778.509 375.944 779.533 375.544C780.573 375.144 781.701 374.944 782.917 374.944C784.885 374.944 786.365 375.36 787.357 376.192C788.365 377.024 788.869 378.144 788.869 379.552V388H785.629V379.408C785.629 378.672 785.397 378.112 784.933 377.728C784.469 377.328 783.789 377.128 782.893 377.128C781.725 377.128 780.733 377.424 779.917 378.016V378.328L781.765 379.48V380.752C781.285 380.944 780.957 381.192 780.781 381.496C780.621 381.8 780.541 382.264 780.541 382.888V388H777.301V383.056ZM796.746 379.6C796.746 378.736 796.586 378.112 796.266 377.728C795.946 377.328 795.386 377.128 794.586 377.128C793.626 377.128 792.73 377.512 791.898 378.28L790.602 376.528C791.21 375.984 791.874 375.584 792.594 375.328C793.314 375.072 794.13 374.944 795.042 374.944C796.866 374.944 798.146 375.352 798.882 376.168C799.618 376.984 799.986 378.136 799.986 379.624V388H796.746V379.6ZM807.749 388.36C806.725 388.36 806.013 388.168 805.613 387.784C805.213 387.4 805.013 386.792 805.013 385.96C805.013 385.224 805.213 384.672 805.613 384.304C806.013 383.92 806.565 383.728 807.269 383.728V382.696C807.269 382.28 807.189 381.984 807.029 381.808C806.869 381.616 806.573 381.456 806.141 381.328L802.373 380.224V378.784C802.373 377.44 802.829 376.464 803.741 375.856C804.653 375.248 805.877 374.944 807.413 374.944C808.565 374.944 809.517 375.064 810.269 375.304C811.021 375.528 811.725 375.896 812.381 376.408L811.061 378.184C810.677 377.864 810.213 377.608 809.669 377.416C809.125 377.224 808.525 377.128 807.869 377.128C807.117 377.128 806.549 377.256 806.165 377.512C805.797 377.752 805.613 378.096 805.613 378.544V378.904L808.829 379.84C809.325 379.984 809.693 380.168 809.933 380.392C810.173 380.6 810.325 380.872 810.389 381.208C810.469 381.544 810.509 382.008 810.509 382.6V385.624C810.509 386.6 810.301 387.304 809.885 387.736C809.485 388.152 808.773 388.36 807.749 388.36ZM807.677 386.872C808.045 386.872 808.293 386.808 808.421 386.68C808.565 386.552 808.637 386.304 808.637 385.936C808.637 385.6 808.565 385.368 808.421 385.24C808.293 385.112 808.045 385.048 807.677 385.048C807.309 385.048 807.053 385.112 806.909 385.24C806.781 385.368 806.717 385.6 806.717 385.936C806.717 386.304 806.781 386.552 806.909 386.68C807.053 386.808 807.309 386.872 807.677 386.872Z" fill="black"/>
<path d="M605.911 446.72C605.911 445.664 606.199 444.832 606.775 444.224C607.351 443.605 608.332 443.296 609.719 443.296C611.105 443.296 612.087 443.605 612.663 444.224C613.239 444.832 613.527 445.664 613.527 446.72V452H611.799V446.544C611.799 445.861 611.649 445.349 611.351 445.008C611.052 444.667 610.508 444.496 609.719 444.496C608.94 444.496 608.396 444.667 608.087 445.008C607.788 445.349 607.639 445.861 607.639 446.544V447.984L608.183 447.488C608.513 447.179 608.785 446.971 608.999 446.864C609.212 446.747 609.505 446.688 609.879 446.688C610.433 446.688 610.823 446.8 611.047 447.024C611.281 447.248 611.399 447.637 611.399 448.192C611.399 448.715 611.271 449.099 611.015 449.344C610.759 449.579 610.359 449.696 609.815 449.696C609.399 449.696 609.073 449.632 608.839 449.504C608.604 449.376 608.465 449.189 608.423 448.944L607.639 449.632V452H605.911V446.72ZM609.815 448.864C610.071 448.864 610.247 448.816 610.343 448.72C610.439 448.613 610.487 448.437 610.487 448.192C610.487 447.936 610.439 447.765 610.343 447.68C610.257 447.595 610.081 447.552 609.815 447.552C609.548 447.552 609.367 447.595 609.271 447.68C609.175 447.765 609.127 447.936 609.127 448.192C609.127 448.437 609.175 448.613 609.271 448.72C609.377 448.816 609.559 448.864 609.815 448.864ZM612.199 455.776C612.103 455.787 611.98 455.792 611.831 455.792C611.426 455.792 611.111 455.669 610.887 455.424C610.663 455.189 610.551 454.832 610.551 454.352C610.551 453.819 610.679 453.429 610.935 453.184C611.18 452.939 611.612 452.816 612.231 452.816C612.871 452.816 613.314 452.933 613.559 453.168C613.804 453.413 613.927 453.835 613.927 454.432V457.216H612.199V455.776ZM612.199 454.992C612.455 454.992 612.636 454.944 612.743 454.848C612.839 454.752 612.887 454.587 612.887 454.352C612.887 454.096 612.839 453.92 612.743 453.824C612.647 453.739 612.466 453.696 612.199 453.696C611.932 453.696 611.751 453.739 611.655 453.824C611.559 453.92 611.511 454.096 611.511 454.352C611.511 454.597 611.559 454.763 611.655 454.848C611.751 454.944 611.932 454.992 612.199 454.992ZM617.719 452.24C617.09 452.24 616.652 452.112 616.407 451.856C616.162 451.589 616.039 451.157 616.039 450.56V448.912C616.039 448.325 616.092 447.856 616.199 447.504C616.316 447.152 616.572 446.869 616.967 446.656L615.703 445.904V444.768C616.748 443.787 618.002 443.296 619.463 443.296C620.69 443.296 621.596 443.563 622.183 444.096C622.78 444.629 623.079 445.36 623.079 446.288V450.384L625.687 448.512C625.826 448.416 625.916 448.325 625.959 448.24C626.012 448.144 626.039 448.016 626.039 447.856V443.536H627.751V447.84C627.751 448.117 627.682 448.352 627.543 448.544C627.404 448.736 627.148 448.965 626.775 449.232C627.234 449.275 627.559 449.413 627.751 449.648C627.943 449.883 628.039 450.224 628.039 450.672C628.039 451.237 627.906 451.643 627.639 451.888C627.383 452.123 626.93 452.24 626.279 452.24C625.66 452.24 625.228 452.133 624.983 451.92C624.738 451.696 624.615 451.301 624.615 450.736L622.935 452H621.399V446.24C621.399 445.643 621.244 445.205 620.935 444.928C620.636 444.64 620.146 444.496 619.463 444.496C619.026 444.496 618.631 444.56 618.279 444.688C617.938 444.805 617.618 444.981 617.319 445.216V445.424L618.615 446.24V446.992C618.274 447.12 618.044 447.285 617.927 447.488C617.81 447.68 617.751 447.979 617.751 448.384V449.28C617.847 449.269 617.97 449.264 618.119 449.264C618.524 449.264 618.839 449.387 619.063 449.632C619.287 449.867 619.399 450.224 619.399 450.704C619.399 451.237 619.271 451.627 619.015 451.872C618.77 452.117 618.338 452.24 617.719 452.24ZM626.311 451.312C626.578 451.312 626.759 451.269 626.855 451.184C626.951 451.088 626.999 450.912 626.999 450.656C626.999 450.411 626.946 450.24 626.839 450.144C626.743 450.048 626.567 450 626.311 450C626.055 450 625.874 450.048 625.767 450.144C625.671 450.24 625.623 450.411 625.623 450.656C625.623 450.912 625.671 451.088 625.767 451.184C625.874 451.269 626.055 451.312 626.311 451.312ZM617.751 451.36C618.018 451.36 618.199 451.317 618.295 451.232C618.391 451.136 618.439 450.96 618.439 450.704C618.439 450.459 618.391 450.293 618.295 450.208C618.199 450.112 618.018 450.064 617.751 450.064C617.495 450.064 617.314 450.112 617.207 450.208C617.111 450.304 617.063 450.469 617.063 450.704C617.063 450.96 617.111 451.136 617.207 451.232C617.303 451.317 617.484 451.36 617.751 451.36ZM631.556 452.24C630.916 452.24 630.474 452.123 630.228 451.888C629.983 451.643 629.86 451.221 629.86 450.624V443.536H631.572V449.28C631.668 449.269 631.796 449.264 631.956 449.264C632.362 449.264 632.676 449.387 632.9 449.632C633.124 449.867 633.236 450.224 633.236 450.704C633.236 451.237 633.108 451.627 632.852 451.872C632.607 452.117 632.175 452.24 631.556 452.24ZM635.684 452.24C635.044 452.24 634.602 452.123 634.356 451.888C634.111 451.643 633.988 451.221 633.988 450.624V443.536H635.7V449.28C635.796 449.269 635.924 449.264 636.084 449.264C636.49 449.264 636.804 449.387 637.028 449.632C637.252 449.867 637.364 450.224 637.364 450.704C637.364 451.237 637.236 451.627 636.98 451.872C636.735 452.117 636.303 452.24 635.684 452.24ZM631.588 451.36C631.855 451.36 632.036 451.317 632.132 451.232C632.228 451.136 632.276 450.96 632.276 450.704C632.276 450.459 632.228 450.293 632.132 450.208C632.036 450.112 631.855 450.064 631.588 450.064C631.332 450.064 631.151 450.112 631.044 450.208C630.948 450.304 630.9 450.469 630.9 450.704C630.9 450.96 630.948 451.136 631.044 451.232C631.14 451.317 631.322 451.36 631.588 451.36ZM635.716 451.36C635.983 451.36 636.164 451.317 636.26 451.232C636.356 451.136 636.404 450.96 636.404 450.704C636.404 450.459 636.356 450.293 636.26 450.208C636.164 450.112 635.983 450.064 635.716 450.064C635.46 450.064 635.279 450.112 635.172 450.208C635.076 450.304 635.028 450.469 635.028 450.704C635.028 450.96 635.076 451.136 635.172 451.232C635.268 451.317 635.45 451.36 635.716 451.36ZM644.985 452.24C644.441 452.24 644.02 452.149 643.721 451.968C643.422 451.776 643.273 451.451 643.273 450.992C643.273 450.875 643.278 450.784 643.289 450.72L641.481 452H639.913V446.256C639.817 446.267 639.694 446.272 639.545 446.272C639.14 446.272 638.825 446.155 638.601 445.92C638.377 445.675 638.265 445.312 638.265 444.832C638.265 444.299 638.388 443.909 638.633 443.664C638.889 443.419 639.326 443.296 639.945 443.296C640.585 443.296 641.028 443.419 641.273 443.664C641.518 443.899 641.641 444.315 641.641 444.912V450.368L644.393 448.512C644.532 448.427 644.622 448.341 644.665 448.256C644.718 448.16 644.745 448.027 644.745 447.856V443.536H646.473V447.84C646.473 448.117 646.398 448.357 646.249 448.56C646.11 448.752 645.854 448.976 645.481 449.232C645.94 449.275 646.265 449.413 646.457 449.648C646.649 449.883 646.745 450.224 646.745 450.672C646.745 451.237 646.612 451.643 646.345 451.888C646.089 452.123 645.636 452.24 644.985 452.24ZM639.913 445.472C640.169 445.472 640.345 445.424 640.441 445.328C640.548 445.232 640.601 445.067 640.601 444.832C640.601 444.576 640.553 444.405 640.457 444.32C640.361 444.224 640.18 444.176 639.913 444.176C639.646 444.176 639.465 444.224 639.369 444.32C639.273 444.405 639.225 444.576 639.225 444.832C639.225 445.077 639.273 445.248 639.369 445.344C639.465 445.429 639.646 445.472 639.913 445.472ZM645.017 451.312C645.284 451.312 645.465 451.269 645.561 451.184C645.657 451.088 645.705 450.912 645.705 450.656C645.705 450.411 645.652 450.24 645.545 450.144C645.449 450.048 645.273 450 645.017 450C644.761 450 644.58 450.048 644.473 450.144C644.377 450.24 644.329 450.411 644.329 450.656C644.329 450.912 644.377 451.088 644.473 451.184C644.58 451.269 644.761 451.312 645.017 451.312ZM645.143 439.68H646.871V442.416H645.143V439.68ZM651.575 452.24C650.935 452.24 650.492 452.123 650.247 451.888C650.001 451.643 649.879 451.221 649.879 450.624V446.016C649.879 445.664 649.969 445.339 650.151 445.04C650.332 444.741 650.599 444.389 650.951 443.984C651.281 443.579 651.521 443.253 651.671 443.008C651.831 442.763 651.911 442.501 651.911 442.224C651.911 441.883 651.815 441.627 651.623 441.456C651.431 441.285 651.132 441.2 650.727 441.2C650.321 441.2 649.996 441.285 649.751 441.456C649.516 441.627 649.399 441.883 649.399 442.224V442.784H647.687V442.272C647.687 441.557 647.975 441.003 648.551 440.608C649.137 440.203 649.863 440 650.727 440C651.697 440 652.417 440.197 652.887 440.592C653.356 440.987 653.591 441.525 653.591 442.208C653.591 442.581 653.5 442.923 653.319 443.232C653.137 443.541 652.871 443.909 652.519 444.336C652.209 444.709 651.975 445.024 651.815 445.28C651.665 445.536 651.591 445.803 651.591 446.08V449.28C651.687 449.269 651.815 449.264 651.975 449.264C652.38 449.264 652.695 449.387 652.919 449.632C653.143 449.867 653.255 450.224 653.255 450.704C653.255 451.237 653.127 451.627 652.871 451.872C652.625 452.117 652.193 452.24 651.575 452.24ZM651.607 451.36C651.873 451.36 652.055 451.317 652.151 451.232C652.247 451.136 652.295 450.96 652.295 450.704C652.295 450.459 652.247 450.293 652.151 450.208C652.055 450.112 651.873 450.064 651.607 450.064C651.351 450.064 651.169 450.112 651.063 450.208C650.967 450.304 650.919 450.469 650.919 450.704C650.919 450.96 650.967 451.136 651.063 451.232C651.159 451.317 651.34 451.36 651.607 451.36ZM656.738 449.296C656.578 449.339 656.381 449.36 656.146 449.36C655.197 449.36 654.722 448.88 654.722 447.92C654.722 447.397 654.845 447.019 655.09 446.784C655.336 446.539 655.757 446.416 656.354 446.416C656.781 446.416 657.101 446.469 657.314 446.576C657.528 446.672 657.682 446.827 657.778 447.04C657.874 447.253 657.965 447.584 658.05 448.032L658.61 450.8H658.93C659.24 450.8 659.464 450.731 659.602 450.592C659.752 450.453 659.826 450.235 659.826 449.936V446.352C659.826 445.712 659.65 445.243 659.298 444.944C658.946 444.645 658.397 444.496 657.65 444.496C656.69 444.496 655.858 444.8 655.154 445.408L654.402 444.448C655.309 443.68 656.45 443.296 657.826 443.296C659.16 443.296 660.114 443.557 660.69 444.08C661.266 444.603 661.554 445.349 661.554 446.32V449.44C661.554 451.147 660.733 452 659.09 452H657.298L656.738 449.296ZM656.354 448.592C656.61 448.592 656.786 448.544 656.882 448.448C656.978 448.352 657.026 448.187 657.026 447.952C657.026 447.696 656.978 447.525 656.882 447.44C656.786 447.344 656.61 447.296 656.354 447.296C656.088 447.296 655.906 447.344 655.81 447.44C655.714 447.525 655.666 447.696 655.666 447.952C655.666 448.197 655.714 448.368 655.81 448.464C655.906 448.549 656.088 448.592 656.354 448.592ZM664.825 446.256C664.729 446.267 664.607 446.272 664.457 446.272C664.052 446.272 663.737 446.155 663.513 445.92C663.289 445.675 663.177 445.312 663.177 444.832C663.177 444.299 663.3 443.909 663.545 443.664C663.801 443.419 664.239 443.296 664.857 443.296C665.497 443.296 665.94 443.419 666.185 443.664C666.431 443.899 666.553 444.315 666.553 444.912V449.648L668.409 446.832C668.548 446.619 668.66 446.464 668.745 446.368C668.831 446.272 668.943 446.197 669.081 446.144C668.527 445.963 668.249 445.536 668.249 444.864C668.249 444.32 668.372 443.925 668.617 443.68C668.863 443.424 669.295 443.296 669.913 443.296C670.521 443.296 670.953 443.424 671.209 443.68C671.465 443.925 671.593 444.336 671.593 444.912C671.593 445.2 671.519 445.461 671.369 445.696C671.22 445.931 671.017 446.085 670.761 446.16C670.953 446.245 671.087 446.379 671.161 446.56C671.247 446.731 671.289 446.955 671.289 447.232V452H669.561V447.808C669.561 447.616 669.524 447.52 669.449 447.52C669.396 447.52 669.337 447.552 669.273 447.616C669.22 447.68 669.177 447.744 669.145 447.808C669.113 447.861 669.087 447.899 669.065 447.92L666.377 452H664.825V446.256ZM664.825 445.472C665.081 445.472 665.257 445.424 665.353 445.328C665.46 445.232 665.513 445.067 665.513 444.832C665.513 444.576 665.465 444.405 665.369 444.32C665.273 444.224 665.092 444.176 664.825 444.176C664.559 444.176 664.377 444.224 664.281 444.32C664.185 444.405 664.137 444.576 664.137 444.832C664.137 445.077 664.185 445.248 664.281 445.344C664.377 445.429 664.559 445.472 664.825 445.472ZM669.945 445.472C670.201 445.472 670.377 445.424 670.473 445.328C670.58 445.232 670.633 445.067 670.633 444.832C670.633 444.576 670.585 444.405 670.489 444.32C670.393 444.224 670.212 444.176 669.945 444.176C669.679 444.176 669.497 444.224 669.401 444.32C669.305 444.405 669.257 444.576 669.257 444.832C669.257 445.077 669.305 445.248 669.401 445.344C669.497 445.429 669.679 445.472 669.945 445.472ZM676.522 452.24C675.903 452.24 675.466 452.117 675.21 451.872C674.965 451.627 674.842 451.237 674.842 450.704C674.842 450.224 674.954 449.867 675.178 449.632C675.402 449.387 675.717 449.264 676.122 449.264C676.271 449.264 676.394 449.269 676.49 449.28V448.432C676.49 448.165 676.463 447.979 676.41 447.872C676.367 447.755 676.277 447.664 676.138 447.6C675.999 447.536 675.733 447.451 675.338 447.344L673.05 446.704V445.776C673.05 444.933 673.338 444.309 673.914 443.904C674.49 443.499 675.29 443.296 676.314 443.296C677.05 443.296 677.663 443.371 678.154 443.52C678.655 443.669 679.093 443.899 679.466 444.208L678.762 445.136C678.111 444.709 677.359 444.496 676.506 444.496C675.93 444.496 675.498 444.597 675.21 444.8C674.922 445.003 674.778 445.285 674.778 445.648V445.936L677.114 446.592C677.551 446.709 677.845 446.907 677.994 447.184C678.143 447.451 678.218 447.851 678.218 448.384V450.624C678.218 451.221 678.095 451.643 677.85 451.888C677.605 452.123 677.162 452.24 676.522 452.24ZM676.49 451.36C676.757 451.36 676.938 451.317 677.034 451.232C677.13 451.136 677.178 450.96 677.178 450.704C677.178 450.469 677.125 450.304 677.018 450.208C676.922 450.112 676.746 450.064 676.49 450.064C676.223 450.064 676.042 450.112 675.946 450.208C675.85 450.293 675.802 450.459 675.802 450.704C675.802 450.96 675.85 451.136 675.946 451.232C676.042 451.317 676.223 451.36 676.49 451.36ZM672.663 442.416C672.737 441.531 673.047 440.853 673.591 440.384C674.124 439.915 674.839 439.659 675.735 439.616V438.944H677.191V439.808C677.479 439.893 677.692 440.011 677.831 440.16V438.944H679.287V442.416H672.663ZM677.671 441.488C677.511 441.179 677.303 440.949 677.047 440.8C676.78 440.651 676.428 440.576 675.991 440.576C675.063 440.576 674.503 440.88 674.311 441.488H677.671ZM684.887 452.24C683.585 452.24 682.684 451.984 682.183 451.472C681.692 450.949 681.447 450.267 681.447 449.424V448.224C681.447 447.648 681.585 447.232 681.863 446.976C682.14 446.709 682.599 446.576 683.239 446.576C683.868 446.576 684.305 446.699 684.551 446.944C684.807 447.179 684.935 447.557 684.935 448.08C684.935 448.507 684.817 448.859 684.583 449.136C684.359 449.403 684.065 449.536 683.703 449.536C683.468 449.536 683.292 449.525 683.175 449.504V449.824C683.175 450.229 683.313 450.533 683.591 450.736C683.868 450.939 684.3 451.04 684.887 451.04C685.473 451.04 685.932 450.933 686.263 450.72C686.593 450.496 686.759 450.176 686.759 449.76V446.304C686.759 445.685 686.583 445.232 686.231 444.944C685.889 444.645 685.34 444.496 684.583 444.496C684.071 444.496 683.612 444.571 683.207 444.72C682.801 444.859 682.423 445.088 682.071 445.408L681.319 444.448C681.767 444.075 682.289 443.792 682.887 443.6C683.484 443.397 684.113 443.296 684.775 443.296C686.087 443.296 687.031 443.557 687.607 444.08C688.193 444.603 688.487 445.349 688.487 446.32V449.664C688.487 450.08 688.375 450.485 688.151 450.88C687.927 451.264 687.543 451.589 686.999 451.856C686.465 452.112 685.761 452.24 684.887 452.24ZM683.223 448.752C683.479 448.752 683.655 448.709 683.751 448.624C683.847 448.528 683.895 448.357 683.895 448.112C683.895 447.856 683.847 447.685 683.751 447.6C683.665 447.504 683.489 447.456 683.223 447.456C682.956 447.456 682.775 447.504 682.679 447.6C682.583 447.685 682.535 447.856 682.535 448.112C682.535 448.347 682.583 448.512 682.679 448.608C682.785 448.704 682.967 448.752 683.223 448.752ZM692.506 452.24C691.866 452.24 691.423 452.123 691.178 451.888C690.932 451.643 690.81 451.221 690.81 450.624V444.112C690.81 443.099 691.055 442.347 691.546 441.856L692.33 441.088H689.146V439.888H694.538V440.8L693.242 442.08C692.975 442.336 692.788 442.613 692.682 442.912C692.575 443.211 692.522 443.6 692.522 444.08V449.28C692.618 449.269 692.746 449.264 692.906 449.264C693.311 449.264 693.626 449.387 693.85 449.632C694.074 449.867 694.186 450.224 694.186 450.704C694.186 451.237 694.058 451.627 693.802 451.872C693.556 452.117 693.124 452.24 692.506 452.24ZM692.538 451.36C692.804 451.36 692.986 451.317 693.082 451.232C693.178 451.136 693.226 450.96 693.226 450.704C693.226 450.459 693.178 450.293 693.082 450.208C692.986 450.112 692.804 450.064 692.538 450.064C692.282 450.064 692.1 450.112 691.994 450.208C691.898 450.304 691.85 450.469 691.85 450.704C691.85 450.96 691.898 451.136 691.994 451.232C692.09 451.317 692.271 451.36 692.538 451.36ZM697.253 452.24C696.677 452.24 696.261 452.123 696.005 451.888C695.749 451.643 695.621 451.259 695.621 450.736C695.621 449.755 696.133 449.264 697.157 449.264V446.256C697.061 446.267 696.939 446.272 696.789 446.272C696.384 446.272 696.069 446.155 695.845 445.92C695.621 445.675 695.509 445.312 695.509 444.832C695.509 444.299 695.632 443.909 695.877 443.664C696.133 443.419 696.571 443.296 697.189 443.296C697.829 443.296 698.272 443.419 698.517 443.664C698.763 443.899 698.885 444.315 698.885 444.912V449.44L701.669 450.512V443.536H703.397V452H702.133L698.997 450.736C698.997 451.237 698.864 451.616 698.597 451.872C698.331 452.117 697.883 452.24 697.253 452.24ZM697.157 445.472C697.413 445.472 697.589 445.424 697.685 445.328C697.792 445.232 697.845 445.067 697.845 444.832C697.845 444.576 697.797 444.405 697.701 444.32C697.605 444.224 697.424 444.176 697.157 444.176C696.891 444.176 696.709 444.224 696.613 444.32C696.517 444.405 696.469 444.576 696.469 444.832C696.469 445.077 696.517 445.248 696.613 445.344C696.709 445.429 696.891 445.472 697.157 445.472ZM697.333 451.392C697.589 451.392 697.765 451.344 697.861 451.248C697.957 451.141 698.005 450.971 698.005 450.736C698.005 450.48 697.957 450.309 697.861 450.224C697.765 450.128 697.589 450.08 697.333 450.08C697.067 450.08 696.885 450.128 696.789 450.224C696.693 450.309 696.645 450.48 696.645 450.736C696.645 450.981 696.693 451.152 696.789 451.248C696.896 451.344 697.077 451.392 697.333 451.392ZM702.071 439.68H703.799V442.416H702.071V439.68ZM707.063 446.256C706.967 446.267 706.844 446.272 706.695 446.272C706.29 446.272 705.975 446.155 705.751 445.92C705.527 445.675 705.415 445.312 705.415 444.832C705.415 444.299 705.538 443.909 705.783 443.664C706.039 443.419 706.476 443.296 707.095 443.296C707.735 443.296 708.178 443.419 708.423 443.664C708.668 443.899 708.791 444.315 708.791 444.912V447.424L710.327 444.608C710.594 444.107 710.86 443.765 711.127 443.584C711.404 443.392 711.794 443.296 712.295 443.296C712.796 443.296 713.175 443.419 713.431 443.664C713.698 443.899 713.831 444.245 713.831 444.704V452H712.103V444.976C712.103 444.88 712.087 444.816 712.055 444.784C712.023 444.741 711.964 444.72 711.879 444.72C711.783 444.72 711.698 444.768 711.623 444.864C711.559 444.949 711.431 445.163 711.239 445.504L708.791 449.984V452H707.063V446.256ZM707.063 445.472C707.319 445.472 707.495 445.424 707.591 445.328C707.698 445.232 707.751 445.067 707.751 444.832C707.751 444.576 707.703 444.405 707.607 444.32C707.511 444.224 707.33 444.176 707.063 444.176C706.796 444.176 706.615 444.224 706.519 444.32C706.423 444.405 706.375 444.576 706.375 444.832C706.375 445.077 706.423 445.248 706.519 445.344C706.615 445.429 706.796 445.472 707.063 445.472ZM706.768 442.416C706.843 441.499 707.221 440.795 707.904 440.304C708.576 439.813 709.424 439.568 710.448 439.568C710.885 439.568 711.307 439.632 711.712 439.76C712.117 439.877 712.443 440.048 712.688 440.272V438.944H714.224V442.416H706.768ZM712.576 441.488C712.416 441.189 712.149 440.965 711.776 440.816C711.403 440.656 710.96 440.576 710.448 440.576C709.936 440.576 709.499 440.656 709.136 440.816C708.763 440.965 708.533 441.189 708.448 441.488H712.576ZM713.088 436.176H714.624V438.368H713.088V436.176ZM716.72 445.664C716.72 444.885 716.907 444.299 717.28 443.904C717.653 443.499 718.171 443.296 718.832 443.296C719.76 443.296 720.325 443.627 720.528 444.288C720.773 443.627 721.355 443.296 722.272 443.296C723.648 443.296 724.336 444.085 724.336 445.664V452H722.608V445.792C722.608 445.269 722.565 444.917 722.48 444.736C722.395 444.555 722.197 444.464 721.888 444.464C721.632 444.464 721.445 444.539 721.328 444.688C721.221 444.837 721.168 445.067 721.168 445.376V445.552H719.872V445.376C719.872 445.056 719.824 444.827 719.728 444.688C719.643 444.539 719.472 444.464 719.216 444.464C718.907 444.464 718.699 444.56 718.592 444.752C718.496 444.933 718.448 445.275 718.448 445.776V450.656L719.728 449.344C719.44 449.259 719.243 449.125 719.136 448.944C719.029 448.752 718.976 448.459 718.976 448.064C718.976 447.531 719.104 447.152 719.36 446.928C719.616 446.693 720.005 446.576 720.528 446.576C721.147 446.576 721.573 446.688 721.808 446.912C722.043 447.136 722.16 447.515 722.16 448.048C722.16 448.368 722.091 448.64 721.952 448.864C721.824 449.088 721.616 449.344 721.328 449.632L719.024 452H716.72V445.664ZM720.56 448.704C720.816 448.704 720.992 448.656 721.088 448.56C721.195 448.453 721.248 448.283 721.248 448.048C721.248 447.792 721.195 447.621 721.088 447.536C720.992 447.44 720.816 447.392 720.56 447.392C720.293 447.392 720.112 447.44 720.016 447.536C719.92 447.621 719.872 447.792 719.872 448.048C719.872 448.293 719.92 448.464 720.016 448.56C720.123 448.656 720.304 448.704 720.56 448.704ZM720.768 441.456C721.024 441.456 721.216 441.435 721.344 441.392C721.472 441.349 721.558 441.264 721.6 441.136L721.408 441.152L721.232 441.136C720.614 441.083 720.304 440.725 720.304 440.064C720.304 439.627 720.416 439.317 720.64 439.136C720.854 438.955 721.206 438.864 721.696 438.864C722.198 438.864 722.555 438.96 722.768 439.152C722.971 439.344 723.072 439.664 723.072 440.112C723.072 440.667 722.939 441.077 722.672 441.344C723.184 441.312 723.563 441.147 723.808 440.848C724.054 440.549 724.176 440.117 724.176 439.552V439.296H725.504V439.6C725.504 440.112 725.398 440.581 725.184 441.008C724.96 441.435 724.64 441.776 724.224 442.032C723.798 442.288 723.286 442.416 722.688 442.416H720.768V441.456ZM721.696 440.592C721.92 440.592 722.075 440.555 722.16 440.48C722.235 440.395 722.272 440.251 722.272 440.048C722.272 439.845 722.23 439.707 722.144 439.632C722.059 439.557 721.91 439.52 721.696 439.52C721.472 439.52 721.323 439.557 721.248 439.632C721.163 439.707 721.12 439.845 721.12 440.048C721.12 440.251 721.163 440.395 721.248 440.48C721.323 440.555 721.472 440.592 721.696 440.592ZM730.08 452.24C728.779 452.24 727.878 451.984 727.376 451.472C726.886 450.949 726.64 450.267 726.64 449.424V448.224C726.64 447.648 726.779 447.232 727.056 446.976C727.334 446.709 727.792 446.576 728.432 446.576C729.062 446.576 729.499 446.699 729.744 446.944C730 447.179 730.128 447.557 730.128 448.08C730.128 448.507 730.011 448.859 729.776 449.136C729.552 449.403 729.259 449.536 728.896 449.536C728.662 449.536 728.486 449.525 728.368 449.504V449.824C728.368 450.229 728.507 450.533 728.784 450.736C729.062 450.939 729.494 451.04 730.08 451.04C730.667 451.04 731.126 450.933 731.456 450.72C731.787 450.496 731.952 450.176 731.952 449.76V446.304C731.952 445.685 731.776 445.232 731.424 444.944C731.083 444.645 730.534 444.496 729.776 444.496C729.264 444.496 728.806 444.571 728.4 444.72C727.995 444.859 727.616 445.088 727.264 445.408L726.512 444.448C726.96 444.075 727.483 443.792 728.08 443.6C728.678 443.397 729.307 443.296 729.968 443.296C731.28 443.296 732.224 443.557 732.8 444.08C733.387 444.603 733.68 445.349 733.68 446.32V449.664C733.68 450.08 733.568 450.485 733.344 450.88C733.12 451.264 732.736 451.589 732.192 451.856C731.659 452.112 730.955 452.24 730.08 452.24ZM728.416 448.752C728.672 448.752 728.848 448.709 728.944 448.624C729.04 448.528 729.088 448.357 729.088 448.112C729.088 447.856 729.04 447.685 728.944 447.6C728.859 447.504 728.683 447.456 728.416 447.456C728.15 447.456 727.968 447.504 727.872 447.6C727.776 447.685 727.728 447.856 727.728 448.112C727.728 448.347 727.776 448.512 727.872 448.608C727.979 448.704 728.16 448.752 728.416 448.752ZM735.139 446.256H736.835L738.499 450.8H739.395C739.726 450.8 739.971 450.736 740.131 450.608C740.291 450.469 740.371 450.251 740.371 449.952V446.256C740.275 446.267 740.153 446.272 740.003 446.272C739.598 446.272 739.283 446.155 739.059 445.92C738.835 445.675 738.723 445.312 738.723 444.832C738.723 444.299 738.846 443.909 739.091 443.664C739.347 443.419 739.785 443.296 740.403 443.296C741.043 443.296 741.486 443.419 741.731 443.664C741.977 443.899 742.099 444.315 742.099 444.912V449.296C742.099 449.765 742.051 450.192 741.955 450.576C741.87 450.949 741.651 451.28 741.299 451.568C740.958 451.856 740.435 452 739.731 452H737.251L735.139 446.256ZM740.371 445.472C740.627 445.472 740.803 445.424 740.899 445.328C741.006 445.232 741.059 445.067 741.059 444.832C741.059 444.576 741.011 444.405 740.915 444.32C740.819 444.224 740.638 444.176 740.371 444.176C740.105 444.176 739.923 444.224 739.827 444.32C739.731 444.405 739.683 444.576 739.683 444.832C739.683 445.077 739.731 445.248 739.827 445.344C739.923 445.429 740.105 445.472 740.371 445.472ZM744.211 448.528C744.211 448.08 744.28 447.707 744.419 447.408C744.558 447.099 744.798 446.848 745.139 446.656L743.875 445.904V444.768C744.376 444.299 744.958 443.936 745.619 443.68C746.28 443.424 746.995 443.296 747.763 443.296C749.011 443.296 749.955 443.568 750.595 444.112C751.235 444.645 751.555 445.371 751.555 446.288V452H749.827V446.24C749.827 445.664 749.651 445.232 749.299 444.944C748.947 444.645 748.435 444.496 747.763 444.496C746.867 444.496 746.11 444.736 745.491 445.216V445.424L746.787 446.24V446.992C746.456 447.12 746.232 447.296 746.115 447.52C745.998 447.733 745.939 448.059 745.939 448.496V452H744.211V448.528ZM757.257 446.336C757.257 445.685 757.145 445.216 756.921 444.928C756.697 444.64 756.281 444.496 755.673 444.496C755.311 444.496 754.953 444.576 754.601 444.736C754.26 444.885 753.961 445.088 753.705 445.344L752.937 444.352C753.343 443.989 753.78 443.723 754.249 443.552C754.719 443.381 755.247 443.296 755.833 443.296C756.996 443.296 757.812 443.563 758.281 444.096C758.751 444.619 758.985 445.371 758.985 446.352V452H757.257V446.336ZM764.241 452.24C763.622 452.24 763.185 452.117 762.929 451.872C762.683 451.627 762.561 451.237 762.561 450.704C762.561 450.224 762.673 449.867 762.897 449.632C763.121 449.387 763.435 449.264 763.841 449.264C763.99 449.264 764.113 449.269 764.209 449.28V448.432C764.209 448.165 764.182 447.979 764.129 447.872C764.086 447.755 763.995 447.664 763.857 447.6C763.718 447.536 763.451 447.451 763.057 447.344L760.769 446.704V445.776C760.769 444.933 761.057 444.309 761.633 443.904C762.209 443.499 763.009 443.296 764.033 443.296C764.769 443.296 765.382 443.371 765.873 443.52C766.374 443.669 766.811 443.899 767.185 444.208L766.481 445.136C765.83 444.709 765.078 444.496 764.225 444.496C763.649 444.496 763.217 444.597 762.929 444.8C762.641 445.003 762.497 445.285 762.497 445.648V445.936L764.833 446.592C765.27 446.709 765.563 446.907 765.713 447.184C765.862 447.451 765.937 447.851 765.937 448.384V450.624C765.937 451.221 765.814 451.643 765.569 451.888C765.323 452.123 764.881 452.24 764.241 452.24ZM764.209 451.36C764.475 451.36 764.657 451.317 764.753 451.232C764.849 451.136 764.897 450.96 764.897 450.704C764.897 450.469 764.843 450.304 764.737 450.208C764.641 450.112 764.465 450.064 764.209 450.064C763.942 450.064 763.761 450.112 763.665 450.208C763.569 450.293 763.521 450.459 763.521 450.704C763.521 450.96 763.569 451.136 763.665 451.232C763.761 451.317 763.942 451.36 764.209 451.36ZM770.317 452.24C769.709 452.24 769.277 452.075 769.021 451.744C768.765 451.403 768.637 450.885 768.637 450.192C768.637 447.931 769.677 446.8 771.757 446.8C772.269 446.8 772.728 446.885 773.133 447.056C773.539 447.216 773.843 447.461 774.045 447.792V446.352C774.045 445.733 773.885 445.269 773.565 444.96C773.256 444.651 772.749 444.496 772.045 444.496C771.512 444.496 771.037 444.571 770.621 444.72C770.216 444.869 769.837 445.109 769.485 445.44L768.717 444.448C769.592 443.68 770.739 443.296 772.157 443.296C773.352 443.296 774.253 443.568 774.861 444.112C775.469 444.645 775.773 445.381 775.773 446.32V452H774.093C774.093 451.04 774.019 450.272 773.869 449.696C773.72 449.109 773.475 448.683 773.133 448.416C772.803 448.139 772.349 448 771.773 448C771.272 448 770.899 448.096 770.653 448.288C770.419 448.469 770.275 448.789 770.221 449.248C770.307 449.237 770.424 449.232 770.573 449.232C771.064 449.232 771.421 449.36 771.645 449.616C771.88 449.861 771.997 450.235 771.997 450.736C771.997 451.259 771.869 451.643 771.613 451.888C771.357 452.123 770.925 452.24 770.317 452.24ZM770.349 451.376C770.616 451.376 770.797 451.328 770.893 451.232C770.989 451.136 771.037 450.96 771.037 450.704C771.037 450.459 770.989 450.293 770.893 450.208C770.797 450.112 770.616 450.064 770.349 450.064C770.093 450.064 769.912 450.112 769.805 450.208C769.709 450.304 769.661 450.469 769.661 450.704C769.661 450.949 769.715 451.125 769.821 451.232C769.928 451.328 770.104 451.376 770.349 451.376ZM782.689 452.24C781.356 452.24 780.412 451.963 779.857 451.408C779.313 450.853 779.041 450.064 779.041 449.04V446.256C778.945 446.267 778.822 446.272 778.673 446.272C778.268 446.272 777.953 446.155 777.729 445.92C777.505 445.675 777.393 445.312 777.393 444.832C777.393 444.299 777.516 443.909 777.761 443.664C778.017 443.419 778.454 443.296 779.073 443.296C779.713 443.296 780.156 443.419 780.401 443.664C780.646 443.899 780.769 444.315 780.769 444.912V449.104C780.769 449.765 780.902 450.256 781.169 450.576C781.446 450.885 781.948 451.04 782.673 451.04C783.228 451.04 783.638 450.955 783.905 450.784C784.172 450.613 784.348 450.373 784.433 450.064C784.518 449.744 784.561 449.296 784.561 448.72V443.536H786.289V449.04C786.289 450.075 786.022 450.869 785.489 451.424C784.956 451.968 784.022 452.24 782.689 452.24ZM779.041 445.472C779.297 445.472 779.473 445.424 779.569 445.328C779.676 445.232 779.729 445.067 779.729 444.832C779.729 444.576 779.681 444.405 779.585 444.32C779.489 444.224 779.308 444.176 779.041 444.176C778.774 444.176 778.593 444.224 778.497 444.32C778.401 444.405 778.353 444.576 778.353 444.832C778.353 445.077 778.401 445.248 778.497 445.344C778.593 445.429 778.774 445.472 779.041 445.472ZM791.758 452.24C790.468 452.24 789.582 451.963 789.102 451.408C788.622 450.843 788.382 450.075 788.382 449.104V448.48C788.382 448.043 788.468 447.643 788.638 447.28C788.82 446.907 789.065 446.576 789.374 446.288C788.884 446.267 788.542 446.144 788.35 445.92C788.158 445.685 788.062 445.312 788.062 444.8C788.062 444.277 788.185 443.899 788.43 443.664C788.686 443.419 789.124 443.296 789.742 443.296C790.372 443.296 790.809 443.408 791.054 443.632C791.3 443.856 791.422 444.251 791.422 444.816V445.344C791.422 445.547 791.374 445.733 791.278 445.904C791.193 446.064 791.054 446.261 790.862 446.496C790.617 446.805 790.43 447.088 790.302 447.344C790.174 447.6 790.11 447.915 790.11 448.288V449.168C790.11 449.616 790.142 449.968 790.206 450.224C790.281 450.469 790.436 450.667 790.67 450.816C790.905 450.965 791.268 451.04 791.758 451.04C792.249 451.04 792.612 450.971 792.846 450.832C793.092 450.683 793.246 450.48 793.31 450.224C793.374 449.968 793.406 449.616 793.406 449.168V443.536H795.134V449.04C795.134 450.053 794.889 450.843 794.398 451.408C793.908 451.963 793.028 452.24 791.758 452.24ZM789.71 445.472C789.966 445.472 790.142 445.424 790.238 445.328C790.345 445.232 790.398 445.067 790.398 444.832C790.398 444.576 790.35 444.405 790.254 444.32C790.158 444.224 789.977 444.176 789.71 444.176C789.444 444.176 789.262 444.224 789.166 444.32C789.07 444.405 789.022 444.576 789.022 444.832C789.022 445.077 789.07 445.248 789.166 445.344C789.262 445.429 789.444 445.472 789.71 445.472ZM791.572 441.456C791.828 441.456 792.02 441.435 792.148 441.392C792.276 441.349 792.361 441.264 792.404 441.136L792.212 441.152L792.036 441.136C791.417 441.083 791.108 440.725 791.108 440.064C791.108 439.627 791.22 439.317 791.444 439.136C791.657 438.955 792.009 438.864 792.5 438.864C793.001 438.864 793.358 438.96 793.572 439.152C793.774 439.344 793.876 439.664 793.876 440.112C793.876 440.667 793.742 441.077 793.476 441.344C793.988 441.312 794.366 441.147 794.612 440.848C794.857 440.549 794.98 440.117 794.98 439.552V439.296H796.308V439.6C796.308 440.112 796.201 440.581 795.988 441.008C795.764 441.435 795.444 441.776 795.028 442.032C794.601 442.288 794.089 442.416 793.492 442.416H791.572V441.456ZM792.5 440.592C792.724 440.592 792.878 440.555 792.964 440.48C793.038 440.395 793.076 440.251 793.076 440.048C793.076 439.845 793.033 439.707 792.948 439.632C792.862 439.557 792.713 439.52 792.5 439.52C792.276 439.52 792.126 439.557 792.052 439.632C791.966 439.707 791.924 439.845 791.924 440.048C791.924 440.251 791.966 440.395 792.052 440.48C792.126 440.555 792.276 440.592 792.5 440.592ZM800.884 452.24C799.582 452.24 798.681 451.984 798.18 451.472C797.689 450.949 797.444 450.267 797.444 449.424V448.224C797.444 447.648 797.582 447.232 797.86 446.976C798.137 446.709 798.596 446.576 799.236 446.576C799.865 446.576 800.302 446.699 800.548 446.944C800.804 447.179 800.932 447.557 800.932 448.08C800.932 448.507 800.814 448.859 800.58 449.136C800.356 449.403 800.062 449.536 799.7 449.536C799.465 449.536 799.289 449.525 799.172 449.504V449.824C799.172 450.229 799.31 450.533 799.588 450.736C799.865 450.939 800.297 451.04 800.884 451.04C801.47 451.04 801.929 450.933 802.26 450.72C802.59 450.496 802.756 450.176 802.756 449.76V446.304C802.756 445.685 802.58 445.232 802.228 444.944C801.886 444.645 801.337 444.496 800.58 444.496C800.068 444.496 799.609 444.571 799.204 444.72C798.798 444.859 798.42 445.088 798.068 445.408L797.316 444.448C797.764 444.075 798.286 443.792 798.884 443.6C799.481 443.397 800.11 443.296 800.772 443.296C802.084 443.296 803.028 443.557 803.604 444.08C804.19 444.603 804.484 445.349 804.484 446.32V449.664C804.484 450.08 804.372 450.485 804.148 450.88C803.924 451.264 803.54 451.589 802.996 451.856C802.462 452.112 801.758 452.24 800.884 452.24ZM799.22 448.752C799.476 448.752 799.652 448.709 799.748 448.624C799.844 448.528 799.892 448.357 799.892 448.112C799.892 447.856 799.844 447.685 799.748 447.6C799.662 447.504 799.486 447.456 799.22 447.456C798.953 447.456 798.772 447.504 798.676 447.6C798.58 447.685 798.532 447.856 798.532 448.112C798.532 448.347 798.58 448.512 798.676 448.608C798.782 448.704 798.964 448.752 799.22 448.752ZM808.006 452.24C807.43 452.24 807.014 452.123 806.758 451.888C806.502 451.643 806.374 451.259 806.374 450.736C806.374 449.755 806.886 449.264 807.91 449.264V446.256C807.814 446.267 807.692 446.272 807.542 446.272C807.137 446.272 806.822 446.155 806.598 445.92C806.374 445.675 806.262 445.312 806.262 444.832C806.262 444.299 806.385 443.909 806.63 443.664C806.886 443.419 807.324 443.296 807.942 443.296C808.582 443.296 809.025 443.419 809.27 443.664C809.516 443.899 809.638 444.315 809.638 444.912V449.44L812.422 450.512V443.536H814.15V452H812.886L809.75 450.736C809.75 451.237 809.617 451.616 809.35 451.872C809.084 452.117 808.636 452.24 808.006 452.24ZM807.91 445.472C808.166 445.472 808.342 445.424 808.438 445.328C808.545 445.232 808.598 445.067 808.598 444.832C808.598 444.576 808.55 444.405 808.454 444.32C808.358 444.224 808.177 444.176 807.91 444.176C807.644 444.176 807.462 444.224 807.366 444.32C807.27 444.405 807.222 444.576 807.222 444.832C807.222 445.077 807.27 445.248 807.366 445.344C807.462 445.429 807.644 445.472 807.91 445.472ZM808.086 451.392C808.342 451.392 808.518 451.344 808.614 451.248C808.71 451.141 808.758 450.971 808.758 450.736C808.758 450.48 808.71 450.309 808.614 450.224C808.518 450.128 808.342 450.08 808.086 450.08C807.82 450.08 807.638 450.128 807.542 450.224C807.446 450.309 807.398 450.48 807.398 450.736C807.398 450.981 807.446 451.152 807.542 451.248C807.649 451.344 807.83 451.392 808.086 451.392ZM812.584 457.008C811.283 457.008 810.632 456.56 810.632 455.664V455.536C810.504 455.568 810.349 455.584 810.168 455.584C809.261 455.584 808.808 455.12 808.808 454.192C808.808 453.691 808.936 453.333 809.192 453.12C809.448 452.917 809.869 452.816 810.456 452.816C811.064 452.816 811.485 452.928 811.72 453.152C811.955 453.376 812.072 453.776 812.072 454.352V455.344C812.072 455.557 812.109 455.701 812.184 455.776C812.248 455.851 812.376 455.888 812.568 455.888C812.781 455.888 812.925 455.851 813 455.776C813.064 455.701 813.096 455.557 813.096 455.344V452.912H814.552V455.232C814.552 455.829 814.397 456.272 814.088 456.56C813.779 456.859 813.277 457.008 812.584 457.008ZM810.44 454.8C810.675 454.8 810.845 454.752 810.952 454.656C811.048 454.571 811.096 454.416 811.096 454.192C811.096 453.957 811.048 453.792 810.952 453.696C810.845 453.611 810.675 453.568 810.44 453.568C810.205 453.568 810.04 453.611 809.944 453.696C809.837 453.792 809.784 453.957 809.784 454.192C809.784 454.416 809.837 454.571 809.944 454.656C810.051 454.752 810.216 454.8 810.44 454.8ZM818.008 452.24C817.4 452.24 816.968 452.075 816.712 451.744C816.456 451.403 816.328 450.885 816.328 450.192C816.328 447.931 817.368 446.8 819.448 446.8C819.96 446.8 820.419 446.885 820.824 447.056C821.229 447.216 821.533 447.461 821.736 447.792V446.352C821.736 445.733 821.576 445.269 821.256 444.96C820.947 444.651 820.44 444.496 819.736 444.496C819.203 444.496 818.728 444.571 818.312 444.72C817.907 444.869 817.528 445.109 817.176 445.44L816.408 444.448C817.283 443.68 818.429 443.296 819.848 443.296C821.043 443.296 821.944 443.568 822.552 444.112C823.16 444.645 823.464 445.381 823.464 446.32V452H821.784C821.784 451.04 821.709 450.272 821.56 449.696C821.411 449.109 821.165 448.683 820.824 448.416C820.493 448.139 820.04 448 819.464 448C818.963 448 818.589 448.096 818.344 448.288C818.109 448.469 817.965 448.789 817.912 449.248C817.997 449.237 818.115 449.232 818.264 449.232C818.755 449.232 819.112 449.36 819.336 449.616C819.571 449.861 819.688 450.235 819.688 450.736C819.688 451.259 819.56 451.643 819.304 451.888C819.048 452.123 818.616 452.24 818.008 452.24ZM818.04 451.376C818.307 451.376 818.488 451.328 818.584 451.232C818.68 451.136 818.728 450.96 818.728 450.704C818.728 450.459 818.68 450.293 818.584 450.208C818.488 450.112 818.307 450.064 818.04 450.064C817.784 450.064 817.603 450.112 817.496 450.208C817.4 450.304 817.352 450.469 817.352 450.704C817.352 450.949 817.405 451.125 817.512 451.232C817.619 451.328 817.795 451.376 818.04 451.376ZM831.804 452.24C831.26 452.24 830.838 452.149 830.54 451.968C830.241 451.776 830.092 451.451 830.092 450.992C830.092 450.875 830.097 450.784 830.108 450.72L828.3 452H826.732V446.256C826.636 446.267 826.513 446.272 826.364 446.272C825.958 446.272 825.644 446.155 825.42 445.92C825.196 445.675 825.084 445.312 825.084 444.832C825.084 444.299 825.206 443.909 825.452 443.664C825.708 443.419 826.145 443.296 826.764 443.296C827.404 443.296 827.846 443.419 828.092 443.664C828.337 443.899 828.46 444.315 828.46 444.912V450.368L831.212 448.512C831.35 448.427 831.441 448.341 831.484 448.256C831.537 448.16 831.564 448.027 831.564 447.856V443.536H833.292V447.84C833.292 448.117 833.217 448.357 833.068 448.56C832.929 448.752 832.673 448.976 832.3 449.232C832.758 449.275 833.084 449.413 833.276 449.648C833.468 449.883 833.564 450.224 833.564 450.672C833.564 451.237 833.43 451.643 833.164 451.888C832.908 452.123 832.454 452.24 831.804 452.24ZM826.732 445.472C826.988 445.472 827.164 445.424 827.26 445.328C827.366 445.232 827.42 445.067 827.42 444.832C827.42 444.576 827.372 444.405 827.276 444.32C827.18 444.224 826.998 444.176 826.732 444.176C826.465 444.176 826.284 444.224 826.188 444.32C826.092 444.405 826.044 444.576 826.044 444.832C826.044 445.077 826.092 445.248 826.188 445.344C826.284 445.429 826.465 445.472 826.732 445.472ZM831.836 451.312C832.102 451.312 832.284 451.269 832.38 451.184C832.476 451.088 832.524 450.912 832.524 450.656C832.524 450.411 832.47 450.24 832.364 450.144C832.268 450.048 832.092 450 831.836 450C831.58 450 831.398 450.048 831.292 450.144C831.196 450.24 831.148 450.411 831.148 450.656C831.148 450.912 831.196 451.088 831.292 451.184C831.398 451.269 831.58 451.312 831.836 451.312ZM826.234 442.416C826.308 441.499 826.687 440.795 827.37 440.304C828.042 439.813 828.89 439.568 829.914 439.568C830.351 439.568 830.772 439.632 831.178 439.76C831.583 439.877 831.908 440.048 832.154 440.272V438.944H833.69V442.416H826.234ZM832.042 441.488C831.882 441.189 831.615 440.965 831.242 440.816C830.868 440.656 830.426 440.576 829.914 440.576C829.402 440.576 828.964 440.656 828.602 440.816C828.228 440.965 827.999 441.189 827.914 441.488H832.042ZM831.257 437.552C831.503 437.552 831.679 437.541 831.785 437.52C831.892 437.488 831.972 437.408 832.025 437.28L831.849 437.296L831.689 437.28C831.113 437.227 830.826 436.901 830.826 436.304C830.826 435.909 830.927 435.632 831.129 435.472C831.332 435.301 831.657 435.216 832.105 435.216C832.564 435.216 832.889 435.307 833.081 435.488C833.263 435.659 833.353 435.947 833.353 436.352C833.353 436.832 833.231 437.2 832.985 437.456C833.913 437.392 834.377 436.827 834.377 435.76V435.552H835.578V435.808C835.578 436.267 835.476 436.693 835.274 437.088C835.082 437.472 834.794 437.781 834.41 438.016C834.015 438.251 833.545 438.368 833.001 438.368H831.257V437.552ZM832.105 436.8C832.297 436.8 832.436 436.763 832.521 436.688C832.596 436.603 832.633 436.469 832.633 436.288C832.633 436.107 832.596 435.984 832.521 435.92C832.436 435.845 832.297 435.808 832.105 435.808C831.892 435.808 831.748 435.84 831.673 435.904C831.599 435.968 831.561 436.096 831.561 436.288C831.561 436.48 831.604 436.613 831.689 436.688C831.764 436.763 831.903 436.8 832.105 436.8Z" fill="black"/>
<mask id="path-6-inside-1_1_22404" fill="white">
<path d="M440 560H1000V630H440V560Z"/>
</mask>
<path d="M440 560H1000V630H440V560Z" fill="white"/>
<path d="M440 560V561H1000V560V559H440V560Z" fill="#CBD5E1" mask="url(#path-6-inside-1_1_22404)"/>
<rect x="548.5" y="576.5" width="159" height="37" rx="5.5" fill="#6C757D"/>
<rect x="548.5" y="576.5" width="159" height="37" rx="5.5" stroke="#6C757D"/>
<g clip-path="url(#clip3_1_22404)">
<rect width="42" height="24" transform="translate(607 583)" fill="white" fill-opacity="0.01"/>
<path d="M611.176 600.24C609.96 600.24 609.048 600.021 608.44 599.584C607.832 599.147 607.528 598.517 607.528 597.696C607.528 597.28 607.597 596.923 607.736 596.624C607.875 596.315 608.109 596.069 608.44 595.888C607.843 595.461 607.544 594.784 607.544 593.856V592.944C607.544 592.368 607.683 591.952 607.96 591.696C608.237 591.429 608.696 591.296 609.336 591.296C609.965 591.296 610.403 591.419 610.648 591.664C610.904 591.899 611.032 592.277 611.032 592.8C611.032 593.227 610.915 593.579 610.68 593.856C610.456 594.123 610.163 594.256 609.8 594.256C609.565 594.256 609.389 594.245 609.272 594.224C609.272 594.587 609.347 594.853 609.496 595.024C609.656 595.184 609.928 595.264 610.312 595.264H610.936V596.48H610.344C609.587 596.48 609.208 596.88 609.208 597.68C609.208 598.139 609.389 598.48 609.752 598.704C610.115 598.928 610.584 599.04 611.16 599.04C611.8 599.04 612.275 598.896 612.584 598.608C612.904 598.32 613.064 597.872 613.064 597.264V591.536H614.792V596.784C614.792 597.947 614.504 598.816 613.928 599.392C613.352 599.957 612.435 600.24 611.176 600.24ZM609.32 593.472C609.576 593.472 609.752 593.429 609.848 593.344C609.944 593.248 609.992 593.077 609.992 592.832C609.992 592.576 609.944 592.405 609.848 592.32C609.763 592.224 609.587 592.176 609.32 592.176C609.053 592.176 608.872 592.224 608.776 592.32C608.68 592.405 608.632 592.576 608.632 592.832C608.632 593.067 608.68 593.232 608.776 593.328C608.883 593.424 609.064 593.472 609.32 593.472ZM616.905 596.528C616.905 596.08 616.974 595.707 617.113 595.408C617.251 595.099 617.491 594.848 617.833 594.656L616.569 593.904V592.768C617.07 592.299 617.651 591.936 618.313 591.68C618.974 591.424 619.689 591.296 620.457 591.296C621.705 591.296 622.649 591.568 623.289 592.112C623.929 592.645 624.249 593.371 624.249 594.288V600H622.521V594.24C622.521 593.664 622.345 593.232 621.993 592.944C621.641 592.645 621.129 592.496 620.457 592.496C619.561 592.496 618.803 592.736 618.185 593.216V593.424L619.481 594.24V594.992C619.15 595.12 618.926 595.296 618.809 595.52C618.691 595.733 618.633 596.059 618.633 596.496V600H616.905V596.528ZM628.047 600.24C627.407 600.24 626.964 600.123 626.719 599.888C626.474 599.643 626.351 599.221 626.351 598.624V591.536H628.063V597.28C628.159 597.269 628.287 597.264 628.447 597.264C628.852 597.264 629.167 597.387 629.391 597.632C629.615 597.867 629.727 598.224 629.727 598.704C629.727 599.237 629.599 599.627 629.343 599.872C629.098 600.117 628.666 600.24 628.047 600.24ZM628.079 599.36C628.346 599.36 628.527 599.317 628.623 599.232C628.719 599.136 628.767 598.96 628.767 598.704C628.767 598.459 628.719 598.293 628.623 598.208C628.527 598.112 628.346 598.064 628.079 598.064C627.823 598.064 627.642 598.112 627.535 598.208C627.439 598.304 627.391 598.469 627.391 598.704C627.391 598.96 627.439 599.136 627.535 599.232C627.631 599.317 627.812 599.36 628.079 599.36ZM632.471 600.24C631.863 600.24 631.431 600.075 631.175 599.744C630.919 599.403 630.791 598.885 630.791 598.192C630.791 595.931 631.831 594.8 633.911 594.8C634.423 594.8 634.881 594.885 635.287 595.056C635.692 595.216 635.996 595.461 636.199 595.792V594.352C636.199 593.733 636.039 593.269 635.719 592.96C635.409 592.651 634.903 592.496 634.199 592.496C633.665 592.496 633.191 592.571 632.775 592.72C632.369 592.869 631.991 593.109 631.639 593.44L630.871 592.448C631.745 591.68 632.892 591.296 634.311 591.296C635.505 591.296 636.407 591.568 637.015 592.112C637.623 592.645 637.927 593.381 637.927 594.32V600H636.247C636.247 599.04 636.172 598.272 636.023 597.696C635.873 597.109 635.628 596.683 635.287 596.416C634.956 596.139 634.503 596 633.927 596C633.425 596 633.052 596.096 632.807 596.288C632.572 596.469 632.428 596.789 632.375 597.248C632.46 597.237 632.577 597.232 632.727 597.232C633.217 597.232 633.575 597.36 633.799 597.616C634.033 597.861 634.151 598.235 634.151 598.736C634.151 599.259 634.023 599.643 633.767 599.888C633.511 600.123 633.079 600.24 632.471 600.24ZM632.503 599.376C632.769 599.376 632.951 599.328 633.047 599.232C633.143 599.136 633.191 598.96 633.191 598.704C633.191 598.459 633.143 598.293 633.047 598.208C632.951 598.112 632.769 598.064 632.503 598.064C632.247 598.064 632.065 598.112 631.959 598.208C631.863 598.304 631.815 598.469 631.815 598.704C631.815 598.949 631.868 599.125 631.975 599.232C632.081 599.328 632.257 599.376 632.503 599.376ZM630.874 590.416C630.959 589.499 631.349 588.795 632.042 588.304C632.725 587.813 633.578 587.568 634.602 587.568C635.637 587.568 636.501 587.813 637.194 588.304C637.887 588.795 638.271 589.499 638.346 590.416H630.874ZM636.666 589.488C636.57 589.2 636.335 588.976 635.962 588.816C635.589 588.656 635.141 588.576 634.618 588.576C634.095 588.576 633.647 588.656 633.274 588.816C632.89 588.976 632.655 589.2 632.57 589.488H636.666ZM640.442 596.528C640.442 596.08 640.511 595.707 640.65 595.408C640.789 595.099 641.029 594.848 641.37 594.656L640.106 593.904V592.768C640.607 592.299 641.189 591.936 641.85 591.68C642.511 591.424 643.226 591.296 643.994 591.296C645.242 591.296 646.186 591.568 646.826 592.112C647.466 592.645 647.786 593.371 647.786 594.288V600H646.058V594.24C646.058 593.664 645.882 593.232 645.53 592.944C645.178 592.645 644.666 592.496 643.994 592.496C643.098 592.496 642.341 592.736 641.722 593.216V593.424L643.018 594.24V594.992C642.687 595.12 642.463 595.296 642.346 595.52C642.229 595.733 642.17 596.059 642.17 596.496V600H640.442V596.528Z" fill="white"/>
</g>
<rect x="732.5" y="576.5" width="159" height="37" rx="5.5" fill="#DC3545"/>
<rect x="732.5" y="576.5" width="159" height="37" rx="5.5" stroke="#DC3545"/>
<g clip-path="url(#clip4_1_22404)">
<rect width="39" height="24" transform="translate(792.5 583)" fill="white" fill-opacity="0.01"/>
<path d="M796.676 600.24C795.46 600.24 794.548 600.021 793.94 599.584C793.332 599.147 793.028 598.517 793.028 597.696C793.028 597.28 793.097 596.923 793.236 596.624C793.375 596.315 793.609 596.069 793.94 595.888C793.343 595.461 793.044 594.784 793.044 593.856V592.944C793.044 592.368 793.183 591.952 793.46 591.696C793.737 591.429 794.196 591.296 794.836 591.296C795.465 591.296 795.903 591.419 796.148 591.664C796.404 591.899 796.532 592.277 796.532 592.8C796.532 593.227 796.415 593.579 796.18 593.856C795.956 594.123 795.663 594.256 795.3 594.256C795.065 594.256 794.889 594.245 794.772 594.224C794.772 594.587 794.847 594.853 794.996 595.024C795.156 595.184 795.428 595.264 795.812 595.264H796.436V596.48H795.844C795.087 596.48 794.708 596.88 794.708 597.68C794.708 598.139 794.889 598.48 795.252 598.704C795.615 598.928 796.084 599.04 796.66 599.04C797.3 599.04 797.775 598.896 798.084 598.608C798.404 598.32 798.564 597.872 798.564 597.264V591.536H800.292V596.784C800.292 597.947 800.004 598.816 799.428 599.392C798.852 599.957 797.935 600.24 796.676 600.24ZM794.82 593.472C795.076 593.472 795.252 593.429 795.348 593.344C795.444 593.248 795.492 593.077 795.492 592.832C795.492 592.576 795.444 592.405 795.348 592.32C795.263 592.224 795.087 592.176 794.82 592.176C794.553 592.176 794.372 592.224 794.276 592.32C794.18 592.405 794.132 592.576 794.132 592.832C794.132 593.067 794.18 593.232 794.276 593.328C794.383 593.424 794.564 593.472 794.82 593.472ZM793.237 590.416C793.333 589.531 793.722 588.848 794.405 588.368C795.087 587.888 795.919 587.648 796.901 587.648C797.007 587.648 797.157 587.659 797.349 587.68V586.944H798.709V587.92C798.986 588.037 799.194 588.165 799.333 588.304V586.944H800.693V590.416H793.237ZM799.061 589.488C798.709 588.88 797.994 588.576 796.917 588.576C796.405 588.576 795.967 588.656 795.605 588.816C795.231 588.965 795.002 589.189 794.917 589.488H799.061ZM809.029 600.24C808.485 600.24 808.063 600.149 807.765 599.968C807.466 599.776 807.317 599.451 807.317 598.992C807.317 598.875 807.322 598.784 807.333 598.72L805.525 600H803.957V594.256C803.861 594.267 803.738 594.272 803.589 594.272C803.183 594.272 802.869 594.155 802.645 593.92C802.421 593.675 802.309 593.312 802.309 592.832C802.309 592.299 802.431 591.909 802.677 591.664C802.933 591.419 803.37 591.296 803.989 591.296C804.629 591.296 805.071 591.419 805.317 591.664C805.562 591.899 805.685 592.315 805.685 592.912V598.368L808.437 596.512C808.575 596.427 808.666 596.341 808.709 596.256C808.762 596.16 808.789 596.027 808.789 595.856V591.536H810.517V595.84C810.517 596.117 810.442 596.357 810.293 596.56C810.154 596.752 809.898 596.976 809.525 597.232C809.983 597.275 810.309 597.413 810.501 597.648C810.693 597.883 810.789 598.224 810.789 598.672C810.789 599.237 810.655 599.643 810.389 599.888C810.133 600.123 809.679 600.24 809.029 600.24ZM803.957 593.472C804.213 593.472 804.389 593.424 804.485 593.328C804.591 593.232 804.645 593.067 804.645 592.832C804.645 592.576 804.597 592.405 804.501 592.32C804.405 592.224 804.223 592.176 803.957 592.176C803.69 592.176 803.509 592.224 803.413 592.32C803.317 592.405 803.269 592.576 803.269 592.832C803.269 593.077 803.317 593.248 803.413 593.344C803.509 593.429 803.69 593.472 803.957 593.472ZM809.061 599.312C809.327 599.312 809.509 599.269 809.605 599.184C809.701 599.088 809.749 598.912 809.749 598.656C809.749 598.411 809.695 598.24 809.589 598.144C809.493 598.048 809.317 598 809.061 598C808.805 598 808.623 598.048 808.517 598.144C808.421 598.24 808.373 598.411 808.373 598.656C808.373 598.912 808.421 599.088 808.517 599.184C808.623 599.269 808.805 599.312 809.061 599.312ZM815.939 600.24C814.723 600.24 813.811 600.021 813.203 599.584C812.595 599.147 812.291 598.517 812.291 597.696C812.291 597.28 812.36 596.923 812.499 596.624C812.637 596.315 812.872 596.069 813.203 595.888C812.605 595.461 812.307 594.784 812.307 593.856V592.944C812.307 592.368 812.445 591.952 812.723 591.696C813 591.429 813.459 591.296 814.099 591.296C814.728 591.296 815.165 591.419 815.411 591.664C815.667 591.899 815.795 592.277 815.795 592.8C815.795 593.227 815.677 593.579 815.443 593.856C815.219 594.123 814.925 594.256 814.563 594.256C814.328 594.256 814.152 594.245 814.035 594.224C814.035 594.587 814.109 594.853 814.259 595.024C814.419 595.184 814.691 595.264 815.075 595.264H815.699V596.48H815.107C814.349 596.48 813.971 596.88 813.971 597.68C813.971 598.139 814.152 598.48 814.515 598.704C814.877 598.928 815.347 599.04 815.923 599.04C816.563 599.04 817.037 598.896 817.347 598.608C817.667 598.32 817.827 597.872 817.827 597.264V591.536H819.555V596.784C819.555 597.947 819.267 598.816 818.691 599.392C818.115 599.957 817.197 600.24 815.939 600.24ZM814.083 593.472C814.339 593.472 814.515 593.429 814.611 593.344C814.707 593.248 814.755 593.077 814.755 592.832C814.755 592.576 814.707 592.405 814.611 592.32C814.525 592.224 814.349 592.176 814.083 592.176C813.816 592.176 813.635 592.224 813.539 592.32C813.443 592.405 813.395 592.576 813.395 592.832C813.395 593.067 813.443 593.232 813.539 593.328C813.645 593.424 813.827 593.472 814.083 593.472ZM818.771 590.416C817.779 590.416 816.99 590.267 816.403 589.968C815.806 589.659 815.507 589.168 815.507 588.496C815.507 587.952 815.651 587.552 815.939 587.296C816.216 587.029 816.654 586.896 817.251 586.896C817.838 586.896 818.259 587.013 818.515 587.248C818.771 587.472 818.899 587.819 818.899 588.288C818.899 588.64 818.803 588.928 818.611 589.152C818.803 589.184 819.006 589.2 819.219 589.2C819.592 589.2 819.987 589.12 820.403 588.96C820.819 588.8 821.155 588.592 821.411 588.336L822.115 589.264C821.71 589.659 821.235 589.952 820.691 590.144C820.147 590.325 819.507 590.416 818.771 590.416ZM817.219 589.12C817.475 589.12 817.656 589.072 817.763 588.976C817.859 588.88 817.907 588.715 817.907 588.48C817.907 588.224 817.859 588.053 817.763 587.968C817.667 587.872 817.486 587.824 817.219 587.824C816.952 587.824 816.776 587.872 816.691 587.968C816.595 588.053 816.547 588.224 816.547 588.48C816.547 588.725 816.595 588.896 816.691 588.992C816.787 589.077 816.963 589.12 817.219 589.12ZM828.291 600.24C827.747 600.24 827.326 600.149 827.027 599.968C826.728 599.776 826.579 599.451 826.579 598.992C826.579 598.875 826.584 598.784 826.595 598.72L824.787 600H823.219V594.256C823.123 594.267 823 594.272 822.851 594.272C822.446 594.272 822.131 594.155 821.907 593.92C821.683 593.675 821.571 593.312 821.571 592.832C821.571 592.299 821.694 591.909 821.939 591.664C822.195 591.419 822.632 591.296 823.251 591.296C823.891 591.296 824.334 591.419 824.579 591.664C824.824 591.899 824.947 592.315 824.947 592.912V598.368L827.699 596.512C827.838 596.427 827.928 596.341 827.971 596.256C828.024 596.16 828.051 596.027 828.051 595.856V591.536H829.779V595.84C829.779 596.117 829.704 596.357 829.555 596.56C829.416 596.752 829.16 596.976 828.787 597.232C829.246 597.275 829.571 597.413 829.763 597.648C829.955 597.883 830.051 598.224 830.051 598.672C830.051 599.237 829.918 599.643 829.651 599.888C829.395 600.123 828.942 600.24 828.291 600.24ZM823.219 593.472C823.475 593.472 823.651 593.424 823.747 593.328C823.854 593.232 823.907 593.067 823.907 592.832C823.907 592.576 823.859 592.405 823.763 592.32C823.667 592.224 823.486 592.176 823.219 592.176C822.952 592.176 822.771 592.224 822.675 592.32C822.579 592.405 822.531 592.576 822.531 592.832C822.531 593.077 822.579 593.248 822.675 593.344C822.771 593.429 822.952 593.472 823.219 593.472ZM828.323 599.312C828.59 599.312 828.771 599.269 828.867 599.184C828.963 599.088 829.011 598.912 829.011 598.656C829.011 598.411 828.958 598.24 828.851 598.144C828.755 598.048 828.579 598 828.323 598C828.067 598 827.886 598.048 827.779 598.144C827.683 598.24 827.635 598.411 827.635 598.656C827.635 598.912 827.683 599.088 827.779 599.184C827.886 599.269 828.067 599.312 828.323 599.312Z" fill="white"/>
</g>
</g>
<rect x="440.5" y="270.5" width="559" height="359" rx="11.5" stroke="#EEEEEE"/>
</g>
<defs>
<clipPath id="clip0_1_22404">
<rect width="1440" height="900" fill="white"/>
</clipPath>
<clipPath id="clip1_1_22404">
<rect x="440" y="270" width="560" height="360" rx="12" fill="white"/>
</clipPath>
<clipPath id="clip2_1_22404">
<rect width="48" height="48" fill="white" transform="translate(696 302)"/>
</clipPath>
<clipPath id="clip3_1_22404">
<rect width="42" height="24" fill="white" transform="translate(607 583)"/>
</clipPath>
<clipPath id="clip4_1_22404">
<rect width="39" height="24" fill="white" transform="translate(792.5 583)"/>
</clipPath>
</defs>
</svg>
