<svg width="20" height="20" viewBox="0 0 20 20" fill="none" xmlns="http://www.w3.org/2000/svg">
<rect x="0.5" y="0.5" width="19" height="19" rx="3.5" fill="white" fill-opacity="0.01"/>
<rect x="0.5" y="0.5" width="19" height="19" rx="3.5" stroke="black"/>
<g clip-path="url(#clip0_1_18205)">
<rect width="14" height="14" transform="translate(3 3)" fill="white" fill-opacity="0.01"/>
<path fill-rule="evenodd" clip-rule="evenodd" d="M5.03613 11.723C5.08381 11.7408 5.13555 11.7503 5.18945 11.7503H5.62695V12.1878C5.62695 12.4295 5.82283 12.6253 6.06445 12.6253H6.50195V13.0628C6.50195 13.3045 6.69783 13.5003 6.93945 13.5003H7.37695V13.9378C7.37695 14.1795 7.57283 14.3753 7.81445 14.3753H8.25195V14.8128C8.25195 14.8667 8.26146 14.9185 8.27929 14.9661L8.12402 15.1224C8.08213 15.1643 8.03157 15.1971 7.97656 15.2191L3.60156 16.9691C3.43915 17.0339 3.25355 16.9961 3.12988 16.8724C3.00621 16.7487 2.96838 16.5631 3.0332 16.4007L4.7832 12.0257C4.80521 11.9707 4.83798 11.9202 4.87988 11.8783L5.03613 11.723ZM14.8145 8.43197L9.12695 14.1195V13.9378C9.12695 13.6962 8.93106 13.5003 8.68945 13.5003H8.25195V13.0628C8.25195 12.8212 8.05606 12.6253 7.81445 12.6253H7.37695V12.1878C7.37695 11.9462 7.18106 11.7503 6.93945 11.7503H6.50195V11.3128C6.50195 11.0712 6.30606 10.8753 6.06445 10.8753H5.88281L11.5703 5.18783L14.8145 8.43197ZM13.6299 3.12826C13.8007 2.95741 14.0782 2.95741 14.249 3.12826L16.874 5.75326C17.0449 5.92411 17.0449 6.20155 16.874 6.3724L15.4336 7.81283L12.1895 4.56869L13.6299 3.12826Z" fill="black"/>
</g>
<defs>
<clipPath id="clip0_1_18205">
<rect width="14" height="14" fill="white" transform="translate(3 3)"/>
</clipPath>
</defs>
</svg>
