<svg width="14" height="14" viewBox="0 0 14 14" fill="none" xmlns="http://www.w3.org/2000/svg">
<path fill-rule="evenodd" clip-rule="evenodd" d="M2.03414 8.72271C2.08182 8.74053 2.13356 8.75005 2.18746 8.75005H2.62495V9.18754C2.62495 9.42917 2.82082 9.62504 3.06244 9.62504H3.49994V10.0625C3.49994 10.3042 3.69581 10.5 3.93743 10.5H4.37492V10.9375C4.37492 11.1791 4.57079 11.375 4.81241 11.375H5.24991V11.8125C5.24991 11.8664 5.25941 11.9181 5.27725 11.9658L5.12198 12.1221C5.08008 12.164 5.02953 12.1967 4.97452 12.2187L0.599596 13.9687C0.437185 14.0335 0.251595 13.9957 0.127925 13.872C0.00425787 13.7484 -0.0335676 13.5628 0.0312468 13.4004L1.78122 9.02544C1.80322 8.97043 1.836 8.91988 1.87789 8.87798L2.03414 8.72271ZM11.8123 5.43175L6.12489 11.1192V10.9375C6.12489 10.6959 5.929 10.5 5.6874 10.5H5.24991V10.0625C5.24991 9.82092 5.05402 9.62506 4.81241 9.62504H4.37492V9.18754C4.37492 8.94594 4.17903 8.75007 3.93743 8.75005H3.49994V8.31256C3.49994 8.07095 3.30405 7.87509 3.06244 7.87507H2.88081L8.56821 2.18767L11.8123 5.43175ZM10.6277 0.128132C10.7986 -0.0427064 11.076 -0.042715 11.2469 0.128132L13.8718 2.75309C14.0427 2.92393 14.0427 3.20137 13.8718 3.37222L12.4314 4.81262L9.18734 1.56854L10.6277 0.128132Z" fill="black"/>
</svg>
