<svg width="13" height="14" viewBox="0 0 13 14" fill="none" xmlns="http://www.w3.org/2000/svg">
<path fill-rule="evenodd" clip-rule="evenodd" d="M7.4375 0C8.16236 2.03501e-05 8.75 0.587639 8.75 1.3125V2.1875H11.8125C12.0541 2.18752 12.25 2.38339 12.25 2.625C12.25 2.86661 12.0541 3.06248 11.8125 3.0625H11.3418L10.5947 12.3896C10.5219 13.2991 9.76292 14 8.85059 14H3.39941C2.48705 14 1.72708 13.2991 1.6543 12.3896L0.908203 3.0625H0.4375C0.195875 3.0625 0 2.86662 0 2.625C2.38419e-07 2.38338 0.195876 2.1875 0.4375 2.1875H3.5V1.3125C3.5 0.587626 4.08763 0 4.8125 0H7.4375ZM6.125 3.9375C5.88338 3.9375 5.6875 4.13338 5.6875 4.375V11.8125C5.6875 12.0541 5.88338 12.25 6.125 12.25C6.36661 12.25 6.5625 12.0541 6.5625 11.8125V4.375C6.5625 4.13339 6.36661 3.93752 6.125 3.9375ZM8.77637 3.93848C8.53517 3.92431 8.32864 4.10841 8.31445 4.34961L7.87695 11.7871C7.86293 12.0281 8.04621 12.2346 8.28711 12.249C8.52832 12.2632 8.73581 12.0791 8.75 11.8379L9.1875 4.40039C9.20152 4.15931 9.01748 3.95266 8.77637 3.93848ZM3.47363 3.9375C3.23242 3.95169 3.04831 4.15918 3.0625 4.40039L3.5 11.8379C3.51441 12.0787 3.72105 12.262 3.96191 12.248C4.2031 12.2339 4.38721 12.0273 4.37305 11.7861L3.93555 4.34863C3.92136 4.10747 3.71479 3.92338 3.47363 3.9375ZM4.8125 0.875C4.57088 0.875 4.375 1.07088 4.375 1.3125V2.1875H7.875V1.3125C7.875 1.07089 7.67911 0.87502 7.4375 0.875H4.8125Z" fill="black"/>
</svg>
