<svg width="1440" height="900" viewBox="0 0 1440 900" fill="none" xmlns="http://www.w3.org/2000/svg">
<rect width="1440" height="900" fill="#0C0C0C" fill-opacity="0.38"/>
<g clip-path="url(#clip0_1_22426)">
<rect x="440" y="269.5" width="560" height="360" rx="12" fill="white"/>
<rect width="560" height="141" transform="translate(440 269.5)" fill="white"/>
<g clip-path="url(#clip1_1_22426)">
<rect width="48" height="48" transform="translate(696 301.5)" fill="white" fill-opacity="0.01"/>
<path d="M720 301.502C733.255 301.502 744 312.247 744 325.502C744 338.757 733.255 349.502 720 349.502C706.745 349.502 696 338.757 696 325.502C696 312.247 706.745 301.502 720 301.502ZM732.091 316.411C731.212 315.533 729.788 315.532 728.909 316.411C728.888 316.432 728.868 316.455 728.85 316.479L718.433 329.752L712.151 323.472C711.273 322.593 709.848 322.593 708.97 323.472C708.091 324.35 708.091 325.775 708.97 326.653L716.909 334.593C717.788 335.471 719.212 335.471 720.091 334.593C720.11 334.573 720.129 334.553 720.146 334.531L732.123 319.561C732.97 318.68 732.959 317.279 732.091 316.411Z" fill="#198754"/>
</g>
<path d="M694.36 387.86C693.368 387.86 692.664 387.604 692.248 387.092C691.848 386.564 691.648 385.74 691.648 384.62C691.648 381.26 693.24 379.58 696.424 379.58C697.112 379.58 697.736 379.676 698.296 379.868C698.872 380.044 699.304 380.316 699.592 380.684V379.1C699.592 378.284 699.36 377.668 698.896 377.252C698.448 376.836 697.736 376.628 696.76 376.628C695.336 376.628 694.136 377.068 693.16 377.948L691.84 376.148C693.216 375.012 694.984 374.444 697.144 374.444C698.264 374.444 699.216 374.612 700 374.948C700.176 374.788 700.328 374.596 700.456 374.372C700.584 374.148 700.672 373.924 700.72 373.7L703.288 374.252C703.256 374.604 703.12 374.996 702.88 375.428C702.656 375.844 702.376 376.196 702.04 376.484C702.568 377.14 702.832 378.012 702.832 379.1V387.5H699.688C699.688 386.076 699.584 384.948 699.376 384.116C699.168 383.284 698.832 382.684 698.368 382.316C697.92 381.948 697.304 381.764 696.52 381.764C695.896 381.764 695.416 381.876 695.08 382.1C694.76 382.324 694.576 382.692 694.528 383.204L694.912 383.18C695.664 383.18 696.216 383.372 696.568 383.756C696.92 384.14 697.096 384.724 697.096 385.508C697.096 386.324 696.896 386.924 696.496 387.308C696.096 387.676 695.384 387.86 694.36 387.86ZM694.432 386.396C694.8 386.396 695.048 386.332 695.176 386.204C695.32 386.06 695.392 385.804 695.392 385.436C695.392 385.1 695.32 384.868 695.176 384.74C695.048 384.612 694.8 384.548 694.432 384.548C694.064 384.548 693.808 384.612 693.664 384.74C693.536 384.868 693.472 385.1 693.472 385.436C693.472 385.788 693.544 386.036 693.688 386.18C693.832 386.324 694.08 386.396 694.432 386.396ZM701.61 373.364C700.65 373.364 699.946 373.156 699.498 372.74C699.05 372.324 698.826 371.676 698.826 370.796C698.826 369.916 699.05 369.276 699.498 368.876C699.946 368.46 700.65 368.252 701.61 368.252C702.554 368.252 703.25 368.46 703.698 368.876C704.146 369.276 704.37 369.916 704.37 370.796C704.37 371.676 704.146 372.324 703.698 372.74C703.25 373.156 702.554 373.364 701.61 373.364ZM701.61 371.684C702.25 371.684 702.57 371.388 702.57 370.796C702.57 370.204 702.25 369.908 701.61 369.908C700.938 369.908 700.602 370.204 700.602 370.796C700.602 371.388 700.938 371.684 701.61 371.684ZM711.282 379.1C711.282 378.236 711.122 377.612 710.802 377.228C710.482 376.828 709.921 376.628 709.122 376.628C708.161 376.628 707.265 377.012 706.433 377.78L705.137 376.028C705.745 375.484 706.409 375.084 707.129 374.828C707.849 374.572 708.665 374.444 709.577 374.444C711.402 374.444 712.682 374.852 713.418 375.668C714.154 376.484 714.522 377.636 714.522 379.124V387.5H711.282V379.1ZM719.669 387.86C718.645 387.86 717.925 387.652 717.509 387.236C717.109 386.804 716.909 386.1 716.909 385.124V374.804H720.149V383.228C720.853 383.228 721.405 383.42 721.805 383.804C722.205 384.172 722.405 384.724 722.405 385.46C722.405 386.292 722.205 386.9 721.805 387.284C721.405 387.668 720.693 387.86 719.669 387.86ZM719.741 386.372C720.109 386.372 720.357 386.308 720.485 386.18C720.629 386.052 720.701 385.804 720.701 385.436C720.701 385.1 720.629 384.868 720.485 384.74C720.357 384.612 720.109 384.548 719.741 384.548C719.373 384.548 719.117 384.612 718.973 384.74C718.845 384.868 718.781 385.1 718.781 385.436C718.781 385.804 718.845 386.052 718.973 386.18C719.117 386.308 719.373 386.372 719.741 386.372ZM729.026 387.86C728.002 387.86 727.29 387.668 726.89 387.284C726.49 386.9 726.29 386.292 726.29 385.46C726.29 384.724 726.49 384.172 726.89 383.804C727.29 383.42 727.842 383.228 728.546 383.228V382.196C728.546 381.78 728.466 381.484 728.306 381.308C728.146 381.116 727.85 380.956 727.418 380.828L723.65 379.724V378.284C723.65 376.94 724.106 375.964 725.018 375.356C725.93 374.748 727.154 374.444 728.69 374.444C729.842 374.444 730.794 374.564 731.546 374.804C732.298 375.028 733.002 375.396 733.658 375.908L732.338 377.684C731.954 377.364 731.49 377.108 730.946 376.916C730.402 376.724 729.802 376.628 729.146 376.628C728.394 376.628 727.826 376.756 727.442 377.012C727.074 377.252 726.89 377.596 726.89 378.044V378.404L730.106 379.34C730.602 379.484 730.97 379.668 731.21 379.892C731.45 380.1 731.602 380.372 731.666 380.708C731.746 381.044 731.786 381.508 731.786 382.1V385.124C731.786 386.1 731.578 386.804 731.162 387.236C730.762 387.652 730.05 387.86 729.026 387.86ZM728.954 386.372C729.322 386.372 729.57 386.308 729.698 386.18C729.842 386.052 729.914 385.804 729.914 385.436C729.914 385.1 729.842 384.868 729.698 384.74C729.57 384.612 729.322 384.548 728.954 384.548C728.586 384.548 728.33 384.612 728.186 384.74C728.058 384.868 727.994 385.1 727.994 385.436C727.994 385.804 728.058 386.052 728.186 386.18C728.33 386.308 728.586 386.372 728.954 386.372ZM730.442 373.556C729.93 373.556 729.49 373.5 729.122 373.388C728.738 373.26 728.394 373.044 728.09 372.74L727.562 372.188L726.29 373.364H724.034V370.1C724.034 369.14 724.29 368.412 724.802 367.916C725.314 367.42 726.066 367.172 727.058 367.172H732.698V368.972H727.538C727.074 368.972 726.746 369.068 726.554 369.26C726.346 369.452 726.242 369.78 726.242 370.244V371.252L727.202 370.364H727.994L728.618 371.036C728.618 369.964 729.29 369.428 730.634 369.428C731.37 369.428 731.906 369.58 732.242 369.884C732.578 370.188 732.746 370.684 732.746 371.372C732.746 372.124 732.578 372.676 732.242 373.028C731.89 373.38 731.29 373.556 730.442 373.556ZM730.658 372.284C730.978 372.284 731.194 372.236 731.306 372.14C731.418 372.028 731.474 371.82 731.474 371.516C731.474 371.228 731.418 371.028 731.306 370.916C731.178 370.788 730.962 370.724 730.658 370.724C730.354 370.724 730.146 370.788 730.034 370.916C729.906 371.028 729.842 371.228 729.842 371.516C729.842 371.82 729.898 372.028 730.01 372.14C730.122 372.236 730.338 372.284 730.658 372.284ZM739.17 383.684C738.946 383.716 738.762 383.732 738.618 383.732C737.866 383.732 737.29 383.54 736.89 383.156C736.506 382.772 736.314 382.212 736.314 381.476C736.314 380.66 736.506 380.068 736.89 379.7C737.274 379.316 737.954 379.124 738.93 379.124C739.618 379.124 740.13 379.204 740.466 379.364C740.818 379.508 741.066 379.748 741.21 380.084C741.354 380.404 741.498 380.924 741.642 381.644L742.362 385.316H742.746C743.098 385.316 743.354 385.236 743.514 385.076C743.69 384.916 743.778 384.66 743.778 384.308V379.172C743.778 378.276 743.538 377.628 743.058 377.228C742.578 376.828 741.802 376.628 740.73 376.628C740.026 376.628 739.394 376.74 738.834 376.964C738.274 377.172 737.738 377.484 737.226 377.9L735.906 376.148C737.282 375.012 739.026 374.444 741.138 374.444C743.058 374.444 744.514 374.836 745.506 375.62C746.514 376.388 747.018 377.54 747.018 379.076V383.78C747.018 384.756 746.73 385.62 746.154 386.372C745.594 387.124 744.554 387.5 743.034 387.5H739.914L739.17 383.684ZM738.93 382.436C739.282 382.436 739.522 382.372 739.65 382.244C739.794 382.116 739.866 381.884 739.866 381.548C739.866 381.18 739.802 380.932 739.674 380.804C739.546 380.676 739.298 380.612 738.93 380.612C738.562 380.612 738.306 380.684 738.162 380.828C738.018 380.956 737.946 381.196 737.946 381.548C737.946 381.884 738.018 382.116 738.162 382.244C738.306 382.372 738.562 382.436 738.93 382.436Z" fill="black"/>
<path d="M663.196 453.8C662.37 453.8 661.783 453.587 661.436 453.16C661.103 452.72 660.936 452.033 660.936 451.1C660.936 448.3 662.263 446.9 664.916 446.9C665.49 446.9 666.01 446.98 666.476 447.14C666.956 447.287 667.316 447.513 667.556 447.82V446.5C667.556 445.82 667.363 445.307 666.976 444.96C666.603 444.613 666.01 444.44 665.196 444.44C664.01 444.44 663.01 444.807 662.196 445.54L661.096 444.04C662.243 443.093 663.716 442.62 665.516 442.62C667.076 442.62 668.256 442.967 669.056 443.66C669.856 444.353 670.256 445.3 670.256 446.5V453.5H667.636C667.636 452.313 667.55 451.373 667.376 450.68C667.203 449.987 666.923 449.487 666.536 449.18C666.163 448.873 665.65 448.72 664.996 448.72C664.476 448.72 664.076 448.813 663.796 449C663.53 449.187 663.376 449.493 663.336 449.92L663.656 449.9C664.283 449.9 664.743 450.06 665.036 450.38C665.33 450.7 665.476 451.187 665.476 451.84C665.476 452.52 665.31 453.02 664.976 453.34C664.643 453.647 664.05 453.8 663.196 453.8ZM663.256 452.58C663.563 452.58 663.77 452.527 663.876 452.42C663.996 452.3 664.056 452.087 664.056 451.78C664.056 451.5 663.996 451.307 663.876 451.2C663.77 451.093 663.563 451.04 663.256 451.04C662.95 451.04 662.736 451.093 662.616 451.2C662.51 451.307 662.456 451.5 662.456 451.78C662.456 452.073 662.516 452.28 662.636 452.4C662.756 452.52 662.963 452.58 663.256 452.58ZM678.697 453.8C676.977 453.8 675.751 453.467 675.017 452.8C674.284 452.12 673.917 451.14 673.917 449.86V446.48C673.331 446.48 672.871 446.327 672.537 446.02C672.204 445.7 672.037 445.233 672.037 444.62C672.037 443.927 672.204 443.42 672.537 443.1C672.871 442.78 673.464 442.62 674.317 442.62C675.171 442.62 675.764 442.8 676.097 443.16C676.444 443.507 676.617 444.087 676.617 444.9V449.98C676.617 450.66 676.771 451.167 677.077 451.5C677.397 451.82 677.924 451.98 678.657 451.98C679.391 451.98 679.911 451.82 680.217 451.5C680.537 451.167 680.697 450.66 680.697 449.98V442.92H683.397V449.86C683.397 451.14 683.044 452.12 682.337 452.8C681.631 453.467 680.417 453.8 678.697 453.8ZM674.257 445.38C674.564 445.38 674.771 445.327 674.877 445.22C674.997 445.113 675.057 444.92 675.057 444.64C675.057 444.333 674.997 444.127 674.877 444.02C674.771 443.913 674.564 443.86 674.257 443.86C673.951 443.86 673.737 443.913 673.617 444.02C673.511 444.127 673.457 444.333 673.457 444.64C673.457 444.92 673.511 445.113 673.617 445.22C673.737 445.327 673.951 445.38 674.257 445.38ZM690.294 453.8C687.307 453.8 685.814 452.527 685.814 449.98V449.16C685.814 448.653 685.914 448.173 686.114 447.72C686.314 447.267 686.601 446.867 686.974 446.52C686.387 446.48 685.974 446.313 685.734 446.02C685.494 445.713 685.374 445.233 685.374 444.58C685.374 443.9 685.534 443.407 685.854 443.1C686.187 442.78 686.781 442.62 687.634 442.62C688.501 442.62 689.094 442.767 689.414 443.06C689.747 443.353 689.914 443.88 689.914 444.64V445.34C689.914 445.62 689.861 445.86 689.754 446.06C689.661 446.26 689.507 446.5 689.294 446.78C689.041 447.113 688.847 447.433 688.714 447.74C688.581 448.033 688.514 448.4 688.514 448.84V450.1C688.514 450.74 688.627 451.213 688.854 451.52C689.081 451.827 689.561 451.98 690.294 451.98C690.801 451.98 691.181 451.907 691.434 451.76C691.701 451.6 691.874 451.393 691.954 451.14C692.034 450.873 692.074 450.527 692.074 450.1V442.92H694.774V449.86C694.774 452.487 693.281 453.8 690.294 453.8ZM687.614 445.38C687.921 445.38 688.127 445.327 688.234 445.22C688.354 445.113 688.414 444.92 688.414 444.64C688.414 444.333 688.354 444.127 688.234 444.02C688.127 443.913 687.921 443.86 687.614 443.86C687.307 443.86 687.094 443.92 686.974 444.04C686.854 444.147 686.794 444.347 686.794 444.64C686.794 444.92 686.854 445.113 686.974 445.22C687.094 445.327 687.307 445.38 687.614 445.38ZM690.133 440.4C690.44 440.4 690.673 440.38 690.833 440.34C690.98 440.287 691.08 440.187 691.133 440.04C690.586 440.093 690.18 440 689.913 439.76C689.633 439.507 689.493 439.133 689.493 438.64C689.493 438.08 689.646 437.68 689.953 437.44C690.246 437.2 690.72 437.08 691.373 437.08C692.053 437.08 692.533 437.207 692.813 437.46C693.08 437.7 693.213 438.113 693.213 438.7C693.213 439.353 693.066 439.84 692.773 440.16C693.373 440.08 693.786 439.88 694.013 439.56C694.24 439.227 694.353 438.707 694.353 438V437.64H696.353V438.06C696.353 438.727 696.213 439.34 695.933 439.9C695.653 440.46 695.246 440.907 694.713 441.24C694.166 441.56 693.513 441.72 692.753 441.72H690.133V440.4ZM691.373 439.26C691.64 439.26 691.82 439.213 691.913 439.12C692.006 439.027 692.053 438.86 692.053 438.62C692.053 438.38 692.006 438.213 691.913 438.12C691.806 438.027 691.626 437.98 691.373 437.98C691.106 437.98 690.926 438.027 690.833 438.12C690.74 438.2 690.693 438.367 690.693 438.62C690.693 438.86 690.74 439.027 690.833 439.12C690.926 439.213 691.106 439.26 691.373 439.26ZM701.873 453.8C700.153 453.8 698.973 453.48 698.333 452.84C697.693 452.187 697.373 451.313 697.373 450.22V449.02C697.373 448.207 697.54 447.627 697.873 447.28C698.22 446.92 698.82 446.74 699.673 446.74C700.526 446.74 701.12 446.9 701.453 447.22C701.786 447.54 701.953 448.047 701.953 448.74C701.953 449.34 701.773 449.78 701.413 450.06C701.066 450.327 700.586 450.46 699.973 450.46V450.74C699.973 451.153 700.126 451.467 700.433 451.68C700.74 451.88 701.22 451.98 701.873 451.98C702.526 451.98 703.026 451.867 703.373 451.64C703.72 451.4 703.893 451.067 703.893 450.64V446.5C703.893 445.793 703.686 445.273 703.273 444.94C702.86 444.607 702.213 444.44 701.333 444.44C700.746 444.44 700.213 444.527 699.733 444.7C699.266 444.873 698.806 445.14 698.353 445.5L697.253 444.04C697.826 443.573 698.486 443.22 699.233 442.98C699.993 442.74 700.813 442.62 701.693 442.62C703.413 442.62 704.66 442.953 705.433 443.62C706.206 444.287 706.593 445.24 706.593 446.48V450.5C706.593 451.033 706.44 451.553 706.133 452.06C705.84 452.553 705.34 452.967 704.633 453.3C703.94 453.633 703.02 453.8 701.873 453.8ZM699.733 449.5C700.04 449.5 700.246 449.447 700.353 449.34C700.473 449.233 700.533 449.04 700.533 448.76C700.533 448.453 700.473 448.247 700.353 448.14C700.246 448.033 700.04 447.98 699.733 447.98C699.426 447.98 699.213 448.033 699.093 448.14C698.986 448.247 698.933 448.453 698.933 448.76C698.933 449.04 698.986 449.233 699.093 449.34C699.213 449.447 699.426 449.5 699.733 449.5ZM710.973 453.8C710.16 453.8 709.58 453.64 709.233 453.32C708.9 453 708.733 452.507 708.733 451.84C708.733 451.173 708.873 450.687 709.153 450.38C709.447 450.073 709.887 449.907 710.473 449.88V446.48C709.887 446.48 709.42 446.327 709.073 446.02C708.74 445.7 708.573 445.233 708.573 444.62C708.573 443.927 708.74 443.42 709.073 443.1C709.407 442.78 710 442.62 710.853 442.62C711.72 442.62 712.32 442.8 712.653 443.16C713 443.507 713.173 444.087 713.173 444.9V449.96L716.033 451.02V442.92H718.733V453.5H717.173L713.313 452.08C713.273 452.667 713.087 453.1 712.753 453.38C712.42 453.66 711.827 453.8 710.973 453.8ZM710.793 445.38C711.1 445.38 711.307 445.327 711.413 445.22C711.533 445.113 711.593 444.92 711.593 444.64C711.593 444.333 711.533 444.127 711.413 444.02C711.307 443.913 711.1 443.86 710.793 443.86C710.487 443.86 710.273 443.913 710.153 444.02C710.047 444.127 709.993 444.333 709.993 444.64C709.993 444.92 710.047 445.113 710.153 445.22C710.273 445.327 710.487 445.38 710.793 445.38ZM711.073 452.58C711.38 452.58 711.587 452.527 711.693 452.42C711.813 452.3 711.873 452.1 711.873 451.82C711.873 451.527 711.813 451.327 711.693 451.22C711.587 451.113 711.38 451.06 711.073 451.06C710.767 451.06 710.553 451.113 710.433 451.22C710.327 451.327 710.273 451.527 710.273 451.82C710.273 452.113 710.327 452.313 710.433 452.42C710.553 452.527 710.767 452.58 711.073 452.58ZM716.474 459.82C715.634 459.82 714.967 459.66 714.474 459.34C713.98 459.033 713.734 458.567 713.734 457.94V457.82C713.667 457.833 713.567 457.84 713.434 457.84C712.874 457.84 712.447 457.7 712.154 457.42C711.847 457.153 711.694 456.713 711.694 456.1C711.694 455.46 711.86 455 712.194 454.72C712.527 454.453 713.074 454.32 713.834 454.32C714.62 454.32 715.16 454.46 715.454 454.74C715.747 455.033 715.894 455.56 715.894 456.32V457.52C715.894 457.747 715.934 457.9 716.014 457.98C716.094 458.073 716.24 458.12 716.454 458.12C716.68 458.12 716.834 458.073 716.914 457.98C716.994 457.9 717.034 457.747 717.034 457.52V454.44H719.234V457.4C719.234 458.187 719.02 458.787 718.594 459.2C718.167 459.613 717.46 459.82 716.474 459.82ZM713.794 456.86C714.087 456.86 714.294 456.807 714.414 456.7C714.52 456.593 714.574 456.407 714.574 456.14C714.574 455.86 714.52 455.667 714.414 455.56C714.294 455.453 714.087 455.4 713.794 455.4C713.514 455.4 713.314 455.453 713.194 455.56C713.074 455.667 713.014 455.86 713.014 456.14C713.014 456.407 713.074 456.593 713.194 456.7C713.314 456.807 713.514 456.86 713.794 456.86ZM723.474 453.8C722.647 453.8 722.06 453.587 721.714 453.16C721.38 452.72 721.214 452.033 721.214 451.1C721.214 448.3 722.54 446.9 725.194 446.9C725.767 446.9 726.287 446.98 726.754 447.14C727.234 447.287 727.594 447.513 727.834 447.82V446.5C727.834 445.82 727.64 445.307 727.254 444.96C726.88 444.613 726.287 444.44 725.474 444.44C724.287 444.44 723.287 444.807 722.474 445.54L721.374 444.04C722.52 443.093 723.994 442.62 725.794 442.62C727.354 442.62 728.534 442.967 729.334 443.66C730.134 444.353 730.534 445.3 730.534 446.5V453.5H727.914C727.914 452.313 727.827 451.373 727.654 450.68C727.48 449.987 727.2 449.487 726.814 449.18C726.44 448.873 725.927 448.72 725.274 448.72C724.754 448.72 724.354 448.813 724.074 449C723.807 449.187 723.654 449.493 723.614 449.92L723.934 449.9C724.56 449.9 725.02 450.06 725.314 450.38C725.607 450.7 725.754 451.187 725.754 451.84C725.754 452.52 725.587 453.02 725.254 453.34C724.92 453.647 724.327 453.8 723.474 453.8ZM723.534 452.58C723.84 452.58 724.047 452.527 724.154 452.42C724.274 452.3 724.334 452.087 724.334 451.78C724.334 451.5 724.274 451.307 724.154 451.2C724.047 451.093 723.84 451.04 723.534 451.04C723.227 451.04 723.014 451.093 722.894 451.2C722.787 451.307 722.734 451.5 722.734 451.78C722.734 452.073 722.794 452.28 722.914 452.4C723.034 452.52 723.24 452.58 723.534 452.58ZM734.775 453.8C733.948 453.8 733.361 453.587 733.015 453.16C732.681 452.72 732.515 452.033 732.515 451.1C732.515 448.3 733.841 446.9 736.495 446.9C737.068 446.9 737.588 446.98 738.055 447.14C738.535 447.287 738.895 447.513 739.135 447.82V446.5C739.135 445.82 738.941 445.307 738.555 444.96C738.181 444.613 737.588 444.44 736.775 444.44C735.588 444.44 734.588 444.807 733.775 445.54L732.675 444.04C733.821 443.093 735.295 442.62 737.095 442.62C738.028 442.62 738.821 442.76 739.475 443.04C739.621 442.907 739.748 442.747 739.855 442.56C739.961 442.373 740.035 442.187 740.075 442L742.215 442.46C742.188 442.753 742.075 443.08 741.875 443.44C741.688 443.787 741.455 444.08 741.175 444.32C741.615 444.867 741.835 445.593 741.835 446.5V453.5H739.215C739.215 452.313 739.128 451.373 738.955 450.68C738.781 449.987 738.501 449.487 738.115 449.18C737.741 448.873 737.228 448.72 736.575 448.72C736.055 448.72 735.655 448.813 735.375 449C735.108 449.187 734.955 449.493 734.915 449.92L735.235 449.9C735.861 449.9 736.321 450.06 736.615 450.38C736.908 450.7 737.055 451.187 737.055 451.84C737.055 452.52 736.888 453.02 736.555 453.34C736.221 453.647 735.628 453.8 734.775 453.8ZM734.835 452.58C735.141 452.58 735.348 452.527 735.455 452.42C735.575 452.3 735.635 452.087 735.635 451.78C735.635 451.5 735.575 451.307 735.455 451.2C735.348 451.093 735.141 451.04 734.835 451.04C734.528 451.04 734.315 451.093 734.195 451.2C734.088 451.307 734.035 451.5 734.035 451.78C734.035 452.073 734.095 452.28 734.215 452.4C734.335 452.52 734.541 452.58 734.835 452.58ZM740.816 441.72C740.016 441.72 739.429 441.547 739.056 441.2C738.683 440.853 738.496 440.313 738.496 439.58C738.496 438.847 738.683 438.313 739.056 437.98C739.429 437.633 740.016 437.46 740.816 437.46C741.603 437.46 742.183 437.633 742.556 437.98C742.929 438.313 743.116 438.847 743.116 439.58C743.116 440.313 742.929 440.853 742.556 441.2C742.183 441.547 741.603 441.72 740.816 441.72ZM740.816 440.32C741.349 440.32 741.616 440.073 741.616 439.58C741.616 439.087 741.349 438.84 740.816 438.84C740.256 438.84 739.976 439.087 739.976 439.58C739.976 440.073 740.256 440.32 740.816 440.32ZM748.876 446.5C748.876 445.78 748.743 445.26 748.476 444.94C748.209 444.607 747.743 444.44 747.076 444.44C746.276 444.44 745.529 444.76 744.836 445.4L743.756 443.94C744.263 443.487 744.816 443.153 745.416 442.94C746.016 442.727 746.696 442.62 747.456 442.62C748.976 442.62 750.043 442.96 750.656 443.64C751.269 444.32 751.576 445.28 751.576 446.52V453.5H748.876V446.5ZM755.865 453.8C755.012 453.8 754.412 453.627 754.065 453.28C753.732 452.92 753.565 452.333 753.565 451.52V442.92H756.265V449.94C756.852 449.94 757.312 450.1 757.645 450.42C757.979 450.727 758.145 451.187 758.145 451.8C758.145 452.493 757.979 453 757.645 453.32C757.312 453.64 756.719 453.8 755.865 453.8ZM755.925 452.56C756.232 452.56 756.439 452.507 756.545 452.4C756.665 452.293 756.725 452.087 756.725 451.78C756.725 451.5 756.665 451.307 756.545 451.2C756.439 451.093 756.232 451.04 755.925 451.04C755.619 451.04 755.405 451.093 755.285 451.2C755.179 451.307 755.125 451.5 755.125 451.78C755.125 452.087 755.179 452.293 755.285 452.4C755.405 452.507 755.619 452.56 755.925 452.56ZM763.663 453.8C762.809 453.8 762.216 453.64 761.883 453.32C761.549 453 761.383 452.493 761.383 451.8C761.383 451.187 761.549 450.727 761.883 450.42C762.216 450.1 762.676 449.94 763.263 449.94V449.08C763.263 448.733 763.196 448.487 763.063 448.34C762.929 448.18 762.683 448.047 762.323 447.94L759.183 447.02V445.82C759.183 444.7 759.563 443.887 760.323 443.38C761.083 442.873 762.103 442.62 763.383 442.62C764.343 442.62 765.136 442.72 765.763 442.92C766.389 443.107 766.976 443.413 767.523 443.84L766.423 445.32C766.103 445.053 765.716 444.84 765.263 444.68C764.809 444.52 764.309 444.44 763.763 444.44C763.136 444.44 762.663 444.547 762.343 444.76C762.036 444.96 761.883 445.247 761.883 445.62V445.92L764.563 446.7C764.976 446.82 765.283 446.973 765.483 447.16C765.683 447.333 765.809 447.56 765.863 447.84C765.929 448.12 765.963 448.507 765.963 449V451.52C765.963 452.333 765.789 452.92 765.443 453.28C765.109 453.627 764.516 453.8 763.663 453.8ZM763.603 452.56C763.909 452.56 764.116 452.507 764.223 452.4C764.343 452.293 764.403 452.087 764.403 451.78C764.403 451.5 764.343 451.307 764.223 451.2C764.116 451.093 763.909 451.04 763.603 451.04C763.296 451.04 763.083 451.093 762.963 451.2C762.856 451.307 762.803 451.5 762.803 451.78C762.803 452.087 762.856 452.293 762.963 452.4C763.083 452.507 763.296 452.56 763.603 452.56ZM764.843 441.88C764.416 441.88 764.049 441.833 763.743 441.74C763.423 441.633 763.136 441.453 762.883 441.2L762.443 440.74L761.383 441.72H759.503V439C759.503 438.2 759.716 437.593 760.143 437.18C760.569 436.767 761.196 436.56 762.023 436.56H766.723V438.06H762.423C762.036 438.06 761.763 438.14 761.603 438.3C761.429 438.46 761.343 438.733 761.343 439.12V439.96L762.143 439.22H762.803L763.323 439.78C763.323 438.887 763.883 438.44 765.003 438.44C765.616 438.44 766.063 438.567 766.343 438.82C766.623 439.073 766.763 439.487 766.763 440.06C766.763 440.687 766.623 441.147 766.343 441.44C766.049 441.733 765.549 441.88 764.843 441.88ZM765.023 440.82C765.289 440.82 765.469 440.78 765.563 440.7C765.656 440.607 765.703 440.433 765.703 440.18C765.703 439.94 765.656 439.773 765.563 439.68C765.456 439.573 765.276 439.52 765.023 439.52C764.769 439.52 764.596 439.573 764.503 439.68C764.396 439.773 764.343 439.94 764.343 440.18C764.343 440.433 764.389 440.607 764.483 440.7C764.576 440.78 764.756 440.82 765.023 440.82ZM772.117 450.32C771.93 450.347 771.777 450.36 771.657 450.36C771.03 450.36 770.55 450.2 770.217 449.88C769.897 449.56 769.737 449.093 769.737 448.48C769.737 447.8 769.897 447.307 770.217 447C770.537 446.68 771.103 446.52 771.917 446.52C772.49 446.52 772.917 446.587 773.197 446.72C773.49 446.84 773.697 447.04 773.817 447.32C773.937 447.587 774.057 448.02 774.177 448.62L774.777 451.68H775.097C775.39 451.68 775.603 451.613 775.737 451.48C775.883 451.347 775.957 451.133 775.957 450.84V446.56C775.957 445.813 775.757 445.273 775.357 444.94C774.957 444.607 774.31 444.44 773.417 444.44C772.83 444.44 772.303 444.533 771.837 444.72C771.37 444.893 770.923 445.153 770.497 445.5L769.397 444.04C770.543 443.093 771.997 442.62 773.757 442.62C775.357 442.62 776.57 442.947 777.397 443.6C778.237 444.24 778.657 445.2 778.657 446.48V450.4C778.657 451.213 778.417 451.933 777.937 452.56C777.47 453.187 776.603 453.5 775.337 453.5H772.737L772.117 450.32ZM771.917 449.28C772.21 449.28 772.41 449.227 772.517 449.12C772.637 449.013 772.697 448.82 772.697 448.54C772.697 448.233 772.643 448.027 772.537 447.92C772.43 447.813 772.223 447.76 771.917 447.76C771.61 447.76 771.397 447.82 771.277 447.94C771.157 448.047 771.097 448.247 771.097 448.54C771.097 448.82 771.157 449.013 771.277 449.12C771.397 449.227 771.61 449.28 771.917 449.28Z" fill="black"/>
<mask id="path-6-inside-1_1_22426" fill="white">
<path d="M440 553.5H1000V623.5H440V553.5Z"/>
</mask>
<path d="M440 553.5H1000V623.5H440V553.5Z" fill="white"/>
<path d="M440 553.5V554.5H1000V553.5V552.5H440V553.5Z" fill="#CBD5E1" mask="url(#path-6-inside-1_1_22426)"/>
<rect x="640.5" y="570" width="159" height="37" rx="5.5" fill="#198754"/>
<rect x="640.5" y="570" width="159" height="37" rx="5.5" stroke="#198754"/>
<g clip-path="url(#clip2_1_22426)">
<rect width="37" height="24" transform="translate(701.5 576.5)" fill="white" fill-opacity="0.01"/>
<path d="M702.348 587.164C702.348 586.385 702.535 585.799 702.908 585.404C703.281 584.999 703.799 584.796 704.46 584.796C705.388 584.796 705.953 585.127 706.156 585.788C706.401 585.127 706.983 584.796 707.9 584.796C709.276 584.796 709.964 585.585 709.964 587.164V593.5H708.236V587.292C708.236 586.769 708.193 586.417 708.108 586.236C708.023 586.055 707.825 585.964 707.516 585.964C707.26 585.964 707.073 586.039 706.956 586.188C706.849 586.337 706.796 586.567 706.796 586.876V587.052H705.5V586.876C705.5 586.556 705.452 586.327 705.356 586.188C705.271 586.039 705.1 585.964 704.844 585.964C704.535 585.964 704.327 586.06 704.22 586.252C704.124 586.433 704.076 586.775 704.076 587.276V592.156L705.356 590.844C705.068 590.759 704.871 590.625 704.764 590.444C704.657 590.252 704.604 589.959 704.604 589.564C704.604 589.031 704.732 588.652 704.988 588.428C705.244 588.193 705.633 588.076 706.156 588.076C706.775 588.076 707.201 588.188 707.436 588.412C707.671 588.636 707.788 589.015 707.788 589.548C707.788 589.868 707.719 590.14 707.58 590.364C707.452 590.588 707.244 590.844 706.956 591.132L704.652 593.5H702.348V587.164ZM706.188 590.204C706.444 590.204 706.62 590.156 706.716 590.06C706.823 589.953 706.876 589.783 706.876 589.548C706.876 589.292 706.823 589.121 706.716 589.036C706.62 588.94 706.444 588.892 706.188 588.892C705.921 588.892 705.74 588.94 705.644 589.036C705.548 589.121 705.5 589.292 705.5 589.548C705.5 589.793 705.548 589.964 705.644 590.06C705.751 590.156 705.932 590.204 706.188 590.204ZM712.076 590.028C712.076 589.58 712.146 589.207 712.284 588.908C712.423 588.599 712.663 588.348 713.004 588.156L711.74 587.404V586.268C712.242 585.799 712.823 585.436 713.484 585.18C714.146 584.924 714.86 584.796 715.628 584.796C716.876 584.796 717.82 585.068 718.46 585.612C719.1 586.145 719.42 586.871 719.42 587.788V593.5H717.693V587.74C717.693 587.164 717.516 586.732 717.164 586.444C716.812 586.145 716.3 585.996 715.628 585.996C714.732 585.996 713.975 586.236 713.356 586.716V586.924L714.652 587.74V588.492C714.322 588.62 714.098 588.796 713.98 589.02C713.863 589.233 713.804 589.559 713.804 589.996V593.5H712.076V590.028ZM722.883 593.74C722.275 593.74 721.843 593.575 721.587 593.244C721.331 592.903 721.203 592.385 721.203 591.692C721.203 589.431 722.243 588.3 724.323 588.3C724.835 588.3 725.294 588.385 725.699 588.556C726.104 588.716 726.408 588.961 726.611 589.292V587.852C726.611 587.233 726.451 586.769 726.131 586.46C725.822 586.151 725.315 585.996 724.611 585.996C724.078 585.996 723.603 586.071 723.187 586.22C722.782 586.369 722.403 586.609 722.051 586.94L721.283 585.948C722.158 585.18 723.304 584.796 724.723 584.796C725.918 584.796 726.819 585.068 727.427 585.612C728.035 586.145 728.339 586.881 728.339 587.82V593.5H726.659C726.659 592.54 726.584 591.772 726.435 591.196C726.286 590.609 726.04 590.183 725.699 589.916C725.368 589.639 724.915 589.5 724.339 589.5C723.838 589.5 723.464 589.596 723.219 589.788C722.984 589.969 722.84 590.289 722.787 590.748C722.872 590.737 722.99 590.732 723.139 590.732C723.63 590.732 723.987 590.86 724.211 591.116C724.446 591.361 724.563 591.735 724.563 592.236C724.563 592.759 724.435 593.143 724.179 593.388C723.923 593.623 723.491 593.74 722.883 593.74ZM722.915 592.876C723.182 592.876 723.363 592.828 723.459 592.732C723.555 592.636 723.603 592.46 723.603 592.204C723.603 591.959 723.555 591.793 723.459 591.708C723.363 591.612 723.182 591.564 722.915 591.564C722.659 591.564 722.478 591.612 722.371 591.708C722.275 591.804 722.227 591.969 722.227 592.204C722.227 592.449 722.28 592.625 722.387 592.732C722.494 592.828 722.67 592.876 722.915 592.876ZM729.799 587.756H731.495L733.159 592.3H734.055C734.385 592.3 734.631 592.236 734.791 592.108C734.951 591.969 735.031 591.751 735.031 591.452V587.756C734.935 587.767 734.812 587.772 734.663 587.772C734.257 587.772 733.943 587.655 733.719 587.42C733.495 587.175 733.383 586.812 733.383 586.332C733.383 585.799 733.505 585.409 733.751 585.164C734.007 584.919 734.444 584.796 735.063 584.796C735.703 584.796 736.145 584.919 736.391 585.164C736.636 585.399 736.759 585.815 736.759 586.412V590.796C736.759 591.265 736.711 591.692 736.615 592.076C736.529 592.449 736.311 592.78 735.959 593.068C735.617 593.356 735.095 593.5 734.391 593.5H731.911L729.799 587.756ZM735.031 586.972C735.287 586.972 735.463 586.924 735.559 586.828C735.665 586.732 735.719 586.567 735.719 586.332C735.719 586.076 735.671 585.905 735.575 585.82C735.479 585.724 735.297 585.676 735.031 585.676C734.764 585.676 734.583 585.724 734.487 585.82C734.391 585.905 734.343 586.076 734.343 586.332C734.343 586.577 734.391 586.748 734.487 586.844C734.583 586.929 734.764 586.972 735.031 586.972Z" fill="white"/>
</g>
</g>
<rect x="440.5" y="270" width="559" height="359" rx="11.5" stroke="#EEEEEE"/>
<defs>
<clipPath id="clip0_1_22426">
<rect x="440" y="269.5" width="560" height="360" rx="12" fill="white"/>
</clipPath>
<clipPath id="clip1_1_22426">
<rect width="48" height="48" fill="white" transform="translate(696 301.5)"/>
</clipPath>
<clipPath id="clip2_1_22426">
<rect width="37" height="24" fill="white" transform="translate(701.5 576.5)"/>
</clipPath>
</defs>
</svg>
