<svg width="48" height="48" viewBox="0 0 48 48" fill="none" xmlns="http://www.w3.org/2000/svg">
<g filter="url(#filter0_dd_9547_88536)">
<g clip-path="url(#clip0_9547_88536)">
<path d="M8 16C8 7.16344 15.1634 0 24 0C32.8366 0 40 7.16344 40 16C40 24.8366 32.8366 32 24 32C15.1634 32 8 24.8366 8 16Z" fill="white"/>
<rect x="9" y="1" width="30" height="30" rx="15" stroke="#FCD401" stroke-width="2"/>
<path d="M26 24.7251V22.6751C27.5 22.2418 28.7083 21.4084 29.625 20.1751C30.5417 18.9418 31 17.5418 31 15.9751C31 14.4084 30.5417 13.0084 29.625 11.7751C28.7083 10.5418 27.5 9.70843 26 9.2751V7.2251C28.0667 7.69176 29.75 8.7376 31.05 10.3626C32.35 11.9876 33 13.8584 33 15.9751C33 18.0918 32.35 19.9626 31.05 21.5876C29.75 23.2126 28.0667 24.2584 26 24.7251ZM15 19.0001V13.0001H19L24 8.0001V24.0001L19 19.0001H15ZM26 20.0001V11.9501C26.7833 12.3168 27.3958 12.8668 27.8375 13.6001C28.2792 14.3334 28.5 15.1334 28.5 16.0001C28.5 16.8501 28.2792 17.6376 27.8375 18.3626C27.3958 19.0876 26.7833 19.6334 26 20.0001ZM22 12.8501L19.85 15.0001H17V17.0001H19.85L22 19.1501V12.8501Z" fill="#333333"/>
</g>
</g>
<defs>
<filter id="filter0_dd_9547_88536" x="0" y="0" width="48" height="48" filterUnits="userSpaceOnUse" color-interpolation-filters="sRGB">
<feFlood flood-opacity="0" result="BackgroundImageFix"/>
<feColorMatrix in="SourceAlpha" type="matrix" values="0 0 0 0 0 0 0 0 0 0 0 0 0 0 0 0 0 0 127 0" result="hardAlpha"/>
<feOffset dy="8"/>
<feGaussianBlur stdDeviation="4"/>
<feComposite in2="hardAlpha" operator="out"/>
<feColorMatrix type="matrix" values="0 0 0 0 0 0 0 0 0 0 0 0 0 0 0 0 0 0 0.05 0"/>
<feBlend mode="normal" in2="BackgroundImageFix" result="effect1_dropShadow_9547_88536"/>
<feColorMatrix in="SourceAlpha" type="matrix" values="0 0 0 0 0 0 0 0 0 0 0 0 0 0 0 0 0 0 127 0" result="hardAlpha"/>
<feOffset dy="4"/>
<feGaussianBlur stdDeviation="2"/>
<feComposite in2="hardAlpha" operator="out"/>
<feColorMatrix type="matrix" values="0 0 0 0 0 0 0 0 0 0 0 0 0 0 0 0 0 0 0.15 0"/>
<feBlend mode="normal" in2="effect1_dropShadow_9547_88536" result="effect2_dropShadow_9547_88536"/>
<feBlend mode="normal" in="SourceGraphic" in2="effect2_dropShadow_9547_88536" result="shape"/>
</filter>
<clipPath id="clip0_9547_88536">
<path d="M8 16C8 7.16344 15.1634 0 24 0C32.8366 0 40 7.16344 40 16C40 24.8366 32.8366 32 24 32C15.1634 32 8 24.8366 8 16Z" fill="white"/>
</clipPath>
</defs>
</svg>
