<svg width="144" height="58" viewBox="0 0 144 58" fill="none" xmlns="http://www.w3.org/2000/svg">
<path d="M2.39255 40.2056C2.052 40.4661 1.91534 40.9146 2.0528 41.3207C2.19027 41.7267 2.57129 42 3 42H20C20.5523 42 21 41.5523 21 41V34.5V28C21 27.6195 20.7841 27.272 20.443 27.1035C20.1019 26.9349 19.6948 26.9745 19.3925 27.2056L2.39255 40.2056Z" stroke="#FCD401" stroke-width="2" stroke-linejoin="round"/>
<path d="M16 13C16 6.37258 21.3726 1 28 1H72V57H28C21.3726 57 16 51.6274 16 45V13Z" fill="url(#paint0_linear_9547_89393)"/>
<path d="M16 13C16 6.37258 21.3726 1 28 1H72V57H28C21.3726 57 16 51.6274 16 45V13Z" stroke="#FCD401" stroke-width="2"/>
<g clip-path="url(#clip0_9547_89393)">
<g filter="url(#filter0_dd_9547_89393)">
<mask id="path-5-inside-1_9547_89393" fill="white">
<path d="M24 29C24 17.9543 32.9543 9 44 9C55.0457 9 64 17.9543 64 29C64 40.0457 55.0457 49 44 49C32.9543 49 24 40.0457 24 29Z"/>
</mask>
<path d="M24 29C24 17.9543 32.9543 9 44 9C55.0457 9 64 17.9543 64 29C64 40.0457 55.0457 49 44 49C32.9543 49 24 40.0457 24 29Z" fill="#1762F3" shape-rendering="crispEdges"/>
<path d="M24 9H64H24ZM64 31C64 42.0457 55.0457 51 44 51C32.9543 51 24 42.0457 24 31V29C24 38.9411 32.9543 47 44 47C55.0457 47 64 38.9411 64 29V31ZM24 49V9V49ZM64 9V49V9Z" fill="#6F86F6" mask="url(#path-5-inside-1_9547_89393)"/>
<g clip-path="url(#clip1_9547_89393)">
<mask id="path-7-inside-2_9547_89393" fill="white">
<path d="M24 29C24 17.9543 32.9543 9 44 9C55.0457 9 64 17.9543 64 29C64 40.0457 55.0457 49 44 49C32.9543 49 24 40.0457 24 29Z"/>
</mask>
<path d="M24 29C24 17.9543 32.9543 9 44 9C55.0457 9 64 17.9543 64 29C64 40.0457 55.0457 49 44 49C32.9543 49 24 40.0457 24 29Z" fill="url(#paint1_linear_9547_89393)"/>
<path d="M45.6667 36.2708V34.5625C46.9167 34.2014 47.9236 33.5069 48.6875 32.4792C49.4514 31.4514 49.8333 30.2847 49.8333 28.9792C49.8333 27.6736 49.4514 26.5069 48.6875 25.4792C47.9236 24.4514 46.9167 23.7569 45.6667 23.3958V21.6875C47.3889 22.0764 48.7917 22.9479 49.875 24.3021C50.9583 25.6562 51.5 27.2153 51.5 28.9792C51.5 30.7431 50.9583 32.3021 49.875 33.6562C48.7917 35.0104 47.3889 35.8819 45.6667 36.2708ZM36.5 31.5V26.5H39.8333L44 22.3333V35.6667L39.8333 31.5H36.5ZM45.6667 32.3333V25.625C46.3194 25.9306 46.8299 26.3889 47.1979 27C47.566 27.6111 47.75 28.2778 47.75 29C47.75 29.7083 47.566 30.3646 47.1979 30.9688C46.8299 31.5729 46.3194 32.0278 45.6667 32.3333ZM42.3333 26.375L40.5417 28.1667H38.1667V29.8333H40.5417L42.3333 31.625V26.375Z" fill="#333333"/>
<g filter="url(#filter1_df_9547_89393)">
<path d="M33.8248 18.6865C32.2867 20.7081 32.1104 22.1783 30.5943 21.0247C29.0781 19.8712 29.0959 17.2972 30.634 15.2756C32.1721 13.254 34.6481 12.5504 36.1642 13.704C37.6804 14.8576 35.3629 16.665 33.8248 18.6865Z" fill="url(#paint2_linear_9547_89393)"/>
</g>
</g>
<path d="M24 9H64H24ZM64 33C64 44.0457 55.0457 53 44 53C32.9543 53 24 44.0457 24 33V29C24 37.8366 32.9543 45 44 45C55.0457 45 64 37.8366 64 29V33ZM24 49V9V49ZM64 9V49V9Z" fill="url(#paint3_linear_9547_89393)" mask="url(#path-7-inside-2_9547_89393)"/>
</g>
</g>
<path d="M72 1H116C122.627 1 128 6.37258 128 13V45C128 51.6274 122.627 57 116 57H72V1Z" fill="url(#paint4_linear_9547_89393)"/>
<path d="M72 1H116C122.627 1 128 6.37258 128 13V45C128 51.6274 122.627 57 116 57H72V1Z" stroke="#FCD401" stroke-width="2"/>
<g clip-path="url(#clip2_9547_89393)">
<g filter="url(#filter2_dd_9547_89393)">
<mask id="path-13-inside-3_9547_89393" fill="white">
<path d="M80 29C80 17.9543 88.9543 9 100 9C111.046 9 120 17.9543 120 29C120 40.0457 111.046 49 100 49C88.9543 49 80 40.0457 80 29Z"/>
</mask>
<path d="M80 29C80 17.9543 88.9543 9 100 9C111.046 9 120 17.9543 120 29C120 40.0457 111.046 49 100 49C88.9543 49 80 40.0457 80 29Z" fill="#1762F3" shape-rendering="crispEdges"/>
<path d="M80 9H120H80ZM120 31C120 42.0457 111.046 51 100 51C88.9543 51 80 42.0457 80 31V29C80 38.9411 88.9543 47 100 47C111.046 47 120 38.9411 120 29V31ZM80 49V9V49ZM120 9V49V9Z" fill="#6F86F6" mask="url(#path-13-inside-3_9547_89393)"/>
<g clip-path="url(#clip3_9547_89393)">
<mask id="path-15-inside-4_9547_89393" fill="white">
<path d="M80 29C80 17.9543 88.9543 9 100 9C111.046 9 120 17.9543 120 29C120 40.0457 111.046 49 100 49C88.9543 49 80 40.0457 80 29Z"/>
</mask>
<path d="M80 29C80 17.9543 88.9543 9 100 9C111.046 9 120 17.9543 120 29C120 40.0457 111.046 49 100 49C88.9543 49 80 40.0457 80 29Z" fill="url(#paint5_linear_9547_89393)"/>
<path d="M96.6787 24C94.3598 24 92.8909 25.642 92.3268 27.5033L92.2512 27.7526H90.6247C90.2797 27.7526 90 28.0319 90 28.3765C90 29.2318 90.2368 30.0335 90.6522 30.6389C90.7983 30.8519 90.9722 31.047 91.1702 31.2104L90.7974 32.1146C90.5099 32.812 90.843 33.6101 91.5413 33.8972C91.7065 33.9651 91.8833 34 92.0619 34H93.4026C93.9323 34 94.4144 33.6945 94.6399 33.2159L95.0191 32.411C96.1582 32.5576 97.31 32.5573 98.4491 32.4104L98.8286 33.2159C99.0541 33.6945 99.5362 34 100.066 34H101.393C101.572 34 101.749 33.9651 101.914 33.8969C102.613 33.6095 102.945 32.8113 102.657 32.114L102.405 31.5027H103.611C104.382 31.5027 105 30.8484 105 30.0903V29.317C105 28.1433 104.084 27.1333 102.888 27.1333H101.059C100.393 25.405 98.8192 24 96.6787 24ZM101.982 30.255L101.44 28.3811H102.888C103.335 28.3811 103.751 28.7727 103.751 29.317V30.0903C103.751 30.132 103.733 30.1758 103.699 30.2106C103.665 30.2458 103.631 30.255 103.611 30.255H101.982ZM101.164 31.7699L101.502 32.5895C101.527 32.6497 101.499 32.7185 101.438 32.7434C101.424 32.7492 101.409 32.7522 101.393 32.7522H100.066C100.02 32.7522 99.9786 32.7259 99.9591 32.6846L99.7229 32.1834C100.208 32.0727 100.689 31.935 101.164 31.7699ZM93.7451 32.1844L93.5094 32.6846C93.4899 32.7259 93.4483 32.7522 93.4026 32.7522H92.0619C92.0465 32.7522 92.0312 32.7492 92.0169 32.7434C91.9567 32.7185 91.928 32.6498 91.9527 32.5897L92.292 31.7668C92.7708 31.9337 93.2559 32.0728 93.7451 32.1844ZM91.8731 29.0004L91.6199 29.8357C91.4821 29.6067 91.3722 29.3228 91.3089 29.0004H91.8731ZM93.5226 27.8647C93.9806 26.3536 95.0749 25.2478 96.6787 25.2478C98.3089 25.2478 99.5396 26.3835 99.9893 27.8609L100.777 30.5833C98.1516 31.5015 95.3227 31.5031 92.6977 30.5866L93.5226 27.8647Z" fill="#333333"/>
<path d="M105 25.7042L105.947 24.4792C106.38 25.0528 106.724 25.726 106.977 26.499C107.23 27.2719 107.357 28.1056 107.357 29C107.357 29.8944 107.228 30.7281 106.971 31.501C106.714 32.274 106.366 32.9472 105.925 33.5208L105 32.2958C105.323 31.8681 105.576 31.3722 105.76 30.8083C105.943 30.2444 106.035 29.6417 106.035 29C106.035 28.3583 105.943 27.7556 105.76 27.1917C105.576 26.6278 105.323 26.1319 105 25.7042ZM106.872 23.225L107.797 22C108.488 22.8944 109.027 23.9396 109.416 25.1354C109.805 26.3313 110 27.6194 110 29C110 30.3806 109.805 31.6687 109.416 32.8646C109.027 34.0604 108.488 35.1056 107.797 36L106.872 34.775C107.438 34.0264 107.88 33.1587 108.199 32.1719C108.519 31.1851 108.678 30.1278 108.678 29C108.678 27.8722 108.519 26.8149 108.199 25.8281C107.88 24.8413 107.438 23.9736 106.872 23.225Z" fill="#333333"/>
<g filter="url(#filter3_df_9547_89393)">
<path d="M89.8248 18.6865C88.2867 20.7081 88.1104 22.1783 86.5943 21.0247C85.0781 19.8712 85.0959 17.2972 86.634 15.2756C88.1721 13.254 90.6481 12.5504 92.1642 13.704C93.6804 14.8576 91.3629 16.665 89.8248 18.6865Z" fill="url(#paint6_linear_9547_89393)"/>
</g>
</g>
<path d="M80 9H120H80ZM120 33C120 44.0457 111.046 53 100 53C88.9543 53 80 44.0457 80 33V29C80 37.8366 88.9543 45 100 45C111.046 45 120 37.8366 120 29V33ZM80 49V9V49ZM120 9V49V9Z" fill="url(#paint7_linear_9547_89393)" mask="url(#path-15-inside-4_9547_89393)"/>
</g>
</g>
<path d="M3 41L20 28V34.5V41H3Z" fill="url(#paint8_linear_9547_89393)"/>
<defs>
<filter id="filter0_dd_9547_89393" x="16" y="9" width="56" height="56" filterUnits="userSpaceOnUse" color-interpolation-filters="sRGB">
<feFlood flood-opacity="0" result="BackgroundImageFix"/>
<feColorMatrix in="SourceAlpha" type="matrix" values="0 0 0 0 0 0 0 0 0 0 0 0 0 0 0 0 0 0 127 0" result="hardAlpha"/>
<feOffset dy="8"/>
<feGaussianBlur stdDeviation="4"/>
<feComposite in2="hardAlpha" operator="out"/>
<feColorMatrix type="matrix" values="0 0 0 0 0 0 0 0 0 0 0 0 0 0 0 0 0 0 0.05 0"/>
<feBlend mode="normal" in2="BackgroundImageFix" result="effect1_dropShadow_9547_89393"/>
<feColorMatrix in="SourceAlpha" type="matrix" values="0 0 0 0 0 0 0 0 0 0 0 0 0 0 0 0 0 0 127 0" result="hardAlpha"/>
<feOffset dy="4"/>
<feGaussianBlur stdDeviation="2"/>
<feComposite in2="hardAlpha" operator="out"/>
<feColorMatrix type="matrix" values="0 0 0 0 0 0 0 0 0 0 0 0 0 0 0 0 0 0 0.15 0"/>
<feBlend mode="normal" in2="effect1_dropShadow_9547_89393" result="effect2_dropShadow_9547_89393"/>
<feBlend mode="normal" in="SourceGraphic" in2="effect2_dropShadow_9547_89393" result="shape"/>
</filter>
<filter id="filter1_df_9547_89393" x="-2.53125" y="-10.8506" width="71.1895" height="72.2812" filterUnits="userSpaceOnUse" color-interpolation-filters="sRGB">
<feFlood flood-opacity="0" result="BackgroundImageFix"/>
<feColorMatrix in="SourceAlpha" type="matrix" values="0 0 0 0 0 0 0 0 0 0 0 0 0 0 0 0 0 0 127 0" result="hardAlpha"/>
<feOffset dy="8"/>
<feGaussianBlur stdDeviation="16"/>
<feComposite in2="hardAlpha" operator="out"/>
<feColorMatrix type="matrix" values="0 0 0 0 1 0 0 0 0 1 0 0 0 0 1 0 0 0 0.5 0"/>
<feBlend mode="normal" in2="BackgroundImageFix" result="effect1_dropShadow_9547_89393"/>
<feBlend mode="normal" in="SourceGraphic" in2="effect1_dropShadow_9547_89393" result="shape"/>
<feGaussianBlur stdDeviation="2" result="effect2_foregroundBlur_9547_89393"/>
</filter>
<filter id="filter2_dd_9547_89393" x="72" y="9" width="56" height="56" filterUnits="userSpaceOnUse" color-interpolation-filters="sRGB">
<feFlood flood-opacity="0" result="BackgroundImageFix"/>
<feColorMatrix in="SourceAlpha" type="matrix" values="0 0 0 0 0 0 0 0 0 0 0 0 0 0 0 0 0 0 127 0" result="hardAlpha"/>
<feOffset dy="8"/>
<feGaussianBlur stdDeviation="4"/>
<feComposite in2="hardAlpha" operator="out"/>
<feColorMatrix type="matrix" values="0 0 0 0 0 0 0 0 0 0 0 0 0 0 0 0 0 0 0.05 0"/>
<feBlend mode="normal" in2="BackgroundImageFix" result="effect1_dropShadow_9547_89393"/>
<feColorMatrix in="SourceAlpha" type="matrix" values="0 0 0 0 0 0 0 0 0 0 0 0 0 0 0 0 0 0 127 0" result="hardAlpha"/>
<feOffset dy="4"/>
<feGaussianBlur stdDeviation="2"/>
<feComposite in2="hardAlpha" operator="out"/>
<feColorMatrix type="matrix" values="0 0 0 0 0 0 0 0 0 0 0 0 0 0 0 0 0 0 0.15 0"/>
<feBlend mode="normal" in2="effect1_dropShadow_9547_89393" result="effect2_dropShadow_9547_89393"/>
<feBlend mode="normal" in="SourceGraphic" in2="effect2_dropShadow_9547_89393" result="shape"/>
</filter>
<filter id="filter3_df_9547_89393" x="53.4688" y="-10.8506" width="71.1895" height="72.2812" filterUnits="userSpaceOnUse" color-interpolation-filters="sRGB">
<feFlood flood-opacity="0" result="BackgroundImageFix"/>
<feColorMatrix in="SourceAlpha" type="matrix" values="0 0 0 0 0 0 0 0 0 0 0 0 0 0 0 0 0 0 127 0" result="hardAlpha"/>
<feOffset dy="8"/>
<feGaussianBlur stdDeviation="16"/>
<feComposite in2="hardAlpha" operator="out"/>
<feColorMatrix type="matrix" values="0 0 0 0 1 0 0 0 0 1 0 0 0 0 1 0 0 0 0.5 0"/>
<feBlend mode="normal" in2="BackgroundImageFix" result="effect1_dropShadow_9547_89393"/>
<feBlend mode="normal" in="SourceGraphic" in2="effect1_dropShadow_9547_89393" result="shape"/>
<feGaussianBlur stdDeviation="2" result="effect2_foregroundBlur_9547_89393"/>
</filter>
<linearGradient id="paint0_linear_9547_89393" x1="44" y1="29" x2="44" y2="57" gradientUnits="userSpaceOnUse">
<stop stop-color="white"/>
</linearGradient>
<linearGradient id="paint1_linear_9547_89393" x1="44" y1="9" x2="44" y2="49" gradientUnits="userSpaceOnUse">
<stop stop-color="#FFF257"/>
<stop offset="0.5" stop-color="#FFC800"/>
<stop offset="1" stop-color="#FB9D30"/>
</linearGradient>
<linearGradient id="paint2_linear_9547_89393" x1="32.5242" y1="16.7138" x2="29.7392" y2="20.3742" gradientUnits="userSpaceOnUse">
<stop stop-color="white"/>
</linearGradient>
<linearGradient id="paint3_linear_9547_89393" x1="44" y1="9" x2="44" y2="49" gradientUnits="userSpaceOnUse">
<stop stop-color="white" stop-opacity="0.4"/>
<stop offset="1" stop-color="#FF7C0D"/>
</linearGradient>
<linearGradient id="paint4_linear_9547_89393" x1="100" y1="29" x2="100" y2="57" gradientUnits="userSpaceOnUse">
<stop stop-color="white"/>
</linearGradient>
<linearGradient id="paint5_linear_9547_89393" x1="100" y1="9" x2="100" y2="49" gradientUnits="userSpaceOnUse">
<stop stop-color="#FFF257"/>
<stop offset="0.5" stop-color="#FFC800"/>
<stop offset="1" stop-color="#FB9D30"/>
</linearGradient>
<linearGradient id="paint6_linear_9547_89393" x1="88.5242" y1="16.7138" x2="85.7392" y2="20.3742" gradientUnits="userSpaceOnUse">
<stop stop-color="white"/>
</linearGradient>
<linearGradient id="paint7_linear_9547_89393" x1="100" y1="9" x2="100" y2="49" gradientUnits="userSpaceOnUse">
<stop stop-color="white" stop-opacity="0.4"/>
<stop offset="1" stop-color="#FF7C0D"/>
</linearGradient>
<linearGradient id="paint8_linear_9547_89393" x1="11.5" y1="34.5" x2="11.5" y2="41" gradientUnits="userSpaceOnUse">
<stop stop-color="white"/>
</linearGradient>
<clipPath id="clip0_9547_89393">
<rect x="24" y="9" width="40" height="40" rx="20" fill="white"/>
</clipPath>
<clipPath id="clip1_9547_89393">
<path d="M24 29C24 17.9543 32.9543 9 44 9C55.0457 9 64 17.9543 64 29C64 40.0457 55.0457 49 44 49C32.9543 49 24 40.0457 24 29Z" fill="white"/>
</clipPath>
<clipPath id="clip2_9547_89393">
<rect x="80" y="9" width="40" height="40" rx="20" fill="white"/>
</clipPath>
<clipPath id="clip3_9547_89393">
<path d="M80 29C80 17.9543 88.9543 9 100 9C111.046 9 120 17.9543 120 29C120 40.0457 111.046 49 100 49C88.9543 49 80 40.0457 80 29Z" fill="white"/>
</clipPath>
</defs>
</svg>
