<svg width="40" height="41" viewBox="0 0 40 41" fill="none" xmlns="http://www.w3.org/2000/svg">
<g clip-path="url(#clip0_9547_89359)">
<g filter="url(#filter0_dd_9547_89359)">
<mask id="path-2-inside-1_9547_89359" fill="white">
<path d="M0 20.5C0 9.45431 8.95431 0.5 20 0.5C31.0457 0.5 40 9.45431 40 20.5C40 31.5457 31.0457 40.5 20 40.5C8.95431 40.5 0 31.5457 0 20.5Z"/>
</mask>
<path d="M0 20.5C0 9.45431 8.95431 0.5 20 0.5C31.0457 0.5 40 9.45431 40 20.5C40 31.5457 31.0457 40.5 20 40.5C8.95431 40.5 0 31.5457 0 20.5Z" fill="#1762F3" shape-rendering="crispEdges"/>
<path d="M0 0.5H40H0ZM40 22.5C40 33.5457 31.0457 42.5 20 42.5C8.9543 42.5 0 33.5457 0 22.5V20.5C0 30.4411 8.9543 38.5 20 38.5C31.0457 38.5 40 30.4411 40 20.5V22.5ZM0 40.5V0.5V40.5ZM40 0.5V40.5V0.5Z" fill="#6F86F6" mask="url(#path-2-inside-1_9547_89359)"/>
<g clip-path="url(#clip1_9547_89359)">
<mask id="path-4-inside-2_9547_89359" fill="white">
<path d="M0 20.5C0 9.45431 8.95431 0.5 20 0.5C31.0457 0.5 40 9.45431 40 20.5C40 31.5457 31.0457 40.5 20 40.5C8.95431 40.5 0 31.5457 0 20.5Z"/>
</mask>
<path d="M0 20.5C0 9.45431 8.95431 0.5 20 0.5C31.0457 0.5 40 9.45431 40 20.5C40 31.5457 31.0457 40.5 20 40.5C8.95431 40.5 0 31.5457 0 20.5Z" fill="url(#paint0_linear_9547_89359)"/>
<path d="M20.0002 27.1668C18.1391 27.1668 16.5627 26.521 15.271 25.2293C13.9793 23.9377 13.3335 22.3613 13.3335 20.5002C13.3335 18.6391 13.9793 17.0627 15.271 15.771C16.5627 14.4793 18.1391 13.8335 20.0002 13.8335C20.9585 13.8335 21.8752 14.0314 22.7502 14.4272C23.6252 14.8231 24.3752 15.3891 25.0002 16.1252V13.8335H26.6668V19.6668H20.8335V18.0002H24.3335C23.8891 17.2224 23.2814 16.6113 22.5106 16.1668C21.7397 15.7224 20.9029 15.5002 20.0002 15.5002C18.6113 15.5002 17.4307 15.9863 16.4585 16.9585C15.4863 17.9307 15.0002 19.1113 15.0002 20.5002C15.0002 21.8891 15.4863 23.0696 16.4585 24.0418C17.4307 25.0141 18.6113 25.5002 20.0002 25.5002C21.0696 25.5002 22.0349 25.1946 22.896 24.5835C23.7571 23.9724 24.3613 23.1668 24.7085 22.1668H26.4585C26.0696 23.6391 25.2779 24.8404 24.0835 25.771C22.8891 26.7016 21.5279 27.1668 20.0002 27.1668Z" fill="#333333"/>
<g filter="url(#filter1_df_9547_89359)">
<path d="M9.82483 10.1865C8.28673 12.2081 8.11044 13.6783 6.59426 12.5247C5.07808 11.3712 5.09586 8.79719 6.63396 6.77562C8.17207 4.75404 10.6481 4.05039 12.1642 5.20397C13.6804 6.35755 11.3629 8.16495 9.82483 10.1865Z" fill="url(#paint1_linear_9547_89359)"/>
</g>
</g>
<path d="M0 0.5H40H0ZM40 24.5C40 35.5457 31.0457 44.5 20 44.5C8.9543 44.5 0 35.5457 0 24.5V20.5C0 29.3366 8.9543 36.5 20 36.5C31.0457 36.5 40 29.3366 40 20.5V24.5ZM0 40.5V0.5V40.5ZM40 0.5V40.5V0.5Z" fill="url(#paint2_linear_9547_89359)" mask="url(#path-4-inside-2_9547_89359)"/>
</g>
</g>
<defs>
<filter id="filter0_dd_9547_89359" x="-8" y="0.5" width="56" height="56" filterUnits="userSpaceOnUse" color-interpolation-filters="sRGB">
<feFlood flood-opacity="0" result="BackgroundImageFix"/>
<feColorMatrix in="SourceAlpha" type="matrix" values="0 0 0 0 0 0 0 0 0 0 0 0 0 0 0 0 0 0 127 0" result="hardAlpha"/>
<feOffset dy="8"/>
<feGaussianBlur stdDeviation="4"/>
<feComposite in2="hardAlpha" operator="out"/>
<feColorMatrix type="matrix" values="0 0 0 0 0 0 0 0 0 0 0 0 0 0 0 0 0 0 0.05 0"/>
<feBlend mode="normal" in2="BackgroundImageFix" result="effect1_dropShadow_9547_89359"/>
<feColorMatrix in="SourceAlpha" type="matrix" values="0 0 0 0 0 0 0 0 0 0 0 0 0 0 0 0 0 0 127 0" result="hardAlpha"/>
<feOffset dy="4"/>
<feGaussianBlur stdDeviation="2"/>
<feComposite in2="hardAlpha" operator="out"/>
<feColorMatrix type="matrix" values="0 0 0 0 0 0 0 0 0 0 0 0 0 0 0 0 0 0 0.15 0"/>
<feBlend mode="normal" in2="effect1_dropShadow_9547_89359" result="effect2_dropShadow_9547_89359"/>
<feBlend mode="normal" in="SourceGraphic" in2="effect2_dropShadow_9547_89359" result="shape"/>
</filter>
<filter id="filter1_df_9547_89359" x="-26.5312" y="-19.3506" width="71.1895" height="72.2812" filterUnits="userSpaceOnUse" color-interpolation-filters="sRGB">
<feFlood flood-opacity="0" result="BackgroundImageFix"/>
<feColorMatrix in="SourceAlpha" type="matrix" values="0 0 0 0 0 0 0 0 0 0 0 0 0 0 0 0 0 0 127 0" result="hardAlpha"/>
<feOffset dy="8"/>
<feGaussianBlur stdDeviation="16"/>
<feComposite in2="hardAlpha" operator="out"/>
<feColorMatrix type="matrix" values="0 0 0 0 1 0 0 0 0 1 0 0 0 0 1 0 0 0 0.5 0"/>
<feBlend mode="normal" in2="BackgroundImageFix" result="effect1_dropShadow_9547_89359"/>
<feBlend mode="normal" in="SourceGraphic" in2="effect1_dropShadow_9547_89359" result="shape"/>
<feGaussianBlur stdDeviation="2" result="effect2_foregroundBlur_9547_89359"/>
</filter>
<linearGradient id="paint0_linear_9547_89359" x1="20" y1="0.5" x2="20" y2="40.5" gradientUnits="userSpaceOnUse">
<stop stop-color="#FFF257"/>
<stop offset="0.5" stop-color="#FFC800"/>
<stop offset="1" stop-color="#FB9D30"/>
</linearGradient>
<linearGradient id="paint1_linear_9547_89359" x1="8.52418" y1="8.21378" x2="5.7392" y2="11.8742" gradientUnits="userSpaceOnUse">
<stop stop-color="white"/>
</linearGradient>
<linearGradient id="paint2_linear_9547_89359" x1="20" y1="0.5" x2="20" y2="40.5" gradientUnits="userSpaceOnUse">
<stop stop-color="white" stop-opacity="0.4"/>
<stop offset="1" stop-color="#FF7C0D"/>
</linearGradient>
<clipPath id="clip0_9547_89359">
<rect y="0.5" width="40" height="40" rx="20" fill="white"/>
</clipPath>
<clipPath id="clip1_9547_89359">
<path d="M0 20.5C0 9.45431 8.95431 0.5 20 0.5C31.0457 0.5 40 9.45431 40 20.5C40 31.5457 31.0457 40.5 20 40.5C8.95431 40.5 0 31.5457 0 20.5Z" fill="white"/>
</clipPath>
</defs>
</svg>
