<svg width="20" height="21" viewBox="0 0 20 21" fill="none" xmlns="http://www.w3.org/2000/svg">
<path d="M10 8.02C9.5095 8.02 9.03002 8.16545 8.62219 8.43795C8.21435 8.71046 7.89648 9.09778 7.70878 9.55095C7.52107 10.0041 7.47196 10.5028 7.56765 10.9838C7.66334 11.4649 7.89954 11.9068 8.24638 12.2536C8.59321 12.6005 9.0351 12.8367 9.51618 12.9323C9.99725 13.028 10.4959 12.9789 10.9491 12.7912C11.4022 12.6035 11.7895 12.2856 12.062 11.8778C12.3346 11.47 12.48 10.9905 12.48 10.5C12.48 10.1743 12.4159 9.85183 12.2912 9.55095C12.1666 9.25006 11.9839 8.97666 11.7536 8.74638C11.5233 8.51609 11.2499 8.33341 10.9491 8.20878C10.6482 8.08415 10.3257 8.02 10 8.02ZM19.93 5.57C19.9247 4.79776 19.7825 4.03257 19.51 3.31C19.3093 2.78126 18.9987 2.30109 18.5988 1.90119C18.1989 1.50128 17.7187 1.19072 17.19 0.99C16.4674 0.717464 15.7022 0.575261 14.93 0.57C13.64 0.5 13.26 0.5 10 0.5C6.74 0.5 6.36 0.5 5.07 0.57C4.29776 0.575261 3.53257 0.717464 2.81 0.99C2.28126 1.19072 1.80109 1.50128 1.40119 1.90119C1.00128 2.30109 0.690718 2.78126 0.49 3.31C0.217464 4.03257 0.0752609 4.79776 0.0699999 5.57C-6.70552e-08 6.86 0 7.24 0 10.5C0 13.76 -6.70552e-08 14.14 0.0699999 15.43C0.0807639 16.205 0.222774 16.9725 0.49 17.7C0.689828 18.2263 1.00013 18.7037 1.4 19.1C1.79819 19.5023 2.27939 19.8129 2.81 20.01C3.53257 20.2825 4.29776 20.4247 5.07 20.43C6.36 20.5 6.74 20.5 10 20.5C13.26 20.5 13.64 20.5 14.93 20.43C15.7022 20.4247 16.4674 20.2825 17.19 20.01C17.7206 19.8129 18.2018 19.5023 18.6 19.1C18.9999 18.7037 19.3102 18.2263 19.51 17.7C19.7823 16.9739 19.9244 16.2055 19.93 15.43C20 14.14 20 13.76 20 10.5C20 7.24 20 6.86 19.93 5.57ZM17.39 13.57C17.3579 14.1871 17.2262 14.795 17 15.37C16.8059 15.8497 16.5173 16.2854 16.1514 16.6514C15.7854 17.0173 15.3497 17.3059 14.87 17.5C14.2895 17.7136 13.6783 17.8318 13.06 17.85C12.27 17.85 12.06 17.85 10 17.85C7.94 17.85 7.73 17.85 6.94 17.85C6.32173 17.8318 5.71049 17.7136 5.13 17.5C4.6341 17.3157 4.18628 17.0217 3.82 16.64C3.45767 16.2813 3.17784 15.8479 3 15.37C2.78556 14.7901 2.67061 14.1782 2.66 13.56C2.66 12.77 2.66 12.56 2.66 10.5C2.66 8.44 2.66 8.23 2.66 7.44C2.67061 6.82183 2.78556 6.20988 3 5.63C3.18428 5.1341 3.47827 4.68628 3.86 4.32C4.22033 3.95962 4.65326 3.68009 5.13 3.5C5.71049 3.28641 6.32173 3.16821 6.94 3.15C7.73 3.15 7.94 3.15 10 3.15C12.06 3.15 12.27 3.15 13.06 3.15C13.6783 3.16821 14.2895 3.28641 14.87 3.5C15.3659 3.68428 15.8137 3.97827 16.18 4.36C16.5423 4.71875 16.8222 5.15213 17 5.63C17.2136 6.21049 17.3318 6.82173 17.35 7.44C17.35 8.23 17.35 8.44 17.35 10.5C17.35 12.56 17.42 12.77 17.39 13.56V13.57ZM15.79 6.13C15.6709 5.80698 15.4832 5.51364 15.2398 5.27021C14.9964 5.02678 14.703 4.83906 14.38 4.72C13.9365 4.56626 13.4693 4.49179 13 4.5C12.22 4.5 12 4.5 10 4.5C8 4.5 7.78 4.5 7 4.5C6.52827 4.50461 6.06107 4.59263 5.62 4.76C5.30193 4.87366 5.01169 5.05371 4.76858 5.2882C4.52547 5.52269 4.33506 5.80624 4.21 6.12C4.06478 6.56537 3.99383 7.0316 4 7.5C4 8.28 4 8.5 4 10.5C4 12.5 4 12.72 4 13.5C4.00991 13.9712 4.09777 14.4375 4.26 14.88C4.37906 15.203 4.56678 15.4964 4.81021 15.7398C5.05364 15.9832 5.34698 16.1709 5.67 16.29C6.09667 16.4469 6.54565 16.5347 7 16.55C7.78 16.55 8 16.55 10 16.55C12 16.55 12.22 16.55 13 16.55C13.4717 16.5454 13.9389 16.4574 14.38 16.29C14.703 16.1709 14.9964 15.9832 15.2398 15.7398C15.4832 15.4964 15.6709 15.203 15.79 14.88C15.9574 14.4389 16.0454 13.9717 16.05 13.5C16.05 12.72 16.05 12.5 16.05 10.5C16.05 8.5 16.05 8.28 16.05 7.5C16.0503 7.0278 15.9621 6.55972 15.79 6.12V6.13ZM10 14.32C9.49882 14.32 9.00257 14.2211 8.53966 14.029C8.07676 13.8369 7.6563 13.5554 7.30238 13.2005C6.94846 12.8457 6.66803 12.4245 6.47714 11.9611C6.28626 11.4977 6.18868 11.0012 6.19 10.5C6.19 9.74405 6.4143 9.0051 6.83449 8.37669C7.25468 7.74828 7.85187 7.25866 8.55047 6.96983C9.24907 6.681 10.0177 6.60594 10.7589 6.75415C11.5002 6.90236 12.1808 7.26717 12.7147 7.80241C13.2485 8.33764 13.6116 9.01924 13.7578 9.7609C13.9041 10.5026 13.827 11.271 13.5363 11.9688C13.2457 12.6666 12.7545 13.2625 12.125 13.6811C11.4955 14.0996 10.7559 14.322 10 14.32ZM14 7.43C13.7789 7.4066 13.5744 7.30222 13.4257 7.13697C13.277 6.97172 13.1947 6.75729 13.1947 6.535C13.1947 6.31271 13.277 6.09828 13.4257 5.93303C13.5744 5.76778 13.7789 5.6634 14 5.64C14.2211 5.6634 14.4256 5.76778 14.5743 5.93303C14.723 6.09828 14.8053 6.31271 14.8053 6.535C14.8053 6.75729 14.723 6.97172 14.5743 7.13697C14.4256 7.30222 14.2211 7.4066 14 7.43Z" fill="#333333"/>
</svg>
