<svg width="20" height="21" viewBox="0 0 20 21" fill="none" xmlns="http://www.w3.org/2000/svg">
<path d="M11.78 7.96C11.7301 7.96 11.6807 7.96983 11.6346 7.98893C11.5885 8.00802 11.5466 8.03601 11.5113 8.0713C11.476 8.10659 11.448 8.14848 11.4289 8.19458C11.4098 8.24068 11.4 8.2901 11.4 8.34V10.01L10 8.15C9.96512 8.0934 9.91668 8.04639 9.85906 8.01321C9.80144 7.98004 9.73646 7.96175 9.67 7.96C9.6201 7.96 9.57068 7.96983 9.52458 7.98893C9.47848 8.00802 9.43659 8.03601 9.4013 8.0713C9.36601 8.10659 9.33802 8.14848 9.31893 8.19458C9.29983 8.24068 9.29 8.2901 9.29 8.34V11.18C9.29 11.2299 9.29983 11.2793 9.31893 11.3254C9.33802 11.3715 9.36601 11.4134 9.4013 11.4487C9.43659 11.484 9.47848 11.512 9.52458 11.5311C9.57068 11.5502 9.6201 11.56 9.67 11.56C9.7199 11.56 9.76932 11.5502 9.81542 11.5311C9.86152 11.512 9.90341 11.484 9.9387 11.4487C9.97399 11.4134 10.002 11.3715 10.0211 11.3254C10.0402 11.2793 10.05 11.2299 10.05 11.18V9.5L11.44 11.41C11.4754 11.4633 11.5285 11.5023 11.59 11.52C11.6361 11.5303 11.6839 11.5303 11.73 11.52C11.7739 11.5359 11.8206 11.5424 11.8671 11.539C11.9137 11.5355 11.959 11.5222 12 11.5L12.1 11.43C12.1702 11.3576 12.2096 11.2608 12.21 11.16V8.34C12.2105 8.2856 12.1993 8.23173 12.1771 8.18203C12.155 8.13234 12.1224 8.08798 12.0816 8.05195C12.0409 8.01592 11.9929 7.98907 11.9408 7.97321C11.8888 7.95734 11.8339 7.95284 11.78 7.96ZM7.2 10.77H6.14V8.34C6.14 8.23922 6.09996 8.14256 6.0287 8.0713C5.95744 8.00004 5.86078 7.96 5.76 7.96C5.65922 7.96 5.56256 8.00004 5.4913 8.0713C5.42004 8.14256 5.38 8.23922 5.38 8.34V11.18C5.38 11.2808 5.42004 11.3774 5.4913 11.4487C5.56256 11.52 5.65922 11.56 5.76 11.56H7.2C7.30172 11.56 7.39944 11.5203 7.4723 11.4493C7.54515 11.3783 7.58739 11.2817 7.59 11.18C7.59272 11.1271 7.58464 11.0743 7.56626 11.0246C7.54788 10.975 7.51958 10.9296 7.48309 10.8912C7.4466 10.8528 7.40268 10.8223 7.35402 10.8015C7.30535 10.7806 7.25294 10.7699 7.2 10.77ZM8.31 7.96C8.20828 7.95997 8.11056 7.99968 8.0377 8.07067C7.96485 8.14166 7.92261 8.23831 7.92 8.34V11.18C7.92261 11.2817 7.96485 11.3783 8.0377 11.4493C8.11056 11.5203 8.20828 11.56 8.31 11.56C8.41078 11.56 8.50744 11.52 8.5787 11.4487C8.64997 11.3774 8.69 11.2808 8.69 11.18V8.34C8.69 8.23922 8.64997 8.14256 8.5787 8.0713C8.50744 8.00004 8.41078 7.96 8.31 7.96ZM15.91 0.5H4.09C3.00608 0.502641 1.9673 0.934398 1.20085 1.70085C0.434398 2.4673 0.00264051 3.50608 0 4.59V16.41C0.00264051 17.4939 0.434398 18.5327 1.20085 19.2992C1.9673 20.0656 3.00608 20.4974 4.09 20.5H15.91C16.9939 20.4974 18.0327 20.0656 18.7992 19.2992C19.5656 18.5327 19.9974 17.4939 20 16.41V4.59C19.9974 3.50608 19.5656 2.4673 18.7992 1.70085C18.0327 0.934398 16.9939 0.502641 15.91 0.5ZM16.22 12.78C16.1806 12.8396 16.1372 12.8964 16.09 12.95C15.8515 13.2435 15.5835 13.5115 15.29 13.75C13.29 15.62 9.93 17.86 9.48 17.51C9.03 17.16 10.12 15.75 8.95 15.51C8.86699 15.5205 8.783 15.5205 8.7 15.51C5.26 15.03 2.7 12.62 2.7 9.73C2.7 6.48 5.99 3.85 10.04 3.85C14.09 3.85 17.38 6.48 17.38 9.73C17.3453 10.8478 16.9369 11.9217 16.22 12.78ZM14.51 7.97H13C12.8992 7.97 12.8026 8.01004 12.7313 8.0813C12.66 8.15256 12.62 8.24922 12.62 8.35V11.19C12.62 11.2399 12.6298 11.2893 12.6489 11.3354C12.668 11.3815 12.696 11.4234 12.7313 11.4587C12.7666 11.494 12.8085 11.522 12.8546 11.5411C12.9007 11.5602 12.9501 11.57 13 11.57H14.48C14.5299 11.57 14.5793 11.5602 14.6254 11.5411C14.6715 11.522 14.7134 11.494 14.7487 11.4587C14.784 11.4234 14.812 11.3815 14.8311 11.3354C14.8502 11.2893 14.86 11.2399 14.86 11.19C14.86 11.0892 14.82 10.9926 14.7487 10.9213C14.6774 10.85 14.5808 10.81 14.48 10.81H13.45V10.21H14.51C14.6117 10.2074 14.7083 10.1652 14.7793 10.0923C14.8503 10.0194 14.89 9.92172 14.89 9.82C14.89 9.71922 14.85 9.62256 14.7787 9.5513C14.7074 9.48003 14.6108 9.44 14.51 9.44H13.45V8.83H14.51C14.6108 8.83 14.7074 8.78996 14.7787 8.7187C14.85 8.64744 14.89 8.55078 14.89 8.45C14.9057 8.39252 14.9077 8.33215 14.8958 8.27377C14.8839 8.21538 14.8584 8.16062 14.8214 8.11389C14.7844 8.06717 14.737 8.02981 14.6829 8.00481C14.6288 7.97981 14.5696 7.96789 14.51 7.97Z" fill="#333333"/>
</svg>
