<svg width="48" height="49" viewBox="0 0 48 49" fill="none" xmlns="http://www.w3.org/2000/svg">
<path d="M30.7143 30.2014H31.2143V29.7014V15.8571C31.2143 15.1489 30.6369 14.5714 29.9286 14.5714H20.2879H19.7879V15.0714V29.7014V30.2014H20.2879H30.7143ZM19.2164 15.0714V14.5714H18.7164H17.9307C16.9196 14.5714 16.0714 15.3811 16.0714 16.3993V30.0471V30.8701L16.8018 30.4909C17.1511 30.3096 17.5283 30.2014 17.9307 30.2014H18.7164H19.2164V29.7014V15.0714ZM30.2271 34.4286H30.9248L30.7006 33.7679C30.4374 32.9921 30.4374 32.2093 30.7006 31.4335L30.9248 30.7729H30.2271H17.9307C16.9196 30.7729 16.0714 31.5825 16.0714 32.6007C16.0714 33.6189 16.9196 34.4286 17.9307 34.4286H30.2271ZM29.9286 14C30.9489 14 31.7857 14.8369 31.7857 15.8571V30.4871C31.7857 30.5255 31.7724 30.5831 31.7278 30.6621C31.3081 31.2878 31.0746 31.9307 31.0746 32.6007C31.0746 33.2741 31.3105 33.9201 31.7341 34.5487C31.7925 34.6417 31.7978 34.7559 31.7469 34.8546C31.7021 34.9417 31.61 35 31.5 35H17.9307C16.5839 35 15.5 33.9152 15.5 32.6007V16.3993C15.5 15.0848 16.5839 14 17.9307 14H29.9286Z" fill="#333333" stroke="#333333"/>
<path d="M22.6451 21.8759H28.3572C28.7894 21.8759 29.1429 21.5224 29.1429 21.0902V17.4288C29.1429 16.9966 28.7894 16.6431 28.3572 16.6431H22.6451C22.2129 16.6431 21.8594 16.9966 21.8594 17.4288V21.0902C21.8594 21.5224 22.2129 21.8759 22.6451 21.8759ZM23.4308 18.2145H27.5715V20.3045H23.4308V18.2145Z" fill="#333333"/>
</svg>
