<svg width="48" height="48" viewBox="0 0 48 48" fill="none" xmlns="http://www.w3.org/2000/svg">
<g filter="url(#filter0_dd_6247_28474)">
<mask id="path-1-inside-1_6247_28474" fill="white">
<path d="M8 16C8 7.16344 15.1634 0 24 0C32.8366 0 40 7.16344 40 16C40 24.8366 32.8366 32 24 32C15.1634 32 8 24.8366 8 16Z"/>
</mask>
<path d="M8 16C8 7.16344 15.1634 0 24 0C32.8366 0 40 7.16344 40 16C40 24.8366 32.8366 32 24 32C15.1634 32 8 24.8366 8 16Z" fill="white" fill-opacity="0.8" shape-rendering="crispEdges"/>
<path d="M8 0H40H8ZM40 18C40 26.8366 32.8366 34 24 34C15.1634 34 8 26.8366 8 18V16C8 23.732 15.1634 30 24 30C32.8366 30 40 23.732 40 16V18ZM8 32V0V32ZM40 0V32V0Z" fill="#DDDCDF" mask="url(#path-1-inside-1_6247_28474)"/>
<g clip-path="url(#clip0_6247_28474)">
<mask id="path-3-inside-2_6247_28474" fill="white">
<path d="M8 16C8 7.16344 15.1634 0 24 0C32.8366 0 40 7.16344 40 16C40 24.8366 32.8366 32 24 32C15.1634 32 8 24.8366 8 16Z"/>
</mask>
<mask id="path-5-inside-3_6247_28474" fill="white">
<path d="M31.767 13.9577L30.192 13.4327L30.9337 11.9494C31.0088 11.7941 31.034 11.6193 31.0056 11.4492C30.9773 11.279 30.8968 11.1218 30.7753 10.9994L29.0003 9.22435C28.8772 9.10109 28.7185 9.01952 28.5466 8.99112C28.3747 8.96272 28.1982 8.98892 28.042 9.06602L26.5587 9.80769L26.0337 8.23269C25.9782 8.06851 25.873 7.92571 25.7326 7.82414C25.5922 7.72258 25.4236 7.66731 25.2503 7.66602H22.7503C22.5756 7.66557 22.4052 7.72003 22.2631 7.82172C22.1211 7.92341 22.0146 8.06717 21.9587 8.23269L21.4337 9.80769L19.9503 9.06602C19.7951 8.99083 19.6203 8.96569 19.4501 8.99405C19.28 9.02241 19.1228 9.10288 19.0003 9.22435L17.2253 10.9994C17.1021 11.1225 17.0205 11.2812 16.9921 11.4531C16.9637 11.625 16.9899 11.8014 17.067 11.9577L17.8087 13.441L16.2337 13.966C16.0695 14.0215 15.9267 14.1267 15.8251 14.2671C15.7236 14.4075 15.6683 14.5761 15.667 14.7494V17.2494C15.6665 17.4241 15.721 17.5945 15.8227 17.7365C15.9244 17.8786 16.0681 17.9851 16.2337 18.041L17.8087 18.566L17.067 20.0494C16.9918 20.2046 16.9667 20.3794 16.995 20.5495C17.0234 20.7197 17.1039 20.8769 17.2253 20.9994L19.0003 22.7744C19.1235 22.8976 19.2821 22.9792 19.454 23.0076C19.6259 23.036 19.8024 23.0098 19.9587 22.9327L21.442 22.191L21.967 23.766C22.0229 23.9315 22.1294 24.0753 22.2715 24.177C22.4135 24.2787 22.584 24.3331 22.7587 24.3327H25.2587C25.4334 24.3331 25.6038 24.2787 25.7459 24.177C25.8879 24.0753 25.9944 23.9315 26.0503 23.766L26.5753 22.191L28.0587 22.9327C28.2129 23.006 28.386 23.0301 28.5544 23.0018C28.7229 22.9734 28.8785 22.8941 29.0003 22.7744L30.7753 20.9994C30.8986 20.8762 30.9802 20.7175 31.0086 20.5456C31.037 20.3737 31.0108 20.1973 30.9337 20.041L30.192 18.5577L31.767 18.0327C31.9312 17.9772 32.074 17.872 32.1755 17.7316C32.2771 17.5912 32.3324 17.4226 32.3337 17.2494V14.7494C32.3341 14.5746 32.2796 14.4042 32.178 14.2622C32.0763 14.1201 31.9325 14.0136 31.767 13.9577ZM30.667 16.6494L29.667 16.9827C29.437 17.0573 29.2261 17.181 29.0487 17.3453C28.8713 17.5095 28.7318 17.7104 28.6399 17.934C28.5479 18.1576 28.5057 18.3985 28.5161 18.64C28.5266 18.8815 28.5894 19.1179 28.7003 19.3327L29.1753 20.2827L28.2587 21.1994L27.3337 20.6994C27.12 20.5929 26.8859 20.5336 26.6473 20.5254C26.4086 20.5173 26.1711 20.5605 25.9506 20.6522C25.7301 20.7438 25.5319 20.8818 25.3694 21.0567C25.2069 21.2316 25.0839 21.4394 25.0087 21.666L24.6753 22.666H23.3503L23.017 21.666C22.9424 21.4361 22.8187 21.2251 22.6544 21.0477C22.4901 20.8704 22.2893 20.7309 22.0657 20.6389C21.8421 20.5469 21.6012 20.5047 21.3597 20.5151C21.1182 20.5256 20.8818 20.5884 20.667 20.6994L19.717 21.1744L18.8003 20.2577L19.3003 19.3327C19.4112 19.1179 19.4741 18.8815 19.4845 18.64C19.495 18.3985 19.4527 18.1576 19.3608 17.934C19.2688 17.7104 19.1293 17.5095 18.9519 17.3453C18.7746 17.181 18.5636 17.0573 18.3337 16.9827L17.3337 16.6494V15.3494L18.3337 15.016C18.5636 14.9414 18.7746 14.8177 18.9519 14.6534C19.1293 14.4892 19.2688 14.2883 19.3608 14.0647C19.4527 13.8411 19.495 13.6002 19.4845 13.3587C19.4741 13.1172 19.4112 12.8808 19.3003 12.666L18.8253 11.741L19.742 10.8244L20.667 11.2994C20.8818 11.4103 21.1182 11.4731 21.3597 11.4836C21.6012 11.494 21.8421 11.4518 22.0657 11.3598C22.2893 11.2678 22.4901 11.1283 22.6544 10.951C22.8187 10.7736 22.9424 10.5626 23.017 10.3327L23.3503 9.33269H24.6503L24.9837 10.3327C25.0583 10.5626 25.182 10.7736 25.3462 10.951C25.5105 11.1283 25.7114 11.2678 25.935 11.3598C26.1586 11.4518 26.3995 11.494 26.641 11.4836C26.8825 11.4731 27.1189 11.4103 27.3337 11.2994L28.2837 10.8244L29.2003 11.741L28.7003 12.666C28.5939 12.8797 28.5345 13.1138 28.5264 13.3524C28.5183 13.591 28.5615 13.8286 28.6532 14.0491C28.7448 14.2695 28.8828 14.4677 29.0577 14.6303C29.2326 14.7928 29.4404 14.9158 29.667 14.991L30.667 15.3244V16.6494ZM24.0003 12.666C23.3411 12.666 22.6966 12.8615 22.1484 13.2278C21.6003 13.5941 21.173 14.1147 20.9207 14.7237C20.6684 15.3328 20.6024 16.003 20.731 16.6497C20.8597 17.2963 21.1771 17.8902 21.6433 18.3564C22.1095 18.8225 22.7034 19.14 23.35 19.2686C23.9966 19.3973 24.6669 19.3312 25.2759 19.079C25.885 18.8267 26.4056 18.3994 26.7719 17.8513C27.1382 17.3031 27.3337 16.6586 27.3337 15.9994C27.3337 15.1153 26.9825 14.2675 26.3574 13.6423C25.7322 13.0172 24.8844 12.666 24.0003 12.666ZM24.0003 17.666C23.6707 17.666 23.3485 17.5683 23.0744 17.3851C22.8003 17.202 22.5867 16.9417 22.4605 16.6372C22.3344 16.3326 22.3014 15.9975 22.3657 15.6742C22.43 15.3509 22.5887 15.0539 22.8218 14.8208C23.0549 14.5878 23.3519 14.429 23.6752 14.3647C23.9985 14.3004 24.3336 14.3334 24.6381 14.4596C24.9427 14.5857 25.203 14.7993 25.3861 15.0734C25.5692 15.3475 25.667 15.6697 25.667 15.9994C25.667 16.4414 25.4914 16.8653 25.1788 17.1779C24.8663 17.4904 24.4424 17.666 24.0003 17.666Z"/>
</mask>
<path d="M31.767 13.9577L30.192 13.4327L30.9337 11.9494C31.0088 11.7941 31.034 11.6193 31.0056 11.4492C30.9773 11.279 30.8968 11.1218 30.7753 10.9994L29.0003 9.22435C28.8772 9.10109 28.7185 9.01952 28.5466 8.99112C28.3747 8.96272 28.1982 8.98892 28.042 9.06602L26.5587 9.80769L26.0337 8.23269C25.9782 8.06851 25.873 7.92571 25.7326 7.82414C25.5922 7.72258 25.4236 7.66731 25.2503 7.66602H22.7503C22.5756 7.66557 22.4052 7.72003 22.2631 7.82172C22.1211 7.92341 22.0146 8.06717 21.9587 8.23269L21.4337 9.80769L19.9503 9.06602C19.7951 8.99083 19.6203 8.96569 19.4501 8.99405C19.28 9.02241 19.1228 9.10288 19.0003 9.22435L17.2253 10.9994C17.1021 11.1225 17.0205 11.2812 16.9921 11.4531C16.9637 11.625 16.9899 11.8014 17.067 11.9577L17.8087 13.441L16.2337 13.966C16.0695 14.0215 15.9267 14.1267 15.8251 14.2671C15.7236 14.4075 15.6683 14.5761 15.667 14.7494V17.2494C15.6665 17.4241 15.721 17.5945 15.8227 17.7365C15.9244 17.8786 16.0681 17.9851 16.2337 18.041L17.8087 18.566L17.067 20.0494C16.9918 20.2046 16.9667 20.3794 16.995 20.5495C17.0234 20.7197 17.1039 20.8769 17.2253 20.9994L19.0003 22.7744C19.1235 22.8976 19.2821 22.9792 19.454 23.0076C19.6259 23.036 19.8024 23.0098 19.9587 22.9327L21.442 22.191L21.967 23.766C22.0229 23.9315 22.1294 24.0753 22.2715 24.177C22.4135 24.2787 22.584 24.3331 22.7587 24.3327H25.2587C25.4334 24.3331 25.6038 24.2787 25.7459 24.177C25.8879 24.0753 25.9944 23.9315 26.0503 23.766L26.5753 22.191L28.0587 22.9327C28.2129 23.006 28.386 23.0301 28.5544 23.0018C28.7229 22.9734 28.8785 22.8941 29.0003 22.7744L30.7753 20.9994C30.8986 20.8762 30.9802 20.7175 31.0086 20.5456C31.037 20.3737 31.0108 20.1973 30.9337 20.041L30.192 18.5577L31.767 18.0327C31.9312 17.9772 32.074 17.872 32.1755 17.7316C32.2771 17.5912 32.3324 17.4226 32.3337 17.2494V14.7494C32.3341 14.5746 32.2796 14.4042 32.178 14.2622C32.0763 14.1201 31.9325 14.0136 31.767 13.9577ZM30.667 16.6494L29.667 16.9827C29.437 17.0573 29.2261 17.181 29.0487 17.3453C28.8713 17.5095 28.7318 17.7104 28.6399 17.934C28.5479 18.1576 28.5057 18.3985 28.5161 18.64C28.5266 18.8815 28.5894 19.1179 28.7003 19.3327L29.1753 20.2827L28.2587 21.1994L27.3337 20.6994C27.12 20.5929 26.8859 20.5336 26.6473 20.5254C26.4086 20.5173 26.1711 20.5605 25.9506 20.6522C25.7301 20.7438 25.5319 20.8818 25.3694 21.0567C25.2069 21.2316 25.0839 21.4394 25.0087 21.666L24.6753 22.666H23.3503L23.017 21.666C22.9424 21.4361 22.8187 21.2251 22.6544 21.0477C22.4901 20.8704 22.2893 20.7309 22.0657 20.6389C21.8421 20.5469 21.6012 20.5047 21.3597 20.5151C21.1182 20.5256 20.8818 20.5884 20.667 20.6994L19.717 21.1744L18.8003 20.2577L19.3003 19.3327C19.4112 19.1179 19.4741 18.8815 19.4845 18.64C19.495 18.3985 19.4527 18.1576 19.3608 17.934C19.2688 17.7104 19.1293 17.5095 18.9519 17.3453C18.7746 17.181 18.5636 17.0573 18.3337 16.9827L17.3337 16.6494V15.3494L18.3337 15.016C18.5636 14.9414 18.7746 14.8177 18.9519 14.6534C19.1293 14.4892 19.2688 14.2883 19.3608 14.0647C19.4527 13.8411 19.495 13.6002 19.4845 13.3587C19.4741 13.1172 19.4112 12.8808 19.3003 12.666L18.8253 11.741L19.742 10.8244L20.667 11.2994C20.8818 11.4103 21.1182 11.4731 21.3597 11.4836C21.6012 11.494 21.8421 11.4518 22.0657 11.3598C22.2893 11.2678 22.4901 11.1283 22.6544 10.951C22.8187 10.7736 22.9424 10.5626 23.017 10.3327L23.3503 9.33269H24.6503L24.9837 10.3327C25.0583 10.5626 25.182 10.7736 25.3462 10.951C25.5105 11.1283 25.7114 11.2678 25.935 11.3598C26.1586 11.4518 26.3995 11.494 26.641 11.4836C26.8825 11.4731 27.1189 11.4103 27.3337 11.2994L28.2837 10.8244L29.2003 11.741L28.7003 12.666C28.5939 12.8797 28.5345 13.1138 28.5264 13.3524C28.5183 13.591 28.5615 13.8286 28.6532 14.0491C28.7448 14.2695 28.8828 14.4677 29.0577 14.6303C29.2326 14.7928 29.4404 14.9158 29.667 14.991L30.667 15.3244V16.6494ZM24.0003 12.666C23.3411 12.666 22.6966 12.8615 22.1484 13.2278C21.6003 13.5941 21.173 14.1147 20.9207 14.7237C20.6684 15.3328 20.6024 16.003 20.731 16.6497C20.8597 17.2963 21.1771 17.8902 21.6433 18.3564C22.1095 18.8225 22.7034 19.14 23.35 19.2686C23.9966 19.3973 24.6669 19.3312 25.2759 19.079C25.885 18.8267 26.4056 18.3994 26.7719 17.8513C27.1382 17.3031 27.3337 16.6586 27.3337 15.9994C27.3337 15.1153 26.9825 14.2675 26.3574 13.6423C25.7322 13.0172 24.8844 12.666 24.0003 12.666ZM24.0003 17.666C23.6707 17.666 23.3485 17.5683 23.0744 17.3851C22.8003 17.202 22.5867 16.9417 22.4605 16.6372C22.3344 16.3326 22.3014 15.9975 22.3657 15.6742C22.43 15.3509 22.5887 15.0539 22.8218 14.8208C23.0549 14.5878 23.3519 14.429 23.6752 14.3647C23.9985 14.3004 24.3336 14.3334 24.6381 14.4596C24.9427 14.5857 25.203 14.7993 25.3861 15.0734C25.5692 15.3475 25.667 15.6697 25.667 15.9994C25.667 16.4414 25.4914 16.8653 25.1788 17.1779C24.8663 17.4904 24.4424 17.666 24.0003 17.666Z" fill="#333333" stroke="#333333" stroke-width="2" mask="url(#path-5-inside-3_6247_28474)"/>
<g filter="url(#filter1_df_6247_28474)">
<path d="M17.8248 9.68653C16.2867 11.7081 16.1104 13.1783 14.5943 12.0247C13.0781 10.8712 13.0959 8.29719 14.634 6.27562C16.1721 4.25404 18.6481 3.55039 20.1642 4.70397C21.6804 5.85755 19.3629 7.66495 17.8248 9.68653Z" fill="url(#paint0_linear_6247_28474)"/>
</g>
</g>
<path d="M8 0H40H8ZM40 20C40 28.8366 32.8366 36 24 36C15.1634 36 8 28.8366 8 20V16C8 22.6274 15.1634 28 24 28C32.8366 28 40 22.6274 40 16V20ZM8 32V0V32ZM40 0V32V0Z" fill="black" fill-opacity="0.05" mask="url(#path-3-inside-2_6247_28474)"/>
</g>
<defs>
<filter id="filter0_dd_6247_28474" x="0" y="0" width="48" height="48" filterUnits="userSpaceOnUse" color-interpolation-filters="sRGB">
<feFlood flood-opacity="0" result="BackgroundImageFix"/>
<feColorMatrix in="SourceAlpha" type="matrix" values="0 0 0 0 0 0 0 0 0 0 0 0 0 0 0 0 0 0 127 0" result="hardAlpha"/>
<feOffset dy="8"/>
<feGaussianBlur stdDeviation="4"/>
<feComposite in2="hardAlpha" operator="out"/>
<feColorMatrix type="matrix" values="0 0 0 0 0 0 0 0 0 0 0 0 0 0 0 0 0 0 0.05 0"/>
<feBlend mode="normal" in2="BackgroundImageFix" result="effect1_dropShadow_6247_28474"/>
<feColorMatrix in="SourceAlpha" type="matrix" values="0 0 0 0 0 0 0 0 0 0 0 0 0 0 0 0 0 0 127 0" result="hardAlpha"/>
<feOffset dy="4"/>
<feGaussianBlur stdDeviation="2"/>
<feComposite in2="hardAlpha" operator="out"/>
<feColorMatrix type="matrix" values="0 0 0 0 0 0 0 0 0 0 0 0 0 0 0 0 0 0 0.15 0"/>
<feBlend mode="normal" in2="effect1_dropShadow_6247_28474" result="effect2_dropShadow_6247_28474"/>
<feBlend mode="normal" in="SourceGraphic" in2="effect2_dropShadow_6247_28474" result="shape"/>
</filter>
<filter id="filter1_df_6247_28474" x="-18.5312" y="-19.8516" width="71.1895" height="72.2812" filterUnits="userSpaceOnUse" color-interpolation-filters="sRGB">
<feFlood flood-opacity="0" result="BackgroundImageFix"/>
<feColorMatrix in="SourceAlpha" type="matrix" values="0 0 0 0 0 0 0 0 0 0 0 0 0 0 0 0 0 0 127 0" result="hardAlpha"/>
<feOffset dy="8"/>
<feGaussianBlur stdDeviation="16"/>
<feComposite in2="hardAlpha" operator="out"/>
<feColorMatrix type="matrix" values="0 0 0 0 1 0 0 0 0 1 0 0 0 0 1 0 0 0 0.5 0"/>
<feBlend mode="normal" in2="BackgroundImageFix" result="effect1_dropShadow_6247_28474"/>
<feBlend mode="normal" in="SourceGraphic" in2="effect1_dropShadow_6247_28474" result="shape"/>
<feGaussianBlur stdDeviation="2" result="effect2_foregroundBlur_6247_28474"/>
</filter>
<linearGradient id="paint0_linear_6247_28474" x1="16.5242" y1="7.71378" x2="13.7392" y2="11.3742" gradientUnits="userSpaceOnUse">
<stop stop-color="white"/>
</linearGradient>
<clipPath id="clip0_6247_28474">
<path d="M8 16C8 7.16344 15.1634 0 24 0C32.8366 0 40 7.16344 40 16C40 24.8366 32.8366 32 24 32C15.1634 32 8 24.8366 8 16Z" fill="white"/>
</clipPath>
</defs>
</svg>
