<svg width="15" height="15" viewBox="0 0 15 15" fill="none" xmlns="http://www.w3.org/2000/svg">
<path d="M4.16634 10.833H10.833V9.49967H4.16634V10.833ZM7.49967 8.83301L10.1663 6.16634L9.23301 5.23301L8.16634 6.26634V3.49967H6.83301V6.26634L5.76634 5.23301L4.83301 6.16634L7.49967 8.83301ZM7.49967 14.1663C6.57745 14.1663 5.71079 13.9913 4.89967 13.6413C4.08856 13.2913 3.38301 12.8163 2.78301 12.2163C2.18301 11.6163 1.70801 10.9108 1.35801 10.0997C1.00801 9.28856 0.833008 8.4219 0.833008 7.49967C0.833008 6.57745 1.00801 5.71079 1.35801 4.89967C1.70801 4.08856 2.18301 3.38301 2.78301 2.78301C3.38301 2.18301 4.08856 1.70801 4.89967 1.35801C5.71079 1.00801 6.57745 0.833008 7.49967 0.833008C8.4219 0.833008 9.28856 1.00801 10.0997 1.35801C10.9108 1.70801 11.6163 2.18301 12.2163 2.78301C12.8163 3.38301 13.2913 4.08856 13.6413 4.89967C13.9913 5.71079 14.1663 6.57745 14.1663 7.49967C14.1663 8.4219 13.9913 9.28856 13.6413 10.0997C13.2913 10.9108 12.8163 11.6163 12.2163 12.2163C11.6163 12.8163 10.9108 13.2913 10.0997 13.6413C9.28856 13.9913 8.4219 14.1663 7.49967 14.1663ZM7.49967 12.833C8.98856 12.833 10.2497 12.3163 11.283 11.283C12.3163 10.2497 12.833 8.98856 12.833 7.49967C12.833 6.01079 12.3163 4.74967 11.283 3.71634C10.2497 2.68301 8.98856 2.16634 7.49967 2.16634C6.01079 2.16634 4.74967 2.68301 3.71634 3.71634C2.68301 4.74967 2.16634 6.01079 2.16634 7.49967C2.16634 8.98856 2.68301 10.2497 3.71634 11.283C4.74967 12.3163 6.01079 12.833 7.49967 12.833Z" fill="#333333"/>
</svg>
