<svg width="15" height="15" viewBox="0 0 15 15" fill="none" xmlns="http://www.w3.org/2000/svg">
<path d="M6.81628 14.133C5.97183 14.0441 5.18572 13.808 4.45794 13.4247C3.73017 13.0413 3.09961 12.5525 2.56628 11.958C2.03294 11.3636 1.6135 10.683 1.30794 9.91634C1.00239 9.14967 0.849609 8.33856 0.849609 7.48301C0.849609 5.76079 1.41905 4.26912 2.55794 3.00801C3.69683 1.7469 5.12183 1.0219 6.83294 0.833008V2.16634C5.4885 2.35523 4.37739 2.95245 3.49961 3.95801C2.62183 4.96356 2.18294 6.13856 2.18294 7.48301C2.18294 8.82745 2.62183 10.0025 3.49961 11.008C4.37739 12.0136 5.48294 12.6108 6.81628 12.7997V14.133ZM7.48294 10.833L4.13294 7.46634L5.08294 6.51634L6.81628 8.24967V4.16634H8.14961V8.24967L9.86628 6.53301L10.8163 7.49967L7.48294 10.833ZM8.14961 14.133V12.7997C8.62739 12.733 9.08572 12.6052 9.52461 12.4163C9.9635 12.2275 10.3718 11.9886 10.7496 11.6997L11.7163 12.6663C11.1941 13.0775 10.6329 13.408 10.0329 13.658C9.43294 13.908 8.80517 14.0663 8.14961 14.133ZM10.7829 3.26634C10.3941 2.97745 9.98017 2.73856 9.54128 2.54967C9.10239 2.36079 8.64405 2.23301 8.16628 2.16634V0.833008C8.82183 0.899674 9.44961 1.05801 10.0496 1.30801C10.6496 1.55801 11.2052 1.88856 11.7163 2.29967L10.7829 3.26634ZM12.6496 11.6997L11.7163 10.7497C12.0052 10.3719 12.2385 9.96356 12.4163 9.52467C12.5941 9.08579 12.7163 8.62745 12.7829 8.14967H14.1496C14.0607 8.80523 13.8941 9.43579 13.6496 10.0413C13.4052 10.6469 13.0718 11.1997 12.6496 11.6997ZM12.7829 6.81634C12.7163 6.33856 12.5941 5.88023 12.4163 5.44134C12.2385 5.00245 12.0052 4.59412 11.7163 4.21634L12.6496 3.26634C13.0718 3.76634 13.4107 4.31912 13.6663 4.92467C13.9218 5.53023 14.0829 6.16079 14.1496 6.81634H12.7829Z" fill="#333333"/>
</svg>
