<svg width="20" height="20" viewBox="0 0 20 20" fill="none" xmlns="http://www.w3.org/2000/svg">
<path d="M11.5976 18.1838H5.86124C5.54765 18.1838 5.2876 17.9238 5.2876 17.6102C5.2876 17.2966 5.54765 17.0366 5.86124 17.0366H11.5976C14.4505 17.0366 16.7604 14.7267 16.7604 11.8738C16.7604 9.0209 14.4505 6.71104 11.5976 6.71104H3.87262L6.41958 8.74555C6.66434 8.94441 6.71022 9.30389 6.51136 9.54864C6.3125 9.7934 5.95302 9.83929 5.70826 9.64043L1.884 6.58102C1.59335 6.35156 1.59335 5.9156 1.884 5.68614L5.70826 2.62673C5.95302 2.42787 6.32015 2.4661 6.51136 2.71851C6.71022 2.96326 6.67199 3.33039 6.41958 3.5216L3.87262 5.55611H11.5976C15.0854 5.55611 17.9077 8.37842 17.9077 11.8662C17.9077 15.3539 15.0854 18.1762 11.5976 18.1762V18.1838Z" fill="url(#paint0_linear_6700_34892)" stroke="url(#paint1_linear_6700_34892)"/>
<defs>
<linearGradient id="paint0_linear_6700_34892" x1="9.78685" y1="10.3419" x2="9.78685" y2="2.49989" gradientUnits="userSpaceOnUse">
<stop stop-color="white"/>
</linearGradient>
<linearGradient id="paint1_linear_6700_34892" x1="9.78685" y1="10.3419" x2="9.78685" y2="2.49989" gradientUnits="userSpaceOnUse">
<stop stop-color="white"/>
</linearGradient>
</defs>
</svg>
