<svg width="40" height="40" viewBox="0 0 40 40" fill="none" xmlns="http://www.w3.org/2000/svg">
<g clip-path="url(#clip0_9547_88340)">
<g filter="url(#filter0_dd_9547_88340)">
<mask id="path-2-inside-1_9547_88340" fill="white">
<path d="M0 20C0 8.95431 8.95431 0 20 0C31.0457 0 40 8.95431 40 20C40 31.0457 31.0457 40 20 40C8.95431 40 0 31.0457 0 20Z"/>
</mask>
<path d="M0 20C0 8.95431 8.95431 0 20 0C31.0457 0 40 8.95431 40 20C40 31.0457 31.0457 40 20 40C8.95431 40 0 31.0457 0 20Z" fill="#1762F3" shape-rendering="crispEdges"/>
<path d="M0 0H40H0ZM40 22C40 33.0457 31.0457 42 20 42C8.9543 42 0 33.0457 0 22V20C0 29.9411 8.9543 38 20 38C31.0457 38 40 29.9411 40 20V22ZM0 40V0V40ZM40 0V40V0Z" fill="#6F86F6" mask="url(#path-2-inside-1_9547_88340)"/>
<g clip-path="url(#clip1_9547_88340)">
<mask id="path-4-inside-2_9547_88340" fill="white">
<path d="M0 20C0 8.95431 8.95431 0 20 0C31.0457 0 40 8.95431 40 20C40 31.0457 31.0457 40 20 40C8.95431 40 0 31.0457 0 20Z"/>
</mask>
<g clip-path="url(#clip2_9547_88340)">
<g filter="url(#filter1_dd_9547_88340)">
<path d="M26.426 17.6753C26.1447 17.6753 25.8835 17.7594 25.6647 17.9016C25.6056 17.2019 25.0153 16.6483 24.2897 16.6483C23.9736 16.6483 23.6853 16.7571 23.4517 16.9332C23.2578 16.4092 22.7516 16.032 22.1532 16.032C21.8766 16.032 21.62 16.1142 21.4035 16.2521V14.492C21.4035 13.739 20.7816 13.1263 20.0169 13.1263C19.2523 13.1263 18.6304 13.739 18.6304 14.492V20.27L17.8129 19.6255C17.5467 19.4155 17.2131 19.3219 16.8757 19.3596C16.5355 19.398 16.2323 19.5655 16.0215 19.8307C15.6891 20.249 15.6624 20.83 15.9547 21.2763L19.2725 26.3402C19.3521 26.4621 19.3944 26.6036 19.3944 26.7491V27.8159C19.3944 27.9868 19.5368 28.125 19.7128 28.125C19.8888 28.125 20.0312 27.9868 20.0312 27.8159V26.7491C20.0312 26.4859 19.9548 26.23 19.8098 26.0088L16.492 20.945C16.343 20.7174 16.3564 20.4213 16.5259 20.2083C16.631 20.0758 16.7815 19.9925 16.9494 19.9735C17.1167 19.9551 17.2803 20.0018 17.4112 20.1054L18.6304 21.0666V21.7704C18.6304 21.9412 18.7728 22.0794 18.9488 22.0794C19.1248 22.0794 19.2672 21.9412 19.2672 21.7704V14.492C19.2672 14.0797 19.6037 13.7444 20.0169 13.7444C20.4302 13.7444 20.7666 14.0797 20.7666 14.492V17.3974V20.3616C20.7666 20.5324 20.9091 20.6706 21.0851 20.6706C21.2611 20.6706 21.4035 20.5324 21.4035 20.3616V17.3974C21.4035 16.9854 21.7399 16.6501 22.1532 16.6501C22.5664 16.6501 22.9029 16.9854 22.9029 17.3974V18.0139V20.7138C22.9029 20.8846 23.0453 21.0228 23.2213 21.0228C23.3973 21.0228 23.5397 20.8846 23.5397 20.7138V18.0139C23.5397 17.6017 23.8762 17.2664 24.2897 17.2664C24.703 17.2664 25.0394 17.6017 25.0394 18.0139V19.0409V21.066C25.0394 21.2368 25.1818 21.375 25.3579 21.375C25.5338 21.375 25.6763 21.2368 25.6763 21.066V19.0409C25.6763 18.6287 26.0127 18.2934 26.426 18.2934C26.8392 18.2934 27.1757 18.6287 27.1757 19.0409V22.5303C27.1757 23.2854 26.9736 24.0299 26.5914 24.683L25.9592 25.7634C25.7214 26.17 25.5957 26.6326 25.5957 27.1016V27.8159C25.5957 27.9868 25.7381 28.125 25.9141 28.125C26.0901 28.125 26.2325 27.9868 26.2325 27.8159V27.1016C26.2325 26.7395 26.3296 26.3821 26.5127 26.0689L27.1449 24.9884C27.5818 24.2424 27.8125 23.3922 27.8125 22.5303V19.0409C27.8125 18.288 27.1906 17.6753 26.426 17.6753ZM15.8964 15.9113C15.7607 15.8042 15.563 15.8274 15.4555 15.9622L15.2643 16.2026V14.938H16.5502L16.3118 15.1302C16.177 15.2388 16.1562 15.4355 16.2652 15.5694C16.3274 15.6456 16.4178 15.6853 16.5094 15.6853C16.5787 15.6853 16.6485 15.6624 16.7064 15.6157L17.5737 14.9167C17.6635 14.8435 17.7147 14.7367 17.7137 14.6233C17.7128 14.5101 17.6601 14.404 17.5694 14.3323L16.6828 13.6333C16.5471 13.5262 16.3495 13.5494 16.242 13.6842C16.1344 13.8196 16.1574 14.016 16.2931 14.1231L16.5346 14.3134H15.2643V13.0331L15.4577 13.2706C15.567 13.4039 15.7637 13.425 15.8991 13.3167C16.0336 13.2081 16.0545 13.0114 15.9454 12.8772L15.2429 12.0144C15.17 11.9256 15.064 11.875 14.9512 11.875C14.95 11.875 14.9491 11.875 14.9482 11.875C14.8345 11.8759 14.7279 11.9284 14.6559 12.0187L13.9537 12.901C13.8462 13.0361 13.8691 13.2325 14.0049 13.3399C14.0625 13.3853 14.1314 13.4073 14.1994 13.4073C14.2919 13.4073 14.3838 13.3667 14.4457 13.2889L14.6369 13.0487V14.3134H13.3508L13.5894 14.121C13.7239 14.0124 13.7448 13.8157 13.6357 13.6815C13.5266 13.5482 13.3296 13.5268 13.1942 13.6354L12.329 14.3335C12.2387 14.4061 12.1872 14.5126 12.1875 14.626C12.1878 14.7392 12.2399 14.8459 12.3318 14.9191L13.2184 15.6179C13.2763 15.6633 13.345 15.6853 13.413 15.6853C13.5055 15.6853 13.5974 15.6447 13.6593 15.5669C13.7668 15.4315 13.7438 15.2351 13.6081 15.128L13.3669 14.938H14.6369V16.2182L14.4436 15.9805C14.3345 15.8472 14.1372 15.8262 14.0021 15.9344C13.8676 16.043 13.8468 16.2397 13.9558 16.3739L14.6583 17.2371C14.731 17.3258 14.8373 17.3765 14.95 17.3765H14.9518C15.0655 17.3758 15.1718 17.324 15.2453 17.2328L15.9475 16.3502C16.0551 16.2147 16.0321 16.0183 15.8964 15.9113Z" fill="#333333"/>
<path d="M26.426 17.6753C26.1447 17.6753 25.8835 17.7594 25.6647 17.9016C25.6056 17.2019 25.0153 16.6483 24.2897 16.6483C23.9736 16.6483 23.6853 16.7571 23.4517 16.9332C23.2578 16.4092 22.7516 16.032 22.1532 16.032C21.8766 16.032 21.62 16.1142 21.4035 16.2521V14.492C21.4035 13.739 20.7816 13.1263 20.0169 13.1263C19.2523 13.1263 18.6304 13.739 18.6304 14.492V20.27L17.8129 19.6255C17.5467 19.4155 17.2131 19.3219 16.8757 19.3596C16.5355 19.398 16.2323 19.5655 16.0215 19.8307C15.6891 20.249 15.6624 20.83 15.9547 21.2763L19.2725 26.3402C19.3521 26.4621 19.3944 26.6036 19.3944 26.7491V27.8159C19.3944 27.9868 19.5368 28.125 19.7128 28.125C19.8888 28.125 20.0312 27.9868 20.0312 27.8159V26.7491C20.0312 26.4859 19.9548 26.23 19.8098 26.0088L16.492 20.945C16.343 20.7174 16.3564 20.4213 16.5259 20.2083C16.631 20.0758 16.7815 19.9925 16.9494 19.9735C17.1167 19.9551 17.2803 20.0018 17.4112 20.1054L18.6304 21.0666V21.7704C18.6304 21.9412 18.7728 22.0794 18.9488 22.0794C19.1248 22.0794 19.2672 21.9412 19.2672 21.7704V14.492C19.2672 14.0797 19.6037 13.7444 20.0169 13.7444C20.4302 13.7444 20.7666 14.0797 20.7666 14.492V17.3974V20.3616C20.7666 20.5324 20.9091 20.6706 21.0851 20.6706C21.2611 20.6706 21.4035 20.5324 21.4035 20.3616V17.3974C21.4035 16.9854 21.7399 16.6501 22.1532 16.6501C22.5664 16.6501 22.9029 16.9854 22.9029 17.3974V18.0139V20.7138C22.9029 20.8846 23.0453 21.0228 23.2213 21.0228C23.3973 21.0228 23.5397 20.8846 23.5397 20.7138V18.0139C23.5397 17.6017 23.8762 17.2664 24.2897 17.2664C24.703 17.2664 25.0394 17.6017 25.0394 18.0139V19.0409V21.066C25.0394 21.2368 25.1818 21.375 25.3579 21.375C25.5338 21.375 25.6763 21.2368 25.6763 21.066V19.0409C25.6763 18.6287 26.0127 18.2934 26.426 18.2934C26.8392 18.2934 27.1757 18.6287 27.1757 19.0409V22.5303C27.1757 23.2854 26.9736 24.0299 26.5914 24.683L25.9592 25.7634C25.7214 26.17 25.5957 26.6326 25.5957 27.1016V27.8159C25.5957 27.9868 25.7381 28.125 25.9141 28.125C26.0901 28.125 26.2325 27.9868 26.2325 27.8159V27.1016C26.2325 26.7395 26.3296 26.3821 26.5127 26.0689L27.1449 24.9884C27.5818 24.2424 27.8125 23.3922 27.8125 22.5303V19.0409C27.8125 18.288 27.1906 17.6753 26.426 17.6753ZM15.8964 15.9113C15.7607 15.8042 15.563 15.8274 15.4555 15.9622L15.2643 16.2026V14.938H16.5502L16.3118 15.1302C16.177 15.2388 16.1562 15.4355 16.2652 15.5694C16.3274 15.6456 16.4178 15.6853 16.5094 15.6853C16.5787 15.6853 16.6485 15.6624 16.7064 15.6157L17.5737 14.9167C17.6635 14.8435 17.7147 14.7367 17.7137 14.6233C17.7128 14.5101 17.6601 14.404 17.5694 14.3323L16.6828 13.6333C16.5471 13.5262 16.3495 13.5494 16.242 13.6842C16.1344 13.8196 16.1574 14.016 16.2931 14.1231L16.5346 14.3134H15.2643V13.0331L15.4577 13.2706C15.567 13.4039 15.7637 13.425 15.8991 13.3167C16.0336 13.2081 16.0545 13.0114 15.9454 12.8772L15.2429 12.0144C15.17 11.9256 15.064 11.875 14.9512 11.875C14.95 11.875 14.9491 11.875 14.9482 11.875C14.8345 11.8759 14.7279 11.9284 14.6559 12.0187L13.9537 12.901C13.8462 13.0361 13.8691 13.2325 14.0049 13.3399C14.0625 13.3853 14.1314 13.4073 14.1994 13.4073C14.2919 13.4073 14.3838 13.3667 14.4457 13.2889L14.6369 13.0487V14.3134H13.3508L13.5894 14.121C13.7239 14.0124 13.7448 13.8157 13.6357 13.6815C13.5266 13.5482 13.3296 13.5268 13.1942 13.6354L12.329 14.3335C12.2387 14.4061 12.1872 14.5126 12.1875 14.626C12.1878 14.7392 12.2399 14.8459 12.3318 14.9191L13.2184 15.6179C13.2763 15.6633 13.345 15.6853 13.413 15.6853C13.5055 15.6853 13.5974 15.6447 13.6593 15.5669C13.7668 15.4315 13.7438 15.2351 13.6081 15.128L13.3669 14.938H14.6369V16.2182L14.4436 15.9805C14.3345 15.8472 14.1372 15.8262 14.0021 15.9344C13.8676 16.043 13.8468 16.2397 13.9558 16.3739L14.6583 17.2371C14.731 17.3258 14.8373 17.3765 14.95 17.3765H14.9518C15.0655 17.3758 15.1718 17.324 15.2453 17.2328L15.9475 16.3502C16.0551 16.2147 16.0321 16.0183 15.8964 15.9113Z" stroke="url(#paint0_linear_9547_88340)" stroke-width="0.5"/>
</g>
</g>
<g filter="url(#filter2_df_9547_88340)">
<path d="M9.82483 9.68653C8.28673 11.7081 8.11044 13.1783 6.59426 12.0247C5.07808 10.8712 5.09586 8.29719 6.63396 6.27562C8.17207 4.25404 10.6481 3.55039 12.1642 4.70397C13.6804 5.85755 11.3629 7.66495 9.82483 9.68653Z" fill="url(#paint1_linear_9547_88340)"/>
</g>
</g>
<path d="M0 0H40H0ZM40 24C40 35.0457 31.0457 44 20 44C8.9543 44 0 35.0457 0 24V20C0 28.8366 8.9543 36 20 36C31.0457 36 40 28.8366 40 20V24ZM0 40V0V40ZM40 0V40V0Z" fill="black" fill-opacity="0.05" mask="url(#path-4-inside-2_9547_88340)"/>
</g>
</g>
<defs>
<filter id="filter0_dd_9547_88340" x="-8" y="0" width="56" height="56" filterUnits="userSpaceOnUse" color-interpolation-filters="sRGB">
<feFlood flood-opacity="0" result="BackgroundImageFix"/>
<feColorMatrix in="SourceAlpha" type="matrix" values="0 0 0 0 0 0 0 0 0 0 0 0 0 0 0 0 0 0 127 0" result="hardAlpha"/>
<feOffset dy="8"/>
<feGaussianBlur stdDeviation="4"/>
<feComposite in2="hardAlpha" operator="out"/>
<feColorMatrix type="matrix" values="0 0 0 0 0 0 0 0 0 0 0 0 0 0 0 0 0 0 0.05 0"/>
<feBlend mode="normal" in2="BackgroundImageFix" result="effect1_dropShadow_9547_88340"/>
<feColorMatrix in="SourceAlpha" type="matrix" values="0 0 0 0 0 0 0 0 0 0 0 0 0 0 0 0 0 0 127 0" result="hardAlpha"/>
<feOffset dy="4"/>
<feGaussianBlur stdDeviation="2"/>
<feComposite in2="hardAlpha" operator="out"/>
<feColorMatrix type="matrix" values="0 0 0 0 0 0 0 0 0 0 0 0 0 0 0 0 0 0 0.15 0"/>
<feBlend mode="normal" in2="effect1_dropShadow_9547_88340" result="effect2_dropShadow_9547_88340"/>
<feBlend mode="normal" in="SourceGraphic" in2="effect2_dropShadow_9547_88340" result="shape"/>
</filter>
<filter id="filter1_dd_9547_88340" x="3.9375" y="11.625" width="32.125" height="32.75" filterUnits="userSpaceOnUse" color-interpolation-filters="sRGB">
<feFlood flood-opacity="0" result="BackgroundImageFix"/>
<feColorMatrix in="SourceAlpha" type="matrix" values="0 0 0 0 0 0 0 0 0 0 0 0 0 0 0 0 0 0 127 0" result="hardAlpha"/>
<feOffset dy="8"/>
<feGaussianBlur stdDeviation="4"/>
<feComposite in2="hardAlpha" operator="out"/>
<feColorMatrix type="matrix" values="0 0 0 0 0 0 0 0 0 0 0 0 0 0 0 0 0 0 0.05 0"/>
<feBlend mode="normal" in2="BackgroundImageFix" result="effect1_dropShadow_9547_88340"/>
<feColorMatrix in="SourceAlpha" type="matrix" values="0 0 0 0 0 0 0 0 0 0 0 0 0 0 0 0 0 0 127 0" result="hardAlpha"/>
<feOffset dy="4"/>
<feGaussianBlur stdDeviation="2"/>
<feComposite in2="hardAlpha" operator="out"/>
<feColorMatrix type="matrix" values="0 0 0 0 0 0 0 0 0 0 0 0 0 0 0 0 0 0 0.15 0"/>
<feBlend mode="normal" in2="effect1_dropShadow_9547_88340" result="effect2_dropShadow_9547_88340"/>
<feBlend mode="normal" in="SourceGraphic" in2="effect2_dropShadow_9547_88340" result="shape"/>
</filter>
<filter id="filter2_df_9547_88340" x="-26.5312" y="-19.8506" width="71.1895" height="72.2812" filterUnits="userSpaceOnUse" color-interpolation-filters="sRGB">
<feFlood flood-opacity="0" result="BackgroundImageFix"/>
<feColorMatrix in="SourceAlpha" type="matrix" values="0 0 0 0 0 0 0 0 0 0 0 0 0 0 0 0 0 0 127 0" result="hardAlpha"/>
<feOffset dy="8"/>
<feGaussianBlur stdDeviation="16"/>
<feComposite in2="hardAlpha" operator="out"/>
<feColorMatrix type="matrix" values="0 0 0 0 1 0 0 0 0 1 0 0 0 0 1 0 0 0 0.5 0"/>
<feBlend mode="normal" in2="BackgroundImageFix" result="effect1_dropShadow_9547_88340"/>
<feBlend mode="normal" in="SourceGraphic" in2="effect1_dropShadow_9547_88340" result="shape"/>
<feGaussianBlur stdDeviation="2" result="effect2_foregroundBlur_9547_88340"/>
</filter>
<linearGradient id="paint0_linear_9547_88340" x1="20" y1="20" x2="20" y2="28.125" gradientUnits="userSpaceOnUse">
<stop stop-color="white"/>
</linearGradient>
<linearGradient id="paint1_linear_9547_88340" x1="8.52418" y1="7.71378" x2="5.7392" y2="11.3742" gradientUnits="userSpaceOnUse">
<stop stop-color="white"/>
</linearGradient>
<clipPath id="clip0_9547_88340">
<rect width="40" height="40" rx="20" fill="white"/>
</clipPath>
<clipPath id="clip1_9547_88340">
<path d="M0 20C0 8.95431 8.95431 0 20 0C31.0457 0 40 8.95431 40 20C40 31.0457 31.0457 40 20 40C8.95431 40 0 31.0457 0 20Z" fill="white"/>
</clipPath>
<clipPath id="clip2_9547_88340">
<rect width="20" height="20" fill="white" transform="translate(10 10)"/>
</clipPath>
</defs>
</svg>
