<svg width="16" height="16" viewBox="0 0 16 16" fill="none" xmlns="http://www.w3.org/2000/svg">
<g id="icon-24/calendar-check">
<path id="Vector" d="M7.3 12.2334L4.93333 9.86671L5.9 8.90004L7.3 10.3L10.1 7.50004L11.0667 8.46671L7.3 12.2334ZM3.33333 14.6667C2.96667 14.6667 2.65278 14.5362 2.39167 14.275C2.13056 14.0139 2 13.7 2 13.3334V4.00004C2 3.63337 2.13056 3.31949 2.39167 3.05837C2.65278 2.79726 2.96667 2.66671 3.33333 2.66671H4V1.33337H5.33333V2.66671H10.6667V1.33337H12V2.66671H12.6667C13.0333 2.66671 13.3472 2.79726 13.6083 3.05837C13.8694 3.31949 14 3.63337 14 4.00004V13.3334C14 13.7 13.8694 14.0139 13.6083 14.275C13.3472 14.5362 13.0333 14.6667 12.6667 14.6667H3.33333ZM3.33333 13.3334H12.6667V6.66671H3.33333V13.3334ZM3.33333 5.33337H12.6667V4.00004H3.33333V5.33337Z" fill="#333333"/>
</g>
</svg>
