<svg width="21" height="20" viewBox="0 0 21 20" fill="white" xmlns="http://www.w3.org/2000/svg">
<g id="icon-24/camera">
<path id="Vector" d="M16.3337 5.41664H15.267L15.0003 4.58331C14.8275 4.09434 14.5068 3.67123 14.0827 3.37261C13.6587 3.07399 13.1523 2.91465 12.6337 2.91664H8.36699C7.84328 2.91762 7.3331 3.08305 6.90846 3.38957C6.48382 3.69608 6.16617 4.12822 6.00033 4.62498L5.73366 5.45831H4.66699C4.00395 5.45831 3.36807 5.7217 2.89923 6.19054C2.43038 6.65939 2.16699 7.29527 2.16699 7.95831V14.625C2.16699 15.288 2.43038 15.9239 2.89923 16.3927C3.36807 16.8616 4.00395 17.125 4.66699 17.125H16.3337C16.9967 17.125 17.6326 16.8616 18.1014 16.3927C18.5703 15.9239 18.8337 15.288 18.8337 14.625V7.95831C18.8392 7.62652 18.7786 7.29694 18.6555 6.9888C18.5323 6.68066 18.349 6.40013 18.1163 6.16355C17.8836 5.92697 17.6062 5.73909 17.3001 5.61085C16.994 5.48262 16.6655 5.4166 16.3337 5.41664ZM17.167 14.5833C17.167 14.8043 17.0792 15.0163 16.9229 15.1726C16.7666 15.3288 16.5547 15.4166 16.3337 15.4166H4.66699C4.44598 15.4166 4.23402 15.3288 4.07774 15.1726C3.92146 15.0163 3.83366 14.8043 3.83366 14.5833V7.91664C3.83366 7.69563 3.92146 7.48367 4.07774 7.32739C4.23402 7.17111 4.44598 7.08331 4.66699 7.08331H6.33366C6.51538 7.0928 6.69521 7.04254 6.84569 6.94022C6.99616 6.83789 7.10901 6.68913 7.16699 6.51664L7.61699 5.14998C7.6729 4.98446 7.77941 4.8407 7.92147 4.73901C8.06353 4.63733 8.23396 4.58286 8.40866 4.58331H12.6753C12.85 4.58286 13.0205 4.63733 13.1625 4.73901C13.3046 4.8407 13.4111 4.98446 13.467 5.14998L13.917 6.51664C13.9705 6.6756 14.0707 6.81472 14.2045 6.91582C14.3383 7.01692 14.4995 7.07529 14.667 7.08331H16.3337C16.5547 7.08331 16.7666 7.17111 16.9229 7.32739C17.0792 7.48367 17.167 7.69563 17.167 7.91664V14.5833ZM10.5003 7.08331C9.84105 7.08331 9.19659 7.27881 8.64842 7.64508C8.10026 8.01135 7.67302 8.53195 7.42073 9.14103C7.16843 9.75012 7.10242 10.4203 7.23104 11.0669C7.35966 11.7135 7.67713 12.3075 8.1433 12.7737C8.60948 13.2398 9.20342 13.5573 9.85002 13.6859C10.4966 13.8145 11.1668 13.7485 11.7759 13.4962C12.385 13.244 12.9056 12.8167 13.2719 12.2685C13.6382 11.7204 13.8337 11.0759 13.8337 10.4166C13.8337 9.53259 13.4825 8.68474 12.8573 8.05962C12.2322 7.4345 11.3844 7.08331 10.5003 7.08331ZM10.5003 12.0833C10.1707 12.0833 9.84846 11.9856 9.57438 11.8024C9.30029 11.6193 9.08667 11.359 8.96053 11.0545C8.83438 10.7499 8.80137 10.4148 8.86568 10.0915C8.92999 9.76819 9.08873 9.47122 9.32181 9.23813C9.5549 9.00505 9.85187 8.84631 10.1752 8.782C10.4985 8.71769 10.8336 8.7507 11.1381 8.87685C11.4427 9.00299 11.703 9.21661 11.8861 9.49069C12.0692 9.76478 12.167 10.087 12.167 10.4166C12.167 10.8587 11.9914 11.2826 11.6788 11.5952C11.3663 11.9077 10.9424 12.0833 10.5003 12.0833Z" />
</g>
</svg>
