<svg width="24" height="24" viewBox="0 0 24 24" fill="none" xmlns="http://www.w3.org/2000/svg">
<path d="M8.01448 6C5.23173 6 3.46905 7.97038 2.79214 10.2039L2.70146 10.5031H0.749643C0.33563 10.5031 0 10.8383 0 11.2518C0 12.2781 0.284175 13.2403 0.782598 13.9666C0.957984 14.2222 1.16659 14.4564 1.40425 14.6524L0.95692 15.7376C0.611889 16.5744 1.0116 17.5321 1.84959 17.8766C2.04776 17.9581 2.25996 18 2.47426 18H4.08311C4.71875 18 5.29723 17.6335 5.56787 17.0591L6.02293 16.0932C7.38989 16.2691 8.77197 16.2688 10.1389 16.0924L10.5943 17.0591C10.8649 17.6335 11.4434 18 12.079 18H13.6719C13.8864 18 14.099 17.9581 14.2974 17.8763C15.1352 17.5313 15.5344 16.5735 15.1888 15.7368L14.8861 15.0033H16.3329C17.2588 15.0033 18 14.2181 18 13.3084V12.3805C18 10.9719 16.9004 9.75997 15.4659 9.75997H13.2709C12.4717 7.68596 10.5831 6 8.01448 6ZM14.3786 13.506L13.7282 11.2573H15.4659C16.0025 11.2573 16.5007 11.7272 16.5007 12.3805V13.3084C16.5007 13.3584 16.48 13.4109 16.4392 13.4527C16.398 13.495 16.3571 13.506 16.3329 13.506H14.3786ZM13.3967 15.3238L13.8027 16.3074C13.8326 16.3796 13.7982 16.4623 13.7258 16.4921C13.7087 16.4991 13.6904 16.5027 13.6719 16.5027H12.079C12.0241 16.5027 11.9743 16.4711 11.9509 16.4215L11.6675 15.8201C12.2496 15.6872 12.8269 15.5219 13.3967 15.3238ZM4.49411 15.8213L4.21126 16.4215C4.18791 16.4711 4.138 16.5027 4.08311 16.5027H2.47426C2.45576 16.5027 2.43744 16.4991 2.42033 16.4921C2.34799 16.4623 2.31355 16.3798 2.34329 16.3076L2.7504 15.3201C3.32498 15.5204 3.90705 15.6874 4.49411 15.8213ZM2.24767 12.0005L1.9439 13.0028C1.7785 12.7281 1.64661 12.3874 1.57068 12.0005H2.24767ZM4.22713 10.6377C4.7767 8.82434 6.08986 7.49732 8.01448 7.49732C9.97069 7.49732 11.4475 8.86016 11.9872 10.6331L12.9318 13.8999C9.78187 15.0018 6.38723 15.0037 3.23727 13.9039L4.22713 10.6377Z" fill="#333333"/>
<path d="M18 8.70417L19.1366 7.47917C19.6564 8.05278 20.0683 8.72604 20.3722 9.49896C20.6762 10.2719 20.8282 11.1056 20.8282 12C20.8282 12.8944 20.674 13.7281 20.3656 14.501C20.0573 15.274 19.6388 15.9472 19.1101 16.5208L18 15.2958C18.3877 14.8681 18.6916 14.3722 18.9119 13.8083C19.1322 13.2444 19.2423 12.6417 19.2423 12C19.2423 11.3583 19.1322 10.7556 18.9119 10.1917C18.6916 9.62778 18.3877 9.13194 18 8.70417ZM20.2467 6.225L21.3568 5C22.185 5.89444 22.8326 6.93958 23.2996 8.13542C23.7665 9.33125 24 10.6194 24 12C24 13.3806 23.7665 14.6687 23.2996 15.8646C22.8326 17.0604 22.185 18.1056 21.3568 19L20.2467 17.775C20.9251 17.0264 21.4559 16.1587 21.8392 15.1719C22.2225 14.1851 22.4141 13.1278 22.4141 12C22.4141 10.8722 22.2225 9.81493 21.8392 8.82812C21.4559 7.84132 20.9251 6.97361 20.2467 6.225Z" fill="#333333"/>
</svg>
