<svg width="20" height="20" viewBox="0 0 20 20" fill="none" xmlns="http://www.w3.org/2000/svg">
<path d="M9.65 16.156C8.43667 16.156 7.37733 15.9087 6.472 15.414C5.56667 14.9193 4.86667 14.224 4.372 13.328C3.88667 12.4227 3.644 11.3867 3.644 10.22C3.644 8.96933 3.90533 7.87733 4.428 6.944C4.95067 6.01067 5.66933 5.29667 6.584 4.802C7.49867 4.298 8.52533 4.046 9.664 4.046C10.868 4.046 11.8993 4.284 12.758 4.76C13.6167 5.236 14.2653 5.87067 14.704 6.664C15.1427 7.448 15.362 8.29267 15.362 9.198C15.362 10.0847 15.2267 10.822 14.956 11.41C14.6947 11.9887 14.3493 12.418 13.92 12.698C13.4907 12.9687 13.024 13.104 12.52 13.104C12.0253 13.104 11.6333 12.9967 11.344 12.782C11.0547 12.5673 10.8867 12.2687 10.84 11.886H10.812C10.308 12.698 9.61267 13.104 8.726 13.104C8.09133 13.104 7.578 12.8847 7.186 12.446C6.80333 12.0073 6.612 11.4053 6.612 10.64C6.612 9.996 6.73333 9.39867 6.976 8.848C7.228 8.288 7.578 7.84467 8.026 7.518C8.474 7.182 8.98733 7.014 9.566 7.014C9.99533 7.014 10.3687 7.112 10.686 7.308C11.0033 7.504 11.2133 7.76067 11.316 8.078H11.344L11.428 7.588C11.4467 7.45733 11.5027 7.35467 11.596 7.28C11.6987 7.20533 11.8247 7.168 11.974 7.168C12.1327 7.168 12.254 7.21 12.338 7.294C12.4313 7.378 12.478 7.49467 12.478 7.644C12.478 7.70933 12.4733 7.76067 12.464 7.798L11.932 10.822C11.8947 11.102 11.876 11.2793 11.876 11.354C11.876 11.662 11.9413 11.886 12.072 12.026C12.212 12.1567 12.4267 12.222 12.716 12.222C12.9587 12.222 13.2013 12.124 13.444 11.928C13.696 11.7227 13.906 11.396 14.074 10.948C14.242 10.4907 14.326 9.90733 14.326 9.198C14.326 8.45133 14.1487 7.76067 13.794 7.126C13.4487 6.49133 12.926 5.98267 12.226 5.6C11.526 5.208 10.672 5.012 9.664 5.012C8.72133 5.012 7.87667 5.222 7.13 5.642C6.38333 6.05267 5.79533 6.65467 5.366 7.448C4.946 8.232 4.736 9.156 4.736 10.22C4.736 11.2187 4.932 12.0913 5.324 12.838C5.716 13.5847 6.28067 14.1587 7.018 14.56C7.76467 14.9707 8.642 15.176 9.65 15.176C10.9753 15.176 12.0393 14.826 12.842 14.126C12.982 14.014 13.1173 13.958 13.248 13.958C13.388 13.958 13.5 14.0047 13.584 14.098C13.6773 14.2007 13.724 14.322 13.724 14.462C13.724 14.63 13.6493 14.7747 13.5 14.896C13.0987 15.2787 12.562 15.582 11.89 15.806C11.218 16.0393 10.4713 16.156 9.65 16.156ZM8.964 12.222C9.40267 12.222 9.78067 12.0913 10.098 11.83C10.4153 11.5593 10.6533 11.2093 10.812 10.78C10.98 10.3507 11.064 9.90267 11.064 9.436C11.064 8.94133 10.9427 8.56333 10.7 8.302C10.4667 8.04067 10.1447 7.91 9.734 7.91C9.314 7.91 8.95 8.04067 8.642 8.302C8.334 8.56333 8.10067 8.904 7.942 9.324C7.78333 9.73467 7.704 10.164 7.704 10.612C7.704 11.1253 7.82067 11.522 8.054 11.802C8.28733 12.082 8.59067 12.222 8.964 12.222Z" fill="currentColor"/>
</svg>
