<svg width="20" height="20" viewBox="0 0 20 20" fill="none" xmlns="http://www.w3.org/2000/svg">
<path d="M7.5 15.8332C7.22222 15.8332 6.96181 15.7707 6.71875 15.6457C6.47569 15.5207 6.27778 15.3471 6.125 15.1248L2.5 9.99984L6.125 4.87484C6.27778 4.65261 6.47569 4.479 6.71875 4.354C6.96181 4.229 7.22222 4.1665 7.5 4.1665H15.8333C16.2917 4.1665 16.684 4.3297 17.0104 4.65609C17.3368 4.98248 17.5 5.37484 17.5 5.83317V14.1665C17.5 14.6248 17.3368 15.0172 17.0104 15.3436C16.684 15.67 16.2917 15.8332 15.8333 15.8332H7.5ZM7.5 14.1665H15.8333V5.83317H7.5L4.54167 9.99984L7.5 14.1665ZM9.5 13.3332L11.6667 11.1665L13.8333 13.3332L15 12.1665L12.8333 9.99984L15 7.83317L13.8333 6.6665L11.6667 8.83317L9.5 6.6665L8.33333 7.83317L10.5 9.99984L8.33333 12.1665L9.5 13.3332Z" fill="#333333"/>
</svg>
