<svg width="20" height="19" viewBox="0 0 20 19" fill="none" xmlns="http://www.w3.org/2000/svg">
<path d="M1.66797 2.5H6.66797C7.55202 2.5 8.39987 2.85119 9.02499 3.47631C9.65011 4.10143 10.0013 4.94928 10.0013 5.83333V17.5C10.0013 16.837 9.73791 16.2011 9.26907 15.7322C8.80023 15.2634 8.16434 15 7.5013 15H1.66797V2.5Z" stroke="#525252" stroke-width="1.5" stroke-linecap="round" stroke-linejoin="round"/>
<path d="M18.3343 2.5H13.3343C12.4503 2.5 11.6024 2.85119 10.9773 3.47631C10.3522 4.10143 10.001 4.94928 10.001 5.83333V17.5C10.001 16.837 10.2644 16.2011 10.7332 15.7322C11.2021 15.2634 11.8379 15 12.501 15H18.3343V2.5Z" stroke="#525252" stroke-width="1.5" stroke-linecap="round" stroke-linejoin="round"/>
</svg>
