<svg width="20" height="20" viewBox="0 0 20 20" fill="none" xmlns="http://www.w3.org/2000/svg">
<path d="M10.0002 12.5002C10.8842 12.5002 11.7321 12.149 12.3572 11.5239C12.9823 10.8987 13.3335 10.0509 13.3335 9.16683V4.16683C13.3335 3.28277 12.9823 2.43493 12.3572 1.80981C11.7321 1.18469 10.8842 0.833496 10.0002 0.833496C9.11611 0.833496 8.26826 1.18469 7.64314 1.80981C7.01802 2.43493 6.66683 3.28277 6.66683 4.16683V9.16683C6.66683 10.0509 7.01802 10.8987 7.64314 11.5239C8.26826 12.149 9.11611 12.5002 10.0002 12.5002ZM8.3335 4.16683C8.3335 3.7248 8.50909 3.30088 8.82165 2.98832C9.13421 2.67576 9.55814 2.50016 10.0002 2.50016C10.4422 2.50016 10.8661 2.67576 11.1787 2.98832C11.4912 3.30088 11.6668 3.7248 11.6668 4.16683V9.16683C11.6668 9.60886 11.4912 10.0328 11.1787 10.3453C10.8661 10.6579 10.4422 10.8335 10.0002 10.8335C9.55814 10.8335 9.13421 10.6579 8.82165 10.3453C8.50909 10.0328 8.3335 9.60886 8.3335 9.16683V4.16683ZM16.6668 9.16683C16.6668 8.94582 16.579 8.73385 16.4228 8.57757C16.2665 8.42129 16.0545 8.3335 15.8335 8.3335C15.6125 8.3335 15.4005 8.42129 15.2442 8.57757C15.088 8.73385 15.0002 8.94582 15.0002 9.16683C15.0002 10.4929 14.4734 11.7647 13.5357 12.7024C12.598 13.64 11.3262 14.1668 10.0002 14.1668C8.67408 14.1668 7.40231 13.64 6.46463 12.7024C5.52695 11.7647 5.00016 10.4929 5.00016 9.16683C5.00016 8.94582 4.91237 8.73385 4.75608 8.57757C4.5998 8.42129 4.38784 8.3335 4.16683 8.3335C3.94582 8.3335 3.73385 8.42129 3.57757 8.57757C3.42129 8.73385 3.3335 8.94582 3.3335 9.16683C3.33497 10.7896 3.92826 12.3561 5.00216 13.5726C6.07606 14.7892 7.55681 15.5723 9.16683 15.7752V17.5002H7.50016C7.27915 17.5002 7.06719 17.588 6.91091 17.7442C6.75463 17.9005 6.66683 18.1125 6.66683 18.3335C6.66683 18.5545 6.75463 18.7665 6.91091 18.9228C7.06719 19.079 7.27915 19.1668 7.50016 19.1668H12.5002C12.7212 19.1668 12.9331 19.079 13.0894 18.9228C13.2457 18.7665 13.3335 18.5545 13.3335 18.3335C13.3335 18.1125 13.2457 17.9005 13.0894 17.7442C12.9331 17.588 12.7212 17.5002 12.5002 17.5002H10.8335V15.7752C12.4435 15.5723 13.9243 14.7892 14.9982 13.5726C16.0721 12.3561 16.6654 10.7896 16.6668 9.16683Z" fill="currentColor"/>
</svg>
