<svg width="20" height="20" viewBox="0 0 20 20" fill="none" xmlns="http://www.w3.org/2000/svg">
<rect width="20" height="20" rx="2" fill="#4361EE"/>
<g clip-path="url(#clip0_570_60037)">
<path d="M13.2803 14H6.66992V12.9746L9.28809 10.3291C10.0765 9.53158 10.5983 8.96191 10.8535 8.62012C11.1087 8.27832 11.2979 7.94792 11.4209 7.62891C11.5485 7.3099 11.6123 6.96582 11.6123 6.59668C11.6123 6.06803 11.4551 5.6556 11.1406 5.35938C10.8262 5.06315 10.3955 4.91504 9.84863 4.91504C9.43848 4.91504 9.04883 4.9834 8.67969 5.12012C8.3151 5.25684 7.90267 5.50521 7.44238 5.86523L6.78613 5.03809C7.72038 4.25423 8.74121 3.8623 9.84863 3.8623C10.7783 3.8623 11.5143 4.10156 12.0566 4.58008C12.6035 5.05404 12.877 5.70117 12.877 6.52148C12.877 6.95898 12.7972 7.38281 12.6377 7.79297C12.4782 8.19857 12.2389 8.61328 11.9199 9.03711C11.6009 9.45638 11.0654 10.0329 10.3135 10.7666L8.22852 12.8242V12.8789H13.2803V14Z" fill="white"/>
</g>
<defs>
<clipPath id="clip0_570_60037">
<rect width="14" height="14" fill="white" transform="translate(3 3)"/>
</clipPath>
</defs>
</svg>
