<svg width="20" height="20" viewBox="0 0 20 20" fill="none" xmlns="http://www.w3.org/2000/svg">
<g clip-path="url(#clip0_714_49628)">
<path d="M16.6665 1.6665H3.33317C2.4127 1.6665 1.6665 2.4127 1.6665 3.33317V6.6665C1.6665 7.58698 2.4127 8.33317 3.33317 8.33317H16.6665C17.587 8.33317 18.3332 7.58698 18.3332 6.6665V3.33317C18.3332 2.4127 17.587 1.6665 16.6665 1.6665Z" stroke="currentColor" stroke-width="1.66667" stroke-linecap="round" stroke-linejoin="round"/>
<path d="M16.6665 11.6665H3.33317C2.4127 11.6665 1.6665 12.4127 1.6665 13.3332V16.6665C1.6665 17.587 2.4127 18.3332 3.33317 18.3332H16.6665C17.587 18.3332 18.3332 17.587 18.3332 16.6665V13.3332C18.3332 12.4127 17.587 11.6665 16.6665 11.6665Z" stroke="currentColor" stroke-width="1.66667" stroke-linecap="round" stroke-linejoin="round"/>
<path d="M5 5H5.00833" stroke="currentColor" stroke-width="1.66667" stroke-linecap="round" stroke-linejoin="round"/>
<path d="M5 15H5.00833" stroke="currentColor" stroke-width="1.66667" stroke-linecap="round" stroke-linejoin="round"/>
</g>
<defs>
<clipPath id="clip0_714_49628">
<rect width="20" height="20" fill="white"/>
</clipPath>
</defs>
</svg>
