<svg width="20" height="20" viewBox="0 0 20 20" fill="none" xmlns="http://www.w3.org/2000/svg">
<path d="M12.6667 5H17.3334" stroke="white" stroke-linecap="round" stroke-linejoin="round"/>
<path d="M5.00008 2.6665V7.33317M2.66675 4.99984H7.33341" stroke="white" stroke-linecap="round" stroke-linejoin="round"/>
<path d="M6.64992 13.3501L3.35008 16.6499M3.35008 13.3501L6.64992 16.6499" stroke="white" stroke-linecap="round" stroke-linejoin="round"/>
<path d="M12.6667 14.9998H17.3334M15.3334 12.9998C15.3334 13.1839 15.1842 13.3332 15.0001 13.3332C14.816 13.3332 14.6667 13.1839 14.6667 12.9998C14.6667 12.8157 14.816 12.6665 15.0001 12.6665C15.1842 12.6665 15.3334 12.8157 15.3334 12.9998ZM15.3334 16.9998C15.3334 17.1839 15.1842 17.3332 15.0001 17.3332C14.816 17.3332 14.6667 17.1839 14.6667 16.9998C14.6667 16.8157 14.816 16.6665 15.0001 16.6665C15.1842 16.6665 15.3334 16.8157 15.3334 16.9998Z" stroke="white" stroke-linecap="round" stroke-linejoin="round"/>
</svg>
