<svg width="20" height="20" viewBox="0 0 20 20" fill="none" xmlns="http://www.w3.org/2000/svg">
<path d="M16.7521 7.98333H8.81875V6.25833C8.82708 5.56666 8.26875 5.00833 7.57708 5C7.24375 5 6.92708 5.13334 6.68542 5.36667L2.86875 9.18334C2.37708 9.675 2.37708 10.4667 2.86875 10.95L6.69375 14.775C7.18542 15.2667 7.97708 15.2667 8.46042 14.775C8.69375 14.5417 8.82708 14.225 8.82708 13.8917V12.15H16.7438C17.4354 12.15 17.9938 11.5917 17.9938 10.9V9.23333C17.9938 8.54167 17.4354 7.98333 16.7438 7.98333H16.7521Z" fill="url(#paint0_linear_6449_44447)"/>
<defs>
<linearGradient id="paint0_linear_6449_44447" x1="10.2469" y1="10.0719" x2="10.2469" y2="15.1437" gradientUnits="userSpaceOnUse">
<stop stop-color="white"/>
</linearGradient>
</defs>
</svg>
