<svg width="20" height="20" viewBox="0 0 20 20" fill="none" xmlns="http://www.w3.org/2000/svg">
<path d="M5 3.34591H5.0125V3.33341V1.67925H6.65417V3.33341V3.34591H6.66667H13.3333H13.3458V3.33341V1.67925H14.9875V3.33341V3.34591H15H15.8333C16.2883 3.34591 16.6775 3.50777 17.0016 3.83184C17.3256 4.1559 17.4875 4.54509 17.4875 5.00008V16.6667C17.4875 17.1217 17.3256 17.5109 17.0016 17.835C16.6775 18.1591 16.2883 18.3209 15.8333 18.3209H4.16667C3.71167 18.3209 3.32249 18.1591 2.99842 17.835C2.67436 17.5109 2.5125 17.1217 2.5125 16.6667V5.00008C2.5125 4.54509 2.67436 4.1559 2.99842 3.83184C3.32249 3.50777 3.71167 3.34591 4.16667 3.34591H5ZM4.15417 16.6667V16.6792H4.16667H15.8333H15.8458V16.6667V8.33342V8.32092H15.8333H4.16667H4.15417V8.33342V16.6667ZM4.15417 6.66675V6.67925H4.16667H15.8333H15.8458V6.66675V5.00008V4.98758H15.8333H4.16667H4.15417V5.00008V6.66675ZM10 11.6542C9.76704 11.6542 9.57235 11.5756 9.41509 11.4183C9.25783 11.2611 9.17917 11.0664 9.17917 10.8334C9.17917 10.6005 9.25783 10.4058 9.41509 10.2485C9.57235 10.0912 9.76704 10.0126 10 10.0126C10.233 10.0126 10.4276 10.0912 10.5849 10.2485C10.7422 10.4058 10.8208 10.6005 10.8208 10.8334C10.8208 11.0664 10.7422 11.2611 10.5849 11.4183C10.4276 11.5756 10.233 11.6542 10 11.6542ZM6.66667 11.6542C6.4337 11.6542 6.23902 11.5756 6.08176 11.4183C5.92449 11.2611 5.84583 11.0664 5.84583 10.8334C5.84583 10.6005 5.92449 10.4058 6.08176 10.2485C6.23902 10.0912 6.4337 10.0126 6.66667 10.0126C6.89963 10.0126 7.09432 10.0912 7.25158 10.2485C7.40884 10.4058 7.4875 10.6005 7.4875 10.8334C7.4875 11.0664 7.40884 11.2611 7.25158 11.4183C7.09432 11.5756 6.89963 11.6542 6.66667 11.6542ZM13.3333 11.6542C13.1004 11.6542 12.9057 11.5756 12.7484 11.4183C12.5912 11.2611 12.5125 11.0664 12.5125 10.8334C12.5125 10.6005 12.5912 10.4058 12.7484 10.2485C12.9057 10.0912 13.1004 10.0126 13.3333 10.0126C13.5663 10.0126 13.761 10.0912 13.9182 10.2485C14.0755 10.4058 14.1542 10.6005 14.1542 10.8334C14.1542 11.0664 14.0755 11.2611 13.9182 11.4183C13.761 11.5756 13.5663 11.6542 13.3333 11.6542ZM10 14.9876C9.76704 14.9876 9.57235 14.9089 9.41509 14.7517C9.25783 14.5944 9.17917 14.3997 9.17917 14.1667C9.17917 13.9338 9.25783 13.7391 9.41509 13.5818C9.57235 13.4246 9.76704 13.3459 10 13.3459C10.233 13.3459 10.4276 13.4246 10.5849 13.5818C10.7422 13.7391 10.8208 13.9338 10.8208 14.1667C10.8208 14.3997 10.7422 14.5944 10.5849 14.7517C10.4276 14.9089 10.233 14.9876 10 14.9876ZM6.66667 14.9876C6.4337 14.9876 6.23902 14.9089 6.08176 14.7517C5.92449 14.5944 5.84583 14.3997 5.84583 14.1667C5.84583 13.9338 5.92449 13.7391 6.08176 13.5818C6.23902 13.4246 6.4337 13.3459 6.66667 13.3459C6.89963 13.3459 7.09432 13.4246 7.25158 13.5818C7.40884 13.7391 7.4875 13.9338 7.4875 14.1667C7.4875 14.3997 7.40884 14.5944 7.25158 14.7517C7.09432 14.9089 6.89963 14.9876 6.66667 14.9876ZM13.3333 14.9876C13.1004 14.9876 12.9057 14.9089 12.7484 14.7517C12.5912 14.5944 12.5125 14.3997 12.5125 14.1667C12.5125 13.9338 12.5912 13.7391 12.7484 13.5818C12.9057 13.4246 13.1004 13.3459 13.3333 13.3459C13.5663 13.3459 13.761 13.4246 13.9182 13.5818C14.0755 13.7391 14.1542 13.9338 14.1542 14.1667C14.1542 14.3997 14.0755 14.5944 13.9182 14.7517C13.761 14.9089 13.5663 14.9876 13.3333 14.9876Z" fill="#333333" stroke="#333333" stroke-width="0.025"/>
</svg>
