<svg width="196" height="132" viewBox="0 0 196 132" fill="none" xmlns="http://www.w3.org/2000/svg">
<rect x="15" y="47.3105" width="175" height="55" rx="27.5" stroke="#E7070E" stroke-width="4"/>
<g filter="url(#filter0_dd_6311_44149)">
<mask id="path-2-inside-1_6311_44149" fill="white">
<path d="M17 74.8105C17 60.7273 28.4167 49.3105 42.5 49.3105H162.5C176.583 49.3105 188 60.7273 188 74.8105C188 88.8938 176.583 100.311 162.5 100.311H42.5C28.4167 100.311 17 88.8938 17 74.8105Z"/>
</mask>
<path d="M17 74.8105C17 60.7273 28.4167 49.3105 42.5 49.3105H162.5C176.583 49.3105 188 60.7273 188 74.8105C188 88.8938 176.583 100.311 162.5 100.311H42.5C28.4167 100.311 17 88.8938 17 74.8105Z" fill="#F9060F" shape-rendering="crispEdges"/>
<path d="M17 49.3105H188H17ZM188 74.8105C188 89.9984 175.688 102.311 160.5 102.311H44.5C29.3122 102.311 17 89.9984 17 74.8105C17 87.7892 28.4167 98.3105 42.5 98.3105H162.5C176.583 98.3105 188 87.7892 188 74.8105ZM17 100.311V49.3105V100.311ZM188 49.3105V100.311V49.3105Z" fill="#F2888C" mask="url(#path-2-inside-1_6311_44149)"/>
<mask id="path-4-inside-2_6311_44149" fill="white">
<path d="M17 74.8105C17 60.7273 28.4167 49.3105 42.5 49.3105H162.5C176.583 49.3105 188 60.7273 188 74.8105C188 88.8938 176.583 100.311 162.5 100.311H42.5C28.4167 100.311 17 88.8938 17 74.8105Z"/>
</mask>
<path d="M17 49.3105H188H17ZM188 74.8105C188 91.1029 174.792 104.311 158.5 104.311H46.5C30.2076 104.311 17 91.1029 17 74.8105C17 86.6847 28.4167 96.3105 42.5 96.3105H162.5C176.583 96.3105 188 86.6847 188 74.8105ZM17 100.311V49.3105V100.311ZM188 49.3105V100.311V49.3105Z" fill="black" fill-opacity="0.05" mask="url(#path-4-inside-2_6311_44149)"/>
<g filter="url(#filter1_df_6311_44149)">
<path d="M44.0185 75.948C39.7887 81.5073 39.304 85.5504 35.1345 82.3781C30.965 79.2057 31.0138 72.1273 35.2436 66.568C39.4734 61.0087 46.2824 59.0736 50.4519 62.246C54.6214 65.4183 48.2483 70.3887 44.0185 75.948Z" fill="white"/>
</g>
<g filter="url(#filter2_dd_6311_44149)">
<mask id="path-7-outside-3_6311_44149" maskUnits="userSpaceOnUse" x="31" y="56.3105" width="146" height="35" fill="black">
<rect fill="white" x="31" y="56.3105" width="146" height="35"/>
<path d="M62.0783 82.7345L61.2783 87.3105H55.3263C54.7823 87.3105 54.2703 87.1825 53.8863 86.8625L50.3983 84.0785C49.8223 83.5985 49.5023 82.8305 49.6623 81.9665L52.0623 68.3665H61.1823L58.9103 81.2945C58.7503 82.1265 59.2943 82.7345 60.0943 82.7345H62.0783ZM48.1903 82.7345L47.3903 87.3105H41.6623C41.1183 87.3105 40.6063 87.1825 40.2223 86.8625L36.7343 84.0785C36.1583 83.5985 35.8383 82.8305 35.9983 81.9665L38.3983 68.3665H47.5183L45.2463 81.2945C45.0863 82.1265 45.6303 82.7345 46.4303 82.7345H48.1903ZM85.2365 68.4945H93.5885L90.8365 84.2065C90.7085 84.8465 90.3245 85.4865 89.7165 85.7745L87.5725 87.0545C87.2205 87.2145 86.9005 87.3105 86.5485 87.3105H81.8445L78.8365 76.9745L72.1485 87.3105H66.9965C64.9805 87.3105 63.6365 85.7105 63.9885 83.6945L66.7085 68.3665H75.4765L74.3565 74.6705C74.2925 74.9905 74.2285 75.3105 74.1325 75.6305L72.9165 79.3745L79.0605 70.0625H81.1085L83.9245 79.2785L84.0525 75.6305C84.0845 75.3105 84.0845 74.9905 84.1485 74.6385L85.2365 68.4945ZM84.195 62.9905H95.715L95.395 64.7185L92.131 66.7345C91.683 67.0545 91.139 67.1825 90.627 67.1825H77.859L78.723 65.2305H73.859L74.179 63.3745L77.443 61.3265C77.923 61.0705 78.435 60.8785 78.979 60.8785H85.091L84.195 62.9905ZM120.547 82.7345L119.747 87.3105H113.795C113.251 87.3105 112.739 87.1825 112.355 86.8625L108.867 84.0785C108.291 83.5985 107.971 82.8305 108.131 81.9665L110.531 68.3665H119.651L117.379 81.2945C117.219 82.1265 117.763 82.7345 118.563 82.7345H120.547ZM106.659 82.7345L105.859 87.3105H100.131C99.587 87.3105 99.075 87.1825 98.691 86.8625L95.203 84.0785C94.627 83.5985 94.307 82.8305 94.467 81.9665L96.867 68.3665H105.987L103.715 81.2945C103.555 82.1265 104.099 82.7345 104.899 82.7345H106.659ZM146.681 68.3665C148.697 68.3665 150.009 69.9665 149.657 71.9825L146.969 87.3105H137.849L139.225 79.3745H131.737L131.417 81.2945C131.257 82.1265 131.801 82.7345 132.601 82.7345H135.641L134.841 87.3105H127.257C126.777 87.3105 126.297 87.1825 125.913 86.8625L122.937 84.8145C122.265 84.3665 122.041 83.5025 122.201 82.6385L122.969 78.3505C123.065 77.7105 123.513 77.1345 124.121 76.7825L126.233 75.5665C126.521 75.3425 126.905 75.2465 127.289 75.2465H139.961L140.121 74.3505C140.249 73.5505 139.737 72.9425 138.937 72.9425H125.017L125.817 68.3665H146.681ZM140.851 62.9905H152.371L152.051 64.7185L148.787 66.7345C148.339 67.0545 147.795 67.1825 147.283 67.1825H134.515L135.379 65.2305H130.515L130.835 63.3745L134.099 61.3265C134.579 61.0705 135.091 60.8785 135.635 60.8785H141.747L140.851 62.9905ZM169.747 68.3665C171.763 68.3665 173.075 69.9665 172.723 71.9825L170.995 81.7425C170.835 82.6385 170.291 83.3745 169.523 83.8545L164.723 86.8625C164.243 87.1825 163.731 87.3105 163.219 87.3105H151.635L152.435 82.7345H160.275C161.011 82.7345 161.779 82.1265 161.939 81.2945L163.155 74.3505C163.283 73.5505 162.739 72.9425 162.003 72.9425H151.827L152.627 68.3665H169.747Z"/>
</mask>
<path d="M62.0783 82.7345L61.2783 87.3105H55.3263C54.7823 87.3105 54.2703 87.1825 53.8863 86.8625L50.3983 84.0785C49.8223 83.5985 49.5023 82.8305 49.6623 81.9665L52.0623 68.3665H61.1823L58.9103 81.2945C58.7503 82.1265 59.2943 82.7345 60.0943 82.7345H62.0783ZM48.1903 82.7345L47.3903 87.3105H41.6623C41.1183 87.3105 40.6063 87.1825 40.2223 86.8625L36.7343 84.0785C36.1583 83.5985 35.8383 82.8305 35.9983 81.9665L38.3983 68.3665H47.5183L45.2463 81.2945C45.0863 82.1265 45.6303 82.7345 46.4303 82.7345H48.1903ZM85.2365 68.4945H93.5885L90.8365 84.2065C90.7085 84.8465 90.3245 85.4865 89.7165 85.7745L87.5725 87.0545C87.2205 87.2145 86.9005 87.3105 86.5485 87.3105H81.8445L78.8365 76.9745L72.1485 87.3105H66.9965C64.9805 87.3105 63.6365 85.7105 63.9885 83.6945L66.7085 68.3665H75.4765L74.3565 74.6705C74.2925 74.9905 74.2285 75.3105 74.1325 75.6305L72.9165 79.3745L79.0605 70.0625H81.1085L83.9245 79.2785L84.0525 75.6305C84.0845 75.3105 84.0845 74.9905 84.1485 74.6385L85.2365 68.4945ZM84.195 62.9905H95.715L95.395 64.7185L92.131 66.7345C91.683 67.0545 91.139 67.1825 90.627 67.1825H77.859L78.723 65.2305H73.859L74.179 63.3745L77.443 61.3265C77.923 61.0705 78.435 60.8785 78.979 60.8785H85.091L84.195 62.9905ZM120.547 82.7345L119.747 87.3105H113.795C113.251 87.3105 112.739 87.1825 112.355 86.8625L108.867 84.0785C108.291 83.5985 107.971 82.8305 108.131 81.9665L110.531 68.3665H119.651L117.379 81.2945C117.219 82.1265 117.763 82.7345 118.563 82.7345H120.547ZM106.659 82.7345L105.859 87.3105H100.131C99.587 87.3105 99.075 87.1825 98.691 86.8625L95.203 84.0785C94.627 83.5985 94.307 82.8305 94.467 81.9665L96.867 68.3665H105.987L103.715 81.2945C103.555 82.1265 104.099 82.7345 104.899 82.7345H106.659ZM146.681 68.3665C148.697 68.3665 150.009 69.9665 149.657 71.9825L146.969 87.3105H137.849L139.225 79.3745H131.737L131.417 81.2945C131.257 82.1265 131.801 82.7345 132.601 82.7345H135.641L134.841 87.3105H127.257C126.777 87.3105 126.297 87.1825 125.913 86.8625L122.937 84.8145C122.265 84.3665 122.041 83.5025 122.201 82.6385L122.969 78.3505C123.065 77.7105 123.513 77.1345 124.121 76.7825L126.233 75.5665C126.521 75.3425 126.905 75.2465 127.289 75.2465H139.961L140.121 74.3505C140.249 73.5505 139.737 72.9425 138.937 72.9425H125.017L125.817 68.3665H146.681ZM140.851 62.9905H152.371L152.051 64.7185L148.787 66.7345C148.339 67.0545 147.795 67.1825 147.283 67.1825H134.515L135.379 65.2305H130.515L130.835 63.3745L134.099 61.3265C134.579 61.0705 135.091 60.8785 135.635 60.8785H141.747L140.851 62.9905ZM169.747 68.3665C171.763 68.3665 173.075 69.9665 172.723 71.9825L170.995 81.7425C170.835 82.6385 170.291 83.3745 169.523 83.8545L164.723 86.8625C164.243 87.1825 163.731 87.3105 163.219 87.3105H151.635L152.435 82.7345H160.275C161.011 82.7345 161.779 82.1265 161.939 81.2945L163.155 74.3505C163.283 73.5505 162.739 72.9425 162.003 72.9425H151.827L152.627 68.3665H169.747Z" fill="url(#paint0_linear_6311_44149)"/>
<path d="M62.0783 82.7345L66.0185 83.4234L66.8382 78.7345H62.0783V82.7345ZM61.2783 87.3105V91.3105H64.6396L65.2185 87.9994L61.2783 87.3105ZM53.8863 86.8625L56.447 83.7897L56.4145 83.7626L56.3815 83.7363L53.8863 86.8625ZM50.3983 84.0785L47.8375 87.1514L47.87 87.1785L47.903 87.2048L50.3983 84.0785ZM49.6623 81.9665L53.5954 82.6949L53.5985 82.6783L53.6014 82.6617L49.6623 81.9665ZM52.0623 68.3665V64.3665H48.7063L48.1231 67.6714L52.0623 68.3665ZM61.1823 68.3665L65.1219 69.0589L65.9465 64.3665H61.1823V68.3665ZM58.9103 81.2945L62.8383 82.0499L62.8443 82.0185L62.8499 81.9869L58.9103 81.2945ZM48.1903 82.7345L52.1305 83.4234L52.9502 78.7345H48.1903V82.7345ZM47.3903 87.3105V91.3105H50.7516L51.3305 87.9994L47.3903 87.3105ZM40.2223 86.8625L42.783 83.7897L42.7505 83.7626L42.7175 83.7363L40.2223 86.8625ZM36.7343 84.0785L34.1735 87.1514L34.206 87.1785L34.239 87.2048L36.7343 84.0785ZM35.9983 81.9665L39.9314 82.6949L39.9345 82.6783L39.9374 82.6617L35.9983 81.9665ZM38.3983 68.3665V64.3665H35.0423L34.4591 67.6714L38.3983 68.3665ZM47.5183 68.3665L51.4579 69.0589L52.2825 64.3665H47.5183V68.3665ZM45.2463 81.2945L49.1743 82.0499L49.1803 82.0185L49.1859 81.9869L45.2463 81.2945ZM58.138 82.0457L57.338 86.6217L65.2185 87.9994L66.0185 83.4234L58.138 82.0457ZM61.2783 83.3105H55.3263V91.3105H61.2783V83.3105ZM55.3263 83.3105C55.3468 83.3105 55.8709 83.3096 56.447 83.7897L51.3255 89.9354C52.6696 91.0555 54.2177 91.3105 55.3263 91.3105V83.3105ZM56.3815 83.7363L52.8935 80.9523L47.903 87.2048L51.391 89.9888L56.3815 83.7363ZM52.959 81.0057C53.1983 81.2051 53.3937 81.4731 53.5098 81.7895C53.6289 82.1144 53.6437 82.4342 53.5954 82.6949L45.7291 81.2382C45.3002 83.5543 46.1742 85.7654 47.8375 87.1514L52.959 81.0057ZM53.6014 82.6617L56.0014 69.0617L48.1231 67.6714L45.7231 81.2714L53.6014 82.6617ZM52.0623 72.3665H61.1823V64.3665H52.0623V72.3665ZM57.2426 67.6742L54.9706 80.6022L62.8499 81.9869L65.1219 69.0589L57.2426 67.6742ZM54.9822 80.5392C54.7016 81.9983 55.001 83.6211 56.0851 84.906C57.1528 86.1715 58.6657 86.7345 60.0943 86.7345V78.7345C60.7228 78.7345 61.5637 78.9936 62.1994 79.7471C62.8516 80.52 62.9589 81.4228 62.8383 82.0499L54.9822 80.5392ZM60.0943 86.7345H62.0783V78.7345H60.0943V86.7345ZM44.25 82.0457L43.45 86.6217L51.3305 87.9994L52.1305 83.4234L44.25 82.0457ZM47.3903 83.3105H41.6623V91.3105H47.3903V83.3105ZM41.6623 83.3105C41.6828 83.3105 42.2069 83.3096 42.783 83.7897L37.6615 89.9354C39.0056 91.0555 40.5537 91.3105 41.6623 91.3105V83.3105ZM42.7175 83.7363L39.2295 80.9523L34.239 87.2048L37.727 89.9888L42.7175 83.7363ZM39.295 81.0057C39.5343 81.2051 39.7297 81.4731 39.8458 81.7895C39.9649 82.1144 39.9797 82.4342 39.9314 82.6949L32.0651 81.2382C31.6362 83.5543 32.5102 85.7654 34.1735 87.1514L39.295 81.0057ZM39.9374 82.6617L42.3374 69.0617L34.4591 67.6714L32.0591 81.2714L39.9374 82.6617ZM38.3983 72.3665H47.5183V64.3665H38.3983V72.3665ZM43.5786 67.6742L41.3066 80.6022L49.1859 81.9869L51.4579 69.0589L43.5786 67.6742ZM41.3182 80.5392C41.0376 81.9983 41.337 83.6211 42.4211 84.906C43.4888 86.1715 45.0017 86.7345 46.4303 86.7345V78.7345C47.0588 78.7345 47.8997 78.9936 48.5354 79.7471C49.1875 80.52 49.2949 81.4228 49.1743 82.0499L41.3182 80.5392ZM46.4303 86.7345H48.1903V78.7345H46.4303V86.7345ZM85.2365 68.4945V64.4945H81.8826L81.2978 67.7971L85.2365 68.4945ZM93.5885 68.4945L97.5285 69.1847L98.35 64.4945H93.5885V68.4945ZM90.8365 84.2065L94.7588 84.991L94.7682 84.9439L94.7765 84.8967L90.8365 84.2065ZM89.7165 85.7745L88.0042 82.1596L87.8308 82.2417L87.6661 82.3401L89.7165 85.7745ZM87.5725 87.0545L89.2277 90.696L89.4311 90.6036L89.6229 90.489L87.5725 87.0545ZM81.8445 87.3105L78.0038 88.4283L78.8426 91.3105H81.8445V87.3105ZM78.8365 76.9745L82.6772 75.8568L80.232 67.4548L75.4782 74.8015L78.8365 76.9745ZM72.1485 87.3105V91.3105H74.3246L75.5068 89.4836L72.1485 87.3105ZM63.9885 83.6945L60.05 82.9957L60.0481 83.0065L63.9885 83.6945ZM66.7085 68.3665V64.3665H63.3558L62.77 67.6677L66.7085 68.3665ZM75.4765 68.3665L79.4148 69.0662L80.2498 64.3665H75.4765V68.3665ZM74.3565 74.6705L78.2788 75.455L78.2873 75.4127L78.2948 75.3702L74.3565 74.6705ZM74.1325 75.6305L77.9369 76.8662L77.9508 76.8232L77.9638 76.7799L74.1325 75.6305ZM72.9165 79.3745L69.1121 78.1389L76.2553 81.5774L72.9165 79.3745ZM79.0605 70.0625V66.0625H76.9075L75.7217 67.8597L79.0605 70.0625ZM81.1085 70.0625L84.9339 68.8937L84.0688 66.0625H81.1085V70.0625ZM83.9245 79.2785L80.0991 80.4474L87.922 79.4188L83.9245 79.2785ZM84.0525 75.6305L80.0724 75.2325L80.0595 75.3611L80.055 75.4903L84.0525 75.6305ZM84.1485 74.6385L88.084 75.3541L88.0856 75.3451L88.0872 75.336L84.1485 74.6385ZM85.2365 72.4945H93.5885V64.4945H85.2365V72.4945ZM89.6485 67.8044L86.8965 83.5164L94.7765 84.8967L97.5285 69.1847L89.6485 67.8044ZM86.9142 83.4221C86.9469 83.2586 87.0137 83.0717 87.1506 82.8707C87.2909 82.6647 87.5584 82.3707 88.0042 82.1596L91.4288 89.3895C93.5068 88.4052 94.4637 86.4664 94.7588 84.991L86.9142 83.4221ZM87.6661 82.3401L85.5221 83.6201L89.6229 90.489L91.7669 89.209L87.6661 82.3401ZM85.9173 83.4131C85.8773 83.4312 85.9306 83.4036 86.0471 83.3731C86.1758 83.3393 86.3489 83.3105 86.5485 83.3105V91.3105C87.6821 91.3105 88.5897 90.986 89.2277 90.696L85.9173 83.4131ZM86.5485 83.3105H81.8445V91.3105H86.5485V83.3105ZM85.6852 86.1928L82.6772 75.8568L74.9958 78.0923L78.0038 88.4283L85.6852 86.1928ZM75.4782 74.8015L68.7902 85.1375L75.5068 89.4836L82.1948 79.1476L75.4782 74.8015ZM72.1485 83.3105H66.9965V91.3105H72.1485V83.3105ZM66.9965 83.3105C67.0821 83.3105 67.4024 83.3682 67.6758 83.696C67.9484 84.0227 67.9376 84.3327 67.9289 84.3826L60.0481 83.0065C59.6874 85.0724 60.1726 87.1904 61.5332 88.8211C62.8946 90.4529 64.895 91.3105 66.9965 91.3105V83.3105ZM67.927 84.3934L70.647 69.0654L62.77 67.6677L60.05 82.9957L67.927 84.3934ZM66.7085 72.3665H75.4765V64.3665H66.7085V72.3665ZM71.5382 67.6668L70.4182 73.9708L78.2948 75.3702L79.4148 69.0662L71.5382 67.6668ZM70.4342 73.8861C70.3646 74.2338 70.3344 74.3705 70.3012 74.4812L77.9638 76.7799C78.1226 76.2506 78.2204 75.7473 78.2788 75.455L70.4342 73.8861ZM70.3281 74.3949L69.1121 78.1389L76.7209 80.6102L77.9369 76.8662L70.3281 74.3949ZM76.2553 81.5774L82.3993 72.2654L75.7217 67.8597L69.5777 77.1717L76.2553 81.5774ZM79.0605 74.0625H81.1085V66.0625H79.0605V74.0625ZM77.2831 71.2314L80.0991 80.4474L87.7499 78.1097L84.9339 68.8937L77.2831 71.2314ZM87.922 79.4188L88.05 75.7708L80.055 75.4903L79.927 79.1383L87.922 79.4188ZM88.0326 76.0286C88.0469 75.8862 88.0562 75.7573 88.0627 75.6627C88.0709 75.5428 88.0724 75.5123 88.0778 75.4384C88.0859 75.3289 88.0894 75.3241 88.084 75.3541L80.213 73.923C80.1436 74.305 80.1151 74.6362 80.0992 74.8546C80.0779 75.1454 80.0817 75.1386 80.0724 75.2325L88.0326 76.0286ZM88.0872 75.336L89.1752 69.192L81.2978 67.7971L80.2098 73.9411L88.0872 75.336ZM84.195 62.9905L80.5127 61.4283L78.153 66.9905H84.195V62.9905ZM95.715 62.9905L99.6481 63.7189L100.524 58.9905H95.715V62.9905ZM95.395 64.7185L97.497 68.1217L99.0053 67.1901L99.3281 65.4469L95.395 64.7185ZM92.131 66.7345L90.029 63.3314L89.9151 63.4017L89.806 63.4796L92.131 66.7345ZM77.859 67.1825L74.2013 65.5636L71.7142 71.1825H77.859V67.1825ZM78.723 65.2305L82.3807 66.8495L84.8678 61.2305H78.723V65.2305ZM73.859 65.2305L69.9172 64.5509L69.1103 69.2305H73.859V65.2305ZM74.179 63.3745L72.053 59.9863L70.5405 60.9353L70.2372 62.6949L74.179 63.3745ZM77.443 61.3265L75.5606 57.7971L75.4364 57.8634L75.317 57.9383L77.443 61.3265ZM85.091 60.8785L88.7733 62.4407L91.133 56.8785H85.091V60.8785ZM84.195 66.9905H95.715V58.9905H84.195V66.9905ZM91.7819 62.2622L91.4619 63.9902L99.3281 65.4469L99.6481 63.7189L91.7819 62.2622ZM93.293 61.3154L90.029 63.3314L94.233 70.1377L97.497 68.1217L93.293 61.3154ZM89.806 63.4796C90.1911 63.2046 90.5179 63.1825 90.627 63.1825V71.1825C91.7601 71.1825 93.1749 70.9045 94.456 69.9895L89.806 63.4796ZM90.627 63.1825H77.859V71.1825H90.627V63.1825ZM81.5167 68.8015L82.3807 66.8495L75.0653 63.6116L74.2013 65.5636L81.5167 68.8015ZM78.723 61.2305H73.859V69.2305H78.723V61.2305ZM77.8008 65.9102L78.1208 64.0542L70.2372 62.6949L69.9172 64.5509L77.8008 65.9102ZM76.305 66.7628L79.569 64.7148L75.317 57.9383L72.053 59.9863L76.305 66.7628ZM79.3254 64.856C79.4178 64.8066 79.4299 64.8089 79.3801 64.8245C79.3236 64.8421 79.1822 64.8785 78.979 64.8785V56.8785C77.4971 56.8785 76.3067 57.3992 75.5606 57.7971L79.3254 64.856ZM78.979 64.8785H85.091V56.8785H78.979V64.8785ZM81.4087 59.3163L80.5127 61.4283L87.8773 64.5527L88.7733 62.4407L81.4087 59.3163ZM120.547 82.7345L124.487 83.4234L125.307 78.7345H120.547V82.7345ZM119.747 87.3105V91.3105H123.108L123.687 87.9994L119.747 87.3105ZM112.355 86.8625L114.916 83.7897L114.883 83.7626L114.85 83.7363L112.355 86.8625ZM108.867 84.0785L106.306 87.1514L106.339 87.1785L106.372 87.2048L108.867 84.0785ZM108.131 81.9665L112.064 82.6949L112.067 82.6783L112.07 82.6617L108.131 81.9665ZM110.531 68.3665V64.3665H107.175L106.592 67.6714L110.531 68.3665ZM119.651 68.3665L123.591 69.0589L124.415 64.3665H119.651V68.3665ZM117.379 81.2945L121.307 82.0499L121.313 82.0185L121.319 81.9869L117.379 81.2945ZM106.659 82.7345L110.599 83.4234L111.419 78.7345H106.659V82.7345ZM105.859 87.3105V91.3105H109.22L109.799 87.9994L105.859 87.3105ZM98.691 86.8625L101.252 83.7897L101.219 83.7626L101.186 83.7363L98.691 86.8625ZM95.203 84.0785L92.6423 87.1514L92.6747 87.1785L92.7077 87.2048L95.203 84.0785ZM94.467 81.9665L98.4001 82.6949L98.4032 82.6783L98.4061 82.6617L94.467 81.9665ZM96.867 68.3665V64.3665H93.5111L92.9279 67.6714L96.867 68.3665ZM105.987 68.3665L109.927 69.0589L110.751 64.3665H105.987V68.3665ZM103.715 81.2945L107.643 82.0499L107.649 82.0185L107.655 81.9869L103.715 81.2945ZM116.607 82.0457L115.807 86.6217L123.687 87.9994L124.487 83.4234L116.607 82.0457ZM119.747 83.3105H113.795V91.3105H119.747V83.3105ZM113.795 83.3105C113.816 83.3105 114.34 83.3096 114.916 83.7897L109.794 89.9354C111.138 91.0555 112.686 91.3105 113.795 91.3105V83.3105ZM114.85 83.7363L111.362 80.9523L106.372 87.2048L109.86 89.9888L114.85 83.7363ZM111.428 81.0057C111.667 81.2051 111.862 81.4731 111.979 81.7895C112.098 82.1144 112.112 82.4342 112.064 82.6949L104.198 81.2382C103.769 83.5543 104.643 85.7654 106.306 87.1514L111.428 81.0057ZM112.07 82.6617L114.47 69.0617L106.592 67.6714L104.192 81.2714L112.07 82.6617ZM110.531 72.3665H119.651V64.3665H110.531V72.3665ZM115.711 67.6742L113.439 80.6022L121.319 81.9869L123.591 69.0589L115.711 67.6742ZM113.451 80.5392C113.17 81.9983 113.47 83.6211 114.554 84.906C115.622 86.1715 117.134 86.7345 118.563 86.7345V78.7345C119.192 78.7345 120.032 78.9936 120.668 79.7471C121.32 80.52 121.428 81.4228 121.307 82.0499L113.451 80.5392ZM118.563 86.7345H120.547V78.7345H118.563V86.7345ZM102.719 82.0457L101.919 86.6217L109.799 87.9994L110.599 83.4234L102.719 82.0457ZM105.859 83.3105H100.131V91.3105H105.859V83.3105ZM100.131 83.3105C100.152 83.3105 100.676 83.3096 101.252 83.7897L96.1303 89.9354C97.4743 91.0555 99.0224 91.3105 100.131 91.3105V83.3105ZM101.186 83.7363L97.6983 80.9523L92.7077 87.2048L96.1957 89.9888L101.186 83.7363ZM97.7637 81.0057C98.003 81.2051 98.1985 81.4731 98.3145 81.7895C98.4336 82.1144 98.4484 82.4342 98.4001 82.6949L90.5339 81.2382C90.105 83.5543 90.979 85.7654 92.6423 87.1514L97.7637 81.0057ZM98.4061 82.6617L100.806 69.0617L92.9279 67.6714L90.5279 81.2714L98.4061 82.6617ZM96.867 72.3665H105.987V64.3665H96.867V72.3665ZM102.047 67.6742L99.7754 80.6022L107.655 81.9869L109.927 69.0589L102.047 67.6742ZM99.787 80.5392C99.5064 81.9983 99.8057 83.6211 100.89 84.906C101.958 86.1715 103.47 86.7345 104.899 86.7345V78.7345C105.528 78.7345 106.368 78.9936 107.004 79.7471C107.656 80.52 107.764 81.4228 107.643 82.0499L99.787 80.5392ZM104.899 86.7345H106.659V78.7345H104.899V86.7345ZM149.657 71.9825L153.597 72.6735L153.598 72.6705L149.657 71.9825ZM146.969 87.3105V91.3105H150.329L150.909 88.0015L146.969 87.3105ZM137.849 87.3105L133.908 86.6272L133.096 91.3105H137.849V87.3105ZM139.225 79.3745L143.166 80.0579L143.978 75.3745H139.225V79.3745ZM131.737 79.3745V75.3745H128.349L127.792 78.717L131.737 79.3745ZM131.417 81.2945L135.345 82.0499L135.355 82.0011L135.363 81.9521L131.417 81.2945ZM135.641 82.7345L139.581 83.4234L140.401 78.7345H135.641V82.7345ZM134.841 87.3105V91.3105H138.203L138.781 87.9994L134.841 87.3105ZM125.913 86.8625L128.474 83.7897L128.333 83.6718L128.181 83.5674L125.913 86.8625ZM122.937 84.8145L125.205 81.5194L125.181 81.5027L125.156 81.4863L122.937 84.8145ZM122.201 82.6385L126.134 83.3669L126.137 83.3553L126.139 83.3437L122.201 82.6385ZM122.969 78.3505L126.907 79.0557L126.917 79L126.925 78.9439L122.969 78.3505ZM124.121 76.7825L122.125 73.316L122.117 73.3208L124.121 76.7825ZM126.233 75.5665L128.229 79.033L128.47 78.8945L128.689 78.724L126.233 75.5665ZM139.961 75.2465V79.2465H143.31L143.899 75.9497L139.961 75.2465ZM140.121 74.3505L144.059 75.0537L144.065 75.0182L144.071 74.9825L140.121 74.3505ZM125.017 72.9425L121.077 72.2537L120.257 76.9425H125.017V72.9425ZM125.817 68.3665V64.3665H122.456L121.877 67.6777L125.817 68.3665ZM146.681 72.3665C146.591 72.3665 146.251 72.3041 145.967 71.9587C145.841 71.8052 145.769 71.644 145.737 71.5087C145.721 71.4431 145.715 71.3897 145.714 71.3518C145.713 71.314 145.717 71.2944 145.717 71.2945L153.598 72.6705C153.954 70.6319 153.496 68.5196 152.147 66.8784C150.791 65.229 148.788 64.3665 146.681 64.3665V72.3665ZM145.717 71.2916L143.029 86.6196L150.909 88.0015L153.597 72.6735L145.717 71.2916ZM146.969 83.3105H137.849V91.3105H146.969V83.3105ZM141.79 87.9939L143.166 80.0579L135.284 78.6912L133.908 86.6272L141.79 87.9939ZM139.225 75.3745H131.737V83.3745H139.225V75.3745ZM127.792 78.717L127.472 80.637L135.363 81.9521L135.683 80.0321L127.792 78.717ZM127.489 80.5392C127.209 81.9983 127.508 83.6211 128.592 84.906C129.66 86.1715 131.173 86.7345 132.601 86.7345V78.7345C133.23 78.7345 134.071 78.9936 134.706 79.7471C135.359 80.52 135.466 81.4228 135.345 82.0499L127.489 80.5392ZM132.601 86.7345H135.641V78.7345H132.601V86.7345ZM131.701 82.0457L130.901 86.6217L138.781 87.9994L139.581 83.4234L131.701 82.0457ZM134.841 83.3105H127.257V91.3105H134.841V83.3105ZM127.257 83.3105C127.464 83.3105 127.969 83.3686 128.474 83.7897L123.353 89.9354C124.626 90.9965 126.09 91.3105 127.257 91.3105V83.3105ZM128.181 83.5674L125.205 81.5194L120.67 88.1097L123.646 90.1577L128.181 83.5674ZM125.156 81.4863C125.678 81.8346 125.956 82.3113 126.072 82.678C126.178 83.016 126.155 83.258 126.134 83.3669L118.268 81.9102C117.934 83.7162 118.252 86.4984 120.718 88.1427L125.156 81.4863ZM126.139 83.3437L126.907 79.0557L119.032 77.6453L118.264 81.9333L126.139 83.3437ZM126.925 78.9439C126.863 79.356 126.702 79.6589 126.559 79.8509C126.417 80.0414 126.263 80.1645 126.125 80.2443L122.117 73.3208C120.69 74.1471 119.327 75.6701 119.014 77.7572L126.925 78.9439ZM126.117 80.249L128.229 79.033L124.237 72.1001L122.125 73.3161L126.117 80.249ZM128.689 78.724C128.071 79.2044 127.497 79.2465 127.289 79.2465V71.2465C126.314 71.2465 124.971 71.4807 123.777 72.4091L128.689 78.724ZM127.289 79.2465H139.961V71.2465H127.289V79.2465ZM143.899 75.9497L144.059 75.0537L136.184 73.6474L136.024 74.5434L143.899 75.9497ZM144.071 74.9825C144.295 73.582 143.989 72.0205 142.938 70.7715C141.883 69.5174 140.383 68.9425 138.937 68.9425V76.9425C138.292 76.9425 137.447 76.6717 136.816 75.9216C136.19 75.1766 136.075 74.319 136.171 73.7186L144.071 74.9825ZM138.937 68.9425H125.017V76.9425H138.937V68.9425ZM128.957 73.6314L129.757 69.0554L121.877 67.6777L121.077 72.2537L128.957 73.6314ZM125.817 72.3665H146.681V64.3665H125.817V72.3665ZM140.851 62.9905L137.169 61.4283L134.809 66.9905H140.851V62.9905ZM152.371 62.9905L156.304 63.7189L157.18 58.9905H152.371V62.9905ZM152.051 64.7185L154.153 68.1217L155.662 67.1901L155.984 65.4469L152.051 64.7185ZM148.787 66.7345L146.685 63.3314L146.571 63.4017L146.462 63.4796L148.787 66.7345ZM134.515 67.1825L130.858 65.5636L128.37 71.1825H134.515V67.1825ZM135.379 65.2305L139.037 66.8495L141.524 61.2305H135.379V65.2305ZM130.515 65.2305L126.573 64.5509L125.767 69.2305H130.515V65.2305ZM130.835 63.3745L128.709 59.9863L127.197 60.9353L126.893 62.6949L130.835 63.3745ZM134.099 61.3265L132.217 57.7971L132.093 57.8634L131.973 57.9383L134.099 61.3265ZM141.747 60.8785L145.43 62.4407L147.789 56.8785H141.747V60.8785ZM140.851 66.9905H152.371V58.9905H140.851V66.9905ZM148.438 62.2622L148.118 63.9902L155.984 65.4469L156.304 63.7189L148.438 62.2622ZM149.949 61.3154L146.685 63.3314L150.889 70.1377L154.153 68.1217L149.949 61.3154ZM146.462 63.4796C146.847 63.2046 147.174 63.1825 147.283 63.1825V71.1825C148.416 71.1825 149.831 70.9045 151.112 69.9895L146.462 63.4796ZM147.283 63.1825H134.515V71.1825H147.283V63.1825ZM138.173 68.8015L139.037 66.8495L131.722 63.6116L130.858 65.5636L138.173 68.8015ZM135.379 61.2305H130.515V69.2305H135.379V61.2305ZM134.457 65.9102L134.777 64.0542L126.893 62.6949L126.573 64.5509L134.457 65.9102ZM132.961 66.7628L136.225 64.7148L131.973 57.9383L128.709 59.9863L132.961 66.7628ZM135.982 64.856C136.074 64.8066 136.086 64.8089 136.036 64.8245C135.98 64.8421 135.838 64.8785 135.635 64.8785V56.8785C134.153 56.8785 132.963 57.3992 132.217 57.7971L135.982 64.856ZM135.635 64.8785H141.747V56.8785H135.635V64.8785ZM138.065 59.3163L137.169 61.4283L144.534 64.5527L145.43 62.4407L138.065 59.3163ZM172.723 71.9825L176.662 72.6799L176.664 72.6705L172.723 71.9825ZM170.995 81.7425L174.933 82.4457L174.934 82.4399L170.995 81.7425ZM169.523 83.8545L167.403 80.4626L167.399 80.4651L169.523 83.8545ZM164.723 86.8625L162.599 83.4731L162.551 83.5031L162.504 83.5343L164.723 86.8625ZM151.635 87.3105L147.695 86.6217L146.875 91.3105H151.635V87.3105ZM152.435 82.7345V78.7345H149.074L148.495 82.0457L152.435 82.7345ZM161.939 81.2945L165.867 82.0499L165.874 82.0173L165.879 81.9845L161.939 81.2945ZM163.155 74.3505L167.095 75.0405L167.1 75.0115L167.105 74.9825L163.155 74.3505ZM151.827 72.9425L147.887 72.2537L147.067 76.9425H151.827V72.9425ZM152.627 68.3665V64.3665H149.266L148.687 67.6777L152.627 68.3665ZM169.747 72.3665C169.657 72.3665 169.317 72.3041 169.033 71.9587C168.907 71.8052 168.835 71.644 168.803 71.5087C168.787 71.4431 168.781 71.3897 168.78 71.3518C168.779 71.314 168.783 71.2944 168.783 71.2945L176.664 72.6705C177.02 70.6319 176.562 68.5196 175.213 66.8784C173.857 65.229 171.854 64.3665 169.747 64.3665V72.3665ZM168.785 71.2852L167.057 81.0452L174.934 82.4399L176.662 72.6799L168.785 71.2852ZM167.058 81.0394C167.084 80.8916 167.145 80.7532 167.222 80.6435C167.297 80.5383 167.368 80.4843 167.403 80.4626L171.643 87.2465C173.261 86.2356 174.553 84.5753 174.933 82.4457L167.058 81.0394ZM167.399 80.4651L162.599 83.4731L166.847 90.252L171.647 87.244L167.399 80.4651ZM162.504 83.5343C162.612 83.4626 162.742 83.401 162.884 83.3605C163.023 83.3208 163.14 83.3105 163.219 83.3105V91.3105C164.431 91.3105 165.734 90.9961 166.942 90.1908L162.504 83.5343ZM163.219 83.3105H151.635V91.3105H163.219V83.3105ZM155.575 87.9994L156.375 83.4234L148.495 82.0457L147.695 86.6217L155.575 87.9994ZM152.435 86.7345H160.275V78.7345H152.435V86.7345ZM160.275 86.7345C162.994 86.7345 165.358 84.7005 165.867 82.0499L158.011 80.5392C158.122 79.9643 158.423 79.5391 158.747 79.2669C159.053 79.0091 159.565 78.7345 160.275 78.7345V86.7345ZM165.879 81.9845L167.095 75.0405L159.215 73.6606L157.999 80.6046L165.879 81.9845ZM167.105 74.9825C167.613 71.8064 165.255 68.9425 162.003 68.9425V76.9425C161.239 76.9425 160.421 76.6091 159.842 75.9216C159.256 75.2242 159.099 74.3858 159.205 73.7186L167.105 74.9825ZM162.003 68.9425H151.827V76.9425H162.003V68.9425ZM155.767 73.6314L156.567 69.0554L148.687 67.6777L147.887 72.2537L155.767 73.6314ZM152.627 72.3665H169.747V64.3665H152.627V72.3665Z" fill="#E7070E" mask="url(#path-7-outside-3_6311_44149)"/>
</g>
</g>
<g filter="url(#filter3_d_6311_44149)">
<g filter="url(#filter4_dd_6311_44149)">
<mask id="path-9-outside-4_6311_44149" maskUnits="userSpaceOnUse" x="78.0124" y="2.36095" width="59.1478" height="59.1478" fill="black">
<rect fill="white" x="78.0124" y="2.36095" width="59.1478" height="59.1478"/>
<path fill-rule="evenodd" clip-rule="evenodd" d="M108.687 10.2929L104.261 24.1041L108.652 24.8858L104.074 33.6361L118.217 22.0574L111.386 20.8415L115.778 11.555L122.826 12.8095L121.996 17.4724L126.659 18.3023C127.941 18.5305 128.958 19.1825 129.709 20.2581C130.459 21.3338 130.72 22.5128 130.492 23.795L130.077 26.1265C129.551 29.0796 128.112 31.4792 125.759 33.3254C123.406 35.1715 120.741 36.0101 117.765 35.8411C116.747 37.504 115.385 38.7949 113.678 39.7138C111.971 40.6326 110.128 41.1363 108.148 41.2249L106.861 48.4523L116.187 50.1121L115.357 54.7749L92.0428 50.6253L92.8727 45.9625L102.198 47.6223L103.485 40.395C101.657 39.6286 100.1 38.5198 98.8153 37.0684C97.5303 35.617 96.6971 33.9353 96.3158 32.0234C93.4638 31.155 91.252 29.4484 89.6805 26.9038C88.109 24.3591 87.5861 21.6102 88.1117 18.6571L88.5267 16.3256C88.7549 15.0434 89.4068 14.0269 90.4825 13.2763C91.5582 12.5257 92.7371 12.2645 94.0194 12.4928L98.6822 13.3227L99.5122 8.65987L108.687 10.2929ZM97.8523 17.9855L96.2754 26.8449C94.9665 26.0908 93.9901 25.0451 93.3462 23.7078C92.7023 22.3705 92.5117 20.9636 92.7745 19.487L93.1895 17.1556L97.8523 17.9855ZM123.421 29.0608C122.356 30.0938 121.078 30.7384 119.59 30.9945L121.166 22.1352L125.829 22.9651L125.414 25.2965C125.151 26.7731 124.487 28.0279 123.421 29.0608Z"/>
</mask>
<path fill-rule="evenodd" clip-rule="evenodd" d="M108.687 10.2929L104.261 24.1041L108.652 24.8858L104.074 33.6361L118.217 22.0574L111.386 20.8415L115.778 11.555L122.826 12.8095L121.996 17.4724L126.659 18.3023C127.941 18.5305 128.958 19.1825 129.709 20.2581C130.459 21.3338 130.72 22.5128 130.492 23.795L130.077 26.1265C129.551 29.0796 128.112 31.4792 125.759 33.3254C123.406 35.1715 120.741 36.0101 117.765 35.8411C116.747 37.504 115.385 38.7949 113.678 39.7138C111.971 40.6326 110.128 41.1363 108.148 41.2249L106.861 48.4523L116.187 50.1121L115.357 54.7749L92.0428 50.6253L92.8727 45.9625L102.198 47.6223L103.485 40.395C101.657 39.6286 100.1 38.5198 98.8153 37.0684C97.5303 35.617 96.6971 33.9353 96.3158 32.0234C93.4638 31.155 91.252 29.4484 89.6805 26.9038C88.109 24.3591 87.5861 21.6102 88.1117 18.6571L88.5267 16.3256C88.7549 15.0434 89.4068 14.0269 90.4825 13.2763C91.5582 12.5257 92.7371 12.2645 94.0194 12.4928L98.6822 13.3227L99.5122 8.65987L108.687 10.2929ZM97.8523 17.9855L96.2754 26.8449C94.9665 26.0908 93.9901 25.0451 93.3462 23.7078C92.7023 22.3705 92.5117 20.9636 92.7745 19.487L93.1895 17.1556L97.8523 17.9855ZM123.421 29.0608C122.356 30.0938 121.078 30.7384 119.59 30.9945L121.166 22.1352L125.829 22.9651L125.414 25.2965C125.151 26.7731 124.487 28.0279 123.421 29.0608Z" fill="url(#paint1_linear_6311_44149)"/>
<path d="M104.261 24.1041L100.451 22.8833C100.099 23.9823 100.239 25.1799 100.834 26.1684C101.43 27.1569 102.423 27.84 103.56 28.0422L104.261 24.1041ZM108.687 10.2929L112.496 11.5136C112.848 10.4146 112.709 9.21708 112.113 8.22858C111.517 7.24008 110.524 6.55698 109.388 6.35475L108.687 10.2929ZM108.652 24.8858L112.197 26.7401C112.787 25.6107 112.805 24.2674 112.243 23.1232C111.681 21.979 110.608 21.171 109.353 20.9477L108.652 24.8858ZM104.074 33.6361L100.53 31.7818C99.6489 33.466 100.075 35.5376 101.549 36.7378C103.022 37.938 105.137 37.9352 106.608 36.7312L104.074 33.6361ZM118.217 22.0574L120.751 25.1525C121.96 24.1629 122.482 22.5603 122.088 21.0487C121.694 19.537 120.456 18.393 118.918 18.1193L118.217 22.0574ZM111.386 20.8415L107.77 19.1312C107.237 20.2578 107.26 21.5684 107.831 22.6759C108.403 23.7834 109.458 24.5612 110.685 24.7796L111.386 20.8415ZM115.778 11.555L116.479 7.61691C114.702 7.30067 112.934 8.21336 112.162 9.84479L115.778 11.555ZM122.826 12.8095L126.764 13.5105C127.152 11.3355 125.702 9.25854 123.527 8.87142L122.826 12.8095ZM121.996 17.4724L118.058 16.7714C117.671 18.9464 119.12 21.0233 121.295 21.4105L121.996 17.4724ZM126.659 18.3023L125.958 22.2404L126.659 18.3023ZM130.492 23.795L126.554 23.0941L130.492 23.795ZM130.077 26.1265L134.015 26.8274L130.077 26.1265ZM125.759 33.3254L128.228 36.4724L128.228 36.4724L125.759 33.3254ZM117.765 35.8411L117.992 31.8475C116.52 31.764 115.122 32.4963 114.353 33.7533L117.765 35.8411ZM108.148 41.2249L107.969 37.2289C106.099 37.3125 104.537 38.6813 104.209 40.5239L108.148 41.2249ZM106.861 48.4523L102.923 47.7513C102.737 48.7958 102.974 49.8713 103.581 50.7413C104.188 51.6113 105.116 52.2045 106.16 52.3904L106.861 48.4523ZM116.187 50.1121L120.125 50.8131C120.512 48.6381 119.063 46.5611 116.888 46.174L116.187 50.1121ZM115.357 54.7749L114.656 58.7131C115.7 58.899 116.776 58.6623 117.646 58.0552C118.516 57.4482 119.109 56.5203 119.295 55.4759L115.357 54.7749ZM92.0428 50.6253L88.1047 49.9243C87.7176 52.0993 89.1669 54.1763 91.3418 54.5634L92.0428 50.6253ZM92.8727 45.9625L93.5737 42.0244C91.3987 41.6372 89.3217 43.0866 88.9346 45.2615L92.8727 45.9625ZM102.198 47.6223L101.497 51.5604C103.672 51.9476 105.749 50.4982 106.136 48.3233L102.198 47.6223ZM103.485 40.395L107.423 41.0959C107.751 39.2533 106.757 37.4296 105.031 36.706L103.485 40.395ZM98.8153 37.0684L95.8205 39.72L95.8205 39.72L98.8153 37.0684ZM96.3158 32.0234L100.239 31.2411C99.9504 29.7958 98.8908 28.6261 97.481 28.1969L96.3158 32.0234ZM89.6805 26.9038L86.2772 29.0055L86.2772 29.0055L89.6805 26.9038ZM88.1117 18.6571L92.0498 19.358L88.1117 18.6571ZM88.5267 16.3256L84.5886 15.6247L88.5267 16.3256ZM90.4825 13.2763L92.7715 16.5566L90.4825 13.2763ZM94.0194 12.4928L93.3185 16.4309L94.0194 12.4928ZM98.6822 13.3227L97.9813 17.2608C100.156 17.6479 102.233 16.1986 102.62 14.0236L98.6822 13.3227ZM99.5122 8.65987L100.213 4.72176C98.0382 4.33464 95.9612 5.78397 95.5741 7.95893L99.5122 8.65987ZM96.2754 26.8449L94.2786 30.3108C95.4079 30.9614 96.7833 31.0211 97.9646 30.4707C99.146 29.9203 99.9852 28.8289 100.214 27.5458L96.2754 26.8449ZM97.8523 17.9855L101.79 18.6865C102.178 16.5115 100.728 14.4345 98.5532 14.0474L97.8523 17.9855ZM92.7745 19.487L88.8364 18.7861L92.7745 19.487ZM93.1895 17.1556L93.8904 13.2175C91.7155 12.8304 89.6385 14.2797 89.2514 16.4546L93.1895 17.1556ZM119.59 30.9945L115.651 30.2936C115.423 31.5767 115.834 32.8906 116.753 33.8148C117.672 34.739 118.983 35.1576 120.268 34.9366L119.59 30.9945ZM121.166 22.1352L121.867 18.1971C120.823 18.0112 119.747 18.2478 118.877 18.8549C118.007 19.462 117.414 20.3898 117.228 21.4342L121.166 22.1352ZM125.829 22.9651L129.767 23.6661C129.953 22.6216 129.717 21.5461 129.11 20.6761C128.502 19.8061 127.575 19.2129 126.53 19.027L125.829 22.9651ZM125.414 25.2965L121.476 24.5956L125.414 25.2965ZM108.07 25.3249L112.496 11.5136L104.878 9.07209L100.451 22.8833L108.07 25.3249ZM109.353 20.9477L104.962 20.166L103.56 28.0422L107.951 28.8239L109.353 20.9477ZM107.619 35.4904L112.197 26.7401L105.108 23.0315L100.53 31.7818L107.619 35.4904ZM115.684 18.9623L101.54 30.541L106.608 36.7312L120.751 25.1525L115.684 18.9623ZM110.685 24.7796L117.517 25.9955L118.918 18.1193L112.087 16.9034L110.685 24.7796ZM112.162 9.84479L107.77 19.1312L115.002 22.5517L119.394 13.2653L112.162 9.84479ZM115.077 15.4931L122.125 16.7476L123.527 8.87142L116.479 7.61691L115.077 15.4931ZM118.888 12.1086L118.058 16.7714L125.934 18.1733L126.764 13.5105L118.888 12.1086ZM121.295 21.4105L125.958 22.2404L127.36 14.3642L122.697 13.5342L121.295 21.4105ZM125.958 22.2404C126.188 22.2812 126.28 22.3345 126.428 22.5472L132.989 17.9691C131.636 16.0304 129.695 14.7798 127.36 14.3642L125.958 22.2404ZM126.428 22.5472C126.577 22.7598 126.595 22.8646 126.554 23.0941L134.43 24.496C134.846 22.161 134.342 19.9078 132.989 17.9691L126.428 22.5472ZM126.554 23.0941L126.139 25.4255L134.015 26.8274L134.43 24.496L126.554 23.0941ZM126.139 25.4255C125.785 27.4135 124.867 28.9412 123.29 30.1784L128.228 36.4724C131.357 34.0172 133.318 30.7456 134.015 26.8274L126.139 25.4255ZM123.29 30.1784C121.7 31.4259 119.993 31.9612 117.992 31.8475L117.538 39.8347C121.49 40.059 125.112 38.9171 128.228 36.4724L123.29 30.1784ZM114.353 33.7533C113.703 34.816 112.862 35.6104 111.782 36.1917L115.574 43.2359C117.908 41.9795 119.792 40.192 121.177 37.9289L114.353 33.7533ZM111.782 36.1917C110.617 36.819 109.362 37.1666 107.969 37.2289L108.326 45.2209C110.893 45.1061 113.325 44.4463 115.574 43.2359L111.782 36.1917ZM104.209 40.5239L102.923 47.7513L110.799 49.1532L112.086 41.9258L104.209 40.5239ZM106.16 52.3904L115.486 54.0502L116.888 46.174L107.562 44.5142L106.16 52.3904ZM112.249 49.4112L111.419 54.074L119.295 55.4759L120.125 50.8131L112.249 49.4112ZM116.058 50.8368L92.7437 46.6872L91.3418 54.5634L114.656 58.7131L116.058 50.8368ZM95.9809 51.3262L96.8108 46.6634L88.9346 45.2615L88.1047 49.9243L95.9809 51.3262ZM92.1718 49.9006L101.497 51.5604L102.899 43.6842L93.5737 42.0244L92.1718 49.9006ZM106.136 48.3233L107.423 41.0959L99.5467 39.694L98.2603 46.9214L106.136 48.3233ZM105.031 36.706C103.745 36.1668 102.687 35.4076 101.81 34.4168L95.8205 39.72C97.5133 41.6319 99.5686 43.0905 101.938 44.0839L105.031 36.706ZM101.81 34.4168C100.997 33.4986 100.482 32.4629 100.239 31.2411L92.3931 32.8057C92.912 35.4077 94.0634 37.7354 95.8205 39.72L101.81 34.4168ZM97.481 28.1969C95.5633 27.6129 94.1458 26.5215 93.0838 24.802L86.2772 29.0055C88.3583 32.3753 91.3643 34.697 95.1507 35.8499L97.481 28.1969ZM93.0838 24.802C92.0307 23.0967 91.696 21.346 92.0498 19.358L84.1736 17.9561C83.4762 21.8743 84.1873 25.6214 86.2772 29.0055L93.0838 24.802ZM92.0498 19.358L92.4648 17.0266L84.5886 15.6247L84.1736 17.9561L92.0498 19.358ZM92.4648 17.0266C92.5056 16.7971 92.5589 16.705 92.7715 16.5566L88.1935 9.99602C86.2548 11.3489 85.0042 13.2897 84.5886 15.6247L92.4648 17.0266ZM92.7715 16.5566C92.9841 16.4083 93.089 16.39 93.3185 16.4309L94.7204 8.55465C92.3853 8.13904 90.1322 8.64317 88.1935 9.99602L92.7715 16.5566ZM93.3185 16.4309L97.9813 17.2608L99.3832 9.38458L94.7204 8.55465L93.3185 16.4309ZM102.62 14.0236L103.45 9.36081L95.5741 7.95893L94.7441 12.6217L102.62 14.0236ZM98.8112 12.598L107.986 14.231L109.388 6.35475L100.213 4.72176L98.8112 12.598ZM100.214 27.5458L101.79 18.6865L93.9142 17.2846L92.3373 26.1439L100.214 27.5458ZM89.7422 25.4431C90.742 27.5195 92.2852 29.1624 94.2786 30.3108L98.2723 23.3789C97.6478 23.0192 97.2382 22.5706 96.9501 21.9724L89.7422 25.4431ZM88.8364 18.7861C88.4281 21.0803 88.7298 23.3405 89.7422 25.4431L96.9501 21.9724C96.6747 21.4005 96.5954 20.8468 96.7126 20.1879L88.8364 18.7861ZM89.2514 16.4546L88.8364 18.7861L96.7126 20.1879L97.1276 17.8565L89.2514 16.4546ZM98.5532 14.0474L93.8904 13.2175L92.4885 21.0937L97.1514 21.9236L98.5532 14.0474ZM120.268 34.9366C122.535 34.5465 124.55 33.537 126.205 31.9331L120.638 26.1885C120.161 26.6506 119.622 26.9303 118.911 27.0525L120.268 34.9366ZM117.228 21.4342L115.651 30.2936L123.528 31.6955L125.105 22.8361L117.228 21.4342ZM126.53 19.027L121.867 18.1971L120.465 26.0733L125.128 26.9032L126.53 19.027ZM129.352 25.9975L129.767 23.6661L121.891 22.2642L121.476 24.5956L129.352 25.9975ZM126.205 31.9331C127.881 30.309 128.944 28.2918 129.352 25.9975L121.476 24.5956C121.359 25.2544 121.093 25.7467 120.638 26.1885L126.205 31.9331Z" fill="#E7070E" mask="url(#path-9-outside-4_6311_44149)"/>
</g>
<g filter="url(#filter5_dd_6311_44149)">
<path d="M91.571 31.5773C88.6405 29.5486 84.8293 30.0155 82.4967 32.5552C81.1645 31.9169 79.6727 31.7191 78.2066 31.9996C76.3575 32.3533 74.7611 33.4169 73.7112 34.9942C71.6017 38.1616 72.3723 42.5389 75.4218 44.7932C75.4969 44.8607 75.5654 44.9085 75.614 44.9418L85.3847 51.7094C85.6222 51.8741 85.9135 51.9363 86.1947 51.8825C86.4759 51.8287 86.724 51.6633 86.884 51.4229L93.4742 41.5252C93.5062 41.4775 93.5523 41.4079 93.5978 41.3169C94.5515 39.7824 94.8883 37.9574 94.546 36.1679C94.1859 34.2858 93.1293 32.6556 91.571 31.5773ZM91.7401 40.1823C91.7167 40.2188 91.6956 40.2567 91.6766 40.2956L85.6969 49.277L76.8308 43.1355C76.7991 43.1063 76.7652 43.0789 76.7303 43.0535C74.5813 41.5031 74.0303 38.4438 75.5024 36.2333C76.2297 35.1405 77.337 34.4032 78.6195 34.1578C79.6712 33.9566 80.7406 34.1143 81.6875 34.5947L81.6975 38.7146C81.6986 39.0847 81.8824 39.4304 82.1872 39.6346L83.8608 40.7564L83.103 44.1371C82.9706 44.7276 83.335 45.3184 83.9163 45.457C84.0677 45.4929 84.219 45.4949 84.3619 45.4675C84.769 45.3896 85.1113 45.0754 85.2091 44.6387L86.1335 40.5135C86.2336 40.0662 86.049 39.6008 85.6707 39.3472L83.856 38.1308L83.8469 34.341C85.4351 32.3479 88.2323 31.9152 90.3641 33.39C91.4438 34.1375 92.1762 35.2678 92.426 36.5735C92.6663 37.8293 92.4225 39.1108 91.7401 40.1823Z" fill="url(#paint2_linear_6311_44149)"/>
<path d="M82.0496 30.2453C85.07 27.838 89.3573 27.6123 92.7094 29.9329C94.7039 31.3131 96.053 33.4016 96.5104 35.7921C96.9415 38.0457 96.527 40.3553 95.3376 42.3058C95.2531 42.4627 95.1752 42.5797 95.1366 42.6371C95.1358 42.6384 95.1349 42.6396 95.1341 42.6409L88.5488 52.5314C88.0944 53.2139 87.3842 53.6912 86.5705 53.8469C85.7563 54.0027 84.9201 53.8207 84.2459 53.3535C84.2457 53.3534 84.2455 53.3532 84.2452 53.3531L74.4829 46.5912C74.4816 46.5903 74.4803 46.5894 74.479 46.5885C74.4222 46.5495 74.3054 46.4689 74.168 46.3531C70.315 43.4513 69.3612 37.9182 72.0463 33.886L82.0496 30.2453ZM82.0496 30.2453C80.6921 29.8406 79.2506 29.7636 77.8308 30.0352C75.4507 30.4905 73.3917 31.865 72.0466 33.8855L82.0496 30.2453ZM77.9064 41.4359L77.9064 41.4359L77.9005 41.4316C76.6266 40.5125 76.289 38.6603 77.1671 37.3419L77.1674 37.3414C77.5991 36.6927 78.2432 36.2661 78.9954 36.1222C79.2272 36.0778 79.4604 36.0633 79.6911 36.0779L79.6975 38.7194L79.6975 38.7203C79.7005 39.7472 80.2098 40.717 81.0736 41.296C81.0737 41.296 81.0739 41.2961 81.074 41.2962L81.6097 41.6553L81.1522 43.696L78.054 41.5499C78.0039 41.5087 77.9545 41.4708 77.9064 41.4359ZM85.8489 35.1428C86.7991 34.3649 88.1424 34.2853 89.2257 35.0345C89.869 35.4797 90.309 36.1517 90.4616 36.9494C90.6066 37.7069 90.4599 38.4686 90.0539 39.1067C90.0184 39.1622 89.9858 39.2173 89.9557 39.2716L87.7033 42.6546L88.0851 40.9509L88.0853 40.95C88.3637 39.7053 87.8547 38.4034 86.7843 37.6859C86.7843 37.6859 86.7842 37.6859 86.7842 37.6859L85.8535 37.062L85.8489 35.1428Z" stroke="#E7070E" stroke-width="4" stroke-linejoin="round"/>
</g>
</g>
<defs>
<filter id="filter0_dd_6311_44149" x="9" y="49.3105" width="187" height="82" filterUnits="userSpaceOnUse" color-interpolation-filters="sRGB">
<feFlood flood-opacity="0" result="BackgroundImageFix"/>
<feColorMatrix in="SourceAlpha" type="matrix" values="0 0 0 0 0 0 0 0 0 0 0 0 0 0 0 0 0 0 127 0" result="hardAlpha"/>
<feOffset dy="8"/>
<feGaussianBlur stdDeviation="4"/>
<feComposite in2="hardAlpha" operator="out"/>
<feColorMatrix type="matrix" values="0 0 0 0 0 0 0 0 0 0 0 0 0 0 0 0 0 0 0.05 0"/>
<feBlend mode="normal" in2="BackgroundImageFix" result="effect1_dropShadow_6311_44149"/>
<feColorMatrix in="SourceAlpha" type="matrix" values="0 0 0 0 0 0 0 0 0 0 0 0 0 0 0 0 0 0 127 0" result="hardAlpha"/>
<feOffset dy="4"/>
<feGaussianBlur stdDeviation="2"/>
<feComposite in2="hardAlpha" operator="out"/>
<feColorMatrix type="matrix" values="0 0 0 0 0 0 0 0 0 0 0 0 0 0 0 0 0 0 0.15 0"/>
<feBlend mode="normal" in2="effect1_dropShadow_6311_44149" result="effect2_dropShadow_6311_44149"/>
<feBlend mode="normal" in="SourceGraphic" in2="effect2_dropShadow_6311_44149" result="shape"/>
</filter>
<filter id="filter1_df_6311_44149" x="0.0390625" y="36.7207" width="83.7715" height="86.7734" filterUnits="userSpaceOnUse" color-interpolation-filters="sRGB">
<feFlood flood-opacity="0" result="BackgroundImageFix"/>
<feColorMatrix in="SourceAlpha" type="matrix" values="0 0 0 0 0 0 0 0 0 0 0 0 0 0 0 0 0 0 127 0" result="hardAlpha"/>
<feOffset dy="8"/>
<feGaussianBlur stdDeviation="16"/>
<feComposite in2="hardAlpha" operator="out"/>
<feColorMatrix type="matrix" values="0 0 0 0 1 0 0 0 0 1 0 0 0 0 1 0 0 0 0.5 0"/>
<feBlend mode="normal" in2="BackgroundImageFix" result="effect1_dropShadow_6311_44149"/>
<feBlend mode="normal" in="SourceGraphic" in2="effect1_dropShadow_6311_44149" result="shape"/>
<feGaussianBlur stdDeviation="2" result="effect2_foregroundBlur_6311_44149"/>
</filter>
<filter id="filter2_dd_6311_44149" x="27.8379" y="60.8789" width="153.237" height="42.4316" filterUnits="userSpaceOnUse" color-interpolation-filters="sRGB">
<feFlood flood-opacity="0" result="BackgroundImageFix"/>
<feColorMatrix in="SourceAlpha" type="matrix" values="0 0 0 0 0 0 0 0 0 0 0 0 0 0 0 0 0 0 127 0" result="hardAlpha"/>
<feOffset dy="8"/>
<feGaussianBlur stdDeviation="4"/>
<feComposite in2="hardAlpha" operator="out"/>
<feColorMatrix type="matrix" values="0 0 0 0 0 0 0 0 0 0 0 0 0 0 0 0 0 0 0.05 0"/>
<feBlend mode="normal" in2="BackgroundImageFix" result="effect1_dropShadow_6311_44149"/>
<feColorMatrix in="SourceAlpha" type="matrix" values="0 0 0 0 0 0 0 0 0 0 0 0 0 0 0 0 0 0 127 0" result="hardAlpha"/>
<feOffset dy="4"/>
<feGaussianBlur stdDeviation="2"/>
<feComposite in2="hardAlpha" operator="out"/>
<feColorMatrix type="matrix" values="0 0 0 0 0 0 0 0 0 0 0 0 0 0 0 0 0 0 0.15 0"/>
<feBlend mode="normal" in2="effect1_dropShadow_6311_44149" result="effect2_dropShadow_6311_44149"/>
<feBlend mode="normal" in="SourceGraphic" in2="effect2_dropShadow_6311_44149" result="shape"/>
</filter>
<filter id="filter3_d_6311_44149" x="64.5205" y="0.660156" width="82.0518" height="70.1152" filterUnits="userSpaceOnUse" color-interpolation-filters="sRGB">
<feFlood flood-opacity="0" result="BackgroundImageFix"/>
<feColorMatrix in="SourceAlpha" type="matrix" values="0 0 0 0 0 0 0 0 0 0 0 0 0 0 0 0 0 0 127 0" result="hardAlpha"/>
<feOffset dx="4" dy="4"/>
<feGaussianBlur stdDeviation="4"/>
<feComposite in2="hardAlpha" operator="out"/>
<feColorMatrix type="matrix" values="0 0 0 0 0.905882 0 0 0 0 0.027451 0 0 0 0 0.054902 0 0 0 0.5 0"/>
<feBlend mode="normal" in2="BackgroundImageFix" result="effect1_dropShadow_6311_44149"/>
<feBlend mode="normal" in="SourceGraphic" in2="effect1_dropShadow_6311_44149" result="shape"/>
</filter>
<filter id="filter4_dd_6311_44149" x="75.9141" y="4.66016" width="66.6582" height="70.1152" filterUnits="userSpaceOnUse" color-interpolation-filters="sRGB">
<feFlood flood-opacity="0" result="BackgroundImageFix"/>
<feColorMatrix in="SourceAlpha" type="matrix" values="0 0 0 0 0 0 0 0 0 0 0 0 0 0 0 0 0 0 127 0" result="hardAlpha"/>
<feOffset dy="8"/>
<feGaussianBlur stdDeviation="4"/>
<feComposite in2="hardAlpha" operator="out"/>
<feColorMatrix type="matrix" values="0 0 0 0 0 0 0 0 0 0 0 0 0 0 0 0 0 0 0.05 0"/>
<feBlend mode="normal" in2="BackgroundImageFix" result="effect1_dropShadow_6311_44149"/>
<feColorMatrix in="SourceAlpha" type="matrix" values="0 0 0 0 0 0 0 0 0 0 0 0 0 0 0 0 0 0 127 0" result="hardAlpha"/>
<feOffset dy="4"/>
<feGaussianBlur stdDeviation="2"/>
<feComposite in2="hardAlpha" operator="out"/>
<feColorMatrix type="matrix" values="0 0 0 0 0 0 0 0 0 0 0 0 0 0 0 0 0 0 0.15 0"/>
<feBlend mode="normal" in2="effect1_dropShadow_6311_44149" result="effect2_dropShadow_6311_44149"/>
<feBlend mode="normal" in="SourceGraphic" in2="effect2_dropShadow_6311_44149" result="shape"/>
</filter>
<filter id="filter5_dd_6311_44149" x="60.5205" y="26.3105" width="46.1562" height="45.5918" filterUnits="userSpaceOnUse" color-interpolation-filters="sRGB">
<feFlood flood-opacity="0" result="BackgroundImageFix"/>
<feColorMatrix in="SourceAlpha" type="matrix" values="0 0 0 0 0 0 0 0 0 0 0 0 0 0 0 0 0 0 127 0" result="hardAlpha"/>
<feOffset dy="8"/>
<feGaussianBlur stdDeviation="4"/>
<feComposite in2="hardAlpha" operator="out"/>
<feColorMatrix type="matrix" values="0 0 0 0 0 0 0 0 0 0 0 0 0 0 0 0 0 0 0.05 0"/>
<feBlend mode="normal" in2="BackgroundImageFix" result="effect1_dropShadow_6311_44149"/>
<feColorMatrix in="SourceAlpha" type="matrix" values="0 0 0 0 0 0 0 0 0 0 0 0 0 0 0 0 0 0 127 0" result="hardAlpha"/>
<feOffset dy="4"/>
<feGaussianBlur stdDeviation="2"/>
<feComposite in2="hardAlpha" operator="out"/>
<feColorMatrix type="matrix" values="0 0 0 0 0 0 0 0 0 0 0 0 0 0 0 0 0 0 0.15 0"/>
<feBlend mode="normal" in2="effect1_dropShadow_6311_44149" result="effect2_dropShadow_6311_44149"/>
<feBlend mode="normal" in="SourceGraphic" in2="effect2_dropShadow_6311_44149" result="shape"/>
</filter>
<linearGradient id="paint0_linear_6311_44149" x1="102.5" y1="74.8105" x2="102.5" y2="96.3105" gradientUnits="userSpaceOnUse">
<stop stop-color="white"/>
</linearGradient>
<linearGradient id="paint1_linear_6311_44149" x1="107.435" y1="31.7174" x2="103.7" y2="52.7001" gradientUnits="userSpaceOnUse">
<stop stop-color="white"/>
</linearGradient>
<linearGradient id="paint2_linear_6311_44149" x1="84.2276" y1="41.5426" x2="86.2054" y2="51.8805" gradientUnits="userSpaceOnUse">
<stop stop-color="white"/>
</linearGradient>
</defs>
</svg>
