<svg width="48" height="49" viewBox="0 0 48 49" fill="none" xmlns="http://www.w3.org/2000/svg">
<path d="M22.9946 29.5613L23.0125 29.5698V29.55V19.7H23.0247L23.0063 19.6892C22.322 19.2886 21.5959 18.9882 20.8282 18.7879C20.0605 18.5876 19.2844 18.4875 18.5 18.4875C17.8992 18.4875 17.3025 18.5459 16.7101 18.6627C16.1176 18.7796 15.5459 18.9548 14.9951 19.1885L14.9875 19.1705V19.2V29.1V29.1175L15.0041 29.1118C15.5868 28.912 16.1653 28.7622 16.7396 28.6623C17.3139 28.5624 17.9007 28.5125 18.5 28.5125C19.2824 28.5125 20.0439 28.5999 20.7846 28.7747C21.5254 28.9494 22.262 29.2116 22.9946 29.5613ZM24.9875 29.55V29.5698L25.0054 29.5613C25.738 29.2116 26.4746 28.9494 27.2154 28.7747C27.9561 28.5999 28.7176 28.5125 29.5 28.5125C30.0993 28.5125 30.6861 28.5624 31.2604 28.6623C31.8347 28.7622 32.4132 28.912 32.9959 29.1118L33.0125 29.1175V29.1V19.2H33.032L33.0049 19.1885C32.4541 18.9548 31.8824 18.7796 31.2899 18.6627C30.6975 18.5459 30.1008 18.4875 29.5 18.4875C28.7156 18.4875 27.9395 18.5876 27.1718 18.7879C26.4041 18.9882 25.678 19.2886 24.9937 19.6892L24.9875 19.6786V19.7V29.55ZM13.5552 17.7114L13.5552 17.7114L13.5558 17.7111C14.3215 17.3116 15.1206 17.0119 15.9529 16.8122C16.7853 16.6124 17.6343 16.5125 18.5 16.5125C19.4656 16.5125 20.4103 16.6374 21.3342 16.8871C22.2581 17.1368 23.1446 17.5113 23.9937 18.0108L23.987 18.0222L24.0063 18.0108C24.8554 17.5113 25.7419 17.1368 26.6658 16.8871C27.5897 16.6374 28.5344 16.5125 29.5 16.5125C30.3657 16.5125 31.2147 16.6124 32.0471 16.8122C32.8794 17.0119 33.6785 17.3116 34.4442 17.7111L34.4442 17.7111L34.4448 17.7114C34.6259 17.7937 34.7613 17.9169 34.8515 18.081C34.9422 18.2459 34.9875 18.4189 34.9875 18.6V30.65C34.9875 31.029 34.8272 31.3166 34.5059 31.5144C34.1849 31.7119 33.8521 31.7203 33.5058 31.5389C32.8883 31.2052 32.2417 30.9465 31.5658 30.7629C30.8897 30.5793 30.2011 30.4875 29.5 30.4875C28.4985 30.4875 27.5304 30.6628 26.5956 31.0133C25.6641 31.3626 24.7988 31.8529 24 32.4841C23.2012 31.8529 22.3359 31.3626 21.4044 31.0133C20.4696 30.6628 19.5015 30.4875 18.5 30.4875C17.7989 30.4875 17.1103 30.5793 16.4342 30.7629C15.7583 30.9465 15.1116 31.2052 14.4941 31.539C14.1479 31.7203 13.8151 31.7119 13.4941 31.5144C13.1728 31.3166 13.0125 31.029 13.0125 30.65V18.6C13.0125 18.4189 13.0578 18.2459 13.1485 18.081C13.2387 17.9169 13.3741 17.7937 13.5552 17.7114ZM31.9875 20.3598V21.932C31.5923 21.7849 31.1931 21.6743 30.7898 21.6002C30.3806 21.5251 29.9507 21.4875 29.5 21.4875C28.8656 21.4875 28.2562 21.5668 27.6717 21.7254C27.0942 21.8822 26.5411 22.1001 26.0125 22.3792V20.7083C26.5593 20.4769 27.1185 20.3032 27.69 20.1873C28.2641 20.0708 28.8674 20.0125 29.5 20.0125C29.9327 20.0125 30.357 20.0458 30.773 20.1123C31.1861 20.1784 31.5909 20.2609 31.9875 20.3598ZM31.9875 25.8598V27.432C31.5923 27.2849 31.1931 27.1743 30.7898 27.1002C30.3806 27.0251 29.9507 26.9875 29.5 26.9875C28.8657 26.9875 28.2563 27.0626 27.6719 27.2129C27.0943 27.3614 26.5411 27.5834 26.0125 27.8787V26.2083C26.5593 25.9769 27.1185 25.8032 27.69 25.6873C28.2641 25.5708 28.8674 25.5125 29.5 25.5125C29.9327 25.5125 30.357 25.5458 30.773 25.6123C31.1861 25.6784 31.5909 25.7609 31.9875 25.8598ZM31.9875 23.1098V24.682C31.5923 24.5349 31.1931 24.4243 30.7898 24.3502C30.3806 24.2751 29.9507 24.2375 29.5 24.2375C28.8656 24.2375 28.2562 24.3168 27.6717 24.4754C27.0942 24.6322 26.5411 24.8501 26.0125 25.1292V23.4583C26.5593 23.2269 27.1185 23.0532 27.69 22.9373C28.2641 22.8208 28.8674 22.7625 29.5 22.7625C29.9327 22.7625 30.357 22.7958 30.773 22.8623C31.1861 22.9284 31.5909 23.0109 31.9875 23.1098Z" fill="#333333" stroke="#333333" stroke-width="0.025"/>
</svg>
