<svg width="33" height="29" viewBox="0 0 33 29" fill="none" xmlns="http://www.w3.org/2000/svg">
<g filter="url(#filter0_dd_9719_27681)">
<path d="M24.0001 7.66785C23.7791 7.66785 23.5671 7.75564 23.4108 7.91192C23.2545 8.0682 23.1668 8.28017 23.1668 8.50118C23.1767 10.062 22.642 11.5775 21.6548 12.7866C20.6676 13.9956 19.2897 14.8226 17.7584 15.125C16.2271 15.4275 14.6382 15.1865 13.2655 14.4435C11.8928 13.7005 10.8221 12.5021 10.2379 11.0547C9.65362 9.6073 9.59241 8.00144 10.0648 6.51374C10.5371 5.02604 11.5135 3.74963 12.8257 2.90433C14.1379 2.05903 15.7037 1.69777 17.2536 1.88277C18.8035 2.06777 20.2404 2.78745 21.3168 3.91785H19.3168C19.0957 3.91785 18.8838 4.00564 18.7275 4.16192C18.5712 4.3182 18.4834 4.53017 18.4834 4.75118C18.4834 4.97219 18.5712 5.18415 18.7275 5.34044C18.8838 5.49672 19.0957 5.58451 19.3168 5.58451H23.0918C23.3128 5.58451 23.5247 5.49672 23.681 5.34044C23.8373 5.18415 23.9251 4.97219 23.9251 4.75118V1.00118C23.9251 0.780166 23.8373 0.568204 23.681 0.411924C23.5247 0.255644 23.3128 0.167846 23.0918 0.167846C22.8707 0.167846 22.6588 0.255644 22.5025 0.411924C22.3462 0.568204 22.2584 0.780166 22.2584 1.00118V2.47618C20.8706 1.14956 19.0674 0.342807 17.1534 0.192287C15.2395 0.0417679 13.3323 0.556717 11.7542 1.65009C10.1761 2.74346 9.02392 4.34819 8.49244 6.193C7.96096 8.03782 8.08276 10.0096 8.83726 11.775C9.59176 13.5403 10.9327 14.9911 12.6333 15.8819C14.334 16.7727 16.2901 17.049 18.1709 16.6641C20.0518 16.2791 21.7421 15.2566 22.956 13.7692C24.17 12.2819 24.8331 10.421 24.8334 8.50118C24.8334 8.28017 24.7456 8.0682 24.5893 7.91192C24.4331 7.75564 24.2211 7.66785 24.0001 7.66785Z" fill="white"/>
<path d="M22.4833 4.41785H21.3168H19.3168C19.2283 4.41785 19.1436 4.45297 19.081 4.51548C19.0185 4.57799 18.9834 4.66278 18.9834 4.75118C18.9834 4.83958 19.0185 4.92437 19.081 4.98688C19.1436 5.04939 19.2283 5.08451 19.3168 5.08451H23.0918C23.1802 5.08451 23.2649 5.04939 23.3275 4.98688C23.39 4.92437 23.4251 4.83959 23.4251 4.75118V1.00118C23.4251 0.912774 23.39 0.827989 23.3275 0.765477C23.2649 0.702966 23.1802 0.667846 23.0918 0.667846C23.0033 0.667846 22.9186 0.702966 22.856 0.765478C22.7935 0.827989 22.7584 0.912774 22.7584 1.00118V2.47618V3.64585L21.9129 2.83761C20.6084 1.59059 18.9133 0.832237 17.1142 0.690748C15.3151 0.54926 13.5223 1.03331 12.0389 2.06108C10.5555 3.08885 9.47249 4.59729 8.9729 6.33142C8.4733 8.06555 8.5878 9.919 9.29703 11.5785C10.0063 13.2379 11.2667 14.6016 12.8653 15.439C14.464 16.2764 16.3027 16.5361 18.0707 16.1742C19.8387 15.8124 21.4276 14.8512 22.5687 13.4531C23.7098 12.055 24.3331 10.3058 24.3334 8.50118L22.4833 4.41785ZM22.4833 4.41785L21.6789 3.57305M22.4833 4.41785L21.6789 3.57305M21.6789 3.57305C20.5223 2.3584 18.9783 1.58508 17.3129 1.3863C15.6475 1.18751 13.9649 1.57569 12.5549 2.48399C11.1449 3.39229 10.0958 4.76385 9.58821 6.36243C9.08065 7.96102 9.14642 9.68656 9.7742 11.2419C10.402 12.7972 11.5525 14.0849 13.0275 14.8832C14.5026 15.6816 16.2098 15.9405 17.8553 15.6155C19.5007 15.2906 20.9813 14.402 22.0421 13.1028C23.1024 11.8041 23.6769 10.1765 23.6668 8.50002M21.6789 3.57305L23.6668 8.50002M23.6668 8.50002C23.6671 8.41203 23.7021 8.32771 23.7644 8.26548C23.8269 8.20297 23.9117 8.16785 24.0001 8.16785C24.0885 8.16785 24.1733 8.20297 24.2358 8.26548C24.2983 8.32797 24.3334 8.41273 24.3334 8.50111L23.6668 8.50002Z" stroke="url(#paint0_linear_9719_27681)"/>
</g>
<defs>
<filter id="filter0_dd_9719_27681" x="0.166748" y="0.166626" width="32.6667" height="32.6667" filterUnits="userSpaceOnUse" color-interpolation-filters="sRGB">
<feFlood flood-opacity="0" result="BackgroundImageFix"/>
<feColorMatrix in="SourceAlpha" type="matrix" values="0 0 0 0 0 0 0 0 0 0 0 0 0 0 0 0 0 0 127 0" result="hardAlpha"/>
<feOffset dy="8"/>
<feGaussianBlur stdDeviation="4"/>
<feComposite in2="hardAlpha" operator="out"/>
<feColorMatrix type="matrix" values="0 0 0 0 0 0 0 0 0 0 0 0 0 0 0 0 0 0 0.05 0"/>
<feBlend mode="normal" in2="BackgroundImageFix" result="effect1_dropShadow_9719_27681"/>
<feColorMatrix in="SourceAlpha" type="matrix" values="0 0 0 0 0 0 0 0 0 0 0 0 0 0 0 0 0 0 127 0" result="hardAlpha"/>
<feOffset dy="4"/>
<feGaussianBlur stdDeviation="2"/>
<feComposite in2="hardAlpha" operator="out"/>
<feColorMatrix type="matrix" values="0 0 0 0 0 0 0 0 0 0 0 0 0 0 0 0 0 0 0.15 0"/>
<feBlend mode="normal" in2="effect1_dropShadow_9719_27681" result="effect2_dropShadow_9719_27681"/>
<feBlend mode="normal" in="SourceGraphic" in2="effect2_dropShadow_9719_27681" result="shape"/>
</filter>
<linearGradient id="paint0_linear_9719_27681" x1="16.5001" y1="8.49997" x2="16.5001" y2="16.8333" gradientUnits="userSpaceOnUse">
<stop stop-color="white"/>
</linearGradient>
</defs>
</svg>
