<svg width="21" height="21" viewBox="0 0 21 21" fill="none" xmlns="http://www.w3.org/2000/svg">
<path d="M15.5 6.33332H15.2083C15.3985 5.94396 15.4982 5.51665 15.5 5.08332C15.5025 4.50276 15.3312 3.93473 15.0082 3.45235C14.6851 2.96997 14.2251 2.59531 13.6873 2.37661C13.1495 2.1579 12.5585 2.10516 11.9905 2.22517C11.4225 2.34518 10.9034 2.63244 10.5 3.04999C10.0966 2.63244 9.57751 2.34518 9.00948 2.22517C8.44146 2.10516 7.85051 2.1579 7.31271 2.37661C6.77491 2.59531 6.31488 2.96997 5.99182 3.45235C5.66877 3.93473 5.49748 4.50276 5.5 5.08332C5.50178 5.51665 5.60149 5.94396 5.79167 6.33332H5.5C4.83696 6.33332 4.20107 6.59672 3.73223 7.06556C3.26339 7.5344 3 8.17028 3 8.83332V10.5C3 10.721 3.0878 10.933 3.24408 11.0892C3.40036 11.2455 3.61232 11.3333 3.83333 11.3333H4.66667V16.3333C4.66667 16.9964 4.93006 17.6323 5.3989 18.1011C5.86774 18.5699 6.50363 18.8333 7.16667 18.8333H13.8333C14.4964 18.8333 15.1323 18.5699 15.6011 18.1011C16.0699 17.6323 16.3333 16.9964 16.3333 16.3333V11.3333H17.1667C17.3877 11.3333 17.5996 11.2455 17.7559 11.0892C17.9122 10.933 18 10.721 18 10.5V8.83332C18 8.17028 17.7366 7.5344 17.2678 7.06556C16.7989 6.59672 16.163 6.33332 15.5 6.33332ZM9.66667 17.1667H7.16667C6.94565 17.1667 6.73369 17.0789 6.57741 16.9226C6.42113 16.7663 6.33333 16.5543 6.33333 16.3333V11.3333H9.66667V17.1667ZM9.66667 9.66666H4.66667V8.83332C4.66667 8.61231 4.75446 8.40035 4.91074 8.24407C5.06702 8.08779 5.27899 7.99999 5.5 7.99999H9.66667V9.66666ZM9.66667 6.33332H8.41667C8.16944 6.33332 7.92777 6.26001 7.7222 6.12266C7.51664 5.98531 7.35643 5.79009 7.26182 5.56168C7.16721 5.33327 7.14245 5.08194 7.19068 4.83946C7.23892 4.59698 7.35797 4.37426 7.53278 4.19944C7.7076 4.02462 7.93033 3.90557 8.1728 3.85734C8.41528 3.80911 8.66661 3.83386 8.89502 3.92847C9.12343 4.02308 9.31865 4.1833 9.456 4.38886C9.59336 4.59442 9.66667 4.8361 9.66667 5.08332V6.33332ZM11.3333 5.08332C11.3333 4.8361 11.4066 4.59442 11.544 4.38886C11.6813 4.1833 11.8766 4.02308 12.105 3.92847C12.3334 3.83386 12.5847 3.80911 12.8272 3.85734C13.0697 3.90557 13.2924 4.02462 13.4672 4.19944C13.642 4.37426 13.7611 4.59698 13.8093 4.83946C13.8575 5.08194 13.8328 5.33327 13.7382 5.56168C13.6436 5.79009 13.4834 5.98531 13.2778 6.12266C13.0722 6.26001 12.8306 6.33332 12.5833 6.33332H11.3333V5.08332ZM14.6667 16.3333C14.6667 16.5543 14.5789 16.7663 14.4226 16.9226C14.2663 17.0789 14.0543 17.1667 13.8333 17.1667H11.3333V11.3333H14.6667V16.3333ZM16.3333 9.66666H11.3333V7.99999H15.5C15.721 7.99999 15.933 8.08779 16.0893 8.24407C16.2455 8.40035 16.3333 8.61231 16.3333 8.83332V9.66666Z" fill="url(#paint0_linear_10507_90065)"/>
<defs>
<linearGradient id="paint0_linear_10507_90065" x1="10.5" y1="10.4978" x2="10.5" y2="18.8333" gradientUnits="userSpaceOnUse">
<stop stop-color="white"/>
</linearGradient>
</defs>
</svg>
