<svg width="16" height="16" viewBox="0 0 16 16" fill="none" xmlns="http://www.w3.org/2000/svg">
<path d="M7.99992 4.00004C7.91237 4.00002 7.82567 4.01725 7.74477 4.05074C7.66388 4.08424 7.59038 4.13334 7.52847 4.19525C7.46656 4.25716 7.41745 4.33066 7.38396 4.41156C7.35046 4.49245 7.33323 4.57915 7.33326 4.66671V7.33337H5.99992C5.82311 7.33337 5.65354 7.40361 5.52852 7.52864C5.40349 7.65366 5.33325 7.82323 5.33325 8.00004C5.33325 8.17685 5.40349 8.34642 5.52852 8.47145C5.65354 8.59647 5.82311 8.66671 5.99992 8.66671H7.99992C8.08748 8.66673 8.17418 8.6495 8.25507 8.61601C8.33597 8.58251 8.40947 8.53341 8.47138 8.4715C8.53329 8.40959 8.58239 8.33608 8.61589 8.25519C8.64938 8.1743 8.66661 8.08759 8.66659 8.00004V4.66671C8.66661 4.57915 8.64938 4.49245 8.61589 4.41156C8.58239 4.33066 8.53329 4.25716 8.47138 4.19525C8.40947 4.13334 8.33597 4.08424 8.25507 4.05074C8.17418 4.01725 8.08748 4.00002 7.99992 4.00004ZM7.99992 1.33337C6.68138 1.33337 5.39245 1.72437 4.29612 2.45691C3.19979 3.18945 2.34531 4.23064 1.84072 5.44882C1.33614 6.66699 1.20412 8.00744 1.46135 9.30064C1.71859 10.5938 2.35353 11.7817 3.28588 12.7141C4.21823 13.6464 5.40611 14.2814 6.69932 14.5386C7.99253 14.7958 9.33297 14.6638 10.5511 14.1592C11.7693 13.6547 12.8105 12.8002 13.5431 11.7038C14.2756 10.6075 14.6666 9.31858 14.6666 8.00004C14.6646 6.23255 13.9615 4.53803 12.7117 3.28823C11.4619 2.03842 9.76741 1.3354 7.99992 1.33337ZM7.99992 13.3334C6.94509 13.3334 5.91394 13.0206 5.03688 12.4345C4.15982 11.8485 3.47623 11.0156 3.07256 10.041C2.6689 9.06648 2.56328 7.99412 2.76907 6.95956C2.97485 5.92499 3.48281 4.97468 4.22869 4.2288C4.97457 3.48292 5.92487 2.97497 6.95944 2.76919C7.99401 2.5634 9.06636 2.66902 10.0409 3.07268C11.0154 3.47635 11.8484 4.15994 12.4344 5.037C13.0205 5.91406 13.3333 6.94521 13.3333 8.00004C13.3316 9.41403 12.7692 10.7696 11.7694 11.7695C10.7695 12.7693 9.41391 13.3318 7.99992 13.3334Z" fill="#333333"/>
</svg>
