<svg width="20" height="21" viewBox="0 0 20 21" fill="none" xmlns="http://www.w3.org/2000/svg">
<path d="M11.5981 18.6838H5.86173C5.54814 18.6838 5.28809 18.4238 5.28809 18.1102C5.28809 17.7966 5.54814 17.5366 5.86173 17.5366H11.5981C14.451 17.5366 16.7609 15.2267 16.7609 12.3738C16.7609 9.5209 14.451 7.21104 11.5981 7.21104H3.87311L6.42007 9.24555C6.66483 9.44441 6.71071 9.80389 6.51185 10.0486C6.31299 10.2934 5.95351 10.3393 5.70875 10.1404L1.88449 7.08102C1.59384 6.85156 1.59384 6.4156 1.88449 6.18614L5.70875 3.12673C5.95351 2.92787 6.32064 2.9661 6.51185 3.21851C6.71071 3.46326 6.67247 3.83039 6.42007 4.0216L3.87311 6.05611H11.5981C15.0859 6.05611 17.9082 8.87842 17.9082 12.3662C17.9082 15.8539 15.0859 18.6762 11.5981 18.6762V18.6838Z" fill="#333333" stroke="#333333"/>
</svg>
