<svg width="18" height="17" viewBox="0 0 18 17" fill="none" xmlns="http://www.w3.org/2000/svg">
<rect x="1" y="0.5" width="16" height="16" rx="8" fill="#FCD401"/>
<rect x="1" y="0.5" width="16" height="16" rx="8" stroke="url(#paint0_linear_9547_97347)"/>
<path d="M9 9C8.86739 9 8.74021 9.05268 8.64645 9.14645C8.55268 9.24021 8.5 9.36739 8.5 9.5V11C8.5 11.1326 8.55268 11.2598 8.64645 11.3536C8.74021 11.4473 8.86739 11.5 9 11.5C9.13261 11.5 9.25979 11.4473 9.35355 11.3536C9.44732 11.2598 9.5 11.1326 9.5 11V9.5C9.5 9.36739 9.44732 9.24021 9.35355 9.14645C9.25979 9.05268 9.13261 9 9 9ZM11.5 7V6C11.5 5.33696 11.2366 4.70107 10.7678 4.23223C10.2989 3.76339 9.66304 3.5 9 3.5C8.33696 3.5 7.70107 3.76339 7.23223 4.23223C6.76339 4.70107 6.5 5.33696 6.5 6V7C6.10218 7 5.72064 7.15804 5.43934 7.43934C5.15804 7.72064 5 8.10218 5 8.5V12C5 12.3978 5.15804 12.7794 5.43934 13.0607C5.72064 13.342 6.10218 13.5 6.5 13.5H11.5C11.8978 13.5 12.2794 13.342 12.5607 13.0607C12.842 12.7794 13 12.3978 13 12V8.5C13 8.10218 12.842 7.72064 12.5607 7.43934C12.2794 7.15804 11.8978 7 11.5 7ZM7.5 6C7.5 5.60218 7.65804 5.22064 7.93934 4.93934C8.22064 4.65804 8.60218 4.5 9 4.5C9.39782 4.5 9.77936 4.65804 10.0607 4.93934C10.342 5.22064 10.5 5.60218 10.5 6V7H7.5V6ZM12 12C12 12.1326 11.9473 12.2598 11.8536 12.3536C11.7598 12.4473 11.6326 12.5 11.5 12.5H6.5C6.36739 12.5 6.24021 12.4473 6.14645 12.3536C6.05268 12.2598 6 12.1326 6 12V8.5C6 8.36739 6.05268 8.24021 6.14645 8.14645C6.24021 8.05268 6.36739 8 6.5 8H11.5C11.6326 8 11.7598 8.05268 11.8536 8.14645C11.9473 8.24021 12 8.36739 12 8.5V12Z" fill="#FF6B00"/>
<defs>
<linearGradient id="paint0_linear_9547_97347" x1="9" y1="8.5" x2="9" y2="16.5" gradientUnits="userSpaceOnUse">
<stop stop-color="white"/>
</linearGradient>
</defs>
</svg>
