<svg width="33" height="31" viewBox="0 0 33 31" fill="none" xmlns="http://www.w3.org/2000/svg">
<g filter="url(#filter0_dd_10273_28010)">
<path d="M24.0001 9.66785C23.7791 9.66785 23.5671 9.75564 23.4108 9.91192C23.2545 10.0682 23.1668 10.2802 23.1668 10.5012C23.1767 12.062 22.642 13.5775 21.6548 14.7866C20.6676 15.9956 19.2897 16.8226 17.7584 17.125C16.2271 17.4275 14.6382 17.1865 13.2655 16.4435C11.8928 15.7005 10.8221 14.5021 10.2379 13.0547C9.65362 11.6073 9.59241 10.0014 10.0648 8.51374C10.5371 7.02604 11.5135 5.74963 12.8257 4.90433C14.1379 4.05903 15.7037 3.69777 17.2536 3.88277C18.8035 4.06777 20.2404 4.78745 21.3168 5.91785H19.3168C19.0957 5.91785 18.8838 6.00564 18.7275 6.16192C18.5712 6.3182 18.4834 6.53017 18.4834 6.75118C18.4834 6.97219 18.5712 7.18415 18.7275 7.34044C18.8838 7.49672 19.0957 7.58451 19.3168 7.58451H23.0918C23.3128 7.58451 23.5247 7.49672 23.681 7.34044C23.8373 7.18415 23.9251 6.97219 23.9251 6.75118V3.00118C23.9251 2.78017 23.8373 2.5682 23.681 2.41192C23.5247 2.25564 23.3128 2.16785 23.0918 2.16785C22.8707 2.16785 22.6588 2.25564 22.5025 2.41192C22.3462 2.5682 22.2584 2.78017 22.2584 3.00118V4.47618C20.8706 3.14956 19.0674 2.34281 17.1534 2.19229C15.2395 2.04177 13.3323 2.55672 11.7542 3.65009C10.1761 4.74346 9.02392 6.34819 8.49244 8.193C7.96096 10.0378 8.08276 12.0096 8.83726 13.775C9.59176 15.5403 10.9327 16.9911 12.6333 17.8819C14.334 18.7727 16.2901 19.049 18.1709 18.6641C20.0518 18.2791 21.7421 17.2566 22.956 15.7692C24.17 14.2819 24.8331 12.421 24.8334 10.5012C24.8334 10.2802 24.7456 10.0682 24.5893 9.91192C24.4331 9.75564 24.2211 9.66785 24.0001 9.66785Z" fill="white"/>
<path d="M22.4833 6.41785H21.3168H19.3168C19.2283 6.41785 19.1436 6.45297 19.081 6.51548C19.0185 6.57799 18.9834 6.66278 18.9834 6.75118C18.9834 6.83958 19.0185 6.92437 19.081 6.98688C19.1436 7.04939 19.2283 7.08451 19.3168 7.08451H23.0918C23.1802 7.08451 23.2649 7.04939 23.3275 6.98688C23.39 6.92437 23.4251 6.83959 23.4251 6.75118V3.00118C23.4251 2.91277 23.39 2.82799 23.3275 2.76548C23.2649 2.70297 23.1802 2.66785 23.0918 2.66785C23.0033 2.66785 22.9186 2.70297 22.856 2.76548C22.7935 2.82799 22.7584 2.91277 22.7584 3.00118V4.47618V5.64585L21.9129 4.83761C20.6084 3.59059 18.9133 2.83224 17.1142 2.69075C15.3151 2.54926 13.5223 3.03331 12.0389 4.06108C10.5555 5.08885 9.47249 6.59729 8.9729 8.33142C8.4733 10.0656 8.5878 11.919 9.29703 13.5785C10.0063 15.2379 11.2667 16.6016 12.8653 17.439C14.464 18.2764 16.3027 18.5361 18.0707 18.1742C19.8387 17.8124 21.4276 16.8512 22.5687 15.4531C23.7098 14.055 24.3331 12.3058 24.3334 10.5012L22.4833 6.41785ZM22.4833 6.41785L21.6789 5.57305M22.4833 6.41785L21.6789 5.57305M21.6789 5.57305C20.5223 4.3584 18.9783 3.58508 17.3129 3.3863C15.6475 3.18751 13.9649 3.57569 12.5549 4.48399C11.1449 5.39229 10.0958 6.76385 9.58821 8.36243C9.08065 9.96102 9.14642 11.6866 9.7742 13.2419C10.402 14.7972 11.5525 16.0849 13.0275 16.8832C14.5026 17.6816 16.2098 17.9405 17.8553 17.6155C19.5007 17.2906 20.9813 16.402 22.0421 15.1028C23.1024 13.8041 23.6769 12.1765 23.6668 10.5M21.6789 5.57305L23.6668 10.5M23.6668 10.5C23.6671 10.412 23.7021 10.3277 23.7644 10.2655C23.8269 10.203 23.9117 10.1678 24.0001 10.1678C24.0885 10.1678 24.1733 10.203 24.2358 10.2655C24.2983 10.328 24.3334 10.4127 24.3334 10.5011L23.6668 10.5Z" stroke="url(#paint0_linear_10273_28010)"/>
</g>
<defs>
<filter id="filter0_dd_10273_28010" x="0.166748" y="2.16663" width="32.6667" height="32.6667" filterUnits="userSpaceOnUse" color-interpolation-filters="sRGB">
<feFlood flood-opacity="0" result="BackgroundImageFix"/>
<feColorMatrix in="SourceAlpha" type="matrix" values="0 0 0 0 0 0 0 0 0 0 0 0 0 0 0 0 0 0 127 0" result="hardAlpha"/>
<feOffset dy="8"/>
<feGaussianBlur stdDeviation="4"/>
<feComposite in2="hardAlpha" operator="out"/>
<feColorMatrix type="matrix" values="0 0 0 0 0 0 0 0 0 0 0 0 0 0 0 0 0 0 0.05 0"/>
<feBlend mode="normal" in2="BackgroundImageFix" result="effect1_dropShadow_10273_28010"/>
<feColorMatrix in="SourceAlpha" type="matrix" values="0 0 0 0 0 0 0 0 0 0 0 0 0 0 0 0 0 0 127 0" result="hardAlpha"/>
<feOffset dy="4"/>
<feGaussianBlur stdDeviation="2"/>
<feComposite in2="hardAlpha" operator="out"/>
<feColorMatrix type="matrix" values="0 0 0 0 0 0 0 0 0 0 0 0 0 0 0 0 0 0 0.15 0"/>
<feBlend mode="normal" in2="effect1_dropShadow_10273_28010" result="effect2_dropShadow_10273_28010"/>
<feBlend mode="normal" in="SourceGraphic" in2="effect2_dropShadow_10273_28010" result="shape"/>
</filter>
<linearGradient id="paint0_linear_10273_28010" x1="16.5001" y1="10.5" x2="16.5001" y2="18.8333" gradientUnits="userSpaceOnUse">
<stop stop-color="white"/>
</linearGradient>
</defs>
</svg>
