<svg width="235" height="56" viewBox="0 0 235 56" fill="none" xmlns="http://www.w3.org/2000/svg">
<g filter="url(#filter0_dd_6282_42281)">
<mask id="path-1-inside-1_6282_42281" fill="white">
<path d="M27 36.5C27 27.6634 34.1634 20.5 43 20.5H211C219.837 20.5 227 27.6634 227 36.5C227 45.3366 219.837 52.5 211 52.5H43C34.1634 52.5 27 45.3366 27 36.5Z"/>
</mask>
<path d="M27 36.5C27 27.6634 34.1634 20.5 43 20.5H211C219.837 20.5 227 27.6634 227 36.5C227 45.3366 219.837 52.5 211 52.5H43C34.1634 52.5 27 45.3366 27 36.5Z" fill="#1762F3" shape-rendering="crispEdges"/>
<path d="M27 20.5H227H27ZM227 36.5C227 46.4411 218.941 54.5 209 54.5H45C35.0589 54.5 27 46.4411 27 36.5C27 44.232 34.1634 50.5 43 50.5H211C219.837 50.5 227 44.232 227 36.5ZM27 52.5V20.5V52.5ZM227 20.5V52.5V20.5Z" fill="#6F86F6" mask="url(#path-1-inside-1_6282_42281)"/>
<mask id="path-3-inside-2_6282_42281" fill="white">
<path d="M27 36.5C27 27.6634 34.1634 20.5 43 20.5H211C219.837 20.5 227 27.6634 227 36.5C227 45.3366 219.837 52.5 211 52.5H43C34.1634 52.5 27 45.3366 27 36.5Z"/>
</mask>
<path d="M27 20.5H227H27ZM227 36.5C227 47.5457 218.046 56.5 207 56.5H47C35.9543 56.5 27 47.5457 27 36.5C27 43.1274 34.1634 48.5 43 48.5H211C219.837 48.5 227 43.1274 227 36.5ZM27 52.5V20.5V52.5ZM227 20.5V52.5V20.5Z" fill="black" fill-opacity="0.05" mask="url(#path-3-inside-2_6282_42281)"/>
<g filter="url(#filter1_dd_6282_42281)">
<mask id="path-5-outside-3_6282_42281" maskUnits="userSpaceOnUse" x="101" y="27.5" width="53" height="15" fill="black">
<rect fill="white" x="101" y="27.5" width="53" height="15"/>
<path d="M104.071 40.63C103.681 40.63 103.351 40.5693 103.083 40.448C102.814 40.3267 102.61 40.1447 102.472 39.902C102.333 39.6507 102.264 39.3387 102.264 38.966V33.376H104.214V38.732C104.214 38.8967 104.248 39.018 104.318 39.096C104.396 39.174 104.513 39.213 104.669 39.213C104.738 39.213 104.812 39.2043 104.89 39.187C104.968 39.1697 105.041 39.148 105.111 39.122L105.293 40.37C105.128 40.4567 104.942 40.5217 104.734 40.565C104.526 40.6083 104.305 40.63 104.071 40.63ZM109.018 40.669C108.047 40.669 107.315 40.4523 106.821 40.019C106.327 39.5857 106.08 38.953 106.08 38.121V37.601C106.08 37.2457 106.128 36.9553 106.223 36.73C106.318 36.496 106.435 36.2837 106.574 36.093C106.713 35.9023 106.825 35.7333 106.912 35.586C107.007 35.43 107.055 35.2697 107.055 35.105C107.055 34.949 107.016 34.8407 106.938 34.78C106.869 34.7107 106.773 34.676 106.652 34.676C106.565 34.676 106.474 34.689 106.379 34.715C106.292 34.741 106.193 34.78 106.08 34.832L105.768 33.61C106.011 33.48 106.271 33.3933 106.548 33.35C106.834 33.298 107.085 33.272 107.302 33.272C107.683 33.272 107.987 33.3327 108.212 33.454C108.446 33.5753 108.615 33.7487 108.719 33.974C108.823 34.1993 108.875 34.468 108.875 34.78C108.875 35.0487 108.836 35.287 108.758 35.495C108.68 35.6943 108.58 35.9023 108.459 36.119C108.346 36.3183 108.242 36.5047 108.147 36.678C108.06 36.8513 108.017 37.1027 108.017 37.432V37.952C108.017 38.2293 108.056 38.459 108.134 38.641C108.221 38.8143 108.338 38.9443 108.485 39.031C108.641 39.109 108.823 39.148 109.031 39.148C109.369 39.148 109.62 39.0527 109.785 38.862C109.95 38.6627 110.032 38.381 110.032 38.017V33.376H111.969V38.069C111.969 38.927 111.718 39.577 111.215 40.019C110.712 40.4523 109.98 40.669 109.018 40.669ZM108.038 32.401V31.751C108.159 31.7163 108.293 31.6687 108.441 31.608C108.588 31.5473 108.718 31.465 108.831 31.361C108.943 31.257 109 31.127 109 30.971C109 30.8497 108.965 30.7543 108.896 30.685C108.826 30.6157 108.74 30.581 108.636 30.581C108.566 30.581 108.493 30.594 108.415 30.62C108.337 30.646 108.267 30.672 108.207 30.698L107.96 29.827C108.133 29.6797 108.35 29.5843 108.61 29.541C108.861 29.489 109.073 29.463 109.247 29.463C109.637 29.463 109.944 29.554 110.17 29.736C110.386 29.918 110.495 30.1867 110.495 30.542C110.495 30.7327 110.447 30.9103 110.352 31.075C110.248 31.2397 110.092 31.374 109.884 31.478L109.832 31.14H112.289V32.401H108.038ZM115.671 40.5V35.794C115.671 35.43 115.585 35.1657 115.411 35.001C115.247 34.8363 114.974 34.754 114.592 34.754C114.306 34.754 114.042 34.793 113.799 34.871C113.565 34.949 113.344 35.0443 113.136 35.157V33.597C113.327 33.5103 113.596 33.4237 113.942 33.337C114.289 33.2503 114.696 33.207 115.164 33.207C115.641 33.207 116.061 33.2763 116.425 33.415C116.798 33.5537 117.088 33.7877 117.296 34.117C117.513 34.4377 117.621 34.8797 117.621 35.443V40.5H115.671ZM121.438 40.63C121.048 40.63 120.719 40.5693 120.45 40.448C120.181 40.3267 119.978 40.1447 119.839 39.902C119.7 39.6507 119.631 39.3387 119.631 38.966V34.156C119.631 33.9307 119.644 33.7443 119.67 33.597C119.705 33.4497 119.765 33.311 119.852 33.181C119.939 33.0423 120.064 32.8777 120.229 32.687C120.402 32.4877 120.545 32.3143 120.658 32.167C120.771 32.0197 120.827 31.8507 120.827 31.66C120.827 31.4607 120.753 31.3047 120.606 31.192C120.467 31.0707 120.246 31.01 119.943 31.01C119.709 31.01 119.501 31.0403 119.319 31.101C119.137 31.1617 118.972 31.2397 118.825 31.335V29.892C118.946 29.8227 119.163 29.7447 119.475 29.658C119.796 29.5627 120.181 29.515 120.632 29.515C121.317 29.515 121.858 29.658 122.257 29.944C122.656 30.23 122.855 30.659 122.855 31.231C122.855 31.5777 122.786 31.881 122.647 32.141C122.517 32.401 122.378 32.6307 122.231 32.83C122.092 33.0207 121.971 33.181 121.867 33.311C121.772 33.4323 121.698 33.558 121.646 33.688C121.603 33.818 121.581 33.9913 121.581 34.208V38.732C121.581 38.8967 121.616 39.018 121.685 39.096C121.763 39.174 121.876 39.213 122.023 39.213C122.092 39.213 122.166 39.2043 122.244 39.187C122.331 39.1697 122.409 39.148 122.478 39.122L122.66 40.37C122.495 40.4567 122.309 40.5217 122.101 40.565C121.893 40.6083 121.672 40.63 121.438 40.63ZM124.325 40.5V37.51H123.584V36.314H126.08V39.018H126.171C126.457 39.018 126.699 38.94 126.899 38.784C127.107 38.628 127.263 38.3983 127.367 38.095C127.471 37.783 127.523 37.393 127.523 36.925C127.523 36.3877 127.445 35.963 127.289 35.651C127.141 35.3303 126.92 35.1007 126.626 34.962C126.331 34.8233 125.967 34.754 125.534 34.754C125.083 34.754 124.676 34.819 124.312 34.949C123.948 35.0703 123.623 35.2177 123.337 35.391V33.766C123.623 33.6187 123.982 33.4887 124.416 33.376C124.849 33.2633 125.347 33.207 125.911 33.207C126.751 33.207 127.432 33.3413 127.952 33.61C128.48 33.8787 128.87 34.286 129.122 34.832C129.373 35.378 129.499 36.0627 129.499 36.886C129.499 37.6573 129.382 38.316 129.148 38.862C128.922 39.3993 128.55 39.8067 128.03 40.084C127.518 40.3613 126.834 40.5 125.976 40.5H124.325ZM133.003 40.63C132.613 40.63 132.284 40.5693 132.015 40.448C131.747 40.3267 131.543 40.1447 131.404 39.902C131.266 39.6507 131.196 39.3387 131.196 38.966V33.376H133.146V38.732C133.146 38.8967 133.181 39.018 133.25 39.096C133.328 39.174 133.445 39.213 133.601 39.213C133.671 39.213 133.744 39.2043 133.822 39.187C133.9 39.1697 133.974 39.148 134.043 39.122L134.225 40.37C134.061 40.4567 133.874 40.5217 133.666 40.565C133.458 40.6083 133.237 40.63 133.003 40.63ZM136.916 40.63C136.526 40.63 136.197 40.5693 135.928 40.448C135.66 40.3267 135.456 40.1447 135.317 39.902C135.179 39.6507 135.109 39.3387 135.109 38.966V33.376H137.059V38.732C137.059 38.8967 137.094 39.018 137.163 39.096C137.241 39.174 137.358 39.213 137.514 39.213C137.584 39.213 137.657 39.2043 137.735 39.187C137.813 39.1697 137.887 39.148 137.956 39.122L138.138 40.37C137.974 40.4567 137.787 40.5217 137.579 40.565C137.371 40.6083 137.15 40.63 136.916 40.63ZM143.347 40.5V35.872C143.347 35.456 143.235 35.157 143.009 34.975C142.784 34.793 142.437 34.702 141.969 34.702C141.519 34.702 141.077 34.7713 140.643 34.91C140.219 35.04 139.85 35.196 139.538 35.378V33.766C139.79 33.6447 140.145 33.5233 140.604 33.402C141.064 33.272 141.597 33.207 142.203 33.207C142.645 33.207 143.048 33.2547 143.412 33.35C143.785 33.4367 144.11 33.5883 144.387 33.805C144.665 34.013 144.877 34.2947 145.024 34.65C145.18 34.9967 145.258 35.43 145.258 35.95V40.5H143.347ZM141.215 40.63C140.47 40.63 139.894 40.4523 139.486 40.097C139.088 39.7417 138.888 39.2433 138.888 38.602C138.888 37.9087 139.135 37.354 139.629 36.938C140.132 36.522 140.921 36.2707 141.995 36.184L143.659 36.054V37.458L142.216 37.601C141.696 37.653 141.332 37.757 141.124 37.913C140.925 38.069 140.825 38.277 140.825 38.537C140.825 38.797 140.908 38.992 141.072 39.122C141.246 39.252 141.467 39.317 141.735 39.317C141.839 39.317 141.943 39.3083 142.047 39.291C142.151 39.265 142.247 39.239 142.333 39.213L142.502 40.435C142.338 40.4957 142.143 40.5433 141.917 40.578C141.692 40.6127 141.458 40.63 141.215 40.63ZM141.211 32.401V31.751C141.332 31.7163 141.466 31.6687 141.614 31.608C141.761 31.5473 141.891 31.465 142.004 31.361C142.116 31.257 142.173 31.127 142.173 30.971C142.173 30.8497 142.138 30.7543 142.069 30.685C141.999 30.6157 141.913 30.581 141.809 30.581C141.739 30.581 141.666 30.594 141.588 30.62C141.51 30.646 141.44 30.672 141.38 30.698L141.133 29.827C141.306 29.6797 141.523 29.5843 141.783 29.541C142.034 29.489 142.246 29.463 142.42 29.463C142.81 29.463 143.117 29.554 143.343 29.736C143.559 29.918 143.668 30.1867 143.668 30.542C143.668 30.7327 143.62 30.9103 143.525 31.075C143.421 31.2397 143.265 31.374 143.057 31.478L143.005 31.14H145.462V32.401H141.211ZM148.972 40.669C148.53 40.669 148.114 40.617 147.724 40.513C147.334 40.4177 146.97 40.279 146.632 40.097L147.152 38.68C147.342 38.7927 147.572 38.8923 147.841 38.979C148.109 39.0657 148.374 39.109 148.634 39.109C149.119 39.109 149.505 38.927 149.791 38.563C150.077 38.1903 150.22 37.6357 150.22 36.899C150.22 36.2057 150.077 35.677 149.791 35.313C149.505 34.949 149.058 34.767 148.452 34.767C148.166 34.767 147.871 34.8103 147.568 34.897C147.264 34.975 147.013 35.0747 146.814 35.196V33.597C147.082 33.4757 147.386 33.3803 147.724 33.311C148.062 33.2417 148.421 33.207 148.803 33.207C149.6 33.207 150.25 33.3543 150.753 33.649C151.255 33.9437 151.624 34.3683 151.858 34.923C152.092 35.469 152.209 36.1277 152.209 36.899C152.209 38.1297 151.927 39.0657 151.364 39.707C150.8 40.3483 150.003 40.669 148.972 40.669Z"/>
</mask>
<path d="M104.071 40.63C103.681 40.63 103.351 40.5693 103.083 40.448C102.814 40.3267 102.61 40.1447 102.472 39.902C102.333 39.6507 102.264 39.3387 102.264 38.966V33.376H104.214V38.732C104.214 38.8967 104.248 39.018 104.318 39.096C104.396 39.174 104.513 39.213 104.669 39.213C104.738 39.213 104.812 39.2043 104.89 39.187C104.968 39.1697 105.041 39.148 105.111 39.122L105.293 40.37C105.128 40.4567 104.942 40.5217 104.734 40.565C104.526 40.6083 104.305 40.63 104.071 40.63ZM109.018 40.669C108.047 40.669 107.315 40.4523 106.821 40.019C106.327 39.5857 106.08 38.953 106.08 38.121V37.601C106.08 37.2457 106.128 36.9553 106.223 36.73C106.318 36.496 106.435 36.2837 106.574 36.093C106.713 35.9023 106.825 35.7333 106.912 35.586C107.007 35.43 107.055 35.2697 107.055 35.105C107.055 34.949 107.016 34.8407 106.938 34.78C106.869 34.7107 106.773 34.676 106.652 34.676C106.565 34.676 106.474 34.689 106.379 34.715C106.292 34.741 106.193 34.78 106.08 34.832L105.768 33.61C106.011 33.48 106.271 33.3933 106.548 33.35C106.834 33.298 107.085 33.272 107.302 33.272C107.683 33.272 107.987 33.3327 108.212 33.454C108.446 33.5753 108.615 33.7487 108.719 33.974C108.823 34.1993 108.875 34.468 108.875 34.78C108.875 35.0487 108.836 35.287 108.758 35.495C108.68 35.6943 108.58 35.9023 108.459 36.119C108.346 36.3183 108.242 36.5047 108.147 36.678C108.06 36.8513 108.017 37.1027 108.017 37.432V37.952C108.017 38.2293 108.056 38.459 108.134 38.641C108.221 38.8143 108.338 38.9443 108.485 39.031C108.641 39.109 108.823 39.148 109.031 39.148C109.369 39.148 109.62 39.0527 109.785 38.862C109.95 38.6627 110.032 38.381 110.032 38.017V33.376H111.969V38.069C111.969 38.927 111.718 39.577 111.215 40.019C110.712 40.4523 109.98 40.669 109.018 40.669ZM108.038 32.401V31.751C108.159 31.7163 108.293 31.6687 108.441 31.608C108.588 31.5473 108.718 31.465 108.831 31.361C108.943 31.257 109 31.127 109 30.971C109 30.8497 108.965 30.7543 108.896 30.685C108.826 30.6157 108.74 30.581 108.636 30.581C108.566 30.581 108.493 30.594 108.415 30.62C108.337 30.646 108.267 30.672 108.207 30.698L107.96 29.827C108.133 29.6797 108.35 29.5843 108.61 29.541C108.861 29.489 109.073 29.463 109.247 29.463C109.637 29.463 109.944 29.554 110.17 29.736C110.386 29.918 110.495 30.1867 110.495 30.542C110.495 30.7327 110.447 30.9103 110.352 31.075C110.248 31.2397 110.092 31.374 109.884 31.478L109.832 31.14H112.289V32.401H108.038ZM115.671 40.5V35.794C115.671 35.43 115.585 35.1657 115.411 35.001C115.247 34.8363 114.974 34.754 114.592 34.754C114.306 34.754 114.042 34.793 113.799 34.871C113.565 34.949 113.344 35.0443 113.136 35.157V33.597C113.327 33.5103 113.596 33.4237 113.942 33.337C114.289 33.2503 114.696 33.207 115.164 33.207C115.641 33.207 116.061 33.2763 116.425 33.415C116.798 33.5537 117.088 33.7877 117.296 34.117C117.513 34.4377 117.621 34.8797 117.621 35.443V40.5H115.671ZM121.438 40.63C121.048 40.63 120.719 40.5693 120.45 40.448C120.181 40.3267 119.978 40.1447 119.839 39.902C119.7 39.6507 119.631 39.3387 119.631 38.966V34.156C119.631 33.9307 119.644 33.7443 119.67 33.597C119.705 33.4497 119.765 33.311 119.852 33.181C119.939 33.0423 120.064 32.8777 120.229 32.687C120.402 32.4877 120.545 32.3143 120.658 32.167C120.771 32.0197 120.827 31.8507 120.827 31.66C120.827 31.4607 120.753 31.3047 120.606 31.192C120.467 31.0707 120.246 31.01 119.943 31.01C119.709 31.01 119.501 31.0403 119.319 31.101C119.137 31.1617 118.972 31.2397 118.825 31.335V29.892C118.946 29.8227 119.163 29.7447 119.475 29.658C119.796 29.5627 120.181 29.515 120.632 29.515C121.317 29.515 121.858 29.658 122.257 29.944C122.656 30.23 122.855 30.659 122.855 31.231C122.855 31.5777 122.786 31.881 122.647 32.141C122.517 32.401 122.378 32.6307 122.231 32.83C122.092 33.0207 121.971 33.181 121.867 33.311C121.772 33.4323 121.698 33.558 121.646 33.688C121.603 33.818 121.581 33.9913 121.581 34.208V38.732C121.581 38.8967 121.616 39.018 121.685 39.096C121.763 39.174 121.876 39.213 122.023 39.213C122.092 39.213 122.166 39.2043 122.244 39.187C122.331 39.1697 122.409 39.148 122.478 39.122L122.66 40.37C122.495 40.4567 122.309 40.5217 122.101 40.565C121.893 40.6083 121.672 40.63 121.438 40.63ZM124.325 40.5V37.51H123.584V36.314H126.08V39.018H126.171C126.457 39.018 126.699 38.94 126.899 38.784C127.107 38.628 127.263 38.3983 127.367 38.095C127.471 37.783 127.523 37.393 127.523 36.925C127.523 36.3877 127.445 35.963 127.289 35.651C127.141 35.3303 126.92 35.1007 126.626 34.962C126.331 34.8233 125.967 34.754 125.534 34.754C125.083 34.754 124.676 34.819 124.312 34.949C123.948 35.0703 123.623 35.2177 123.337 35.391V33.766C123.623 33.6187 123.982 33.4887 124.416 33.376C124.849 33.2633 125.347 33.207 125.911 33.207C126.751 33.207 127.432 33.3413 127.952 33.61C128.48 33.8787 128.87 34.286 129.122 34.832C129.373 35.378 129.499 36.0627 129.499 36.886C129.499 37.6573 129.382 38.316 129.148 38.862C128.922 39.3993 128.55 39.8067 128.03 40.084C127.518 40.3613 126.834 40.5 125.976 40.5H124.325ZM133.003 40.63C132.613 40.63 132.284 40.5693 132.015 40.448C131.747 40.3267 131.543 40.1447 131.404 39.902C131.266 39.6507 131.196 39.3387 131.196 38.966V33.376H133.146V38.732C133.146 38.8967 133.181 39.018 133.25 39.096C133.328 39.174 133.445 39.213 133.601 39.213C133.671 39.213 133.744 39.2043 133.822 39.187C133.9 39.1697 133.974 39.148 134.043 39.122L134.225 40.37C134.061 40.4567 133.874 40.5217 133.666 40.565C133.458 40.6083 133.237 40.63 133.003 40.63ZM136.916 40.63C136.526 40.63 136.197 40.5693 135.928 40.448C135.66 40.3267 135.456 40.1447 135.317 39.902C135.179 39.6507 135.109 39.3387 135.109 38.966V33.376H137.059V38.732C137.059 38.8967 137.094 39.018 137.163 39.096C137.241 39.174 137.358 39.213 137.514 39.213C137.584 39.213 137.657 39.2043 137.735 39.187C137.813 39.1697 137.887 39.148 137.956 39.122L138.138 40.37C137.974 40.4567 137.787 40.5217 137.579 40.565C137.371 40.6083 137.15 40.63 136.916 40.63ZM143.347 40.5V35.872C143.347 35.456 143.235 35.157 143.009 34.975C142.784 34.793 142.437 34.702 141.969 34.702C141.519 34.702 141.077 34.7713 140.643 34.91C140.219 35.04 139.85 35.196 139.538 35.378V33.766C139.79 33.6447 140.145 33.5233 140.604 33.402C141.064 33.272 141.597 33.207 142.203 33.207C142.645 33.207 143.048 33.2547 143.412 33.35C143.785 33.4367 144.11 33.5883 144.387 33.805C144.665 34.013 144.877 34.2947 145.024 34.65C145.18 34.9967 145.258 35.43 145.258 35.95V40.5H143.347ZM141.215 40.63C140.47 40.63 139.894 40.4523 139.486 40.097C139.088 39.7417 138.888 39.2433 138.888 38.602C138.888 37.9087 139.135 37.354 139.629 36.938C140.132 36.522 140.921 36.2707 141.995 36.184L143.659 36.054V37.458L142.216 37.601C141.696 37.653 141.332 37.757 141.124 37.913C140.925 38.069 140.825 38.277 140.825 38.537C140.825 38.797 140.908 38.992 141.072 39.122C141.246 39.252 141.467 39.317 141.735 39.317C141.839 39.317 141.943 39.3083 142.047 39.291C142.151 39.265 142.247 39.239 142.333 39.213L142.502 40.435C142.338 40.4957 142.143 40.5433 141.917 40.578C141.692 40.6127 141.458 40.63 141.215 40.63ZM141.211 32.401V31.751C141.332 31.7163 141.466 31.6687 141.614 31.608C141.761 31.5473 141.891 31.465 142.004 31.361C142.116 31.257 142.173 31.127 142.173 30.971C142.173 30.8497 142.138 30.7543 142.069 30.685C141.999 30.6157 141.913 30.581 141.809 30.581C141.739 30.581 141.666 30.594 141.588 30.62C141.51 30.646 141.44 30.672 141.38 30.698L141.133 29.827C141.306 29.6797 141.523 29.5843 141.783 29.541C142.034 29.489 142.246 29.463 142.42 29.463C142.81 29.463 143.117 29.554 143.343 29.736C143.559 29.918 143.668 30.1867 143.668 30.542C143.668 30.7327 143.62 30.9103 143.525 31.075C143.421 31.2397 143.265 31.374 143.057 31.478L143.005 31.14H145.462V32.401H141.211ZM148.972 40.669C148.53 40.669 148.114 40.617 147.724 40.513C147.334 40.4177 146.97 40.279 146.632 40.097L147.152 38.68C147.342 38.7927 147.572 38.8923 147.841 38.979C148.109 39.0657 148.374 39.109 148.634 39.109C149.119 39.109 149.505 38.927 149.791 38.563C150.077 38.1903 150.22 37.6357 150.22 36.899C150.22 36.2057 150.077 35.677 149.791 35.313C149.505 34.949 149.058 34.767 148.452 34.767C148.166 34.767 147.871 34.8103 147.568 34.897C147.264 34.975 147.013 35.0747 146.814 35.196V33.597C147.082 33.4757 147.386 33.3803 147.724 33.311C148.062 33.2417 148.421 33.207 148.803 33.207C149.6 33.207 150.25 33.3543 150.753 33.649C151.255 33.9437 151.624 34.3683 151.858 34.923C152.092 35.469 152.209 36.1277 152.209 36.899C152.209 38.1297 151.927 39.0657 151.364 39.707C150.8 40.3483 150.003 40.669 148.972 40.669Z" fill="url(#paint0_linear_6282_42281)"/>
<path d="M103.083 40.448L102.671 41.3594L102.671 41.3594L103.083 40.448ZM102.472 39.902L101.596 40.3851L101.6 40.3916L101.603 40.3981L102.472 39.902ZM102.264 33.376V32.376H101.264V33.376H102.264ZM104.214 33.376H105.214V32.376H104.214V33.376ZM104.318 39.096L103.57 39.7604L103.59 39.7823L103.611 39.8031L104.318 39.096ZM104.89 39.187L105.107 40.1632L105.107 40.1632L104.89 39.187ZM105.111 39.122L106.1 38.9777L105.921 37.7501L104.76 38.1857L105.111 39.122ZM105.293 40.37L105.758 41.2549L106.384 40.9255L106.282 40.2257L105.293 40.37ZM104.734 40.565L104.53 39.586L104.53 39.586L104.734 40.565ZM104.071 39.63C103.779 39.63 103.599 39.5839 103.494 39.5366L102.671 41.3594C103.104 41.5548 103.582 41.63 104.071 41.63V39.63ZM103.494 39.5366C103.407 39.497 103.368 39.455 103.34 39.4059L101.603 40.3981C101.853 40.8343 102.221 41.1563 102.671 41.3594L103.494 39.5366ZM103.347 39.4189C103.311 39.3532 103.264 39.2187 103.264 38.966H101.264C101.264 39.4586 101.355 39.9482 101.596 40.3851L103.347 39.4189ZM103.264 38.966V33.376H101.264V38.966H103.264ZM102.264 34.376H104.214V32.376H102.264V34.376ZM103.214 33.376V38.732H105.214V33.376H103.214ZM103.214 38.732C103.214 39.0069 103.267 39.4189 103.57 39.7604L105.065 38.4316C105.149 38.5258 105.186 38.6179 105.201 38.6718C105.216 38.7228 105.214 38.748 105.214 38.732H103.214ZM103.611 39.8031C103.942 40.1348 104.359 40.213 104.669 40.213V38.213C104.671 38.213 104.714 38.2129 104.78 38.2351C104.851 38.2588 104.942 38.3057 105.025 38.3889L103.611 39.8031ZM104.669 40.213C104.821 40.213 104.968 40.194 105.107 40.1632L104.673 38.2108C104.655 38.2147 104.655 38.213 104.669 38.213V40.213ZM105.107 40.1632C105.227 40.1365 105.345 40.102 105.462 40.0583L104.76 38.1857C104.737 38.194 104.709 38.2028 104.673 38.2108L105.107 40.1632ZM104.121 39.2663L104.303 40.5143L106.282 40.2257L106.1 38.9777L104.121 39.2663ZM104.827 39.4851C104.755 39.5227 104.659 39.5591 104.53 39.586L104.938 41.544C105.224 41.4843 105.501 41.3906 105.758 41.2549L104.827 39.4851ZM104.53 39.586C104.395 39.6141 104.243 39.63 104.071 39.63V41.63C104.366 41.63 104.656 41.6026 104.938 41.544L104.53 39.586ZM106.821 40.019L106.162 40.7708L106.162 40.7708L106.821 40.019ZM106.223 36.73L107.144 37.1197L107.149 37.1073L106.223 36.73ZM106.574 36.093L107.383 36.6812L107.383 36.6812L106.574 36.093ZM106.912 35.586L106.059 35.0645L106.054 35.0717L106.05 35.079L106.912 35.586ZM106.938 34.78L106.231 35.4871L106.275 35.5311L106.324 35.5694L106.938 34.78ZM106.379 34.715L106.116 33.7502L106.104 33.7536L106.092 33.7572L106.379 34.715ZM106.08 34.832L105.111 35.0794L105.408 36.2434L106.499 35.74L106.08 34.832ZM105.768 33.61L105.296 32.7285L104.605 33.0984L104.799 33.8574L105.768 33.61ZM106.548 33.35L106.702 34.338L106.715 34.3361L106.727 34.3339L106.548 33.35ZM108.212 33.454L107.738 34.3345L107.745 34.3382L107.752 34.3418L108.212 33.454ZM108.719 33.974L109.627 33.5549L109.627 33.5549L108.719 33.974ZM108.758 35.495L109.689 35.8594L109.692 35.8528L109.694 35.8461L108.758 35.495ZM108.459 36.119L109.33 36.6111L109.332 36.6076L108.459 36.119ZM108.147 36.678L107.271 36.1961L107.261 36.2133L107.253 36.2308L108.147 36.678ZM108.134 38.641L107.215 39.0349L107.227 39.0619L107.24 39.0882L108.134 38.641ZM108.485 39.031L107.978 39.8929L108.007 39.9102L108.038 39.9254L108.485 39.031ZM109.785 38.862L110.542 39.5156L110.549 39.5073L110.556 39.4989L109.785 38.862ZM110.032 33.376V32.376H109.032V33.376H110.032ZM111.969 33.376H112.969V32.376H111.969V33.376ZM111.215 40.019L111.868 40.7764L111.875 40.77L111.215 40.019ZM109.018 39.669C108.177 39.669 107.722 39.4792 107.481 39.2672L106.162 40.7708C106.908 41.4255 107.918 41.669 109.018 41.669V39.669ZM107.481 39.2672C107.258 39.0721 107.08 38.7474 107.08 38.121H105.08C105.08 39.1586 105.396 40.0993 106.162 40.7708L107.481 39.2672ZM107.08 38.121V37.601H105.08V38.121H107.08ZM107.08 37.601C107.08 37.324 107.119 37.1792 107.144 37.1196L105.302 36.3404C105.137 36.7315 105.08 37.1674 105.08 37.601H107.08ZM107.149 37.1073C107.216 36.9427 107.295 36.802 107.383 36.6812L105.765 35.5048C105.576 35.7653 105.421 36.0493 105.297 36.3527L107.149 37.1073ZM107.383 36.6812C107.534 36.4734 107.666 36.2764 107.774 36.093L106.05 35.079C105.985 35.1902 105.892 35.3313 105.765 35.5048L107.383 36.6812ZM107.765 36.1074C107.946 35.8123 108.055 35.4735 108.055 35.105H106.055C106.055 35.0893 106.058 35.0746 106.061 35.0638C106.064 35.0536 106.065 35.0537 106.059 35.0645L107.765 36.1074ZM108.055 35.105C108.055 34.8205 107.987 34.3291 107.552 33.9906L106.324 35.5694C106.19 35.4653 106.119 35.3395 106.085 35.2455C106.069 35.2011 106.062 35.1654 106.059 35.1429C106.055 35.1204 106.055 35.107 106.055 35.105H108.055ZM107.645 34.0729C107.346 33.7736 106.972 33.676 106.652 33.676V35.676C106.618 35.676 106.554 35.6712 106.473 35.6418C106.388 35.611 106.303 35.5594 106.231 35.4871L107.645 34.0729ZM106.652 33.676C106.465 33.676 106.285 33.7041 106.116 33.7502L106.642 35.6798C106.664 35.6739 106.666 35.676 106.652 35.676V33.676ZM106.092 33.7572C105.947 33.8006 105.802 33.859 105.661 33.924L106.499 35.74C106.584 35.701 106.638 35.6814 106.666 35.6728L106.092 33.7572ZM107.049 34.5846L106.737 33.3626L104.799 33.8574L105.111 35.0794L107.049 34.5846ZM106.24 34.4915C106.382 34.4157 106.534 34.3643 106.702 34.338L106.394 32.362C106.007 32.4223 105.64 32.5443 105.296 32.7285L106.24 34.4915ZM106.727 34.3339C106.973 34.2892 107.162 34.272 107.302 34.272V32.272C107.009 32.272 106.696 32.3068 106.369 32.3661L106.727 34.3339ZM107.302 34.272C107.593 34.272 107.712 34.3207 107.738 34.3345L108.686 32.5735C108.261 32.3446 107.774 32.272 107.302 32.272V34.272ZM107.752 34.3418C107.782 34.3576 107.795 34.3694 107.798 34.3731C107.801 34.3763 107.806 34.381 107.811 34.3931L109.627 33.5549C109.424 33.115 109.09 32.783 108.672 32.5662L107.752 34.3418ZM107.811 34.3931C107.841 34.4578 107.875 34.5766 107.875 34.78H109.875C109.875 34.3594 109.805 33.9409 109.627 33.5549L107.811 34.3931ZM107.875 34.78C107.875 34.9531 107.85 35.0689 107.822 35.1439L109.694 35.8461C109.822 35.5051 109.875 35.1442 109.875 34.78H107.875ZM107.827 35.1306C107.768 35.2811 107.689 35.4476 107.587 35.6304L109.332 36.6076C109.472 36.3571 109.592 36.1075 109.689 35.8594L107.827 35.1306ZM107.589 35.6269C107.474 35.8291 107.368 36.0189 107.271 36.1961L109.023 37.1599C109.117 36.9905 109.219 36.8075 109.33 36.6111L107.589 35.6269ZM107.253 36.2308C107.064 36.6081 107.017 37.0419 107.017 37.432H109.017C109.017 37.3088 109.025 37.2225 109.035 37.1664C109.045 37.1086 109.053 37.1018 109.042 37.1252L107.253 36.2308ZM107.017 37.432V37.952H109.017V37.432H107.017ZM107.017 37.952C107.017 38.3143 107.067 38.6892 107.215 39.0349L109.053 38.2471C109.045 38.2288 109.017 38.1444 109.017 37.952H107.017ZM107.24 39.0882C107.401 39.4105 107.643 39.6957 107.978 39.8929L108.992 38.1691C109 38.1736 109.007 38.1788 109.014 38.1845C109.021 38.1901 109.026 38.1954 109.03 38.1995C109.038 38.2081 109.036 38.2086 109.029 38.1938L107.24 39.0882ZM108.038 39.9254C108.357 40.085 108.698 40.148 109.031 40.148V38.148C108.949 38.148 108.925 38.133 108.932 38.1366L108.038 39.9254ZM109.031 40.148C109.555 40.148 110.128 39.9948 110.542 39.5156L109.028 38.2084C109.043 38.1912 109.061 38.1757 109.079 38.1631C109.097 38.1507 109.111 38.1442 109.118 38.1415C109.131 38.1367 109.109 38.148 109.031 38.148V40.148ZM110.556 39.4989C110.919 39.0595 111.032 38.52 111.032 38.017H109.032C109.032 38.242 108.981 38.2658 109.014 38.2251L110.556 39.4989ZM111.032 38.017V33.376H109.032V38.017H111.032ZM110.032 34.376H111.969V32.376H110.032V34.376ZM110.969 33.376V38.069H112.969V33.376H110.969ZM110.969 38.069C110.969 38.7261 110.784 39.0665 110.555 39.268L111.875 40.77C112.652 40.0875 112.969 39.1279 112.969 38.069H110.969ZM110.562 39.2616C110.308 39.481 109.846 39.669 109.018 39.669V41.669C110.114 41.669 111.117 41.4236 111.868 40.7764L110.562 39.2616ZM108.038 32.401H107.038V33.401H108.038V32.401ZM108.038 31.751L107.763 30.7895L107.038 30.9967V31.751H108.038ZM108.441 31.608L108.821 32.5327L108.821 32.5327L108.441 31.608ZM108.831 31.361L109.509 32.0958L109.509 32.0958L108.831 31.361ZM108.896 30.685L109.603 29.9779L109.603 29.9779L108.896 30.685ZM108.415 30.62L108.098 29.6713L108.098 29.6713L108.415 30.62ZM108.207 30.698L107.245 30.9708L107.555 32.0653L108.601 31.6171L108.207 30.698ZM107.96 29.827L107.312 29.0651L106.822 29.4814L106.998 30.0998L107.96 29.827ZM108.61 29.541L108.774 30.5274L108.793 30.5242L108.812 30.5203L108.61 29.541ZM110.17 29.736L110.813 28.9703L110.806 28.9641L110.798 28.9581L110.17 29.736ZM110.352 31.075L111.197 31.609L111.207 31.5927L111.217 31.576L110.352 31.075ZM109.884 31.478L108.895 31.6301L109.104 32.9859L110.331 32.3724L109.884 31.478ZM109.832 31.14V30.14H108.666L108.843 31.2921L109.832 31.14ZM112.289 31.14H113.289V30.14H112.289V31.14ZM112.289 32.401V33.401H113.289V32.401H112.289ZM109.038 32.401V31.751H107.038V32.401H109.038ZM108.312 32.7125C108.478 32.6653 108.648 32.6041 108.821 32.5327L108.06 30.6833C107.939 30.7332 107.84 30.7674 107.763 30.7895L108.312 32.7125ZM108.821 32.5327C109.074 32.4287 109.306 32.2834 109.509 32.0958L108.152 30.6262C108.13 30.6466 108.102 30.666 108.06 30.6833L108.821 32.5327ZM109.509 32.0958C109.831 31.7988 110 31.4006 110 30.971H108C108 30.9261 108.008 30.8606 108.04 30.7879C108.072 30.7148 108.115 30.6608 108.152 30.6262L109.509 32.0958ZM110 30.971C110 30.6512 109.902 30.2772 109.603 29.9779L108.189 31.3921C108.116 31.3198 108.065 31.235 108.034 31.1502C108.004 31.0693 108 31.0046 108 30.971H110ZM109.603 29.9779C109.334 29.7088 108.987 29.581 108.636 29.581V31.581C108.575 31.581 108.495 31.5705 108.407 31.5355C108.319 31.5 108.245 31.4483 108.189 31.3921L109.603 29.9779ZM108.636 29.581C108.441 29.581 108.26 29.6175 108.098 29.6713L108.731 31.5687C108.725 31.5705 108.692 31.581 108.636 31.581V29.581ZM108.098 29.6713C108 29.7041 107.904 29.7397 107.813 29.7789L108.601 31.6171C108.631 31.6043 108.673 31.5879 108.731 31.5687L108.098 29.6713ZM109.169 30.4252L108.922 29.5542L106.998 30.0998L107.245 30.9708L109.169 30.4252ZM108.607 30.5889C108.622 30.5763 108.664 30.5458 108.774 30.5274L108.445 28.5546C108.036 28.6229 107.644 28.7831 107.312 29.0651L108.607 30.5889ZM108.812 30.5203C109.026 30.4761 109.165 30.463 109.247 30.463V28.463C108.981 28.463 108.697 28.5019 108.407 28.5617L108.812 30.5203ZM109.247 30.463C109.366 30.463 109.442 30.477 109.486 30.4902C109.528 30.5025 109.541 30.5137 109.541 30.5139L110.798 28.9581C110.342 28.5895 109.786 28.463 109.247 28.463V30.463ZM109.527 30.5017C109.519 30.4951 109.509 30.4855 109.501 30.4737C109.492 30.4619 109.488 30.4524 109.486 30.448C109.483 30.4398 109.495 30.4643 109.495 30.542H111.495C111.495 29.9733 111.312 29.3894 110.813 28.9703L109.527 30.5017ZM109.495 30.542C109.495 30.553 109.493 30.5578 109.493 30.5591C109.493 30.5604 109.492 30.5649 109.486 30.574L111.217 31.576C111.401 31.2588 111.495 30.9082 111.495 30.542H109.495ZM109.506 30.541C109.51 30.5349 109.511 30.5352 109.504 30.5415C109.496 30.5484 109.476 30.5638 109.437 30.5836L110.331 32.3724C110.67 32.2028 110.978 31.9555 111.197 31.609L109.506 30.541ZM110.872 31.3259L110.82 30.9879L108.843 31.2921L108.895 31.6301L110.872 31.3259ZM109.832 32.14H112.289V30.14H109.832V32.14ZM111.289 31.14V32.401H113.289V31.14H111.289ZM112.289 31.401H108.038V33.401H112.289V31.401ZM115.671 40.5H114.671V41.5H115.671V40.5ZM115.411 35.001L114.704 35.7081L114.713 35.7172L114.723 35.726L115.411 35.001ZM113.799 34.871L113.493 33.9189L113.483 33.9223L113.799 34.871ZM113.136 35.157H112.136V36.8359L113.613 36.0363L113.136 35.157ZM113.136 33.597L112.723 32.6866L112.136 32.9531V33.597H113.136ZM113.942 33.337L114.185 34.3071L114.185 34.3071L113.942 33.337ZM116.425 33.415L116.069 34.3495L116.077 34.3522L116.425 33.415ZM117.296 34.117L116.451 34.651L116.459 34.6641L116.468 34.6769L117.296 34.117ZM117.621 40.5V41.5H118.621V40.5H117.621ZM116.671 40.5V35.794H114.671V40.5H116.671ZM116.671 35.794C116.671 35.2977 116.556 34.7088 116.1 34.276L114.723 35.726C114.699 35.703 114.681 35.6801 114.67 35.6615C114.659 35.6434 114.656 35.6328 114.656 35.6343C114.657 35.6362 114.661 35.6491 114.665 35.6763C114.668 35.7036 114.671 35.7422 114.671 35.794H116.671ZM116.119 34.2939C115.677 33.8523 115.078 33.754 114.592 33.754V35.754C114.716 35.754 114.777 35.7679 114.794 35.7732C114.808 35.7773 114.762 35.7658 114.704 35.7081L116.119 34.2939ZM114.592 33.754C114.215 33.754 113.846 33.8056 113.493 33.919L114.105 35.823C114.238 35.7804 114.398 35.754 114.592 35.754V33.754ZM113.483 33.9223C113.196 34.018 112.922 34.1361 112.66 34.2777L113.613 36.0363C113.767 35.9525 113.935 35.88 114.116 35.8197L113.483 33.9223ZM114.136 35.157V33.597H112.136V35.157H114.136ZM113.55 34.5074C113.661 34.4572 113.862 34.3878 114.185 34.3071L113.7 32.3669C113.329 32.4595 112.994 32.5634 112.723 32.6866L113.55 34.5074ZM114.185 34.3071C114.432 34.2453 114.755 34.207 115.164 34.207V32.207C114.638 32.207 114.146 32.2553 113.7 32.3669L114.185 34.3071ZM115.164 34.207C115.546 34.207 115.841 34.2626 116.069 34.3495L116.781 32.4805C116.281 32.29 115.736 32.207 115.164 32.207V34.207ZM116.077 34.3522C116.249 34.4162 116.363 34.511 116.451 34.651L118.142 33.583C117.814 33.0644 117.348 32.6911 116.774 32.4778L116.077 34.3522ZM116.468 34.6769C116.533 34.7727 116.621 34.9928 116.621 35.443H118.621C118.621 34.7665 118.494 34.1026 118.125 33.5571L116.468 34.6769ZM116.621 35.443V40.5H118.621V35.443H116.621ZM117.621 39.5H115.671V41.5H117.621V39.5ZM120.45 40.448L120.038 41.3594L120.038 41.3594L120.45 40.448ZM119.839 39.902L118.963 40.3851L118.967 40.3916L118.971 40.3981L119.839 39.902ZM119.67 33.597L118.696 33.368L118.69 33.3954L118.685 33.4232L119.67 33.597ZM119.852 33.181L120.684 33.7357L120.692 33.7235L120.7 33.711L119.852 33.181ZM120.229 32.687L119.474 32.0308L119.472 32.0334L120.229 32.687ZM120.606 31.192L119.947 31.9446L119.972 31.9663L119.998 31.9864L120.606 31.192ZM119.319 31.101L119.003 30.1523L119.003 30.1523L119.319 31.101ZM118.825 31.335H117.825V33.1731L119.368 32.1746L118.825 31.335ZM118.825 29.892L118.329 29.0238L117.825 29.3117V29.892H118.825ZM119.475 29.658L119.743 30.6215L119.751 30.6191L119.76 30.6165L119.475 29.658ZM122.257 29.944L121.674 30.7565L121.674 30.7565L122.257 29.944ZM122.647 32.141L121.765 31.6704L121.758 31.682L121.752 31.6938L122.647 32.141ZM122.231 32.83L121.427 32.2356L121.422 32.2418L122.231 32.83ZM121.867 33.311L121.086 32.6863L121.081 32.6932L121.867 33.311ZM121.646 33.688L120.717 33.3166L120.706 33.3439L120.697 33.3718L121.646 33.688ZM121.685 39.096L120.937 39.7604L120.957 39.7823L120.978 39.8031L121.685 39.096ZM122.244 39.187L122.048 38.2064L122.037 38.2085L122.027 38.2108L122.244 39.187ZM122.478 39.122L123.467 38.9777L123.288 37.7501L122.127 38.1857L122.478 39.122ZM122.66 40.37L123.126 41.2549L123.751 40.9255L123.649 40.2257L122.66 40.37ZM122.101 40.565L121.897 39.586L121.897 39.586L122.101 40.565ZM121.438 39.63C121.146 39.63 120.966 39.5839 120.861 39.5366L120.038 41.3594C120.471 41.5548 120.95 41.63 121.438 41.63V39.63ZM120.861 39.5366C120.774 39.497 120.735 39.455 120.707 39.4059L118.971 40.3981C119.22 40.8343 119.589 41.1563 120.038 41.3594L120.861 39.5366ZM120.714 39.4189C120.678 39.3532 120.631 39.2187 120.631 38.966H118.631C118.631 39.4586 118.722 39.9482 118.963 40.3851L120.714 39.4189ZM120.631 38.966V34.156H118.631V38.966H120.631ZM120.631 34.156C120.631 33.9629 120.642 33.8398 120.655 33.7708L118.685 33.4232C118.645 33.6489 118.631 33.8985 118.631 34.156H120.631ZM120.643 33.826C120.65 33.7986 120.661 33.7697 120.684 33.7357L119.02 32.6263C118.869 32.8523 118.759 33.1008 118.696 33.368L120.643 33.826ZM120.7 33.711C120.749 33.6324 120.839 33.5108 120.986 33.3406L119.472 32.0334C119.29 32.2445 119.128 32.4522 119.004 32.651L120.7 33.711ZM120.983 33.3432C121.165 33.134 121.323 32.9438 121.452 32.7744L119.864 31.5596C119.768 31.6849 119.639 31.8413 119.474 32.0308L120.983 33.3432ZM121.452 32.7744C121.702 32.4475 121.827 32.0636 121.827 31.66H119.827C119.827 31.6554 119.828 31.6379 119.836 31.6135C119.844 31.5888 119.855 31.5701 119.864 31.5596L121.452 32.7744ZM121.827 31.66C121.827 31.1761 121.629 30.7153 121.213 30.3976L119.998 31.9864C119.955 31.9532 119.904 31.8976 119.867 31.8205C119.832 31.7457 119.827 31.6851 119.827 31.66H121.827ZM121.264 30.4394C120.857 30.0833 120.342 30.01 119.943 30.01V32.01C119.986 32.01 120.018 32.0122 120.04 32.0147C120.062 32.0173 120.072 32.02 120.071 32.0198C120.071 32.0197 120.016 32.0045 119.947 31.9446L121.264 30.4394ZM119.943 30.01C119.624 30.01 119.306 30.0511 119.003 30.1523L119.635 32.0497C119.696 32.0295 119.794 32.01 119.943 32.01V30.01ZM119.003 30.1523C118.748 30.2372 118.506 30.3503 118.282 30.4954L119.368 32.1746C119.438 32.1291 119.526 32.0861 119.635 32.0497L119.003 30.1523ZM119.825 31.335V29.892H117.825V31.335H119.825ZM119.321 30.7602C119.31 30.7667 119.333 30.7526 119.417 30.7224C119.495 30.6944 119.602 30.6606 119.743 30.6215L119.207 28.6945C118.892 28.782 118.568 28.8869 118.329 29.0238L119.321 30.7602ZM119.76 30.6165C119.962 30.5564 120.247 30.515 120.632 30.515V28.515C120.116 28.515 119.629 28.569 119.19 28.6995L119.76 30.6165ZM120.632 30.515C121.188 30.515 121.501 30.6322 121.674 30.7565L122.84 29.1315C122.216 28.6838 121.445 28.515 120.632 28.515V30.515ZM121.674 30.7565C121.765 30.8217 121.855 30.9201 121.855 31.231H123.855C123.855 30.3979 123.546 29.6383 122.84 29.1315L121.674 30.7565ZM121.855 31.231C121.855 31.4425 121.813 31.5788 121.765 31.6704L123.529 32.6116C123.758 32.1832 123.855 31.7128 123.855 31.231H121.855ZM121.752 31.6938C121.644 31.9108 121.535 32.0898 121.427 32.2356L123.035 33.4244C123.222 33.1716 123.39 32.8912 123.541 32.5882L121.752 31.6938ZM121.422 32.2418C121.289 32.4247 121.177 32.572 121.086 32.6863L122.648 33.9357C122.764 33.79 122.895 33.6166 123.04 33.4182L121.422 32.2418ZM121.081 32.6932C120.932 32.8819 120.808 33.0896 120.717 33.3166L122.574 34.0594C122.588 34.0264 122.611 33.9828 122.653 33.9288L121.081 32.6932ZM120.697 33.3718C120.606 33.6453 120.581 33.9387 120.581 34.208H122.581C122.581 34.1317 122.585 34.0767 122.589 34.0395C122.594 34.0014 122.598 33.9925 122.595 34.0042L120.697 33.3718ZM120.581 34.208V38.732H122.581V34.208H120.581ZM120.581 38.732C120.581 39.0069 120.634 39.4189 120.937 39.7604L122.432 38.4316C122.516 38.5258 122.553 38.6179 122.568 38.6718C122.583 38.7228 122.581 38.748 122.581 38.732H120.581ZM120.978 39.8031C121.3 40.1249 121.702 40.213 122.023 40.213V38.213C122.049 38.213 122.226 38.2231 122.392 38.3889L120.978 39.8031ZM122.023 40.213C122.175 40.213 122.322 40.194 122.461 40.1632L122.027 38.2108C122.01 38.2147 122.009 38.213 122.023 38.213V40.213ZM122.44 40.1676C122.57 40.1416 122.701 40.1064 122.829 40.0583L122.127 38.1857C122.116 38.1896 122.091 38.1977 122.048 38.2064L122.44 40.1676ZM121.488 39.2663L121.67 40.5143L123.649 40.2257L123.467 38.9777L121.488 39.2663ZM122.194 39.4851C122.123 39.5227 122.026 39.5591 121.897 39.586L122.305 41.544C122.591 41.4843 122.868 41.3906 123.126 41.2549L122.194 39.4851ZM121.897 39.586C121.762 39.6141 121.61 39.63 121.438 39.63V41.63C121.734 41.63 122.023 41.6026 122.305 41.544L121.897 39.586ZM124.325 40.5H123.325V41.5H124.325V40.5ZM124.325 37.51H125.325V36.51H124.325V37.51ZM123.584 37.51H122.584V38.51H123.584V37.51ZM123.584 36.314V35.314H122.584V36.314H123.584ZM126.08 36.314H127.08V35.314H126.08V36.314ZM126.08 39.018H125.08V40.018H126.08V39.018ZM126.899 38.784L126.299 37.984L126.29 37.9902L126.282 37.9965L126.899 38.784ZM127.367 38.095L128.313 38.4193L128.315 38.4112L127.367 38.095ZM127.289 35.651L126.38 36.0685L126.387 36.0835L126.394 36.0982L127.289 35.651ZM126.626 34.962L127.051 34.0572L127.051 34.0572L126.626 34.962ZM124.312 34.949L124.628 35.8977L124.638 35.8943L124.648 35.8907L124.312 34.949ZM123.337 35.391H122.337V37.1664L123.855 36.2462L123.337 35.391ZM123.337 33.766L122.879 32.877L122.337 33.1563V33.766H123.337ZM124.416 33.376L124.667 34.3438L124.667 34.3438L124.416 33.376ZM127.952 33.61L127.493 34.4984L127.499 34.5015L127.952 33.61ZM129.122 34.832L130.03 34.4139L130.03 34.4139L129.122 34.832ZM129.148 38.862L128.228 38.4681L128.225 38.4753L129.148 38.862ZM128.03 40.084L127.559 39.2016L127.553 39.205L128.03 40.084ZM125.325 40.5V37.51H123.325V40.5H125.325ZM124.325 36.51H123.584V38.51H124.325V36.51ZM124.584 37.51V36.314H122.584V37.51H124.584ZM123.584 37.314H126.08V35.314H123.584V37.314ZM125.08 36.314V39.018H127.08V36.314H125.08ZM126.08 40.018H126.171V38.018H126.08V40.018ZM126.171 40.018C126.649 40.018 127.117 39.8829 127.515 39.5715L126.282 37.9965C126.282 37.9971 126.264 38.018 126.171 38.018V40.018ZM127.499 39.584C127.901 39.2822 128.159 38.8677 128.313 38.4193L126.421 37.7707C126.366 37.929 126.312 37.9738 126.299 37.984L127.499 39.584ZM128.315 38.4112C128.464 37.9641 128.523 37.4589 128.523 36.925H126.523C126.523 37.3271 126.477 37.6019 126.418 37.7788L128.315 38.4112ZM128.523 36.925C128.523 36.3084 128.436 35.7096 128.183 35.2038L126.394 36.0982C126.453 36.2164 126.523 36.4669 126.523 36.925H128.523ZM128.197 35.2335C127.96 34.7178 127.578 34.3049 127.051 34.0572L126.2 35.8668C126.263 35.8964 126.322 35.9429 126.38 36.0685L128.197 35.2335ZM127.051 34.0572C126.587 33.8387 126.068 33.754 125.534 33.754V35.754C125.866 35.754 126.075 35.808 126.2 35.8668L127.051 34.0572ZM125.534 33.754C124.987 33.754 124.463 33.8329 123.975 34.0073L124.648 35.8907C124.888 35.8051 125.179 35.754 125.534 35.754V33.754ZM123.995 34.0003C123.571 34.1418 123.176 34.3187 122.818 34.5358L123.855 36.2462C124.069 36.1166 124.324 35.9988 124.628 35.8977L123.995 34.0003ZM124.337 35.391V33.766H122.337V35.391H124.337ZM123.795 34.655C123.995 34.5517 124.28 34.4446 124.667 34.3438L124.164 32.4082C123.685 32.5328 123.25 32.6856 122.879 32.877L123.795 34.655ZM124.667 34.3438C125 34.2572 125.411 34.207 125.911 34.207V32.207C125.283 32.207 124.697 32.2695 124.164 32.4082L124.667 34.3438ZM125.911 34.207C126.657 34.207 127.163 34.328 127.493 34.4984L128.411 32.7216C127.7 32.3547 126.846 32.207 125.911 32.207V34.207ZM127.499 34.5015C127.824 34.6666 128.055 34.9057 128.213 35.2501L130.03 34.4139C129.686 33.6663 129.137 33.0907 128.405 32.7185L127.499 34.5015ZM128.213 35.2501C128.386 35.6259 128.499 36.1567 128.499 36.886H130.499C130.499 35.9686 130.36 35.1301 130.03 34.4139L128.213 35.2501ZM128.499 36.886C128.499 37.5605 128.396 38.0777 128.228 38.4681L130.067 39.2559C130.367 38.5543 130.499 37.7541 130.499 36.886H128.499ZM128.225 38.4753C128.09 38.7977 127.878 39.0313 127.559 39.2016L128.5 40.9664C129.221 40.5821 129.754 40.001 130.07 39.2487L128.225 38.4753ZM127.553 39.205C127.241 39.3741 126.74 39.5 125.976 39.5V41.5C126.927 41.5 127.795 41.3486 128.506 40.963L127.553 39.205ZM125.976 39.5H124.325V41.5H125.976V39.5ZM132.015 40.448L131.604 41.3594L131.604 41.3594L132.015 40.448ZM131.404 39.902L130.529 40.3851L130.532 40.3916L130.536 40.3981L131.404 39.902ZM131.196 33.376V32.376H130.196V33.376H131.196ZM133.146 33.376H134.146V32.376H133.146V33.376ZM133.25 39.096L132.503 39.7604L132.522 39.7823L132.543 39.8031L133.25 39.096ZM133.822 39.187L134.039 40.1632L134.039 40.1632L133.822 39.187ZM134.043 39.122L135.033 38.9777L134.854 37.7501L133.692 38.1857L134.043 39.122ZM134.225 40.37L134.691 41.2549L135.317 40.9255L135.215 40.2257L134.225 40.37ZM133.666 40.565L133.462 39.586L133.462 39.586L133.666 40.565ZM135.928 40.448L136.34 39.5366L136.34 39.5366L135.928 40.448ZM135.317 39.902L134.442 40.3851L134.445 40.3916L134.449 40.3981L135.317 39.902ZM135.109 33.376V32.376H134.109V33.376H135.109ZM137.059 33.376H138.059V32.376H137.059V33.376ZM137.163 39.096L136.416 39.7604L136.435 39.7823L136.456 39.8031L137.163 39.096ZM137.735 39.187L137.518 38.2108L137.518 38.2108L137.735 39.187ZM137.956 39.122L138.946 38.9777L138.767 37.7501L137.605 38.1857L137.956 39.122ZM138.138 40.37L138.604 41.2549L139.23 40.9255L139.128 40.2257L138.138 40.37ZM133.003 39.63C132.712 39.63 132.532 39.5839 132.427 39.5366L131.604 41.3594C132.036 41.5548 132.515 41.63 133.003 41.63V39.63ZM132.427 39.5366C132.339 39.497 132.301 39.455 132.273 39.4059L130.536 40.3981C130.785 40.8343 131.154 41.1563 131.604 41.3594L132.427 39.5366ZM132.28 39.4189C132.244 39.3532 132.196 39.2187 132.196 38.966H130.196C130.196 39.4586 130.288 39.9482 130.529 40.3851L132.28 39.4189ZM132.196 38.966V33.376H130.196V38.966H132.196ZM131.196 34.376H133.146V32.376H131.196V34.376ZM132.146 33.376V38.732H134.146V33.376H132.146ZM132.146 38.732C132.146 39.0069 132.199 39.4189 132.503 39.7604L133.998 38.4316C134.081 38.5258 134.118 38.6179 134.134 38.6718C134.148 38.7228 134.146 38.748 134.146 38.732H132.146ZM132.543 39.8031C132.875 40.1348 133.291 40.213 133.601 40.213V38.213C133.604 38.213 133.646 38.2129 133.713 38.2351C133.784 38.2588 133.874 38.3057 133.957 38.3889L132.543 39.8031ZM133.601 40.213C133.754 40.213 133.901 40.194 134.039 40.1632L133.605 38.2108C133.588 38.2147 133.588 38.213 133.601 38.213V40.213ZM134.039 40.1632C134.159 40.1365 134.278 40.102 134.394 40.0583L133.692 38.1857C133.67 38.194 133.641 38.2028 133.605 38.2108L134.039 40.1632ZM133.054 39.2663L133.236 40.5143L135.215 40.2257L135.033 38.9777L133.054 39.2663ZM133.76 39.4851C133.688 39.5227 133.592 39.5591 133.462 39.586L133.87 41.544C134.157 41.4843 134.433 41.3906 134.691 41.2549L133.76 39.4851ZM133.462 39.586C133.328 39.6141 133.176 39.63 133.003 39.63V41.63C133.299 41.63 133.589 41.6026 133.87 41.544L133.462 39.586ZM136.916 39.63C136.625 39.63 136.445 39.5839 136.34 39.5366L135.517 41.3594C135.949 41.5548 136.428 41.63 136.916 41.63V39.63ZM136.34 39.5366C136.252 39.497 136.214 39.455 136.186 39.4059L134.449 40.3981C134.698 40.8343 135.067 41.1563 135.517 41.3594L136.34 39.5366ZM136.193 39.4189C136.157 39.3532 136.109 39.2187 136.109 38.966H134.109C134.109 39.4586 134.201 39.9482 134.442 40.3851L136.193 39.4189ZM136.109 38.966V33.376H134.109V38.966H136.109ZM135.109 34.376H137.059V32.376H135.109V34.376ZM136.059 33.376V38.732H138.059V33.376H136.059ZM136.059 38.732C136.059 39.0069 136.112 39.4189 136.416 39.7604L137.911 38.4316C137.994 38.5258 138.031 38.6179 138.047 38.6718C138.061 38.7228 138.059 38.748 138.059 38.732H136.059ZM136.456 39.8031C136.788 40.1348 137.204 40.213 137.514 40.213V38.213C137.517 38.213 137.559 38.2129 137.626 38.2351C137.697 38.2588 137.787 38.3057 137.87 38.3889L136.456 39.8031ZM137.514 40.213C137.667 40.213 137.814 40.194 137.952 40.1632L137.518 38.2108C137.501 38.2147 137.501 38.213 137.514 38.213V40.213ZM137.952 40.1632C138.072 40.1365 138.191 40.102 138.307 40.0583L137.605 38.1857C137.583 38.194 137.554 38.2028 137.518 38.2108L137.952 40.1632ZM136.967 39.2663L137.149 40.5143L139.128 40.2257L138.946 38.9777L136.967 39.2663ZM137.673 39.4851C137.601 39.5227 137.505 39.5591 137.375 39.586L137.783 41.544C138.07 41.4843 138.346 41.3906 138.604 41.2549L137.673 39.4851ZM137.375 39.586C137.241 39.6141 137.089 39.63 136.916 39.63V41.63C137.212 41.63 137.502 41.6026 137.783 41.544L137.375 39.586ZM143.347 40.5H142.347V41.5H143.347V40.5ZM143.009 34.975L142.381 35.7529L142.381 35.7529L143.009 34.975ZM140.643 34.91L140.936 35.8663L140.948 35.8624L140.643 34.91ZM139.538 35.378H138.538V37.119L140.042 36.2418L139.538 35.378ZM139.538 33.766L139.104 32.8654L138.538 33.1383V33.766H139.538ZM140.604 33.402L140.86 34.3688L140.868 34.3666L140.877 34.3642L140.604 33.402ZM143.412 33.35L143.159 34.3174L143.172 34.3209L143.186 34.324L143.412 33.35ZM144.387 33.805L143.772 34.593L143.779 34.5991L143.787 34.605L144.387 33.805ZM145.024 34.65L144.101 35.033L144.106 35.0468L144.112 35.0604L145.024 34.65ZM145.258 40.5V41.5H146.258V40.5H145.258ZM139.486 40.097L138.821 40.8436L138.829 40.8506L139.486 40.097ZM139.629 36.938L138.992 36.1676L138.985 36.1731L139.629 36.938ZM141.995 36.184L141.917 35.187L141.915 35.1872L141.995 36.184ZM143.659 36.054H144.659V34.9728L143.581 35.057L143.659 36.054ZM143.659 37.458L143.758 38.4531L144.659 38.3638V37.458H143.659ZM142.216 37.601L142.118 36.6059L142.117 36.606L142.216 37.601ZM141.124 37.913L140.524 37.113L140.516 37.1192L140.508 37.1255L141.124 37.913ZM141.072 39.122L140.453 39.9069L140.462 39.9146L140.472 39.922L141.072 39.122ZM142.047 39.291L142.212 40.2774L142.251 40.2708L142.29 40.2611L142.047 39.291ZM142.333 39.213L143.324 39.076L143.164 37.9198L142.046 38.2552L142.333 39.213ZM142.502 40.435L142.848 41.3733L143.603 41.0951L143.493 40.298L142.502 40.435ZM141.917 40.578L142.069 41.5664L142.069 41.5664L141.917 40.578ZM144.347 40.5V35.872H142.347V40.5H144.347ZM144.347 35.872C144.347 35.2911 144.187 34.641 143.638 34.1971L142.381 35.7529C142.364 35.7391 142.35 35.7233 142.339 35.7084C142.329 35.6939 142.326 35.6856 142.327 35.6884C142.33 35.6968 142.347 35.75 142.347 35.872H144.347ZM143.638 34.1971C143.154 33.8064 142.535 33.702 141.969 33.702V35.702C142.142 35.702 142.257 35.7192 142.326 35.7375C142.395 35.7554 142.401 35.7693 142.381 35.7529L143.638 34.1971ZM141.969 33.702C141.414 33.702 140.869 33.7877 140.339 33.9576L140.948 35.8624C141.284 35.755 141.623 35.702 141.969 35.702V33.702ZM140.351 33.9538C139.868 34.1014 139.426 34.2857 139.034 34.5142L140.042 36.2418C140.274 36.1063 140.569 35.9786 140.936 35.8662L140.351 33.9538ZM140.538 35.378V33.766H138.538V35.378H140.538ZM139.973 34.6666C140.141 34.5856 140.426 34.4835 140.86 34.3688L140.349 32.4352C139.864 32.5632 139.439 32.7037 139.104 32.8654L139.973 34.6666ZM140.877 34.3642C141.227 34.265 141.665 34.207 142.203 34.207V32.207C141.528 32.207 140.9 32.279 140.332 32.4398L140.877 34.3642ZM142.203 34.207C142.574 34.207 142.891 34.2471 143.159 34.3174L143.666 32.3826C143.206 32.2623 142.716 32.207 142.203 32.207V34.207ZM143.186 34.324C143.429 34.3806 143.619 34.4735 143.772 34.593L145.003 33.017C144.601 32.7032 144.141 32.4927 143.639 32.376L143.186 34.324ZM143.787 34.605C143.906 34.694 144.014 34.8245 144.101 35.033L145.948 34.267C145.74 33.7648 145.423 33.332 144.987 33.005L143.787 34.605ZM144.112 35.0604C144.193 35.2398 144.258 35.5225 144.258 35.95H146.258C146.258 35.3375 146.168 34.7535 145.936 34.2396L144.112 35.0604ZM144.258 35.95V40.5H146.258V35.95H144.258ZM145.258 39.5H143.347V41.5H145.258V39.5ZM141.215 39.63C140.62 39.63 140.31 39.4885 140.144 39.3434L138.829 40.8506C139.477 41.4161 140.32 41.63 141.215 41.63V39.63ZM140.152 39.3505C140.008 39.2228 139.888 39.0206 139.888 38.602H137.888C137.888 39.466 138.167 40.2605 138.821 40.8435L140.152 39.3505ZM139.888 38.602C139.888 38.1789 140.023 37.9136 140.273 37.7029L138.985 36.1731C138.247 36.7944 137.888 37.6384 137.888 38.602H139.888ZM140.267 37.7084C140.538 37.4837 141.085 37.2607 142.076 37.1808L141.915 35.1872C140.757 35.2806 139.726 35.5603 138.992 36.1676L140.267 37.7084ZM142.073 37.181L143.737 37.051L143.581 35.057L141.917 35.187L142.073 37.181ZM142.659 36.054V37.458H144.659V36.054H142.659ZM143.561 36.4629L142.118 36.6059L142.315 38.5961L143.758 38.4531L143.561 36.4629ZM142.117 36.606C141.565 36.6611 140.964 36.7831 140.524 37.113L141.724 38.713C141.697 38.7335 141.715 38.7119 141.828 38.6795C141.936 38.6487 142.095 38.6182 142.316 38.596L142.117 36.606ZM140.508 37.1255C140.059 37.477 139.825 37.9792 139.825 38.537H141.825C141.825 38.536 141.825 38.5445 141.822 38.56C141.819 38.576 141.812 38.5962 141.802 38.6181C141.779 38.6661 141.75 38.693 141.741 38.7005L140.508 37.1255ZM139.825 38.537C139.825 39.0223 139.991 39.5423 140.453 39.9069L141.692 38.3371C141.743 38.3775 141.785 38.4329 141.808 38.4893C141.83 38.5395 141.825 38.563 141.825 38.537H139.825ZM140.472 39.922C140.857 40.2103 141.303 40.317 141.735 40.317V38.317C141.681 38.317 141.655 38.3104 141.65 38.3089C141.648 38.3082 141.65 38.3085 141.655 38.3109C141.66 38.3134 141.666 38.3171 141.672 38.322L140.472 39.922ZM141.735 40.317C141.895 40.317 142.054 40.3037 142.212 40.2774L141.883 38.3046C141.833 38.313 141.784 38.317 141.735 38.317V40.317ZM142.29 40.2611C142.406 40.232 142.517 40.202 142.621 40.1708L142.046 38.2552C141.977 38.276 141.896 38.298 141.805 38.3209L142.29 40.2611ZM141.343 39.35L141.512 40.572L143.493 40.298L143.324 39.076L141.343 39.35ZM142.157 39.4967C142.07 39.5286 141.943 39.5623 141.765 39.5896L142.069 41.5664C142.342 41.5244 142.605 41.4628 142.848 41.3733L142.157 39.4967ZM141.765 39.5896C141.593 39.6161 141.41 39.63 141.215 39.63V41.63C141.506 41.63 141.791 41.6093 142.069 41.5664L141.765 39.5896ZM141.211 32.401H140.211V33.401H141.211V32.401ZM141.211 31.751L140.936 30.7895L140.211 30.9967V31.751H141.211ZM141.614 31.608L141.994 32.5327L141.994 32.5327L141.614 31.608ZM142.004 31.361L142.682 32.0958L142.682 32.0958L142.004 31.361ZM142.069 30.685L142.776 29.9779L142.776 29.9779L142.069 30.685ZM141.588 30.62L141.271 29.6713L141.271 29.6713L141.588 30.62ZM141.38 30.698L140.418 30.9708L140.728 32.0653L141.773 31.6171L141.38 30.698ZM141.133 29.827L140.485 29.0651L139.995 29.4814L140.171 30.0998L141.133 29.827ZM141.783 29.541L141.947 30.5274L141.966 30.5242L141.985 30.5203L141.783 29.541ZM143.343 29.736L143.986 28.9703L143.978 28.9641L143.971 28.9581L143.343 29.736ZM143.525 31.075L144.37 31.609L144.38 31.5927L144.39 31.576L143.525 31.075ZM143.057 31.478L142.068 31.6301L142.277 32.9859L143.504 32.3724L143.057 31.478ZM143.005 31.14V30.14H141.839L142.016 31.2921L143.005 31.14ZM145.462 31.14H146.462V30.14H145.462V31.14ZM145.462 32.401V33.401H146.462V32.401H145.462ZM142.211 32.401V31.751H140.211V32.401H142.211ZM141.485 32.7125C141.651 32.6653 141.821 32.6041 141.994 32.5327L141.233 30.6833C141.112 30.7332 141.013 30.7674 140.936 30.7895L141.485 32.7125ZM141.994 32.5327C142.247 32.4287 142.479 32.2834 142.682 32.0958L141.325 30.6262C141.303 30.6466 141.275 30.666 141.233 30.6833L141.994 32.5327ZM142.682 32.0958C143.004 31.7988 143.173 31.4006 143.173 30.971H141.173C141.173 30.9261 141.181 30.8606 141.213 30.7879C141.244 30.7148 141.288 30.6608 141.325 30.6262L142.682 32.0958ZM143.173 30.971C143.173 30.6512 143.075 30.2772 142.776 29.9779L141.361 31.3921C141.289 31.3198 141.238 31.235 141.207 31.1502C141.177 31.0693 141.173 31.0046 141.173 30.971H143.173ZM142.776 29.9779C142.507 29.7088 142.16 29.581 141.809 29.581V31.581C141.748 31.581 141.668 31.5705 141.58 31.5355C141.491 31.5 141.418 31.4483 141.361 31.3921L142.776 29.9779ZM141.809 29.581C141.614 29.581 141.433 29.6175 141.271 29.6713L141.904 31.5687C141.898 31.5705 141.865 31.581 141.809 31.581V29.581ZM141.271 29.6713C141.173 29.7041 141.077 29.7397 140.986 29.7789L141.773 31.6171C141.803 31.6043 141.846 31.5879 141.904 31.5687L141.271 29.6713ZM142.342 30.4252L142.095 29.5542L140.171 30.0998L140.418 30.9708L142.342 30.4252ZM141.78 30.5889C141.795 30.5763 141.837 30.5458 141.947 30.5274L141.618 28.5546C141.208 28.6229 140.817 28.7831 140.485 29.0651L141.78 30.5889ZM141.985 30.5203C142.198 30.4761 142.338 30.463 142.42 30.463V28.463C142.154 28.463 141.869 28.5019 141.58 28.5617L141.985 30.5203ZM142.42 30.463C142.538 30.463 142.615 30.477 142.659 30.4902C142.701 30.5025 142.714 30.5137 142.714 30.5139L143.971 28.9581C143.515 28.5895 142.959 28.463 142.42 28.463V30.463ZM142.699 30.5017C142.692 30.4951 142.682 30.4855 142.674 30.4737C142.665 30.4619 142.661 30.4524 142.659 30.448C142.656 30.4398 142.668 30.4643 142.668 30.542H144.668C144.668 29.9733 144.485 29.3894 143.986 28.9703L142.699 30.5017ZM142.668 30.542C142.668 30.553 142.666 30.5578 142.666 30.5591C142.666 30.5604 142.664 30.5649 142.659 30.574L144.39 31.576C144.574 31.2588 144.668 30.9082 144.668 30.542H142.668ZM142.679 30.541C142.683 30.5349 142.684 30.5352 142.677 30.5415C142.669 30.5484 142.649 30.5638 142.609 30.5836L143.504 32.3724C143.843 32.2028 144.151 31.9555 144.37 31.609L142.679 30.541ZM144.045 31.3259L143.993 30.9879L142.016 31.2921L142.068 31.6301L144.045 31.3259ZM143.005 32.14H145.462V30.14H143.005V32.14ZM144.462 31.14V32.401H146.462V31.14H144.462ZM145.462 31.401H141.211V33.401H145.462V31.401ZM147.724 40.513L147.981 39.5468L147.971 39.5441L147.961 39.5416L147.724 40.513ZM146.632 40.097L145.693 39.7525L145.394 40.5664L146.157 40.9775L146.632 40.097ZM147.152 38.68L147.66 37.8191L146.626 37.2082L146.213 38.3355L147.152 38.68ZM149.791 38.563L150.577 39.1809L150.584 39.1718L149.791 38.563ZM149.791 35.313L150.577 34.6952L150.577 34.6952L149.791 35.313ZM147.568 34.897L147.817 35.8655L147.83 35.8622L147.842 35.8585L147.568 34.897ZM146.814 35.196H145.814V36.9754L147.334 36.0502L146.814 35.196ZM146.814 33.597L146.402 32.6856L145.814 32.9514V33.597H146.814ZM150.753 33.649L150.247 34.5117L150.247 34.5117L150.753 33.649ZM151.858 34.923L150.936 35.3117L150.938 35.3169L151.858 34.923ZM151.364 39.707L150.612 39.0471L150.612 39.0471L151.364 39.707ZM148.972 39.669C148.608 39.669 148.28 39.6263 147.981 39.5468L147.466 41.4792C147.948 41.6077 148.451 41.669 148.972 41.669V39.669ZM147.961 39.5416C147.65 39.4655 147.366 39.3565 147.106 39.2165L146.157 40.9775C146.574 41.2015 147.017 41.3698 147.486 41.4844L147.961 39.5416ZM147.57 40.4415L148.09 39.0245L146.213 38.3355L145.693 39.7525L147.57 40.4415ZM146.643 39.5409C146.912 39.6998 147.213 39.8272 147.534 39.9307L148.148 38.0273C147.931 37.9575 147.773 37.8855 147.66 37.8191L146.643 39.5409ZM147.534 39.9307C147.893 40.0466 148.261 40.109 148.634 40.109V38.109C148.486 38.109 148.326 38.0847 148.148 38.0273L147.534 39.9307ZM148.634 40.109C149.409 40.109 150.091 39.7993 150.577 39.1808L149.004 37.9452C148.918 38.0547 148.829 38.109 148.634 38.109V40.109ZM150.584 39.1718C151.061 38.5501 151.22 37.7387 151.22 36.899H149.22C149.22 37.5326 149.092 37.8306 148.997 37.9542L150.584 39.1718ZM151.22 36.899C151.22 36.0883 151.055 35.3041 150.577 34.6952L149.004 35.9308C149.098 36.0499 149.22 36.3231 149.22 36.899H151.22ZM150.577 34.6952C150.046 34.019 149.262 33.767 148.452 33.767V35.767C148.854 35.767 148.964 35.879 149.004 35.9308L150.577 34.6952ZM148.452 33.767C148.064 33.767 147.676 33.8259 147.293 33.9355L147.842 35.8585C148.065 35.7948 148.268 35.767 148.452 35.767V33.767ZM147.319 33.9285C146.95 34.0232 146.6 34.1551 146.294 34.3418L147.334 36.0502C147.426 35.9942 147.578 35.9268 147.817 35.8655L147.319 33.9285ZM147.814 35.196V33.597H145.814V35.196H147.814ZM147.225 34.5084C147.416 34.4221 147.647 34.3475 147.925 34.2906L147.523 32.3314C147.124 32.4132 146.748 32.5292 146.402 32.6856L147.225 34.5084ZM147.925 34.2906C148.19 34.2362 148.482 34.207 148.803 34.207V32.207C148.361 32.207 147.933 32.2472 147.523 32.3314L147.925 34.2906ZM148.803 34.207C149.485 34.207 149.944 34.3341 150.247 34.5117L151.258 32.7863C150.556 32.3745 149.715 32.207 148.803 32.207V34.207ZM150.247 34.5117C150.557 34.6935 150.783 34.9486 150.936 35.3117L152.779 34.5343C152.464 33.788 151.954 33.1938 151.258 32.7863L150.247 34.5117ZM150.938 35.3169C151.106 35.7073 151.209 36.2245 151.209 36.899H153.209C153.209 36.0309 153.077 35.2307 152.777 34.5291L150.938 35.3169ZM151.209 36.899C151.209 37.9924 150.957 38.6544 150.612 39.0471L152.115 40.3669C152.897 39.4769 153.209 38.2669 153.209 36.899H151.209ZM150.612 39.0471C150.278 39.4276 149.781 39.669 148.972 39.669V41.669C150.225 41.669 151.322 41.2691 152.115 40.3669L150.612 39.0471Z" fill="#165DE7" mask="url(#path-5-outside-3_6282_42281)"/>
</g>
<g filter="url(#filter2_df_6282_42281)">
<path d="M36.8248 30.1865C35.2867 32.2081 35.1104 33.6783 33.5943 32.5247C32.0781 31.3712 32.0959 28.7972 33.634 26.7756C35.1721 24.754 37.6481 24.0504 39.1642 25.204C40.6804 26.3576 38.3629 28.165 36.8248 30.1865Z" fill="url(#paint1_linear_6282_42281)"/>
</g>
</g>
<defs>
<filter id="filter0_dd_6282_42281" x="19" y="20.5" width="216" height="48" filterUnits="userSpaceOnUse" color-interpolation-filters="sRGB">
<feFlood flood-opacity="0" result="BackgroundImageFix"/>
<feColorMatrix in="SourceAlpha" type="matrix" values="0 0 0 0 0 0 0 0 0 0 0 0 0 0 0 0 0 0 127 0" result="hardAlpha"/>
<feOffset dy="8"/>
<feGaussianBlur stdDeviation="4"/>
<feComposite in2="hardAlpha" operator="out"/>
<feColorMatrix type="matrix" values="0 0 0 0 0 0 0 0 0 0 0 0 0 0 0 0 0 0 0.05 0"/>
<feBlend mode="normal" in2="BackgroundImageFix" result="effect1_dropShadow_6282_42281"/>
<feColorMatrix in="SourceAlpha" type="matrix" values="0 0 0 0 0 0 0 0 0 0 0 0 0 0 0 0 0 0 127 0" result="hardAlpha"/>
<feOffset dy="4"/>
<feGaussianBlur stdDeviation="2"/>
<feComposite in2="hardAlpha" operator="out"/>
<feColorMatrix type="matrix" values="0 0 0 0 0 0 0 0 0 0 0 0 0 0 0 0 0 0 0.15 0"/>
<feBlend mode="normal" in2="effect1_dropShadow_6282_42281" result="effect2_dropShadow_6282_42281"/>
<feBlend mode="normal" in="SourceGraphic" in2="effect2_dropShadow_6282_42281" result="shape"/>
</filter>
<filter id="filter1_dd_6282_42281" x="94.2637" y="29.4629" width="65.9453" height="27.207" filterUnits="userSpaceOnUse" color-interpolation-filters="sRGB">
<feFlood flood-opacity="0" result="BackgroundImageFix"/>
<feColorMatrix in="SourceAlpha" type="matrix" values="0 0 0 0 0 0 0 0 0 0 0 0 0 0 0 0 0 0 127 0" result="hardAlpha"/>
<feOffset dy="8"/>
<feGaussianBlur stdDeviation="4"/>
<feComposite in2="hardAlpha" operator="out"/>
<feColorMatrix type="matrix" values="0 0 0 0 0 0 0 0 0 0 0 0 0 0 0 0 0 0 0.05 0"/>
<feBlend mode="normal" in2="BackgroundImageFix" result="effect1_dropShadow_6282_42281"/>
<feColorMatrix in="SourceAlpha" type="matrix" values="0 0 0 0 0 0 0 0 0 0 0 0 0 0 0 0 0 0 127 0" result="hardAlpha"/>
<feOffset dy="4"/>
<feGaussianBlur stdDeviation="2"/>
<feComposite in2="hardAlpha" operator="out"/>
<feColorMatrix type="matrix" values="0 0 0 0 0 0 0 0 0 0 0 0 0 0 0 0 0 0 0.15 0"/>
<feBlend mode="normal" in2="effect1_dropShadow_6282_42281" result="effect2_dropShadow_6282_42281"/>
<feBlend mode="normal" in="SourceGraphic" in2="effect2_dropShadow_6282_42281" result="shape"/>
</filter>
<filter id="filter2_df_6282_42281" x="0.46875" y="0.648438" width="71.1895" height="72.2812" filterUnits="userSpaceOnUse" color-interpolation-filters="sRGB">
<feFlood flood-opacity="0" result="BackgroundImageFix"/>
<feColorMatrix in="SourceAlpha" type="matrix" values="0 0 0 0 0 0 0 0 0 0 0 0 0 0 0 0 0 0 127 0" result="hardAlpha"/>
<feOffset dy="8"/>
<feGaussianBlur stdDeviation="16"/>
<feComposite in2="hardAlpha" operator="out"/>
<feColorMatrix type="matrix" values="0 0 0 0 1 0 0 0 0 1 0 0 0 0 1 0 0 0 0.5 0"/>
<feBlend mode="normal" in2="BackgroundImageFix" result="effect1_dropShadow_6282_42281"/>
<feBlend mode="normal" in="SourceGraphic" in2="effect1_dropShadow_6282_42281" result="shape"/>
<feGaussianBlur stdDeviation="2" result="effect2_foregroundBlur_6282_42281"/>
</filter>
<linearGradient id="paint0_linear_6282_42281" x1="127" y1="36.5" x2="127" y2="46.5" gradientUnits="userSpaceOnUse">
<stop stop-color="white"/>
</linearGradient>
<linearGradient id="paint1_linear_6282_42281" x1="35.5242" y1="28.2138" x2="32.7392" y2="31.8742" gradientUnits="userSpaceOnUse">
<stop stop-color="white"/>
</linearGradient>
</defs>
</svg>
