<svg width="16" height="17" viewBox="0 0 16 17" fill="none" xmlns="http://www.w3.org/2000/svg">
<path d="M3.33333 5.83325H12.6667V4.49992H3.33333V5.83325ZM3.33333 15.1666C2.96667 15.1666 2.65278 15.036 2.39167 14.7749C2.13056 14.5138 2 14.1999 2 13.8333V4.49992C2 4.13325 2.13056 3.81936 2.39167 3.55825C2.65278 3.29714 2.96667 3.16659 3.33333 3.16659H4V1.83325H5.33333V3.16659H10.6667V1.83325H12V3.16659H12.6667C13.0333 3.16659 13.3472 3.29714 13.6083 3.55825C13.8694 3.81936 14 4.13325 14 4.49992V8.28325C13.7889 8.18325 13.5722 8.09992 13.35 8.03325C13.1278 7.96659 12.9 7.91659 12.6667 7.88325V7.16659H3.33333V13.8333H7.53333C7.61111 14.0777 7.70278 14.311 7.80833 14.5333C7.91389 14.7555 8.03889 14.9666 8.18333 15.1666H3.33333ZM12 15.8333C11.0778 15.8333 10.2917 15.5083 9.64167 14.8583C8.99167 14.2083 8.66667 13.4221 8.66667 12.4999C8.66667 11.5777 8.99167 10.7916 9.64167 10.1416C10.2917 9.49159 11.0778 9.16659 12 9.16659C12.9222 9.16659 13.7083 9.49159 14.3583 10.1416C15.0083 10.7916 15.3333 11.5777 15.3333 12.4999C15.3333 13.4221 15.0083 14.2083 14.3583 14.8583C13.7083 15.5083 12.9222 15.8333 12 15.8333ZM13.1167 14.0833L13.5833 13.6166L12.3333 12.3666V10.4999H11.6667V12.6333L13.1167 14.0833Z" fill="#333333"/>
</svg>
