<svg width="20" height="20" viewBox="0 0 20 20" fill="none" xmlns="http://www.w3.org/2000/svg">
<path d="M7.66667 2.51242H7.67544L7.67842 2.50416C7.85814 2.00649 8.1587 1.60578 8.58023 1.30172C9.00169 0.99772 9.47482 0.845752 10 0.845752C10.5252 0.845752 10.9983 0.99772 11.4198 1.30172C11.8413 1.60578 12.1419 2.00649 12.3216 2.50416L12.3246 2.51242H12.3333H15.8333C16.2883 2.51242 16.6775 2.67428 17.0016 2.99834C17.3256 3.3224 17.4875 3.71159 17.4875 4.16658V15.8333C17.4875 16.2882 17.3256 16.6774 17.0016 17.0015C16.6775 17.3256 16.2883 17.4874 15.8333 17.4874H4.16667C3.71167 17.4874 3.32249 17.3256 2.99842 17.0015C2.67436 16.6774 2.5125 16.2882 2.5125 15.8333V4.16658C2.5125 3.71159 2.67436 3.3224 2.99842 2.99834C3.32249 2.67428 3.71167 2.51242 4.16667 2.51242H7.66667ZM4.15417 15.8333V15.8458H4.16667H15.8333H15.8458V15.8333V4.16658V4.15409H15.8333H4.16667H4.15417V4.16658V15.8333ZM10.5849 13.9182C10.4276 14.0754 10.233 14.1541 10 14.1541C9.76704 14.1541 9.57235 14.0754 9.41509 13.9182C9.25783 13.7609 9.17917 13.5662 9.17917 13.3333C9.17917 13.1003 9.25783 12.9056 9.41509 12.7483C9.57235 12.5911 9.76704 12.5124 10 12.5124C10.233 12.5124 10.4276 12.5911 10.5849 12.7483C10.7422 12.9056 10.8208 13.1003 10.8208 13.3333C10.8208 13.5662 10.7422 13.7609 10.5849 13.9182ZM10.8208 10.8208H9.17917V5.84575H10.8208V10.8208ZM10 3.55409C10.1836 3.55409 10.3362 3.49394 10.4568 3.37334C10.5774 3.25274 10.6375 3.10016 10.6375 2.91659C10.6375 2.73301 10.5774 2.58043 10.4568 2.45983C10.3362 2.33923 10.1836 2.27909 10 2.27909C9.81643 2.27909 9.66385 2.33923 9.54324 2.45983C9.42264 2.58043 9.3625 2.73301 9.3625 2.91659C9.3625 3.10016 9.42264 3.25274 9.54324 3.37334C9.66385 3.49394 9.81643 3.55409 10 3.55409Z" fill="#333333" stroke="#333333" stroke-width="0.025"/>
</svg>
