<svg width="17" height="16" viewBox="0 0 17 16" fill="none" xmlns="http://www.w3.org/2000/svg">
<g id="u:facebook">
<path id="Vector" d="M14.683 1.33334H2.81634C2.62185 1.33334 2.43532 1.41061 2.2978 1.54813C2.16027 1.68566 2.08301 1.87218 2.08301 2.06668V13.9333C2.08301 14.0296 2.10198 14.125 2.13883 14.214C2.17568 14.3029 2.2297 14.3838 2.2978 14.4519C2.36589 14.52 2.44673 14.574 2.53571 14.6109C2.62468 14.6477 2.72004 14.6667 2.81634 14.6667H9.20301V9.50001H7.46967V7.50001H9.20301V6.00001C9.1671 5.64785 9.20868 5.29209 9.32482 4.9577C9.44096 4.62331 9.62885 4.31837 9.87532 4.06428C10.1218 3.81019 10.4209 3.6131 10.7516 3.48684C11.0823 3.36057 11.4366 3.30818 11.7897 3.33334C12.3086 3.33015 12.8272 3.35686 13.343 3.41334V5.21334H12.283C11.443 5.21334 11.283 5.61334 11.283 6.19334V7.48001H13.283L13.023 9.48001H11.283V14.6667H14.683C14.7793 14.6667 14.8747 14.6477 14.9636 14.6109C15.0526 14.574 15.1335 14.52 15.2016 14.4519C15.2697 14.3838 15.3237 14.3029 15.3605 14.214C15.3974 14.125 15.4163 14.0296 15.4163 13.9333V2.06668C15.4163 1.97037 15.3974 1.87501 15.3605 1.78604C15.3237 1.69707 15.2697 1.61623 15.2016 1.54813C15.1335 1.48004 15.0526 1.42602 14.9636 1.38917C14.8747 1.35231 14.7793 1.33334 14.683 1.33334Z" fill="#333333"/>
</g>
</svg>
