<svg width="20" height="21" viewBox="0 0 20 21" fill="none" xmlns="http://www.w3.org/2000/svg">
<g id="icon-24/book">
<path id="Vector" d="M16.9048 3.2976C16.9048 2.21724 16.0208 1.33331 14.9405 1.33331H4.94226C3.59345 1.33331 2.5 2.42022 2.5 3.74938V17.2506C2.5 18.5797 3.59345 19.6666 4.94226 19.6666H16.25C16.4923 19.6666 16.7149 19.5357 16.8262 19.3196C16.9375 19.1035 16.9244 18.8482 16.7935 18.6452C16.1518 17.6958 16.1518 16.8053 16.7935 15.8559C16.8589 15.7446 16.9048 15.6202 16.9048 15.4893V3.2976ZM15.5952 3.2976V14.8345H6.90655V2.64284H14.9405C15.3006 2.64284 15.5952 2.93748 15.5952 3.2976ZM4.94226 2.64284H5.59702V14.8345H4.94226C4.52976 14.8345 4.15 14.9458 3.80952 15.1226V3.74938C3.80952 3.14046 4.32024 2.64284 4.94226 2.64284ZM15.1893 18.3571H4.94226C4.32024 18.3571 3.80952 17.8595 3.80952 17.2506C3.80952 16.6416 4.32024 16.144 4.94226 16.144H15.1893C14.9405 16.8774 14.9405 17.6238 15.1893 18.3571Z" fill="url(#paint0_linear_6895_42008)"/>
<path id="Vector_2" d="M8.87058 8.31323H13.6307C13.9908 8.31323 14.2855 8.01859 14.2855 7.65847V4.60728C14.2855 4.24716 13.9908 3.95251 13.6307 3.95251H8.87058C8.51046 3.95251 8.21582 4.24716 8.21582 4.60728V7.65847C8.21582 8.01859 8.51046 8.31323 8.87058 8.31323ZM9.52534 5.26204H12.9759V7.0037H9.52534V5.26204Z" fill="url(#paint1_linear_6895_42008)"/>
</g>
<defs>
<linearGradient id="paint0_linear_6895_42008" x1="9.70238" y1="10.5" x2="9.70238" y2="19.6666" gradientUnits="userSpaceOnUse">
<stop stop-color="white"/>
</linearGradient>
<linearGradient id="paint1_linear_6895_42008" x1="11.2506" y1="6.13287" x2="11.2506" y2="8.31323" gradientUnits="userSpaceOnUse">
<stop stop-color="white"/>
</linearGradient>
</defs>
</svg>
