<svg width="16" height="23" viewBox="0 0 16 23" fill="none" xmlns="http://www.w3.org/2000/svg">
<path d="M7.5 18.43V17.989L7.0625 17.9339C5.25123 17.7057 3.58538 16.8247 2.37725 15.4561C1.16917 14.0875 0.501718 12.3253 0.5 10.4998C0.50005 10.3673 0.552723 10.2402 0.646447 10.1464C0.740215 10.0527 0.867392 10 1 10C1.13261 10 1.25978 10.0527 1.35355 10.1464C1.44732 10.2402 1.5 10.3674 1.5 10.5C1.5 12.2239 2.18482 13.8772 3.40381 15.0962C4.62279 16.3152 6.27609 17 8 17C9.72391 17 11.3772 16.3152 12.5962 15.0962C13.8152 13.8772 14.5 12.2239 14.5 10.5C14.5 10.3674 14.5527 10.2402 14.6464 10.1464C14.7402 10.0527 14.8674 10 15 10C15.1326 10 15.2598 10.0527 15.3536 10.1464C15.4473 10.2402 15.5 10.3674 15.5 10.5H16L15.5 10.4995C15.4983 12.3251 14.8309 14.0874 13.6228 15.4561C12.4146 16.8247 10.7488 17.7057 8.9375 17.9339L8.5 17.989V18.43V20.5V21H9H11C11.1326 21 11.2598 21.0527 11.3536 21.1464C11.4473 21.2402 11.5 21.3674 11.5 21.5C11.5 21.6326 11.4473 21.7598 11.3536 21.8536C11.2598 21.9473 11.1326 22 11 22H5C4.86739 22 4.74021 21.9473 4.64645 21.8536C4.55268 21.7598 4.5 21.6326 4.5 21.5C4.5 21.3674 4.55268 21.2402 4.64645 21.1464C4.74021 21.0527 4.86739 21 5 21H7H7.5V20.5V18.43ZM10.4749 12.9749C9.8185 13.6313 8.92826 14 8 14C7.07174 14 6.1815 13.6313 5.52513 12.9749C4.86875 12.3185 4.5 11.4283 4.5 10.5V4.5C4.5 3.57174 4.86875 2.6815 5.52513 2.02513C6.1815 1.36875 7.07174 1 8 1C8.92826 1 9.8185 1.36875 10.4749 2.02513C11.1313 2.6815 11.5 3.57174 11.5 4.5V10.5C11.5 11.4283 11.1313 12.3185 10.4749 12.9749ZM6.23223 2.73223C5.76339 3.20107 5.5 3.83696 5.5 4.5V10.5C5.5 11.163 5.76339 11.7989 6.23223 12.2678C6.70107 12.7366 7.33696 13 8 13C8.66304 13 9.29893 12.7366 9.76777 12.2678C10.2366 11.7989 10.5 11.163 10.5 10.5V4.5C10.5 3.83696 10.2366 3.20107 9.76777 2.73223C9.29893 2.26339 8.66304 2 8 2C7.33696 2 6.70107 2.26339 6.23223 2.73223Z" fill="#333333" stroke="#333333"/>
</svg>
