<svg width="16" height="17" viewBox="0 0 16 17" fill="none" xmlns="http://www.w3.org/2000/svg">
<path fill-rule="evenodd" clip-rule="evenodd" d="M0 8.5C0 4.084 3.576 0.5 7.992 0.5C12.416 0.5 16 4.084 16 8.5C16 12.916 12.416 16.5 7.992 16.5C3.576 16.5 0 12.916 0 8.5ZM11.176 5.3H13.536C12.768 3.98 11.544 2.956 10.072 2.452C10.552 3.34 10.92 4.3 11.176 5.3ZM8 2.132C8.664 3.092 9.184 4.156 9.528 5.3H6.472C6.816 4.156 7.336 3.092 8 2.132ZM1.6 8.5C1.6 9.052 1.68 9.588 1.808 10.1H4.512C4.448 9.572 4.4 9.044 4.4 8.5C4.4 7.956 4.448 7.428 4.512 6.9H1.808C1.68 7.412 1.6 7.948 1.6 8.5ZM2.464 11.7H4.824C5.08 12.7 5.448 13.66 5.928 14.548C4.456 14.044 3.232 13.028 2.464 11.7ZM2.464 5.3H4.824C5.08 4.3 5.448 3.34 5.928 2.452C4.456 2.956 3.232 3.972 2.464 5.3ZM8 14.868C7.336 13.908 6.816 12.844 6.472 11.7H9.528C9.184 12.844 8.664 13.908 8 14.868ZM6 8.5C6 9.044 6.056 9.572 6.128 10.1H9.872C9.944 9.572 10 9.044 10 8.5C10 7.956 9.944 7.42 9.872 6.9H6.128C6.056 7.42 6 7.956 6 8.5ZM10.072 14.548C10.552 13.66 10.92 12.7 11.176 11.7H13.536C12.768 13.02 11.544 14.044 10.072 14.548ZM11.6 8.5C11.6 9.044 11.552 9.572 11.488 10.1H14.192C14.32 9.588 14.4 9.052 14.4 8.5C14.4 7.948 14.32 7.412 14.192 6.9H11.488C11.552 7.428 11.6 7.956 11.6 8.5Z" fill="white"/>
</svg>
