<svg width="20" height="15" viewBox="0 0 20 15" fill="none" xmlns="http://www.w3.org/2000/svg">
<path fill-rule="evenodd" clip-rule="evenodd" d="M13.9642 2.25275C15.0813 3.17076 15.8451 4.44814 16.125 5.86671C18.2917 6.01671 20 7.80004 20 10C20 12.3 18.1333 14.1667 15.8333 14.1667H5C2.24167 14.1667 3.3709e-08 11.925 3.3709e-08 9.16671C-0.000143011 7.93477 0.454976 6.74624 1.27791 5.82947C2.10084 4.91271 3.23353 4.3324 4.45833 4.20004C5.5 2.20004 7.59167 0.833374 10 0.833374C11.4459 0.833047 12.8471 1.33473 13.9642 2.25275ZM5 12.5H15.8333C17.2083 12.5 18.3333 11.375 18.3333 10C18.3305 9.37218 18.09 8.76869 17.6602 8.31103C17.2303 7.85337 16.6431 7.57551 16.0167 7.53337L14.7417 7.44171L14.4917 6.19171C14.0667 4.05004 12.1833 2.50004 10 2.50004C9.1613 2.49922 8.33865 2.72985 7.6226 3.16654C6.90656 3.60322 6.3249 4.22902 5.94167 4.97504L5.525 5.76671L4.63333 5.85837C2.94167 6.03337 1.66667 7.45837 1.66667 9.16671C1.66667 11.0084 3.15833 12.5 5 12.5ZM8.79167 9.16671V11.6667H11.2083V9.16671H13.3333L10 5.83337L6.66667 9.16671H8.79167Z" fill="white"/>
</svg>
