<svg width="16" height="17" viewBox="0 0 16 17" fill="none" xmlns="http://www.w3.org/2000/svg">
<path d="M14.433 1.99339C14.3603 1.93103 14.2751 1.88505 14.1831 1.8586C14.091 1.83214 13.9944 1.82581 13.8997 1.84006L5.23301 3.17339C5.07518 3.19734 4.93119 3.27712 4.8272 3.39824C4.72321 3.51935 4.66613 3.67376 4.66634 3.83339V10.7334C4.35485 10.5812 4.013 10.5015 3.66634 10.5001C3.20485 10.5001 2.75373 10.6369 2.37001 10.8933C1.9863 11.1497 1.68723 11.5141 1.51062 11.9405C1.33402 12.3668 1.28781 12.836 1.37784 13.2886C1.46788 13.7412 1.6901 14.157 2.01643 14.4833C2.34275 14.8096 2.75851 15.0319 3.21113 15.1219C3.66375 15.2119 4.13291 15.1657 4.55927 14.9891C4.98563 14.8125 5.35005 14.5134 5.60644 14.1297C5.86283 13.746 5.99968 13.2949 5.99968 12.8334V7.74006L13.333 6.61339V9.40006C13.0215 9.24791 12.6797 9.16815 12.333 9.16673C11.8715 9.16673 11.4204 9.30357 11.0367 9.55996C10.653 9.81635 10.3539 10.1808 10.1773 10.6071C10.0007 11.0335 9.95448 11.5026 10.0445 11.9553C10.1345 12.4079 10.3568 12.8237 10.6831 13.15C11.0094 13.4763 11.4252 13.6985 11.8778 13.7886C12.3304 13.8786 12.7996 13.8324 13.2259 13.6558C13.6523 13.4792 14.0167 13.1801 14.2731 12.7964C14.5295 12.4127 14.6663 11.9615 14.6663 11.5001V2.50006C14.6663 2.40377 14.6455 2.30861 14.6052 2.22115C14.5649 2.13368 14.5062 2.05598 14.433 1.99339ZM3.66634 13.8334C3.46856 13.8334 3.27522 13.7747 3.11077 13.6649C2.94632 13.555 2.81815 13.3988 2.74246 13.2161C2.66677 13.0333 2.64697 12.8323 2.68556 12.6383C2.72414 12.4443 2.81938 12.2661 2.95924 12.1263C3.09909 11.9864 3.27727 11.8912 3.47125 11.8526C3.66523 11.814 3.8663 11.8338 4.04903 11.9095C4.23175 11.9852 4.38793 12.1134 4.49781 12.2778C4.60769 12.4423 4.66634 12.6356 4.66634 12.8334C4.66634 13.0986 4.56099 13.353 4.37345 13.5405C4.18591 13.728 3.93156 13.8334 3.66634 13.8334ZM12.333 12.5001C12.1352 12.5001 11.9419 12.4414 11.7774 12.3315C11.613 12.2216 11.4848 12.0655 11.4091 11.8827C11.3334 11.7 11.3136 11.499 11.3522 11.305C11.3908 11.111 11.4861 10.9328 11.6259 10.793C11.7658 10.6531 11.9439 10.5579 12.1379 10.5193C12.3319 10.4807 12.533 10.5005 12.7157 10.5762C12.8984 10.6519 13.0546 10.78 13.1645 10.9445C13.2744 11.1089 13.333 11.3023 13.333 11.5001C13.333 11.7653 13.2277 12.0196 13.0401 12.2072C12.8526 12.3947 12.5982 12.5001 12.333 12.5001ZM13.333 5.26006L5.99968 6.38673V4.38673L13.333 3.28006V5.26006Z" fill="#333333"/>
</svg>
