<svg width="17" height="16" viewBox="0 0 17 16" fill="none" xmlns="http://www.w3.org/2000/svg">
<g id="u:instagram-alt">
<path id="Vector" d="M8.24967 6.34668C7.92268 6.34668 7.60302 6.44364 7.33113 6.62531C7.05924 6.80698 6.84733 7.0652 6.72219 7.36731C6.59706 7.66941 6.56432 8.00184 6.62811 8.32256C6.6919 8.64327 6.84937 8.93787 7.08059 9.16909C7.31181 9.40032 7.60641 9.55778 7.92713 9.62158C8.24784 9.68537 8.58027 9.65263 8.88238 9.52749C9.18448 9.40235 9.4427 9.19044 9.62437 8.91855C9.80604 8.64666 9.90301 8.32701 9.90301 8.00001C9.90301 7.78289 9.86024 7.5679 9.77716 7.36731C9.69407 7.16672 9.57228 6.98445 9.41876 6.83093C9.26523 6.6774 9.08297 6.55562 8.88238 6.47253C8.68179 6.38944 8.46679 6.34668 8.24967 6.34668ZM14.8697 4.71334C14.8662 4.19852 14.7714 3.68839 14.5897 3.20668C14.4559 2.85418 14.2488 2.53407 13.9822 2.26747C13.7156 2.00086 13.3955 1.79382 13.043 1.66001C12.5613 1.47832 12.0512 1.38352 11.5363 1.38001C10.6763 1.33334 10.423 1.33334 8.24967 1.33334C6.07634 1.33334 5.82301 1.33334 4.96301 1.38001C4.44818 1.38352 3.93806 1.47832 3.45634 1.66001C3.10385 1.79382 2.78374 2.00086 2.51713 2.26747C2.25053 2.53407 2.04349 2.85418 1.90967 3.20668C1.72798 3.68839 1.63318 4.19852 1.62967 4.71334C1.58301 5.57334 1.58301 5.82668 1.58301 8.00001C1.58301 10.1733 1.58301 10.4267 1.62967 11.2867C1.63685 11.8033 1.73152 12.315 1.90967 12.8C2.04289 13.1509 2.24976 13.4691 2.51634 13.7333C2.7818 14.0015 3.1026 14.2086 3.45634 14.34C3.93806 14.5217 4.44818 14.6165 4.96301 14.62C5.82301 14.6667 6.07634 14.6667 8.24967 14.6667C10.423 14.6667 10.6763 14.6667 11.5363 14.62C12.0512 14.6165 12.5613 14.5217 13.043 14.34C13.3967 14.2086 13.7175 14.0015 13.983 13.7333C14.2496 13.4691 14.4565 13.1509 14.5897 12.8C14.7712 12.3159 14.866 11.8037 14.8697 11.2867C14.9163 10.4267 14.9163 10.1733 14.9163 8.00001C14.9163 5.82668 14.9163 5.57334 14.8697 4.71334ZM13.1763 10.0467C13.1549 10.4581 13.0671 10.8633 12.9163 11.2467C12.7869 11.5665 12.5945 11.857 12.3506 12.1009C12.1066 12.3449 11.8161 12.5373 11.4963 12.6667C11.1094 12.8091 10.7019 12.8879 10.2897 12.9C9.76301 12.9 9.62301 12.9 8.24967 12.9C6.87634 12.9 6.73634 12.9 6.20967 12.9C5.79749 12.8879 5.39 12.8091 5.00301 12.6667C4.67241 12.5438 4.37386 12.3478 4.12967 12.0933C3.88812 11.8542 3.70157 11.5653 3.58301 11.2467C3.44005 10.8601 3.36341 10.4521 3.35634 10.04C3.35634 9.51334 3.35634 9.37334 3.35634 8.00001C3.35634 6.62668 3.35634 6.48668 3.35634 5.96001C3.36341 5.54789 3.44005 5.13993 3.58301 4.75334C3.70586 4.42275 3.90186 4.12419 4.15634 3.88001C4.39656 3.63976 4.68518 3.45341 5.00301 3.33334C5.39 3.19095 5.79749 3.11215 6.20967 3.10001C6.73634 3.10001 6.87634 3.10001 8.24967 3.10001C9.62301 3.10001 9.76301 3.10001 10.2897 3.10001C10.7019 3.11215 11.1094 3.19095 11.4963 3.33334C11.8269 3.4562 12.1255 3.65219 12.3697 3.90668C12.6112 4.14584 12.7978 4.43477 12.9163 4.75334C13.0587 5.14034 13.1375 5.54783 13.1497 5.96001C13.1497 6.48668 13.1497 6.62668 13.1497 8.00001C13.1497 9.37334 13.1963 9.51334 13.1763 10.04V10.0467ZM12.1097 5.08668C12.0303 4.87133 11.9052 4.67577 11.7429 4.51349C11.5806 4.3512 11.385 4.22605 11.1697 4.14668C10.874 4.04418 10.5626 3.99454 10.2497 4.00001C9.72967 4.00001 9.58301 4.00001 8.24967 4.00001C6.91634 4.00001 6.76967 4.00001 6.24967 4.00001C5.93519 4.00308 5.62372 4.06177 5.32967 4.17334C5.11763 4.24911 4.92414 4.36915 4.76206 4.52548C4.59999 4.6818 4.47305 4.87084 4.38967 5.08001C4.29286 5.37692 4.24556 5.68774 4.24967 6.00001C4.24967 6.52001 4.24967 6.66668 4.24967 8.00001C4.24967 9.33334 4.24967 9.48001 4.24967 10C4.25628 10.3141 4.31485 10.625 4.42301 10.92C4.50238 11.1354 4.62753 11.3309 4.78982 11.4932C4.9521 11.6555 5.14766 11.7806 5.36301 11.86C5.64745 11.9646 5.94678 12.0231 6.24967 12.0333C6.76967 12.0333 6.91634 12.0333 8.24967 12.0333C9.58301 12.0333 9.72967 12.0333 10.2497 12.0333C10.5642 12.0303 10.8756 11.9716 11.1697 11.86C11.385 11.7806 11.5806 11.6555 11.7429 11.4932C11.9052 11.3309 12.0303 11.1354 12.1097 10.92C12.2213 10.626 12.2799 10.3145 12.283 10C12.283 9.48001 12.283 9.33334 12.283 8.00001C12.283 6.66668 12.283 6.52001 12.283 6.00001C12.2832 5.68521 12.2244 5.37316 12.1097 5.08001V5.08668ZM8.24967 10.5467C7.91556 10.5467 7.58472 10.4808 7.27612 10.3527C6.96751 10.2246 6.68721 10.0369 6.45126 9.80037C6.21531 9.56381 6.02836 9.28301 5.9011 8.97407C5.77385 8.66514 5.7088 8.33413 5.70967 8.00001C5.70968 7.49604 5.85921 7.00341 6.13933 6.58447C6.41946 6.16553 6.81759 5.83912 7.28332 5.64657C7.74905 5.45401 8.26144 5.40397 8.75563 5.50278C9.24981 5.60158 9.70357 5.84479 10.0595 6.20162C10.4154 6.55844 10.6574 7.01284 10.7549 7.50728C10.8524 8.00172 10.801 8.51398 10.6072 8.97921C10.4135 9.44443 10.086 9.8417 9.66634 10.1207C9.24667 10.3998 8.75364 10.548 8.24967 10.5467ZM10.9163 5.95334C10.769 5.93774 10.6326 5.86816 10.5335 5.75799C10.4343 5.64782 10.3795 5.50487 10.3795 5.35668C10.3795 5.20848 10.4343 5.06553 10.5335 4.95536C10.6326 4.8452 10.769 4.77561 10.9163 4.76001C11.0637 4.77561 11.2001 4.8452 11.2992 4.95536C11.3983 5.06553 11.4532 5.20848 11.4532 5.35668C11.4532 5.50487 11.3983 5.64782 11.2992 5.75799C11.2001 5.86816 11.0637 5.93774 10.9163 5.95334Z" fill="#333333"/>
</g>
</svg>
