<svg width="16" height="17" viewBox="0 0 16 17" fill="none" xmlns="http://www.w3.org/2000/svg">
<path fill-rule="evenodd" clip-rule="evenodd" d="M8.12323 15.7514C8.12323 15.8333 8.20517 15.8333 8.2871 15.8333C8.36904 15.8333 8.45098 15.7514 8.53291 15.6694L13.0394 12.5558C14.842 11.3268 15.9072 9.52417 15.9072 7.55769C15.9072 4.03441 12.4659 1.16663 8.2871 1.16663C4.10833 1.16663 0.666992 4.03441 0.666992 7.63962C0.666992 11.081 3.86252 13.8668 7.87742 14.0307V15.4236C7.87742 15.5055 7.95936 15.6694 8.12323 15.7514ZM4.10832 9.52469H5.58318C5.82899 9.52469 5.99286 9.34261 5.99286 9.16053C5.99286 8.97845 5.82899 8.85706 5.58318 8.85706H4.518V6.55069C4.518 6.36861 4.35413 6.24722 4.10832 6.24722C3.86251 6.24722 3.69863 6.36861 3.69863 6.55069V9.22122C3.69863 9.40331 3.86251 9.52469 4.10832 9.52469ZM6.48448 9.22122C6.48448 9.40331 6.64835 9.52469 6.89416 9.52469C7.05804 9.52469 7.30385 9.34261 7.30385 9.16053V6.55069C7.30385 6.36861 7.13997 6.24722 6.89416 6.24722C6.64835 6.24722 6.48448 6.36861 6.48448 6.55069V9.22122ZM9.4904 9.49608C9.54555 9.51468 9.6094 9.52469 9.68001 9.52469H9.68018C9.72686 9.52468 9.77058 9.51809 9.81079 9.50619C9.82174 9.51042 9.8329 9.51643 9.84405 9.52469C10.0899 9.40331 10.1718 9.28192 10.0899 9.09984L10.0897 9.09954V6.55069C10.0897 6.36861 9.92582 6.24722 9.68001 6.24722C9.4342 6.24722 9.27033 6.36861 9.27033 6.55069V7.64963L8.615 6.49C8.5548 6.42311 8.4946 6.3726 8.43034 6.33848C8.35832 6.28055 8.25202 6.24722 8.12322 6.24722C7.8774 6.24722 7.71353 6.36861 7.71353 6.55069V9.22122C7.71353 9.40331 7.8774 9.52469 8.12322 9.52469C8.36902 9.52469 8.5329 9.34261 8.5329 9.16053V8.0374L9.2705 9.34261C9.31995 9.41588 9.39926 9.46704 9.4904 9.49608ZM11.0731 9.52469H12.548C12.7118 9.52469 12.9576 9.34261 12.9576 9.16053C12.9576 8.97845 12.7938 8.85706 12.548 8.85706H11.4828V8.33632H12.5477C12.7116 8.33632 12.9574 8.17245 12.9574 7.92664C12.9574 7.68082 12.7935 7.51695 12.5477 7.51695H11.4828V6.85416H12.548C12.7938 6.85416 12.9576 6.73278 12.9576 6.55069C12.9576 6.36861 12.7938 6.24722 12.548 6.24722H11.0731C10.8273 6.24722 10.6634 6.36861 10.6634 6.55069V7.90953L10.6632 7.92664L10.6634 7.94374V9.22122C10.6634 9.40331 10.8273 9.52469 11.0731 9.52469Z" fill="url(#paint0_linear_12962_47512)"/>
<defs>
<linearGradient id="paint0_linear_12962_47512" x1="8.2871" y1="8.49996" x2="8.2871" y2="15.8333" gradientUnits="userSpaceOnUse">
<stop stop-color="white"/>
</linearGradient>
</defs>
</svg>
