<svg width="21" height="20" viewBox="0 0 21 20" fill="none" xmlns="http://www.w3.org/2000/svg">
<path d="M6.05432 10.8887L6.05418 10.8885C6.01897 10.8347 6 10.7712 6 10.7063V9.98808C6 8.40089 6.87838 7.10045 8.04833 6.66262L8.68372 6.42484L8.2685 5.88832C7.89363 5.40394 7.66667 4.81189 7.66667 4.16659C7.66667 2.60469 8.93777 1.33325 10.5 1.33325C12.0622 1.33325 13.3333 2.60469 13.3333 4.16659C13.3333 4.81193 13.1063 5.404 12.7313 5.88859L12.3162 6.42508L12.9515 6.66286C14.1218 7.10087 15 8.40117 15 9.98817V10.7063C15 10.7713 14.9811 10.8347 14.9458 10.8885L14.9457 10.8887L13.4149 13.2283L13.3333 13.3531V13.5021V15.8015C13.3333 16.9274 12.4298 17.8333 11.3333 17.8333H9.66667C8.57016 17.8333 7.66667 16.9274 7.66667 15.8015V13.5021V13.3531L7.58507 13.2283L6.05432 10.8887ZM10.5095 6.33225V6.33226L10.5124 6.33224C11.7009 6.32542 12.6667 5.35825 12.6667 4.16659C12.6667 2.97119 11.6948 1.99992 10.5 1.99992C9.30519 1.99992 8.33333 2.97119 8.33333 4.16659C8.33333 5.35838 9.29922 6.32553 10.4879 6.33224V6.33225H10.4907H10.4908H10.4908H10.4909H10.4909H10.4909H10.491H10.491H10.491H10.4911H10.4911H10.4912H10.4912H10.4912H10.4913H10.4913H10.4913H10.4914H10.4914H10.4914H10.4915H10.4915H10.4916H10.4916H10.4916H10.4917H10.4917H10.4917H10.4918H10.4918H10.4918H10.4919H10.4919H10.492H10.492H10.492H10.4921H10.4921H10.4921H10.4922H10.4922H10.4923H10.4923H10.4923H10.4924H10.4924H10.4924H10.4925H10.4925H10.4925H10.4926H10.4926H10.4927H10.4927H10.4927H10.4928H10.4928H10.4928H10.4929H10.4929H10.4929H10.493H10.493H10.4931H10.4931H10.4931H10.4932H10.4932H10.4932H10.4933H10.4933H10.4934H10.4934H10.4934H10.4935H10.4935H10.4935H10.4936H10.4936H10.4936H10.4937H10.4937H10.4938H10.4938H10.4938H10.4939H10.4939H10.4939H10.494H10.494H10.494H10.4941H10.4941H10.4942H10.4942H10.4942H10.4943H10.4943H10.4943H10.4944H10.4944H10.4944H10.4945H10.4945H10.4946H10.4946H10.4946H10.4947H10.4947H10.4947H10.4948H10.4948H10.4949H10.4949H10.4949H10.495H10.495H10.495H10.4951H10.4951H10.4951H10.4952H10.4952H10.4953H10.4953H10.4953H10.4954H10.4954H10.4954H10.4955H10.4955H10.4955H10.4956H10.4956H10.4957H10.4957H10.4957H10.4958H10.4958H10.4958H10.4959H10.4959H10.496H10.496H10.496H10.4961H10.4961H10.4961H10.4962H10.4962H10.4962H10.4963H10.4963H10.4964H10.4964H10.4964H10.4965H10.4965H10.4965H10.4966H10.4966H10.4966H10.4967H10.4967H10.4968H10.4968H10.4968H10.4969H10.4969H10.4969H10.497H10.497H10.497H10.4971H10.4971H10.4972H10.4972H10.4972H10.4973H10.4973H10.4973H10.4974H10.4974H10.4975H10.4975H10.4975H10.4976H10.4976H10.4976H10.4977H10.4977H10.4977H10.4978H10.4978H10.4979H10.4979H10.4979H10.498H10.498H10.498H10.4981H10.4981H10.4981H10.4982H10.4982H10.4983H10.4983H10.4983H10.4984H10.4984H10.4984H10.4985H10.4985H10.4986H10.4986H10.4986H10.4987H10.4987H10.4987H10.4988H10.4988H10.4988H10.4989H10.4989H10.499H10.499H10.499H10.4991H10.4991H10.4991H10.4992H10.4992H10.4992H10.4993H10.4993H10.4994H10.4994H10.4994H10.4995H10.4995H10.4995H10.4996H10.4996H10.4996H10.4997H10.4997H10.4998H10.4998H10.4998H10.4999H10.4999H10.4999H10.5H10.5H10.5001H10.5001H10.5001H10.5002H10.5002H10.5002H10.5003H10.5003H10.5003H10.5004H10.5004H10.5005H10.5005H10.5005H10.5006H10.5006H10.5006H10.5007H10.5007H10.5007H10.5008H10.5008H10.5009H10.5009H10.5009H10.501H10.501H10.501H10.5011H10.5011H10.5012H10.5012H10.5012H10.5013H10.5013H10.5013H10.5014H10.5014H10.5014H10.5015H10.5015H10.5016H10.5016H10.5016H10.5017H10.5017H10.5017H10.5018H10.5018H10.5018H10.5019H10.5019H10.502H10.502H10.502H10.5021H10.5021H10.5021H10.5022H10.5022H10.5022H10.5023H10.5023H10.5024H10.5024H10.5024H10.5025H10.5025H10.5025H10.5026H10.5026H10.5027H10.5027H10.5027H10.5028H10.5028H10.5028H10.5029H10.5029H10.5029H10.503H10.503H10.5031H10.5031H10.5031H10.5032H10.5032H10.5032H10.5033H10.5033H10.5033H10.5034H10.5034H10.5035H10.5035H10.5035H10.5036H10.5036H10.5036H10.5037H10.5037H10.5038H10.5038H10.5038H10.5039H10.5039H10.5039H10.504H10.504H10.504H10.5041H10.5041H10.5042H10.5042H10.5042H10.5043H10.5043H10.5043H10.5044H10.5044H10.5044H10.5045H10.5045H10.5046H10.5046H10.5046H10.5047H10.5047H10.5047H10.5048H10.5048H10.5048H10.5049H10.5049H10.505H10.505H10.505H10.5051H10.5051H10.5051H10.5052H10.5052H10.5053H10.5053H10.5053H10.5054H10.5054H10.5054H10.5055H10.5055H10.5055H10.5056H10.5056H10.5057H10.5057H10.5057H10.5058H10.5058H10.5058H10.5059H10.5059H10.5059H10.506H10.506H10.5061H10.5061H10.5061H10.5062H10.5062H10.5062H10.5063H10.5063H10.5064H10.5064H10.5064H10.5065H10.5065H10.5065H10.5066H10.5066H10.5066H10.5067H10.5067H10.5068H10.5068H10.5068H10.5069H10.5069H10.5069H10.507H10.507H10.507H10.5071H10.5071H10.5072H10.5072H10.5072H10.5073H10.5073H10.5073H10.5074H10.5074H10.5074H10.5075H10.5075H10.5076H10.5076H10.5076H10.5077H10.5077H10.5077H10.5078H10.5078H10.5079H10.5079H10.5079H10.508H10.508H10.508H10.5081H10.5081H10.5081H10.5082H10.5082H10.5083H10.5083H10.5083H10.5084H10.5084H10.5084H10.5085H10.5085H10.5085H10.5086H10.5086H10.5087H10.5087H10.5087H10.5088H10.5088H10.5088H10.5089H10.5089H10.509H10.509H10.509H10.5091H10.5091H10.5091H10.5092H10.5092H10.5092H10.5093H10.5093H10.5094H10.5094H10.5094H10.5095H10.5095ZM8.5602 7.19548L8.56001 7.19552C7.39008 7.43432 6.66667 8.71182 6.66667 9.98808V10.4581V10.6071L6.74826 10.7318L8.27901 13.0715L8.27915 13.0717C8.31436 13.1255 8.33333 13.1889 8.33333 13.2539V15.8015C8.33333 16.5366 8.91307 17.1666 9.66667 17.1666H11.3333C12.0869 17.1666 12.6667 16.5366 12.6667 15.8015V13.2539C12.6667 13.1889 12.6856 13.1255 12.7209 13.0717L12.721 13.0715L14.2517 10.7318L14.3333 10.6071V10.4581V9.98808C14.3333 8.71169 13.6098 7.43431 12.4391 7.19558C11.7994 7.06493 11.1544 6.99961 10.5087 6.99908H10.5082C10.506 6.99908 10.5038 6.9991 10.5016 6.99913L10.5001 6.99908L10.4918 6.99908C9.84643 6.9997 9.20107 7.06494 8.5602 7.19548Z" fill="#333333" stroke="#333333"/>
</svg>
