<svg width="20" height="20" viewBox="0 0 20 20" fill="none" xmlns="http://www.w3.org/2000/svg">
<path d="M16.4464 16.9405H4.26786C3.28571 16.9405 2.5 16.1548 2.5 15.1726V14.6488C2.5 13.6667 3.28571 12.881 4.26786 12.881C4.52976 12.881 4.72619 12.6845 4.72619 12.4226V9.08334C4.72619 6.00596 7.21429 3.45239 10.3571 3.45239C13.5 3.45239 15.9881 6.00596 15.9881 9.08334V12.4226C15.9881 12.6845 16.1845 12.881 16.4464 12.881C17.4286 12.881 18.2143 13.6667 18.2143 14.6488V15.1726C18.2143 16.1548 17.4286 16.9405 16.4464 16.9405ZM10.3571 4.76192C8 4.76192 6.03571 6.7262 6.03571 9.08334V12.4226C6.03571 13.4048 5.25 14.1905 4.26786 14.1905C4.00595 14.1905 3.80952 14.3869 3.80952 14.6488V15.1726C3.80952 15.4345 4.00595 15.631 4.26786 15.631H16.4464C16.7083 15.631 16.9048 15.4345 16.9048 15.1726V14.6488C16.9048 14.3869 16.7083 14.1905 16.4464 14.1905C15.4643 14.1905 14.6786 13.4048 14.6786 12.4226V9.08334C14.6786 6.7262 12.7143 4.76192 10.3571 4.76192Z" fill="#333333" stroke="#333333" stroke-width="0.5"/>
<path d="M10.3575 19.1666C8.78609 19.1666 7.47656 17.8571 7.47656 16.2856C7.47656 15.8928 7.73847 15.6309 8.13132 15.6309C8.52418 15.6309 8.78609 15.8928 8.78609 16.2856C8.78609 17.1368 9.50632 17.8571 10.3575 17.8571C11.2087 17.8571 11.9289 17.1368 11.9289 16.2856C11.9289 15.8928 12.1908 15.6309 12.5837 15.6309C12.9766 15.6309 13.2385 15.8928 13.2385 16.2856C13.2385 17.8571 11.9289 19.1666 10.3575 19.1666ZM10.3575 4.76182C9.24442 4.76182 8.39323 3.91063 8.39323 2.79754C8.39323 1.68444 9.24442 0.833252 10.3575 0.833252C11.4706 0.833252 12.3218 1.68444 12.3218 2.79754C12.3218 3.91063 11.4706 4.76182 10.3575 4.76182ZM10.3575 2.14278C9.96466 2.14278 9.70275 2.40468 9.70275 2.79754C9.70275 3.19039 9.96466 3.4523 10.3575 3.4523C10.7504 3.4523 11.0123 3.19039 11.0123 2.79754C11.0123 2.40468 10.7504 2.14278 10.3575 2.14278Z" fill="#333333" stroke="#333333" stroke-width="0.5"/>
</svg>
