<svg width="17" height="17" viewBox="0 0 17 17" fill="none" xmlns="http://www.w3.org/2000/svg">
<g id="icon-24/receive">
<path id="Vector" d="M3.16634 11.8335C2.79967 11.8335 2.48579 11.7029 2.22467 11.4418C1.96356 11.1807 1.83301 10.8668 1.83301 10.5002V5.26683C1.83301 5.10016 1.88023 4.93627 1.97467 4.77516C2.06912 4.61405 2.19967 4.48905 2.36634 4.40016L7.49967 1.8335L12.533 4.40016C12.6663 4.46683 12.7802 4.57239 12.8747 4.71683C12.9691 4.86127 13.033 5.01127 13.0663 5.16683H11.1163L7.49967 3.3335L3.16634 5.4835V11.8335ZM5.16634 14.5002C4.79967 14.5002 4.48579 14.3696 4.22467 14.1085C3.96356 13.8474 3.83301 13.5335 3.83301 13.1668V7.16683C3.83301 6.80016 3.96356 6.48627 4.22467 6.22516C4.48579 5.96405 4.79967 5.8335 5.16634 5.8335H13.833C14.1997 5.8335 14.5136 5.96405 14.7747 6.22516C15.0358 6.48627 15.1663 6.80016 15.1663 7.16683V13.1668C15.1663 13.5335 15.0358 13.8474 14.7747 14.1085C14.5136 14.3696 14.1997 14.5002 13.833 14.5002H5.16634ZM9.49967 10.7335L5.16634 8.50016V13.1668H13.833V8.50016L9.49967 10.7335ZM9.49967 9.40016L13.833 7.16683H5.16634L9.49967 9.40016Z" fill="url(#paint0_linear_7426_24410)"/>
</g>
<defs>
<linearGradient id="paint0_linear_7426_24410" x1="8.49967" y1="8.16683" x2="8.49967" y2="14.5002" gradientUnits="userSpaceOnUse">
<stop stop-color="white"/>
</linearGradient>
</defs>
</svg>
