<svg width="21" height="21" viewBox="0 0 21 21" fill="none" xmlns="http://www.w3.org/2000/svg">
<g id="icon-24/arrow-glyph-left">
<path id="Vector" d="M17.2521 8.48333H9.31875V6.75833C9.32708 6.06666 8.76875 5.50833 8.07708 5.5C7.74375 5.5 7.42708 5.63334 7.18542 5.86667L3.36875 9.68334C2.87708 10.175 2.87708 10.9667 3.36875 11.45L7.19375 15.275C7.68542 15.7667 8.47708 15.7667 8.96042 15.275C9.19375 15.0417 9.32708 14.725 9.32708 14.3917V12.65H17.2438C17.9354 12.65 18.4938 12.0917 18.4938 11.4V9.73333C18.4938 9.04167 17.9354 8.48333 17.2438 8.48333H17.2521Z" fill="url(#paint0_linear_7364_23593)"/>
</g>
<defs>
<linearGradient id="paint0_linear_7364_23593" x1="10.7469" y1="10.5719" x2="10.7469" y2="15.6437" gradientUnits="userSpaceOnUse">
<stop stop-color="white"/>
</linearGradient>
</defs>
</svg>
