<svg width="21" height="21" viewBox="0 0 21 21" fill="none" xmlns="http://www.w3.org/2000/svg">
<g id="icon-24/trash">
<path id="Vector" d="M13.3333 5.49984V5.99984H13.8333H17.1667C17.2551 5.99984 17.3399 6.03496 17.4024 6.09747C17.4649 6.15998 17.5 6.24477 17.5 6.33317C17.5 6.42158 17.4649 6.50636 17.4024 6.56887L17.7559 6.92243L17.4024 6.56887C17.3399 6.63138 17.2551 6.6665 17.1667 6.6665H16.3333H15.8333V7.1665V16.3332C15.8333 16.8636 15.6226 17.3723 15.2475 17.7474C14.8725 18.1225 14.3638 18.3332 13.8333 18.3332H7.16667C6.63623 18.3332 6.12753 18.1225 5.75245 17.7474C5.37738 17.3723 5.16667 16.8636 5.16667 16.3332V7.1665V6.6665H4.66667H3.83333C3.74493 6.6665 3.66014 6.63138 3.59763 6.56887C3.53512 6.50636 3.5 6.42158 3.5 6.33317C3.5 6.24477 3.53512 6.15998 3.59763 6.09747C3.66014 6.03496 3.74493 5.99984 3.83333 5.99984H7.16667H7.66667V5.49984V4.6665C7.66667 4.13607 7.87738 3.62736 8.25245 3.25229C8.62753 2.87722 9.13623 2.6665 9.66667 2.6665H11.3333C11.8638 2.6665 12.3725 2.87722 12.7475 3.25229L13.0971 2.90271L12.7475 3.25229C13.1226 3.62736 13.3333 4.13607 13.3333 4.6665V5.49984ZM12.1667 5.99984H12.6667V5.49984V4.6665C12.6667 4.31288 12.5262 3.97374 12.2761 3.72369C12.0261 3.47365 11.687 3.33317 11.3333 3.33317H9.66667C9.31304 3.33317 8.97391 3.47365 8.72386 3.72369C8.47381 3.97374 8.33333 4.31288 8.33333 4.6665V5.49984V5.99984H8.83333H12.1667ZM6.33333 6.6665H5.83333V7.1665V16.3332C5.83333 16.6868 5.97381 17.0259 6.22386 17.276C6.47391 17.526 6.81304 17.6665 7.16667 17.6665H13.8333C14.187 17.6665 14.5261 17.526 14.7761 17.276C15.0262 17.0259 15.1667 16.6868 15.1667 16.3332V7.1665V6.6665H14.6667H6.33333Z" fill="#333333" stroke="url(#paint0_linear_7426_24501)"/>
</g>
<defs>
<linearGradient id="paint0_linear_7426_24501" x1="10.5" y1="10.4998" x2="10.5" y2="18.8332" gradientUnits="userSpaceOnUse">
<stop stop-color="white"/>
</linearGradient>
</defs>
</svg>
