<svg width="25" height="24" viewBox="0 0 25 24" fill="none" xmlns="http://www.w3.org/2000/svg">
<g id="Icon-24/school">
<path id="Vector" d="M23 11.25H19.625V9C19.625 9 19.625 9 19.625 8.9775C19.6269 8.95128 19.6269 8.92497 19.625 8.89875C19.6268 8.87629 19.6268 8.85371 19.625 8.83125C19.6272 8.80755 19.6272 8.7837 19.625 8.76C19.6179 8.7369 19.6091 8.71434 19.5988 8.6925L19.5238 8.625C19.5126 8.60418 19.5001 8.58413 19.4862 8.565L19.4412 8.50875L19.3888 8.4525L19.34 8.41125L19.2725 8.3625H19.2537L13.25 4.8225V4.125H15.125C15.3239 4.125 15.5147 4.04598 15.6553 3.90533C15.796 3.76468 15.875 3.57391 15.875 3.375V1.5C15.875 1.30109 15.796 1.11032 15.6553 0.96967C15.5147 0.829018 15.3239 0.75 15.125 0.75H12.5C12.3011 0.75 12.1103 0.829018 11.9697 0.96967C11.829 1.11032 11.75 1.30109 11.75 1.5V4.8225L5.75 8.355H5.73125L5.66375 8.40375L5.615 8.445L5.5625 8.50125L5.5175 8.5575C5.50366 8.57663 5.49114 8.59668 5.48 8.6175L5.44625 8.68125C5.43589 8.70309 5.42711 8.72565 5.42 8.74875C5.41785 8.77245 5.41785 8.7963 5.42 8.82C5.41821 8.84246 5.41821 8.86504 5.42 8.8875C5.41815 8.91372 5.41815 8.94003 5.42 8.96625C5.42 8.96625 5.42 8.96625 5.42 8.98875V11.2387H2C1.80109 11.2387 1.61032 11.3178 1.46967 11.4584C1.32902 11.5991 1.25 11.7898 1.25 11.9887V22.5C1.25 22.6989 1.32902 22.8897 1.46967 23.0303C1.61032 23.171 1.80109 23.25 2 23.25H23C23.1989 23.25 23.3897 23.171 23.5303 23.0303C23.671 22.8897 23.75 22.6989 23.75 22.5V12C23.75 11.8011 23.671 11.6103 23.5303 11.4697C23.3897 11.329 23.1989 11.25 23 11.25ZM13.25 2.25H14.375V2.625H13.25V2.25ZM22.25 12.75V14.625H19.625V12.75H22.25ZM5.375 12.75V14.625H3.875C3.67609 14.625 3.48532 14.704 3.34467 14.8447C3.20402 14.9853 3.125 15.1761 3.125 15.375C3.125 15.5739 3.20402 15.7647 3.34467 15.9053C3.48532 16.046 3.67609 16.125 3.875 16.125H5.375V18H2.75V12.75H5.375ZM2.75 19.5H5.375V21.75H2.75V19.5ZM6.875 12V9.4275L12.5 6.12L18.125 9.4275V21.75H6.875V12ZM19.625 21.75V19.5H21.125C21.3239 19.5 21.5147 19.421 21.6553 19.2803C21.796 19.1397 21.875 18.9489 21.875 18.75C21.875 18.5511 21.796 18.3603 21.6553 18.2197C21.5147 18.079 21.3239 18 21.125 18H19.625V16.125H22.25V21.75H19.625ZM8.375 9.75C8.375 9.55109 8.45402 9.36032 8.59467 9.21967C8.73532 9.07902 8.92609 9 9.125 9H15.875C16.0739 9 16.2647 9.07902 16.4053 9.21967C16.546 9.36032 16.625 9.55109 16.625 9.75C16.625 9.94891 16.546 10.1397 16.4053 10.2803C16.2647 10.421 16.0739 10.5 15.875 10.5H9.125C8.92609 10.5 8.73532 10.421 8.59467 10.2803C8.45402 10.1397 8.375 9.94891 8.375 9.75ZM11.375 12H8.75C8.55109 12 8.36032 12.079 8.21967 12.2197C8.07902 12.3603 8 12.5511 8 12.75V15.375C8 15.5739 8.07902 15.7647 8.21967 15.9053C8.36032 16.046 8.55109 16.125 8.75 16.125H11.375C11.5739 16.125 11.7647 16.046 11.9053 15.9053C12.046 15.7647 12.125 15.5739 12.125 15.375V12.75C12.125 12.5511 12.046 12.3603 11.9053 12.2197C11.7647 12.079 11.5739 12 11.375 12ZM10.625 14.625H9.5V13.5H10.625V14.625ZM11.375 16.875H8.75C8.55109 16.875 8.36032 16.954 8.21967 17.0947C8.07902 17.2353 8 17.4261 8 17.625V20.25C8 20.4489 8.07902 20.6397 8.21967 20.7803C8.36032 20.921 8.55109 21 8.75 21H11.375C11.5739 21 11.7647 20.921 11.9053 20.7803C12.046 20.6397 12.125 20.4489 12.125 20.25V17.625C12.125 17.4261 12.046 17.2353 11.9053 17.0947C11.7647 16.954 11.5739 16.875 11.375 16.875ZM10.625 19.5H9.5V18.375H10.625V19.5ZM16.25 12H13.625C13.4261 12 13.2353 12.079 13.0947 12.2197C12.954 12.3603 12.875 12.5511 12.875 12.75V15.375C12.875 15.5739 12.954 15.7647 13.0947 15.9053C13.2353 16.046 13.4261 16.125 13.625 16.125H16.25C16.4489 16.125 16.6397 16.046 16.7803 15.9053C16.921 15.7647 17 15.5739 17 15.375V12.75C17 12.5511 16.921 12.3603 16.7803 12.2197C16.6397 12.079 16.4489 12 16.25 12ZM15.5 14.625H14.375V13.5H15.5V14.625ZM16.25 16.875H13.625C13.4261 16.875 13.2353 16.954 13.0947 17.0947C12.954 17.2353 12.875 17.4261 12.875 17.625V20.25C12.875 20.4489 12.954 20.6397 13.0947 20.7803C13.2353 20.921 13.4261 21 13.625 21H16.25C16.4489 21 16.6397 20.921 16.7803 20.7803C16.921 20.6397 17 20.4489 17 20.25V17.625C17 17.4261 16.921 17.2353 16.7803 17.0947C16.6397 16.954 16.4489 16.875 16.25 16.875ZM15.5 19.5H14.375V18.375H15.5V19.5Z" fill="#333333" stroke="#333333" stroke-width="0.25"/>
</g>
</svg>
