<svg width="37" height="29" viewBox="0 0 37 29" fill="none" xmlns="http://www.w3.org/2000/svg">
<g filter="url(#filter0_dd_12963_30908)">
<mask id="path-1-inside-1_12963_30908" fill="white">
<path d="M27.5 9.50146C27.2348 9.50146 26.9804 9.60682 26.7929 9.79436C26.6054 9.98189 26.5 10.2362 26.5 10.5015C26.5119 12.3745 25.8703 14.193 24.6857 15.6439C23.501 17.0948 21.8475 18.0871 20.01 18.4501C18.1724 18.813 16.2658 18.5238 14.6185 17.6322C12.9712 16.7407 11.6864 15.3026 10.9853 13.5657C10.2842 11.8288 10.2108 9.90178 10.7776 8.11654C11.3444 6.3313 12.5161 4.7996 14.0907 3.78524C15.6653 2.77089 17.5444 2.33738 19.4043 2.55938C21.2641 2.78137 22.9884 3.64498 24.28 5.00146H21.88C21.6148 5.00146 21.3604 5.10682 21.1729 5.29436C20.9854 5.48189 20.88 5.73625 20.88 6.00146C20.88 6.26668 20.9854 6.52103 21.1729 6.70857C21.3604 6.89611 21.6148 7.00146 21.88 7.00146H26.41C26.6752 7.00146 26.9296 6.89611 27.1171 6.70857C27.3046 6.52103 27.41 6.26668 27.41 6.00146V1.50146C27.41 1.23625 27.3046 0.981894 27.1171 0.794358C26.9296 0.606821 26.6752 0.501465 26.41 0.501465C26.1448 0.501465 25.8904 0.606821 25.7029 0.794358C25.5154 0.981894 25.41 1.23625 25.41 1.50146V3.27146C23.7447 1.67952 21.5808 0.711417 19.284 0.530794C16.9873 0.35017 14.6986 0.968109 12.8049 2.28015C10.9112 3.5922 9.52861 5.51787 8.89083 7.73165C8.25305 9.94544 8.39921 12.3115 9.30461 14.43C10.21 16.5484 11.8191 18.2893 13.8599 19.3583C15.9007 20.4273 18.248 20.7589 20.505 20.2969C22.7621 19.835 24.7904 18.6079 26.2471 16.8231C27.7039 15.0383 28.4997 12.8053 28.5 10.5015C28.5 10.2362 28.3946 9.98189 28.2071 9.79436C28.0196 9.60682 27.7652 9.50146 27.5 9.50146Z"/>
</mask>
<path d="M27.5 9.50146C27.2348 9.50146 26.9804 9.60682 26.7929 9.79436C26.6054 9.98189 26.5 10.2362 26.5 10.5015C26.5119 12.3745 25.8703 14.193 24.6857 15.6439C23.501 17.0948 21.8475 18.0871 20.01 18.4501C18.1724 18.813 16.2658 18.5238 14.6185 17.6322C12.9712 16.7407 11.6864 15.3026 10.9853 13.5657C10.2842 11.8288 10.2108 9.90178 10.7776 8.11654C11.3444 6.3313 12.5161 4.7996 14.0907 3.78524C15.6653 2.77089 17.5444 2.33738 19.4043 2.55938C21.2641 2.78137 22.9884 3.64498 24.28 5.00146H21.88C21.6148 5.00146 21.3604 5.10682 21.1729 5.29436C20.9854 5.48189 20.88 5.73625 20.88 6.00146C20.88 6.26668 20.9854 6.52103 21.1729 6.70857C21.3604 6.89611 21.6148 7.00146 21.88 7.00146H26.41C26.6752 7.00146 26.9296 6.89611 27.1171 6.70857C27.3046 6.52103 27.41 6.26668 27.41 6.00146V1.50146C27.41 1.23625 27.3046 0.981894 27.1171 0.794358C26.9296 0.606821 26.6752 0.501465 26.41 0.501465C26.1448 0.501465 25.8904 0.606821 25.7029 0.794358C25.5154 0.981894 25.41 1.23625 25.41 1.50146V3.27146C23.7447 1.67952 21.5808 0.711417 19.284 0.530794C16.9873 0.35017 14.6986 0.968109 12.8049 2.28015C10.9112 3.5922 9.52861 5.51787 8.89083 7.73165C8.25305 9.94544 8.39921 12.3115 9.30461 14.43C10.21 16.5484 11.8191 18.2893 13.8599 19.3583C15.9007 20.4273 18.248 20.7589 20.505 20.2969C22.7621 19.835 24.7904 18.6079 26.2471 16.8231C27.7039 15.0383 28.4997 12.8053 28.5 10.5015C28.5 10.2362 28.3946 9.98189 28.2071 9.79436C28.0196 9.60682 27.7652 9.50146 27.5 9.50146Z" fill="white"/>
<path d="M27.5 9.50146C27.2348 9.50146 26.9804 9.60682 26.7929 9.79436C26.6054 9.98189 26.5 10.2362 26.5 10.5015C26.5119 12.3745 25.8703 14.193 24.6857 15.6439C23.501 17.0948 21.8475 18.0871 20.01 18.4501C18.1724 18.813 16.2658 18.5238 14.6185 17.6322C12.9712 16.7407 11.6864 15.3026 10.9853 13.5657C10.2842 11.8288 10.2108 9.90178 10.7776 8.11654C11.3444 6.3313 12.5161 4.7996 14.0907 3.78524C15.6653 2.77089 17.5444 2.33738 19.4043 2.55938C21.2641 2.78137 22.9884 3.64498 24.28 5.00146H21.88C21.6148 5.00146 21.3604 5.10682 21.1729 5.29436C20.9854 5.48189 20.88 5.73625 20.88 6.00146C20.88 6.26668 20.9854 6.52103 21.1729 6.70857C21.3604 6.89611 21.6148 7.00146 21.88 7.00146H26.41C26.6752 7.00146 26.9296 6.89611 27.1171 6.70857C27.3046 6.52103 27.41 6.26668 27.41 6.00146V1.50146C27.41 1.23625 27.3046 0.981894 27.1171 0.794358C26.9296 0.606821 26.6752 0.501465 26.41 0.501465C26.1448 0.501465 25.8904 0.606821 25.7029 0.794358C25.5154 0.981894 25.41 1.23625 25.41 1.50146V3.27146C23.7447 1.67952 21.5808 0.711417 19.284 0.530794C16.9873 0.35017 14.6986 0.968109 12.8049 2.28015C10.9112 3.5922 9.52861 5.51787 8.89083 7.73165C8.25305 9.94544 8.39921 12.3115 9.30461 14.43C10.21 16.5484 11.8191 18.2893 13.8599 19.3583C15.9007 20.4273 18.248 20.7589 20.505 20.2969C22.7621 19.835 24.7904 18.6079 26.2471 16.8231C27.7039 15.0383 28.4997 12.8053 28.5 10.5015C28.5 10.2362 28.3946 9.98189 28.2071 9.79436C28.0196 9.60682 27.7652 9.50146 27.5 9.50146Z" stroke="url(#paint0_linear_12963_30908)" stroke-width="2" mask="url(#path-1-inside-1_12963_30908)"/>
</g>
<defs>
<filter id="filter0_dd_12963_30908" x="0.5" y="0.5" width="36" height="36" filterUnits="userSpaceOnUse" color-interpolation-filters="sRGB">
<feFlood flood-opacity="0" result="BackgroundImageFix"/>
<feColorMatrix in="SourceAlpha" type="matrix" values="0 0 0 0 0 0 0 0 0 0 0 0 0 0 0 0 0 0 127 0" result="hardAlpha"/>
<feOffset dy="8"/>
<feGaussianBlur stdDeviation="4"/>
<feComposite in2="hardAlpha" operator="out"/>
<feColorMatrix type="matrix" values="0 0 0 0 0 0 0 0 0 0 0 0 0 0 0 0 0 0 0.05 0"/>
<feBlend mode="normal" in2="BackgroundImageFix" result="effect1_dropShadow_12963_30908"/>
<feColorMatrix in="SourceAlpha" type="matrix" values="0 0 0 0 0 0 0 0 0 0 0 0 0 0 0 0 0 0 127 0" result="hardAlpha"/>
<feOffset dy="4"/>
<feGaussianBlur stdDeviation="2"/>
<feComposite in2="hardAlpha" operator="out"/>
<feColorMatrix type="matrix" values="0 0 0 0 0 0 0 0 0 0 0 0 0 0 0 0 0 0 0.15 0"/>
<feBlend mode="normal" in2="effect1_dropShadow_12963_30908" result="effect2_dropShadow_12963_30908"/>
<feBlend mode="normal" in="SourceGraphic" in2="effect2_dropShadow_12963_30908" result="shape"/>
</filter>
<linearGradient id="paint0_linear_12963_30908" x1="18.5" y1="10.5" x2="18.5" y2="20.5" gradientUnits="userSpaceOnUse">
<stop stop-color="white"/>
</linearGradient>
</defs>
</svg>
