<svg width="82" height="22" viewBox="0 0 82 22" fill="none" xmlns="http://www.w3.org/2000/svg">
<rect x="1" y="21" width="20" height="20" rx="10" transform="rotate(-90 1 21)" fill="url(#paint0_linear_6405_44206)"/>
<rect x="1" y="21" width="20" height="20" rx="10" transform="rotate(-90 1 21)" stroke="url(#paint1_linear_6405_44206)" stroke-width="2"/>
<path d="M11 8C10.9343 7.99998 10.8693 8.0129 10.8086 8.03803C10.748 8.06315 10.6928 8.09998 10.6464 8.14641C10.6 8.19284 10.5631 8.24797 10.538 8.30864C10.5129 8.36931 10.5 8.43433 10.5 8.5V10.5H9.5C9.36739 10.5 9.24022 10.5527 9.14645 10.6464C9.05268 10.7402 9 10.8674 9 11C9 11.1326 9.05268 11.2598 9.14645 11.3536C9.24022 11.4473 9.36739 11.5 9.5 11.5H11C11.0657 11.5 11.1307 11.4871 11.1914 11.462C11.252 11.4369 11.3072 11.4 11.3536 11.3536C11.4 11.3072 11.4369 11.252 11.462 11.1914C11.4871 11.1307 11.5 11.0657 11.5 11V8.5C11.5 8.43433 11.4871 8.36931 11.462 8.30864C11.4369 8.24797 11.4 8.19284 11.3536 8.14641C11.3072 8.09998 11.252 8.06315 11.1914 8.03803C11.1307 8.0129 11.0657 7.99998 11 8ZM11 6C10.0111 6 9.0444 6.29324 8.22215 6.84265C7.39991 7.39206 6.75904 8.17295 6.3806 9.08658C6.00217 10.0002 5.90315 11.0055 6.09608 11.9755C6.289 12.9454 6.76521 13.8363 7.46447 14.5355C8.16373 15.2348 9.05465 15.711 10.0246 15.9039C10.9945 16.0969 11.9998 15.9978 12.9134 15.6194C13.8271 15.241 14.6079 14.6001 15.1573 13.7779C15.7068 12.9556 16 11.9889 16 11C15.9985 9.67438 15.4712 8.40349 14.5339 7.46614C13.5965 6.52879 12.3256 6.00152 11 6ZM11 15C10.2089 15 9.43552 14.7654 8.77772 14.3259C8.11992 13.8864 7.60723 13.2616 7.30448 12.5307C7.00173 11.7998 6.92252 10.9956 7.07686 10.2196C7.2312 9.44371 7.61217 8.73098 8.17158 8.17157C8.73099 7.61216 9.44372 7.2312 10.2196 7.07686C10.9956 6.92252 11.7998 7.00173 12.5307 7.30448C13.2616 7.60723 13.8864 8.11992 14.3259 8.77772C14.7654 9.43552 15 10.2089 15 11C14.9988 12.0605 14.577 13.0772 13.8271 13.8271C13.0772 14.577 12.0605 14.9988 11 15Z" fill="#333333"/>
<mask id="path-3-outside-1_6405_44206" maskUnits="userSpaceOnUse" x="20" y="6" width="62" height="10" fill="black">
<rect fill="white" x="20" y="6" width="62" height="10"/>
<path d="M21 14L21 8L77 8C78.6569 8 80 9.34315 80 11V11C80 12.6569 78.6569 14 77 14L21 14Z"/>
</mask>
<path d="M21 14L21 8L77 8C78.6569 8 80 9.34315 80 11V11C80 12.6569 78.6569 14 77 14L21 14Z" fill="url(#paint2_linear_6405_44206)"/>
<path d="M20 16L20 6L22 10L22 12L20 16ZM77 6C79.7614 6 82 8.23858 82 11L82 11C82 13.7614 79.7614 16 77 16L77 12C77.5523 12 78 11.5523 78 11C78 10.4477 77.5523 10 77 10L77 6ZM82 11C82 13.7614 79.7614 16 77 16L20 16L22 12L77 12C77.5523 12 78 11.5523 78 11L82 11ZM20 6L77 6C79.7614 6 82 8.23858 82 11L78 11C78 10.4477 77.5523 10 77 10L22 10L20 6Z" fill="url(#paint3_linear_6405_44206)" mask="url(#path-3-outside-1_6405_44206)"/>
<path d="M21 14L21 8L50 8C51.6569 8 53 9.34314 53 11V11C53 12.6569 51.6569 14 50 14L21 14Z" fill="url(#paint4_linear_6405_44206)"/>
<defs>
<linearGradient id="paint0_linear_6405_44206" x1="11" y1="20" x2="11" y2="38" gradientUnits="userSpaceOnUse">
<stop stop-color="#FFF257"/>
<stop offset="0.5" stop-color="#FFC800"/>
<stop offset="1" stop-color="#FB9D30"/>
</linearGradient>
<linearGradient id="paint1_linear_6405_44206" x1="11" y1="29" x2="11" y2="38" gradientUnits="userSpaceOnUse">
<stop stop-color="white"/>
</linearGradient>
<linearGradient id="paint2_linear_6405_44206" x1="21" y1="11" x2="80" y2="11" gradientUnits="userSpaceOnUse">
<stop stop-color="white"/>
<stop offset="1" stop-color="white" stop-opacity="0.8"/>
</linearGradient>
<linearGradient id="paint3_linear_6405_44206" x1="50.5" y1="11" x2="80" y2="11" gradientUnits="userSpaceOnUse">
<stop stop-color="white"/>
</linearGradient>
<linearGradient id="paint4_linear_6405_44206" x1="21" y1="11" x2="53" y2="11" gradientUnits="userSpaceOnUse">
<stop stop-color="#FFF257"/>
<stop offset="0.5" stop-color="#FFC800"/>
<stop offset="1" stop-color="#FB9D30"/>
</linearGradient>
</defs>
</svg>
