<svg width="16" height="16" viewBox="0 0 16 16" fill="none" xmlns="http://www.w3.org/2000/svg">
<path d="M14.9213 3.79088L11.4463 5.93195L8.11412 1.48731C8.10071 1.46942 8.08332 1.4549 8.06333 1.4449C8.04334 1.43489 8.02129 1.42969 7.99894 1.42969C7.97658 1.42969 7.95454 1.43489 7.93454 1.4449C7.91455 1.4549 7.89716 1.46942 7.88376 1.48731L4.5534 5.93195L1.07662 3.79088C0.97483 3.72838 0.842687 3.81231 0.858759 3.93195L2.22304 14.2998C2.24269 14.4409 2.36412 14.5498 2.50876 14.5498H13.4927C13.6355 14.5498 13.7588 14.4427 13.7766 14.2998L15.1409 3.93195C15.1552 3.81231 15.0248 3.72838 14.9213 3.79088ZM12.6713 13.3284H3.32662L2.3659 6.01766L4.86233 7.55516L7.99983 3.36945L11.1373 7.55516L13.6338 6.01766L12.6713 13.3284ZM7.99983 7.94267C6.8909 7.94267 5.98912 8.84445 5.98912 9.95338C5.98912 11.0623 6.8909 11.9641 7.99983 11.9641C9.10876 11.9641 10.0105 11.0623 10.0105 9.95338C10.0105 8.84445 9.10876 7.94267 7.99983 7.94267ZM7.99983 10.8159C7.52483 10.8159 7.13912 10.4302 7.13912 9.95338C7.13912 9.47838 7.52483 9.09088 7.99983 9.09088C8.47483 9.09088 8.86055 9.47659 8.86055 9.95338C8.86055 10.4284 8.47483 10.8159 7.99983 10.8159Z" fill="#333333" stroke="#333333" stroke-width="0.5"/>
</svg>
