<svg width="10" height="10" viewBox="0 0 10 10" fill="none" xmlns="http://www.w3.org/2000/svg">
<path d="M5 0C2.243 0 0 2.243 0 5C0 7.757 2.243 10 5 10C7.757 10 10 7.757 10 5C10 2.243 7.757 0 5 0ZM5 9C2.7945 9 1 7.2055 1 5C1 2.7945 2.7945 1 5 1C7.2055 1 9 2.7945 9 5C9 7.2055 7.2055 9 5 9Z" fill="url(#paint0_linear_5564_6088)"/>
<path d="M5.5 2H4.5V5.207L6.6465 7.3535L7.3535 6.6465L5.5 4.793V2Z" fill="url(#paint1_linear_5564_6088)"/>
<defs>
<linearGradient id="paint0_linear_5564_6088" x1="5" y1="5" x2="5" y2="10" gradientUnits="userSpaceOnUse">
<stop stop-color="white"/>
</linearGradient>
<linearGradient id="paint1_linear_5564_6088" x1="5.92675" y1="4.67675" x2="5.92675" y2="7.3535" gradientUnits="userSpaceOnUse">
<stop stop-color="white"/>
</linearGradient>
</defs>
</svg>
