<svg width="20" height="20" viewBox="0 0 20 20" fill="none" xmlns="http://www.w3.org/2000/svg">
<path d="M6.24378 7.19378C6.62834 7.19376 7.00426 7.0797 7.324 6.86602C7.64373 6.65234 7.89292 6.34865 8.04005 5.99334C8.18718 5.63804 8.22564 5.24708 8.15057 4.86992C8.0755 4.49275 7.89026 4.14632 7.61829 3.87444C7.34632 3.60255 6.99984 3.41742 6.62265 3.34247C6.24546 3.26751 5.85452 3.30609 5.49926 3.45333C5.144 3.60057 4.84038 3.84985 4.6268 4.16966C4.41322 4.48946 4.29928 4.86541 4.29938 5.24998C4.30004 5.76541 4.50513 6.25952 4.86965 6.62393C5.23417 6.98834 5.72835 7.19327 6.24378 7.19378ZM6.24378 4.30518C6.43054 4.3052 6.6131 4.3606 6.76838 4.46437C6.92365 4.56814 7.04467 4.71563 7.11613 4.88818C7.18758 5.06073 7.20627 5.25059 7.16982 5.43376C7.13337 5.61693 7.04343 5.78518 6.91136 5.91723C6.7793 6.04929 6.61104 6.13921 6.42787 6.17564C6.24469 6.21207 6.05483 6.19336 5.88229 6.12189C5.70974 6.05041 5.56227 5.92938 5.45851 5.77409C5.35476 5.6188 5.29938 5.43624 5.29938 5.24948C5.29972 4.99912 5.39933 4.75912 5.57637 4.5821C5.75341 4.40508 5.99342 4.30549 6.24378 4.30518ZM7.04498 8.91208H5.44248C5.1475 8.91245 4.86471 9.02982 4.65616 9.23844C4.44761 9.44706 4.33034 9.72989 4.33008 10.0249V11.1621C4.33008 11.2947 4.2774 11.4219 4.18363 11.5156C4.08986 11.6094 3.96269 11.6621 3.83008 11.6621C3.69747 11.6621 3.57029 11.6094 3.47652 11.5156C3.38276 11.4219 3.33008 11.2947 3.33008 11.1621V10.0249C3.33069 9.46478 3.55343 8.9278 3.94943 8.53171C4.34544 8.13563 4.88238 7.91279 5.44248 7.91208H7.04498C7.60514 7.91269 8.14219 8.13548 8.53828 8.53157C8.93438 8.92767 9.15717 9.46471 9.15778 10.0249V11.1621C9.15778 11.2947 9.1051 11.4219 9.01133 11.5156C8.91756 11.6094 8.79039 11.6621 8.65778 11.6621C8.52517 11.6621 8.39799 11.6094 8.30422 11.5156C8.21046 11.4219 8.15778 11.2947 8.15778 11.1621V10.0249C8.15751 9.72983 8.04019 9.44693 7.83155 9.2383C7.62292 9.02967 7.34003 8.91234 7.04498 8.91208ZM11.8121 10.2821C11.8121 10.6667 11.9261 11.0426 12.1397 11.3624C12.3534 11.6821 12.657 11.9314 13.0123 12.0785C13.3676 12.2257 13.7586 12.2642 14.1358 12.1892C14.513 12.1142 14.8594 11.929 15.1314 11.6571C15.4033 11.3851 15.5885 11.0387 15.6635 10.6615C15.7385 10.2843 15.7 9.89334 15.5529 9.53804C15.4057 9.18274 15.1564 8.87907 14.8367 8.66543C14.5169 8.45178 14.141 8.33776 13.7564 8.33778C13.2409 8.33833 12.7466 8.54337 12.3821 8.9079C12.0176 9.27243 11.8126 9.76657 11.8121 10.2821ZM14.7008 10.2821C14.7008 10.4689 14.6454 10.6515 14.5417 10.8068C14.4379 10.9621 14.2904 11.0832 14.1179 11.1547C13.9453 11.2262 13.7554 11.2449 13.5722 11.2084C13.389 11.172 13.2207 11.0821 13.0886 10.95C12.9565 10.8179 12.8666 10.6497 12.8301 10.4665C12.7937 10.2833 12.8124 10.0934 12.8839 9.92079C12.9553 9.74822 13.0764 9.60072 13.2317 9.49694C13.387 9.39317 13.5696 9.33778 13.7564 9.33778C14.0067 9.33812 14.2468 9.43773 14.4238 9.61476C14.6008 9.7918 14.7004 10.0317 14.7008 10.2821ZM16.6708 15.0575V16.1947C16.6708 16.3273 16.6181 16.4545 16.5243 16.5482C16.4306 16.642 16.3034 16.6947 16.1708 16.6947C16.0382 16.6947 15.911 16.642 15.8172 16.5482C15.7235 16.4545 15.6708 16.3273 15.6708 16.1947V15.0576C15.6705 14.7625 15.5532 14.4796 15.3446 14.271C15.1359 14.0624 14.853 13.945 14.558 13.9448H12.9552C12.6601 13.945 12.3772 14.0624 12.1686 14.271C11.96 14.4796 11.8426 14.7625 11.8424 15.0576V16.1948C11.8424 16.3274 11.7897 16.4546 11.6959 16.5483C11.6022 16.6421 11.475 16.6948 11.3424 16.6948C11.2098 16.6948 11.0826 16.6421 10.9888 16.5483C10.8951 16.4546 10.8424 16.3274 10.8424 16.1948V15.0576C10.843 14.4974 11.0658 13.9604 11.4619 13.5643C11.858 13.1682 12.395 12.9454 12.9552 12.9448H14.5577C15.1178 12.9455 15.6547 13.1683 16.0507 13.5644C16.4467 13.9605 16.6702 14.4974 16.6708 15.0575ZM9.89078 15.455C9.89078 15.5876 9.8381 15.7148 9.74433 15.8085C9.65056 15.9023 9.52339 15.955 9.39078 15.955H8.24078C7.57798 15.9542 6.94256 15.6905 6.47389 15.2219C6.00522 14.7532 5.74157 14.1178 5.74078 13.455V13.165C5.74078 13.0324 5.79346 12.9052 5.88722 12.8114C5.98099 12.7177 6.10817 12.665 6.24078 12.665C6.37339 12.665 6.50056 12.7177 6.59433 12.8114C6.6881 12.9052 6.74078 13.0324 6.74078 13.165V13.455C6.74123 13.8527 6.89941 14.2339 7.18061 14.5151C7.46182 14.7963 7.84309 14.9545 8.24078 14.955H9.39078C9.45644 14.955 9.52145 14.9679 9.58211 14.9931C9.64277 15.0182 9.69788 15.0551 9.7443 15.1015C9.79072 15.1479 9.82754 15.2031 9.85266 15.2637C9.87777 15.3244 9.89079 15.3893 9.89078 15.455ZM9.17078 4.59498C9.17078 4.46237 9.22346 4.33519 9.31722 4.24142C9.41099 4.14766 9.53817 4.09498 9.67078 4.09498H11.7608C12.4236 4.09574 13.059 4.35938 13.5277 4.82806C13.9964 5.29673 14.26 5.93217 14.2608 6.59498V6.83498C14.2608 6.96758 14.2081 7.09476 14.1143 7.18853C14.0206 7.2823 13.8934 7.33498 13.7608 7.33498C13.6282 7.33498 13.501 7.2823 13.4072 7.18853C13.3135 7.09476 13.2608 6.96758 13.2608 6.83498V6.59498C13.2604 6.19728 13.1022 5.816 12.821 5.53478C12.5398 5.25357 12.1585 5.0954 11.7608 5.09498H9.67008C9.60439 5.09498 9.53935 5.08203 9.47867 5.05689C9.41798 5.03174 9.36285 4.99488 9.31642 4.94842C9.26999 4.90196 9.23316 4.84681 9.20805 4.78611C9.18294 4.72541 9.17074 4.66066 9.17078 4.59498Z" stroke="#FF0000" stroke-opacity="0.8"/>
</svg>
