<svg width="23" height="24" viewBox="0 0 23 24" fill="none" xmlns="http://www.w3.org/2000/svg">
<path d="M19.7357 20.3288H5.12143C3.94286 20.3288 3 19.3859 3 18.2074V17.5788C3 16.4002 3.94286 15.4574 5.12143 15.4574C5.43571 15.4574 5.67143 15.2216 5.67143 14.9074V10.9002C5.67143 7.20735 8.65714 4.14307 12.4286 4.14307C16.2 4.14307 19.1857 7.20735 19.1857 10.9002V14.9074C19.1857 15.2216 19.4214 15.4574 19.7357 15.4574C20.9143 15.4574 21.8571 16.4002 21.8571 17.5788V18.2074C21.8571 19.3859 20.9143 20.3288 19.7357 20.3288ZM12.4286 5.71449C9.6 5.71449 7.24286 8.07164 7.24286 10.9002V14.9074C7.24286 16.0859 6.3 17.0288 5.12143 17.0288C4.80714 17.0288 4.57143 17.2645 4.57143 17.5788V18.2074C4.57143 18.5216 4.80714 18.7574 5.12143 18.7574H19.7357C20.05 18.7574 20.2857 18.5216 20.2857 18.2074V17.5788C20.2857 17.2645 20.05 17.0288 19.7357 17.0288C18.5571 17.0288 17.6143 16.0859 17.6143 14.9074V10.9002C17.6143 8.07164 15.2571 5.71449 12.4286 5.71449Z" fill="url(#paint0_linear_10011_38198)" stroke="url(#paint1_linear_10011_38198)" stroke-width="0.5"/>
<path d="M12.4288 23C10.5431 23 8.97168 21.4286 8.97168 19.5429C8.97168 19.0714 9.28597 18.7571 9.75739 18.7571C10.2288 18.7571 10.5431 19.0714 10.5431 19.5429C10.5431 20.5643 11.4074 21.4286 12.4288 21.4286C13.4503 21.4286 14.3145 20.5643 14.3145 19.5429C14.3145 19.0714 14.6288 18.7571 15.1003 18.7571C15.5717 18.7571 15.886 19.0714 15.886 19.5429C15.886 21.4286 14.3145 23 12.4288 23ZM12.4288 5.71429C11.0931 5.71429 10.0717 4.69286 10.0717 3.35714C10.0717 2.02143 11.0931 1 12.4288 1C13.7645 1 14.786 2.02143 14.786 3.35714C14.786 4.69286 13.7645 5.71429 12.4288 5.71429ZM12.4288 2.57143C11.9574 2.57143 11.6431 2.88571 11.6431 3.35714C11.6431 3.82857 11.9574 4.14286 12.4288 4.14286C12.9003 4.14286 13.2145 3.82857 13.2145 3.35714C13.2145 2.88571 12.9003 2.57143 12.4288 2.57143Z" fill="url(#paint2_linear_10011_38198)" stroke="url(#paint3_linear_10011_38198)" stroke-width="0.5"/>
<defs>
<linearGradient id="paint0_linear_10011_38198" x1="12.4286" y1="12.2359" x2="12.4286" y2="20.3288" gradientUnits="userSpaceOnUse">
<stop stop-color="white"/>
</linearGradient>
<linearGradient id="paint1_linear_10011_38198" x1="12.4286" y1="12.2359" x2="12.4286" y2="20.3288" gradientUnits="userSpaceOnUse">
<stop stop-color="white"/>
</linearGradient>
<linearGradient id="paint2_linear_10011_38198" x1="12.4288" y1="12" x2="12.4288" y2="23" gradientUnits="userSpaceOnUse">
<stop stop-color="white"/>
</linearGradient>
<linearGradient id="paint3_linear_10011_38198" x1="12.4288" y1="12" x2="12.4288" y2="23" gradientUnits="userSpaceOnUse">
<stop stop-color="white"/>
</linearGradient>
</defs>
</svg>
