<svg width="17" height="16" viewBox="0 0 17 16" fill="none" xmlns="http://www.w3.org/2000/svg">
<path d="M3.16699 13.3332V11.9998H5.00033L4.73366 11.7665C4.15588 11.2554 3.75033 10.6721 3.51699 10.0165C3.28366 9.36095 3.16699 8.69984 3.16699 8.03317C3.16699 6.79984 3.53644 5.70261 4.27533 4.7415C5.01421 3.78039 5.9781 3.14428 7.16699 2.83317V4.23317C6.36699 4.52206 5.72255 5.01373 5.23366 5.70817C4.74477 6.40261 4.50033 7.17761 4.50033 8.03317C4.50033 8.53317 4.59477 9.01928 4.78366 9.4915C4.97255 9.96373 5.26699 10.3998 5.66699 10.7998L5.83366 10.9665V9.33317H7.16699V13.3332H3.16699ZM9.83366 13.1665V11.7665C10.6337 11.4776 11.2781 10.9859 11.767 10.2915C12.2559 9.59706 12.5003 8.82206 12.5003 7.9665C12.5003 7.4665 12.4059 6.98039 12.217 6.50817C12.0281 6.03595 11.7337 5.59984 11.3337 5.19984L11.167 5.03317V6.6665H9.83366V2.6665H13.8337V3.99984H12.0003L12.267 4.23317C12.8114 4.77761 13.2087 5.36928 13.4587 6.00817C13.7087 6.64706 13.8337 7.29984 13.8337 7.9665C13.8337 9.19984 13.4642 10.2971 12.7253 11.2582C11.9864 12.2193 11.0225 12.8554 9.83366 13.1665Z" fill="url(#paint0_linear_10011_38188)"/>
<defs>
<linearGradient id="paint0_linear_10011_38188" x1="8.50033" y1="7.99984" x2="8.50033" y2="13.3332" gradientUnits="userSpaceOnUse">
<stop stop-color="white"/>
</linearGradient>
</defs>
</svg>
