<svg width="20" height="20" viewBox="0 0 20 20" fill="none" xmlns="http://www.w3.org/2000/svg">
<g id="icon-24/chat-read">
<path id="Vector" d="M2.83366 3.33332V13.3333V14.2708V15.4594L3.68331 14.6282L4.49589 13.8333H9.50033V14.5H5.00033H4.79322L4.64677 14.6464L2.16699 17.1262V3.33332C2.16699 3.00865 2.27676 2.74316 2.51013 2.50979C2.7435 2.27642 3.00899 2.16666 3.33366 2.16666H16.667C16.9917 2.16666 17.2572 2.27642 17.4905 2.50979C17.7239 2.74316 17.8337 3.00865 17.8337 3.33332V8.66666H17.167V3.33332V2.83332H16.667H3.33366H2.83366V3.33332ZM12.227 13.7096L12.6878 13.2488L14.1051 14.666L14.4587 15.0196L14.8122 14.666L17.9972 11.4811L18.463 11.9552L14.4599 15.9583L12.227 13.7096Z" fill="#333333" stroke="url(#paint0_linear_7424_892)"/>
</g>
<defs>
<linearGradient id="paint0_linear_7424_892" x1="10.417" y1="9.99999" x2="10.417" y2="18.3333" gradientUnits="userSpaceOnUse">
<stop stop-color="white"/>
</linearGradient>
</defs>
</svg>
