<svg width="20" height="21" viewBox="0 0 20 21" fill="none" xmlns="http://www.w3.org/2000/svg">
<path d="M15 6.33357H14.7083C14.8985 5.94421 14.9982 5.51689 15 5.08357C15.0025 4.50301 14.8312 3.93498 14.5082 3.45259C14.1851 2.97021 13.7251 2.59555 13.1873 2.37685C12.6495 2.15815 12.0585 2.1054 11.4905 2.22541C10.9225 2.34542 10.4034 2.63269 10 3.05023C9.59662 2.63269 9.07751 2.34542 8.50948 2.22541C7.94146 2.1054 7.35051 2.15815 6.81271 2.37685C6.27491 2.59555 5.81488 2.97021 5.49182 3.45259C5.16877 3.93498 4.99748 4.50301 5 5.08357C5.00178 5.51689 5.10149 5.94421 5.29167 6.33357H5C4.33696 6.33357 3.70107 6.59696 3.23223 7.0658C2.76339 7.53464 2.5 8.17053 2.5 8.83357V10.5002C2.5 10.7212 2.5878 10.9332 2.74408 11.0895C2.90036 11.2458 3.11232 11.3336 3.33333 11.3336H4.16667V16.3336C4.16667 16.9966 4.43006 17.6325 4.8989 18.1013C5.36774 18.5702 6.00363 18.8336 6.66667 18.8336H13.3333C13.9964 18.8336 14.6323 18.5702 15.1011 18.1013C15.5699 17.6325 15.8333 16.9966 15.8333 16.3336V11.3336H16.6667C16.8877 11.3336 17.0996 11.2458 17.2559 11.0895C17.4122 10.9332 17.5 10.7212 17.5 10.5002V8.83357C17.5 8.17053 17.2366 7.53464 16.7678 7.0658C16.2989 6.59696 15.663 6.33357 15 6.33357ZM9.16667 17.1669H6.66667C6.44565 17.1669 6.23369 17.0791 6.07741 16.9228C5.92113 16.7665 5.83333 16.5546 5.83333 16.3336V11.3336H9.16667V17.1669ZM9.16667 9.6669H4.16667V8.83357C4.16667 8.61255 4.25446 8.40059 4.41074 8.24431C4.56702 8.08803 4.77899 8.00023 5 8.00023H9.16667V9.6669ZM9.16667 6.33357H7.91667C7.66944 6.33357 7.42777 6.26026 7.2222 6.12291C7.01664 5.98555 6.85643 5.79033 6.76182 5.56192C6.66721 5.33351 6.64245 5.08218 6.69068 4.8397C6.73892 4.59723 6.85797 4.3745 7.03278 4.19968C7.2076 4.02487 7.43033 3.90582 7.6728 3.85759C7.91528 3.80935 8.16661 3.83411 8.39502 3.92872C8.62343 4.02333 8.81865 4.18354 8.956 4.38911C9.09336 4.59467 9.16667 4.83634 9.16667 5.08357V6.33357ZM10.8333 5.08357C10.8333 4.83634 10.9066 4.59467 11.044 4.38911C11.1813 4.18354 11.3766 4.02333 11.605 3.92872C11.8334 3.83411 12.0847 3.80935 12.3272 3.85759C12.5697 3.90582 12.7924 4.02487 12.9672 4.19968C13.142 4.3745 13.2611 4.59723 13.3093 4.8397C13.3575 5.08218 13.3328 5.33351 13.2382 5.56192C13.1436 5.79033 12.9834 5.98555 12.7778 6.12291C12.5722 6.26026 12.3306 6.33357 12.0833 6.33357H10.8333V5.08357ZM14.1667 16.3336C14.1667 16.5546 14.0789 16.7665 13.9226 16.9228C13.7663 17.0791 13.5543 17.1669 13.3333 17.1669H10.8333V11.3336H14.1667V16.3336ZM15.8333 9.6669H10.8333V8.00023H15C15.221 8.00023 15.433 8.08803 15.5893 8.24431C15.7455 8.40059 15.8333 8.61255 15.8333 8.83357V9.6669Z" fill="url(#paint0_linear_10843_75697)"/>
<defs>
<linearGradient id="paint0_linear_10843_75697" x1="10" y1="10.4981" x2="10" y2="18.8336" gradientUnits="userSpaceOnUse">
<stop stop-color="white"/>
</linearGradient>
</defs>
</svg>
