<svg width="16" height="16" viewBox="0 0 16 16" fill="none" xmlns="http://www.w3.org/2000/svg">
<path d="M11.3946 1.87996C10.7815 1.37569 10.0635 1.01465 9.29304 0.823194C8.5226 0.631737 7.71913 0.61469 6.94126 0.773297C5.90551 0.982512 4.95526 1.49468 4.21105 2.24482C3.46685 2.99496 2.96224 3.94925 2.76126 4.98663C2.61449 5.76445 2.64116 6.56506 2.83937 7.33139C3.03758 8.09771 3.40244 8.81086 3.90793 9.41996C4.37705 9.94934 4.64595 10.6263 4.66793 11.3333V13.3333C4.66793 13.8637 4.87864 14.3724 5.25372 14.7475C5.62879 15.1226 6.1375 15.3333 6.66793 15.3333H9.3346C9.86503 15.3333 10.3737 15.1226 10.7488 14.7475C11.1239 14.3724 11.3346 13.8637 11.3346 13.3333V11.46C11.357 10.6794 11.6437 9.92958 12.1479 9.3333C13.0313 8.24048 13.4478 6.84318 13.3067 5.44505C13.1657 4.04692 12.4785 2.76096 11.3946 1.86663V1.87996ZM10.0013 13.3333C10.0013 13.5101 9.93103 13.6797 9.806 13.8047C9.68098 13.9297 9.51141 14 9.3346 14H6.66793C6.49112 14 6.32155 13.9297 6.19653 13.8047C6.0715 13.6797 6.00126 13.5101 6.00126 13.3333V12.6666H10.0013V13.3333ZM11.1146 8.50663C10.4443 9.3017 10.0532 10.2947 10.0013 11.3333H8.66793V9.3333C8.66793 9.15649 8.59769 8.98692 8.47267 8.86189C8.34764 8.73687 8.17807 8.66663 8.00126 8.66663C7.82445 8.66663 7.65488 8.73687 7.52986 8.86189C7.40483 8.98692 7.3346 9.15649 7.3346 9.3333V11.3333H6.00126C5.98367 10.312 5.60589 9.32981 4.9346 8.55996C4.49169 8.0293 4.19386 7.39291 4.07014 6.71286C3.94642 6.03281 4.00103 5.33231 4.22865 4.67965C4.45628 4.02699 4.84914 3.44446 5.36894 2.98885C5.88875 2.53324 6.51774 2.2201 7.1946 2.07996C7.7763 1.96019 8.37737 1.97146 8.95418 2.11294C9.53098 2.25443 10.069 2.52258 10.5293 2.89793C10.9895 3.27328 11.3604 3.74642 11.615 4.28298C11.8697 4.81954 12.0016 5.40606 12.0013 5.99996C12.0062 6.91321 11.6927 7.79961 11.1146 8.50663Z" fill="url(#paint0_linear_7326_49199)"/>
<defs>
<linearGradient id="paint0_linear_7326_49199" x1="8.00082" y1="7.99953" x2="8.00082" y2="15.3333" gradientUnits="userSpaceOnUse">
<stop stop-color="white"/>
</linearGradient>
</defs>
</svg>
