<svg width="20" height="21" viewBox="0 0 20 21" fill="none" xmlns="http://www.w3.org/2000/svg">
<path d="M17.5 16.625C17.5 17.1063 17.3368 17.5182 17.0104 17.8609C16.684 18.2036 16.2917 18.375 15.8333 18.375L4.16667 18.375C3.70833 18.375 3.31597 18.2036 2.98958 17.8609C2.66319 17.5182 2.5 17.1063 2.5 16.625L2.5 10.5L4.16667 10.5V16.625L10 16.625L15.8333 16.625V10.5L17.5 10.5V16.625ZM14.1667 7L12.9583 8.20313L10.8333 5.97188V13.125L9.16667 13.125V5.97188L7.04167 8.20313L5.83333 7L10 2.625L14.1667 7Z" fill="#333333"/>
</svg>
