<svg width="12" height="12" viewBox="0 0 12 12" fill="none" xmlns="http://www.w3.org/2000/svg">
<path d="M6 3C5.93434 2.99998 5.86931 3.0129 5.80864 3.03803C5.74797 3.06315 5.69284 3.09998 5.64641 3.14641C5.59998 3.19284 5.56315 3.24797 5.53803 3.30864C5.51291 3.36931 5.49999 3.43433 5.5 3.5V5.5H4.5C4.36739 5.5 4.24022 5.55268 4.14645 5.64645C4.05268 5.74021 4 5.86739 4 6C4 6.13261 4.05268 6.25979 4.14645 6.35355C4.24022 6.44732 4.36739 6.5 4.5 6.5H6C6.06567 6.50002 6.13069 6.4871 6.19136 6.46197C6.25203 6.43685 6.30716 6.40002 6.35359 6.35359C6.40003 6.30716 6.43686 6.25203 6.46198 6.19136C6.4871 6.13069 6.50002 6.06567 6.5 6V3.5C6.50002 3.43433 6.4871 3.36931 6.46198 3.30864C6.43686 3.24797 6.40003 3.19284 6.35359 3.14641C6.30716 3.09998 6.25203 3.06315 6.19136 3.03803C6.13069 3.0129 6.06567 2.99998 6 3ZM6 1C5.0111 1 4.0444 1.29324 3.22215 1.84265C2.39991 2.39206 1.75904 3.17295 1.3806 4.08658C1.00217 5.00021 0.90315 6.00555 1.09608 6.97545C1.289 7.94536 1.76521 8.83627 2.46447 9.53553C3.16373 10.2348 4.05465 10.711 5.02455 10.9039C5.99446 11.0969 6.99979 10.9978 7.91342 10.6194C8.82705 10.241 9.60794 9.6001 10.1573 8.77785C10.7068 7.95561 11 6.98891 11 6C10.9985 4.67438 10.4712 3.40349 9.53386 2.46614C8.59651 1.52879 7.32562 1.00152 6 1ZM6 10C5.20888 10 4.43552 9.7654 3.77772 9.32588C3.11992 8.88635 2.60723 8.26164 2.30448 7.53073C2.00173 6.79983 1.92252 5.99556 2.07686 5.21964C2.2312 4.44371 2.61216 3.73098 3.17158 3.17157C3.73099 2.61216 4.44372 2.2312 5.21964 2.07686C5.99557 1.92252 6.79983 2.00173 7.53074 2.30448C8.26164 2.60723 8.88635 3.11992 9.32588 3.77772C9.76541 4.43552 10 5.20887 10 6C9.99879 7.06049 9.57697 8.0772 8.82709 8.82709C8.07721 9.57697 7.0605 9.99879 6 10Z" fill="#333333"/>
</svg>
