<svg width="20" height="20" viewBox="0 0 20 20" fill="none" xmlns="http://www.w3.org/2000/svg">
<g clip-path="url(#clip0_217_326)">
<path d="M19.0944 8.15376L12.8359 2.00277C12.593 1.75784 12.2403 1.64176 11.8553 1.68005C11.4703 1.71835 11.0845 1.90789 10.7829 2.20697L6.5218 6.52442L5.39749 7.61809M10.0001 17.7803L6.34875 17.7803L1.46454 13.2798C1.22165 13.0348 1.10851 12.6811 1.15001 12.2965C1.19151 11.9118 1.38426 11.5276 1.68584 11.2286L5.39749 7.61809M10.0001 17.7803L12.7383 14.8911M10.0001 17.7803L15.0001 17.7803M19.0431 8.64767L12.7383 14.8911M5.39749 7.61809L11.2116 13.3677L12.7383 14.8911" stroke="white" stroke-width="1.66667" stroke-linecap="round" stroke-linejoin="round"/>
</g>
<defs>
<clipPath id="clip0_217_326">
<rect width="20" height="20" fill="white"/>
</clipPath>
</defs>
</svg>
