<svg width="16" height="17" viewBox="0 0 16 17" fill="none" xmlns="http://www.w3.org/2000/svg">
<g clip-path="url(#clip0_6630_4177)">
<path d="M13.1667 15.5667L6.9 9.2667C6.37778 9.38892 5.89167 9.57226 5.44167 9.8167C4.99167 10.0611 4.58889 10.3667 4.23333 10.7334L2.83333 9.30003C3.18889 8.94448 3.57222 8.63337 3.98333 8.3667C4.39444 8.10003 4.83333 7.8667 5.3 7.6667L3.8 6.1667C3.34444 6.40003 2.91944 6.65837 2.525 6.9417C2.13056 7.22503 1.75556 7.54448 1.4 7.90003L0 6.4667C0.355556 6.11114 0.725 5.7917 1.10833 5.50837C1.49167 5.22503 1.9 4.95559 2.33333 4.70003L0.933333 3.30003L1.86667 2.3667L14.1333 14.6334L13.1667 15.5667ZM8 14.5C7.53333 14.5 7.13889 14.3361 6.81667 14.0084C6.49444 13.6806 6.33333 13.2889 6.33333 12.8334C6.33333 12.3667 6.49444 11.9723 6.81667 11.65C7.13889 11.3278 7.53333 11.1667 8 11.1667C8.46667 11.1667 8.86111 11.3278 9.18333 11.65C9.50556 11.9723 9.66667 12.3667 9.66667 12.8334C9.66667 13.2889 9.50556 13.6806 9.18333 14.0084C8.86111 14.3361 8.46667 14.5 8 14.5ZM11.9333 10.5334L11.45 10.05L10.9667 9.5667L8.56667 7.1667C9.46667 7.25559 10.3083 7.48337 11.0917 7.85003C11.875 8.2167 12.5667 8.70003 13.1667 9.30003L11.9333 10.5334ZM14.6 7.90003C13.7444 7.04448 12.7528 6.37503 11.625 5.8917C10.4972 5.40837 9.28889 5.1667 8 5.1667C7.76667 5.1667 7.54167 5.17503 7.325 5.1917C7.10833 5.20837 6.88889 5.23337 6.66667 5.2667L4.96667 3.5667C5.45556 3.43337 5.95278 3.33337 6.45833 3.2667C6.96389 3.20003 7.47778 3.1667 8 3.1667C9.57778 3.1667 11.05 3.46114 12.4167 4.05003C13.7833 4.63892 14.9778 5.44448 16 6.4667L14.6 7.90003Z" fill="url(#paint0_linear_6630_4177)"/>
</g>
<defs>
<linearGradient id="paint0_linear_6630_4177" x1="8" y1="8.9667" x2="8" y2="15.5667" gradientUnits="userSpaceOnUse">
<stop stop-color="white"/>
</linearGradient>
<clipPath id="clip0_6630_4177">
<rect width="16" height="16" fill="white" transform="translate(0 0.5)"/>
</clipPath>
</defs>
</svg>
