<svg width="18" height="14" viewBox="0 0 18 14" fill="none" xmlns="http://www.w3.org/2000/svg">
<path d="M2.33268 13.6667C1.87435 13.6667 1.48199 13.5035 1.1556 13.1771C0.82921 12.8507 0.666016 12.4584 0.666016 12V2.00004C0.666016 1.54171 0.82921 1.14935 1.1556 0.822957C1.48199 0.496568 1.87435 0.333374 2.33268 0.333374H15.666C16.1244 0.333374 16.5167 0.496568 16.8431 0.822957C17.1695 1.14935 17.3327 1.54171 17.3327 2.00004V12C17.3327 12.4584 17.1695 12.8507 16.8431 13.1771C16.5167 13.5035 16.1244 13.6667 15.666 13.6667H2.33268ZM8.99935 7.83337L2.33268 3.66671V12H15.666V3.66671L8.99935 7.83337ZM8.99935 6.16671L15.666 2.00004H2.33268L8.99935 6.16671ZM2.33268 3.66671V2.00004V12V3.66671Z" fill="white"/>
</svg>
