<svg width="21" height="20" viewBox="0 0 21 20" fill="none" xmlns="http://www.w3.org/2000/svg">
<path d="M10.166 8.45817V5.49984H10.8327V8.45817V9.63869L11.6806 8.81729L12.6604 7.86804L13.1256 8.33317L10.4993 10.9594L7.87312 8.33317L8.33825 7.86804L9.31812 8.81729L10.166 9.63869V8.45817ZM14.166 12.9998V13.6665H6.83268V12.9998H14.166ZM10.4993 17.8332C9.41165 17.8332 8.39604 17.6272 7.44745 17.2178C6.48916 16.8043 5.66056 16.2456 4.95707 15.5421C4.25358 14.8386 3.69486 14.01 3.28135 13.0517C2.87203 12.1032 2.66602 11.0875 2.66602 9.99984C2.66602 8.91214 2.87203 7.89652 3.28135 6.94794C3.69486 5.98964 4.25358 5.16104 4.95707 4.45756C5.66056 3.75407 6.48916 3.19535 7.44745 2.78184C8.39604 2.37251 9.41165 2.1665 10.4993 2.1665C11.5871 2.1665 12.6027 2.37251 13.5513 2.78184C14.5095 3.19535 15.3381 3.75407 16.0416 4.45756C16.7451 5.16104 17.3038 5.98964 17.7174 6.94794C18.1267 7.89652 18.3327 8.91214 18.3327 9.99984C18.3327 11.0875 18.1267 12.1032 17.7174 13.0517C17.3038 14.01 16.7451 14.8386 16.0416 15.5421C15.3381 16.2456 14.5095 16.8043 13.5513 17.2178C12.6027 17.6272 11.5871 17.8332 10.4993 17.8332ZM10.4993 17.1665C12.4903 17.1665 14.1947 16.47 15.5821 15.0826C16.9695 13.6952 17.666 11.9908 17.666 9.99984C17.666 8.00892 16.9695 6.30452 15.5821 4.91712C14.1947 3.52972 12.4903 2.83317 10.4993 2.83317C8.50843 2.83317 6.80403 3.52972 5.41663 4.91712C4.02923 6.30452 3.33268 8.00892 3.33268 9.99984C3.33268 11.9908 4.02923 13.6952 5.41663 15.0826C6.80403 16.47 8.50843 17.1665 10.4993 17.1665Z" fill="url(#paint0_linear_12130_87268)" stroke="url(#paint1_linear_12130_87268)"/>
<defs>
<linearGradient id="paint0_linear_12130_87268" x1="10.4993" y1="9.99984" x2="10.4993" y2="18.3332" gradientUnits="userSpaceOnUse">
<stop stop-color="white"/>
</linearGradient>
<linearGradient id="paint1_linear_12130_87268" x1="10.4993" y1="9.99984" x2="10.4993" y2="18.3332" gradientUnits="userSpaceOnUse">
<stop stop-color="white"/>
</linearGradient>
</defs>
</svg>
