<svg width="26" height="26" viewBox="0 0 26 26" fill="none" xmlns="http://www.w3.org/2000/svg">
<g clip-path="url(#clip0_15741_52456)">
<path d="M8.31773 23.2551L10.1849 22.5384L9.19937 19.971L9.66948 20.219C10.6958 20.7534 11.7307 21.0077 12.7741 20.9821C13.8176 20.9565 14.8061 20.7645 15.7397 20.4061C17.4668 19.7431 18.8047 18.6359 19.7535 17.0846C20.7022 15.5332 21.0748 13.8414 20.8714 12.0093L18.9109 12.7619C18.9364 14.0375 18.5943 15.2042 17.8846 16.2622C17.1749 17.3201 16.221 18.079 15.023 18.5389C14.3228 18.8077 13.5913 18.9368 12.8284 18.9261C12.0656 18.9154 11.2966 18.7375 10.5214 18.3924L10.1985 18.2486L12.4857 17.3706L11.769 15.5034L6.16751 17.6536L8.31773 23.2551ZM4.96743 13.8297L6.92795 13.0772C6.90245 11.8016 7.24454 10.6348 7.95422 9.57688C8.66389 8.51895 9.61778 7.76004 10.8159 7.30013C11.5161 7.03135 12.2476 6.9023 13.0104 6.91297C13.7732 6.92364 14.5422 7.10153 15.3174 7.44666L15.6404 7.59046L13.3531 8.46847L14.0698 10.3356L19.6713 8.18541L17.5211 2.58393L15.6539 3.30067L16.6394 5.86801L16.1693 5.62001C15.1143 5.15026 14.0722 4.91205 13.0431 4.9054C12.014 4.89874 11.0327 5.0746 10.0991 5.43297C8.37201 6.09595 7.03409 7.20313 6.08537 8.7545C5.13665 10.3059 4.76401 11.9976 4.96743 13.8297Z" fill="white"/>
</g>
<defs>
<clipPath id="clip0_15741_52456">
<rect width="20" height="20" fill="white" transform="matrix(-0.35837 -0.93358 -0.93358 0.35837 25.839 18.6716)"/>
</clipPath>
</defs>
</svg>
