<svg width="20" height="20" viewBox="0 0 20 20" fill="none" xmlns="http://www.w3.org/2000/svg">
<path d="M1.97479 15.561C2.01243 15.2222 2.03124 15.0529 2.08249 14.8946C2.12795 14.7541 2.19219 14.6205 2.27346 14.4972C2.36506 14.3583 2.48555 14.2378 2.72654 13.9969L13.5448 3.17862C14.4496 2.27379 15.9166 2.27379 16.8215 3.17863C17.7263 4.08346 17.7263 5.55049 16.8215 6.45532L6.00323 17.2735C5.76224 17.5145 5.64175 17.635 5.50284 17.7266C5.37961 17.8079 5.24595 17.8721 5.10551 17.9176C4.94721 17.9688 4.77785 17.9877 4.43913 18.0253L1.66675 18.3333L1.97479 15.561Z" stroke="url(#paint0_linear_13237_33228)" stroke-width="2" stroke-linecap="round" stroke-linejoin="round"/>
<defs>
<linearGradient id="paint0_linear_13237_33228" x1="9.58342" y1="10.4167" x2="9.58342" y2="18.3333" gradientUnits="userSpaceOnUse">
<stop stop-color="white"/>
</linearGradient>
</defs>
</svg>
