<svg width="24" height="24" viewBox="0 0 24 24" fill="none" xmlns="http://www.w3.org/2000/svg">
<path d="M2.25 7.125C2.25 6.62772 2.44754 6.15081 2.79917 5.79917C3.15081 5.44754 3.62772 5.25 4.125 5.25C4.62228 5.25 5.09919 5.44754 5.45083 5.79917C5.80246 6.15081 6 6.62772 6 7.125C6 7.62228 5.80246 8.09919 5.45083 8.45083C5.09919 8.80246 4.62228 9 4.125 9C3.62772 9 3.15081 8.80246 2.79917 8.45083C2.44754 8.09919 2.25 7.62228 2.25 7.125ZM22.5 3.75V14.25C22.5 14.4489 22.421 14.6397 22.2803 14.7803C22.1397 14.921 21.9489 15 21.75 15H8.25C8.05109 15 7.86032 14.921 7.71967 14.7803C7.57902 14.6397 7.5 14.4489 7.5 14.25V12.375H9V13.5H21V4.5H9V8.625H7.5V3.75C7.5 3.55109 7.57902 3.36032 7.71967 3.21967C7.86032 3.07902 8.05109 3 8.25 3H21.75C21.9489 3 22.1397 3.07902 22.2803 3.21967C22.421 3.36032 22.5 3.55109 22.5 3.75Z" fill="#333333"/>
<path d="M18 6.975V7.65C18 7.70967 17.9763 7.7669 17.9341 7.8091C17.8919 7.85129 17.8347 7.875 17.775 7.875H12.225C12.1653 7.875 12.1081 7.85129 12.0659 7.8091C12.0237 7.7669 12 7.70967 12 7.65V6.975C12 6.94545 12.0058 6.91619 12.0171 6.8889C12.0284 6.8616 12.045 6.83679 12.0659 6.8159C12.0868 6.79501 12.1116 6.77843 12.1389 6.76713C12.1662 6.75582 12.1955 6.75 12.225 6.75H17.775C17.8045 6.75 17.8338 6.75582 17.8611 6.76713C17.8884 6.77843 17.9132 6.79501 17.9341 6.8159C17.955 6.83679 17.9716 6.8616 17.9829 6.8889C17.9942 6.91619 18 6.94545 18 6.975ZM12 10.65V9.975C12 9.91533 12.0237 9.8581 12.0659 9.8159C12.1081 9.77371 12.1653 9.75 12.225 9.75H17.775C17.8347 9.75 17.8919 9.77371 17.9341 9.8159C17.9763 9.8581 18 9.91533 18 9.975V10.65C18 10.6795 17.9942 10.7088 17.9829 10.7361C17.9716 10.7634 17.955 10.7882 17.9341 10.8091C17.9132 10.83 17.8884 10.8466 17.8611 10.8579C17.8338 10.8692 17.8045 10.875 17.775 10.875H12.225C12.1955 10.875 12.1662 10.8692 12.1389 10.8579C12.1116 10.8466 12.0868 10.83 12.0659 10.8091C12.045 10.7882 12.0284 10.7634 12.0171 10.7361C12.0058 10.7088 12 10.6795 12 10.65ZM9 11.25H6V20.25C6 20.4489 5.92098 20.6397 5.78033 20.7803C5.63968 20.921 5.44891 21 5.25 21C5.05109 21 4.86032 20.921 4.71967 20.7803C4.57902 20.6397 4.5 20.4489 4.5 20.25V15.75H3V20.25C3 20.4489 2.92098 20.6397 2.78033 20.7803C2.63968 20.921 2.44891 21 2.25 21C2.05109 21 1.86032 20.921 1.71967 20.7803C1.57902 20.6397 1.5 20.4489 1.5 20.25V11.25C1.5 10.4227 2.17275 9.75 3 9.75H9C9.19891 9.75 9.38968 9.82902 9.53033 9.96967C9.67098 10.1103 9.75 10.3011 9.75 10.5C9.75 10.6989 9.67098 10.8897 9.53033 11.0303C9.38968 11.171 9.19891 11.25 9 11.25Z" fill="#333333"/>
</svg>
