<svg width="16" height="17" viewBox="0 0 16 17" fill="none" xmlns="http://www.w3.org/2000/svg">
<path d="M15.6822 8.03757C15.0545 6.71507 14.3075 5.6365 13.4412 4.80185L12.5326 5.71043C13.2735 6.41846 13.9189 7.34471 14.4769 8.49828C12.9912 11.5733 10.8822 13.034 8.0001 13.034C7.13498 13.034 6.33814 12.9008 5.60957 12.6344L4.6251 13.6188C5.63701 14.0861 6.76201 14.3197 8.0001 14.3197C11.4322 14.3197 13.993 12.5322 15.6822 8.95721C15.7502 8.81344 15.7854 8.6564 15.7854 8.49739C15.7854 8.33838 15.7502 8.18135 15.6822 8.03757V8.03757ZM14.5471 2.31185L13.7858 1.54971C13.7725 1.53643 13.7568 1.52589 13.7395 1.5187C13.7221 1.51151 13.7035 1.50781 13.6847 1.50781C13.666 1.50781 13.6474 1.51151 13.63 1.5187C13.6127 1.52589 13.5969 1.53643 13.5837 1.54971L11.6306 3.50185C10.5539 2.95185 9.34367 2.67685 8.0001 2.67685C4.56796 2.67685 2.00725 4.46435 0.31796 8.03935C0.250059 8.18313 0.214844 8.34017 0.214844 8.49918C0.214844 8.65818 0.250059 8.81522 0.31796 8.959C0.992841 10.3804 1.80534 11.5198 2.75546 12.377L0.865817 14.2661C0.839047 14.2929 0.824009 14.3293 0.824009 14.3671C0.824009 14.405 0.839047 14.4413 0.865817 14.4681L1.62814 15.2304C1.65493 15.2572 1.69125 15.2722 1.72912 15.2722C1.76699 15.2722 1.80331 15.2572 1.8301 15.2304L14.5471 2.514C14.5603 2.50073 14.5709 2.48497 14.5781 2.46763C14.5853 2.45029 14.589 2.4317 14.589 2.41293C14.589 2.39415 14.5853 2.37556 14.5781 2.35822C14.5709 2.34088 14.5603 2.32512 14.5471 2.31185ZM1.52332 8.49828C3.01082 5.42328 5.11975 3.96257 8.0001 3.96257C8.97403 3.96257 9.85957 4.12971 10.663 4.46953L9.4076 5.72489C8.81308 5.40768 8.13235 5.28996 7.46583 5.38908C6.7993 5.4882 6.18229 5.79893 5.7058 6.27541C5.22932 6.7519 4.91859 7.36891 4.81947 8.03544C4.72035 8.70196 4.83807 9.38269 5.15528 9.97721L3.66564 11.4669C2.84117 10.7392 2.13046 9.75328 1.52332 8.49828ZM5.92867 8.49828C5.92899 8.1834 6.00357 7.87303 6.14637 7.59238C6.28917 7.31174 6.49616 7.06874 6.75052 6.88312C7.00487 6.6975 7.29943 6.5745 7.61026 6.52411C7.92108 6.47372 8.23941 6.49736 8.53939 6.5931L6.0235 9.109C5.96044 8.91157 5.92845 8.70554 5.92867 8.49828V8.49828Z" fill="url(#paint0_linear_6630_3219)"/>
<path d="M7.92898 10.5012C7.8672 10.5012 7.80631 10.4984 7.74595 10.4929L6.80273 11.4361C7.37004 11.6533 7.98813 11.7016 8.58229 11.5751C9.17645 11.4485 9.72123 11.1526 10.1508 10.7231C10.5803 10.2935 10.8763 9.74871 11.0028 9.15455C11.1293 8.5604 11.0811 7.9423 10.8638 7.375L9.92059 8.31821C9.92613 8.37857 9.92898 8.43946 9.92898 8.50125C9.92912 8.76393 9.87749 9.02407 9.77703 9.26678C9.67657 9.5095 9.52926 9.73003 9.34351 9.91578C9.15777 10.1015 8.93723 10.2488 8.69452 10.3493C8.4518 10.4498 8.19167 10.5014 7.92898 10.5012V10.5012Z" fill="url(#paint1_linear_6630_3219)"/>
<defs>
<linearGradient id="paint0_linear_6630_3219" x1="8.00011" y1="8.39002" x2="8.00011" y2="15.2722" gradientUnits="userSpaceOnUse">
<stop stop-color="white"/>
</linearGradient>
<linearGradient id="paint1_linear_6630_3219" x1="8.93726" y1="9.50952" x2="8.93726" y2="11.644" gradientUnits="userSpaceOnUse">
<stop stop-color="white"/>
</linearGradient>
</defs>
</svg>
