<svg width="20" height="20" viewBox="0 0 20 20" fill="none" xmlns="http://www.w3.org/2000/svg">
<path d="M16.5001 18.8335L13.9792 16.3127C13.632 16.5349 13.264 16.7259 12.8751 16.8856C12.4862 17.0453 12.0834 17.1738 11.6667 17.271V15.5627C11.8612 15.4932 12.0522 15.4238 12.2397 15.3543C12.4272 15.2849 12.6042 15.2016 12.7709 15.1043L10.0001 12.3335V16.6668L5.83342 12.5002H2.50008V7.50016H5.16675L1.16675 3.50016L2.33341 2.3335L17.6667 17.6668L16.5001 18.8335ZM16.3334 14.0002L15.1251 12.7918C15.3612 12.3613 15.5383 11.9099 15.6563 11.4377C15.7744 10.9654 15.8334 10.4793 15.8334 9.97933C15.8334 8.67377 15.4515 7.50711 14.6876 6.47933C13.9237 5.45155 12.9167 4.75711 11.6667 4.396V2.68766C13.389 3.07655 14.7917 3.94808 15.8751 5.30225C16.9584 6.65641 17.5001 8.21544 17.5001 9.97933C17.5001 10.7154 17.3994 11.4238 17.198 12.1043C16.9966 12.7849 16.7084 13.4168 16.3334 14.0002ZM13.5417 11.2085L11.6667 9.3335V6.62516C12.3195 6.93072 12.8299 7.38905 13.198 8.00016C13.5661 8.61127 13.7501 9.27794 13.7501 10.0002C13.7501 10.2085 13.7327 10.4134 13.698 10.6147C13.6633 10.8161 13.6112 11.0141 13.5417 11.2085ZM10.0001 7.66683L7.83342 5.50016L10.0001 3.3335V7.66683ZM8.33342 12.6252V10.6668L6.83342 9.16683H4.16675V10.8335H6.54175L8.33342 12.6252Z" fill="white"/>
</svg>
