<svg width="18" height="14" viewBox="0 0 18 14" fill="none" xmlns="http://www.w3.org/2000/svg">
<path d="M1.00695 12.1773L1.00697 12.1773L1.00783 12.1767L8.17449 6.80171L8.17949 6.80837V6.79171V5.33337C8.17949 5.10058 8.2615 4.90595 8.42564 4.74865C8.58992 4.59121 8.78819 4.51254 9.02116 4.51254C9.37178 4.51254 9.66675 4.38615 9.90525 4.13362C10.1436 3.88128 10.2628 3.57959 10.2628 3.22921C10.2628 2.8787 10.14 2.58377 9.89445 2.34524C9.649 2.1068 9.35071 1.98754 9.00033 1.98754C8.64983 1.98754 8.3515 2.11036 8.10607 2.35579C7.86357 2.59829 7.74077 2.89244 7.73788 3.23754H6.09618C6.09911 2.44069 6.38251 1.76053 6.94667 1.19638C7.51376 0.62928 8.19808 0.345874 9.00033 0.345874C9.80262 0.345874 10.487 0.625845 11.054 1.18602C11.6211 1.74615 11.9045 2.42697 11.9045 3.22921C11.9045 3.87936 11.7144 4.46006 11.334 4.97175C10.9537 5.48346 10.4525 5.83609 9.82995 6.02977L9.82116 6.03251V6.04171V6.79171H9.81283L9.82616 6.80171L16.9928 12.1767L16.9928 12.1767L16.9937 12.1773C17.1028 12.2455 17.1845 12.3374 17.239 12.4533C17.2937 12.5696 17.3212 12.6962 17.3212 12.8334C17.3212 13.0663 17.2425 13.261 17.0852 13.4183C16.928 13.5755 16.7333 13.6542 16.5003 13.6542H1.50033C1.26736 13.6542 1.07268 13.5755 0.915414 13.4183C0.758152 13.261 0.679492 13.0663 0.679492 12.8334C0.679492 12.6962 0.706914 12.5696 0.761636 12.4533C0.816164 12.3374 0.897866 12.2455 1.00695 12.1773ZM3.99283 11.99L3.96283 12.0125H4.00033H14.0003H14.0378L14.0078 11.99L9.00783 8.24004L9.00033 8.23442L8.99283 8.24004L3.99283 11.99Z" fill="url(#paint0_linear_8836_58511)" stroke="url(#paint1_linear_8836_58511)" stroke-width="0.025"/>
<defs>
<linearGradient id="paint0_linear_8836_58511" x1="9.00033" y1="7.00004" x2="9.00033" y2="13.6667" gradientUnits="userSpaceOnUse">
<stop stop-color="white"/>
</linearGradient>
<linearGradient id="paint1_linear_8836_58511" x1="9.00033" y1="7.00004" x2="9.00033" y2="13.6667" gradientUnits="userSpaceOnUse">
<stop stop-color="white"/>
</linearGradient>
</defs>
</svg>
