<svg width="18" height="18" viewBox="0 0 18 18" fill="none" xmlns="http://www.w3.org/2000/svg">
<path d="M5.12565 3.98746H5.10579L5.11438 4.00537L7.11438 8.17204L7.09961 8.17913H7.12565H12.959V8.19256L12.9699 8.17265L15.2616 4.00598L15.2718 3.98746H15.2507H5.12565ZM4.32269 2.33866L4.30767 2.34579H4.33398H16.6257C16.9405 2.34579 17.1795 2.48565 17.344 2.76669C17.5085 3.04767 17.5154 3.33126 17.3646 3.61907C17.3646 3.6191 17.3646 3.61913 17.3646 3.61916L14.4064 8.95223L14.4064 8.95227C14.2546 9.22822 14.0513 9.44181 13.7963 9.59338C13.5414 9.74498 13.2623 9.82079 12.959 9.82079H6.75065V9.80736L6.7397 9.82727L5.82303 11.4939L5.81284 11.5125H5.83398H15.8215V13.1541H5.83398C5.21352 13.1541 4.74537 12.8823 4.42812 12.3374C4.11079 11.7924 4.09713 11.252 4.38662 10.7143C4.38663 10.7143 4.38664 10.7142 4.38666 10.7142L5.5116 8.67266L5.51937 8.67694L5.51195 8.66128L2.51195 2.32794L2.52704 2.32079H2.50065H0.846484V0.679126H3.53442L4.32269 2.33866ZM5.83398 17.3208C5.37899 17.3208 4.9898 17.1589 4.66574 16.8349C4.34168 16.5108 4.17982 16.1216 4.17982 15.6666C4.17982 15.2116 4.34168 14.8224 4.66574 14.4984C4.9898 14.1743 5.37899 14.0125 5.83398 14.0125C6.28898 14.0125 6.67817 14.1743 7.00223 14.4984C7.32629 14.8224 7.48815 15.2116 7.48815 15.6666C7.48815 16.1216 7.32629 16.5108 7.00223 16.8349C6.67817 17.1589 6.28898 17.3208 5.83398 17.3208ZM14.1673 17.3208C13.7123 17.3208 13.3231 17.1589 12.9991 16.8349C12.675 16.5108 12.5132 16.1216 12.5132 15.6666C12.5132 15.2116 12.675 14.8224 12.9991 14.4984C13.3231 14.1743 13.7123 14.0125 14.1673 14.0125C14.6223 14.0125 15.0115 14.1743 15.3356 14.4984C15.6596 14.8224 15.8215 15.2116 15.8215 15.6666C15.8215 16.1216 15.6596 16.5108 15.3356 16.8349C15.0115 17.1589 14.6223 17.3208 14.1673 17.3208Z" fill="url(#paint0_linear_8843_84193)" stroke="url(#paint1_linear_8843_84193)" stroke-width="0.025"/>
<defs>
<linearGradient id="paint0_linear_8843_84193" x1="9.15962" y1="8.99996" x2="9.15962" y2="17.3333" gradientUnits="userSpaceOnUse">
<stop stop-color="white"/>
</linearGradient>
<linearGradient id="paint1_linear_8843_84193" x1="9.15962" y1="8.99996" x2="9.15962" y2="17.3333" gradientUnits="userSpaceOnUse">
<stop stop-color="white"/>
</linearGradient>
</defs>
</svg>
