<svg width="25" height="24" viewBox="0 0 25 24" fill="none" xmlns="http://www.w3.org/2000/svg">
<rect x="0.5" width="24" height="24" rx="12" fill="white"/>
<g clip-path="url(#clip0_6071_931)">
<path d="M17.6667 19.0667L11.4 12.7667C10.8778 12.8889 10.3917 13.0723 9.94167 13.3167C9.49167 13.5611 9.08889 13.8667 8.73333 14.2334L7.33333 12.8C7.68889 12.4445 8.07222 12.1334 8.48333 11.8667C8.89444 11.6 9.33333 11.3667 9.8 11.1667L8.3 9.6667C7.84444 9.90003 7.41944 10.1584 7.025 10.4417C6.63056 10.725 6.25556 11.0445 5.9 11.4L4.5 9.9667C4.85556 9.61114 5.225 9.2917 5.60833 9.00837C5.99167 8.72503 6.4 8.45559 6.83333 8.20003L5.43333 6.80003L6.36667 5.8667L18.6333 18.1334L17.6667 19.0667ZM12.5 18C12.0333 18 11.6389 17.8361 11.3167 17.5084C10.9944 17.1806 10.8333 16.7889 10.8333 16.3334C10.8333 15.8667 10.9944 15.4723 11.3167 15.15C11.6389 14.8278 12.0333 14.6667 12.5 14.6667C12.9667 14.6667 13.3611 14.8278 13.6833 15.15C14.0056 15.4723 14.1667 15.8667 14.1667 16.3334C14.1667 16.7889 14.0056 17.1806 13.6833 17.5084C13.3611 17.8361 12.9667 18 12.5 18ZM16.4333 14.0334L15.95 13.55L15.4667 13.0667L13.0667 10.6667C13.9667 10.7556 14.8083 10.9834 15.5917 11.35C16.375 11.7167 17.0667 12.2 17.6667 12.8L16.4333 14.0334ZM19.1 11.4C18.2444 10.5445 17.2528 9.87503 16.125 9.3917C14.9972 8.90837 13.7889 8.6667 12.5 8.6667C12.2667 8.6667 12.0417 8.67503 11.825 8.6917C11.6083 8.70837 11.3889 8.73337 11.1667 8.7667L9.46667 7.0667C9.95556 6.93337 10.4528 6.83337 10.9583 6.7667C11.4639 6.70003 11.9778 6.6667 12.5 6.6667C14.0778 6.6667 15.55 6.96114 16.9167 7.55003C18.2833 8.13892 19.4778 8.94448 20.5 9.9667L19.1 11.4Z" fill="#CC0000"/>
</g>
<defs>
<clipPath id="clip0_6071_931">
<rect width="16" height="16" fill="white" transform="translate(4.5 4)"/>
</clipPath>
</defs>
</svg>
