<svg width="21" height="20" viewBox="0 0 21 20" fill="none" xmlns="http://www.w3.org/2000/svg">
<g clip-path="url(#clip0_6559_6156)">
<path fill-rule="evenodd" clip-rule="evenodd" d="M14.4642 4.75275C15.5813 5.67076 16.3451 6.94814 16.625 8.36671C18.7917 8.51671 20.5 10.3 20.5 12.5C20.5 14.8 18.6333 16.6667 16.3333 16.6667H5.5C2.74167 16.6667 0.5 14.425 0.5 11.6667C0.499857 10.4348 0.954976 9.24624 1.77791 8.32947C2.60084 7.41271 3.73353 6.8324 4.95833 6.70004C6 4.70004 8.09167 3.33337 10.5 3.33337C11.9459 3.33305 13.3471 3.83473 14.4642 4.75275ZM5.5 15H16.3333C17.7083 15 18.8333 13.875 18.8333 12.5C18.8305 11.8722 18.59 11.2687 18.1602 10.811C17.7303 10.3534 17.1431 10.0755 16.5167 10.0334L15.2417 9.94171L14.9917 8.69171C14.5667 6.55004 12.6833 5.00004 10.5 5.00004C9.6613 4.99922 8.83865 5.22985 8.1226 5.66654C7.40656 6.10322 6.8249 6.72902 6.44167 7.47504L6.025 8.26671L5.13333 8.35837C3.44167 8.53337 2.16667 9.95837 2.16667 11.6667C2.16667 13.5084 3.65833 15 5.5 15ZM9.29167 11.6667V14.1667H11.7083V11.6667H13.8333L10.5 8.33337L7.16667 11.6667H9.29167Z" fill="#333333"/>
</g>
<defs>
<clipPath id="clip0_6559_6156">
<rect width="20" height="20" fill="white" transform="translate(0.5)"/>
</clipPath>
</defs>
</svg>
