<svg width="17" height="16" viewBox="0 0 17 16" fill="none" xmlns="http://www.w3.org/2000/svg">
<path fill-rule="evenodd" clip-rule="evenodd" d="M0.5 8C0.5 3.584 4.076 0 8.492 0C12.916 0 16.5 3.584 16.5 8C16.5 12.416 12.916 16 8.492 16C4.076 16 0.5 12.416 0.5 8ZM11.676 4.8H14.036C13.268 3.48 12.044 2.456 10.572 1.952C11.052 2.84 11.42 3.8 11.676 4.8ZM8.5 1.632C9.164 2.592 9.684 3.656 10.028 4.8H6.972C7.316 3.656 7.836 2.592 8.5 1.632ZM2.1 8C2.1 8.552 2.18 9.088 2.308 9.6H5.012C4.948 9.072 4.9 8.544 4.9 8C4.9 7.456 4.948 6.928 5.012 6.4H2.308C2.18 6.912 2.1 7.448 2.1 8ZM2.964 11.2H5.324C5.58 12.2 5.948 13.16 6.428 14.048C4.956 13.544 3.732 12.528 2.964 11.2ZM2.964 4.8H5.324C5.58 3.8 5.948 2.84 6.428 1.952C4.956 2.456 3.732 3.472 2.964 4.8ZM8.5 14.368C7.836 13.408 7.316 12.344 6.972 11.2H10.028C9.684 12.344 9.164 13.408 8.5 14.368ZM6.5 8C6.5 8.544 6.556 9.072 6.628 9.6H10.372C10.444 9.072 10.5 8.544 10.5 8C10.5 7.456 10.444 6.92 10.372 6.4H6.628C6.556 6.92 6.5 7.456 6.5 8ZM10.572 14.048C11.052 13.16 11.42 12.2 11.676 11.2H14.036C13.268 12.52 12.044 13.544 10.572 14.048ZM12.1 8C12.1 8.544 12.052 9.072 11.988 9.6H14.692C14.82 9.088 14.9 8.552 14.9 8C14.9 7.448 14.82 6.912 14.692 6.4H11.988C12.052 6.928 12.1 7.456 12.1 8Z" fill="#333333"/>
</svg>
