<svg width="1526" height="911" viewBox="0 0 1526 911" fill="none" xmlns="http://www.w3.org/2000/svg">
<rect width="1346" height="911" fill="#0C0C0C" fill-opacity="0.38"/>
<g clip-path="url(#clip0_1_11085)">
<rect x="393" y="275.5" width="560" height="360" rx="12" fill="white"/>
<rect width="560" height="141" transform="translate(393 275.5)" fill="white"/>
<g clip-path="url(#clip1_1_11085)">
<rect width="48" height="48" transform="translate(649 307.5)" fill="white" fill-opacity="0.01"/>
<path d="M673 307.502C686.255 307.502 697 318.247 697 331.502C697 344.757 686.255 355.502 673 355.502C659.745 355.502 649 344.757 649 331.502C649 318.247 659.745 307.502 673 307.502ZM668.919 328.127L668.673 329.27L670.026 329.516C670.905 329.727 671.081 330.043 670.888 330.922L668.673 341.328C668.093 344.017 668.989 345.283 671.099 345.283C672.733 345.283 674.632 344.527 675.493 343.49L675.757 342.242C675.159 342.769 674.28 342.98 673.7 342.98C672.874 342.98 672.575 342.4 672.786 341.381L675.792 327.266L668.919 328.127ZM673 318.002C671.343 318.002 670 319.345 670 321.002C670 322.659 671.343 324.002 673 324.002C674.657 324.002 676 322.659 676 321.002C676 319.345 674.657 318.002 673 318.002Z" fill="#3D8BFD"/>
</g>
<path d="M640.64 381.092C640.496 380.676 640.312 380.404 640.088 380.276C639.88 380.132 639.536 380.06 639.056 380.06H638.648V377.972H642.944L646.52 389.396L650.024 377.972H654.368V380.06H653.96C653.464 380.06 653.112 380.132 652.904 380.276C652.696 380.404 652.512 380.676 652.352 381.092L648.056 393.5H645.008L640.64 381.092ZM659.432 393.86C657.512 393.86 656 393.356 654.896 392.348C653.808 391.324 653.264 389.828 653.264 387.86C653.264 385.78 653.784 384.22 654.824 383.18C655.864 382.14 657.344 381.62 659.264 381.62C661.12 381.62 662.528 382.14 663.488 383.18C664.464 384.204 664.952 385.596 664.952 387.356V388.484H656.384C656.384 389.604 656.648 390.428 657.176 390.956C657.704 391.468 658.464 391.724 659.456 391.724C660.448 391.724 661.24 391.596 661.832 391.34V390.5H664.544V392.324C663.328 393.348 661.624 393.86 659.432 393.86ZM661.832 386.684C661.832 385.692 661.616 384.956 661.184 384.476C660.752 383.996 660.096 383.756 659.216 383.756C658.304 383.756 657.6 384.012 657.104 384.524C656.624 385.02 656.384 385.74 656.384 386.684H661.832ZM666.848 391.412H667.472C667.808 391.412 668.048 391.34 668.192 391.196C668.336 391.036 668.408 390.796 668.408 390.476V384.956C668.408 384.652 668.344 384.428 668.216 384.284C668.088 384.14 667.864 384.068 667.544 384.068H666.848V381.98H670.952L671.264 383.252C671.808 382.404 672.784 381.98 674.192 381.98H675.44V384.068H673.808C673.008 384.068 672.432 384.252 672.08 384.62C671.728 384.988 671.552 385.548 671.552 386.3V390.524C671.552 390.828 671.616 391.052 671.744 391.196C671.888 391.34 672.12 391.412 672.44 391.412H673.064V393.5H666.848V391.412ZM678.304 377.708H681.616V380.252H678.304V377.708ZM676.864 391.412H677.488C677.824 391.412 678.064 391.34 678.208 391.196C678.352 391.036 678.424 390.796 678.424 390.476V385.076C678.424 384.724 678.36 384.468 678.232 384.308C678.12 384.148 677.888 384.068 677.536 384.068H676.864V381.98H681.568V390.524C681.568 390.828 681.632 391.052 681.76 391.196C681.904 391.34 682.136 391.412 682.456 391.412H683.08V393.5H676.864V391.412ZM684.76 391.412H685.384C685.72 391.412 685.96 391.34 686.104 391.196C686.248 391.036 686.32 390.796 686.32 390.476V384.068H684.496V381.98H686.32V381.212C686.32 379.9 686.704 378.884 687.472 378.164C688.256 377.428 689.4 377.06 690.904 377.06C692.648 377.06 694.048 377.5 695.104 378.38V380.444H692.392V379.484C692.088 379.228 691.672 379.1 691.144 379.1C690.616 379.1 690.2 379.26 689.896 379.58C689.608 379.9 689.464 380.38 689.464 381.02V381.98H692.752V384.068H689.464V390.524C689.464 390.828 689.528 391.052 689.656 391.196C689.8 391.34 690.032 391.412 690.352 391.412H690.976V393.5H684.76V391.412ZM700.943 398.3C699.919 398.3 698.991 398.156 698.159 397.868C697.327 397.58 696.623 397.164 696.047 396.62V394.82H698.759V395.66C698.999 395.884 699.279 396.036 699.599 396.116C699.935 396.212 700.351 396.26 700.847 396.26C702.319 396.26 703.055 395.396 703.055 393.668V392.372C702.191 393.044 701.159 393.38 699.959 393.38C698.519 393.38 697.383 393.02 696.551 392.3C695.735 391.564 695.327 390.54 695.327 389.228V384.956C695.327 384.364 695.023 384.068 694.415 384.068H693.791V381.98H698.519V389.348C698.519 390.676 699.199 391.34 700.559 391.34C701.263 391.34 701.815 391.14 702.215 390.74C702.631 390.34 702.839 389.764 702.839 389.012V384.956C702.839 384.364 702.535 384.068 701.927 384.068H701.303V381.98H706.055V393.116C706.055 394.684 705.591 395.94 704.663 396.884C703.751 397.828 702.511 398.3 700.943 398.3Z" fill="black"/>
<path d="M502.94 489.98C502.94 487.073 504.6 485.62 507.92 485.62C509.733 485.62 511.02 486.013 511.78 486.8C512.54 487.587 512.92 488.647 512.92 489.98V496.5H510.22V489.66C510.22 488.927 510.053 488.373 509.72 488C509.387 487.627 508.787 487.44 507.92 487.44C507.093 487.44 506.507 487.627 506.16 488C505.813 488.373 505.64 488.927 505.64 489.66V491.32C506.053 490.773 506.4 490.4 506.68 490.2C506.96 489.987 507.353 489.88 507.86 489.88C508.607 489.88 509.133 490.027 509.44 490.32C509.747 490.6 509.9 491.107 509.9 491.84C509.9 492.533 509.733 493.04 509.4 493.36C509.08 493.667 508.56 493.82 507.84 493.82C506.893 493.82 506.327 493.54 506.14 492.98L505.64 493.68V496.5H502.94V489.98ZM507.86 492.66C508.167 492.66 508.373 492.6 508.48 492.48C508.587 492.36 508.64 492.153 508.64 491.86C508.64 491.567 508.587 491.373 508.48 491.28C508.373 491.173 508.167 491.12 507.86 491.12C507.54 491.12 507.32 491.173 507.2 491.28C507.093 491.373 507.04 491.567 507.04 491.86C507.04 492.153 507.1 492.36 507.22 492.48C507.34 492.6 507.553 492.66 507.86 492.66ZM510.915 501.18C509.649 501.18 509.015 500.56 509.015 499.32C509.015 498.64 509.175 498.133 509.495 497.8C509.815 497.48 510.389 497.32 511.215 497.32C512.042 497.32 512.615 497.5 512.935 497.86C513.255 498.22 513.415 498.8 513.415 499.6V502.86H510.915V501.18ZM511.155 500.08C511.462 500.08 511.675 500.027 511.795 499.92C511.902 499.813 511.955 499.62 511.955 499.34C511.955 499.033 511.902 498.827 511.795 498.72C511.675 498.613 511.462 498.56 511.155 498.56C510.849 498.56 510.642 498.613 510.535 498.72C510.415 498.827 510.355 499.033 510.355 499.34C510.355 499.62 510.415 499.813 510.535 499.92C510.642 500.027 510.849 500.08 511.155 500.08ZM518.055 496.8C517.202 496.8 516.609 496.627 516.275 496.28C515.942 495.92 515.775 495.333 515.775 494.52V492.38C515.775 491.793 515.855 491.313 516.015 490.94C516.189 490.567 516.489 490.253 516.915 490L515.395 489.1V487.54C516.742 486.26 518.382 485.62 520.315 485.62C521.942 485.62 523.142 485.967 523.915 486.66C524.689 487.34 525.075 488.273 525.075 489.46V493.98L527.735 492.08C527.895 491.973 528.002 491.867 528.055 491.76C528.122 491.64 528.155 491.48 528.155 491.28V485.92H530.815V491.24C530.815 491.573 530.735 491.86 530.575 492.1C530.429 492.34 530.162 492.6 529.775 492.88C530.282 492.973 530.642 493.167 530.855 493.46C531.069 493.753 531.175 494.173 531.175 494.72C531.175 495.48 531.002 496.02 530.655 496.34C530.309 496.647 529.675 496.8 528.755 496.8C527.982 496.8 527.429 496.673 527.095 496.42C526.762 496.153 526.595 495.713 526.595 495.1L524.755 496.5H522.455V489.34C522.455 488.073 521.735 487.44 520.295 487.44C519.415 487.44 518.635 487.687 517.955 488.18V488.44L519.495 489.4V490.46C519.082 490.607 518.809 490.8 518.675 491.04C518.542 491.28 518.475 491.647 518.475 492.14V492.94C519.062 492.94 519.515 493.093 519.835 493.4C520.169 493.707 520.335 494.173 520.335 494.8C520.335 495.493 520.169 496 519.835 496.32C519.502 496.64 518.909 496.8 518.055 496.8ZM528.815 495.46C529.122 495.46 529.329 495.407 529.435 495.3C529.555 495.193 529.615 494.993 529.615 494.7C529.615 494.407 529.555 494.207 529.435 494.1C529.329 493.98 529.122 493.92 528.815 493.92C528.509 493.92 528.295 493.98 528.175 494.1C528.069 494.207 528.015 494.407 528.015 494.7C528.015 494.993 528.069 495.193 528.175 495.3C528.295 495.407 528.509 495.46 528.815 495.46ZM518.115 495.56C518.422 495.56 518.629 495.507 518.735 495.4C518.855 495.293 518.915 495.087 518.915 494.78C518.915 494.5 518.855 494.307 518.735 494.2C518.629 494.093 518.422 494.04 518.115 494.04C517.809 494.04 517.595 494.093 517.475 494.2C517.369 494.307 517.315 494.5 517.315 494.78C517.315 495.087 517.369 495.293 517.475 495.4C517.595 495.507 517.809 495.56 518.115 495.56ZM535.09 496.8C534.237 496.8 533.637 496.627 533.29 496.28C532.957 495.92 532.79 495.333 532.79 494.52V485.92H535.49V492.94C536.077 492.94 536.537 493.1 536.87 493.42C537.203 493.727 537.37 494.187 537.37 494.8C537.37 495.493 537.203 496 536.87 496.32C536.537 496.64 535.943 496.8 535.09 496.8ZM540.39 496.8C539.537 496.8 538.937 496.627 538.59 496.28C538.257 495.92 538.09 495.333 538.09 494.52V485.92H540.79V492.94C541.377 492.94 541.837 493.1 542.17 493.42C542.503 493.727 542.67 494.187 542.67 494.8C542.67 495.493 542.503 496 542.17 496.32C541.837 496.64 541.243 496.8 540.39 496.8ZM535.15 495.56C535.457 495.56 535.663 495.507 535.77 495.4C535.89 495.293 535.95 495.087 535.95 494.78C535.95 494.5 535.89 494.307 535.77 494.2C535.663 494.093 535.457 494.04 535.15 494.04C534.843 494.04 534.63 494.093 534.51 494.2C534.403 494.307 534.35 494.5 534.35 494.78C534.35 495.087 534.403 495.293 534.51 495.4C534.63 495.507 534.843 495.56 535.15 495.56ZM540.45 495.56C540.757 495.56 540.963 495.507 541.07 495.4C541.19 495.293 541.25 495.087 541.25 494.78C541.25 494.5 541.19 494.307 541.07 494.2C540.963 494.093 540.757 494.04 540.45 494.04C540.143 494.04 539.93 494.093 539.81 494.2C539.703 494.307 539.65 494.5 539.65 494.78C539.65 495.087 539.703 495.293 539.81 495.4C539.93 495.507 540.143 495.56 540.45 495.56ZM551.94 496.8C550.366 496.8 549.633 496.227 549.74 495.08L547.74 496.5H545.42V489.48C544.833 489.48 544.366 489.327 544.02 489.02C543.686 488.7 543.52 488.233 543.52 487.62C543.52 486.927 543.686 486.42 544.02 486.1C544.353 485.78 544.946 485.62 545.8 485.62C546.666 485.62 547.266 485.8 547.6 486.16C547.946 486.507 548.12 487.087 548.12 487.9V493.96L550.92 492.08C551.08 491.987 551.186 491.88 551.24 491.76C551.306 491.64 551.34 491.48 551.34 491.28V485.92H554.04V490.94C554.04 491.38 553.96 491.747 553.8 492.04C553.653 492.32 553.373 492.6 552.96 492.88C553.466 492.973 553.826 493.167 554.04 493.46C554.253 493.753 554.36 494.173 554.36 494.72C554.36 495.48 554.186 496.02 553.84 496.34C553.493 496.647 552.86 496.8 551.94 496.8ZM545.74 488.38C546.046 488.38 546.253 488.327 546.36 488.22C546.48 488.113 546.54 487.92 546.54 487.64C546.54 487.333 546.48 487.127 546.36 487.02C546.253 486.913 546.046 486.86 545.74 486.86C545.433 486.86 545.22 486.913 545.1 487.02C544.993 487.127 544.94 487.333 544.94 487.64C544.94 487.92 544.993 488.113 545.1 488.22C545.22 488.327 545.433 488.38 545.74 488.38ZM552 495.46C552.306 495.46 552.513 495.407 552.62 495.3C552.74 495.193 552.8 494.993 552.8 494.7C552.8 494.407 552.74 494.207 552.62 494.1C552.513 493.98 552.306 493.92 552 493.92C551.693 493.92 551.48 493.98 551.36 494.1C551.253 494.207 551.2 494.407 551.2 494.7C551.2 494.993 551.253 495.193 551.36 495.3C551.48 495.407 551.693 495.46 552 495.46ZM551.837 481.42H554.537V484.72H551.837V481.42ZM561.097 496.8C560.243 496.8 559.643 496.627 559.297 496.28C558.963 495.92 558.797 495.333 558.797 494.52V489.08C558.797 488.613 558.91 488.187 559.137 487.8C559.377 487.4 559.71 486.96 560.137 486.48C560.523 486.027 560.81 485.653 560.997 485.36C561.183 485.053 561.277 484.727 561.277 484.38C561.277 484.02 561.177 483.753 560.977 483.58C560.79 483.407 560.49 483.32 560.077 483.32C559.663 483.32 559.35 483.42 559.137 483.62C558.923 483.807 558.817 484.087 558.817 484.46V485.14H556.117V484.44C556.117 483.507 556.497 482.787 557.257 482.28C558.03 481.76 558.983 481.5 560.117 481.5C561.41 481.5 562.363 481.753 562.977 482.26C563.603 482.767 563.917 483.473 563.917 484.38C563.917 484.833 563.81 485.247 563.597 485.62C563.383 485.993 563.063 486.44 562.637 486.96C562.25 487.44 561.963 487.84 561.777 488.16C561.59 488.48 561.497 488.82 561.497 489.18V492.94C562.083 492.94 562.543 493.1 562.877 493.42C563.21 493.727 563.377 494.187 563.377 494.8C563.377 495.493 563.21 496 562.877 496.32C562.543 496.64 561.95 496.8 561.097 496.8ZM561.157 495.56C561.463 495.56 561.67 495.507 561.777 495.4C561.897 495.293 561.957 495.087 561.957 494.78C561.957 494.5 561.897 494.307 561.777 494.2C561.67 494.093 561.463 494.04 561.157 494.04C560.85 494.04 560.637 494.093 560.517 494.2C560.41 494.307 560.357 494.5 560.357 494.78C560.357 495.087 560.41 495.293 560.517 495.4C560.637 495.507 560.85 495.56 561.157 495.56ZM568.423 493.32C568.237 493.347 568.083 493.36 567.963 493.36C567.337 493.36 566.857 493.2 566.523 492.88C566.203 492.56 566.043 492.093 566.043 491.48C566.043 490.8 566.203 490.307 566.523 490C566.843 489.68 567.41 489.52 568.223 489.52C568.797 489.52 569.223 489.587 569.503 489.72C569.797 489.84 570.003 490.04 570.123 490.32C570.243 490.587 570.363 491.02 570.483 491.62L571.083 494.68H571.403C571.697 494.68 571.91 494.613 572.043 494.48C572.19 494.347 572.263 494.133 572.263 493.84V489.56C572.263 488.813 572.063 488.273 571.663 487.94C571.263 487.607 570.617 487.44 569.723 487.44C569.137 487.44 568.61 487.533 568.143 487.72C567.677 487.893 567.23 488.153 566.803 488.5L565.703 487.04C566.85 486.093 568.303 485.62 570.063 485.62C571.663 485.62 572.877 485.947 573.703 486.6C574.543 487.24 574.963 488.2 574.963 489.48V493.4C574.963 494.213 574.723 494.933 574.243 495.56C573.777 496.187 572.91 496.5 571.643 496.5H569.043L568.423 493.32ZM568.223 492.28C568.517 492.28 568.717 492.227 568.823 492.12C568.943 492.013 569.003 491.82 569.003 491.54C569.003 491.233 568.95 491.027 568.843 490.92C568.737 490.813 568.53 490.76 568.223 490.76C567.917 490.76 567.703 490.82 567.583 490.94C567.463 491.047 567.403 491.247 567.403 491.54C567.403 491.82 567.463 492.013 567.583 492.12C567.703 492.227 567.917 492.28 568.223 492.28ZM578.65 489.48C578.063 489.48 577.597 489.327 577.25 489.02C576.917 488.7 576.75 488.233 576.75 487.62C576.75 486.927 576.917 486.42 577.25 486.1C577.583 485.78 578.177 485.62 579.03 485.62C579.897 485.62 580.497 485.8 580.83 486.16C581.177 486.507 581.35 487.087 581.35 487.9V492.8L583.35 489.78C583.483 489.58 583.657 489.407 583.87 489.26C583.257 489.007 582.95 488.467 582.95 487.64C582.95 486.947 583.11 486.44 583.43 486.12C583.75 485.787 584.337 485.62 585.19 485.62C586.043 485.62 586.637 485.767 586.97 486.06C587.303 486.353 587.47 486.88 587.47 487.64C587.47 488.493 587.15 489.04 586.51 489.28C586.963 489.52 587.19 490 587.19 490.72V496.5H584.49V491.9C584.49 491.793 584.477 491.72 584.45 491.68C584.423 491.627 584.383 491.6 584.33 491.6C584.263 491.6 584.203 491.627 584.15 491.68C584.11 491.72 584.077 491.767 584.05 491.82C584.023 491.873 583.997 491.913 583.97 491.94L581.03 496.5H578.65V489.48ZM578.97 488.38C579.277 488.38 579.483 488.327 579.59 488.22C579.71 488.113 579.77 487.92 579.77 487.64C579.77 487.333 579.71 487.127 579.59 487.02C579.483 486.913 579.277 486.86 578.97 486.86C578.663 486.86 578.45 486.913 578.33 487.02C578.223 487.127 578.17 487.333 578.17 487.64C578.17 487.92 578.223 488.113 578.33 488.22C578.45 488.327 578.663 488.38 578.97 488.38ZM585.19 488.38C585.497 488.38 585.71 488.327 585.83 488.22C585.95 488.113 586.01 487.92 586.01 487.64C586.01 487.347 585.95 487.147 585.83 487.04C585.71 486.92 585.497 486.86 585.19 486.86C584.883 486.86 584.67 486.913 584.55 487.02C584.443 487.127 584.39 487.333 584.39 487.64C584.39 487.92 584.443 488.113 584.55 488.22C584.67 488.327 584.883 488.38 585.19 488.38ZM593.649 496.8C592.796 496.8 592.202 496.64 591.869 496.32C591.536 496 591.369 495.493 591.369 494.8C591.369 494.187 591.536 493.727 591.869 493.42C592.202 493.1 592.662 492.94 593.249 492.94V492.08C593.249 491.733 593.182 491.487 593.049 491.34C592.916 491.18 592.669 491.047 592.309 490.94L589.169 490.02V488.82C589.169 487.7 589.549 486.887 590.309 486.38C591.069 485.873 592.089 485.62 593.369 485.62C594.329 485.62 595.122 485.72 595.749 485.92C596.376 486.107 596.962 486.413 597.509 486.84L596.409 488.32C596.089 488.053 595.702 487.84 595.249 487.68C594.796 487.52 594.296 487.44 593.749 487.44C593.122 487.44 592.649 487.547 592.329 487.76C592.022 487.96 591.869 488.247 591.869 488.62V488.92L594.549 489.7C594.962 489.82 595.269 489.973 595.469 490.16C595.669 490.333 595.796 490.56 595.849 490.84C595.916 491.12 595.949 491.507 595.949 492V494.52C595.949 495.333 595.776 495.92 595.429 496.28C595.096 496.627 594.502 496.8 593.649 496.8ZM593.589 495.56C593.896 495.56 594.102 495.507 594.209 495.4C594.329 495.293 594.389 495.087 594.389 494.78C594.389 494.5 594.329 494.307 594.209 494.2C594.102 494.093 593.896 494.04 593.589 494.04C593.282 494.04 593.069 494.093 592.949 494.2C592.842 494.307 592.789 494.5 592.789 494.78C592.789 495.087 592.842 495.293 592.949 495.4C593.069 495.507 593.282 495.56 593.589 495.56ZM588.789 484.72C588.883 483.573 589.249 482.693 589.889 482.08C590.529 481.453 591.396 481.093 592.489 481V480.2H594.569V481.18C594.863 481.26 595.103 481.387 595.289 481.56V480.2H597.349V484.72H588.789ZM594.909 483.38C594.629 482.713 594.023 482.38 593.089 482.38C592.076 482.38 591.463 482.713 591.249 483.38H594.909ZM604.203 496.8C602.483 496.8 601.303 496.48 600.663 495.84C600.023 495.187 599.703 494.313 599.703 493.22V492.02C599.703 491.207 599.87 490.627 600.203 490.28C600.55 489.92 601.15 489.74 602.003 489.74C602.856 489.74 603.45 489.9 603.783 490.22C604.116 490.54 604.283 491.047 604.283 491.74C604.283 492.34 604.103 492.78 603.743 493.06C603.396 493.327 602.916 493.46 602.303 493.46V493.74C602.303 494.153 602.456 494.467 602.763 494.68C603.07 494.88 603.55 494.98 604.203 494.98C604.856 494.98 605.356 494.867 605.703 494.64C606.05 494.4 606.223 494.067 606.223 493.64V489.5C606.223 488.793 606.016 488.273 605.603 487.94C605.19 487.607 604.543 487.44 603.663 487.44C603.076 487.44 602.543 487.527 602.063 487.7C601.596 487.873 601.136 488.14 600.683 488.5L599.583 487.04C600.156 486.573 600.816 486.22 601.563 485.98C602.323 485.74 603.143 485.62 604.023 485.62C605.743 485.62 606.99 485.953 607.763 486.62C608.536 487.287 608.923 488.24 608.923 489.48V493.5C608.923 494.033 608.77 494.553 608.463 495.06C608.17 495.553 607.67 495.967 606.963 496.3C606.27 496.633 605.35 496.8 604.203 496.8ZM602.063 492.5C602.37 492.5 602.576 492.447 602.683 492.34C602.803 492.233 602.863 492.04 602.863 491.76C602.863 491.453 602.803 491.247 602.683 491.14C602.576 491.033 602.37 490.98 602.063 490.98C601.756 490.98 601.543 491.033 601.423 491.14C601.316 491.247 601.263 491.453 601.263 491.76C601.263 492.04 601.316 492.233 601.423 492.34C601.543 492.447 601.756 492.5 602.063 492.5ZM615.023 496.8C614.17 496.8 613.57 496.627 613.223 496.28C612.89 495.92 612.723 495.333 612.723 494.52V487.44C612.723 486.587 612.803 485.887 612.963 485.34C613.123 484.78 613.383 484.307 613.743 483.92L614.443 483.18H610.703V481.36H617.883V482.72L616.423 484.14C616.077 484.487 615.823 484.927 615.663 485.46C615.503 485.98 615.423 486.613 615.423 487.36V492.94C616.01 492.94 616.47 493.1 616.803 493.42C617.137 493.727 617.303 494.187 617.303 494.8C617.303 495.493 617.137 496 616.803 496.32C616.47 496.64 615.877 496.8 615.023 496.8ZM615.083 495.56C615.39 495.56 615.597 495.507 615.703 495.4C615.823 495.293 615.883 495.087 615.883 494.78C615.883 494.5 615.823 494.307 615.703 494.2C615.597 494.093 615.39 494.04 615.083 494.04C614.777 494.04 614.563 494.093 614.443 494.2C614.337 494.307 614.283 494.5 614.283 494.78C614.283 495.087 614.337 495.293 614.443 495.4C614.563 495.507 614.777 495.56 615.083 495.56ZM622.26 496.8C621.447 496.8 620.867 496.64 620.52 496.32C620.187 496 620.02 495.507 620.02 494.84C620.02 494.173 620.16 493.687 620.44 493.38C620.734 493.073 621.174 492.907 621.76 492.88V489.48C621.174 489.48 620.707 489.327 620.36 489.02C620.027 488.7 619.86 488.233 619.86 487.62C619.86 486.927 620.027 486.42 620.36 486.1C620.694 485.78 621.287 485.62 622.14 485.62C623.007 485.62 623.607 485.8 623.94 486.16C624.287 486.507 624.46 487.087 624.46 487.9V492.96L627.32 494.02V485.92H630.02V496.5H628.46L624.6 495.08C624.56 495.667 624.374 496.1 624.04 496.38C623.707 496.66 623.114 496.8 622.26 496.8ZM622.08 488.38C622.387 488.38 622.594 488.327 622.7 488.22C622.82 488.113 622.88 487.92 622.88 487.64C622.88 487.333 622.82 487.127 622.7 487.02C622.594 486.913 622.387 486.86 622.08 486.86C621.774 486.86 621.56 486.913 621.44 487.02C621.334 487.127 621.28 487.333 621.28 487.64C621.28 487.92 621.334 488.113 621.44 488.22C621.56 488.327 621.774 488.38 622.08 488.38ZM622.36 495.58C622.667 495.58 622.874 495.527 622.98 495.42C623.1 495.3 623.16 495.1 623.16 494.82C623.16 494.527 623.1 494.327 622.98 494.22C622.874 494.113 622.667 494.06 622.36 494.06C622.054 494.06 621.84 494.113 621.72 494.22C621.614 494.327 621.56 494.527 621.56 494.82C621.56 495.113 621.614 495.313 621.72 495.42C621.84 495.527 622.054 495.58 622.36 495.58ZM627.821 481.42H630.521V484.72H627.821V481.42ZM634.201 489.48C633.614 489.48 633.148 489.327 632.801 489.02C632.468 488.7 632.301 488.233 632.301 487.62C632.301 486.927 632.468 486.42 632.801 486.1C633.134 485.78 633.728 485.62 634.581 485.62C635.448 485.62 636.048 485.8 636.381 486.16C636.728 486.507 636.901 487.087 636.901 487.9V490.36L638.561 487.46C638.934 486.793 639.321 486.32 639.721 486.04C640.121 485.76 640.621 485.62 641.221 485.62C641.848 485.62 642.328 485.813 642.661 486.2C643.008 486.573 643.181 487.08 643.181 487.72V496.5H640.481V488.9C640.481 488.793 640.468 488.72 640.441 488.68C640.414 488.627 640.361 488.6 640.281 488.6C640.201 488.6 640.128 488.633 640.061 488.7C640.008 488.767 639.928 488.893 639.821 489.08L636.901 494.16V496.5H634.201V489.48ZM634.521 488.38C634.828 488.38 635.034 488.327 635.141 488.22C635.261 488.113 635.321 487.92 635.321 487.64C635.321 487.333 635.261 487.127 635.141 487.02C635.034 486.913 634.828 486.86 634.521 486.86C634.214 486.86 634.001 486.913 633.881 487.02C633.774 487.127 633.721 487.333 633.721 487.64C633.721 487.92 633.774 488.113 633.881 488.22C634.001 488.327 634.214 488.38 634.521 488.38ZM633.949 484.72C634.056 483.493 634.549 482.553 635.429 481.9C636.296 481.233 637.396 480.9 638.729 480.9C639.236 480.9 639.729 480.967 640.209 481.1C640.676 481.233 641.056 481.42 641.349 481.66V480.2H643.689V484.72H633.949ZM641.189 483.38C641.029 483.047 640.729 482.8 640.289 482.64C639.849 482.467 639.329 482.38 638.729 482.38C638.142 482.38 637.649 482.467 637.249 482.64C636.836 482.8 636.582 483.047 636.489 483.38H641.189ZM641.849 476.76H644.189V479.48H641.849V476.76ZM646.569 488.58C646.569 487.607 646.822 486.873 647.329 486.38C647.836 485.873 648.516 485.62 649.369 485.62C649.929 485.62 650.402 485.72 650.789 485.92C651.176 486.12 651.429 486.427 651.549 486.84C651.709 486.427 651.989 486.12 652.389 485.92C652.789 485.72 653.276 485.62 653.849 485.62C654.716 485.62 655.382 485.867 655.849 486.36C656.316 486.84 656.549 487.58 656.549 488.58V496.5H653.929V488.76C653.929 488.24 653.876 487.893 653.769 487.72C653.676 487.533 653.489 487.44 653.209 487.44C652.996 487.44 652.822 487.513 652.689 487.66C652.569 487.807 652.509 488.033 652.509 488.34V488.54H650.589V488.34C650.589 488.033 650.536 487.807 650.429 487.66C650.336 487.513 650.176 487.44 649.949 487.44C649.669 487.44 649.469 487.533 649.349 487.72C649.242 487.907 649.189 488.253 649.189 488.76V494.48L650.409 493.24C650.089 493.147 649.862 492.98 649.729 492.74C649.596 492.5 649.529 492.147 649.529 491.68C649.529 490.987 649.689 490.493 650.009 490.2C650.329 489.907 650.829 489.76 651.509 489.76C652.336 489.76 652.896 489.907 653.189 490.2C653.482 490.493 653.629 491.007 653.629 491.74C653.629 492.167 653.542 492.52 653.369 492.8C653.209 493.08 652.942 493.407 652.569 493.78L649.869 496.5H646.569V488.58ZM651.569 492.44C651.862 492.44 652.069 492.38 652.189 492.26C652.309 492.14 652.369 491.94 652.369 491.66C652.369 491.367 652.309 491.167 652.189 491.06C652.082 490.953 651.876 490.9 651.569 490.9C651.249 490.9 651.029 490.953 650.909 491.06C650.802 491.167 650.749 491.367 650.749 491.66C650.749 491.953 650.809 492.16 650.929 492.28C651.049 492.387 651.262 492.44 651.569 492.44ZM651.904 483.4C652.211 483.4 652.444 483.38 652.604 483.34C652.751 483.287 652.851 483.187 652.904 483.04C652.358 483.093 651.951 483 651.684 482.76C651.404 482.507 651.264 482.133 651.264 481.64C651.264 481.08 651.418 480.68 651.724 480.44C652.018 480.2 652.491 480.08 653.144 480.08C653.824 480.08 654.304 480.207 654.584 480.46C654.851 480.7 654.984 481.113 654.984 481.7C654.984 482.353 654.838 482.84 654.544 483.16C655.144 483.08 655.558 482.88 655.784 482.56C656.011 482.227 656.124 481.707 656.124 481V480.64H658.124V481.06C658.124 481.727 657.984 482.34 657.704 482.9C657.424 483.46 657.018 483.907 656.484 484.24C655.938 484.56 655.284 484.72 654.524 484.72H651.904V483.4ZM653.144 482.26C653.411 482.26 653.591 482.213 653.684 482.12C653.778 482.027 653.824 481.86 653.824 481.62C653.824 481.38 653.778 481.213 653.684 481.12C653.578 481.027 653.398 480.98 653.144 480.98C652.878 480.98 652.698 481.027 652.604 481.12C652.511 481.2 652.464 481.367 652.464 481.62C652.464 481.86 652.511 482.027 652.604 482.12C652.698 482.213 652.878 482.26 653.144 482.26ZM663.644 496.8C661.924 496.8 660.744 496.48 660.104 495.84C659.464 495.187 659.144 494.313 659.144 493.22V492.02C659.144 491.207 659.311 490.627 659.644 490.28C659.991 489.92 660.591 489.74 661.444 489.74C662.298 489.74 662.891 489.9 663.224 490.22C663.558 490.54 663.724 491.047 663.724 491.74C663.724 492.34 663.544 492.78 663.184 493.06C662.838 493.327 662.358 493.46 661.744 493.46V493.74C661.744 494.153 661.898 494.467 662.204 494.68C662.511 494.88 662.991 494.98 663.644 494.98C664.298 494.98 664.798 494.867 665.144 494.64C665.491 494.4 665.664 494.067 665.664 493.64V489.5C665.664 488.793 665.458 488.273 665.044 487.94C664.631 487.607 663.984 487.44 663.104 487.44C662.518 487.44 661.984 487.527 661.504 487.7C661.038 487.873 660.578 488.14 660.124 488.5L659.024 487.04C659.598 486.573 660.258 486.22 661.004 485.98C661.764 485.74 662.584 485.62 663.464 485.62C665.184 485.62 666.431 485.953 667.204 486.62C667.978 487.287 668.364 488.24 668.364 489.48V493.5C668.364 494.033 668.211 494.553 667.904 495.06C667.611 495.553 667.111 495.967 666.404 496.3C665.711 496.633 664.791 496.8 663.644 496.8ZM661.504 492.5C661.811 492.5 662.018 492.447 662.124 492.34C662.244 492.233 662.304 492.04 662.304 491.76C662.304 491.453 662.244 491.247 662.124 491.14C662.018 491.033 661.811 490.98 661.504 490.98C661.198 490.98 660.984 491.033 660.864 491.14C660.758 491.247 660.704 491.453 660.704 491.76C660.704 492.04 660.758 492.233 660.864 492.34C660.984 492.447 661.198 492.5 661.504 492.5ZM669.945 489.34H672.565L674.485 494.68H675.385C675.718 494.68 675.965 494.613 676.125 494.48C676.298 494.333 676.385 494.107 676.385 493.8V489.48C675.798 489.48 675.338 489.327 675.005 489.02C674.671 488.7 674.505 488.233 674.505 487.62C674.505 486.927 674.671 486.42 675.005 486.1C675.338 485.78 675.931 485.62 676.785 485.62C677.638 485.62 678.231 485.8 678.565 486.16C678.911 486.507 679.085 487.087 679.085 487.9V493.2C679.085 494.12 678.878 494.9 678.465 495.54C678.051 496.18 677.205 496.5 675.925 496.5H672.585L669.945 489.34ZM676.725 488.38C677.031 488.38 677.238 488.327 677.345 488.22C677.465 488.113 677.525 487.92 677.525 487.64C677.525 487.333 677.465 487.127 677.345 487.02C677.238 486.913 677.031 486.86 676.725 486.86C676.418 486.86 676.205 486.913 676.085 487.02C675.978 487.127 675.925 487.333 675.925 487.64C675.925 487.92 675.978 488.113 676.085 488.22C676.205 488.327 676.418 488.38 676.725 488.38ZM681.44 492.38C681.44 491.793 681.52 491.313 681.68 490.94C681.853 490.567 682.153 490.253 682.58 490L681.06 489.1V487.54C681.7 486.927 682.446 486.453 683.3 486.12C684.166 485.787 685.106 485.62 686.12 485.62C687.76 485.62 688.993 485.967 689.82 486.66C690.66 487.353 691.08 488.287 691.08 489.46V496.5H688.38V489.34C688.38 488.727 688.186 488.26 687.8 487.94C687.413 487.607 686.846 487.44 686.1 487.44C685.126 487.44 684.3 487.687 683.62 488.18V488.44L685.16 489.4V490.46C684.76 490.62 684.486 490.827 684.34 491.08C684.206 491.333 684.14 491.72 684.14 492.24V496.5H681.44V492.38ZM697.643 489.5C697.643 488.78 697.51 488.26 697.243 487.94C696.977 487.607 696.51 487.44 695.843 487.44C695.043 487.44 694.297 487.76 693.603 488.4L692.523 486.94C693.03 486.487 693.583 486.153 694.183 485.94C694.783 485.727 695.463 485.62 696.223 485.62C697.743 485.62 698.81 485.96 699.423 486.64C700.037 487.32 700.343 488.28 700.343 489.52V496.5H697.643V489.5ZM706.813 496.8C705.96 496.8 705.366 496.64 705.033 496.32C704.7 496 704.533 495.493 704.533 494.8C704.533 494.187 704.7 493.727 705.033 493.42C705.366 493.1 705.826 492.94 706.413 492.94V492.08C706.413 491.733 706.346 491.487 706.213 491.34C706.08 491.18 705.833 491.047 705.473 490.94L702.333 490.02V488.82C702.333 487.7 702.713 486.887 703.473 486.38C704.233 485.873 705.253 485.62 706.533 485.62C707.493 485.62 708.286 485.72 708.913 485.92C709.54 486.107 710.126 486.413 710.673 486.84L709.573 488.32C709.253 488.053 708.866 487.84 708.413 487.68C707.96 487.52 707.46 487.44 706.913 487.44C706.286 487.44 705.813 487.547 705.493 487.76C705.186 487.96 705.033 488.247 705.033 488.62V488.92L707.713 489.7C708.126 489.82 708.433 489.973 708.633 490.16C708.833 490.333 708.96 490.56 709.013 490.84C709.08 491.12 709.113 491.507 709.113 492V494.52C709.113 495.333 708.94 495.92 708.593 496.28C708.26 496.627 707.666 496.8 706.813 496.8ZM706.753 495.56C707.06 495.56 707.266 495.507 707.373 495.4C707.493 495.293 707.553 495.087 707.553 494.78C707.553 494.5 707.493 494.307 707.373 494.2C707.266 494.093 707.06 494.04 706.753 494.04C706.446 494.04 706.233 494.093 706.113 494.2C706.006 494.307 705.953 494.5 705.953 494.78C705.953 495.087 706.006 495.293 706.113 495.4C706.233 495.507 706.446 495.56 706.753 495.56ZM720.911 486.16C720.791 485.813 720.638 485.587 720.451 485.48C720.278 485.36 719.991 485.3 719.591 485.3H719.251V483.56H722.831L725.811 493.08L728.731 483.56H732.351V485.3H732.011C731.598 485.3 731.304 485.36 731.131 485.48C730.958 485.587 730.804 485.813 730.671 486.16L727.091 496.5H724.551L720.911 486.16ZM736.571 496.8C734.971 496.8 733.711 496.38 732.791 495.54C731.884 494.687 731.431 493.44 731.431 491.8C731.431 490.067 731.864 488.767 732.731 487.9C733.597 487.033 734.831 486.6 736.431 486.6C737.977 486.6 739.151 487.033 739.951 487.9C740.764 488.753 741.171 489.913 741.171 491.38V492.32H734.031C734.031 493.253 734.251 493.94 734.691 494.38C735.131 494.807 735.764 495.02 736.591 495.02C737.417 495.02 738.077 494.913 738.571 494.7V494H740.831V495.52C739.817 496.373 738.397 496.8 736.571 496.8ZM738.571 490.82C738.571 489.993 738.391 489.38 738.031 488.98C737.671 488.58 737.124 488.38 736.391 488.38C735.631 488.38 735.044 488.593 734.631 489.02C734.231 489.433 734.031 490.033 734.031 490.82H738.571ZM742.751 494.76H743.271C743.551 494.76 743.751 494.7 743.871 494.58C743.991 494.447 744.051 494.247 744.051 493.98V489.38C744.051 489.127 743.998 488.94 743.891 488.82C743.784 488.7 743.598 488.64 743.331 488.64H742.751V486.9H746.171L746.431 487.96C746.884 487.253 747.698 486.9 748.871 486.9H749.911V488.64H748.551C747.884 488.64 747.404 488.793 747.111 489.1C746.818 489.407 746.671 489.873 746.671 490.5V494.02C746.671 494.273 746.724 494.46 746.831 494.58C746.951 494.7 747.144 494.76 747.411 494.76H747.931V496.5H742.751V494.76ZM752.298 483.34H755.058V485.46H752.298V483.34ZM751.098 494.76H751.618C751.898 494.76 752.098 494.7 752.218 494.58C752.338 494.447 752.398 494.247 752.398 493.98V489.48C752.398 489.187 752.344 488.973 752.238 488.84C752.144 488.707 751.951 488.64 751.658 488.64H751.098V486.9H755.018V494.02C755.018 494.273 755.071 494.46 755.178 494.58C755.298 494.7 755.491 494.76 755.758 494.76H756.278V496.5H751.098V494.76ZM757.677 494.76H758.197C758.477 494.76 758.677 494.7 758.797 494.58C758.917 494.447 758.977 494.247 758.977 493.98V488.64H757.457V486.9H758.977V486.26C758.977 485.167 759.297 484.32 759.937 483.72C760.591 483.107 761.544 482.8 762.797 482.8C764.251 482.8 765.417 483.167 766.297 483.9V485.62H764.037V484.82C763.784 484.607 763.437 484.5 762.997 484.5C762.557 484.5 762.211 484.633 761.957 484.9C761.717 485.167 761.597 485.567 761.597 486.1V486.9H764.337V488.64H761.597V494.02C761.597 494.273 761.651 494.46 761.757 494.58C761.877 494.7 762.071 494.76 762.337 494.76H762.857V496.5H757.677V494.76ZM771.163 500.5C770.31 500.5 769.537 500.38 768.843 500.14C768.15 499.9 767.563 499.553 767.083 499.1V497.6H769.343V498.3C769.543 498.487 769.777 498.613 770.043 498.68C770.323 498.76 770.67 498.8 771.083 498.8C772.31 498.8 772.923 498.08 772.923 496.64V495.56C772.203 496.12 771.343 496.4 770.343 496.4C769.143 496.4 768.197 496.1 767.503 495.5C766.823 494.887 766.483 494.033 766.483 492.94V489.38C766.483 488.887 766.23 488.64 765.723 488.64H765.203V486.9H769.143V493.04C769.143 494.147 769.71 494.7 770.843 494.7C771.43 494.7 771.89 494.533 772.223 494.2C772.57 493.867 772.743 493.387 772.743 492.76V489.38C772.743 488.887 772.49 488.64 771.983 488.64H771.463V486.9H775.423V496.18C775.423 497.487 775.037 498.533 774.263 499.32C773.503 500.107 772.47 500.5 771.163 500.5ZM789.331 496.8C786.344 496.8 784.851 495.527 784.851 492.98V492.16C784.851 491.653 784.951 491.173 785.151 490.72C785.351 490.267 785.638 489.867 786.011 489.52C785.424 489.48 785.011 489.313 784.771 489.02C784.531 488.713 784.411 488.233 784.411 487.58C784.411 486.9 784.571 486.407 784.891 486.1C785.224 485.78 785.818 485.62 786.671 485.62C787.538 485.62 788.131 485.767 788.451 486.06C788.784 486.353 788.951 486.88 788.951 487.64V488.34C788.951 488.62 788.898 488.86 788.791 489.06C788.698 489.26 788.544 489.5 788.331 489.78C788.078 490.113 787.884 490.433 787.751 490.74C787.618 491.033 787.551 491.4 787.551 491.84V493.1C787.551 493.74 787.664 494.213 787.891 494.52C788.118 494.827 788.598 494.98 789.331 494.98C789.838 494.98 790.218 494.907 790.471 494.76C790.738 494.6 790.911 494.393 790.991 494.14C791.071 493.873 791.111 493.527 791.111 493.1V485.92H793.811V492.86C793.811 495.487 792.318 496.8 789.331 496.8ZM786.651 488.38C786.958 488.38 787.164 488.327 787.271 488.22C787.391 488.113 787.451 487.92 787.451 487.64C787.451 487.333 787.391 487.127 787.271 487.02C787.164 486.913 786.958 486.86 786.651 486.86C786.344 486.86 786.131 486.92 786.011 487.04C785.891 487.147 785.831 487.347 785.831 487.64C785.831 487.92 785.891 488.113 786.011 488.22C786.131 488.327 786.344 488.38 786.651 488.38ZM789.17 483.4C789.477 483.4 789.71 483.38 789.87 483.34C790.017 483.287 790.117 483.187 790.17 483.04C789.623 483.093 789.217 483 788.95 482.76C788.67 482.507 788.53 482.133 788.53 481.64C788.53 481.08 788.683 480.68 788.99 480.44C789.283 480.2 789.757 480.08 790.41 480.08C791.09 480.08 791.57 480.207 791.85 480.46C792.117 480.7 792.25 481.113 792.25 481.7C792.25 482.353 792.103 482.84 791.81 483.16C792.41 483.08 792.823 482.88 793.05 482.56C793.277 482.227 793.39 481.707 793.39 481V480.64H795.39V481.06C795.39 481.727 795.25 482.34 794.97 482.9C794.69 483.46 794.283 483.907 793.75 484.24C793.203 484.56 792.55 484.72 791.79 484.72H789.17V483.4ZM790.41 482.26C790.677 482.26 790.857 482.213 790.95 482.12C791.043 482.027 791.09 481.86 791.09 481.62C791.09 481.38 791.043 481.213 790.95 481.12C790.843 481.027 790.663 480.98 790.41 480.98C790.143 480.98 789.963 481.027 789.87 481.12C789.777 481.2 789.73 481.367 789.73 481.62C789.73 481.86 789.777 482.027 789.87 482.12C789.963 482.213 790.143 482.26 790.41 482.26ZM800.91 496.8C799.19 496.8 798.01 496.48 797.37 495.84C796.73 495.187 796.41 494.313 796.41 493.22V492.02C796.41 491.207 796.577 490.627 796.91 490.28C797.257 489.92 797.857 489.74 798.71 489.74C799.563 489.74 800.157 489.9 800.49 490.22C800.823 490.54 800.99 491.047 800.99 491.74C800.99 492.34 800.81 492.78 800.45 493.06C800.103 493.327 799.623 493.46 799.01 493.46V493.74C799.01 494.153 799.163 494.467 799.47 494.68C799.777 494.88 800.257 494.98 800.91 494.98C801.563 494.98 802.063 494.867 802.41 494.64C802.757 494.4 802.93 494.067 802.93 493.64V489.5C802.93 488.793 802.723 488.273 802.31 487.94C801.897 487.607 801.25 487.44 800.37 487.44C799.783 487.44 799.25 487.527 798.77 487.7C798.303 487.873 797.843 488.14 797.39 488.5L796.29 487.04C796.863 486.573 797.523 486.22 798.27 485.98C799.03 485.74 799.85 485.62 800.73 485.62C802.45 485.62 803.697 485.953 804.47 486.62C805.243 487.287 805.63 488.24 805.63 489.48V493.5C805.63 494.033 805.477 494.553 805.17 495.06C804.877 495.553 804.377 495.967 803.67 496.3C802.977 496.633 802.057 496.8 800.91 496.8ZM798.77 492.5C799.077 492.5 799.283 492.447 799.39 492.34C799.51 492.233 799.57 492.04 799.57 491.76C799.57 491.453 799.51 491.247 799.39 491.14C799.283 491.033 799.077 490.98 798.77 490.98C798.463 490.98 798.25 491.033 798.13 491.14C798.023 491.247 797.97 491.453 797.97 491.76C797.97 492.04 798.023 492.233 798.13 492.34C798.25 492.447 798.463 492.5 798.77 492.5ZM810.01 496.8C809.197 496.8 808.617 496.64 808.27 496.32C807.937 496 807.77 495.507 807.77 494.84C807.77 494.173 807.91 493.687 808.19 493.38C808.484 493.073 808.924 492.907 809.51 492.88V489.48C808.924 489.48 808.457 489.327 808.11 489.02C807.777 488.7 807.61 488.233 807.61 487.62C807.61 486.927 807.777 486.42 808.11 486.1C808.444 485.78 809.037 485.62 809.89 485.62C810.757 485.62 811.357 485.8 811.69 486.16C812.037 486.507 812.21 487.087 812.21 487.9V492.96L815.07 494.02V485.92H817.77V496.5H816.21L812.35 495.08C812.31 495.667 812.124 496.1 811.79 496.38C811.457 496.66 810.864 496.8 810.01 496.8ZM809.83 488.38C810.137 488.38 810.344 488.327 810.45 488.22C810.57 488.113 810.63 487.92 810.63 487.64C810.63 487.333 810.57 487.127 810.45 487.02C810.344 486.913 810.137 486.86 809.83 486.86C809.524 486.86 809.31 486.913 809.19 487.02C809.084 487.127 809.03 487.333 809.03 487.64C809.03 487.92 809.084 488.113 809.19 488.22C809.31 488.327 809.524 488.38 809.83 488.38ZM810.11 495.58C810.417 495.58 810.624 495.527 810.73 495.42C810.85 495.3 810.91 495.1 810.91 494.82C810.91 494.527 810.85 494.327 810.73 494.22C810.624 494.113 810.417 494.06 810.11 494.06C809.804 494.06 809.59 494.113 809.47 494.22C809.364 494.327 809.31 494.527 809.31 494.82C809.31 495.113 809.364 495.313 809.47 495.42C809.59 495.527 809.804 495.58 810.11 495.58ZM815.511 502.82C814.671 502.82 814.004 502.66 813.511 502.34C813.018 502.033 812.771 501.567 812.771 500.94V500.82C812.704 500.833 812.604 500.84 812.471 500.84C811.911 500.84 811.484 500.7 811.191 500.42C810.884 500.153 810.731 499.713 810.731 499.1C810.731 498.46 810.898 498 811.231 497.72C811.564 497.453 812.111 497.32 812.871 497.32C813.658 497.32 814.198 497.46 814.491 497.74C814.784 498.033 814.931 498.56 814.931 499.32V500.52C814.931 500.747 814.971 500.9 815.051 500.98C815.131 501.073 815.278 501.12 815.491 501.12C815.718 501.12 815.871 501.073 815.951 500.98C816.031 500.9 816.071 500.747 816.071 500.52V497.44H818.271V500.4C818.271 501.187 818.058 501.787 817.631 502.2C817.204 502.613 816.498 502.82 815.511 502.82ZM812.831 499.86C813.124 499.86 813.331 499.807 813.451 499.7C813.558 499.593 813.611 499.407 813.611 499.14C813.611 498.86 813.558 498.667 813.451 498.56C813.331 498.453 813.124 498.4 812.831 498.4C812.551 498.4 812.351 498.453 812.231 498.56C812.111 498.667 812.051 498.86 812.051 499.14C812.051 499.407 812.111 499.593 812.231 499.7C812.351 499.807 812.551 499.86 812.831 499.86ZM822.511 496.8C821.684 496.8 821.098 496.587 820.751 496.16C820.418 495.72 820.251 495.033 820.251 494.1C820.251 491.3 821.578 489.9 824.231 489.9C824.804 489.9 825.324 489.98 825.791 490.14C826.271 490.287 826.631 490.513 826.871 490.82V489.5C826.871 488.82 826.678 488.307 826.291 487.96C825.918 487.613 825.324 487.44 824.511 487.44C823.324 487.44 822.324 487.807 821.511 488.54L820.411 487.04C821.558 486.093 823.031 485.62 824.831 485.62C826.391 485.62 827.571 485.967 828.371 486.66C829.171 487.353 829.571 488.3 829.571 489.5V496.5H826.951C826.951 495.313 826.864 494.373 826.691 493.68C826.518 492.987 826.238 492.487 825.851 492.18C825.478 491.873 824.964 491.72 824.311 491.72C823.791 491.72 823.391 491.813 823.111 492C822.844 492.187 822.691 492.493 822.651 492.92L822.971 492.9C823.598 492.9 824.058 493.06 824.351 493.38C824.644 493.7 824.791 494.187 824.791 494.84C824.791 495.52 824.624 496.02 824.291 496.34C823.958 496.647 823.364 496.8 822.511 496.8ZM822.571 495.58C822.878 495.58 823.084 495.527 823.191 495.42C823.311 495.3 823.371 495.087 823.371 494.78C823.371 494.5 823.311 494.307 823.191 494.2C823.084 494.093 822.878 494.04 822.571 494.04C822.264 494.04 822.051 494.093 821.931 494.2C821.824 494.307 821.771 494.5 821.771 494.78C821.771 495.073 821.831 495.28 821.951 495.4C822.071 495.52 822.278 495.58 822.571 495.58ZM839.772 496.8C838.198 496.8 837.465 496.227 837.572 495.08L835.572 496.5H833.252V489.48C832.665 489.48 832.198 489.327 831.852 489.02C831.518 488.7 831.352 488.233 831.352 487.62C831.352 486.927 831.518 486.42 831.852 486.1C832.185 485.78 832.778 485.62 833.632 485.62C834.498 485.62 835.098 485.8 835.432 486.16C835.778 486.507 835.952 487.087 835.952 487.9V493.96L838.752 492.08C838.912 491.987 839.018 491.88 839.072 491.76C839.138 491.64 839.172 491.48 839.172 491.28V485.92H841.872V490.94C841.872 491.38 841.792 491.747 841.632 492.04C841.485 492.32 841.205 492.6 840.792 492.88C841.298 492.973 841.658 493.167 841.872 493.46C842.085 493.753 842.192 494.173 842.192 494.72C842.192 495.48 842.018 496.02 841.672 496.34C841.325 496.647 840.692 496.8 839.772 496.8ZM833.572 488.38C833.878 488.38 834.085 488.327 834.192 488.22C834.312 488.113 834.372 487.92 834.372 487.64C834.372 487.333 834.312 487.127 834.192 487.02C834.085 486.913 833.878 486.86 833.572 486.86C833.265 486.86 833.052 486.913 832.932 487.02C832.825 487.127 832.772 487.333 832.772 487.64C832.772 487.92 832.825 488.113 832.932 488.22C833.052 488.327 833.265 488.38 833.572 488.38ZM839.832 495.46C840.138 495.46 840.345 495.407 840.452 495.3C840.572 495.193 840.632 494.993 840.632 494.7C840.632 494.407 840.572 494.207 840.452 494.1C840.345 493.98 840.138 493.92 839.832 493.92C839.525 493.92 839.312 493.98 839.192 494.1C839.085 494.207 839.032 494.407 839.032 494.7C839.032 494.993 839.085 495.193 839.192 495.3C839.312 495.407 839.525 495.46 839.832 495.46ZM832.629 484.72C832.735 483.493 833.229 482.553 834.109 481.9C834.975 481.233 836.075 480.9 837.409 480.9C837.915 480.9 838.409 480.967 838.889 481.1C839.355 481.233 839.735 481.42 840.029 481.66V480.2H842.369V484.72H832.629ZM839.869 483.38C839.709 483.047 839.409 482.8 838.969 482.64C838.529 482.467 838.009 482.38 837.409 482.38C836.822 482.38 836.329 482.467 835.929 482.64C835.515 482.8 835.262 483.047 835.169 483.38H839.869ZM839.069 478.42C839.362 478.42 839.575 478.407 839.709 478.38C839.829 478.353 839.922 478.267 839.989 478.12C839.495 478.16 839.122 478.073 838.869 477.86C838.615 477.633 838.489 477.3 838.489 476.86C838.489 476.353 838.622 475.993 838.889 475.78C839.155 475.567 839.595 475.46 840.209 475.46C840.809 475.46 841.235 475.573 841.489 475.8C841.729 476.027 841.849 476.4 841.849 476.92C841.849 477.453 841.715 477.887 841.449 478.22C841.955 478.167 842.329 477.973 842.569 477.64C842.795 477.307 842.909 476.827 842.909 476.2V475.9H844.689V476.26C844.689 477.207 844.402 477.993 843.829 478.62C843.255 479.247 842.455 479.56 841.429 479.56H839.069V478.42ZM840.189 477.44C840.429 477.44 840.595 477.4 840.689 477.32C840.769 477.227 840.809 477.067 840.809 476.84C840.809 476.613 840.769 476.46 840.689 476.38C840.595 476.3 840.429 476.26 840.189 476.26C839.949 476.26 839.782 476.3 839.689 476.38C839.595 476.46 839.549 476.613 839.549 476.84C839.549 477.067 839.595 477.227 839.689 477.32C839.782 477.4 839.949 477.44 840.189 477.44Z" fill="black"/>
<mask id="path-6-inside-1_1_11085" fill="white">
<path d="M393 562.5H953V632.5H393V562.5Z"/>
</mask>
<path d="M393 562.5H953V632.5H393V562.5Z" fill="white"/>
<path d="M393 562.5V563.5H953V562.5V561.5H393V562.5Z" fill="#CBD5E1" mask="url(#path-6-inside-1_1_11085)"/>
<rect x="502.5" y="579" width="159" height="37" rx="5.5" fill="#6C757D"/>
<rect x="502.5" y="579" width="159" height="37" rx="5.5" stroke="#6C757D"/>
<g clip-path="url(#clip2_1_11085)">
<rect width="42" height="24" transform="translate(561 585.5)" fill="white" fill-opacity="0.01"/>
<path d="M565.176 602.74C563.96 602.74 563.048 602.521 562.44 602.084C561.832 601.647 561.528 601.017 561.528 600.196C561.528 599.78 561.597 599.423 561.736 599.124C561.875 598.815 562.109 598.569 562.44 598.388C561.843 597.961 561.544 597.284 561.544 596.356V595.444C561.544 594.868 561.683 594.452 561.96 594.196C562.237 593.929 562.696 593.796 563.336 593.796C563.965 593.796 564.403 593.919 564.648 594.164C564.904 594.399 565.032 594.777 565.032 595.3C565.032 595.727 564.915 596.079 564.68 596.356C564.456 596.623 564.163 596.756 563.8 596.756C563.565 596.756 563.389 596.745 563.272 596.724C563.272 597.087 563.347 597.353 563.496 597.524C563.656 597.684 563.928 597.764 564.312 597.764H564.936V598.98H564.344C563.587 598.98 563.208 599.38 563.208 600.18C563.208 600.639 563.389 600.98 563.752 601.204C564.115 601.428 564.584 601.54 565.16 601.54C565.8 601.54 566.275 601.396 566.584 601.108C566.904 600.82 567.064 600.372 567.064 599.764V594.036H568.792V599.284C568.792 600.447 568.504 601.316 567.928 601.892C567.352 602.457 566.435 602.74 565.176 602.74ZM563.32 595.972C563.576 595.972 563.752 595.929 563.848 595.844C563.944 595.748 563.992 595.577 563.992 595.332C563.992 595.076 563.944 594.905 563.848 594.82C563.763 594.724 563.587 594.676 563.32 594.676C563.053 594.676 562.872 594.724 562.776 594.82C562.68 594.905 562.632 595.076 562.632 595.332C562.632 595.567 562.68 595.732 562.776 595.828C562.883 595.924 563.064 595.972 563.32 595.972ZM570.905 599.028C570.905 598.58 570.974 598.207 571.113 597.908C571.251 597.599 571.491 597.348 571.833 597.156L570.569 596.404V595.268C571.07 594.799 571.651 594.436 572.313 594.18C572.974 593.924 573.689 593.796 574.457 593.796C575.705 593.796 576.649 594.068 577.289 594.612C577.929 595.145 578.249 595.871 578.249 596.788V602.5H576.521V596.74C576.521 596.164 576.345 595.732 575.993 595.444C575.641 595.145 575.129 594.996 574.457 594.996C573.561 594.996 572.803 595.236 572.185 595.716V595.924L573.481 596.74V597.492C573.15 597.62 572.926 597.796 572.809 598.02C572.691 598.233 572.633 598.559 572.633 598.996V602.5H570.905V599.028ZM582.047 602.74C581.407 602.74 580.964 602.623 580.719 602.388C580.474 602.143 580.351 601.721 580.351 601.124V594.036H582.063V599.78C582.159 599.769 582.287 599.764 582.447 599.764C582.852 599.764 583.167 599.887 583.391 600.132C583.615 600.367 583.727 600.724 583.727 601.204C583.727 601.737 583.599 602.127 583.343 602.372C583.098 602.617 582.666 602.74 582.047 602.74ZM582.079 601.86C582.346 601.86 582.527 601.817 582.623 601.732C582.719 601.636 582.767 601.46 582.767 601.204C582.767 600.959 582.719 600.793 582.623 600.708C582.527 600.612 582.346 600.564 582.079 600.564C581.823 600.564 581.642 600.612 581.535 600.708C581.439 600.804 581.391 600.969 581.391 601.204C581.391 601.46 581.439 601.636 581.535 601.732C581.631 601.817 581.812 601.86 582.079 601.86ZM586.471 602.74C585.863 602.74 585.431 602.575 585.175 602.244C584.919 601.903 584.791 601.385 584.791 600.692C584.791 598.431 585.831 597.3 587.911 597.3C588.423 597.3 588.881 597.385 589.287 597.556C589.692 597.716 589.996 597.961 590.199 598.292V596.852C590.199 596.233 590.039 595.769 589.719 595.46C589.409 595.151 588.903 594.996 588.199 594.996C587.665 594.996 587.191 595.071 586.775 595.22C586.369 595.369 585.991 595.609 585.639 595.94L584.871 594.948C585.745 594.18 586.892 593.796 588.311 593.796C589.505 593.796 590.407 594.068 591.015 594.612C591.623 595.145 591.927 595.881 591.927 596.82V602.5H590.247C590.247 601.54 590.172 600.772 590.023 600.196C589.873 599.609 589.628 599.183 589.287 598.916C588.956 598.639 588.503 598.5 587.927 598.5C587.425 598.5 587.052 598.596 586.807 598.788C586.572 598.969 586.428 599.289 586.375 599.748C586.46 599.737 586.577 599.732 586.727 599.732C587.217 599.732 587.575 599.86 587.799 600.116C588.033 600.361 588.151 600.735 588.151 601.236C588.151 601.759 588.023 602.143 587.767 602.388C587.511 602.623 587.079 602.74 586.471 602.74ZM586.503 601.876C586.769 601.876 586.951 601.828 587.047 601.732C587.143 601.636 587.191 601.46 587.191 601.204C587.191 600.959 587.143 600.793 587.047 600.708C586.951 600.612 586.769 600.564 586.503 600.564C586.247 600.564 586.065 600.612 585.959 600.708C585.863 600.804 585.815 600.969 585.815 601.204C585.815 601.449 585.868 601.625 585.975 601.732C586.081 601.828 586.257 601.876 586.503 601.876ZM584.874 592.916C584.959 591.999 585.349 591.295 586.042 590.804C586.725 590.313 587.578 590.068 588.602 590.068C589.637 590.068 590.501 590.313 591.194 590.804C591.887 591.295 592.271 591.999 592.346 592.916H584.874ZM590.666 591.988C590.57 591.7 590.335 591.476 589.962 591.316C589.589 591.156 589.141 591.076 588.618 591.076C588.095 591.076 587.647 591.156 587.274 591.316C586.89 591.476 586.655 591.7 586.57 591.988H590.666ZM594.442 599.028C594.442 598.58 594.511 598.207 594.65 597.908C594.789 597.599 595.029 597.348 595.37 597.156L594.106 596.404V595.268C594.607 594.799 595.189 594.436 595.85 594.18C596.511 593.924 597.226 593.796 597.994 593.796C599.242 593.796 600.186 594.068 600.826 594.612C601.466 595.145 601.786 595.871 601.786 596.788V602.5H600.058V596.74C600.058 596.164 599.882 595.732 599.53 595.444C599.178 595.145 598.666 594.996 597.994 594.996C597.098 594.996 596.341 595.236 595.722 595.716V595.924L597.018 596.74V597.492C596.687 597.62 596.463 597.796 596.346 598.02C596.229 598.233 596.17 598.559 596.17 598.996V602.5H594.442V599.028Z" fill="white"/>
</g>
<rect x="686.5" y="579" width="157" height="37" rx="5.5" fill="#003366"/>
<rect x="686.5" y="579" width="157" height="37" rx="5.5" stroke="#003366"/>
<g clip-path="url(#clip3_1_11085)">
<rect width="39" height="24" transform="translate(745.5 585.5)" fill="white" fill-opacity="0.01"/>
<path d="M749.676 602.74C748.46 602.74 747.548 602.521 746.94 602.084C746.332 601.647 746.028 601.017 746.028 600.196C746.028 599.78 746.097 599.423 746.236 599.124C746.375 598.815 746.609 598.569 746.94 598.388C746.343 597.961 746.044 597.284 746.044 596.356V595.444C746.044 594.868 746.183 594.452 746.46 594.196C746.737 593.929 747.196 593.796 747.836 593.796C748.465 593.796 748.903 593.919 749.148 594.164C749.404 594.399 749.532 594.777 749.532 595.3C749.532 595.727 749.415 596.079 749.18 596.356C748.956 596.623 748.663 596.756 748.3 596.756C748.065 596.756 747.889 596.745 747.772 596.724C747.772 597.087 747.847 597.353 747.996 597.524C748.156 597.684 748.428 597.764 748.812 597.764H749.436V598.98H748.844C748.087 598.98 747.708 599.38 747.708 600.18C747.708 600.639 747.889 600.98 748.252 601.204C748.615 601.428 749.084 601.54 749.66 601.54C750.3 601.54 750.775 601.396 751.084 601.108C751.404 600.82 751.564 600.372 751.564 599.764V594.036H753.292V599.284C753.292 600.447 753.004 601.316 752.428 601.892C751.852 602.457 750.935 602.74 749.676 602.74ZM747.82 595.972C748.076 595.972 748.252 595.929 748.348 595.844C748.444 595.748 748.492 595.577 748.492 595.332C748.492 595.076 748.444 594.905 748.348 594.82C748.263 594.724 748.087 594.676 747.82 594.676C747.553 594.676 747.372 594.724 747.276 594.82C747.18 594.905 747.132 595.076 747.132 595.332C747.132 595.567 747.18 595.732 747.276 595.828C747.383 595.924 747.564 595.972 747.82 595.972ZM746.237 592.916C746.333 592.031 746.722 591.348 747.405 590.868C748.087 590.388 748.919 590.148 749.901 590.148C750.007 590.148 750.157 590.159 750.349 590.18V589.444H751.709V590.42C751.986 590.537 752.194 590.665 752.333 590.804V589.444H753.693V592.916H746.237ZM752.061 591.988C751.709 591.38 750.994 591.076 749.917 591.076C749.405 591.076 748.967 591.156 748.605 591.316C748.231 591.465 748.002 591.689 747.917 591.988H752.061ZM762.029 602.74C761.485 602.74 761.063 602.649 760.765 602.468C760.466 602.276 760.317 601.951 760.317 601.492C760.317 601.375 760.322 601.284 760.333 601.22L758.525 602.5H756.957V596.756C756.861 596.767 756.738 596.772 756.589 596.772C756.183 596.772 755.869 596.655 755.645 596.42C755.421 596.175 755.309 595.812 755.309 595.332C755.309 594.799 755.431 594.409 755.677 594.164C755.933 593.919 756.37 593.796 756.989 593.796C757.629 593.796 758.071 593.919 758.317 594.164C758.562 594.399 758.685 594.815 758.685 595.412V600.868L761.437 599.012C761.575 598.927 761.666 598.841 761.709 598.756C761.762 598.66 761.789 598.527 761.789 598.356V594.036H763.517V598.34C763.517 598.617 763.442 598.857 763.293 599.06C763.154 599.252 762.898 599.476 762.525 599.732C762.983 599.775 763.309 599.913 763.501 600.148C763.693 600.383 763.789 600.724 763.789 601.172C763.789 601.737 763.655 602.143 763.389 602.388C763.133 602.623 762.679 602.74 762.029 602.74ZM756.957 595.972C757.213 595.972 757.389 595.924 757.485 595.828C757.591 595.732 757.645 595.567 757.645 595.332C757.645 595.076 757.597 594.905 757.501 594.82C757.405 594.724 757.223 594.676 756.957 594.676C756.69 594.676 756.509 594.724 756.413 594.82C756.317 594.905 756.269 595.076 756.269 595.332C756.269 595.577 756.317 595.748 756.413 595.844C756.509 595.929 756.69 595.972 756.957 595.972ZM762.061 601.812C762.327 601.812 762.509 601.769 762.605 601.684C762.701 601.588 762.749 601.412 762.749 601.156C762.749 600.911 762.695 600.74 762.589 600.644C762.493 600.548 762.317 600.5 762.061 600.5C761.805 600.5 761.623 600.548 761.517 600.644C761.421 600.74 761.373 600.911 761.373 601.156C761.373 601.412 761.421 601.588 761.517 601.684C761.623 601.769 761.805 601.812 762.061 601.812ZM768.939 602.74C767.723 602.74 766.811 602.521 766.203 602.084C765.595 601.647 765.291 601.017 765.291 600.196C765.291 599.78 765.36 599.423 765.499 599.124C765.637 598.815 765.872 598.569 766.203 598.388C765.605 597.961 765.307 597.284 765.307 596.356V595.444C765.307 594.868 765.445 594.452 765.723 594.196C766 593.929 766.459 593.796 767.099 593.796C767.728 593.796 768.165 593.919 768.411 594.164C768.667 594.399 768.795 594.777 768.795 595.3C768.795 595.727 768.677 596.079 768.443 596.356C768.219 596.623 767.925 596.756 767.563 596.756C767.328 596.756 767.152 596.745 767.035 596.724C767.035 597.087 767.109 597.353 767.259 597.524C767.419 597.684 767.691 597.764 768.075 597.764H768.699V598.98H768.107C767.349 598.98 766.971 599.38 766.971 600.18C766.971 600.639 767.152 600.98 767.515 601.204C767.877 601.428 768.347 601.54 768.923 601.54C769.563 601.54 770.037 601.396 770.347 601.108C770.667 600.82 770.827 600.372 770.827 599.764V594.036H772.555V599.284C772.555 600.447 772.267 601.316 771.691 601.892C771.115 602.457 770.197 602.74 768.939 602.74ZM767.083 595.972C767.339 595.972 767.515 595.929 767.611 595.844C767.707 595.748 767.755 595.577 767.755 595.332C767.755 595.076 767.707 594.905 767.611 594.82C767.525 594.724 767.349 594.676 767.083 594.676C766.816 594.676 766.635 594.724 766.539 594.82C766.443 594.905 766.395 595.076 766.395 595.332C766.395 595.567 766.443 595.732 766.539 595.828C766.645 595.924 766.827 595.972 767.083 595.972ZM771.771 592.916C770.779 592.916 769.99 592.767 769.403 592.468C768.806 592.159 768.507 591.668 768.507 590.996C768.507 590.452 768.651 590.052 768.939 589.796C769.216 589.529 769.654 589.396 770.251 589.396C770.838 589.396 771.259 589.513 771.515 589.748C771.771 589.972 771.899 590.319 771.899 590.788C771.899 591.14 771.803 591.428 771.611 591.652C771.803 591.684 772.006 591.7 772.219 591.7C772.592 591.7 772.987 591.62 773.403 591.46C773.819 591.3 774.155 591.092 774.411 590.836L775.115 591.764C774.71 592.159 774.235 592.452 773.691 592.644C773.147 592.825 772.507 592.916 771.771 592.916ZM770.219 591.62C770.475 591.62 770.656 591.572 770.763 591.476C770.859 591.38 770.907 591.215 770.907 590.98C770.907 590.724 770.859 590.553 770.763 590.468C770.667 590.372 770.486 590.324 770.219 590.324C769.952 590.324 769.776 590.372 769.691 590.468C769.595 590.553 769.547 590.724 769.547 590.98C769.547 591.225 769.595 591.396 769.691 591.492C769.787 591.577 769.963 591.62 770.219 591.62ZM781.291 602.74C780.747 602.74 780.326 602.649 780.027 602.468C779.728 602.276 779.579 601.951 779.579 601.492C779.579 601.375 779.584 601.284 779.595 601.22L777.787 602.5H776.219V596.756C776.123 596.767 776 596.772 775.851 596.772C775.446 596.772 775.131 596.655 774.907 596.42C774.683 596.175 774.571 595.812 774.571 595.332C774.571 594.799 774.694 594.409 774.939 594.164C775.195 593.919 775.632 593.796 776.251 593.796C776.891 593.796 777.334 593.919 777.579 594.164C777.824 594.399 777.947 594.815 777.947 595.412V600.868L780.699 599.012C780.838 598.927 780.928 598.841 780.971 598.756C781.024 598.66 781.051 598.527 781.051 598.356V594.036H782.779V598.34C782.779 598.617 782.704 598.857 782.555 599.06C782.416 599.252 782.16 599.476 781.787 599.732C782.246 599.775 782.571 599.913 782.763 600.148C782.955 600.383 783.051 600.724 783.051 601.172C783.051 601.737 782.918 602.143 782.651 602.388C782.395 602.623 781.942 602.74 781.291 602.74ZM776.219 595.972C776.475 595.972 776.651 595.924 776.747 595.828C776.854 595.732 776.907 595.567 776.907 595.332C776.907 595.076 776.859 594.905 776.763 594.82C776.667 594.724 776.486 594.676 776.219 594.676C775.952 594.676 775.771 594.724 775.675 594.82C775.579 594.905 775.531 595.076 775.531 595.332C775.531 595.577 775.579 595.748 775.675 595.844C775.771 595.929 775.952 595.972 776.219 595.972ZM781.323 601.812C781.59 601.812 781.771 601.769 781.867 601.684C781.963 601.588 782.011 601.412 782.011 601.156C782.011 600.911 781.958 600.74 781.851 600.644C781.755 600.548 781.579 600.5 781.323 600.5C781.067 600.5 780.886 600.548 780.779 600.644C780.683 600.74 780.635 600.911 780.635 601.156C780.635 601.412 780.683 601.588 780.779 601.684C780.886 601.769 781.067 601.812 781.323 601.812Z" fill="white"/>
</g>
</g>
<rect x="393.5" y="276" width="559" height="359" rx="11.5" stroke="#EEEEEE"/>
<path d="M1525.71 594.707C1526.1 594.317 1526.1 593.683 1525.71 593.293L1519.34 586.929C1518.95 586.538 1518.32 586.538 1517.93 586.929C1517.54 587.319 1517.54 587.953 1517.93 588.343L1523.59 594L1517.93 599.657C1517.54 600.047 1517.54 600.681 1517.93 601.071C1518.32 601.462 1518.95 601.462 1519.34 601.071L1525.71 594.707ZM842 594V595L1525 595V594V593L842 593V594Z" fill="black"/>
<defs>
<clipPath id="clip0_1_11085">
<rect x="393" y="275.5" width="560" height="360" rx="12" fill="white"/>
</clipPath>
<clipPath id="clip1_1_11085">
<rect width="48" height="48" fill="white" transform="translate(649 307.5)"/>
</clipPath>
<clipPath id="clip2_1_11085">
<rect width="42" height="24" fill="white" transform="translate(561 585.5)"/>
</clipPath>
<clipPath id="clip3_1_11085">
<rect width="39" height="24" fill="white" transform="translate(745.5 585.5)"/>
</clipPath>
</defs>
</svg>