<svg width="18" height="17" viewBox="0 0 18 17" fill="none" xmlns="http://www.w3.org/2000/svg">
<path d="M7.83366 12.3337L13.7087 6.45866L12.542 5.29199L7.83366 10.0003L5.45866 7.62533L4.29199 8.79199L7.83366 12.3337ZM9.00033 16.8337C7.84755 16.8337 6.76422 16.6149 5.75033 16.1774C4.73644 15.7399 3.85449 15.1462 3.10449 14.3962C2.35449 13.6462 1.76074 12.7642 1.32324 11.7503C0.885742 10.7364 0.666992 9.6531 0.666992 8.50033C0.666992 7.34755 0.885742 6.26422 1.32324 5.25033C1.76074 4.23644 2.35449 3.35449 3.10449 2.60449C3.85449 1.85449 4.73644 1.26074 5.75033 0.823242C6.76422 0.385742 7.84755 0.166992 9.00033 0.166992C10.1531 0.166992 11.2364 0.385742 12.2503 0.823242C13.2642 1.26074 14.1462 1.85449 14.8962 2.60449C15.6462 3.35449 16.2399 4.23644 16.6774 5.25033C17.1149 6.26422 17.3337 7.34755 17.3337 8.50033C17.3337 9.6531 17.1149 10.7364 16.6774 11.7503C16.2399 12.7642 15.6462 13.6462 14.8962 14.3962C14.1462 15.1462 13.2642 15.7399 12.2503 16.1774C11.2364 16.6149 10.1531 16.8337 9.00033 16.8337ZM9.00033 15.167C10.8614 15.167 12.4378 14.5212 13.7295 13.2295C15.0212 11.9378 15.667 10.3614 15.667 8.50033C15.667 6.63922 15.0212 5.06283 13.7295 3.77116C12.4378 2.47949 10.8614 1.83366 9.00033 1.83366C7.13922 1.83366 5.56283 2.47949 4.27116 3.77116C2.97949 5.06283 2.33366 6.63922 2.33366 8.50033C2.33366 10.3614 2.97949 11.9378 4.27116 13.2295C5.56283 14.5212 7.13922 15.167 9.00033 15.167Z" fill="#333333"/>
</svg>
