<svg width="192" height="120" viewBox="0 0 192 120" fill="none" xmlns="http://www.w3.org/2000/svg">
<rect x="15" y="43.3105" width="175" height="55" rx="27.5" stroke="#E7070E" stroke-width="4"/>
<mask id="path-2-inside-1_6311_44149" fill="white">
<path d="M17 70.8105C17 56.7273 28.4167 45.3105 42.5 45.3105H162.5C176.583 45.3105 188 56.7273 188 70.8105V70.8105C188 84.8938 176.583 96.3105 162.5 96.3105H42.5C28.4167 96.3105 17 84.8938 17 70.8105V70.8105Z"/>
</mask>
<path d="M17 70.8105C17 56.7273 28.4167 45.3105 42.5 45.3105H162.5C176.583 45.3105 188 56.7273 188 70.8105V70.8105C188 84.8938 176.583 96.3105 162.5 96.3105H42.5C28.4167 96.3105 17 84.8938 17 70.8105V70.8105Z" fill="#F9060F"/>
<path d="M17 45.3105H188H17ZM188 70.8105C188 85.9984 175.688 98.3105 160.5 98.3105H44.5C29.3122 98.3105 17 85.9984 17 70.8105C17 83.7892 28.4167 94.3105 42.5 94.3105H162.5C176.583 94.3105 188 83.7892 188 70.8105ZM17 96.3105V45.3105V96.3105ZM188 45.3105V96.3105V45.3105Z" fill="#F2888C" mask="url(#path-2-inside-1_6311_44149)"/>
<mask id="path-4-inside-2_6311_44149" fill="white">
<path d="M17 70.8105C17 56.7273 28.4167 45.3105 42.5 45.3105H162.5C176.583 45.3105 188 56.7273 188 70.8105C188 84.8938 176.583 96.3105 162.5 96.3105H42.5C28.4167 96.3105 17 84.8938 17 70.8105Z"/>
</mask>
<path d="M17 45.3105H188H17ZM188 70.8105C188 87.1029 174.792 100.311 158.5 100.311H46.5C30.2076 100.311 17 87.1029 17 70.8105C17 82.6847 28.4167 92.3105 42.5 92.3105H162.5C176.583 92.3105 188 82.6847 188 70.8105ZM17 96.3105V45.3105V96.3105ZM188 45.3105V96.3105V45.3105Z" fill="black" fill-opacity="0.05" mask="url(#path-4-inside-2_6311_44149)"/>
<g filter="url(#filter0_df_6311_44149)">
<path d="M44.0185 71.948C39.7887 77.5073 39.304 81.5504 35.1345 78.3781C30.965 75.2057 31.0138 68.1273 35.2436 62.568C39.4734 57.0087 46.2824 55.0736 50.4519 58.246C54.6214 61.4183 48.2483 66.3887 44.0185 71.948Z" fill="white"/>
</g>
<g filter="url(#filter1_dd_6311_44149)">
<mask id="path-7-outside-3_6311_44149" maskUnits="userSpaceOnUse" x="31" y="52.3105" width="146" height="35" fill="black">
<rect fill="white" x="31" y="52.3105" width="146" height="35"/>
<path d="M62.0783 78.7345L61.2783 83.3105H55.3263C54.7823 83.3105 54.2703 83.1825 53.8863 82.8625L50.3983 80.0785C49.8223 79.5985 49.5023 78.8305 49.6623 77.9665L52.0623 64.3665H61.1823L58.9103 77.2945C58.7503 78.1265 59.2943 78.7345 60.0943 78.7345H62.0783ZM48.1903 78.7345L47.3903 83.3105H41.6623C41.1183 83.3105 40.6063 83.1825 40.2223 82.8625L36.7343 80.0785C36.1583 79.5985 35.8383 78.8305 35.9983 77.9665L38.3983 64.3665H47.5183L45.2463 77.2945C45.0863 78.1265 45.6303 78.7345 46.4303 78.7345H48.1903ZM85.2365 64.4945H93.5885L90.8365 80.2065C90.7085 80.8465 90.3245 81.4865 89.7165 81.7745L87.5725 83.0545C87.2205 83.2145 86.9005 83.3105 86.5485 83.3105H81.8445L78.8365 72.9745L72.1485 83.3105H66.9965C64.9805 83.3105 63.6365 81.7105 63.9885 79.6945L66.7085 64.3665H75.4765L74.3565 70.6705C74.2925 70.9905 74.2285 71.3105 74.1325 71.6305L72.9165 75.3745L79.0605 66.0625H81.1085L83.9245 75.2785L84.0525 71.6305C84.0845 71.3105 84.0845 70.9905 84.1485 70.6385L85.2365 64.4945ZM84.195 58.9905H95.715L95.395 60.7185L92.131 62.7345C91.683 63.0545 91.139 63.1825 90.627 63.1825H77.859L78.723 61.2305H73.859L74.179 59.3745L77.443 57.3265C77.923 57.0705 78.435 56.8785 78.979 56.8785H85.091L84.195 58.9905ZM120.547 78.7345L119.747 83.3105H113.795C113.251 83.3105 112.739 83.1825 112.355 82.8625L108.867 80.0785C108.291 79.5985 107.971 78.8305 108.131 77.9665L110.531 64.3665H119.651L117.379 77.2945C117.219 78.1265 117.763 78.7345 118.563 78.7345H120.547ZM106.659 78.7345L105.859 83.3105H100.131C99.587 83.3105 99.075 83.1825 98.691 82.8625L95.203 80.0785C94.627 79.5985 94.307 78.8305 94.467 77.9665L96.867 64.3665H105.987L103.715 77.2945C103.555 78.1265 104.099 78.7345 104.899 78.7345H106.659ZM146.681 64.3665C148.697 64.3665 150.009 65.9665 149.657 67.9825L146.969 83.3105H137.849L139.225 75.3745H131.737L131.417 77.2945C131.257 78.1265 131.801 78.7345 132.601 78.7345H135.641L134.841 83.3105H127.257C126.777 83.3105 126.297 83.1825 125.913 82.8625L122.937 80.8145C122.265 80.3665 122.041 79.5025 122.201 78.6385L122.969 74.3505C123.065 73.7105 123.513 73.1345 124.121 72.7825L126.233 71.5665C126.521 71.3425 126.905 71.2465 127.289 71.2465H139.961L140.121 70.3505C140.249 69.5505 139.737 68.9425 138.937 68.9425H125.017L125.817 64.3665H146.681ZM140.851 58.9905H152.371L152.051 60.7185L148.787 62.7345C148.339 63.0545 147.795 63.1825 147.283 63.1825H134.515L135.379 61.2305H130.515L130.835 59.3745L134.099 57.3265C134.579 57.0705 135.091 56.8785 135.635 56.8785H141.747L140.851 58.9905ZM169.747 64.3665C171.763 64.3665 173.075 65.9665 172.723 67.9825L170.995 77.7425C170.835 78.6385 170.291 79.3745 169.523 79.8545L164.723 82.8625C164.243 83.1825 163.731 83.3105 163.219 83.3105H151.635L152.435 78.7345H160.275C161.011 78.7345 161.779 78.1265 161.939 77.2945L163.155 70.3505C163.283 69.5505 162.739 68.9425 162.003 68.9425H151.827L152.627 64.3665H169.747Z"/>
</mask>
<path d="M62.0783 78.7345L61.2783 83.3105H55.3263C54.7823 83.3105 54.2703 83.1825 53.8863 82.8625L50.3983 80.0785C49.8223 79.5985 49.5023 78.8305 49.6623 77.9665L52.0623 64.3665H61.1823L58.9103 77.2945C58.7503 78.1265 59.2943 78.7345 60.0943 78.7345H62.0783ZM48.1903 78.7345L47.3903 83.3105H41.6623C41.1183 83.3105 40.6063 83.1825 40.2223 82.8625L36.7343 80.0785C36.1583 79.5985 35.8383 78.8305 35.9983 77.9665L38.3983 64.3665H47.5183L45.2463 77.2945C45.0863 78.1265 45.6303 78.7345 46.4303 78.7345H48.1903ZM85.2365 64.4945H93.5885L90.8365 80.2065C90.7085 80.8465 90.3245 81.4865 89.7165 81.7745L87.5725 83.0545C87.2205 83.2145 86.9005 83.3105 86.5485 83.3105H81.8445L78.8365 72.9745L72.1485 83.3105H66.9965C64.9805 83.3105 63.6365 81.7105 63.9885 79.6945L66.7085 64.3665H75.4765L74.3565 70.6705C74.2925 70.9905 74.2285 71.3105 74.1325 71.6305L72.9165 75.3745L79.0605 66.0625H81.1085L83.9245 75.2785L84.0525 71.6305C84.0845 71.3105 84.0845 70.9905 84.1485 70.6385L85.2365 64.4945ZM84.195 58.9905H95.715L95.395 60.7185L92.131 62.7345C91.683 63.0545 91.139 63.1825 90.627 63.1825H77.859L78.723 61.2305H73.859L74.179 59.3745L77.443 57.3265C77.923 57.0705 78.435 56.8785 78.979 56.8785H85.091L84.195 58.9905ZM120.547 78.7345L119.747 83.3105H113.795C113.251 83.3105 112.739 83.1825 112.355 82.8625L108.867 80.0785C108.291 79.5985 107.971 78.8305 108.131 77.9665L110.531 64.3665H119.651L117.379 77.2945C117.219 78.1265 117.763 78.7345 118.563 78.7345H120.547ZM106.659 78.7345L105.859 83.3105H100.131C99.587 83.3105 99.075 83.1825 98.691 82.8625L95.203 80.0785C94.627 79.5985 94.307 78.8305 94.467 77.9665L96.867 64.3665H105.987L103.715 77.2945C103.555 78.1265 104.099 78.7345 104.899 78.7345H106.659ZM146.681 64.3665C148.697 64.3665 150.009 65.9665 149.657 67.9825L146.969 83.3105H137.849L139.225 75.3745H131.737L131.417 77.2945C131.257 78.1265 131.801 78.7345 132.601 78.7345H135.641L134.841 83.3105H127.257C126.777 83.3105 126.297 83.1825 125.913 82.8625L122.937 80.8145C122.265 80.3665 122.041 79.5025 122.201 78.6385L122.969 74.3505C123.065 73.7105 123.513 73.1345 124.121 72.7825L126.233 71.5665C126.521 71.3425 126.905 71.2465 127.289 71.2465H139.961L140.121 70.3505C140.249 69.5505 139.737 68.9425 138.937 68.9425H125.017L125.817 64.3665H146.681ZM140.851 58.9905H152.371L152.051 60.7185L148.787 62.7345C148.339 63.0545 147.795 63.1825 147.283 63.1825H134.515L135.379 61.2305H130.515L130.835 59.3745L134.099 57.3265C134.579 57.0705 135.091 56.8785 135.635 56.8785H141.747L140.851 58.9905ZM169.747 64.3665C171.763 64.3665 173.075 65.9665 172.723 67.9825L170.995 77.7425C170.835 78.6385 170.291 79.3745 169.523 79.8545L164.723 82.8625C164.243 83.1825 163.731 83.3105 163.219 83.3105H151.635L152.435 78.7345H160.275C161.011 78.7345 161.779 78.1265 161.939 77.2945L163.155 70.3505C163.283 69.5505 162.739 68.9425 162.003 68.9425H151.827L152.627 64.3665H169.747Z" fill="url(#paint0_linear_6311_44149)"/>
<path d="M62.0783 78.7345L66.0185 79.4234L66.8382 74.7345H62.0783V78.7345ZM61.2783 83.3105V87.3105H64.6396L65.2185 83.9994L61.2783 83.3105ZM53.8863 82.8625L56.447 79.7897L56.4145 79.7626L56.3815 79.7363L53.8863 82.8625ZM50.3983 80.0785L47.8375 83.1514L47.87 83.1785L47.903 83.2048L50.3983 80.0785ZM49.6623 77.9665L53.5954 78.6949L53.5985 78.6783L53.6014 78.6617L49.6623 77.9665ZM52.0623 64.3665V60.3665H48.7063L48.1231 63.6714L52.0623 64.3665ZM61.1823 64.3665L65.1219 65.0589L65.9465 60.3665H61.1823V64.3665ZM58.9103 77.2945L62.8383 78.0499L62.8443 78.0185L62.8499 77.9869L58.9103 77.2945ZM48.1903 78.7345L52.1305 79.4234L52.9502 74.7345H48.1903V78.7345ZM47.3903 83.3105V87.3105H50.7516L51.3305 83.9994L47.3903 83.3105ZM40.2223 82.8625L42.783 79.7897L42.7505 79.7626L42.7175 79.7363L40.2223 82.8625ZM36.7343 80.0785L34.1735 83.1514L34.206 83.1785L34.239 83.2048L36.7343 80.0785ZM35.9983 77.9665L39.9314 78.6949L39.9345 78.6783L39.9374 78.6617L35.9983 77.9665ZM38.3983 64.3665V60.3665H35.0423L34.4591 63.6714L38.3983 64.3665ZM47.5183 64.3665L51.4579 65.0589L52.2825 60.3665H47.5183V64.3665ZM45.2463 77.2945L49.1743 78.0499L49.1803 78.0185L49.1859 77.9869L45.2463 77.2945ZM58.138 78.0457L57.338 82.6217L65.2185 83.9994L66.0185 79.4234L58.138 78.0457ZM61.2783 79.3105H55.3263V87.3105H61.2783V79.3105ZM55.3263 79.3105C55.3468 79.3105 55.8709 79.3096 56.447 79.7897L51.3255 85.9354C52.6696 87.0555 54.2177 87.3105 55.3263 87.3105V79.3105ZM56.3815 79.7363L52.8935 76.9523L47.903 83.2048L51.391 85.9888L56.3815 79.7363ZM52.959 77.0057C53.1983 77.2051 53.3937 77.4731 53.5098 77.7895C53.6289 78.1144 53.6437 78.4342 53.5954 78.6949L45.7291 77.2382C45.3002 79.5543 46.1742 81.7654 47.8375 83.1514L52.959 77.0057ZM53.6014 78.6617L56.0014 65.0617L48.1231 63.6714L45.7231 77.2714L53.6014 78.6617ZM52.0623 68.3665H61.1823V60.3665H52.0623V68.3665ZM57.2426 63.6742L54.9706 76.6022L62.8499 77.9869L65.1219 65.0589L57.2426 63.6742ZM54.9822 76.5392C54.7016 77.9983 55.001 79.6211 56.0851 80.906C57.1528 82.1715 58.6657 82.7345 60.0943 82.7345V74.7345C60.7228 74.7345 61.5637 74.9936 62.1994 75.7471C62.8516 76.52 62.9589 77.4228 62.8383 78.0499L54.9822 76.5392ZM60.0943 82.7345H62.0783V74.7345H60.0943V82.7345ZM44.25 78.0457L43.45 82.6217L51.3305 83.9994L52.1305 79.4234L44.25 78.0457ZM47.3903 79.3105H41.6623V87.3105H47.3903V79.3105ZM41.6623 79.3105C41.6828 79.3105 42.2069 79.3096 42.783 79.7897L37.6615 85.9354C39.0056 87.0555 40.5537 87.3105 41.6623 87.3105V79.3105ZM42.7175 79.7363L39.2295 76.9523L34.239 83.2048L37.727 85.9888L42.7175 79.7363ZM39.295 77.0057C39.5343 77.2051 39.7297 77.4731 39.8458 77.7895C39.9649 78.1144 39.9797 78.4342 39.9314 78.6949L32.0651 77.2382C31.6362 79.5543 32.5102 81.7654 34.1735 83.1514L39.295 77.0057ZM39.9374 78.6617L42.3374 65.0617L34.4591 63.6714L32.0591 77.2714L39.9374 78.6617ZM38.3983 68.3665H47.5183V60.3665H38.3983V68.3665ZM43.5786 63.6742L41.3066 76.6022L49.1859 77.9869L51.4579 65.0589L43.5786 63.6742ZM41.3182 76.5392C41.0376 77.9983 41.337 79.6211 42.4211 80.906C43.4888 82.1715 45.0017 82.7345 46.4303 82.7345V74.7345C47.0588 74.7345 47.8997 74.9936 48.5354 75.7471C49.1875 76.52 49.2949 77.4228 49.1743 78.0499L41.3182 76.5392ZM46.4303 82.7345H48.1903V74.7345H46.4303V82.7345ZM85.2365 64.4945V60.4945H81.8826L81.2978 63.7971L85.2365 64.4945ZM93.5885 64.4945L97.5285 65.1847L98.35 60.4945H93.5885V64.4945ZM90.8365 80.2065L94.7588 80.991L94.7682 80.9439L94.7765 80.8967L90.8365 80.2065ZM89.7165 81.7745L88.0042 78.1596L87.8308 78.2417L87.6661 78.3401L89.7165 81.7745ZM87.5725 83.0545L89.2277 86.696L89.4311 86.6036L89.6229 86.489L87.5725 83.0545ZM81.8445 83.3105L78.0038 84.4283L78.8426 87.3105H81.8445V83.3105ZM78.8365 72.9745L82.6772 71.8568L80.232 63.4548L75.4782 70.8015L78.8365 72.9745ZM72.1485 83.3105V87.3105H74.3246L75.5068 85.4836L72.1485 83.3105ZM63.9885 79.6945L60.05 78.9957L60.0481 79.0065L63.9885 79.6945ZM66.7085 64.3665V60.3665H63.3558L62.77 63.6677L66.7085 64.3665ZM75.4765 64.3665L79.4148 65.0662L80.2498 60.3665H75.4765V64.3665ZM74.3565 70.6705L78.2788 71.455L78.2873 71.4127L78.2948 71.3702L74.3565 70.6705ZM74.1325 71.6305L77.9369 72.8662L77.9508 72.8232L77.9638 72.7799L74.1325 71.6305ZM72.9165 75.3745L69.1121 74.1389L76.2553 77.5774L72.9165 75.3745ZM79.0605 66.0625V62.0625H76.9075L75.7217 63.8597L79.0605 66.0625ZM81.1085 66.0625L84.9339 64.8937L84.0688 62.0625H81.1085V66.0625ZM83.9245 75.2785L80.0991 76.4474L87.922 75.4188L83.9245 75.2785ZM84.0525 71.6305L80.0724 71.2325L80.0595 71.3611L80.055 71.4903L84.0525 71.6305ZM84.1485 70.6385L88.084 71.3541L88.0856 71.3451L88.0872 71.336L84.1485 70.6385ZM85.2365 68.4945H93.5885V60.4945H85.2365V68.4945ZM89.6485 63.8044L86.8965 79.5164L94.7765 80.8967L97.5285 65.1847L89.6485 63.8044ZM86.9142 79.4221C86.9469 79.2586 87.0137 79.0717 87.1506 78.8707C87.2909 78.6647 87.5584 78.3707 88.0042 78.1596L91.4288 85.3895C93.5068 84.4052 94.4637 82.4664 94.7588 80.991L86.9142 79.4221ZM87.6661 78.3401L85.5221 79.6201L89.6229 86.489L91.7669 85.209L87.6661 78.3401ZM85.9173 79.4131C85.8773 79.4312 85.9306 79.4036 86.0471 79.3731C86.1758 79.3393 86.3489 79.3105 86.5485 79.3105V87.3105C87.6821 87.3105 88.5897 86.986 89.2277 86.696L85.9173 79.4131ZM86.5485 79.3105H81.8445V87.3105H86.5485V79.3105ZM85.6852 82.1928L82.6772 71.8568L74.9958 74.0923L78.0038 84.4283L85.6852 82.1928ZM75.4782 70.8015L68.7902 81.1375L75.5068 85.4836L82.1948 75.1476L75.4782 70.8015ZM72.1485 79.3105H66.9965V87.3105H72.1485V79.3105ZM66.9965 79.3105C67.0821 79.3105 67.4024 79.3682 67.6758 79.696C67.9484 80.0227 67.9376 80.3327 67.9289 80.3826L60.0481 79.0065C59.6874 81.0724 60.1726 83.1904 61.5332 84.8211C62.8946 86.4529 64.895 87.3105 66.9965 87.3105V79.3105ZM67.927 80.3934L70.647 65.0654L62.77 63.6677L60.05 78.9957L67.927 80.3934ZM66.7085 68.3665H75.4765V60.3665H66.7085V68.3665ZM71.5382 63.6668L70.4182 69.9708L78.2948 71.3702L79.4148 65.0662L71.5382 63.6668ZM70.4342 69.8861C70.3646 70.2338 70.3344 70.3705 70.3012 70.4812L77.9638 72.7799C78.1226 72.2506 78.2204 71.7473 78.2788 71.455L70.4342 69.8861ZM70.3281 70.3949L69.1121 74.1389L76.7209 76.6102L77.9369 72.8662L70.3281 70.3949ZM76.2553 77.5774L82.3993 68.2654L75.7217 63.8597L69.5777 73.1717L76.2553 77.5774ZM79.0605 70.0625H81.1085V62.0625H79.0605V70.0625ZM77.2831 67.2314L80.0991 76.4474L87.7499 74.1097L84.9339 64.8937L77.2831 67.2314ZM87.922 75.4188L88.05 71.7708L80.055 71.4903L79.927 75.1383L87.922 75.4188ZM88.0326 72.0286C88.0469 71.8862 88.0562 71.7573 88.0627 71.6627C88.0709 71.5428 88.0724 71.5123 88.0778 71.4384C88.0859 71.3289 88.0894 71.3241 88.084 71.3541L80.213 69.923C80.1436 70.305 80.1151 70.6362 80.0992 70.8546C80.0779 71.1454 80.0817 71.1386 80.0724 71.2325L88.0326 72.0286ZM88.0872 71.336L89.1752 65.192L81.2978 63.7971L80.2098 69.9411L88.0872 71.336ZM84.195 58.9905L80.5127 57.4283L78.153 62.9905H84.195V58.9905ZM95.715 58.9905L99.6481 59.7189L100.524 54.9905H95.715V58.9905ZM95.395 60.7185L97.497 64.1217L99.0053 63.1901L99.3281 61.4469L95.395 60.7185ZM92.131 62.7345L90.029 59.3314L89.9151 59.4017L89.806 59.4796L92.131 62.7345ZM77.859 63.1825L74.2013 61.5636L71.7142 67.1825H77.859V63.1825ZM78.723 61.2305L82.3807 62.8495L84.8678 57.2305H78.723V61.2305ZM73.859 61.2305L69.9172 60.5509L69.1103 65.2305H73.859V61.2305ZM74.179 59.3745L72.053 55.9863L70.5405 56.9353L70.2372 58.6949L74.179 59.3745ZM77.443 57.3265L75.5606 53.7971L75.4364 53.8634L75.317 53.9383L77.443 57.3265ZM85.091 56.8785L88.7733 58.4407L91.133 52.8785H85.091V56.8785ZM84.195 62.9905H95.715V54.9905H84.195V62.9905ZM91.7819 58.2622L91.4619 59.9902L99.3281 61.4469L99.6481 59.7189L91.7819 58.2622ZM93.293 57.3154L90.029 59.3314L94.233 66.1377L97.497 64.1217L93.293 57.3154ZM89.806 59.4796C90.1911 59.2046 90.5179 59.1825 90.627 59.1825V67.1825C91.7601 67.1825 93.1749 66.9045 94.456 65.9895L89.806 59.4796ZM90.627 59.1825H77.859V67.1825H90.627V59.1825ZM81.5167 64.8015L82.3807 62.8495L75.0653 59.6116L74.2013 61.5636L81.5167 64.8015ZM78.723 57.2305H73.859V65.2305H78.723V57.2305ZM77.8008 61.9102L78.1208 60.0542L70.2372 58.6949L69.9172 60.5509L77.8008 61.9102ZM76.305 62.7628L79.569 60.7148L75.317 53.9383L72.053 55.9863L76.305 62.7628ZM79.3254 60.856C79.4178 60.8066 79.4299 60.8089 79.3801 60.8245C79.3236 60.8421 79.1822 60.8785 78.979 60.8785V52.8785C77.4971 52.8785 76.3067 53.3992 75.5606 53.7971L79.3254 60.856ZM78.979 60.8785H85.091V52.8785H78.979V60.8785ZM81.4087 55.3163L80.5127 57.4283L87.8773 60.5527L88.7733 58.4407L81.4087 55.3163ZM120.547 78.7345L124.487 79.4234L125.307 74.7345H120.547V78.7345ZM119.747 83.3105V87.3105H123.108L123.687 83.9994L119.747 83.3105ZM112.355 82.8625L114.916 79.7897L114.883 79.7626L114.85 79.7363L112.355 82.8625ZM108.867 80.0785L106.306 83.1514L106.339 83.1785L106.372 83.2048L108.867 80.0785ZM108.131 77.9665L112.064 78.6949L112.067 78.6783L112.07 78.6617L108.131 77.9665ZM110.531 64.3665V60.3665H107.175L106.592 63.6714L110.531 64.3665ZM119.651 64.3665L123.591 65.0589L124.415 60.3665H119.651V64.3665ZM117.379 77.2945L121.307 78.0499L121.313 78.0185L121.319 77.9869L117.379 77.2945ZM106.659 78.7345L110.599 79.4234L111.419 74.7345H106.659V78.7345ZM105.859 83.3105V87.3105H109.22L109.799 83.9994L105.859 83.3105ZM98.691 82.8625L101.252 79.7897L101.219 79.7626L101.186 79.7363L98.691 82.8625ZM95.203 80.0785L92.6423 83.1514L92.6747 83.1785L92.7077 83.2048L95.203 80.0785ZM94.467 77.9665L98.4001 78.6949L98.4032 78.6783L98.4061 78.6617L94.467 77.9665ZM96.867 64.3665V60.3665H93.5111L92.9279 63.6714L96.867 64.3665ZM105.987 64.3665L109.927 65.0589L110.751 60.3665H105.987V64.3665ZM103.715 77.2945L107.643 78.0499L107.649 78.0185L107.655 77.9869L103.715 77.2945ZM116.607 78.0457L115.807 82.6217L123.687 83.9994L124.487 79.4234L116.607 78.0457ZM119.747 79.3105H113.795V87.3105H119.747V79.3105ZM113.795 79.3105C113.816 79.3105 114.34 79.3096 114.916 79.7897L109.794 85.9354C111.138 87.0555 112.686 87.3105 113.795 87.3105V79.3105ZM114.85 79.7363L111.362 76.9523L106.372 83.2048L109.86 85.9888L114.85 79.7363ZM111.428 77.0057C111.667 77.2051 111.862 77.4731 111.979 77.7895C112.098 78.1144 112.112 78.4342 112.064 78.6949L104.198 77.2382C103.769 79.5543 104.643 81.7654 106.306 83.1514L111.428 77.0057ZM112.07 78.6617L114.47 65.0617L106.592 63.6714L104.192 77.2714L112.07 78.6617ZM110.531 68.3665H119.651V60.3665H110.531V68.3665ZM115.711 63.6742L113.439 76.6022L121.319 77.9869L123.591 65.0589L115.711 63.6742ZM113.451 76.5392C113.17 77.9983 113.47 79.6211 114.554 80.906C115.622 82.1715 117.134 82.7345 118.563 82.7345V74.7345C119.192 74.7345 120.032 74.9936 120.668 75.7471C121.32 76.52 121.428 77.4228 121.307 78.0499L113.451 76.5392ZM118.563 82.7345H120.547V74.7345H118.563V82.7345ZM102.719 78.0457L101.919 82.6217L109.799 83.9994L110.599 79.4234L102.719 78.0457ZM105.859 79.3105H100.131V87.3105H105.859V79.3105ZM100.131 79.3105C100.152 79.3105 100.676 79.3096 101.252 79.7897L96.1303 85.9354C97.4743 87.0555 99.0224 87.3105 100.131 87.3105V79.3105ZM101.186 79.7363L97.6983 76.9523L92.7077 83.2048L96.1957 85.9888L101.186 79.7363ZM97.7637 77.0057C98.003 77.2051 98.1985 77.4731 98.3145 77.7895C98.4336 78.1144 98.4484 78.4342 98.4001 78.6949L90.5339 77.2382C90.105 79.5543 90.979 81.7654 92.6423 83.1514L97.7637 77.0057ZM98.4061 78.6617L100.806 65.0617L92.9279 63.6714L90.5279 77.2714L98.4061 78.6617ZM96.867 68.3665H105.987V60.3665H96.867V68.3665ZM102.047 63.6742L99.7754 76.6022L107.655 77.9869L109.927 65.0589L102.047 63.6742ZM99.787 76.5392C99.5064 77.9983 99.8057 79.6211 100.89 80.906C101.958 82.1715 103.47 82.7345 104.899 82.7345V74.7345C105.528 74.7345 106.368 74.9936 107.004 75.7471C107.656 76.52 107.764 77.4228 107.643 78.0499L99.787 76.5392ZM104.899 82.7345H106.659V74.7345H104.899V82.7345ZM149.657 67.9825L153.597 68.6735L153.598 68.6705L149.657 67.9825ZM146.969 83.3105V87.3105H150.329L150.909 84.0015L146.969 83.3105ZM137.849 83.3105L133.908 82.6272L133.096 87.3105H137.849V83.3105ZM139.225 75.3745L143.166 76.0579L143.978 71.3745H139.225V75.3745ZM131.737 75.3745V71.3745H128.349L127.792 74.717L131.737 75.3745ZM131.417 77.2945L135.345 78.0499L135.355 78.0011L135.363 77.9521L131.417 77.2945ZM135.641 78.7345L139.581 79.4234L140.401 74.7345H135.641V78.7345ZM134.841 83.3105V87.3105H138.203L138.781 83.9994L134.841 83.3105ZM125.913 82.8625L128.474 79.7897L128.333 79.6718L128.181 79.5674L125.913 82.8625ZM122.937 80.8145L125.205 77.5194L125.181 77.5027L125.156 77.4863L122.937 80.8145ZM122.201 78.6385L126.134 79.3669L126.137 79.3553L126.139 79.3437L122.201 78.6385ZM122.969 74.3505L126.907 75.0557L126.917 75L126.925 74.9439L122.969 74.3505ZM124.121 72.7825L122.125 69.316L122.117 69.3208L124.121 72.7825ZM126.233 71.5665L128.229 75.033L128.47 74.8945L128.689 74.724L126.233 71.5665ZM139.961 71.2465V75.2465H143.31L143.899 71.9497L139.961 71.2465ZM140.121 70.3505L144.059 71.0537L144.065 71.0182L144.071 70.9825L140.121 70.3505ZM125.017 68.9425L121.077 68.2537L120.257 72.9425H125.017V68.9425ZM125.817 64.3665V60.3665H122.456L121.877 63.6777L125.817 64.3665ZM146.681 68.3665C146.591 68.3665 146.251 68.3041 145.967 67.9587C145.841 67.8052 145.769 67.644 145.737 67.5087C145.721 67.4431 145.715 67.3897 145.714 67.3518C145.713 67.314 145.717 67.2944 145.717 67.2945L153.598 68.6705C153.954 66.6319 153.496 64.5196 152.147 62.8784C150.791 61.229 148.788 60.3665 146.681 60.3665V68.3665ZM145.717 67.2916L143.029 82.6196L150.909 84.0015L153.597 68.6735L145.717 67.2916ZM146.969 79.3105H137.849V87.3105H146.969V79.3105ZM141.79 83.9939L143.166 76.0579L135.284 74.6912L133.908 82.6272L141.79 83.9939ZM139.225 71.3745H131.737V79.3745H139.225V71.3745ZM127.792 74.717L127.472 76.637L135.363 77.9521L135.683 76.0321L127.792 74.717ZM127.489 76.5392C127.209 77.9983 127.508 79.6211 128.592 80.906C129.66 82.1715 131.173 82.7345 132.601 82.7345V74.7345C133.23 74.7345 134.071 74.9936 134.706 75.7471C135.359 76.52 135.466 77.4228 135.345 78.0499L127.489 76.5392ZM132.601 82.7345H135.641V74.7345H132.601V82.7345ZM131.701 78.0457L130.901 82.6217L138.781 83.9994L139.581 79.4234L131.701 78.0457ZM134.841 79.3105H127.257V87.3105H134.841V79.3105ZM127.257 79.3105C127.464 79.3105 127.969 79.3686 128.474 79.7897L123.353 85.9354C124.626 86.9965 126.09 87.3105 127.257 87.3105V79.3105ZM128.181 79.5674L125.205 77.5194L120.67 84.1097L123.646 86.1577L128.181 79.5674ZM125.156 77.4863C125.678 77.8346 125.956 78.3113 126.072 78.678C126.178 79.016 126.155 79.258 126.134 79.3669L118.268 77.9102C117.934 79.7162 118.252 82.4984 120.718 84.1427L125.156 77.4863ZM126.139 79.3437L126.907 75.0557L119.032 73.6453L118.264 77.9333L126.139 79.3437ZM126.925 74.9439C126.863 75.356 126.702 75.6589 126.559 75.8509C126.417 76.0414 126.263 76.1645 126.125 76.2443L122.117 69.3208C120.69 70.1471 119.327 71.6701 119.014 73.7572L126.925 74.9439ZM126.117 76.249L128.229 75.033L124.237 68.1001L122.125 69.3161L126.117 76.249ZM128.689 74.724C128.071 75.2044 127.497 75.2465 127.289 75.2465V67.2465C126.314 67.2465 124.971 67.4807 123.777 68.4091L128.689 74.724ZM127.289 75.2465H139.961V67.2465H127.289V75.2465ZM143.899 71.9497L144.059 71.0537L136.184 69.6474L136.024 70.5434L143.899 71.9497ZM144.071 70.9825C144.295 69.582 143.989 68.0205 142.938 66.7715C141.883 65.5174 140.383 64.9425 138.937 64.9425V72.9425C138.292 72.9425 137.447 72.6717 136.816 71.9216C136.19 71.1766 136.075 70.319 136.171 69.7186L144.071 70.9825ZM138.937 64.9425H125.017V72.9425H138.937V64.9425ZM128.957 69.6314L129.757 65.0554L121.877 63.6777L121.077 68.2537L128.957 69.6314ZM125.817 68.3665H146.681V60.3665H125.817V68.3665ZM140.851 58.9905L137.169 57.4283L134.809 62.9905H140.851V58.9905ZM152.371 58.9905L156.304 59.7189L157.18 54.9905H152.371V58.9905ZM152.051 60.7185L154.153 64.1217L155.662 63.1901L155.984 61.4469L152.051 60.7185ZM148.787 62.7345L146.685 59.3314L146.571 59.4017L146.462 59.4796L148.787 62.7345ZM134.515 63.1825L130.858 61.5636L128.37 67.1825H134.515V63.1825ZM135.379 61.2305L139.037 62.8495L141.524 57.2305H135.379V61.2305ZM130.515 61.2305L126.573 60.5509L125.767 65.2305H130.515V61.2305ZM130.835 59.3745L128.709 55.9863L127.197 56.9353L126.893 58.6949L130.835 59.3745ZM134.099 57.3265L132.217 53.7971L132.093 53.8634L131.973 53.9383L134.099 57.3265ZM141.747 56.8785L145.43 58.4407L147.789 52.8785H141.747V56.8785ZM140.851 62.9905H152.371V54.9905H140.851V62.9905ZM148.438 58.2622L148.118 59.9902L155.984 61.4469L156.304 59.7189L148.438 58.2622ZM149.949 57.3154L146.685 59.3314L150.889 66.1377L154.153 64.1217L149.949 57.3154ZM146.462 59.4796C146.847 59.2046 147.174 59.1825 147.283 59.1825V67.1825C148.416 67.1825 149.831 66.9045 151.112 65.9895L146.462 59.4796ZM147.283 59.1825H134.515V67.1825H147.283V59.1825ZM138.173 64.8015L139.037 62.8495L131.722 59.6116L130.858 61.5636L138.173 64.8015ZM135.379 57.2305H130.515V65.2305H135.379V57.2305ZM134.457 61.9102L134.777 60.0542L126.893 58.6949L126.573 60.5509L134.457 61.9102ZM132.961 62.7628L136.225 60.7148L131.973 53.9383L128.709 55.9863L132.961 62.7628ZM135.982 60.856C136.074 60.8066 136.086 60.8089 136.036 60.8245C135.98 60.8421 135.838 60.8785 135.635 60.8785V52.8785C134.153 52.8785 132.963 53.3992 132.217 53.7971L135.982 60.856ZM135.635 60.8785H141.747V52.8785H135.635V60.8785ZM138.065 55.3163L137.169 57.4283L144.534 60.5527L145.43 58.4407L138.065 55.3163ZM172.723 67.9825L176.662 68.6799L176.664 68.6705L172.723 67.9825ZM170.995 77.7425L174.933 78.4457L174.934 78.4399L170.995 77.7425ZM169.523 79.8545L167.403 76.4626L167.399 76.4651L169.523 79.8545ZM164.723 82.8625L162.599 79.4731L162.551 79.5031L162.504 79.5343L164.723 82.8625ZM151.635 83.3105L147.695 82.6217L146.875 87.3105H151.635V83.3105ZM152.435 78.7345V74.7345H149.074L148.495 78.0457L152.435 78.7345ZM161.939 77.2945L165.867 78.0499L165.874 78.0173L165.879 77.9845L161.939 77.2945ZM163.155 70.3505L167.095 71.0405L167.1 71.0115L167.105 70.9825L163.155 70.3505ZM151.827 68.9425L147.887 68.2537L147.067 72.9425H151.827V68.9425ZM152.627 64.3665V60.3665H149.266L148.687 63.6777L152.627 64.3665ZM169.747 68.3665C169.657 68.3665 169.317 68.3041 169.033 67.9587C168.907 67.8052 168.835 67.644 168.803 67.5087C168.787 67.4431 168.781 67.3897 168.78 67.3518C168.779 67.314 168.783 67.2944 168.783 67.2945L176.664 68.6705C177.02 66.6319 176.562 64.5196 175.213 62.8784C173.857 61.229 171.854 60.3665 169.747 60.3665V68.3665ZM168.785 67.2852L167.057 77.0452L174.934 78.4399L176.662 68.6799L168.785 67.2852ZM167.058 77.0394C167.084 76.8916 167.145 76.7532 167.222 76.6435C167.297 76.5383 167.368 76.4843 167.403 76.4626L171.643 83.2465C173.261 82.2356 174.553 80.5753 174.933 78.4457L167.058 77.0394ZM167.399 76.4651L162.599 79.4731L166.847 86.252L171.647 83.244L167.399 76.4651ZM162.504 79.5343C162.612 79.4626 162.742 79.401 162.884 79.3605C163.023 79.3208 163.14 79.3105 163.219 79.3105V87.3105C164.431 87.3105 165.734 86.9961 166.942 86.1908L162.504 79.5343ZM163.219 79.3105H151.635V87.3105H163.219V79.3105ZM155.575 83.9994L156.375 79.4234L148.495 78.0457L147.695 82.6217L155.575 83.9994ZM152.435 82.7345H160.275V74.7345H152.435V82.7345ZM160.275 82.7345C162.994 82.7345 165.358 80.7005 165.867 78.0499L158.011 76.5392C158.122 75.9643 158.423 75.5391 158.747 75.2669C159.053 75.0091 159.565 74.7345 160.275 74.7345V82.7345ZM165.879 77.9845L167.095 71.0405L159.215 69.6606L157.999 76.6046L165.879 77.9845ZM167.105 70.9825C167.613 67.8064 165.255 64.9425 162.003 64.9425V72.9425C161.239 72.9425 160.421 72.6091 159.842 71.9216C159.256 71.2242 159.099 70.3858 159.205 69.7186L167.105 70.9825ZM162.003 64.9425H151.827V72.9425H162.003V64.9425ZM155.767 69.6314L156.567 65.0554L148.687 63.6777L147.887 68.2537L155.767 69.6314ZM152.627 68.3665H169.747V60.3665H152.627V68.3665Z" fill="#E7070E" mask="url(#path-7-outside-3_6311_44149)"/>
</g>
<mask id="path-9-outside-4_6311_44149" maskUnits="userSpaceOnUse" x="78.0124" y="-1.63905" width="59.1478" height="59.1478" fill="black">
<rect fill="white" x="78.0124" y="-1.63905" width="59.1478" height="59.1478"/>
<path fill-rule="evenodd" clip-rule="evenodd" d="M108.687 6.29286L104.261 20.1041L108.652 20.8858L104.074 29.6361L118.217 18.0574L111.386 16.8415L115.778 7.55502L122.826 8.80953L121.996 13.4724L126.659 14.3023C127.941 14.5305 128.958 15.1825 129.709 16.2581C130.459 17.3338 130.72 18.5128 130.492 19.795L130.077 22.1265C129.551 25.0796 128.112 27.4792 125.759 29.3254C123.406 31.1715 120.741 32.0101 117.765 31.8411C116.747 33.504 115.385 34.7949 113.678 35.7138C111.971 36.6326 110.128 37.1363 108.148 37.2249L106.861 44.4523L116.187 46.1121L115.357 50.7749L92.0428 46.6253L92.8727 41.9625L102.198 43.6223L103.485 36.395C101.657 35.6286 100.1 34.5198 98.8153 33.0684C97.5303 31.617 96.6971 29.9353 96.3158 28.0234C93.4638 27.155 91.252 25.4484 89.6805 22.9038C88.109 20.3591 87.5861 17.6102 88.1117 14.6571L88.5267 12.3256C88.7549 11.0434 89.4068 10.0269 90.4825 9.27632C91.5582 8.52571 92.7371 8.26453 94.0194 8.49276L98.6822 9.32269L99.5122 4.65987L108.687 6.29286ZM97.8523 13.9855L96.2754 22.8449C94.9665 22.0908 93.9901 21.0451 93.3462 19.7078C92.7023 18.3705 92.5117 16.9636 92.7745 15.487L93.1895 13.1556L97.8523 13.9855ZM123.421 25.0608C122.356 26.0938 121.078 26.7384 119.59 26.9945L121.166 18.1352L125.829 18.9651L125.414 21.2965C125.151 22.7731 124.487 24.0279 123.421 25.0608Z"/>
</mask>
<path fill-rule="evenodd" clip-rule="evenodd" d="M108.687 6.29286L104.261 20.1041L108.652 20.8858L104.074 29.6361L118.217 18.0574L111.386 16.8415L115.778 7.55502L122.826 8.80953L121.996 13.4724L126.659 14.3023C127.941 14.5305 128.958 15.1825 129.709 16.2581C130.459 17.3338 130.72 18.5128 130.492 19.795L130.077 22.1265C129.551 25.0796 128.112 27.4792 125.759 29.3254C123.406 31.1715 120.741 32.0101 117.765 31.8411C116.747 33.504 115.385 34.7949 113.678 35.7138C111.971 36.6326 110.128 37.1363 108.148 37.2249L106.861 44.4523L116.187 46.1121L115.357 50.7749L92.0428 46.6253L92.8727 41.9625L102.198 43.6223L103.485 36.395C101.657 35.6286 100.1 34.5198 98.8153 33.0684C97.5303 31.617 96.6971 29.9353 96.3158 28.0234C93.4638 27.155 91.252 25.4484 89.6805 22.9038C88.109 20.3591 87.5861 17.6102 88.1117 14.6571L88.5267 12.3256C88.7549 11.0434 89.4068 10.0269 90.4825 9.27632C91.5582 8.52571 92.7371 8.26453 94.0194 8.49276L98.6822 9.32269L99.5122 4.65987L108.687 6.29286ZM97.8523 13.9855L96.2754 22.8449C94.9665 22.0908 93.9901 21.0451 93.3462 19.7078C92.7023 18.3705 92.5117 16.9636 92.7745 15.487L93.1895 13.1556L97.8523 13.9855ZM123.421 25.0608C122.356 26.0938 121.078 26.7384 119.59 26.9945L121.166 18.1352L125.829 18.9651L125.414 21.2965C125.151 22.7731 124.487 24.0279 123.421 25.0608Z" fill="url(#paint1_linear_6311_44149)"/>
<path d="M104.261 20.1041L100.451 18.8833C100.099 19.9823 100.239 21.1799 100.834 22.1684C101.43 23.1569 102.423 23.84 103.56 24.0422L104.261 20.1041ZM108.687 6.29286L112.496 7.51363C112.848 6.41464 112.709 5.21708 112.113 4.22858C111.517 3.24008 110.524 2.55698 109.388 2.35475L108.687 6.29286ZM108.652 20.8858L112.197 22.7401C112.787 21.6107 112.805 20.2674 112.243 19.1232C111.681 17.979 110.608 17.171 109.353 16.9477L108.652 20.8858ZM104.074 29.6361L100.53 27.7818C99.6489 29.466 100.075 31.5376 101.549 32.7378C103.022 33.938 105.137 33.9352 106.608 32.7312L104.074 29.6361ZM118.217 18.0574L120.751 21.1525C121.96 20.1629 122.482 18.5603 122.088 17.0487C121.694 15.537 120.456 14.393 118.918 14.1193L118.217 18.0574ZM111.386 16.8415L107.77 15.1312C107.237 16.2578 107.26 17.5684 107.831 18.6759C108.403 19.7834 109.458 20.5612 110.685 20.7796L111.386 16.8415ZM115.778 7.55502L116.479 3.61691C114.702 3.30067 112.934 4.21336 112.162 5.84479L115.778 7.55502ZM122.826 8.80953L126.764 9.51047C126.95 8.46602 126.714 7.3905 126.107 6.52051C125.5 5.65052 124.572 5.05732 123.527 4.87142L122.826 8.80953ZM121.996 13.4724L118.058 12.7714C117.671 14.9464 119.12 17.0233 121.295 17.4105L121.996 13.4724ZM125.759 29.3254L128.228 32.4724L128.228 32.4724L125.759 29.3254ZM117.765 31.8411L117.992 27.8475C116.52 27.764 115.122 28.4963 114.353 29.7533L117.765 31.8411ZM108.148 37.2249L107.969 33.2289C106.099 33.3125 104.537 34.6813 104.209 36.5239L108.148 37.2249ZM106.861 44.4523L102.923 43.7513C102.536 45.9263 103.985 48.0033 106.16 48.3904L106.861 44.4523ZM116.187 46.1121L120.125 46.8131C120.512 44.6381 119.063 42.5611 116.888 42.174L116.187 46.1121ZM115.357 50.7749L114.656 54.7131C116.831 55.1002 118.908 53.6508 119.295 51.4759L115.357 50.7749ZM92.0428 46.6253L88.1047 45.9243C87.7176 48.0993 89.1669 50.1763 91.3418 50.5634L92.0428 46.6253ZM92.8727 41.9625L93.5737 38.0244C92.5292 37.8385 91.4537 38.0751 90.5837 38.6822C89.7137 39.2893 89.1205 40.2171 88.9346 41.2615L92.8727 41.9625ZM102.198 43.6223L101.497 47.5604C102.542 47.7463 103.617 47.5097 104.487 46.9026C105.357 46.2955 105.951 45.3677 106.136 44.3233L102.198 43.6223ZM103.485 36.395L107.423 37.0959C107.751 35.2533 106.757 33.4296 105.031 32.706L103.485 36.395ZM98.8153 33.0684L95.8205 35.72L95.8205 35.72L98.8153 33.0684ZM96.3158 28.0234L100.239 27.2411C99.9504 25.7958 98.8908 24.6261 97.481 24.1969L96.3158 28.0234ZM89.6805 22.9038L86.2772 25.0055L86.2772 25.0055L89.6805 22.9038ZM88.1117 14.6571L92.0498 15.358L88.1117 14.6571ZM88.5267 12.3256L84.5886 11.6247L88.5267 12.3256ZM90.4825 9.27632L92.7715 12.5566L90.4825 9.27632ZM94.0194 8.49276L94.7204 4.55465L94.0194 8.49276ZM98.6822 9.32269L97.9813 13.2608C99.0258 13.4467 100.101 13.2101 100.971 12.603C101.841 11.9959 102.434 11.0681 102.62 10.0236L98.6822 9.32269ZM99.5122 4.65987L100.213 0.721759C99.1687 0.535858 98.0931 0.772478 97.2232 1.37956C96.3532 1.98665 95.76 2.91447 95.5741 3.95893L99.5122 4.65987ZM96.2754 22.8449L94.2786 26.3108C95.4079 26.9614 96.7833 27.0211 97.9646 26.4707C99.146 25.9203 99.9852 24.8289 100.214 23.5458L96.2754 22.8449ZM97.8523 13.9855L101.79 14.6865C101.976 13.642 101.74 12.5665 101.133 11.6965C100.526 10.8265 99.5977 10.2333 98.5532 10.0474L97.8523 13.9855ZM93.1895 13.1556L93.8904 9.21748C91.7155 8.83036 89.6385 10.2797 89.2514 12.4546L93.1895 13.1556ZM119.59 26.9945L115.651 26.2936C115.423 27.5767 115.834 28.8906 116.753 29.8148C117.672 30.739 118.983 31.1576 120.268 30.9366L119.59 26.9945ZM121.166 18.1352L121.867 14.1971C119.692 13.81 117.615 15.2593 117.228 17.4342L121.166 18.1352ZM125.829 18.9651L129.767 19.6661C129.953 18.6216 129.717 17.5461 129.11 16.6761C128.502 15.8061 127.575 15.2129 126.53 15.027L125.829 18.9651ZM125.414 21.2965L121.476 20.5956L125.414 21.2965ZM108.07 21.3249L112.496 7.51363L104.878 5.07209L100.451 18.8833L108.07 21.3249ZM109.353 16.9477L104.962 16.166L103.56 24.0422L107.951 24.8239L109.353 16.9477ZM107.619 31.4904L112.197 22.7401L105.108 19.0315L100.53 27.7818L107.619 31.4904ZM115.684 14.9623L101.54 26.541L106.608 32.7312L120.751 21.1525L115.684 14.9623ZM110.685 20.7796L117.517 21.9955L118.918 14.1193L112.087 12.9034L110.685 20.7796ZM112.162 5.84479L107.77 15.1312L115.002 18.5517L119.394 9.26525L112.162 5.84479ZM115.077 11.4931L122.125 12.7476L123.527 4.87142L116.479 3.61691L115.077 11.4931ZM118.888 8.10859L118.058 12.7714L125.934 14.1733L126.764 9.51047L118.888 8.10859ZM121.295 17.4105L125.958 18.2404L127.36 10.3642L122.697 9.53425L121.295 17.4105ZM125.958 18.2404C126.188 18.2812 126.28 18.3345 126.428 18.5472L132.989 13.9691C131.636 12.0304 129.695 10.7798 127.36 10.3642L125.958 18.2404ZM126.428 18.5472C126.577 18.7598 126.595 18.8646 126.554 19.0941L134.43 20.496C134.846 18.161 134.342 15.9078 132.989 13.9691L126.428 18.5472ZM126.554 19.0941L126.139 21.4255L134.015 22.8274L134.43 20.496L126.554 19.0941ZM126.139 21.4255C125.785 23.4135 124.867 24.9412 123.29 26.1784L128.228 32.4724C131.357 30.0172 133.318 26.7456 134.015 22.8274L126.139 21.4255ZM123.29 26.1784C121.7 27.4259 119.993 27.9612 117.992 27.8475L117.538 35.8347C121.49 36.059 125.112 34.9171 128.228 32.4724L123.29 26.1784ZM114.353 29.7533C113.703 30.816 112.862 31.6104 111.782 32.1917L115.574 39.2359C117.908 37.9795 119.792 36.192 121.177 33.9289L114.353 29.7533ZM111.782 32.1917C110.617 32.8189 109.362 33.1666 107.969 33.2289L108.326 41.2209C110.893 41.1061 113.325 40.4463 115.574 39.2359L111.782 32.1917ZM104.209 36.5239L102.923 43.7513L110.799 45.1532L112.086 37.9258L104.209 36.5239ZM106.16 48.3904L115.486 50.0502L116.888 42.174L107.562 40.5142L106.16 48.3904ZM112.249 45.4112L111.419 50.074L119.295 51.4759L120.125 46.8131L112.249 45.4112ZM116.058 46.8368L92.7437 42.6872L91.3418 50.5634L114.656 54.7131L116.058 46.8368ZM95.9809 47.3262L96.8108 42.6634L88.9346 41.2615L88.1047 45.9243L95.9809 47.3262ZM92.1718 45.9006L101.497 47.5604L102.899 39.6842L93.5737 38.0244L92.1718 45.9006ZM106.136 44.3233L107.423 37.0959L99.5467 35.694L98.2603 42.9214L106.136 44.3233ZM105.031 32.706C103.745 32.1668 102.687 31.4076 101.81 30.4168L95.8205 35.72C97.5133 37.6319 99.5686 39.0905 101.938 40.0839L105.031 32.706ZM101.81 30.4168C100.997 29.4986 100.482 28.4629 100.239 27.2411L92.3931 28.8057C92.912 31.4077 94.0634 33.7354 95.8205 35.72L101.81 30.4168ZM97.481 24.1969C95.5633 23.6129 94.1458 22.5215 93.0838 20.802L86.2772 25.0055C88.3583 28.3753 91.3643 30.697 95.1507 31.8499L97.481 24.1969ZM93.0838 20.802C92.0307 19.0967 91.696 17.346 92.0498 15.358L84.1736 13.9561C83.4762 17.8743 84.1873 21.6214 86.2772 25.0055L93.0838 20.802ZM92.0498 15.358L92.4648 13.0266L84.5886 11.6247L84.1736 13.9561L92.0498 15.358ZM92.4648 13.0266C92.5056 12.7971 92.5589 12.705 92.7715 12.5566L88.1935 5.99602C86.2548 7.34887 85.0042 9.28968 84.5886 11.6247L92.4648 13.0266ZM92.7715 12.5566C92.9841 12.4083 93.089 12.39 93.3185 12.4309L94.7204 4.55465C92.3853 4.13904 90.1322 4.64317 88.1935 5.99602L92.7715 12.5566ZM93.3185 12.4309L97.9813 13.2608L99.3832 5.38458L94.7204 4.55465L93.3185 12.4309ZM102.62 10.0236L103.45 5.36081L95.5741 3.95893L94.7441 8.62175L102.62 10.0236ZM98.8112 8.59797L107.986 10.231L109.388 2.35475L100.213 0.721759L98.8112 8.59797ZM100.214 23.5458L101.79 14.6865L93.9142 13.2846L92.3373 22.1439L100.214 23.5458ZM89.7422 21.4431C90.742 23.5195 92.2852 25.1624 94.2786 26.3108L98.2723 19.3789C97.6478 19.0192 97.2382 18.5706 96.9501 17.9724L89.7422 21.4431ZM88.8364 14.7861C88.4281 17.0803 88.7298 19.3405 89.7422 21.4431L96.9501 17.9724C96.6747 17.4005 96.5954 16.8468 96.7126 16.1879L88.8364 14.7861ZM89.2514 12.4546L88.8364 14.7861L96.7126 16.1879L97.1276 13.8565L89.2514 12.4546ZM98.5532 10.0474L93.8904 9.21748L92.4885 17.0937L97.1514 17.9236L98.5532 10.0474ZM120.268 30.9366C122.535 30.5465 124.55 29.537 126.205 27.9331L120.638 22.1885C120.161 22.6506 119.622 22.9303 118.911 23.0525L120.268 30.9366ZM117.228 17.4342L115.651 26.2936L123.528 27.6955L125.105 18.8361L117.228 17.4342ZM126.53 15.027L121.867 14.1971L120.465 22.0733L125.128 22.9032L126.53 15.027ZM129.352 21.9975L129.767 19.6661L121.891 18.2642L121.476 20.5956L129.352 21.9975ZM126.205 27.9331C127.881 26.309 128.944 24.2918 129.352 21.9975L121.476 20.5956C121.359 21.2544 121.093 21.7467 120.638 22.1885L126.205 27.9331Z" fill="#E7070E" mask="url(#path-9-outside-4_6311_44149)"/>
<g filter="url(#filter2_dd_6311_44149)">
<path d="M91.571 27.5773C88.6405 25.5486 84.8293 26.0155 82.4967 28.5552C81.1645 27.9169 79.6727 27.7191 78.2066 27.9996C76.3575 28.3533 74.7611 29.4169 73.7112 30.9942C71.6017 34.1616 72.3723 38.5389 75.4218 40.7932C75.4969 40.8607 75.5654 40.9085 75.614 40.9418L85.3847 47.7094C85.6222 47.8741 85.9135 47.9363 86.1947 47.8825C86.4759 47.8287 86.724 47.6633 86.884 47.4229L93.4742 37.5252C93.5062 37.4775 93.5523 37.4079 93.5978 37.3169C94.5515 35.7824 94.8883 33.9574 94.546 32.1679C94.1859 30.2858 93.1293 28.6556 91.571 27.5773ZM91.7401 36.1823C91.7167 36.2188 91.6956 36.2567 91.6766 36.2956L85.6969 45.277L76.8308 39.1355C76.7991 39.1063 76.7652 39.0789 76.7303 39.0535C74.5813 37.5031 74.0303 34.4438 75.5024 32.2333C76.2297 31.1405 77.337 30.4032 78.6195 30.1578C79.6712 29.9566 80.7406 30.1143 81.6875 30.5947L81.6975 34.7146C81.6986 35.0847 81.8824 35.4304 82.1872 35.6346L83.8608 36.7564L83.103 40.1371C82.9706 40.7276 83.335 41.3184 83.9163 41.457C84.0677 41.4929 84.219 41.4949 84.3619 41.4675C84.769 41.3896 85.1113 41.0754 85.2091 40.6387L86.1335 36.5135C86.2336 36.0662 86.049 35.6008 85.6707 35.3472L83.856 34.1308L83.8469 30.341C85.4351 28.3479 88.2323 27.9152 90.3641 29.39C91.4438 30.1375 92.1762 31.2678 92.426 32.5735C92.6663 33.8293 92.4225 35.1108 91.7401 36.1823Z" fill="url(#paint2_linear_6311_44149)"/>
<path d="M82.0496 26.2453C85.07 23.838 89.3573 23.6123 92.7094 25.9329C94.7039 27.3131 96.053 29.4016 96.5104 31.7921C96.9415 34.0457 96.527 36.3553 95.3376 38.3058C95.2531 38.4627 95.1752 38.5797 95.1366 38.6371C95.1358 38.6384 95.1349 38.6396 95.1341 38.6409L88.5488 48.5314C88.0944 49.2139 87.3842 49.6912 86.5705 49.8469C85.7563 50.0027 84.9201 49.8207 84.2459 49.3535C84.2457 49.3534 84.2455 49.3532 84.2452 49.3531L74.4829 42.5912C74.4816 42.5903 74.4803 42.5894 74.479 42.5885C74.4222 42.5495 74.3054 42.4689 74.168 42.3531C70.315 39.4513 69.3612 33.9182 72.0463 29.886L82.0496 26.2453ZM82.0496 26.2453C80.6921 25.8406 79.2506 25.7636 77.8308 26.0352C75.4507 26.4905 73.3917 27.865 72.0466 29.8855L82.0496 26.2453ZM77.9064 37.4359L77.9064 37.4359L77.9005 37.4316C76.6266 36.5125 76.289 34.6603 77.1671 33.3419L77.1674 33.3414C77.5991 32.6927 78.2432 32.2661 78.9954 32.1222C79.2272 32.0778 79.4604 32.0633 79.6911 32.0779L79.6975 34.7194L79.6975 34.7203C79.7005 35.7472 80.2098 36.717 81.0736 37.296C81.0737 37.296 81.0739 37.2961 81.074 37.2962L81.6097 37.6553L81.1522 39.696L78.054 37.5499C78.0039 37.5087 77.9545 37.4708 77.9064 37.4359ZM85.8489 31.1428C86.7991 30.3649 88.1424 30.2853 89.2257 31.0345C89.869 31.4797 90.309 32.1517 90.4616 32.9494C90.6066 33.7069 90.4599 34.4686 90.0539 35.1067C90.0184 35.1622 89.9858 35.2173 89.9557 35.2716L87.7033 38.6546L88.0851 36.9509L88.0853 36.95C88.3637 35.7053 87.8547 34.4034 86.7843 33.6859C86.7843 33.6859 86.7842 33.6859 86.7842 33.6859L85.8535 33.062L85.8489 31.1428Z" stroke="#E7070E" stroke-width="4" stroke-linejoin="round"/>
</g>
<defs>
<filter id="filter0_df_6311_44149" x="0.0390625" y="32.7207" width="83.7715" height="86.7734" filterUnits="userSpaceOnUse" color-interpolation-filters="sRGB">
<feFlood flood-opacity="0" result="BackgroundImageFix"/>
<feColorMatrix in="SourceAlpha" type="matrix" values="0 0 0 0 0 0 0 0 0 0 0 0 0 0 0 0 0 0 127 0" result="hardAlpha"/>
<feOffset dy="8"/>
<feGaussianBlur stdDeviation="16"/>
<feComposite in2="hardAlpha" operator="out"/>
<feColorMatrix type="matrix" values="0 0 0 0 1 0 0 0 0 1 0 0 0 0 1 0 0 0 0.5 0"/>
<feBlend mode="normal" in2="BackgroundImageFix" result="effect1_dropShadow_6311_44149"/>
<feBlend mode="normal" in="SourceGraphic" in2="effect1_dropShadow_6311_44149" result="shape"/>
<feGaussianBlur stdDeviation="2" result="effect2_foregroundBlur_6311_44149"/>
</filter>
<filter id="filter1_dd_6311_44149" x="27.8379" y="56.8789" width="153.237" height="42.4316" filterUnits="userSpaceOnUse" color-interpolation-filters="sRGB">
<feFlood flood-opacity="0" result="BackgroundImageFix"/>
<feColorMatrix in="SourceAlpha" type="matrix" values="0 0 0 0 0 0 0 0 0 0 0 0 0 0 0 0 0 0 127 0" result="hardAlpha"/>
<feOffset dy="8"/>
<feGaussianBlur stdDeviation="4"/>
<feComposite in2="hardAlpha" operator="out"/>
<feColorMatrix type="matrix" values="0 0 0 0 0 0 0 0 0 0 0 0 0 0 0 0 0 0 0.05 0"/>
<feBlend mode="normal" in2="BackgroundImageFix" result="effect1_dropShadow_6311_44149"/>
<feColorMatrix in="SourceAlpha" type="matrix" values="0 0 0 0 0 0 0 0 0 0 0 0 0 0 0 0 0 0 127 0" result="hardAlpha"/>
<feOffset dy="4"/>
<feGaussianBlur stdDeviation="2"/>
<feComposite in2="hardAlpha" operator="out"/>
<feColorMatrix type="matrix" values="0 0 0 0 0 0 0 0 0 0 0 0 0 0 0 0 0 0 0.15 0"/>
<feBlend mode="normal" in2="effect1_dropShadow_6311_44149" result="effect2_dropShadow_6311_44149"/>
<feBlend mode="normal" in="SourceGraphic" in2="effect2_dropShadow_6311_44149" result="shape"/>
</filter>
<filter id="filter2_dd_6311_44149" x="60.5205" y="22.3105" width="46.1562" height="45.5918" filterUnits="userSpaceOnUse" color-interpolation-filters="sRGB">
<feFlood flood-opacity="0" result="BackgroundImageFix"/>
<feColorMatrix in="SourceAlpha" type="matrix" values="0 0 0 0 0 0 0 0 0 0 0 0 0 0 0 0 0 0 127 0" result="hardAlpha"/>
<feOffset dy="8"/>
<feGaussianBlur stdDeviation="4"/>
<feComposite in2="hardAlpha" operator="out"/>
<feColorMatrix type="matrix" values="0 0 0 0 0 0 0 0 0 0 0 0 0 0 0 0 0 0 0.05 0"/>
<feBlend mode="normal" in2="BackgroundImageFix" result="effect1_dropShadow_6311_44149"/>
<feColorMatrix in="SourceAlpha" type="matrix" values="0 0 0 0 0 0 0 0 0 0 0 0 0 0 0 0 0 0 127 0" result="hardAlpha"/>
<feOffset dy="4"/>
<feGaussianBlur stdDeviation="2"/>
<feComposite in2="hardAlpha" operator="out"/>
<feColorMatrix type="matrix" values="0 0 0 0 0 0 0 0 0 0 0 0 0 0 0 0 0 0 0.15 0"/>
<feBlend mode="normal" in2="effect1_dropShadow_6311_44149" result="effect2_dropShadow_6311_44149"/>
<feBlend mode="normal" in="SourceGraphic" in2="effect2_dropShadow_6311_44149" result="shape"/>
</filter>
<linearGradient id="paint0_linear_6311_44149" x1="102.5" y1="70.8105" x2="102.5" y2="92.3105" gradientUnits="userSpaceOnUse">
<stop stop-color="white"/>
</linearGradient>
<linearGradient id="paint1_linear_6311_44149" x1="107.435" y1="27.7174" x2="103.7" y2="48.7001" gradientUnits="userSpaceOnUse">
<stop stop-color="white"/>
</linearGradient>
<linearGradient id="paint2_linear_6311_44149" x1="84.2276" y1="37.5426" x2="86.2054" y2="47.8805" gradientUnits="userSpaceOnUse">
<stop stop-color="white"/>
</linearGradient>
</defs>
</svg>
