<svg width="16" height="17" viewBox="0 0 16 17" fill="none" xmlns="http://www.w3.org/2000/svg">
<path d="M14.6667 3.50033H11.3333V2.66699C11.3333 2.00395 11.0699 1.36807 10.6011 0.899225C10.1323 0.430384 9.49637 0.166992 8.83333 0.166992H7.16667C6.50363 0.166992 5.86774 0.430384 5.3989 0.899225C4.93006 1.36807 4.66667 2.00395 4.66667 2.66699V3.50033H1.33333C1.11232 3.50033 0.900358 3.58812 0.744078 3.7444C0.587797 3.90068 0.5 4.11265 0.5 4.33366C0.5 4.55467 0.587797 4.76663 0.744078 4.92291C0.900358 5.07919 1.11232 5.16699 1.33333 5.16699H2.16667V14.3337C2.16667 14.9967 2.43006 15.6326 2.8989 16.1014C3.36774 16.5703 4.00363 16.8337 4.66667 16.8337H11.3333C11.9964 16.8337 12.6323 16.5703 13.1011 16.1014C13.5699 15.6326 13.8333 14.9967 13.8333 14.3337V5.16699H14.6667C14.8877 5.16699 15.0996 5.07919 15.2559 4.92291C15.4122 4.76663 15.5 4.55467 15.5 4.33366C15.5 4.11265 15.4122 3.90068 15.2559 3.7444C15.0996 3.58812 14.8877 3.50033 14.6667 3.50033ZM6.33333 2.66699C6.33333 2.44598 6.42113 2.23402 6.57741 2.07774C6.73369 1.92146 6.94565 1.83366 7.16667 1.83366H8.83333C9.05435 1.83366 9.26631 1.92146 9.42259 2.07774C9.57887 2.23402 9.66667 2.44598 9.66667 2.66699V3.50033H6.33333V2.66699ZM12.1667 14.3337C12.1667 14.5547 12.0789 14.7666 11.9226 14.9229C11.7663 15.0792 11.5543 15.167 11.3333 15.167H4.66667C4.44565 15.167 4.23369 15.0792 4.07741 14.9229C3.92113 14.7666 3.83333 14.5547 3.83333 14.3337V5.16699H12.1667V14.3337Z" fill="#E7070E"/>
</svg>
