<svg xmlns="http://www.w3.org/2000/svg" width="20" height="20" viewBox="0 0 20 20" fill="none">
  <path d="M12.8333 4.99996V5.49996H13.3333H16.6667C16.7551 5.49996 16.8399 5.53508 16.9024 5.59759C16.9649 5.6601 17 5.74489 17 5.83329C17 5.9217 16.9649 6.00648 16.9024 6.06899C16.8399 6.13151 16.7551 6.16663 16.6667 6.16663H15.8333H15.3333V6.66663V15.8333C15.3333 16.3637 15.1226 16.8724 14.7475 17.2475C14.3725 17.6226 13.8638 17.8333 13.3333 17.8333H6.66667C6.13623 17.8333 5.62753 17.6226 5.25245 17.2475C4.87738 16.8724 4.66667 16.3637 4.66667 15.8333V6.66663V6.16663H4.16667H3.33333C3.24493 6.16663 3.16014 6.13151 3.09763 6.06899C3.03512 6.00648 3 5.9217 3 5.83329C3 5.74489 3.03512 5.6601 3.09763 5.59759C3.16014 5.53508 3.24493 5.49996 3.33333 5.49996H6.66667H7.16667V4.99996V4.16663C7.16667 3.63619 7.37738 3.12749 7.75245 2.75241C8.12753 2.37734 8.63623 2.16663 9.16667 2.16663H10.8333C11.3638 2.16663 11.8725 2.37734 12.2475 2.75241C12.6226 3.12749 12.8333 3.63619 12.8333 4.16663V4.99996ZM11.6667 5.49996H12.1667V4.99996V4.16663C12.1667 3.813 12.0262 3.47387 11.7761 3.22382C11.5261 2.97377 11.187 2.83329 10.8333 2.83329H9.16667C8.81304 2.83329 8.47391 2.97377 8.22386 3.22382C7.97381 3.47387 7.83333 3.813 7.83333 4.16663V4.99996V5.49996H8.33333H11.6667ZM5.83333 6.16663H5.33333V6.66663V15.8333C5.33333 16.1869 5.47381 16.5261 5.72386 16.7761C5.97391 17.0262 6.31305 17.1666 6.66667 17.1666H13.3333C13.687 17.1666 14.0261 17.0262 14.2761 16.7761C14.5262 16.5261 14.6667 16.1869 14.6667 15.8333V6.66663V6.16663H14.1667H5.83333Z" fill="white" stroke="white"/>
</svg>