<svg width="125" height="15" viewBox="0 0 125 15" fill="none" xmlns="http://www.w3.org/2000/svg">
<path d="M6.24 14.24C5.168 14.24 4.168 14.144 3.24 13.952C2.312 13.744 1.528 13.504 0.888 13.232V6.416H6.384L6.528 8.792H3.96V11.408C4.264 11.504 4.624 11.584 5.04 11.648C5.472 11.696 5.88 11.72 6.264 11.72C7.576 11.72 8.496 11.408 9.024 10.784C9.552 10.16 9.816 9.088 9.816 7.568C9.816 6.48 9.672 5.632 9.384 5.024C9.112 4.4 8.656 3.96 8.016 3.704C7.392 3.448 6.536 3.32 5.448 3.32C4.744 3.32 4.008 3.376 3.24 3.488C2.488 3.584 1.76 3.744 1.056 3.968V1.544C1.776 1.304 2.6 1.12 3.528 0.991999C4.456 0.863999 5.36 0.8 6.24 0.8C8.576 0.8 10.264 1.384 11.304 2.552C12.36 3.704 12.888 5.376 12.888 7.568C12.888 9.712 12.36 11.36 11.304 12.512C10.264 13.664 8.576 14.24 6.24 14.24ZM20.9813 14.24C19.9093 14.24 18.9093 14.144 17.9813 13.952C17.0533 13.744 16.2693 13.504 15.6293 13.232V6.416H21.1253L21.2693 8.792H18.7013V11.408C19.0053 11.504 19.3653 11.584 19.7813 11.648C20.2133 11.696 20.6213 11.72 21.0053 11.72C22.3173 11.72 23.2373 11.408 23.7653 10.784C24.2933 10.16 24.5573 9.088 24.5573 7.568C24.5573 6.48 24.4133 5.632 24.1253 5.024C23.8533 4.4 23.3973 3.96 22.7573 3.704C22.1333 3.448 21.2773 3.32 20.1893 3.32C19.4853 3.32 18.7493 3.376 17.9813 3.488C17.2293 3.584 16.5013 3.744 15.7973 3.968V1.544C16.5173 1.304 17.3413 1.12 18.2693 0.991999C19.1973 0.863999 20.1013 0.8 20.9813 0.8C23.3173 0.8 25.0053 1.384 26.0453 2.552C27.1013 3.704 27.6293 5.376 27.6293 7.568C27.6293 9.712 27.1013 11.36 26.0453 12.512C25.0053 13.664 23.3173 14.24 20.9813 14.24ZM30.9705 14V9.872C30.9705 9.136 31.0905 8.488 31.3305 7.928C31.5865 7.352 32.0825 6.952 32.8185 6.728L30.3705 6.08V2.984C31.0265 2.424 31.8985 1.92 32.9865 1.472C34.0905 1.024 35.3465 0.8 36.7545 0.8C38.0505 0.8 39.1545 0.967999 40.0665 1.304C40.9945 1.64 41.6985 2.2 42.1785 2.984C42.6745 3.768 42.9225 4.832 42.9225 6.176V14H39.6825V6.104C39.6825 5.096 39.4425 4.384 38.9625 3.968C38.4985 3.536 37.7065 3.32 36.5865 3.32C35.8665 3.32 35.2025 3.424 34.5945 3.632C34.0025 3.84 33.5225 4.104 33.1545 4.424V4.76L35.8185 5.48V7.448C35.1785 7.608 34.7465 7.872 34.5225 8.24C34.3145 8.592 34.2105 9.144 34.2105 9.896V14H30.9705ZM51.9242 14.24C51.5722 14.24 51.1642 14.2 50.7002 14.12C50.2522 14.056 49.8922 13.976 49.6202 13.88L47.7962 9.008H46.0202L46.1642 6.704H49.8362L51.7322 11.768C52.7242 11.768 53.4922 11.432 54.0362 10.76C54.5802 10.072 54.8522 8.952 54.8522 7.4C54.8522 6.36 54.7162 5.544 54.4442 4.952C54.1882 4.36 53.7402 3.944 53.1002 3.704C52.4602 3.448 51.5882 3.32 50.4842 3.32C49.8442 3.32 49.1562 3.376 48.4202 3.488C47.7002 3.584 47.0122 3.736 46.3562 3.944V1.544C47.0122 1.336 47.7642 1.16 48.6122 1.016C49.4762 0.872 50.3802 0.8 51.3242 0.8C53.6922 0.8 55.3802 1.368 56.3882 2.504C57.4122 3.64 57.9242 5.272 57.9242 7.4C57.9242 8.888 57.6442 10.144 57.0842 11.168C56.5402 12.176 55.8122 12.944 54.9002 13.472C53.9882 13.984 52.9962 14.24 51.9242 14.24ZM65.7139 14V6.032C65.7139 5.168 65.5459 4.504 65.2099 4.04C64.8739 3.56 64.2019 3.32 63.1939 3.32C62.6659 3.32 62.1059 3.384 61.5139 3.512C60.9219 3.624 60.3939 3.768 59.9299 3.944V1.568C60.4099 1.344 61.0019 1.16 61.7059 1.016C62.4099 0.872 63.1139 0.8 63.8179 0.8C65.6419 0.8 66.9539 1.192 67.7539 1.976C68.5539 2.744 68.9539 3.944 68.9539 5.576V14H65.7139ZM72.8974 14V9.872C72.8974 9.136 73.0174 8.488 73.2574 7.928C73.5134 7.352 74.0094 6.952 74.7454 6.728L72.2974 6.08V2.984C72.9534 2.424 73.8254 1.92 74.9134 1.472C76.0174 1.024 77.2734 0.8 78.6814 0.8C79.9774 0.8 81.0814 0.967999 81.9934 1.304C82.9214 1.64 83.6254 2.2 84.1054 2.984C84.6014 3.768 84.8494 4.832 84.8494 6.176V14H81.6094V6.104C81.6094 5.096 81.3694 4.384 80.8894 3.968C80.4254 3.536 79.6334 3.32 78.5134 3.32C77.7934 3.32 77.1294 3.424 76.5214 3.632C75.9294 3.84 75.4494 4.104 75.0814 4.424V4.76L77.7454 5.48V7.448C77.1054 7.608 76.6734 7.872 76.4494 8.24C76.2414 8.592 76.1374 9.144 76.1374 9.896V14H72.8974ZM91.5711 14C90.5311 14 89.7951 13.784 89.3631 13.352C88.9471 12.92 88.7391 12.24 88.7391 11.312V1.04H91.9791V10.472C91.9791 11.144 92.3071 11.48 92.9631 11.48H93.7791V14H91.5711ZM97.1299 14V9.872C97.1299 9.136 97.2499 8.488 97.4899 7.928C97.7459 7.352 98.2419 6.952 98.9779 6.728L96.5299 6.08V2.984C97.1859 2.424 98.0579 1.92 99.1459 1.472C100.25 1.024 101.506 0.8 102.914 0.8C104.21 0.8 105.314 0.967999 106.226 1.304C107.154 1.64 107.858 2.2 108.338 2.984C108.834 3.768 109.082 4.832 109.082 6.176V14H105.842V6.104C105.842 5.096 105.602 4.384 105.122 3.968C104.658 3.536 103.866 3.32 102.746 3.32C102.026 3.32 101.362 3.424 100.754 3.632C100.162 3.84 99.6819 4.104 99.3139 4.424V4.76L101.978 5.48V7.448C101.338 7.608 100.906 7.872 100.682 8.24C100.474 8.592 100.37 9.144 100.37 9.896V14H97.1299ZM120.388 14.24C119.492 14.24 118.684 14.104 117.964 13.832C117.244 13.56 116.596 13.192 116.02 12.728L115.876 14H112.9V1.04H116.14V10.376C116.492 10.76 116.956 11.08 117.532 11.336C118.124 11.592 118.716 11.72 119.308 11.72C120.076 11.72 120.652 11.536 121.036 11.168C121.436 10.784 121.636 10.152 121.636 9.272V1.04H124.876V9.464C124.876 10.968 124.476 12.144 123.676 12.992C122.876 13.824 121.78 14.24 120.388 14.24Z" fill="#D9D9D9"/>
</svg>
