<svg width="115" height="38" viewBox="0 0 115 38" fill="none" xmlns="http://www.w3.org/2000/svg">
<path d="M5.49655 37C3.76321 37 2.53655 36.64 1.81655 35.92C1.12321 35.2 0.776545 34.0667 0.776545 32.52V15.4H6.17655V31.12C6.17655 32.24 6.72321 32.8 7.81655 32.8H9.17655V37H5.49655ZM20.2412 37.4C18.7479 37.4 17.3079 37.2933 15.9212 37.08C14.5612 36.8667 13.4546 36.5867 12.6012 36.24V31.88C13.6146 32.3067 14.7212 32.64 15.9212 32.88C17.1479 33.0933 18.2546 33.2 19.2412 33.2C20.9746 33.2 22.2279 33.0667 23.0012 32.8C23.8012 32.5333 24.2012 31.9867 24.2012 31.16C24.2012 30.52 23.9879 30.0267 23.5612 29.68C23.1612 29.3333 22.5346 29.0267 21.6812 28.76C20.8279 28.4667 19.7346 28.0933 18.4012 27.64C16.4546 26.9467 14.9212 26.1733 13.8012 25.32C12.7079 24.44 12.1612 23.1467 12.1612 21.44C12.1612 19.52 12.9079 17.9733 14.4012 16.8C15.8946 15.6 18.1479 15 21.1612 15C22.4146 15 23.6679 15.0933 24.9212 15.28C26.1746 15.4667 27.2012 15.6933 28.0012 15.96V20.28C27.1212 19.9067 26.1079 19.64 24.9612 19.48C23.8412 19.2933 22.8279 19.2 21.9212 19.2C20.6679 19.2 19.5746 19.3467 18.6412 19.64C17.7346 19.9067 17.2812 20.4667 17.2812 21.32C17.2812 21.8533 17.5079 22.28 17.9612 22.6C18.4412 22.92 19.1079 23.2133 19.9612 23.48C20.8412 23.7467 21.8812 24.0933 23.0812 24.52C24.5746 25.0267 25.7746 25.56 26.6812 26.12C27.6146 26.68 28.2812 27.36 28.6812 28.16C29.1079 28.96 29.3212 29.96 29.3212 31.16C29.3212 33.2667 28.5079 34.84 26.8812 35.88C25.2812 36.8933 23.0679 37.4 20.2412 37.4ZM10.8384 12.44L11.1184 8.76H28.3184V12.44H10.8384ZM23.7184 5.8V0.199999H28.1184V5.8H23.7184ZM45.5584 37.4C44.0651 37.4 42.7184 37.1733 41.5184 36.72C40.3184 36.2667 39.2384 35.6533 38.2784 34.88L38.0384 37H33.0784V15.4H38.4784V30.96C39.0651 31.6 39.8384 32.1333 40.7984 32.56C41.7851 32.9867 42.7718 33.2 43.7584 33.2C45.0384 33.2 45.9984 32.8933 46.6384 32.28C47.3051 31.64 47.6384 30.5867 47.6384 29.12V15.4H53.0384V29.44C53.0384 31.9467 52.3718 33.9067 51.0384 35.32C49.7051 36.7067 47.8784 37.4 45.5584 37.4ZM62.645 37C60.9116 37 59.685 36.64 58.965 35.92C58.2716 35.2 57.925 34.0667 57.925 32.52V15.4H63.325V31.12C63.325 32.24 63.8716 32.8 64.965 32.8H66.325V37H62.645ZM70.3097 37V30.12C70.3097 28.8933 70.5097 27.8133 70.9097 26.88C71.3363 25.92 72.163 25.2533 73.3897 24.88L69.3097 23.8V18.64C70.403 17.7067 71.8563 16.8667 73.6697 16.12C75.5097 15.3733 77.603 15 79.9497 15C82.1097 15 83.9497 15.28 85.4697 15.84C87.0163 16.4 88.1897 17.3333 88.9897 18.64C89.8163 19.9467 90.2297 21.72 90.2297 23.96V37H84.8297V23.84C84.8297 22.16 84.4297 20.9733 83.6297 20.28C82.8563 19.56 81.5363 19.2 79.6697 19.2C78.4697 19.2 77.363 19.3733 76.3497 19.72C75.363 20.0667 74.563 20.5067 73.9497 21.04V21.6L78.3897 22.8V26.08C77.323 26.3467 76.603 26.7867 76.2297 27.4C75.883 27.9867 75.7097 28.9067 75.7097 30.16V37H70.3097ZM107.472 37.4C105.979 37.4 104.632 37.1733 103.432 36.72C102.232 36.2667 101.152 35.6533 100.192 34.88L99.9525 37H94.9925V15.4H100.392V30.96C100.979 31.6 101.752 32.1333 102.712 32.56C103.699 32.9867 104.686 33.2 105.672 33.2C106.952 33.2 107.912 32.8933 108.552 32.28C109.219 31.64 109.552 30.5867 109.552 29.12V15.4H114.952V29.44C114.952 31.9467 114.286 33.9067 112.952 35.32C111.619 36.7067 109.792 37.4 107.472 37.4Z" fill="#40E9F1"/>
</svg>
