<svg width="304" height="55" viewBox="0 0 304 55" fill="none" xmlns="http://www.w3.org/2000/svg">
<path d="M303 1V40.0186L302.503 40.3076L282.623 51.8643L282.39 52H1V12.5205L1.49512 12.2314L20.4707 1.13672L20.7051 1H303Z" stroke="#8900FF" stroke-width="2"/>
<g filter="url(#filter0_d_2131_15818)">
<path d="M5 14.5094L21.8951 5L299 5.91304V37.8696L281.379 47H5V14.5094Z" fill="url(#paint0_radial_2131_15818)"/>
</g>
<path d="M128.443 34C127.576 34 126.963 33.82 126.603 33.46C126.256 33.1 126.083 32.5333 126.083 31.76V23.2H128.783V31.06C128.783 31.62 129.056 31.9 129.603 31.9H130.283V34H128.443ZM135.595 34.2C134.915 34.2 134.288 34.0933 133.715 33.88C133.142 33.6533 132.682 33.2933 132.335 32.8C132.002 32.2933 131.835 31.6267 131.835 30.8C131.835 29.72 132.202 28.8933 132.935 28.32C133.668 27.7333 134.722 27.44 136.095 27.44H139.155V26.92C139.155 26.2533 138.968 25.7867 138.595 25.52C138.222 25.24 137.562 25.1 136.615 25.1C135.962 25.1 135.342 25.1467 134.755 25.24C134.182 25.32 133.608 25.4533 133.035 25.64V23.62C133.582 23.4467 134.215 23.3 134.935 23.18C135.655 23.06 136.362 23 137.055 23C138.668 23 139.868 23.34 140.655 24.02C141.455 24.7 141.855 25.76 141.855 27.2V34H139.155V29.42H136.255C135.682 29.42 135.228 29.52 134.895 29.72C134.562 29.92 134.395 30.28 134.395 30.8C134.395 31.2933 134.542 31.6333 134.835 31.82C135.128 32.0067 135.622 32.1 136.315 32.1C136.568 32.1 136.815 32.0867 137.055 32.06C137.308 32.0333 137.522 31.9933 137.695 31.94V33.92C137.442 34 137.128 34.0667 136.755 34.12C136.395 34.1733 136.008 34.2 135.595 34.2ZM139.066 21.72V18.42H141.766V21.72H139.066ZM147.966 34.2C146.806 34.2 145.893 33.8533 145.226 33.16C144.559 32.4533 144.226 31.4733 144.226 30.22V23.2H146.926V30.06C146.926 30.7933 147.086 31.32 147.406 31.64C147.739 31.9467 148.226 32.1 148.866 32.1C149.373 32.1 149.866 31.9933 150.346 31.78C150.826 31.5667 151.213 31.3 151.506 30.98V23.2H154.206V34H151.726L151.606 32.94C151.126 33.3267 150.586 33.6333 149.986 33.86C149.386 34.0867 148.713 34.2 147.966 34.2ZM160.709 34.2C159.843 34.2 159.069 34.0133 158.389 33.64C157.709 33.2667 157.169 32.6867 156.769 31.9C156.383 31.1 156.189 30.0733 156.189 28.82C156.189 26.9133 156.523 25.4667 157.189 24.48C157.869 23.4933 158.783 23 159.929 23C160.503 23 160.949 23.0933 161.269 23.28C161.589 23.4667 161.856 23.7133 162.069 24.02C162.336 23.7133 162.703 23.4667 163.169 23.28C163.649 23.0933 164.136 23 164.629 23C165.576 23 166.269 23.2867 166.709 23.86C167.163 24.4333 167.389 25.1867 167.389 26.12V34H164.689V26.54C164.689 26.0733 164.623 25.72 164.489 25.48C164.369 25.2267 164.129 25.1 163.769 25.1C163.529 25.1 163.309 25.18 163.109 25.34C162.923 25.4867 162.789 25.7133 162.709 26.02H161.409C161.276 25.7133 161.136 25.4867 160.989 25.34C160.843 25.18 160.629 25.1 160.349 25.1C159.723 25.1 159.296 25.4467 159.069 26.14C158.856 26.82 158.749 27.7133 158.749 28.82C158.749 30.0333 158.963 30.8867 159.389 31.38C159.816 31.86 160.416 32.1 161.189 32.1C161.443 32.1 161.689 32.0867 161.929 32.06C162.183 32.0333 162.396 31.9933 162.569 31.94V33.92C162.329 34.0133 162.063 34.08 161.769 34.12C161.476 34.1733 161.123 34.2 160.709 34.2ZM164.613 21.72V18.42H167.313V21.72H164.613ZM173.833 34.2C172.939 34.2 172.106 34.12 171.333 33.96C170.559 33.7867 169.906 33.5867 169.373 33.36V27.68H173.953L174.073 29.66H171.933V31.84C172.186 31.92 172.486 31.9867 172.833 32.04C173.193 32.08 173.533 32.1 173.853 32.1C174.946 32.1 175.713 31.84 176.153 31.32C176.593 30.8 176.813 29.9067 176.813 28.64C176.813 27.7333 176.693 27.0267 176.453 26.52C176.226 26 175.846 25.6333 175.313 25.42C174.793 25.2067 174.079 25.1 173.173 25.1C172.586 25.1 171.973 25.1467 171.333 25.24C170.706 25.32 170.099 25.4533 169.513 25.64V23.62C170.113 23.42 170.799 23.2667 171.573 23.16C172.346 23.0533 173.099 23 173.833 23C175.779 23 177.186 23.4867 178.053 24.46C178.933 25.42 179.373 26.8133 179.373 28.64C179.373 30.4267 178.933 31.8 178.053 32.76C177.186 33.72 175.779 34.2 173.833 34.2Z" fill="white"/>
<defs>
<filter id="filter0_d_2131_15818" x="1" y="5" width="302" height="50" filterUnits="userSpaceOnUse" color-interpolation-filters="sRGB">
<feFlood flood-opacity="0" result="BackgroundImageFix"/>
<feColorMatrix in="SourceAlpha" type="matrix" values="0 0 0 0 0 0 0 0 0 0 0 0 0 0 0 0 0 0 127 0" result="hardAlpha"/>
<feOffset dy="4"/>
<feGaussianBlur stdDeviation="2"/>
<feComposite in2="hardAlpha" operator="out"/>
<feColorMatrix type="matrix" values="0 0 0 0 0 0 0 0 0 0 0 0 0 0 0 0 0 0 0.25 0"/>
<feBlend mode="normal" in2="BackgroundImageFix" result="effect1_dropShadow_2131_15818"/>
<feBlend mode="normal" in="SourceGraphic" in2="effect1_dropShadow_2131_15818" result="shape"/>
</filter>
<radialGradient id="paint0_radial_2131_15818" cx="0" cy="0" r="1" gradientUnits="userSpaceOnUse" gradientTransform="translate(155.5 47) rotate(-90) scale(54 100.522)">
<stop stop-color="#8E1EFE"/>
<stop offset="1" stop-color="#6B01FF"/>
</radialGradient>
</defs>
</svg>
