<svg width="20" height="21" viewBox="0 0 20 21" fill="none" xmlns="http://www.w3.org/2000/svg">
<path d="M9.99967 17.1668C8.13856 17.1668 6.56217 16.521 5.27051 15.2293C3.97884 13.9377 3.33301 12.3613 3.33301 10.5002C3.33301 8.63905 3.97884 7.06266 5.27051 5.771C6.56217 4.47933 8.13856 3.8335 9.99967 3.8335C10.958 3.8335 11.8747 4.03141 12.7497 4.42725C13.6247 4.82308 14.3747 5.38905 14.9997 6.12516V3.8335H16.6663V9.66683H10.833V8.00016H14.333C13.8886 7.22238 13.2809 6.61127 12.5101 6.16683C11.7393 5.72238 10.9025 5.50016 9.99967 5.50016C8.61079 5.50016 7.43023 5.98627 6.45801 6.9585C5.48579 7.93072 4.99967 9.11127 4.99967 10.5002C4.99967 11.8891 5.48579 13.0696 6.45801 14.0418C7.43023 15.0141 8.61079 15.5002 9.99967 15.5002C11.0691 15.5002 12.0344 15.1946 12.8955 14.5835C13.7566 13.9724 14.3608 13.1668 14.708 12.1668H16.458C16.0691 13.6391 15.2775 14.8404 14.083 15.771C12.8886 16.7016 11.5275 17.1668 9.99967 17.1668Z" fill="#333333"/>
</svg>
