<svg width="16" height="16" viewBox="0 0 16 16" fill="none" xmlns="http://www.w3.org/2000/svg">
<path d="M9.27868 14.5472H4.68956C4.43869 14.5472 4.23065 14.3391 4.23065 14.0883C4.23065 13.8374 4.43869 13.6294 4.68956 13.6294H9.27868C11.561 13.6294 13.4089 11.7815 13.4089 9.49915C13.4089 7.21683 11.561 5.36894 9.27868 5.36894H3.09866L5.13623 6.99655C5.33203 7.15564 5.36874 7.44322 5.20965 7.63903C5.05056 7.83483 4.76298 7.87154 4.56717 7.71245L1.50776 5.26492C1.27525 5.08136 1.27525 4.73259 1.50776 4.54902L4.56717 2.10149C4.76298 1.9424 5.05668 1.97299 5.20965 2.17492C5.36874 2.37072 5.33815 2.66442 5.13623 2.81739L3.09866 4.445H9.27868C12.0689 4.445 14.3267 6.70285 14.3267 9.49303C14.3267 12.2832 12.0689 14.5411 9.27868 14.5411V14.5472Z" fill="url(#paint0_linear_133_302)" stroke="url(#paint1_linear_133_302)"/>
<defs>
<linearGradient id="paint0_linear_133_302" x1="7.83004" y1="8.2736" x2="7.83004" y2="2.00002" gradientUnits="userSpaceOnUse">
<stop stop-color="white"/>
</linearGradient>
<linearGradient id="paint1_linear_133_302" x1="7.83004" y1="8.2736" x2="7.83004" y2="2.00002" gradientUnits="userSpaceOnUse">
<stop stop-color="white"/>
</linearGradient>
</defs>
</svg>
