<svg width="125" height="13" viewBox="0 0 125 13" fill="none" xmlns="http://www.w3.org/2000/svg">
<g clip-path="url(#clip0_151_65985)">
<path d="M0.137782 6.34718C0.215915 6.26842 0.309796 6.15816 0.421955 6.01639C0.532858 5.87272 0.685339 5.7322 0.879406 5.59674C1.07538 5.46001 1.31985 5.34532 1.61221 5.25332C1.90396 5.16386 2.58383 5.15062 3.00034 5.19159C3.31223 5.21742 3.59577 5.28043 3.85033 5.37809C4.10554 5.47576 4.31913 5.56144 4.49493 5.64148C4.66884 5.72024 4.80558 5.76876 4.90324 5.78703C5.00342 5.8072 5.05131 5.75301 5.05131 5.62257V5.54381H5.96749V5.65975C5.96749 5.86956 5.88935 6.07939 5.73372 6.2949C5.57682 6.51039 5.27816 6.60427 4.83519 6.5778C4.61276 6.56646 4.43507 6.53118 4.29834 6.4814C4.16224 6.42973 4.02803 6.37366 3.89948 6.31316C3.76779 6.25583 3.62854 6.201 3.47858 6.14871C3.32924 6.09578 3.13832 6.06554 2.90392 6.05167C2.48554 6.0252 2.16482 6.0857 1.93672 6.23818C1.708 6.38625 1.55677 6.51857 1.47737 6.63704L3.93855 7.2035C4.52266 7.34779 4.93727 7.52108 5.17733 7.729C5.4174 7.93945 5.54027 8.2835 5.54027 8.76488L5.52011 10.8738C5.52011 10.9652 5.50561 11.1063 5.47916 11.3029C5.45268 11.4983 5.37896 11.6917 5.25547 11.8864C5.1326 12.0843 4.94041 12.255 4.67892 12.4056C4.41995 12.5549 4.05449 12.6287 3.58632 12.6287H0.365248L0.483075 12.4541C0.585781 12.2972 0.642488 12.1069 0.648793 11.8782C0.653833 11.6508 0.657618 11.434 0.657618 11.2248L0.677151 8.06232H2.00477C1.99091 8.41391 1.98713 8.74661 1.98713 9.05663V9.91546C1.97201 10.1505 1.9657 10.3773 1.9657 10.6004V11.1838V11.7516H3.41116C3.63106 11.7516 3.79805 11.7182 3.90893 11.6533C4.01921 11.5877 4.09418 11.509 4.13388 11.4182C4.18555 11.3275 4.20446 11.2122 4.19185 11.0685L4.21076 8.80332C4.21076 8.63319 4.17736 8.49772 4.11309 8.3925C4.04819 8.29042 3.97636 8.20599 3.89948 8.14045C3.89948 8.14045 3.76653 8.03019 3.60585 7.98356L1.84977 7.59352L0.092411 7.2035L0.131477 6.34404" fill="white"/>
<path d="M14.032 5.19442L14.0132 9.44885C14.0132 9.70784 13.981 9.91451 13.9161 10.062C13.8506 10.2132 13.7788 10.319 13.7013 10.3858C13.923 10.4898 14.0799 10.6473 14.1694 10.8628C14.2601 11.0783 14.3005 11.3033 14.2872 11.537C14.2734 11.8766 14.1436 12.1602 13.8972 12.3946C13.6489 12.629 13.3427 12.7487 12.9785 12.7487C12.7448 12.7487 12.5324 12.7027 12.344 12.6202C12.1556 12.5364 12 12.4185 11.8752 12.2686C11.7517 12.1186 11.6666 11.9497 11.6219 11.7613C11.5765 11.5729 11.5866 11.3745 11.6522 11.1646C11.5463 11.1923 11.4102 11.227 11.2401 11.273C11.0731 11.3196 10.8973 11.3934 10.7158 11.4986C10.5312 11.6013 10.3567 11.7386 10.1865 11.9094C10.0183 12.0777 9.88787 12.2894 9.79587 12.5534L9.75871 12.629H8.19668L8.29372 12.4545C8.39705 12.2723 8.45628 12.0739 8.46952 11.8577C8.48211 11.6429 8.48842 11.4343 8.48842 11.2251L8.52874 7.67198C8.47707 7.67198 8.44304 7.67449 8.43108 7.68143C8.41596 7.6871 8.39705 7.69026 8.37122 7.69026C7.99378 7.69026 7.6655 7.57683 7.38637 7.34937C7.10723 7.12315 6.96672 6.81882 6.96672 6.44076C6.96672 6.06585 7.10345 5.76277 7.37629 5.53404C7.64975 5.30468 7.98874 5.19189 8.39138 5.19189C8.50921 5.19189 8.64783 5.20954 8.81166 5.23979C8.97548 5.27318 9.13427 5.33557 9.28928 5.42629C9.44555 5.51955 9.57975 5.6481 9.6894 5.81758C9.79966 5.98709 9.85574 6.20636 9.85574 6.48171L9.81603 11.0487C10.506 10.5282 11.3012 10.2686 12.1985 10.2686C12.315 10.2686 12.4247 10.2132 12.5286 10.1023C12.6332 9.99012 12.6862 9.76517 12.6862 9.42744L12.7044 5.19189L14.032 5.19442ZM8.37122 6.98769C8.58042 6.98769 8.73604 6.93223 8.84253 6.8226C8.94398 6.71295 8.99566 6.58632 8.99566 6.45084C8.99566 6.31348 8.94398 6.18934 8.84253 6.07152C8.73604 5.95306 8.58042 5.89383 8.37122 5.89383C8.16518 5.89383 8.00702 5.95306 7.90243 6.07152C7.79972 6.18934 7.74679 6.31348 7.74679 6.45084C7.74679 6.58632 7.79972 6.71295 7.90243 6.8226C8.00702 6.93223 8.16518 6.98769 8.37122 6.98769ZM12.9401 10.8924C12.7296 10.8924 12.5759 10.951 12.4713 11.0689C12.3673 11.1842 12.3125 11.314 12.3043 11.4583C12.2986 11.6013 12.3472 11.7311 12.453 11.8483C12.5557 11.9661 12.7107 12.0247 12.9193 12.0247C13.1272 12.0247 13.2847 11.9661 13.39 11.8483C13.4927 11.7311 13.5456 11.6013 13.5456 11.4583C13.5456 11.314 13.4927 11.1842 13.39 11.0689C13.2847 10.951 13.1354 10.8924 12.9401 10.8924Z" fill="white"/>
<path d="M18.2017 12.6272L18.237 7.22223C18.237 7.01492 18.2288 6.83094 18.2074 6.6753C18.1897 6.51841 18.1469 6.38672 18.0826 6.27456C18.0171 6.16554 17.91 6.07923 17.7594 6.02C17.6107 5.96328 17.4122 5.93178 17.1639 5.93178C16.8652 5.93178 16.634 5.97966 16.4714 6.07103C16.3076 6.16303 16.1753 6.27581 16.0423 6.38293C15.8124 6.56565 15.8124 6.5833 15.6517 6.70554L15.152 6.32245L15.3688 6.10947C15.4733 6.00488 15.5994 5.88389 15.75 5.74842C15.8987 5.61231 16.0896 5.48629 16.324 5.36846C16.5597 5.24938 16.8596 5.19203 17.2231 5.19203C18.0958 5.18007 18.7058 5.33885 19.0586 5.67028C19.409 6.00298 19.5797 6.46232 19.5646 7.0458L19.53 12.6323L18.2017 12.6272Z" fill="white"/>
<path d="M31.4561 12.6272L31.4914 7.22223C31.4914 7.01492 31.4838 6.83094 31.4617 6.6753C31.4441 6.51841 31.4012 6.38672 31.3376 6.27456C31.2721 6.16554 31.1643 6.07923 31.0144 6.02C30.865 5.96328 30.6665 5.93178 30.4189 5.93178C30.1196 5.93178 29.8884 5.97966 29.7264 6.07103C29.562 6.16303 29.4297 6.27581 29.2967 6.38293C29.0667 6.56565 29.0667 6.5833 28.906 6.70554L28.4064 6.32245L28.6231 6.10947C28.7277 6.00488 28.8537 5.88389 29.0043 5.74842C29.153 5.61231 29.344 5.48629 29.579 5.36846C29.814 5.24938 30.1139 5.19203 30.4775 5.19203C31.3502 5.18007 31.9601 5.33885 32.313 5.67028C32.6633 6.00298 32.8347 6.46232 32.8196 7.0458L32.7843 12.6323L31.4561 12.6272Z" fill="white"/>
<path d="M26.146 12.6353L26.1832 7.26177C26.1832 7.14331 26.1598 7.01287 26.1145 6.86167C26.0685 6.71295 25.9847 6.57559 25.8599 6.45082C25.7351 6.32733 25.5581 6.22274 25.3243 6.12884C25.0899 6.03812 24.79 5.99275 24.4258 5.99275C23.9973 5.99275 23.6483 6.03812 23.3817 6.12884C23.1152 6.22274 22.9066 6.3349 22.7566 6.47289C22.6067 6.60836 22.5097 6.76777 22.4637 6.94861C22.4183 7.13072 22.4013 7.30715 22.4158 7.47728C22.4271 7.68457 22.441 7.86982 22.4536 8.03238C22.4681 8.19559 22.4731 8.3424 22.4731 8.47345C22.6313 8.06829 22.8386 7.74317 23.0982 7.49616C23.3571 7.24792 23.7352 7.12568 24.2305 7.12568C24.5688 7.12568 24.8454 7.23909 25.0597 7.46655C25.2752 7.69528 25.3817 7.96496 25.3817 8.27749C25.3691 8.62846 25.2411 8.89059 25.0023 9.06827C24.761 9.24344 24.4964 9.3304 24.2109 9.3304C23.952 9.3304 23.7528 9.2888 23.6174 9.20563C23.4781 9.11869 23.3773 9.03173 23.313 8.94099C23.1568 9.29008 23.0528 9.58496 23.0011 9.81873C22.9488 10.0538 22.9117 10.263 22.8934 10.4419C22.8745 10.6259 22.8644 10.8042 22.8644 10.9813C22.8644 11.1564 22.8468 11.3688 22.8045 11.6158C22.8045 11.6416 22.8008 11.6996 22.7957 11.7909C22.79 11.8823 22.7737 11.9825 22.7472 12.094C22.7214 12.2018 22.6792 12.3082 22.6199 12.4059C22.5626 12.5042 22.4794 12.5723 22.3767 12.6094V12.629H21.1272L21.2249 12.4544C21.3282 12.2723 21.3906 12.0543 21.4095 11.7991C21.4284 11.5465 21.4391 11.2957 21.4391 11.0493C21.4265 10.905 21.4158 10.7576 21.4095 10.6114C21.4026 10.4614 21.3938 10.3064 21.3805 10.1508V10.1325C21.3805 10.0134 21.3704 9.83826 21.3509 9.60386C21.332 9.36884 21.3131 9.12499 21.2929 8.87357C21.2721 8.61838 21.2564 8.38461 21.2432 8.16849C21.2312 7.95551 21.2249 7.80177 21.2249 7.70977V7.72931C21.1991 7.26177 21.2696 6.86481 21.4391 6.53904C21.6086 6.21392 21.8392 5.95053 22.1335 5.74828C22.4246 5.54663 22.7705 5.40613 23.1662 5.31792C23.5638 5.23473 23.9835 5.19189 24.4258 5.19189C25.4025 5.19189 26.1598 5.39541 26.6992 5.79868C27.2398 6.20131 27.5095 6.67577 27.5095 7.2227L27.4749 12.6321L26.146 12.6353ZM24.2109 8.74692C24.4069 8.74692 24.5562 8.69147 24.6596 8.58877C24.7654 8.48543 24.8152 8.36823 24.8152 8.23842C24.8152 8.10801 24.7679 7.99016 24.6703 7.88494C24.5726 7.78287 24.4201 7.72931 24.2109 7.72931C24.0162 7.72931 23.87 7.78287 23.7724 7.88494C23.6735 7.99016 23.6224 8.10801 23.6174 8.23842C23.6092 8.36823 23.6552 8.48543 23.7528 8.58877C23.8499 8.69147 24.0024 8.74692 24.2109 8.74692Z" fill="white"/>
<path d="M34.2031 6.34497C34.2806 6.26872 34.3751 6.15846 34.486 6.01543C34.5976 5.87176 34.7488 5.73187 34.946 5.59451C35.1407 5.45842 35.3814 5.34436 35.6662 5.25364C35.9548 5.1629 36.6334 5.15093 37.0644 5.19188C37.3763 5.21708 37.6573 5.27757 37.9031 5.36831C38.1513 5.45842 38.3612 5.54411 38.5382 5.62224C38.7134 5.69975 38.8545 5.7533 38.9566 5.77662C39.0631 5.80371 39.1267 5.75835 39.1513 5.64115L39.1727 5.54411H40.0335L40.0114 5.66005C40.0114 5.76654 39.9931 5.87176 39.9528 5.98329C39.9131 6.09357 39.8526 6.195 39.7682 6.28574C39.6825 6.37646 39.5684 6.45083 39.426 6.51069C39.2824 6.56929 39.1066 6.59198 38.8993 6.57811C38.6768 6.56676 38.496 6.53147 38.3523 6.48107C38.2087 6.4294 38.0764 6.37395 37.9516 6.31347C37.8275 6.25613 37.692 6.20131 37.5427 6.14838C37.3933 6.09608 37.2005 6.06584 36.9661 6.05134C36.5509 6.02487 36.2289 6.086 35.9989 6.23848C35.7733 6.38655 35.619 6.51888 35.5408 6.63734C35.5276 6.63734 35.6227 6.65687 35.825 6.69657C36.0273 6.73247 36.251 6.78603 36.4986 6.85095C36.6397 6.87678 36.7941 6.91143 36.956 6.94861C37.1199 6.98768 37.2913 7.02737 37.4746 7.06517C37.7342 7.13071 37.9711 7.19623 38.186 7.26177C38.4015 7.3273 38.583 7.41488 38.7329 7.52578C38.8829 7.63479 38.9969 7.78789 39.0738 7.98385C39.1513 8.17919 39.1916 8.44635 39.1916 8.78346L39.1513 11.2434C39.1513 11.5452 39.0952 11.7878 38.9768 11.9756C38.8583 12.1658 38.7172 12.3177 38.5489 12.4336C38.3782 12.5534 38.1961 12.6321 38.0014 12.6781C37.8067 12.7241 37.624 12.7487 37.4544 12.7487C37.0096 12.7487 36.6681 12.6239 36.4198 12.3757C36.1728 12.1287 36.0481 11.8294 36.0481 11.4765C36.0481 11.1797 36.118 10.9416 36.2535 10.7639C36.3908 10.5906 36.5509 10.4633 36.7317 10.3858C36.9012 10.3064 37.1287 10.2554 37.416 10.2277C37.4941 10.2428 37.5635 10.2497 37.6208 10.2497C37.6788 10.2497 37.7544 10.2629 37.8457 10.2869L37.8653 8.78346C37.8653 8.45834 37.825 8.23843 37.7468 8.11933C37.6687 8.00466 37.4671 7.91392 37.1413 7.84712L34.1552 7.2038L34.2031 6.34497ZM37.4746 10.951C37.2654 10.951 37.1098 11.0084 37.0039 11.1268C36.9012 11.2434 36.8464 11.3713 36.8407 11.5074C36.8332 11.6429 36.8804 11.7695 36.9863 11.8867C37.089 12.0058 37.2465 12.0638 37.4544 12.0638C37.6611 12.0638 37.8224 12.0058 37.934 11.8867C38.0442 11.7695 38.099 11.6429 38.099 11.5074C38.099 11.3713 38.0461 11.2434 37.9434 11.1268C37.8388 11.0084 37.6813 10.951 37.4746 10.951Z" fill="white"/>
<path d="M72.0534 6.34497C72.1334 6.26872 72.226 6.15846 72.3369 6.01543C72.4472 5.87176 72.6016 5.73187 72.7944 5.59451C72.991 5.45842 73.231 5.34436 73.5184 5.25364C73.8051 5.1629 74.485 5.15093 74.9141 5.19188C75.2272 5.21708 75.5076 5.27757 75.7546 5.36831C76.0022 5.45842 76.2133 5.54411 76.3885 5.62224C76.5649 5.69975 76.7048 5.7533 76.8088 5.77662C76.9134 5.80371 76.9776 5.75835 77.0047 5.64115L77.0224 5.54411H77.8818L77.8617 5.66005C77.8617 5.76654 77.844 5.87176 77.8031 5.98329C77.7659 6.09357 77.7035 6.195 77.6178 6.28574C77.5346 6.37646 77.4193 6.45083 77.2776 6.51069C77.1333 6.56929 76.9587 6.59198 76.7495 6.57811C76.5296 6.56676 76.3469 6.53147 76.2051 6.48107C76.0596 6.4294 75.9266 6.37395 75.8044 6.31347C75.6802 6.25613 75.5429 6.20131 75.3942 6.14838C75.2442 6.09608 75.052 6.06584 74.817 6.05134C74.4018 6.02487 74.0804 6.086 73.8504 6.23848C73.623 6.38655 73.4699 6.51888 73.3936 6.63734C73.3791 6.63734 73.4743 6.65687 73.6753 6.69657C73.8769 6.73247 74.1018 6.78603 74.3495 6.85095C74.4919 6.87678 74.6456 6.91143 74.8082 6.94861C74.9714 6.98768 75.1428 7.02737 75.3255 7.06517C75.5857 7.13071 75.8252 7.19623 76.0382 7.26177C76.2543 7.3273 76.4339 7.41488 76.5844 7.52578C76.7344 7.63479 76.8478 7.78789 76.926 7.98385C77.0047 8.17919 77.0432 8.44635 77.0432 8.78346L77.0047 11.2434C77.0047 11.5452 76.9449 11.7878 76.8283 11.9756C76.7111 12.1658 76.5681 12.3177 76.3998 12.4336C76.2297 12.5534 76.047 12.6321 75.8523 12.6781C75.6563 12.7241 75.4748 12.7487 75.3072 12.7487C74.8611 12.7487 74.5171 12.6239 74.2713 12.3757C74.0237 12.1287 73.9008 11.8294 73.9008 11.4765C73.9008 11.1797 73.9689 10.9416 74.1056 10.7639C74.2424 10.5906 74.4018 10.4633 74.5826 10.3858C74.7521 10.3064 74.9808 10.2554 75.2682 10.2277C75.3444 10.2428 75.4137 10.2497 75.4723 10.2497C75.5297 10.2497 75.604 10.2629 75.6954 10.2869L75.7168 8.78346C75.7168 8.45834 75.679 8.23843 75.5996 8.11933C75.5202 8.00466 75.3179 7.91392 74.9934 7.84712L72.0074 7.2038L72.0534 6.34497ZM75.3255 10.951C75.1169 10.951 74.9594 11.0084 74.858 11.1268C74.7521 11.2434 74.6979 11.3713 74.6904 11.5074C74.6834 11.6429 74.7326 11.7695 74.8359 11.8867C74.9418 12.0058 75.0987 12.0638 75.3072 12.0638C75.5139 12.0638 75.6733 12.0058 75.7842 11.8867C75.8945 11.7695 75.9499 11.6429 75.9499 11.5074C75.9499 11.3713 75.8983 11.2434 75.7943 11.1268C75.6891 11.0084 75.5316 10.951 75.3255 10.951Z" fill="white"/>
<path d="M42.9186 5.19442L42.9009 10.2277C43.3307 10.1899 43.7068 10.2856 44.0332 10.5125C44.3577 10.7393 44.5146 11.055 44.5014 11.4583C44.5014 11.8357 44.3621 12.1457 44.0824 12.3864C43.802 12.6277 43.4479 12.7487 43.0181 12.7487C42.6017 12.7487 42.2538 12.6416 41.9741 12.4336C41.6924 12.2276 41.5525 11.9529 41.5525 11.6158L41.5916 5.19189L42.9186 5.19442ZM42.9992 12.0247C43.221 12.0247 43.3893 11.9705 43.5052 11.8577C43.6249 11.7487 43.6823 11.6259 43.6823 11.4898C43.6823 11.3524 43.6262 11.2251 43.5159 11.1067C43.405 10.9895 43.2336 10.9327 42.9992 10.9327C42.79 10.9327 42.6344 10.9895 42.5311 11.1067C42.4252 11.2251 42.3729 11.3524 42.3729 11.4898C42.3729 11.6259 42.4252 11.7487 42.5311 11.8577C42.6344 11.9705 42.79 12.0247 42.9992 12.0247Z" fill="white"/>
<path d="M46.7832 5.19442L46.7649 10.2277C47.1947 10.1899 47.5715 10.2856 47.8979 10.5125C48.2224 10.7393 48.3793 11.055 48.3654 11.4583C48.3654 11.8357 48.2262 12.1457 47.9464 12.3864C47.6666 12.6277 47.3125 12.7487 46.8828 12.7487C46.4663 12.7487 46.1185 12.6416 45.8387 12.4336C45.557 12.2276 45.4172 11.9529 45.4172 11.6158L45.4556 5.19189L46.7832 5.19442ZM46.8639 12.0247C47.085 12.0247 47.2539 11.9705 47.3699 11.8577C47.489 11.7487 47.5469 11.6259 47.5469 11.4898C47.5469 11.3524 47.4908 11.2251 47.3806 11.1067C47.269 10.9895 47.0976 10.9327 46.8639 10.9327C46.6541 10.9327 46.4991 10.9895 46.3957 11.1067C46.2892 11.2251 46.2376 11.3524 46.2376 11.4898C46.2376 11.6259 46.2892 11.7487 46.3957 11.8577C46.4991 11.9705 46.6541 12.0247 46.8639 12.0247Z" fill="white"/>
<path d="M86.6115 5.19442L86.5932 10.2277C87.0229 10.1899 87.3991 10.2856 87.7261 10.5125C88.0506 10.7393 88.2075 11.055 88.193 11.4583C88.193 11.8357 88.0544 12.1457 87.7746 12.3864C87.4949 12.6277 87.1401 12.7487 86.711 12.7487C86.2939 12.7487 85.9461 12.6416 85.6663 12.4336C85.3847 12.2276 85.2454 11.9529 85.2454 11.6158L85.2832 5.19189L86.6115 5.19442ZM86.6921 12.0247C86.9133 12.0247 87.0821 11.9705 87.1981 11.8577C87.3172 11.7487 87.3745 11.6259 87.3745 11.4898C87.3745 11.3524 87.3191 11.2251 87.2082 11.1067C87.0966 10.9895 86.9265 10.9327 86.6921 10.9327C86.4829 10.9327 86.3273 10.9895 86.2233 11.1067C86.1181 11.2251 86.0652 11.3524 86.0652 11.4898C86.0652 11.6259 86.1181 11.7487 86.2233 11.8577C86.3273 11.9705 86.4829 12.0247 86.6921 12.0247Z" fill="white"/>
<path d="M54.7263 12.6271L54.7452 8.17859C54.7452 7.91897 54.6481 7.76965 54.4541 7.72868C54.2461 7.67765 54.0754 7.78792 53.9462 8.06202L51.7604 12.6284H50.1971L50.2948 12.4538C50.3994 12.2717 50.4586 12.0732 50.4706 11.8577C50.4832 11.6423 50.4914 11.4337 50.4914 11.2245L50.5292 7.68961C50.4756 7.68961 50.4441 7.69465 50.4309 7.70034C50.4195 7.70789 50.3994 7.70979 50.3735 7.70979C49.9948 7.72238 49.6666 7.6096 49.3887 7.36765C49.1089 7.12756 48.9678 6.81819 48.9678 6.44076C48.9678 6.06585 49.1058 5.76214 49.3767 5.53404C49.6514 5.30468 49.9904 5.19189 50.3931 5.19189C50.5103 5.19189 50.6495 5.20954 50.814 5.23916C50.9759 5.27318 51.1341 5.33492 51.2916 5.42566C51.4453 5.51955 51.5802 5.6481 51.6911 5.81696C51.8007 5.98646 51.8568 6.20636 51.8568 6.48108L51.8366 10.0128L53.0281 7.70979C53.093 7.56802 53.1592 7.45774 53.2235 7.38844C53.2884 7.3166 53.352 7.25359 53.4182 7.20318C53.2499 7.07338 53.1428 6.89444 53.0968 6.66571C53.0508 6.43761 53.0779 6.21645 53.1756 6.00284C53.2726 5.78671 53.4346 5.59958 53.6633 5.43575C53.8901 5.27318 54.1919 5.19189 54.57 5.19189C54.9342 5.19189 55.2341 5.27318 55.4679 5.43575C55.7036 5.59958 55.8655 5.79364 55.9562 6.01986C56.047 6.24922 56.0678 6.48738 56.0161 6.7325C55.9632 6.98075 55.8396 7.18995 55.6443 7.35945C55.747 7.42309 55.846 7.52076 55.9361 7.64992C56.0287 7.78288 56.0734 7.98326 56.0734 8.25607L56.0545 12.6321L54.7263 12.6271ZM50.3735 6.98769C50.5808 6.98769 50.7384 6.93223 50.843 6.82197C50.9457 6.71233 50.998 6.58632 50.998 6.45084C50.998 6.31348 50.9457 6.18871 50.843 6.07089C50.7384 5.95243 50.5808 5.89383 50.3735 5.89383C50.1656 5.89383 50.01 5.95243 49.9041 6.07089C49.8014 6.18871 49.7491 6.31348 49.7491 6.45084C49.7491 6.58632 49.8014 6.71233 49.9041 6.82197C50.01 6.93223 50.1656 6.98769 50.3735 6.98769ZM54.5505 7.02676C54.759 7.02676 54.9147 6.9713 55.0199 6.86104C55.1226 6.75139 55.1755 6.62601 55.1755 6.49116C55.1755 6.35255 55.1226 6.22653 55.0199 6.10933C54.9147 5.99213 54.759 5.93164 54.5505 5.93164C54.3413 5.93164 54.1863 5.99213 54.0829 6.10933C53.979 6.22653 53.926 6.35255 53.926 6.49116C53.926 6.62601 53.979 6.75139 54.0829 6.86104C54.1863 6.9713 54.3413 7.02676 54.5505 7.02676Z" fill="white"/>
<path d="M62.6265 10.9302C62.6265 11.0487 62.5836 11.2012 62.4992 11.3896C62.4135 11.5786 62.29 11.7632 62.13 11.946C61.9655 12.1281 61.7708 12.2894 61.5421 12.4337C61.3165 12.5779 61.0582 12.6624 60.7734 12.6876L58.5075 12.5717L58.5453 12.4337C58.5976 12.2774 58.6165 12.1041 58.6039 11.9088C58.5913 11.7122 58.573 11.549 58.5453 11.4186L58.1168 9.01787C58.0904 8.83577 58.0362 8.63162 57.9505 8.40416C57.8654 8.17543 57.7652 7.97127 57.6487 7.78792L57.5705 7.67198L58.6631 7.28069L58.7022 7.31913C58.8207 7.43758 58.9234 7.61905 59.0141 7.86541C59.1048 8.11367 59.183 8.39218 59.2491 8.70661L59.7967 11.7305C59.8351 11.7456 59.9423 11.7607 60.1174 11.7809C60.2939 11.7985 60.4463 11.8042 60.5774 11.7903C60.7734 11.7632 60.9447 11.6719 61.0934 11.5169C61.2434 11.3612 61.3184 11.1722 61.3184 10.951L61.3392 7.67198C61.2995 7.67198 61.2718 7.67449 61.2598 7.68143C61.2466 7.6871 61.2264 7.68961 61.2012 7.68961C60.825 7.71609 60.4904 7.6096 60.2056 7.36765C59.9196 7.12756 59.7772 6.81819 59.7772 6.44076C59.7885 6.06585 59.9334 5.76214 60.2056 5.53404C60.4797 5.30468 60.8111 5.19189 61.2012 5.19189C61.3184 5.19189 61.4608 5.2045 61.6315 5.23096C61.7998 5.25744 61.9623 5.31604 62.1192 5.40613C62.2749 5.4975 62.4091 5.62857 62.5194 5.79805C62.629 5.9663 62.6851 6.19503 62.6851 6.48108L62.6265 10.9302ZM61.2012 5.89383C60.9939 5.89383 60.8376 5.95243 60.7311 6.07089C60.6284 6.18871 60.5774 6.31348 60.5774 6.45084C60.5774 6.58632 60.6284 6.71297 60.7311 6.8226C60.8376 6.93223 60.9869 6.98769 61.1823 6.98769C61.389 6.98769 61.5459 6.93223 61.6504 6.8226C61.7538 6.71297 61.8042 6.58632 61.8042 6.45084C61.8042 6.31348 61.7576 6.18871 61.6605 6.07089C61.5629 5.95243 61.4091 5.89383 61.2012 5.89383Z" fill="white"/>
<path d="M83.3794 10.3271C83.3794 10.6925 83.305 11.0032 83.1551 11.2634C83.0057 11.5236 82.8079 11.7385 82.559 11.9093C82.312 12.0775 82.0297 12.201 81.7109 12.2772C81.3927 12.3554 81.0707 12.3944 80.7456 12.3944C80.198 12.3944 79.7922 12.2722 79.5244 12.0252C79.2573 11.7788 79.1079 11.5047 79.0764 11.2061C79.0436 10.9049 79.1281 10.6333 79.3291 10.3857C79.5301 10.1374 79.8262 10.0133 80.2182 10.0133C80.4904 10.0133 80.7128 10.0694 80.8817 10.1796C81.0518 10.2893 81.1715 10.4266 81.2421 10.5904C81.3133 10.7511 81.3479 10.9257 81.3391 11.1065C81.3328 11.2892 81.2975 11.4461 81.2333 11.5772C81.3246 11.5627 81.4298 11.5331 81.5552 11.4896C81.6781 11.443 81.7953 11.3711 81.9075 11.2729C82.0177 11.1739 82.1141 11.0536 82.1992 10.9011C82.2843 10.7511 82.3334 10.5602 82.3454 10.3271L82.3649 10.2092H83.3794V10.3271ZM83.4178 5.64163C83.4178 6.00521 83.3428 6.319 83.1948 6.57797C83.0442 6.8401 82.8469 7.05369 82.5987 7.22256C82.3523 7.39269 82.0688 7.51619 81.7487 7.59369C81.4298 7.67183 81.1085 7.71026 80.784 7.71026C80.2364 7.71026 79.8325 7.58677 79.5647 7.33976C79.2963 7.0934 79.1527 6.82245 79.1237 6.52819C79.0991 6.23835 79.1823 5.96677 79.3782 5.72041C79.5736 5.4734 79.8666 5.34863 80.2566 5.34863C80.5307 5.34863 80.7506 5.40598 80.9188 5.51435C81.0896 5.62463 81.2106 5.76261 81.2818 5.92455C81.3523 6.08648 81.3864 6.25914 81.3788 6.44061C81.3725 6.6246 81.336 6.78022 81.2717 6.91129C81.3624 6.89932 81.4702 6.86718 81.5924 6.82245C81.7172 6.77708 81.835 6.70525 81.9453 6.60821C82.0549 6.51117 82.1519 6.38326 82.2389 6.22637C82.3221 6.07136 82.3706 5.87415 82.3838 5.64163L82.4034 5.54396H83.4178V5.64163ZM80.1785 11.5558C80.336 11.5558 80.4544 11.5073 80.5408 11.4102C80.6233 11.3113 80.6668 11.2086 80.6668 11.0964C80.6668 10.9855 80.6271 10.8828 80.5496 10.7864C80.4715 10.6869 80.3467 10.6383 80.1785 10.6383C80.0235 10.6383 79.9088 10.6869 79.837 10.7864C79.7657 10.8828 79.7298 10.9855 79.7298 11.0964C79.7298 11.2086 79.7657 11.3113 79.837 11.4102C79.9088 11.5073 80.0235 11.5558 80.1785 11.5558ZM80.2182 6.86908C80.3738 6.86908 80.4941 6.82686 80.5786 6.73235C80.6636 6.64539 80.7071 6.5389 80.7071 6.42359C80.7071 6.3045 80.6668 6.20117 80.5887 6.1098C80.5086 6.01845 80.387 5.97307 80.2182 5.97307C80.0606 5.97307 79.9472 6.01845 79.8754 6.1098C79.8054 6.20117 79.7689 6.3045 79.7689 6.42359C79.7689 6.5389 79.8054 6.64539 79.8754 6.73235C79.9472 6.82686 80.0606 6.86908 80.2182 6.86908Z" fill="white"/>
<path d="M94.2768 12.6283L94.3127 6.83078C94.3127 6.69973 94.3076 6.56867 94.3026 6.43131C94.295 6.29458 94.1822 6.21392 93.9592 6.18871L91.3235 12.6283H89.7627L89.8623 12.4538C89.9656 12.2717 90.0236 12.0732 90.0374 11.8571C90.0507 11.6422 90.057 11.4337 90.057 11.2245L90.0941 7.67135C90.0444 7.67135 90.0116 7.67449 89.9971 7.68143C89.9845 7.6871 89.9656 7.68961 89.9391 7.68961C89.5611 7.71546 89.2328 7.6096 88.9543 7.36763C88.6752 7.12756 88.534 6.81819 88.534 6.44076C88.534 6.06522 88.6695 5.76214 88.9436 5.53404C89.2177 5.30405 89.556 5.19189 89.9593 5.19189C90.0759 5.19189 90.2158 5.2045 90.3789 5.23096C90.5403 5.25742 90.7022 5.31602 90.8566 5.40613C91.0128 5.4975 91.1477 5.62792 91.2579 5.79805C91.367 5.9663 91.4224 6.19501 91.4224 6.48108L91.384 10.3455L93.394 5.30847H93.4532C94.0254 5.25742 94.462 5.2864 94.7619 5.39793C95.0606 5.50758 95.2748 5.64998 95.4059 5.82641C95.5357 6.00221 95.6063 6.18871 95.6208 6.38279C95.6327 6.57812 95.639 6.72935 95.639 6.83078L95.605 12.6283H94.2768ZM89.9391 6.98705C90.1477 6.98705 90.3027 6.9316 90.4067 6.82197C90.5113 6.71233 90.5642 6.58567 90.5642 6.45084C90.5642 6.31348 90.5113 6.18871 90.4067 6.07089C90.3027 5.95243 90.1477 5.89383 89.9391 5.89383C89.7293 5.89383 89.5749 5.95243 89.4716 6.07089C89.3664 6.18871 89.3147 6.31348 89.3147 6.45084C89.3147 6.58567 89.3664 6.71233 89.4716 6.82197C89.5749 6.9316 89.7293 6.98705 89.9391 6.98705Z" fill="white"/>
<path d="M115.308 12.6283L115.343 6.83078C115.343 6.69973 115.339 6.56867 115.334 6.43131C115.326 6.29458 115.213 6.21392 114.99 6.18871L112.355 12.6283H110.795L110.893 12.4538C110.997 12.2717 111.055 12.0732 111.069 11.8571C111.082 11.6422 111.088 11.4337 111.088 11.2245L111.125 7.67135C111.076 7.67135 111.043 7.67449 111.028 7.68143C111.016 7.6871 110.997 7.68961 110.97 7.68961C110.593 7.71546 110.264 7.6096 109.986 7.36763C109.706 7.12756 109.565 6.81819 109.565 6.44076C109.565 6.06522 109.701 5.76214 109.975 5.53404C110.25 5.30405 110.587 5.19189 110.991 5.19189C111.107 5.19189 111.247 5.2045 111.41 5.23096C111.571 5.25742 111.733 5.31602 111.888 5.40613C112.044 5.4975 112.179 5.62792 112.289 5.79805C112.398 5.9663 112.454 6.19501 112.454 6.48108L112.416 10.3455L114.426 5.30847H114.484C115.057 5.25742 115.493 5.2864 115.793 5.39793C116.092 5.50758 116.306 5.64998 116.437 5.82641C116.567 6.00221 116.637 6.18871 116.652 6.38279C116.664 6.57812 116.67 6.72935 116.67 6.83078L116.636 12.6283H115.308ZM110.97 6.98705C111.179 6.98705 111.334 6.9316 111.438 6.82197C111.542 6.71233 111.595 6.58567 111.595 6.45084C111.595 6.31348 111.542 6.18871 111.438 6.07089C111.334 5.95243 111.179 5.89383 110.97 5.89383C110.761 5.89383 110.607 5.95243 110.503 6.07089C110.398 6.18871 110.346 6.31348 110.346 6.45084C110.346 6.58567 110.398 6.71233 110.503 6.82197C110.607 6.9316 110.761 6.98705 110.97 6.98705Z" fill="white"/>
<path d="M97.4461 7.70972V7.72926C97.4461 7.23651 97.5343 6.82632 97.7101 6.50182C97.8853 6.17415 98.1203 5.91455 98.4127 5.7205C98.7069 5.52516 99.0465 5.38778 99.4366 5.30902C99.8285 5.23089 100.233 5.19183 100.648 5.19183C101.181 5.19183 101.597 5.18679 101.897 5.17294C102.196 5.1597 102.415 5.13134 102.552 5.08408C102.688 5.03934 102.769 4.965 102.796 4.86104C102.821 4.75643 102.833 4.61403 102.833 4.4294V4.29395H104.045V4.4105C104.084 4.84023 103.998 5.17419 103.791 5.41552C103.582 5.65748 103.327 5.80996 103.029 5.87423C103.174 5.99269 103.325 6.16282 103.489 6.38335C103.651 6.60453 103.732 6.88366 103.732 7.22265L103.695 12.6283L102.368 12.6296L102.406 7.26171C102.406 7.14326 102.382 7.01282 102.336 6.86097C102.29 6.7129 102.206 6.57554 102.082 6.45077C101.959 6.32665 101.781 6.22267 101.545 6.12816C101.31 6.03807 101.012 5.99269 100.648 5.99269C100.218 5.99269 99.8701 6.03807 99.6035 6.12816C99.3376 6.22267 99.1266 6.33483 98.9785 6.47219C98.8298 6.60767 98.7315 6.76772 98.6849 6.94856C98.6401 7.13002 98.6231 7.30645 98.6395 7.47658C98.6502 7.68388 98.6628 7.86977 98.6767 8.03171C98.6893 8.1949 98.6956 8.34171 98.6956 8.47277C98.8518 8.06824 99.0591 7.74312 99.3194 7.49611C99.5809 7.24722 99.957 7.12561 100.453 7.12561C100.791 7.12561 101.067 7.2384 101.282 7.46587C101.497 7.6946 101.603 7.96491 101.603 8.27681C101.591 8.62841 101.464 8.88989 101.225 9.06822C100.982 9.24276 100.719 9.3297 100.432 9.3297C100.173 9.3297 99.974 9.28813 99.8367 9.20558C99.7019 9.11799 99.6004 9.03166 99.5342 8.94031C99.3786 9.28938 99.269 9.58301 99.2034 9.80923C99.1366 10.0361 99.0957 10.2427 99.0761 10.4242C99.0573 10.6069 99.0465 10.7859 99.0465 10.9604C99.0465 11.1368 99.0409 11.353 99.0264 11.6151C99.0018 11.8218 98.9722 12.0077 98.9394 12.1702C98.9067 12.3328 98.7995 12.4865 98.6193 12.6283H97.349C97.3629 12.6176 97.3692 12.6056 97.3692 12.6018C97.3692 12.5943 97.3742 12.5848 97.3869 12.5716L97.4461 12.4538C97.5381 12.2464 97.6011 12.0473 97.6414 11.8577C97.6805 11.6693 97.7164 11.479 97.7019 11.2925C97.5746 9.65169 97.4461 7.70972 97.4461 7.70972ZM100.432 8.72355C100.614 8.72355 100.755 8.67377 100.852 8.56855C100.95 8.4652 100.999 8.35432 100.999 8.23837C100.999 8.11929 100.954 8.00964 100.862 7.90631C100.772 7.80172 100.627 7.74879 100.432 7.74879C100.251 7.74879 100.109 7.80172 100.014 7.90631C99.9148 8.00964 99.8638 8.11929 99.8575 8.23837C99.8505 8.35432 99.8965 8.4652 99.9942 8.56855C100.092 8.67377 100.237 8.72355 100.432 8.72355Z" fill="white"/>
<path d="M104.962 3.59043L104.78 3.16258C104.716 3.01893 104.648 2.85005 104.576 2.65472C104.504 2.46129 104.436 2.271 104.37 2.087C104.293 1.8671 104.208 1.65915 104.116 1.46382C104.091 1.39893 104.058 1.32709 104.021 1.24833C103.98 1.17083 103.934 1.12484 103.883 1.11287L103.804 1.07381L104.04 0.312012C104.077 0.324603 104.116 0.338468 104.155 0.35045C104.195 0.363042 104.242 0.381947 104.293 0.410305C104.357 0.44747 104.432 0.513639 104.518 0.605637C104.603 0.696989 104.678 0.812932 104.742 0.955979C104.768 1.05994 104.81 1.18722 104.868 1.33654C104.927 1.48651 104.981 1.63144 105.034 1.77635C105.099 1.95847 105.164 2.12607 105.23 2.28359L105.816 0.468905L105.893 0.44747C106.387 0.319563 106.765 0.301931 107.025 0.400225C107.286 0.495989 107.473 0.654784 107.592 0.868393C107.708 1.08326 107.773 1.32709 107.788 1.59993C107.799 1.87339 107.807 2.12103 107.807 2.34156L107.748 10.2279C108.178 10.1901 108.554 10.2853 108.881 10.5121C109.206 10.7389 109.368 11.0546 109.368 11.4585C109.368 11.8353 109.228 12.1453 108.947 12.386C108.668 12.6273 108.308 12.7483 107.865 12.7483C107.462 12.7483 107.119 12.6381 106.84 12.4244C106.559 12.209 106.42 11.9336 106.42 11.5952L106.498 2.2042C106.498 1.90616 106.494 1.6661 106.49 1.484C106.481 1.30001 106.447 1.21117 106.382 1.21117C106.317 1.4046 106.247 1.61632 106.177 1.84441C106.104 2.07251 106.035 2.29053 105.971 2.49845L105.738 3.20165C105.658 3.44803 105.581 3.60051 105.503 3.66099C105.425 3.71896 105.334 3.75173 105.23 3.74607C105.029 3.7385 104.962 3.59043 104.962 3.59043ZM107.865 10.9305C107.656 10.9305 107.499 10.9891 107.396 11.1063C107.291 11.2247 107.24 11.352 107.24 11.4894C107.24 11.6255 107.288 11.749 107.387 11.858C107.484 11.9701 107.637 12.025 107.845 12.025C108.08 12.025 108.253 11.9701 108.363 11.858C108.472 11.749 108.529 11.6255 108.529 11.4894C108.529 11.352 108.472 11.2247 108.363 11.1063C108.253 10.9891 108.087 10.9305 107.865 10.9305Z" fill="white"/>
<path d="M69.3209 11.0493C69.3209 11.1136 69.3184 11.1886 69.3128 11.2749C69.3058 11.3581 69.2756 11.4337 69.2252 11.4986C69.1741 11.5629 69.0979 11.6177 69.0002 11.6656C68.9026 11.7116 68.7696 11.7336 68.5995 11.7336H66.6096L66.667 6.44266C66.667 6.16857 66.6109 5.94803 66.5019 5.78106C66.3916 5.61093 66.2568 5.47924 66.0999 5.38787C65.9449 5.29777 65.7855 5.23917 65.6235 5.21144C65.4609 5.18687 65.3192 5.17428 65.2045 5.17428C64.7993 5.17428 64.4622 5.28832 64.1875 5.51642C63.9147 5.74262 63.7786 6.04633 63.7786 6.42313C63.7786 6.8012 63.9185 7.10365 64.1989 7.33173C64.4767 7.55858 64.8056 7.67199 65.1837 7.67199C65.2083 7.67199 65.2291 7.66946 65.2429 7.66191C65.2555 7.6556 65.2883 7.65372 65.3393 7.65372L65.3009 11.2056C65.3009 11.4135 65.2933 11.6252 65.282 11.8414C65.2681 12.0537 65.2083 12.2541 65.1062 12.4362L65.0073 12.612H68.6386C69.0815 12.612 69.4331 12.5553 69.6933 12.4456C69.9523 12.3329 70.1552 12.1911 70.2989 12.0159C70.4413 11.8414 70.5352 11.6479 70.5805 11.44C70.6265 11.2308 70.6492 11.0361 70.6492 10.8546L70.7072 1.34766H69.3789L69.3209 11.0493ZM65.6525 6.80434C65.5473 6.91398 65.391 6.96943 65.1837 6.96943C64.9739 6.96943 64.8183 6.91398 64.7149 6.80434C64.6109 6.69345 64.5599 6.57057 64.5599 6.43448C64.5599 6.2971 64.6109 6.16857 64.7149 6.05327C64.8183 5.93607 64.9739 5.8762 65.1837 5.8762C65.391 5.8762 65.5473 5.93607 65.6525 6.05327C65.7565 6.16857 65.8081 6.2971 65.8081 6.43448C65.8081 6.57057 65.7565 6.69345 65.6525 6.80434Z" fill="white"/>
<path d="M124.236 5.78671C124.229 5.60021 124.176 5.4389 124.071 5.30909H122.762C122.855 5.49056 122.903 5.65755 122.91 5.80688C122.916 5.95747 122.919 6.14082 122.919 6.36263L122.899 11.0689V11.2636C122.899 11.3429 122.88 11.4154 122.842 11.4891C122.803 11.5591 122.73 11.6196 122.626 11.6719C122.522 11.7242 122.366 11.7513 122.158 11.7513H121.018H121.002H119.756V10.1344H119.757V9.8181C119.757 9.76517 119.764 9.7072 119.777 9.64356C119.79 9.57803 119.819 9.51314 119.864 9.44887C119.911 9.38396 119.984 9.32726 120.088 9.28125C120.193 9.23715 120.336 9.21383 120.517 9.21383H121.393L121.412 8.39218H120.537C120.108 8.39218 119.828 8.30271 119.698 8.11934C119.569 7.93915 119.502 7.75515 119.502 7.57431C119.659 7.64047 119.835 7.67198 120.03 7.67198C120.42 7.67198 120.745 7.56108 121.006 7.33929C121.266 7.11748 121.403 6.83143 121.417 6.48108C121.417 6.12823 121.299 5.82641 121.064 5.57436C120.831 5.31792 120.493 5.19189 120.049 5.19189C119.867 5.19189 119.719 5.20954 119.601 5.23979C119.482 5.27318 119.392 5.30217 119.329 5.32863C119.236 5.36832 119.136 5.42945 119.025 5.51388C118.913 5.60021 118.811 5.71237 118.712 5.85539C118.615 5.9978 118.53 6.17359 118.458 6.38279C118.388 6.59136 118.351 6.8396 118.351 7.12568C118.339 7.65749 118.408 8.04752 118.557 8.29514C118.707 8.54278 118.853 8.71228 118.995 8.80363C118.879 8.86792 118.765 8.98133 118.654 9.14452C118.544 9.30836 118.482 9.53834 118.468 9.83763L118.463 10.1338L118.461 10.1344L118.446 11.2245C118.446 11.4337 118.44 11.6429 118.428 11.8577C118.415 12.0732 118.354 12.2717 118.252 12.4538L118.155 12.6296H121.081L121.081 12.6283H122.392C122.847 12.6283 123.199 12.5603 123.446 12.4242C123.694 12.2887 123.873 12.1249 123.984 11.9359C124.094 11.7487 124.158 11.5559 124.18 11.3612C124.199 11.1646 124.207 11.0027 124.207 10.8741L124.247 6.38279C124.247 6.17359 124.244 5.97701 124.236 5.78671ZM119.561 6.07089C119.666 5.95243 119.828 5.89383 120.049 5.89383C120.258 5.89383 120.412 5.95243 120.508 6.07089C120.606 6.18871 120.654 6.31348 120.654 6.45084C120.654 6.58632 120.603 6.71297 120.497 6.8226C120.395 6.93223 120.238 6.98769 120.03 6.98769C119.821 6.98769 119.666 6.93223 119.561 6.8226C119.457 6.71297 119.406 6.58632 119.406 6.45084C119.406 6.31348 119.457 6.18871 119.561 6.07089Z" fill="white"/>
<rect x="54.6958" y="2" width="1.3" height="2" fill="white"/>
</g>
<defs>
<clipPath id="clip0_151_65985">
<rect width="124.625" height="12.8557" fill="white"/>
</clipPath>
</defs>
</svg>
