<svg width="274" height="105" viewBox="0 0 274 105" fill="none" xmlns="http://www.w3.org/2000/svg">
<g clip-path="url(#clip0_2220_3763)">
<g filter="url(#filter0_d_2220_3763)">
<path d="M35.9979 40.5L26.8284 59.2164L6 62.2367L21.0884 76.9876L17.4816 97.5L35.9979 87.6288L54.5181 97.5L50.9379 76.9876L66 62.2367L45.2869 59.2164L35.9979 40.5Z" fill="#F6BC0C"/>
</g>
</g>
<g filter="url(#filter1_d_2220_3763)">
<path d="M136.996 9.1665L125.789 32.0421L100.332 35.7335L118.773 53.7625L114.365 78.8332L136.996 66.7684L159.632 78.8332L155.256 53.7625L173.665 35.7335L148.349 32.0421L136.996 9.1665Z" fill="#F6BC0C"/>
</g>
<g clip-path="url(#clip1_2220_3763)">
<g filter="url(#filter2_d_2220_3763)">
<path d="M237.998 40.5L228.828 59.2164L208 62.2367L223.088 76.9876L219.482 97.5L237.998 87.6288L256.518 97.5L252.938 76.9876L268 62.2367L247.287 59.2164L237.998 40.5Z" fill="#F6BC0C"/>
</g>
</g>
<defs>
<filter id="filter0_d_2220_3763" x="2" y="40.5" width="68" height="65" filterUnits="userSpaceOnUse" color-interpolation-filters="sRGB">
<feFlood flood-opacity="0" result="BackgroundImageFix"/>
<feColorMatrix in="SourceAlpha" type="matrix" values="0 0 0 0 0 0 0 0 0 0 0 0 0 0 0 0 0 0 127 0" result="hardAlpha"/>
<feOffset dy="4"/>
<feGaussianBlur stdDeviation="2"/>
<feColorMatrix type="matrix" values="0 0 0 0 0.25098 0 0 0 0 0.913725 0 0 0 0 0.945098 0 0 0 0.25 0"/>
<feBlend mode="normal" in2="BackgroundImageFix" result="effect1_dropShadow_2220_3763"/>
<feBlend mode="normal" in="SourceGraphic" in2="effect1_dropShadow_2220_3763" result="shape"/>
</filter>
<filter id="filter1_d_2220_3763" x="96.332" y="9.1665" width="81.332" height="77.6665" filterUnits="userSpaceOnUse" color-interpolation-filters="sRGB">
<feFlood flood-opacity="0" result="BackgroundImageFix"/>
<feColorMatrix in="SourceAlpha" type="matrix" values="0 0 0 0 0 0 0 0 0 0 0 0 0 0 0 0 0 0 127 0" result="hardAlpha"/>
<feOffset dy="4"/>
<feGaussianBlur stdDeviation="2"/>
<feColorMatrix type="matrix" values="0 0 0 0 0.25098 0 0 0 0 0.913725 0 0 0 0 0.945098 0 0 0 0.25 0"/>
<feBlend mode="normal" in2="BackgroundImageFix" result="effect1_dropShadow_2220_3763"/>
<feBlend mode="normal" in="SourceGraphic" in2="effect1_dropShadow_2220_3763" result="shape"/>
</filter>
<filter id="filter2_d_2220_3763" x="204" y="40.5" width="68" height="65" filterUnits="userSpaceOnUse" color-interpolation-filters="sRGB">
<feFlood flood-opacity="0" result="BackgroundImageFix"/>
<feColorMatrix in="SourceAlpha" type="matrix" values="0 0 0 0 0 0 0 0 0 0 0 0 0 0 0 0 0 0 127 0" result="hardAlpha"/>
<feOffset dy="4"/>
<feGaussianBlur stdDeviation="2"/>
<feColorMatrix type="matrix" values="0 0 0 0 0.25098 0 0 0 0 0.913725 0 0 0 0 0.945098 0 0 0 0.25 0"/>
<feBlend mode="normal" in2="BackgroundImageFix" result="effect1_dropShadow_2220_3763"/>
<feBlend mode="normal" in="SourceGraphic" in2="effect1_dropShadow_2220_3763" result="shape"/>
</filter>
<clipPath id="clip0_2220_3763">
<rect width="72" height="72" fill="white" transform="translate(0 33)"/>
</clipPath>
<clipPath id="clip1_2220_3763">
<rect width="72" height="72" fill="white" transform="translate(202 33)"/>
</clipPath>
</defs>
</svg>
