<svg width="24" height="25" viewBox="0 0 24 25" fill="none" xmlns="http://www.w3.org/2000/svg">
<path d="M19.4912 3.50195V3.50167C19.4912 3.43604 19.5041 3.37104 19.5292 3.31039C19.5543 3.24974 19.5911 3.19464 19.6375 3.14823C19.6839 3.10183 19.739 3.06502 19.7997 3.03992C19.8603 3.01482 19.9253 3.00192 19.9909 3.00195L19.9915 3.00195C20.0571 3.00192 20.1221 3.01481 20.1828 3.03991C20.2434 3.06501 20.2985 3.10182 20.3449 3.14823C20.3913 3.19464 20.4282 3.24974 20.4533 3.31039C20.4783 3.37103 20.4912 3.43603 20.4912 3.50166V3.50195V19.502C20.4912 19.6346 20.4385 19.7617 20.3448 19.8555C20.251 19.9493 20.1238 20.002 19.9912 20.002C19.8586 20.002 19.7314 19.9493 19.6377 19.8555C19.5439 19.7617 19.4912 19.6346 19.4912 19.502V18.865V18.6881L19.3799 18.5505C18.5608 17.5381 17.5427 16.7044 16.3888 16.1008C15.2348 15.4973 13.9693 15.1367 12.6705 15.0413L12.3148 15.0152L12.1743 15.343L9.45059 21.6986L9.45033 21.6992C9.41194 21.7891 9.34799 21.8657 9.26642 21.9195C9.18484 21.9733 9.08924 22.002 8.99151 22.002H8.99121H4.99121H4.99086C4.90817 22.002 4.82677 21.9815 4.75395 21.9424C4.68113 21.9032 4.61918 21.8465 4.57366 21.7775C4.52814 21.7085 4.50048 21.6292 4.49316 21.5469C4.48583 21.4645 4.49908 21.3816 4.53171 21.3056L4.53184 21.3053L6.93457 15.6989L7.23327 15.002H6.475H5.99176C5.32879 15.0012 4.69319 14.7375 4.2244 14.2688C3.75568 13.8 3.492 13.1645 3.49121 12.5017V10.5022C3.492 9.83937 3.75568 9.20387 4.2244 8.73515C4.69309 8.26645 5.32853 8.00278 5.99135 8.00195C5.99149 8.00195 5.99162 8.00195 5.99176 8.00195L11.9912 8.00196L11.9931 8.00195C13.4108 7.99668 14.8096 7.67535 16.0875 7.06135C17.3654 6.44735 18.4903 5.55613 19.3804 4.45257L19.4912 4.31518V4.13867V3.50195ZM5.99088 14.002H5.99121H6.99121H7.49121V13.502V9.50195V9.00195H6.99121H5.99121H5.99087C5.59322 9.00222 5.21193 9.16031 4.93075 9.44149C4.64957 9.72267 4.49148 10.104 4.49121 10.5016V10.502L4.49121 12.502L4.49121 12.5023C4.49148 12.8999 4.64956 13.2812 4.93075 13.5624C5.21193 13.8436 5.59322 14.0017 5.99088 14.002ZM8.33203 21.002H8.66175L8.79161 20.6989L10.9342 15.6989L11.2328 15.002H10.4746H8.65039H8.32068L8.19081 15.305L6.04823 20.305L5.74958 21.002H6.50781H8.33203ZM18.6733 16.4097L19.4912 17.0835V16.0238V6.97956V5.91977L18.6733 6.59367C16.7909 8.14456 14.4294 8.99554 11.9905 9.0019H8.99121H8.49121V9.5019V13.5019V14.0019H8.99121H11.9907C14.4296 14.0081 16.7909 14.8589 18.6733 16.4097Z" fill="#333333" stroke="#333333"/>
</svg>
