<svg width="20" height="21" viewBox="0 0 20 21" fill="none" xmlns="http://www.w3.org/2000/svg">
<g id="icon-24/calendar-clock">
<path id="Vector" d="M4.16667 7.16669H15.8333V5.50002H4.16667V7.16669ZM4.16667 18.8334C3.70833 18.8334 3.31597 18.6702 2.98958 18.3438C2.66319 18.0174 2.5 17.625 2.5 17.1667V5.50002C2.5 5.04169 2.66319 4.64933 2.98958 4.32294C3.31597 3.99655 3.70833 3.83335 4.16667 3.83335H5V2.16669H6.66667V3.83335H13.3333V2.16669H15V3.83335H15.8333C16.2917 3.83335 16.684 3.99655 17.0104 4.32294C17.3368 4.64933 17.5 5.04169 17.5 5.50002V10.2292C17.2361 10.1042 16.9653 10 16.6875 9.91669C16.4097 9.83335 16.125 9.77085 15.8333 9.72919V8.83335H4.16667V17.1667H9.41667C9.51389 17.4722 9.62847 17.7639 9.76042 18.0417C9.89236 18.3195 10.0486 18.5834 10.2292 18.8334H4.16667ZM15 19.6667C13.8472 19.6667 12.8646 19.2604 12.0521 18.4479C11.2396 17.6354 10.8333 16.6528 10.8333 15.5C10.8333 14.3472 11.2396 13.3646 12.0521 12.5521C12.8646 11.7396 13.8472 11.3334 15 11.3334C16.1528 11.3334 17.1354 11.7396 17.9479 12.5521C18.7604 13.3646 19.1667 14.3472 19.1667 15.5C19.1667 16.6528 18.7604 17.6354 17.9479 18.4479C17.1354 19.2604 16.1528 19.6667 15 19.6667ZM16.3958 17.4792L16.9792 16.8959L15.4167 15.3334V13H14.5833V15.6667L16.3958 17.4792Z" fill="url(#paint0_linear_6895_2727)"/>
</g>
<defs>
<linearGradient id="paint0_linear_6895_2727" x1="10.8333" y1="10.9167" x2="10.8333" y2="19.6667" gradientUnits="userSpaceOnUse">
<stop stop-color="white"/>
</linearGradient>
</defs>
</svg>
