<svg width="48" height="49" viewBox="0 0 48 49" fill="none" xmlns="http://www.w3.org/2000/svg">
<path d="M25.0961 14.3614L34.787 21.695L34.7694 21.7125L35.2448 22.0563C35.4628 22.2141 35.5551 22.4971 35.4659 22.7715C35.3796 23.0287 35.1345 23.2084 34.8521 23.2084H33.6092H33.1092V23.7084V33.1112C33.1092 34.1122 32.296 34.9255 31.295 34.9255H16.715C15.714 34.9255 14.9007 34.1122 14.9007 33.1112V23.7084V23.2084H14.4007H13.1492C12.8621 23.2084 12.621 23.0329 12.5359 22.7729L12.5359 22.7728L12.5333 22.7651C12.4427 22.5029 12.531 22.2134 12.7572 22.041C12.7573 22.0409 12.7575 22.0407 12.7577 22.0406L22.9035 14.3627C22.9038 14.3625 22.9041 14.3622 22.9044 14.362C23.5521 13.8768 24.4541 13.8732 25.0952 14.3607L25.0961 14.3614ZM14.5361 21.5953L13.3482 22.4941H14.8378H15.2578C15.4531 22.4941 15.615 22.6559 15.615 22.8512V33.1112C15.615 33.7217 16.1045 34.2112 16.715 34.2112H31.2864C31.8968 34.2112 32.3864 33.7217 32.3864 33.1112V22.8512C32.3864 22.6559 32.5482 22.4941 32.7435 22.4941H33.1635H34.6531L33.4652 21.5953L24.6632 14.936C24.6631 14.9359 24.6629 14.9358 24.6627 14.9356C24.2698 14.6374 23.7315 14.6374 23.3386 14.9356C23.3385 14.9358 23.3383 14.9359 23.3381 14.936L14.5361 21.5953Z" fill="#333333" stroke="#333333"/>
<path d="M21.1207 22.9257H20.6207V23.1291C20.4854 23.254 20.3979 23.4316 20.3979 23.64V29.04V29.5986L20.9342 29.539L20.9863 29.5383C21.0341 29.5377 21.1029 29.5371 21.19 29.5364C21.3641 29.5351 21.6089 29.5338 21.9011 29.5324C22.4854 29.5295 23.2574 29.5266 24.0271 29.5239C24.7968 29.5212 25.5642 29.5188 26.1391 29.5171L26.8334 29.515L27.0277 29.5145L27.0789 29.5143L27.092 29.5143L27.0953 29.5143L27.0961 29.5143L27.0964 29.5143L27.095 29.0143L27.0964 29.5143L27.595 29.5129V29.0143V23.4257V22.9257H27.095H21.1207ZM19.6836 30.9343V23.6314C19.6836 22.849 20.3211 22.2114 21.1207 22.2114H27.9522C28.1475 22.2114 28.3093 22.3733 28.3093 22.5686V29.8714C28.3093 30.0667 28.1475 30.2286 27.9522 30.2286H21.1207C20.7641 30.2286 20.3979 30.5088 20.3979 30.9343C20.3979 31.3598 20.7641 31.64 21.1207 31.64H27.9522C28.1475 31.64 28.3093 31.8019 28.3093 31.9971C28.3093 32.1924 28.1475 32.3543 27.9522 32.3543H21.1207C20.3211 32.3543 19.6836 31.7167 19.6836 30.9343Z" fill="#333333" stroke="#333333"/>
<path d="M25.286 25.3942H22.7146C22.5193 25.3942 22.3574 25.2324 22.3574 25.0371C22.3574 24.8418 22.5193 24.6799 22.7146 24.6799H25.286C25.4813 24.6799 25.6431 24.8418 25.6431 25.0371C25.6431 25.2324 25.4813 25.3942 25.286 25.3942Z" fill="#333333" stroke="#333333"/>
</svg>
