<svg width="16" height="16" viewBox="0 0 16 16" fill="none" xmlns="http://www.w3.org/2000/svg">
<g clip-path="url(#clip0_3759_11583)">
<path d="M7.99963 0C12.4179 0 15.9996 3.58172 15.9996 8C15.9996 12.4183 12.4179 16 7.99963 16C3.58136 16 -0.000363672 12.4183 -0.000366211 8C-0.000366211 3.58172 3.58136 2.58768e-06 7.99963 0ZM12.0299 4.96973C11.737 4.67683 11.2623 4.67683 10.9694 4.96973C10.9623 4.97676 10.956 4.98437 10.9498 4.99219L7.47717 9.41699L5.38342 7.32324C5.09053 7.03038 4.61576 7.03036 4.32288 7.32324C4.03 7.61612 4.03002 8.09089 4.32288 8.38379L6.96936 11.0303C7.26225 11.3232 7.73701 11.3232 8.02991 11.0303C8.03643 11.0238 8.0427 11.017 8.04846 11.0098L12.0406 6.01953C12.3229 5.72588 12.3192 5.25903 12.0299 4.96973Z" fill="white"/>
</g>
<defs>
<clipPath id="clip0_3759_11583">
<rect width="16" height="16" fill="white"/>
</clipPath>
</defs>
</svg>
