<svg width="16" height="16" viewBox="0 0 16 16" fill="none" xmlns="http://www.w3.org/2000/svg">
<g clip-path="url(#clip0_3759_18351)">
<path d="M11.1061 0C11.2387 0 11.3658 0.0527653 11.4596 0.146484L15.8531 4.54004C15.9469 4.6338 15.9996 4.76098 15.9996 4.89355V11.1064C15.9996 11.239 15.9469 11.3662 15.8531 11.46L11.4596 15.8535C11.3658 15.9472 11.2386 16 11.1061 16H4.89319C4.76062 16 4.63343 15.9472 4.53967 15.8535L0.146118 11.46C0.0523991 11.3662 -0.000366211 11.239 -0.000366211 11.1064V4.89355C-0.000366211 4.76099 0.0524018 4.6338 0.146118 4.54004L4.53967 0.146484C4.63343 0.0527621 4.76061 0 4.89319 0H11.1061ZM11.3531 4.64648C11.1579 4.45122 10.8414 4.45122 10.6461 4.64648L7.99963 7.29297L5.35315 4.64648C5.15789 4.45122 4.84138 4.45122 4.64612 4.64648C4.45086 4.84175 4.45086 5.15826 4.64612 5.35352L7.2926 8L4.64612 10.6465C4.45086 10.8417 4.45086 11.1583 4.64612 11.3535C4.84138 11.5488 5.15789 11.5488 5.35315 11.3535L7.99963 8.70703L10.6461 11.3535C10.8414 11.5488 11.1579 11.5488 11.3531 11.3535C11.5484 11.1583 11.5484 10.8417 11.3531 10.6465L8.70667 8L11.3531 5.35352C11.5484 5.15825 11.5484 4.84175 11.3531 4.64648Z" fill="white"/>
</g>
<defs>
<clipPath id="clip0_3759_18351">
<rect width="16" height="16" fill="white"/>
</clipPath>
</defs>
</svg>
