<svg width="1440" height="900" viewBox="0 0 1440 900" fill="none" xmlns="http://www.w3.org/2000/svg">
<g clip-path="url(#clip0_1_10210)">
<rect width="1440" height="900" fill="#E8E8E8"/>
<rect width="1440" height="900.5" fill="#0C0C0C" fill-opacity="0.38"/>
<rect x="440.5" y="270.5" width="559" height="359" rx="11.5" fill="white"/>
<rect x="440.5" y="270.5" width="559" height="359" rx="11.5" stroke="#EEEEEE"/>
<rect width="560" height="141" transform="translate(440 270)" fill="white"/>
<g clip-path="url(#clip1_1_10210)">
<rect width="48" height="48" transform="translate(696 302)" fill="white" fill-opacity="0.01"/>
<path d="M720 302.002C733.255 302.002 744 312.747 744 326.002C744 339.257 733.255 350.002 720 350.002C706.745 350.002 696 339.257 696 326.002C696 312.747 706.745 302.002 720 302.002ZM720.005 332.002C718.348 332.002 717.005 333.345 717.005 335.002C717.005 336.659 718.348 338.002 720.005 338.002C721.662 338.002 723.005 336.659 723.005 335.002C723.005 333.345 721.662 332.002 720.005 332.002ZM720 314.002C718.394 314.002 717.139 315.389 717.299 316.987L718.351 327.51C718.435 328.357 719.149 329.002 720 329.002C720.851 329.002 721.565 328.357 721.649 327.51L722.701 316.987C722.861 315.389 721.606 314.002 720 314.002Z" fill="#DC3545"/>
</g>
<path d="M657.104 383.056C657.104 382.352 657.2 381.776 657.392 381.328C657.6 380.88 657.96 380.504 658.472 380.2L656.648 379.12V377.248C657.416 376.512 658.312 375.944 659.336 375.544C660.376 375.144 661.504 374.944 662.72 374.944C664.688 374.944 666.168 375.36 667.16 376.192C668.168 377.024 668.672 378.144 668.672 379.552V388H665.432V379.408C665.432 378.672 665.2 378.112 664.736 377.728C664.272 377.328 663.592 377.128 662.696 377.128C661.528 377.128 660.536 377.424 659.72 378.016V378.328L661.568 379.48V380.752C661.088 380.944 660.76 381.192 660.584 381.496C660.424 381.8 660.344 382.264 660.344 382.888V388H657.104V383.056ZM676.549 379.6C676.549 378.736 676.389 378.112 676.069 377.728C675.749 377.328 675.189 377.128 674.389 377.128C673.429 377.128 672.533 377.512 671.701 378.28L670.405 376.528C671.013 375.984 671.677 375.584 672.397 375.328C673.117 375.072 673.933 374.944 674.845 374.944C676.669 374.944 677.949 375.352 678.685 376.168C679.421 376.984 679.789 378.136 679.789 379.624V388H676.549V379.6ZM687.552 388.36C686.528 388.36 685.816 388.168 685.416 387.784C685.016 387.4 684.816 386.792 684.816 385.96C684.816 385.224 685.016 384.672 685.416 384.304C685.816 383.92 686.368 383.728 687.072 383.728V382.696C687.072 382.28 686.992 381.984 686.832 381.808C686.672 381.616 686.376 381.456 685.944 381.328L682.176 380.224V378.784C682.176 377.44 682.632 376.464 683.544 375.856C684.456 375.248 685.68 374.944 687.216 374.944C688.368 374.944 689.32 375.064 690.072 375.304C690.824 375.528 691.528 375.896 692.184 376.408L690.864 378.184C690.48 377.864 690.016 377.608 689.472 377.416C688.928 377.224 688.328 377.128 687.672 377.128C686.92 377.128 686.352 377.256 685.968 377.512C685.6 377.752 685.416 378.096 685.416 378.544V378.904L688.632 379.84C689.128 379.984 689.496 380.168 689.736 380.392C689.976 380.6 690.128 380.872 690.192 381.208C690.272 381.544 690.312 382.008 690.312 382.6V385.624C690.312 386.6 690.104 387.304 689.688 387.736C689.288 388.152 688.576 388.36 687.552 388.36ZM687.48 386.872C687.848 386.872 688.096 386.808 688.224 386.68C688.368 386.552 688.44 386.304 688.44 385.936C688.44 385.6 688.368 385.368 688.224 385.24C688.096 385.112 687.848 385.048 687.48 385.048C687.112 385.048 686.856 385.112 686.712 385.24C686.584 385.368 686.52 385.6 686.52 385.936C686.52 386.304 686.584 386.552 686.712 386.68C686.856 386.808 687.112 386.872 687.48 386.872ZM696.833 388.36C695.809 388.36 695.089 388.152 694.673 387.736C694.273 387.304 694.073 386.6 694.073 385.624V375.304H697.313V383.728C698.017 383.728 698.569 383.92 698.969 384.304C699.369 384.672 699.569 385.224 699.569 385.96C699.569 386.792 699.369 387.4 698.969 387.784C698.569 388.168 697.857 388.36 696.833 388.36ZM703.193 388.36C702.169 388.36 701.449 388.152 701.033 387.736C700.633 387.304 700.433 386.6 700.433 385.624V375.304H703.673V383.728C704.377 383.728 704.929 383.92 705.329 384.304C705.729 384.672 705.929 385.224 705.929 385.96C705.929 386.792 705.729 387.4 705.329 387.784C704.929 388.168 704.217 388.36 703.193 388.36ZM696.905 386.872C697.273 386.872 697.521 386.808 697.649 386.68C697.793 386.552 697.865 386.304 697.865 385.936C697.865 385.6 697.793 385.368 697.649 385.24C697.521 385.112 697.273 385.048 696.905 385.048C696.537 385.048 696.281 385.112 696.137 385.24C696.009 385.368 695.945 385.6 695.945 385.936C695.945 386.304 696.009 386.552 696.137 386.68C696.281 386.808 696.537 386.872 696.905 386.872ZM703.265 386.872C703.633 386.872 703.881 386.808 704.009 386.68C704.153 386.552 704.225 386.304 704.225 385.936C704.225 385.6 704.153 385.368 704.009 385.24C703.881 385.112 703.633 385.048 703.265 385.048C702.897 385.048 702.641 385.112 702.497 385.24C702.369 385.368 702.305 385.6 702.305 385.936C702.305 386.304 702.369 386.552 702.497 386.68C702.641 386.808 702.897 386.872 703.265 386.872ZM710.213 384.184C709.989 384.216 709.805 384.232 709.661 384.232C708.909 384.232 708.333 384.04 707.933 383.656C707.549 383.272 707.357 382.712 707.357 381.976C707.357 381.16 707.549 380.568 707.933 380.2C708.317 379.816 708.997 379.624 709.973 379.624C710.661 379.624 711.173 379.704 711.509 379.864C711.861 380.008 712.109 380.248 712.253 380.584C712.397 380.904 712.541 381.424 712.685 382.144L713.405 385.816H713.789C714.141 385.816 714.397 385.736 714.557 385.576C714.733 385.416 714.821 385.16 714.821 384.808V379.672C714.821 378.776 714.581 378.128 714.101 377.728C713.621 377.328 712.845 377.128 711.773 377.128C711.069 377.128 710.437 377.24 709.877 377.464C709.317 377.672 708.781 377.984 708.269 378.4L706.949 376.648C708.325 375.512 710.069 374.944 712.181 374.944C714.101 374.944 715.557 375.336 716.549 376.12C717.557 376.888 718.061 378.04 718.061 379.576V384.28C718.061 385.256 717.773 386.12 717.197 386.872C716.637 387.624 715.597 388 714.077 388H710.957L710.213 384.184ZM709.973 382.936C710.325 382.936 710.565 382.872 710.693 382.744C710.837 382.616 710.909 382.384 710.909 382.048C710.909 381.68 710.845 381.432 710.717 381.304C710.589 381.176 710.341 381.112 709.973 381.112C709.605 381.112 709.349 381.184 709.205 381.328C709.061 381.456 708.989 381.696 708.989 382.048C708.989 382.384 709.061 382.616 709.205 382.744C709.349 382.872 709.605 382.936 709.973 382.936ZM712.501 372.28C712.869 372.28 713.149 372.256 713.341 372.208C713.517 372.144 713.637 372.024 713.701 371.848C713.045 371.912 712.557 371.8 712.237 371.512C711.901 371.208 711.733 370.76 711.733 370.168C711.733 369.496 711.917 369.016 712.285 368.728C712.637 368.44 713.205 368.296 713.989 368.296C714.805 368.296 715.381 368.448 715.717 368.752C716.037 369.04 716.197 369.536 716.197 370.24C716.197 371.024 716.021 371.608 715.669 371.992C716.389 371.896 716.885 371.656 717.157 371.272C717.429 370.872 717.565 370.248 717.565 369.4V368.968H719.965V369.472C719.965 370.272 719.797 371.008 719.461 371.68C719.125 372.352 718.637 372.888 717.997 373.288C717.341 373.672 716.557 373.864 715.645 373.864H712.501V372.28ZM713.989 370.912C714.309 370.912 714.525 370.856 714.637 370.744C714.749 370.632 714.805 370.432 714.805 370.144C714.805 369.856 714.749 369.656 714.637 369.544C714.509 369.432 714.293 369.376 713.989 369.376C713.669 369.376 713.453 369.432 713.341 369.544C713.229 369.64 713.173 369.84 713.173 370.144C713.173 370.432 713.229 370.632 713.341 370.744C713.453 370.856 713.669 370.912 713.989 370.912ZM720.565 379.408H723.709L726.013 385.816H727.093C727.493 385.816 727.789 385.736 727.981 385.576C728.189 385.4 728.293 385.128 728.293 384.76V379.576C727.589 379.576 727.037 379.392 726.637 379.024C726.237 378.64 726.037 378.08 726.037 377.344C726.037 376.512 726.237 375.904 726.637 375.52C727.037 375.136 727.749 374.944 728.773 374.944C729.797 374.944 730.509 375.16 730.909 375.592C731.325 376.008 731.533 376.704 731.533 377.68V384.04C731.533 385.144 731.285 386.08 730.789 386.848C730.293 387.616 729.277 388 727.741 388H723.733L720.565 379.408ZM728.701 378.256C729.069 378.256 729.317 378.192 729.445 378.064C729.589 377.936 729.661 377.704 729.661 377.368C729.661 377 729.589 376.752 729.445 376.624C729.317 376.496 729.069 376.432 728.701 376.432C728.333 376.432 728.077 376.496 727.933 376.624C727.805 376.752 727.741 377 727.741 377.368C727.741 377.704 727.805 377.936 727.933 378.064C728.077 378.192 728.333 378.256 728.701 378.256ZM736.663 388.36C735.639 388.36 734.919 388.152 734.503 387.736C734.103 387.304 733.903 386.6 733.903 385.624V375.304H737.143V383.728C737.847 383.728 738.399 383.92 738.799 384.304C739.199 384.672 739.399 385.224 739.399 385.96C739.399 386.792 739.199 387.4 738.799 387.784C738.399 388.168 737.687 388.36 736.663 388.36ZM736.735 386.872C737.103 386.872 737.351 386.808 737.479 386.68C737.623 386.552 737.695 386.304 737.695 385.936C737.695 385.6 737.623 385.368 737.479 385.24C737.351 385.112 737.103 385.048 736.735 385.048C736.367 385.048 736.111 385.112 735.967 385.24C735.839 385.368 735.775 385.6 735.775 385.936C735.775 386.304 735.839 386.552 735.967 386.68C736.111 386.808 736.367 386.872 736.735 386.872ZM741.123 378.496C741.123 377.328 741.427 376.448 742.035 375.856C742.643 375.248 743.459 374.944 744.483 374.944C745.155 374.944 745.723 375.064 746.187 375.304C746.651 375.544 746.955 375.912 747.099 376.408C747.291 375.912 747.627 375.544 748.107 375.304C748.587 375.064 749.171 374.944 749.859 374.944C750.899 374.944 751.699 375.24 752.259 375.832C752.819 376.408 753.099 377.296 753.099 378.496V388H749.955V378.712C749.955 378.088 749.891 377.672 749.763 377.464C749.651 377.24 749.427 377.128 749.091 377.128C748.835 377.128 748.627 377.216 748.467 377.392C748.323 377.568 748.251 377.84 748.251 378.208V378.448H745.947V378.208C745.947 377.84 745.883 377.568 745.755 377.392C745.643 377.216 745.451 377.128 745.179 377.128C744.843 377.128 744.603 377.24 744.459 377.464C744.331 377.688 744.267 378.104 744.267 378.712V385.576L745.731 384.088C745.347 383.976 745.075 383.776 744.915 383.488C744.755 383.2 744.675 382.776 744.675 382.216C744.675 381.384 744.867 380.792 745.251 380.44C745.635 380.088 746.235 379.912 747.051 379.912C748.043 379.912 748.715 380.088 749.067 380.44C749.419 380.792 749.595 381.408 749.595 382.288C749.595 382.8 749.491 383.224 749.283 383.56C749.091 383.896 748.771 384.288 748.323 384.736L745.083 388H741.123V378.496ZM747.123 383.128C747.475 383.128 747.723 383.056 747.867 382.912C748.011 382.768 748.083 382.528 748.083 382.192C748.083 381.84 748.011 381.6 747.867 381.472C747.739 381.344 747.491 381.28 747.123 381.28C746.739 381.28 746.475 381.344 746.331 381.472C746.203 381.6 746.139 381.84 746.139 382.192C746.139 382.544 746.211 382.792 746.355 382.936C746.499 383.064 746.755 383.128 747.123 383.128ZM742.006 373.864C742.15 372.52 742.702 371.464 743.662 370.696C744.606 369.928 745.774 369.512 747.166 369.448C747.246 369.432 747.382 369.424 747.574 369.424C747.766 369.424 747.902 369.432 747.982 369.448V368.44H750.406V369.784C750.822 369.944 751.11 370.112 751.27 370.288V368.44H753.694V373.864H742.006ZM750.694 372.256C750.486 371.856 750.126 371.56 749.614 371.368C749.086 371.16 748.462 371.056 747.742 371.056C747.038 371.056 746.446 371.16 745.966 371.368C745.47 371.56 745.166 371.856 745.054 372.256H750.694ZM761.614 388.36C759.55 388.36 758.134 387.976 757.366 387.208C756.598 386.424 756.214 385.376 756.214 384.064V382.624C756.214 381.648 756.414 380.952 756.814 380.536C757.23 380.104 757.95 379.888 758.974 379.888C759.998 379.888 760.71 380.08 761.11 380.464C761.51 380.848 761.71 381.456 761.71 382.288C761.71 383.008 761.494 383.536 761.062 383.872C760.646 384.192 760.07 384.352 759.334 384.352V384.688C759.334 385.184 759.518 385.56 759.886 385.816C760.254 386.056 760.83 386.176 761.614 386.176C762.398 386.176 762.998 386.04 763.414 385.768C763.83 385.48 764.038 385.08 764.038 384.568V379.6C764.038 378.752 763.79 378.128 763.294 377.728C762.798 377.328 762.022 377.128 760.966 377.128C760.262 377.128 759.622 377.232 759.046 377.44C758.486 377.648 757.934 377.968 757.39 378.4L756.07 376.648C756.758 376.088 757.55 375.664 758.446 375.376C759.358 375.088 760.342 374.944 761.398 374.944C763.462 374.944 764.958 375.344 765.886 376.144C766.814 376.944 767.278 378.088 767.278 379.576V384.4C767.278 385.04 767.094 385.664 766.726 386.272C766.374 386.864 765.774 387.36 764.926 387.76C764.094 388.16 762.99 388.36 761.614 388.36ZM759.046 383.2C759.414 383.2 759.662 383.136 759.79 383.008C759.934 382.88 760.006 382.648 760.006 382.312C760.006 381.944 759.934 381.696 759.79 381.568C759.662 381.44 759.414 381.376 759.046 381.376C758.678 381.376 758.422 381.44 758.278 381.568C758.15 381.696 758.086 381.944 758.086 382.312C758.086 382.648 758.15 382.88 758.278 383.008C758.422 383.136 758.678 383.2 759.046 383.2ZM779.518 388.36C777.63 388.36 776.75 387.672 776.878 386.296L774.478 388H771.694V379.576C770.99 379.576 770.43 379.392 770.014 379.024C769.614 378.64 769.414 378.08 769.414 377.344C769.414 376.512 769.614 375.904 770.014 375.52C770.414 375.136 771.126 374.944 772.15 374.944C773.19 374.944 773.91 375.16 774.31 375.592C774.726 376.008 774.934 376.704 774.934 377.68V384.952L778.294 382.696C778.486 382.584 778.614 382.456 778.678 382.312C778.758 382.168 778.798 381.976 778.798 381.736V375.304H782.038V381.328C782.038 381.856 781.942 382.296 781.75 382.648C781.574 382.984 781.238 383.32 780.742 383.656C781.35 383.768 781.782 384 782.038 384.352C782.294 384.704 782.422 385.208 782.422 385.864C782.422 386.776 782.214 387.424 781.798 387.808C781.382 388.176 780.622 388.36 779.518 388.36ZM772.078 378.256C772.446 378.256 772.694 378.192 772.822 378.064C772.966 377.936 773.038 377.704 773.038 377.368C773.038 377 772.966 376.752 772.822 376.624C772.694 376.496 772.446 376.432 772.078 376.432C771.71 376.432 771.454 376.496 771.31 376.624C771.182 376.752 771.118 377 771.118 377.368C771.118 377.704 771.182 377.936 771.31 378.064C771.454 378.192 771.71 378.256 772.078 378.256ZM779.59 386.752C779.958 386.752 780.206 386.688 780.334 386.56C780.478 386.432 780.55 386.192 780.55 385.84C780.55 385.488 780.478 385.248 780.334 385.12C780.206 384.976 779.958 384.904 779.59 384.904C779.222 384.904 778.966 384.976 778.822 385.12C778.694 385.248 778.63 385.488 778.63 385.84C778.63 386.192 778.694 386.432 778.822 386.56C778.966 386.688 779.222 386.752 779.59 386.752Z" fill="black"/>
<path d="M610.696 462.3C609.883 462.3 609.303 462.14 608.956 461.82C608.623 461.5 608.456 461.007 608.456 460.34C608.456 459.673 608.596 459.187 608.876 458.88C609.169 458.573 609.609 458.407 610.196 458.38V454.98C609.609 454.98 609.143 454.827 608.796 454.52C608.463 454.2 608.296 453.733 608.296 453.12C608.296 452.427 608.463 451.92 608.796 451.6C609.129 451.28 609.723 451.12 610.576 451.12C611.443 451.12 612.043 451.3 612.376 451.66C612.723 452.007 612.896 452.587 612.896 453.4V458.46L615.756 459.52V451.42H618.456V462H616.896L613.036 460.58C612.996 461.167 612.809 461.6 612.476 461.88C612.143 462.16 611.549 462.3 610.696 462.3ZM610.516 453.88C610.823 453.88 611.029 453.827 611.136 453.72C611.256 453.613 611.316 453.42 611.316 453.14C611.316 452.833 611.256 452.627 611.136 452.52C611.029 452.413 610.823 452.36 610.516 452.36C610.209 452.36 609.996 452.413 609.876 452.52C609.769 452.627 609.716 452.833 609.716 453.14C609.716 453.42 609.769 453.613 609.876 453.72C609.996 453.827 610.209 453.88 610.516 453.88ZM610.796 461.08C611.103 461.08 611.309 461.027 611.416 460.92C611.536 460.8 611.596 460.6 611.596 460.32C611.596 460.027 611.536 459.827 611.416 459.72C611.309 459.613 611.103 459.56 610.796 459.56C610.489 459.56 610.276 459.613 610.156 459.72C610.049 459.827 609.996 460.027 609.996 460.32C609.996 460.613 610.049 460.813 610.156 460.92C610.276 461.027 610.489 461.08 610.796 461.08ZM609.216 450.22C609.323 448.993 609.816 448.053 610.696 447.4C611.563 446.733 612.663 446.4 613.996 446.4C614.503 446.4 614.996 446.467 615.476 446.6C615.943 446.733 616.323 446.92 616.616 447.16V445.7H618.956V450.22H609.216ZM616.456 448.88C616.296 448.547 615.996 448.3 615.556 448.14C615.116 447.967 614.596 447.88 613.996 447.88C613.41 447.88 612.916 447.967 612.516 448.14C612.103 448.3 611.85 448.547 611.756 448.88H616.456ZM625.856 462.3C622.87 462.3 621.376 461.027 621.376 458.48V457.66C621.376 457.153 621.476 456.673 621.676 456.22C621.876 455.767 622.163 455.367 622.536 455.02C621.95 454.98 621.536 454.813 621.296 454.52C621.056 454.213 620.936 453.733 620.936 453.08C620.936 452.4 621.096 451.907 621.416 451.6C621.75 451.28 622.343 451.12 623.196 451.12C624.063 451.12 624.656 451.267 624.976 451.56C625.31 451.853 625.476 452.38 625.476 453.14V453.84C625.476 454.12 625.423 454.36 625.316 454.56C625.223 454.76 625.07 455 624.856 455.28C624.603 455.613 624.41 455.933 624.276 456.24C624.143 456.533 624.076 456.9 624.076 457.34V458.6C624.076 459.24 624.19 459.713 624.416 460.02C624.643 460.327 625.123 460.48 625.856 460.48C626.363 460.48 626.743 460.407 626.996 460.26C627.263 460.1 627.436 459.893 627.516 459.64C627.596 459.373 627.636 459.027 627.636 458.6V451.42H630.336V458.36C630.336 460.987 628.843 462.3 625.856 462.3ZM623.176 453.88C623.483 453.88 623.69 453.827 623.796 453.72C623.916 453.613 623.976 453.42 623.976 453.14C623.976 452.833 623.916 452.627 623.796 452.52C623.69 452.413 623.483 452.36 623.176 452.36C622.87 452.36 622.656 452.42 622.536 452.54C622.416 452.647 622.356 452.847 622.356 453.14C622.356 453.42 622.416 453.613 622.536 453.72C622.656 453.827 622.87 453.88 623.176 453.88ZM625.695 448.9C626.002 448.9 626.235 448.88 626.395 448.84C626.542 448.787 626.642 448.687 626.695 448.54C626.149 448.593 625.742 448.5 625.475 448.26C625.195 448.007 625.055 447.633 625.055 447.14C625.055 446.58 625.209 446.18 625.515 445.94C625.809 445.7 626.282 445.58 626.935 445.58C627.615 445.58 628.095 445.707 628.375 445.96C628.642 446.2 628.775 446.613 628.775 447.2C628.775 447.853 628.629 448.34 628.335 448.66C628.935 448.58 629.349 448.38 629.575 448.06C629.802 447.727 629.915 447.207 629.915 446.5V446.14H631.915V446.56C631.915 447.227 631.775 447.84 631.495 448.4C631.215 448.96 630.809 449.407 630.275 449.74C629.729 450.06 629.075 450.22 628.315 450.22H625.695V448.9ZM626.935 447.76C627.202 447.76 627.382 447.713 627.475 447.62C627.569 447.527 627.615 447.36 627.615 447.12C627.615 446.88 627.569 446.713 627.475 446.62C627.369 446.527 627.189 446.48 626.935 446.48C626.669 446.48 626.489 446.527 626.395 446.62C626.302 446.7 626.255 446.867 626.255 447.12C626.255 447.36 626.302 447.527 626.395 447.62C626.489 447.713 626.669 447.76 626.935 447.76ZM637.435 462.3C635.715 462.3 634.535 461.98 633.895 461.34C633.255 460.687 632.935 459.813 632.935 458.72V457.52C632.935 456.707 633.102 456.127 633.435 455.78C633.782 455.42 634.382 455.24 635.235 455.24C636.089 455.24 636.682 455.4 637.015 455.72C637.349 456.04 637.515 456.547 637.515 457.24C637.515 457.84 637.335 458.28 636.975 458.56C636.629 458.827 636.149 458.96 635.535 458.96V459.24C635.535 459.653 635.689 459.967 635.995 460.18C636.302 460.38 636.782 460.48 637.435 460.48C638.089 460.48 638.589 460.367 638.935 460.14C639.282 459.9 639.455 459.567 639.455 459.14V455C639.455 454.293 639.249 453.773 638.835 453.44C638.422 453.107 637.775 452.94 636.895 452.94C636.309 452.94 635.775 453.027 635.295 453.2C634.829 453.373 634.369 453.64 633.915 454L632.815 452.54C633.389 452.073 634.049 451.72 634.795 451.48C635.555 451.24 636.375 451.12 637.255 451.12C638.975 451.12 640.222 451.453 640.995 452.12C641.769 452.787 642.155 453.74 642.155 454.98V459C642.155 459.533 642.002 460.053 641.695 460.56C641.402 461.053 640.902 461.467 640.195 461.8C639.502 462.133 638.582 462.3 637.435 462.3ZM635.295 458C635.602 458 635.809 457.947 635.915 457.84C636.035 457.733 636.095 457.54 636.095 457.26C636.095 456.953 636.035 456.747 635.915 456.64C635.809 456.533 635.602 456.48 635.295 456.48C634.989 456.48 634.775 456.533 634.655 456.64C634.549 456.747 634.495 456.953 634.495 457.26C634.495 457.54 634.549 457.733 634.655 457.84C634.775 457.947 634.989 458 635.295 458ZM644.536 453.4C644.536 452.587 644.702 452.007 645.036 451.66C645.382 451.3 645.982 451.12 646.836 451.12C647.689 451.12 648.282 451.28 648.616 451.6C648.949 451.92 649.116 452.427 649.116 453.12C649.116 453.733 648.949 454.2 648.616 454.52C648.282 454.827 647.822 454.98 647.236 454.98V459.14L648.956 456.74H649.996L651.756 459.14V451.42H654.456V462H651.576L649.496 458.92L647.436 462H644.536V453.4ZM646.896 453.88C647.202 453.88 647.409 453.827 647.516 453.72C647.636 453.613 647.696 453.42 647.696 453.14C647.696 452.833 647.636 452.627 647.516 452.52C647.409 452.413 647.202 452.36 646.896 452.36C646.589 452.36 646.376 452.413 646.256 452.52C646.149 452.627 646.096 452.833 646.096 453.14C646.096 453.42 646.149 453.613 646.256 453.72C646.376 453.827 646.589 453.88 646.896 453.88ZM645.213 450.22C645.333 448.993 645.839 448.053 646.733 447.4C647.626 446.733 648.739 446.4 650.073 446.4C651.433 446.4 652.566 446.733 653.473 447.4C654.366 448.053 654.859 448.993 654.953 450.22H645.213ZM652.433 448.88C652.326 448.547 652.059 448.3 651.633 448.14C651.206 447.967 650.693 447.88 650.093 447.88C649.493 447.88 648.979 447.967 648.553 448.14C648.126 448.3 647.866 448.547 647.773 448.88H652.433ZM657.333 455.32C657.333 454.013 657.713 452.987 658.473 452.24C659.246 451.493 660.519 451.12 662.293 451.12C665.639 451.12 667.313 452.52 667.313 455.32V462H664.693V455.14C664.693 454.38 664.519 453.827 664.173 453.48C663.839 453.12 663.213 452.94 662.293 452.94C661.373 452.94 660.753 453.113 660.433 453.46C660.113 453.807 659.953 454.367 659.953 455.14V459.98L661.173 458.74C660.853 458.647 660.626 458.48 660.493 458.24C660.359 458 660.293 457.647 660.293 457.18C660.293 456.487 660.453 455.993 660.773 455.7C661.093 455.407 661.593 455.26 662.273 455.26C663.099 455.26 663.659 455.407 663.953 455.7C664.246 455.993 664.393 456.507 664.393 457.24C664.393 457.667 664.306 458.02 664.133 458.3C663.973 458.58 663.706 458.907 663.333 459.28L660.633 462H657.333V455.32ZM662.333 457.94C662.626 457.94 662.833 457.88 662.953 457.76C663.073 457.64 663.133 457.44 663.133 457.16C663.133 456.867 663.073 456.667 662.953 456.56C662.846 456.453 662.639 456.4 662.333 456.4C662.013 456.4 661.793 456.453 661.673 456.56C661.566 456.667 661.513 456.867 661.513 457.16C661.513 457.453 661.573 457.66 661.693 457.78C661.813 457.887 662.026 457.94 662.333 457.94ZM670.968 454.98C670.381 454.98 669.921 454.827 669.588 454.52C669.255 454.2 669.088 453.733 669.088 453.12C669.088 452.427 669.255 451.92 669.588 451.6C669.921 451.28 670.515 451.12 671.368 451.12C672.221 451.12 672.815 451.3 673.148 451.66C673.495 452.007 673.668 452.587 673.668 453.4V458.1L675.108 454.5H676.148L677.648 458.1V451.42H680.348V462H677.588L675.648 457.52L673.748 462H670.968V454.98ZM671.308 453.88C671.615 453.88 671.821 453.827 671.928 453.72C672.048 453.613 672.108 453.42 672.108 453.14C672.108 452.833 672.048 452.627 671.928 452.52C671.821 452.413 671.615 452.36 671.308 452.36C671.001 452.36 670.788 452.413 670.668 452.52C670.561 452.627 670.508 452.833 670.508 453.14C670.508 453.42 670.561 453.613 670.668 453.72C670.788 453.827 671.001 453.88 671.308 453.88ZM684.587 462.3C683.76 462.3 683.174 462.087 682.827 461.66C682.494 461.22 682.327 460.533 682.327 459.6C682.327 456.8 683.654 455.4 686.307 455.4C686.88 455.4 687.4 455.48 687.867 455.64C688.347 455.787 688.707 456.013 688.947 456.32V455C688.947 454.32 688.754 453.807 688.367 453.46C687.994 453.113 687.4 452.94 686.587 452.94C685.4 452.94 684.4 453.307 683.587 454.04L682.487 452.54C683.634 451.593 685.107 451.12 686.907 451.12C688.467 451.12 689.647 451.467 690.447 452.16C691.247 452.853 691.647 453.8 691.647 455V462H689.027C689.027 460.813 688.94 459.873 688.767 459.18C688.594 458.487 688.314 457.987 687.927 457.68C687.554 457.373 687.04 457.22 686.387 457.22C685.867 457.22 685.467 457.313 685.187 457.5C684.92 457.687 684.767 457.993 684.727 458.42L685.047 458.4C685.674 458.4 686.134 458.56 686.427 458.88C686.72 459.2 686.867 459.687 686.867 460.34C686.867 461.02 686.7 461.52 686.367 461.84C686.034 462.147 685.44 462.3 684.587 462.3ZM684.647 461.08C684.954 461.08 685.16 461.027 685.267 460.92C685.387 460.8 685.447 460.587 685.447 460.28C685.447 460 685.387 459.807 685.267 459.7C685.16 459.593 684.954 459.54 684.647 459.54C684.34 459.54 684.127 459.593 684.007 459.7C683.9 459.807 683.847 460 683.847 460.28C683.847 460.573 683.907 460.78 684.027 460.9C684.147 461.02 684.354 461.08 684.647 461.08ZM698.208 455C698.208 454.28 698.075 453.76 697.808 453.44C697.541 453.107 697.075 452.94 696.408 452.94C695.608 452.94 694.861 453.26 694.168 453.9L693.088 452.44C693.595 451.987 694.148 451.653 694.748 451.44C695.348 451.227 696.028 451.12 696.788 451.12C698.308 451.12 699.375 451.46 699.988 452.14C700.601 452.82 700.908 453.78 700.908 455.02V462H698.208V455ZM703.297 455.32C703.297 454.013 703.677 452.987 704.437 452.24C705.211 451.493 706.484 451.12 708.257 451.12C711.604 451.12 713.277 452.52 713.277 455.32V462H710.657V455.14C710.657 454.38 710.484 453.827 710.137 453.48C709.804 453.12 709.177 452.94 708.257 452.94C707.337 452.94 706.717 453.113 706.397 453.46C706.077 453.807 705.917 454.367 705.917 455.14V459.98L707.137 458.74C706.817 458.647 706.591 458.48 706.457 458.24C706.324 458 706.257 457.647 706.257 457.18C706.257 456.487 706.417 455.993 706.737 455.7C707.057 455.407 707.557 455.26 708.237 455.26C709.064 455.26 709.624 455.407 709.917 455.7C710.211 455.993 710.357 456.507 710.357 457.24C710.357 457.667 710.271 458.02 710.097 458.3C709.937 458.58 709.671 458.907 709.297 459.28L706.597 462H703.297V455.32ZM708.297 457.94C708.591 457.94 708.797 457.88 708.917 457.76C709.037 457.64 709.097 457.44 709.097 457.16C709.097 456.867 709.037 456.667 708.917 456.56C708.811 456.453 708.604 456.4 708.297 456.4C707.977 456.4 707.757 456.453 707.637 456.56C707.531 456.667 707.477 456.867 707.477 457.16C707.477 457.453 707.537 457.66 707.657 457.78C707.777 457.887 707.991 457.94 708.297 457.94ZM719.833 462.3C718.98 462.3 718.38 462.127 718.033 461.78C717.7 461.42 717.533 460.833 717.533 460.02V454.58C717.533 454.113 717.646 453.687 717.873 453.3C718.113 452.9 718.446 452.46 718.873 451.98C719.26 451.527 719.546 451.153 719.733 450.86C719.92 450.553 720.013 450.227 720.013 449.88C720.013 449.52 719.913 449.253 719.713 449.08C719.526 448.907 719.226 448.82 718.813 448.82C718.4 448.82 718.086 448.92 717.873 449.12C717.66 449.307 717.553 449.587 717.553 449.96V450.64H714.853V449.94C714.853 449.007 715.233 448.287 715.993 447.78C716.766 447.26 717.72 447 718.853 447C720.146 447 721.1 447.253 721.713 447.76C722.34 448.267 722.653 448.973 722.653 449.88C722.653 450.333 722.546 450.747 722.333 451.12C722.12 451.493 721.8 451.94 721.373 452.46C720.986 452.94 720.7 453.34 720.513 453.66C720.326 453.98 720.233 454.32 720.233 454.68V458.44C720.82 458.44 721.28 458.6 721.613 458.92C721.946 459.227 722.113 459.687 722.113 460.3C722.113 460.993 721.946 461.5 721.613 461.82C721.28 462.14 720.686 462.3 719.833 462.3ZM719.893 461.06C720.2 461.06 720.406 461.007 720.513 460.9C720.633 460.793 720.693 460.587 720.693 460.28C720.693 460 720.633 459.807 720.513 459.7C720.406 459.593 720.2 459.54 719.893 459.54C719.586 459.54 719.373 459.593 719.253 459.7C719.146 459.807 719.093 460 719.093 460.28C719.093 460.587 719.146 460.793 719.253 460.9C719.373 461.007 719.586 461.06 719.893 461.06ZM732.86 462.3C731.286 462.3 730.553 461.727 730.66 460.58L728.66 462H726.34V454.98C725.753 454.98 725.286 454.827 724.94 454.52C724.606 454.2 724.44 453.733 724.44 453.12C724.44 452.427 724.606 451.92 724.94 451.6C725.273 451.28 725.866 451.12 726.72 451.12C727.586 451.12 728.186 451.3 728.52 451.66C728.866 452.007 729.04 452.587 729.04 453.4V459.46L731.84 457.58C732 457.487 732.106 457.38 732.16 457.26C732.226 457.14 732.26 456.98 732.26 456.78V451.42H734.96V456.44C734.96 456.88 734.88 457.247 734.72 457.54C734.573 457.82 734.293 458.1 733.88 458.38C734.386 458.473 734.746 458.667 734.96 458.96C735.173 459.253 735.28 459.673 735.28 460.22C735.28 460.98 735.106 461.52 734.76 461.84C734.413 462.147 733.78 462.3 732.86 462.3ZM726.66 453.88C726.966 453.88 727.173 453.827 727.28 453.72C727.4 453.613 727.46 453.42 727.46 453.14C727.46 452.833 727.4 452.627 727.28 452.52C727.173 452.413 726.966 452.36 726.66 452.36C726.353 452.36 726.14 452.413 726.02 452.52C725.913 452.627 725.86 452.833 725.86 453.14C725.86 453.42 725.913 453.613 726.02 453.72C726.14 453.827 726.353 453.88 726.66 453.88ZM732.92 460.96C733.226 460.96 733.433 460.907 733.54 460.8C733.66 460.693 733.72 460.493 733.72 460.2C733.72 459.907 733.66 459.707 733.54 459.6C733.433 459.48 733.226 459.42 732.92 459.42C732.613 459.42 732.4 459.48 732.28 459.6C732.173 459.707 732.12 459.907 732.12 460.2C732.12 460.493 732.173 460.693 732.28 460.8C732.4 460.907 732.613 460.96 732.92 460.96ZM737.316 457.88C737.316 457.293 737.396 456.813 737.556 456.44C737.73 456.067 738.03 455.753 738.456 455.5L736.936 454.6V453.04C737.576 452.427 738.323 451.953 739.176 451.62C740.043 451.287 740.983 451.12 741.996 451.12C743.636 451.12 744.87 451.467 745.696 452.16C746.536 452.853 746.956 453.787 746.956 454.96V462H744.256V454.84C744.256 454.227 744.063 453.76 743.676 453.44C743.29 453.107 742.723 452.94 741.976 452.94C741.003 452.94 740.176 453.187 739.496 453.68V453.94L741.036 454.9V455.96C740.636 456.12 740.363 456.327 740.216 456.58C740.083 456.833 740.016 457.22 740.016 457.74V462H737.316V457.88ZM753.52 455C753.52 454.28 753.387 453.76 753.12 453.44C752.854 453.107 752.387 452.94 751.72 452.94C750.92 452.94 750.174 453.26 749.48 453.9L748.4 452.44C748.907 451.987 749.46 451.653 750.06 451.44C750.66 451.227 751.34 451.12 752.1 451.12C753.62 451.12 754.687 451.46 755.3 452.14C755.914 452.82 756.22 453.78 756.22 455.02V462H753.52V455ZM762.69 462.3C761.837 462.3 761.243 462.14 760.91 461.82C760.577 461.5 760.41 460.993 760.41 460.3C760.41 459.687 760.577 459.227 760.91 458.92C761.243 458.6 761.703 458.44 762.29 458.44V457.58C762.29 457.233 762.223 456.987 762.09 456.84C761.957 456.68 761.71 456.547 761.35 456.44L758.21 455.52V454.32C758.21 453.2 758.59 452.387 759.35 451.88C760.11 451.373 761.13 451.12 762.41 451.12C763.37 451.12 764.163 451.22 764.79 451.42C765.417 451.607 766.003 451.913 766.55 452.34L765.45 453.82C765.13 453.553 764.743 453.34 764.29 453.18C763.837 453.02 763.337 452.94 762.79 452.94C762.163 452.94 761.69 453.047 761.37 453.26C761.063 453.46 760.91 453.747 760.91 454.12V454.42L763.59 455.2C764.003 455.32 764.31 455.473 764.51 455.66C764.71 455.833 764.837 456.06 764.89 456.34C764.957 456.62 764.99 457.007 764.99 457.5V460.02C764.99 460.833 764.817 461.42 764.47 461.78C764.137 462.127 763.543 462.3 762.69 462.3ZM762.63 461.06C762.937 461.06 763.143 461.007 763.25 460.9C763.37 460.793 763.43 460.587 763.43 460.28C763.43 460 763.37 459.807 763.25 459.7C763.143 459.593 762.937 459.54 762.63 459.54C762.323 459.54 762.11 459.593 761.99 459.7C761.883 459.807 761.83 460 761.83 460.28C761.83 460.587 761.883 460.793 761.99 460.9C762.11 461.007 762.323 461.06 762.63 461.06ZM776.788 451.66C776.668 451.313 776.515 451.087 776.328 450.98C776.155 450.86 775.868 450.8 775.468 450.8H775.128V449.06H778.708L781.688 458.58L784.608 449.06H788.228V450.8H787.888C787.475 450.8 787.181 450.86 787.008 450.98C786.835 451.087 786.681 451.313 786.548 451.66L782.968 462H780.428L776.788 451.66ZM792.448 462.3C790.848 462.3 789.588 461.88 788.668 461.04C787.761 460.187 787.308 458.94 787.308 457.3C787.308 455.567 787.741 454.267 788.608 453.4C789.474 452.533 790.708 452.1 792.308 452.1C793.854 452.1 795.028 452.533 795.828 453.4C796.641 454.253 797.048 455.413 797.048 456.88V457.82H789.908C789.908 458.753 790.128 459.44 790.568 459.88C791.008 460.307 791.641 460.52 792.468 460.52C793.294 460.52 793.954 460.413 794.448 460.2V459.5H796.708V461.02C795.694 461.873 794.274 462.3 792.448 462.3ZM794.448 456.32C794.448 455.493 794.268 454.88 793.908 454.48C793.548 454.08 793.001 453.88 792.268 453.88C791.508 453.88 790.921 454.093 790.508 454.52C790.108 454.933 789.908 455.533 789.908 456.32H794.448ZM798.628 460.26H799.148C799.428 460.26 799.628 460.2 799.748 460.08C799.868 459.947 799.928 459.747 799.928 459.48V454.88C799.928 454.627 799.875 454.44 799.768 454.32C799.661 454.2 799.475 454.14 799.208 454.14H798.628V452.4H802.048L802.308 453.46C802.761 452.753 803.575 452.4 804.748 452.4H805.788V454.14H804.428C803.761 454.14 803.281 454.293 802.988 454.6C802.695 454.907 802.548 455.373 802.548 456V459.52C802.548 459.773 802.601 459.96 802.708 460.08C802.828 460.2 803.021 460.26 803.288 460.26H803.808V462H798.628V460.26ZM808.175 448.84H810.935V450.96H808.175V448.84ZM806.975 460.26H807.495C807.775 460.26 807.975 460.2 808.095 460.08C808.215 459.947 808.275 459.747 808.275 459.48V454.98C808.275 454.687 808.221 454.473 808.115 454.34C808.021 454.207 807.828 454.14 807.535 454.14H806.975V452.4H810.895V459.52C810.895 459.773 810.948 459.96 811.055 460.08C811.175 460.2 811.368 460.26 811.635 460.26H812.155V462H806.975V460.26ZM813.554 460.26H814.074C814.354 460.26 814.554 460.2 814.674 460.08C814.794 459.947 814.854 459.747 814.854 459.48V454.14H813.334V452.4H814.854V451.76C814.854 450.667 815.174 449.82 815.814 449.22C816.467 448.607 817.421 448.3 818.674 448.3C820.127 448.3 821.294 448.667 822.174 449.4V451.12H819.914V450.32C819.661 450.107 819.314 450 818.874 450C818.434 450 818.087 450.133 817.834 450.4C817.594 450.667 817.474 451.067 817.474 451.6V452.4H820.214V454.14H817.474V459.52C817.474 459.773 817.527 459.96 817.634 460.08C817.754 460.2 817.947 460.26 818.214 460.26H818.734V462H813.554V460.26ZM827.04 466C826.187 466 825.414 465.88 824.72 465.64C824.027 465.4 823.44 465.053 822.96 464.6V463.1H825.22V463.8C825.42 463.987 825.654 464.113 825.92 464.18C826.2 464.26 826.547 464.3 826.96 464.3C828.187 464.3 828.8 463.58 828.8 462.14V461.06C828.08 461.62 827.22 461.9 826.22 461.9C825.02 461.9 824.074 461.6 823.38 461C822.7 460.387 822.36 459.533 822.36 458.44V454.88C822.36 454.387 822.107 454.14 821.6 454.14H821.08V452.4H825.02V458.54C825.02 459.647 825.587 460.2 826.72 460.2C827.307 460.2 827.767 460.033 828.1 459.7C828.447 459.367 828.62 458.887 828.62 458.26V454.88C828.62 454.387 828.367 454.14 827.86 454.14H827.34V452.4H831.3V461.68C831.3 462.987 830.914 464.033 830.14 464.82C829.38 465.607 828.347 466 827.04 466Z" fill="black"/>
<mask id="path-6-inside-1_1_10210" fill="white">
<path d="M440 499H1000V569H440V499Z"/>
</mask>
<path d="M440 499H1000V569H440V499Z" fill="white"/>
<path d="M440 499V500H1000V499V498H440V499Z" fill="#CBD5E1" mask="url(#path-6-inside-1_1_10210)"/>
<rect x="640.5" y="515.5" width="159" height="37" rx="5.5" fill="#003366"/>
<rect x="640.5" y="515.5" width="159" height="37" rx="5.5" stroke="#003366"/>
<g clip-path="url(#clip2_1_10210)">
<rect width="37" height="24" transform="translate(701.5 522)" fill="white" fill-opacity="0.01"/>
<path d="M702.348 532.664C702.348 531.885 702.535 531.299 702.908 530.904C703.281 530.499 703.799 530.296 704.46 530.296C705.388 530.296 705.953 530.627 706.156 531.288C706.401 530.627 706.983 530.296 707.9 530.296C709.276 530.296 709.964 531.085 709.964 532.664V539H708.236V532.792C708.236 532.269 708.193 531.917 708.108 531.736C708.023 531.555 707.825 531.464 707.516 531.464C707.26 531.464 707.073 531.539 706.956 531.688C706.849 531.837 706.796 532.067 706.796 532.376V532.552H705.5V532.376C705.5 532.056 705.452 531.827 705.356 531.688C705.271 531.539 705.1 531.464 704.844 531.464C704.535 531.464 704.327 531.56 704.22 531.752C704.124 531.933 704.076 532.275 704.076 532.776V537.656L705.356 536.344C705.068 536.259 704.871 536.125 704.764 535.944C704.657 535.752 704.604 535.459 704.604 535.064C704.604 534.531 704.732 534.152 704.988 533.928C705.244 533.693 705.633 533.576 706.156 533.576C706.775 533.576 707.201 533.688 707.436 533.912C707.671 534.136 707.788 534.515 707.788 535.048C707.788 535.368 707.719 535.64 707.58 535.864C707.452 536.088 707.244 536.344 706.956 536.632L704.652 539H702.348V532.664ZM706.188 535.704C706.444 535.704 706.62 535.656 706.716 535.56C706.823 535.453 706.876 535.283 706.876 535.048C706.876 534.792 706.823 534.621 706.716 534.536C706.62 534.44 706.444 534.392 706.188 534.392C705.921 534.392 705.74 534.44 705.644 534.536C705.548 534.621 705.5 534.792 705.5 535.048C705.5 535.293 705.548 535.464 705.644 535.56C705.751 535.656 705.932 535.704 706.188 535.704ZM712.076 535.528C712.076 535.08 712.146 534.707 712.284 534.408C712.423 534.099 712.663 533.848 713.004 533.656L711.74 532.904V531.768C712.242 531.299 712.823 530.936 713.484 530.68C714.146 530.424 714.86 530.296 715.628 530.296C716.876 530.296 717.82 530.568 718.46 531.112C719.1 531.645 719.42 532.371 719.42 533.288V539H717.693V533.24C717.693 532.664 717.516 532.232 717.164 531.944C716.812 531.645 716.3 531.496 715.628 531.496C714.732 531.496 713.975 531.736 713.356 532.216V532.424L714.652 533.24V533.992C714.322 534.12 714.098 534.296 713.98 534.52C713.863 534.733 713.804 535.059 713.804 535.496V539H712.076V535.528ZM722.883 539.24C722.275 539.24 721.843 539.075 721.587 538.744C721.331 538.403 721.203 537.885 721.203 537.192C721.203 534.931 722.243 533.8 724.323 533.8C724.835 533.8 725.294 533.885 725.699 534.056C726.104 534.216 726.408 534.461 726.611 534.792V533.352C726.611 532.733 726.451 532.269 726.131 531.96C725.822 531.651 725.315 531.496 724.611 531.496C724.078 531.496 723.603 531.571 723.187 531.72C722.782 531.869 722.403 532.109 722.051 532.44L721.283 531.448C722.158 530.68 723.304 530.296 724.723 530.296C725.918 530.296 726.819 530.568 727.427 531.112C728.035 531.645 728.339 532.381 728.339 533.32V539H726.659C726.659 538.04 726.584 537.272 726.435 536.696C726.286 536.109 726.04 535.683 725.699 535.416C725.368 535.139 724.915 535 724.339 535C723.838 535 723.464 535.096 723.219 535.288C722.984 535.469 722.84 535.789 722.787 536.248C722.872 536.237 722.99 536.232 723.139 536.232C723.63 536.232 723.987 536.36 724.211 536.616C724.446 536.861 724.563 537.235 724.563 537.736C724.563 538.259 724.435 538.643 724.179 538.888C723.923 539.123 723.491 539.24 722.883 539.24ZM722.915 538.376C723.182 538.376 723.363 538.328 723.459 538.232C723.555 538.136 723.603 537.96 723.603 537.704C723.603 537.459 723.555 537.293 723.459 537.208C723.363 537.112 723.182 537.064 722.915 537.064C722.659 537.064 722.478 537.112 722.371 537.208C722.275 537.304 722.227 537.469 722.227 537.704C722.227 537.949 722.28 538.125 722.387 538.232C722.494 538.328 722.67 538.376 722.915 538.376ZM729.799 533.256H731.495L733.159 537.8H734.055C734.385 537.8 734.631 537.736 734.791 537.608C734.951 537.469 735.031 537.251 735.031 536.952V533.256C734.935 533.267 734.812 533.272 734.663 533.272C734.257 533.272 733.943 533.155 733.719 532.92C733.495 532.675 733.383 532.312 733.383 531.832C733.383 531.299 733.505 530.909 733.751 530.664C734.007 530.419 734.444 530.296 735.063 530.296C735.703 530.296 736.145 530.419 736.391 530.664C736.636 530.899 736.759 531.315 736.759 531.912V536.296C736.759 536.765 736.711 537.192 736.615 537.576C736.529 537.949 736.311 538.28 735.959 538.568C735.617 538.856 735.095 539 734.391 539H731.911L729.799 533.256ZM735.031 532.472C735.287 532.472 735.463 532.424 735.559 532.328C735.665 532.232 735.719 532.067 735.719 531.832C735.719 531.576 735.671 531.405 735.575 531.32C735.479 531.224 735.297 531.176 735.031 531.176C734.764 531.176 734.583 531.224 734.487 531.32C734.391 531.405 734.343 531.576 734.343 531.832C734.343 532.077 734.391 532.248 734.487 532.344C734.583 532.429 734.764 532.472 735.031 532.472Z" fill="white"/>
</g>
</g>
<defs>
<clipPath id="clip0_1_10210">
<rect width="1440" height="900" fill="white"/>
</clipPath>
<clipPath id="clip1_1_10210">
<rect width="48" height="48" fill="white" transform="translate(696 302)"/>
</clipPath>
<clipPath id="clip2_1_10210">
<rect width="37" height="24" fill="white" transform="translate(701.5 522)"/>
</clipPath>
</defs>
</svg>