<svg width="24" height="24" viewBox="0 0 24 24" xmlns="http://www.w3.org/2000/svg">
<g clip-path="url(#clip0_7052_47393)">
<path d="M19.75 22.5998L10.35 13.1498C9.56667 13.3331 8.8375 13.6081 8.1625 13.9748C7.4875 14.3415 6.88333 14.7998 6.35 15.3498L4.25 13.1998C4.78333 12.6665 5.35833 12.1998 5.975 11.7998C6.59167 11.3998 7.25 11.0498 7.95 10.7498L5.7 8.4998C5.01667 8.84981 4.37917 9.23731 3.7875 9.66231C3.19583 10.0873 2.63333 10.5665 2.1 11.0998L0 8.94981C0.533333 8.41647 1.0875 7.9373 1.6625 7.51231C2.2375 7.08731 2.85 6.68314 3.5 6.2998L1.4 4.1998L2.8 2.7998L21.2 21.1998L19.75 22.5998ZM12 20.9998C11.3 20.9998 10.7083 20.754 10.225 20.2623C9.74167 19.7706 9.5 19.1831 9.5 18.4998C9.5 17.7998 9.74167 17.2081 10.225 16.7248C10.7083 16.2415 11.3 15.9998 12 15.9998C12.7 15.9998 13.2917 16.2415 13.775 16.7248C14.2583 17.2081 14.5 17.7998 14.5 18.4998C14.5 19.1831 14.2583 19.7706 13.775 20.2623C13.2917 20.754 12.7 20.9998 12 20.9998ZM17.9 15.0498L17.175 14.3248L16.45 13.5998L12.85 9.99981C14.2 10.1331 15.4625 10.4748 16.6375 11.0248C17.8125 11.5748 18.85 12.2998 19.75 13.1998L17.9 15.0498ZM21.9 11.0998C20.6167 9.81647 19.1292 8.81231 17.4375 8.08731C15.7458 7.36231 13.9333 6.9998 12 6.9998C11.65 6.9998 11.3125 7.01231 10.9875 7.0373C10.6625 7.0623 10.3333 7.0998 10 7.14981L7.45 4.5998C8.18333 4.3998 8.92917 4.2498 9.6875 4.1498C10.4458 4.0498 11.2167 3.9998 12 3.9998C14.3667 3.9998 16.575 4.44147 18.625 5.32481C20.675 6.20814 22.4667 7.41647 24 8.94981L21.9 11.0998Z" fill="white"/>
</g>
<defs>
<clipPath id="clip0_7052_47393">
<rect width="24" height="24" fill="white"/>
</clipPath>
</defs>
</svg>
