<svg width="22" height="19" viewBox="0 0 22 19" fill="none" xmlns="http://www.w3.org/2000/svg">
<path d="M20.1025 10.08H10.5825V8.00999C10.5925 7.17999 9.9225 6.51 9.0925 6.5C8.6925 6.5 8.3125 6.66 8.0225 6.94L3.4425 11.52C2.8525 12.11 2.8525 13.06 3.4425 13.64L8.0325 18.23C8.6225 18.82 9.5725 18.82 10.1525 18.23C10.4325 17.95 10.5925 17.57 10.5925 17.17V15.08H20.0925C20.9225 15.08 21.5925 14.41 21.5925 13.58V11.58C21.5925 10.75 20.9225 10.08 20.0925 10.08H20.1025Z" fill="url(#paint0_linear_8937_47190)"/>
<defs>
<linearGradient id="paint0_linear_8937_47190" x1="12.2963" y1="12.5862" x2="12.2963" y2="18.6725" gradientUnits="userSpaceOnUse">
<stop stop-color="white"/>
</linearGradient>
</defs>
</svg>
