<svg width="16" height="16" viewBox="0 0 16 16" fill="none" xmlns="http://www.w3.org/2000/svg">
<g id="icon-24/change">
<path id="Vector" d="M2.66699 13.3334V12H4.50033L4.23366 11.7667C3.65588 11.2556 3.25033 10.6722 3.01699 10.0167C2.78366 9.36113 2.66699 8.70002 2.66699 8.03335C2.66699 6.80002 3.03644 5.7028 3.77533 4.74169C4.51421 3.78058 5.4781 3.14446 6.66699 2.83335V4.23335C5.86699 4.52224 5.22255 5.01391 4.73366 5.70835C4.24477 6.4028 4.00033 7.1778 4.00033 8.03335C4.00033 8.53335 4.09477 9.01946 4.28366 9.49169C4.47255 9.96391 4.76699 10.4 5.16699 10.8L5.33366 10.9667V9.33335H6.66699V13.3334H2.66699ZM9.33366 13.1667V11.7667C10.1337 11.4778 10.7781 10.9861 11.267 10.2917C11.7559 9.59724 12.0003 8.82224 12.0003 7.96669C12.0003 7.46669 11.9059 6.98058 11.717 6.50835C11.5281 6.03613 11.2337 5.60002 10.8337 5.20002L10.667 5.03335V6.66669H9.33366V2.66669H13.3337V4.00002H11.5003L11.767 4.23335C12.3114 4.7778 12.7087 5.36946 12.9587 6.00835C13.2087 6.64724 13.3337 7.30002 13.3337 7.96669C13.3337 9.20002 12.9642 10.2972 12.2253 11.2584C11.4864 12.2195 10.5225 12.8556 9.33366 13.1667Z" fill="#333333"/>
</g>
</svg>
