<svg width="20" height="20" viewBox="0 0 20 20" fill="none" xmlns="http://www.w3.org/2000/svg">
<g id="icon-24/cog">
<path id="Vector" d="M17.767 7.95833L16.192 7.43333L16.9337 5.94999C17.0088 5.79473 17.034 5.61996 17.0056 5.4498C16.9773 5.27964 16.8968 5.12248 16.7753 4.99999L15.0003 3.22499C14.8772 3.10173 14.7185 3.02016 14.5466 2.99176C14.3747 2.96336 14.1982 2.98956 14.042 3.06666L12.5587 3.80833L12.0337 2.23333C11.9782 2.06915 11.873 1.92635 11.7326 1.82478C11.5922 1.72322 11.4236 1.66795 11.2503 1.66666H8.75033C8.57563 1.66621 8.4052 1.72068 8.26314 1.82236C8.12108 1.92405 8.01457 2.06781 7.95866 2.23333L7.43366 3.80833L5.95033 3.06666C5.79507 2.99148 5.6203 2.96633 5.45014 2.99469C5.27998 3.02305 5.12281 3.10352 5.00033 3.22499L3.22533 4.99999C3.10207 5.12313 3.0205 5.28181 2.9921 5.45371C2.9637 5.62561 2.98989 5.80208 3.067 5.95833L3.80866 7.44166L2.23366 7.96666C2.06949 8.02211 1.92668 8.12735 1.82512 8.26775C1.72355 8.40815 1.66828 8.57671 1.66699 8.74999V11.25C1.66654 11.4247 1.72101 11.5951 1.8227 11.7372C1.92438 11.8792 2.06814 11.9858 2.23366 12.0417L3.80866 12.5667L3.067 14.05C2.99181 14.2053 2.96666 14.38 2.99502 14.5502C3.02338 14.7203 3.10385 14.8775 3.22533 15L5.00033 16.775C5.12347 16.8983 5.28214 16.9798 5.45404 17.0082C5.62594 17.0366 5.80242 17.0104 5.95866 16.9333L7.442 16.1917L7.967 17.7667C8.0229 17.9322 8.12941 18.0759 8.27147 18.1776C8.41353 18.2793 8.58396 18.3338 8.75866 18.3333H11.2587C11.4334 18.3338 11.6038 18.2793 11.7459 18.1776C11.8879 18.0759 11.9944 17.9322 12.0503 17.7667L12.5753 16.1917L14.0587 16.9333C14.2129 17.0066 14.386 17.0307 14.5544 17.0024C14.7229 16.9741 14.8785 16.8947 15.0003 16.775L16.7753 15C16.8986 14.8769 16.9802 14.7182 17.0086 14.5463C17.037 14.3744 17.0108 14.1979 16.9337 14.0417L16.192 12.5583L17.767 12.0333C17.9312 11.9779 18.074 11.8726 18.1755 11.7322C18.2771 11.5918 18.3324 11.4233 18.3337 11.25V8.74999C18.3341 8.57529 18.2796 8.40486 18.178 8.2628C18.0763 8.12074 17.9325 8.01423 17.767 7.95833ZM16.667 10.65L15.667 10.9833C15.437 11.0579 15.2261 11.1816 15.0487 11.3459C14.8713 11.5102 14.7318 11.7111 14.6399 11.9346C14.5479 12.1582 14.5057 12.3991 14.5161 12.6406C14.5266 12.8822 14.5894 13.1185 14.7003 13.3333L15.1753 14.2833L14.2587 15.2L13.3337 14.7C13.12 14.5935 12.8859 14.5342 12.6473 14.5261C12.4086 14.5179 12.1711 14.5612 11.9506 14.6528C11.7301 14.7445 11.5319 14.8824 11.3694 15.0574C11.2069 15.2323 11.0839 15.4401 11.0087 15.6667L10.6753 16.6667H9.35033L9.01699 15.6667C8.9424 15.4367 8.81868 15.2257 8.65441 15.0484C8.49014 14.871 8.28925 14.7315 8.06568 14.6395C7.84211 14.5476 7.6012 14.5054 7.35968 14.5158C7.11816 14.5262 6.8818 14.5891 6.667 14.7L5.717 15.175L4.80033 14.2583L5.30033 13.3333C5.41124 13.1185 5.47409 12.8822 5.48453 12.6406C5.49497 12.3991 5.45274 12.1582 5.36078 11.9346C5.26881 11.7111 5.12931 11.5102 4.95195 11.3459C4.77459 11.1816 4.56361 11.0579 4.33366 10.9833L3.33366 10.65V9.34999L4.33366 9.01666C4.56361 8.94207 4.77459 8.81835 4.95195 8.65408C5.12931 8.4898 5.26881 8.28891 5.36078 8.06534C5.45274 7.84177 5.49497 7.60087 5.48453 7.35935C5.47409 7.11782 5.41124 6.88146 5.30033 6.66666L4.82533 5.74166L5.742 4.82499L6.667 5.29999C6.8818 5.4109 7.11816 5.47376 7.35968 5.4842C7.6012 5.49464 7.84211 5.45241 8.06568 5.36044C8.28925 5.26848 8.49014 5.12897 8.65441 4.95161C8.81868 4.77425 8.9424 4.56328 9.01699 4.33333L9.35033 3.33333H10.6503L10.9837 4.33333C11.0583 4.56328 11.182 4.77425 11.3462 4.95161C11.5105 5.12897 11.7114 5.26848 11.935 5.36044C12.1586 5.45241 12.3995 5.49464 12.641 5.4842C12.8825 5.47376 13.1189 5.4109 13.3337 5.29999L14.2837 4.82499L15.2003 5.74166L14.7003 6.66666C14.5939 6.88036 14.5345 7.11445 14.5264 7.35307C14.5183 7.59169 14.5615 7.82927 14.6532 8.04973C14.7448 8.27019 14.8828 8.46838 15.0577 8.63089C15.2326 8.7934 15.4404 8.91643 15.667 8.99166L16.667 9.32499V10.65ZM10.0003 6.66666C9.34106 6.66666 8.69659 6.86216 8.14843 7.22843C7.60026 7.5947 7.17302 8.11529 6.92073 8.72438C6.66844 9.33347 6.60243 10.0037 6.73104 10.6503C6.85966 11.2969 7.17713 11.8908 7.64331 12.357C8.10948 12.8232 8.70342 13.1407 9.35003 13.2693C9.99663 13.3979 10.6669 13.3319 11.2759 13.0796C11.885 12.8273 12.4056 12.4001 12.7719 11.8519C13.1382 11.3037 13.3337 10.6593 13.3337 9.99999C13.3337 9.11594 12.9825 8.26809 12.3574 7.64297C11.7322 7.01785 10.8844 6.66666 10.0003 6.66666V6.66666ZM10.0003 11.6667C9.67069 11.6667 9.34846 11.5689 9.07438 11.3858C8.8003 11.2026 8.58667 10.9423 8.46053 10.6378C8.33438 10.3333 8.30138 9.99814 8.36569 9.67484C8.42999 9.35154 8.58873 9.05457 8.82182 8.82148C9.0549 8.58839 9.35188 8.42966 9.67518 8.36535C9.99848 8.30104 10.3336 8.33405 10.6381 8.46019C10.9427 8.58634 11.203 8.79996 11.3861 9.07404C11.5692 9.34812 11.667 9.67036 11.667 9.99999C11.667 10.442 11.4914 10.8659 11.1788 11.1785C10.8663 11.4911 10.4424 11.6667 10.0003 11.6667Z" fill="#333333"/>
</g>
</svg>
