<svg width="22" height="15" viewBox="0 0 22 15" fill="none" xmlns="http://www.w3.org/2000/svg">
<path d="M9.33677 10.9208L9.33381 10.9125H9.325H3.675H3.66619L3.66323 10.9208L2.39119 14.4875H0.0180373L5.25866 0.5125H7.74134L12.982 14.4875H10.6088L9.33677 10.9208ZM4.38821 8.89583L4.38232 8.9125H4.4H8.6H8.61768L8.61179 8.89583L6.56179 3.09583L6.55884 3.0875H6.55H6.45H6.44116L6.43821 3.09583L4.38821 8.89583ZM18.9875 8.5V11.4875H17.0125V8.5V8.4875H17H14.0125V6.5125H17H17.0125V6.5V3.5125H18.9875V6.5V6.5125H19H21.9875V8.4875H19H18.9875V8.5Z" fill="#333333" stroke="#333333" stroke-width="0.025"/>
</svg>
