<svg width="16" height="16" viewBox="0 0 16 16" fill="none" xmlns="http://www.w3.org/2000/svg">
<path d="M3.33333 14.6666C2.96667 14.6666 2.65278 14.5361 2.39167 14.275C2.13056 14.0139 2 13.7 2 13.3333V3.99998C2 3.63331 2.13056 3.31942 2.39167 3.05831C2.65278 2.7972 2.96667 2.66665 3.33333 2.66665H4V1.33331H5.33333V2.66665H10.6667V1.33331H12V2.66665H12.6667C13.0333 2.66665 13.3472 2.7972 13.6083 3.05831C13.8694 3.31942 14 3.63331 14 3.99998V13.3333C14 13.7 13.8694 14.0139 13.6083 14.275C13.3472 14.5361 13.0333 14.6666 12.6667 14.6666H3.33333ZM3.33333 13.3333H12.6667V6.66665H3.33333V13.3333ZM3.33333 5.33331H12.6667V3.99998H3.33333V5.33331ZM8 9.33331C7.81111 9.33331 7.65278 9.26942 7.525 9.14165C7.39722 9.01387 7.33333 8.85554 7.33333 8.66665C7.33333 8.47776 7.39722 8.31942 7.525 8.19165C7.65278 8.06387 7.81111 7.99998 8 7.99998C8.18889 7.99998 8.34722 8.06387 8.475 8.19165C8.60278 8.31942 8.66667 8.47776 8.66667 8.66665C8.66667 8.85554 8.60278 9.01387 8.475 9.14165C8.34722 9.26942 8.18889 9.33331 8 9.33331ZM5.33333 9.33331C5.14444 9.33331 4.98611 9.26942 4.85833 9.14165C4.73056 9.01387 4.66667 8.85554 4.66667 8.66665C4.66667 8.47776 4.73056 8.31942 4.85833 8.19165C4.98611 8.06387 5.14444 7.99998 5.33333 7.99998C5.52222 7.99998 5.68056 8.06387 5.80833 8.19165C5.93611 8.31942 6 8.47776 6 8.66665C6 8.85554 5.93611 9.01387 5.80833 9.14165C5.68056 9.26942 5.52222 9.33331 5.33333 9.33331ZM10.6667 9.33331C10.4778 9.33331 10.3194 9.26942 10.1917 9.14165C10.0639 9.01387 10 8.85554 10 8.66665C10 8.47776 10.0639 8.31942 10.1917 8.19165C10.3194 8.06387 10.4778 7.99998 10.6667 7.99998C10.8556 7.99998 11.0139 8.06387 11.1417 8.19165C11.2694 8.31942 11.3333 8.47776 11.3333 8.66665C11.3333 8.85554 11.2694 9.01387 11.1417 9.14165C11.0139 9.26942 10.8556 9.33331 10.6667 9.33331ZM8 12C7.81111 12 7.65278 11.9361 7.525 11.8083C7.39722 11.6805 7.33333 11.5222 7.33333 11.3333C7.33333 11.1444 7.39722 10.9861 7.525 10.8583C7.65278 10.7305 7.81111 10.6666 8 10.6666C8.18889 10.6666 8.34722 10.7305 8.475 10.8583C8.60278 10.9861 8.66667 11.1444 8.66667 11.3333C8.66667 11.5222 8.60278 11.6805 8.475 11.8083C8.34722 11.9361 8.18889 12 8 12ZM5.33333 12C5.14444 12 4.98611 11.9361 4.85833 11.8083C4.73056 11.6805 4.66667 11.5222 4.66667 11.3333C4.66667 11.1444 4.73056 10.9861 4.85833 10.8583C4.98611 10.7305 5.14444 10.6666 5.33333 10.6666C5.52222 10.6666 5.68056 10.7305 5.80833 10.8583C5.93611 10.9861 6 11.1444 6 11.3333C6 11.5222 5.93611 11.6805 5.80833 11.8083C5.68056 11.9361 5.52222 12 5.33333 12ZM10.6667 12C10.4778 12 10.3194 11.9361 10.1917 11.8083C10.0639 11.6805 10 11.5222 10 11.3333C10 11.1444 10.0639 10.9861 10.1917 10.8583C10.3194 10.7305 10.4778 10.6666 10.6667 10.6666C10.8556 10.6666 11.0139 10.7305 11.1417 10.8583C11.2694 10.9861 11.3333 11.1444 11.3333 11.3333C11.3333 11.5222 11.2694 11.6805 11.1417 11.8083C11.0139 11.9361 10.8556 12 10.6667 12Z" fill="#333333"/>
</svg>
