<svg width="20" height="20" viewBox="0 0 20 20" fill="none" xmlns="http://www.w3.org/2000/svg">
<g id="icon-24/gift">
<path id="Vector" d="M15 5.83332H14.7083C14.8985 5.44396 14.9982 5.01665 15 4.58332C15.0025 4.00276 14.8312 3.43473 14.5082 2.95235C14.1851 2.46997 13.7251 2.09531 13.1873 1.87661C12.6495 1.6579 12.0585 1.60516 11.4905 1.72517C10.9225 1.84518 10.4034 2.13244 10 2.54999C9.59662 2.13244 9.07751 1.84518 8.50948 1.72517C7.94146 1.60516 7.35051 1.6579 6.81271 1.87661C6.27491 2.09531 5.81488 2.46997 5.49182 2.95235C5.16877 3.43473 4.99748 4.00276 5 4.58332C5.00178 5.01665 5.10149 5.44396 5.29167 5.83332H5C4.33696 5.83332 3.70107 6.09672 3.23223 6.56556C2.76339 7.0344 2.5 7.67028 2.5 8.33332V9.99999C2.5 10.221 2.5878 10.433 2.74408 10.5892C2.90036 10.7455 3.11232 10.8333 3.33333 10.8333H4.16667V15.8333C4.16667 16.4964 4.43006 17.1323 4.8989 17.6011C5.36774 18.0699 6.00363 18.3333 6.66667 18.3333H13.3333C13.9964 18.3333 14.6323 18.0699 15.1011 17.6011C15.5699 17.1323 15.8333 16.4964 15.8333 15.8333V10.8333H16.6667C16.8877 10.8333 17.0996 10.7455 17.2559 10.5892C17.4122 10.433 17.5 10.221 17.5 9.99999V8.33332C17.5 7.67028 17.2366 7.0344 16.7678 6.56556C16.2989 6.09672 15.663 5.83332 15 5.83332ZM9.16667 16.6667H6.66667C6.44565 16.6667 6.23369 16.5789 6.07741 16.4226C5.92113 16.2663 5.83333 16.0543 5.83333 15.8333V10.8333H9.16667V16.6667ZM9.16667 9.16666H4.16667V8.33332C4.16667 8.11231 4.25446 7.90035 4.41074 7.74407C4.56702 7.58779 4.77899 7.49999 5 7.49999H9.16667V9.16666ZM9.16667 5.83332H7.91667C7.66944 5.83332 7.42777 5.76001 7.2222 5.62266C7.01664 5.48531 6.85643 5.29009 6.76182 5.06168C6.66721 4.83327 6.64245 4.58194 6.69068 4.33946C6.73892 4.09698 6.85797 3.87426 7.03278 3.69944C7.2076 3.52462 7.43033 3.40557 7.6728 3.35734C7.91528 3.30911 8.16661 3.33386 8.39502 3.42847C8.62343 3.52308 8.81865 3.6833 8.956 3.88886C9.09336 4.09442 9.16667 4.3361 9.16667 4.58332V5.83332ZM10.8333 4.58332C10.8333 4.3361 10.9066 4.09442 11.044 3.88886C11.1813 3.6833 11.3766 3.52308 11.605 3.42847C11.8334 3.33386 12.0847 3.30911 12.3272 3.35734C12.5697 3.40557 12.7924 3.52462 12.9672 3.69944C13.142 3.87426 13.2611 4.09698 13.3093 4.33946C13.3575 4.58194 13.3328 4.83327 13.2382 5.06168C13.1436 5.29009 12.9834 5.48531 12.7778 5.62266C12.5722 5.76001 12.3306 5.83332 12.0833 5.83332H10.8333V4.58332ZM14.1667 15.8333C14.1667 16.0543 14.0789 16.2663 13.9226 16.4226C13.7663 16.5789 13.5543 16.6667 13.3333 16.6667H10.8333V10.8333H14.1667V15.8333ZM15.8333 9.16666H10.8333V7.49999H15C15.221 7.49999 15.433 7.58779 15.5893 7.74407C15.7455 7.90035 15.8333 8.11231 15.8333 8.33332V9.16666Z" fill="#333333"/>
</g>
</svg>
