<svg xmlns="http://www.w3.org/2000/svg" width="24" height="24" viewBox="0 0 24 24" fill="none">
  <path d="M8.59998 12.0601V15.8101" stroke="white" stroke-width="2" stroke-linecap="round" stroke-linejoin="round"/>
  <path d="M10.5099 13.9399H6.68994" stroke="white" stroke-width="2" stroke-linecap="round" stroke-linejoin="round"/>
  <path d="M15.12 12.1802H15.01" stroke="white" stroke-width="2" stroke-linecap="round" stroke-linejoin="round"/>
  <path d="M16.9299 15.75H16.8199" stroke="white" stroke-width="2" stroke-linecap="round" stroke-linejoin="round"/>
  <path d="M7.82 1.75C7.82 2.49 8.43 3.09 9.19 3.09H10.25C11.42 3.09 12.36 4.02 12.37 5.16V5.84M16.18 21.71C13.17 21.76 10.22 21.76 7.32 21.71C4.1 21.71 1.75 19.41 1.75 16.26V11.61C1.75 8.45 4.1 6.16 7.32 6.16C10.24 6.11 13.19 6.11 16.18 6.16C19.4 6.16 21.75 8.46 21.75 11.61V16.26C21.75 19.42 19.4 21.71 16.18 21.71Z" stroke="white" stroke-width="2" stroke-linecap="round" stroke-linejoin="round"/>
</svg>