<svg width="24" height="24" viewBox="0 0 24 16" fill="none" xmlns="http://www.w3.org/2000/svg">
<path d="M12.5 17.3333C11.8056 17.3333 11.2153 17.0902 10.7292 16.6041C10.2431 16.118 10 15.5277 10 14.8333C10 14.7361 10.0069 14.6354 10.0208 14.5312C10.0347 14.427 10.0556 14.3333 10.0833 14.25L4.20833 10.8333C3.97222 11.0416 3.70833 11.2048 3.41667 11.3229C3.125 11.4409 2.81944 11.5 2.5 11.5C1.80556 11.5 1.21528 11.2569 0.729167 10.7708C0.243056 10.2847 0 9.6944 0 8.99996C0 8.30552 0.243056 7.71524 0.729167 7.22913C1.21528 6.74302 1.80556 6.49996 2.5 6.49996C2.81944 6.49996 3.125 6.55899 3.41667 6.67704C3.70833 6.7951 3.97222 6.95829 4.20833 7.16663L10.0833 3.74996C10.0556 3.66663 10.0347 3.57288 10.0208 3.46871C10.0069 3.36454 10 3.26385 10 3.16663C10 2.47218 10.2431 1.8819 10.7292 1.39579C11.2153 0.909682 11.8056 0.666626 12.5 0.666626C13.1944 0.666626 13.7847 0.909682 14.2708 1.39579C14.7569 1.8819 15 2.47218 15 3.16663C15 3.86107 14.7569 4.45135 14.2708 4.93746C13.7847 5.42357 13.1944 5.66663 12.5 5.66663C12.1806 5.66663 11.875 5.6076 11.5833 5.48954C11.2917 5.37149 11.0278 5.20829 10.7917 4.99996L4.91667 8.41663C4.94444 8.49996 4.96528 8.59371 4.97917 8.69788C4.99306 8.80204 5 8.90274 5 8.99996C5 9.09718 4.99306 9.19788 4.97917 9.30204C4.96528 9.40621 4.94444 9.49996 4.91667 9.58329L10.7917 13C11.0278 12.7916 11.2917 12.6284 11.5833 12.5104C11.875 12.3923 12.1806 12.3333 12.5 12.3333C13.1944 12.3333 13.7847 12.5763 14.2708 13.0625C14.7569 13.5486 15 14.1388 15 14.8333C15 15.5277 14.7569 16.118 14.2708 16.6041C13.7847 17.0902 13.1944 17.3333 12.5 17.3333ZM12.5 3.99996C12.7361 3.99996 12.934 3.9201 13.0938 3.76038C13.2535 3.60065 13.3333 3.40274 13.3333 3.16663C13.3333 2.93052 13.2535 2.7326 13.0938 2.57288C12.934 2.41315 12.7361 2.33329 12.5 2.33329C12.2639 2.33329 12.066 2.41315 11.9063 2.57288C11.7465 2.7326 11.6667 2.93052 11.6667 3.16663C11.6667 3.40274 11.7465 3.60065 11.9063 3.76038C12.066 3.9201 12.2639 3.99996 12.5 3.99996ZM2.5 9.83329C2.73611 9.83329 2.93403 9.75343 3.09375 9.59371C3.25347 9.43399 3.33333 9.23607 3.33333 8.99996C3.33333 8.76385 3.25347 8.56593 3.09375 8.40621C2.93403 8.24649 2.73611 8.16663 2.5 8.16663C2.26389 8.16663 2.06597 8.24649 1.90625 8.40621C1.74653 8.56593 1.66667 8.76385 1.66667 8.99996C1.66667 9.23607 1.74653 9.43399 1.90625 9.59371C2.06597 9.75343 2.26389 9.83329 2.5 9.83329ZM12.5 15.6666C12.7361 15.6666 12.934 15.5868 13.0938 15.427C13.2535 15.2673 13.3333 15.0694 13.3333 14.8333C13.3333 14.5972 13.2535 14.3993 13.0938 14.2395C12.934 14.0798 12.7361 14 12.5 14C12.2639 14 12.066 14.0798 11.9063 14.2395C11.7465 14.3993 11.6667 14.5972 11.6667 14.8333C11.6667 15.0694 11.7465 15.2673 11.9063 15.427C12.066 15.5868 12.2639 15.6666 12.5 15.6666Z" fill="#333333"/>
</svg>
