<svg width="20" height="20" viewBox="0 0 20 20" fill="none" xmlns="http://www.w3.org/2000/svg">
<g id="icon-24/teacher">
<path id="Vector" d="M1.875 5.9375C1.875 5.5231 2.03962 5.12567 2.33265 4.83265C2.62567 4.53962 3.0231 4.375 3.4375 4.375C3.8519 4.375 4.24933 4.53962 4.54235 4.83265C4.83538 5.12567 5 5.5231 5 5.9375C5 6.3519 4.83538 6.74933 4.54235 7.04235C4.24933 7.33538 3.8519 7.5 3.4375 7.5C3.0231 7.5 2.62567 7.33538 2.33265 7.04235C2.03962 6.74933 1.875 6.3519 1.875 5.9375ZM18.75 3.125V11.875C18.75 12.0408 18.6842 12.1997 18.5669 12.3169C18.4497 12.4342 18.2908 12.5 18.125 12.5H6.875C6.70924 12.5 6.55027 12.4342 6.43306 12.3169C6.31585 12.1997 6.25 12.0408 6.25 11.875V10.3125H7.5V11.25H17.5V3.75H7.5V7.1875H6.25V3.125C6.25 2.95924 6.31585 2.80027 6.43306 2.68306C6.55027 2.56585 6.70924 2.5 6.875 2.5H18.125C18.2908 2.5 18.4497 2.56585 18.5669 2.68306C18.6842 2.80027 18.75 2.95924 18.75 3.125Z" fill="#333333"/>
<path id="Vector_2" d="M15 5.8125V6.375C15 6.42473 14.9802 6.47242 14.9451 6.50758C14.9099 6.54275 14.8622 6.5625 14.8125 6.5625H10.1875C10.1378 6.5625 10.0901 6.54275 10.0549 6.50758C10.0198 6.47242 10 6.42473 10 6.375V5.8125C10 5.78788 10.0049 5.7635 10.0143 5.74075C10.0237 5.718 10.0375 5.69733 10.0549 5.67992C10.0723 5.66251 10.093 5.6487 10.1157 5.63927C10.1385 5.62985 10.1629 5.625 10.1875 5.625H14.8125C14.8371 5.625 14.8615 5.62985 14.8843 5.63927C14.907 5.6487 14.9277 5.66251 14.9451 5.67992C14.9625 5.69733 14.9763 5.718 14.9857 5.74075C14.9951 5.7635 15 5.78788 15 5.8125ZM10 8.875V8.3125C10 8.26277 10.0198 8.21508 10.0549 8.17992C10.0901 8.14475 10.1378 8.125 10.1875 8.125H14.8125C14.8622 8.125 14.9099 8.14475 14.9451 8.17992C14.9802 8.21508 15 8.26277 15 8.3125V8.875C15 8.89962 14.9951 8.924 14.9857 8.94675C14.9763 8.9695 14.9625 8.99017 14.9451 9.00758C14.9277 9.02499 14.907 9.0388 14.8843 9.04823C14.8615 9.05765 14.8371 9.0625 14.8125 9.0625H10.1875C10.1629 9.0625 10.1385 9.05765 10.1157 9.04823C10.093 9.0388 10.0723 9.02499 10.0549 9.00758C10.0375 8.99017 10.0237 8.9695 10.0143 8.94675C10.0049 8.924 10 8.89962 10 8.875ZM7.5 9.375H5V16.875C5 17.0408 4.93415 17.1997 4.81694 17.3169C4.69973 17.4342 4.54076 17.5 4.375 17.5C4.20924 17.5 4.05027 17.4342 3.93306 17.3169C3.81585 17.1997 3.75 17.0408 3.75 16.875V13.125H2.5V16.875C2.5 17.0408 2.43415 17.1997 2.31694 17.3169C2.19973 17.4342 2.04076 17.5 1.875 17.5C1.70924 17.5 1.55027 17.4342 1.43306 17.3169C1.31585 17.1997 1.25 17.0408 1.25 16.875V9.375C1.25 8.68562 1.81062 8.125 2.5 8.125H7.5C7.66576 8.125 7.82473 8.19085 7.94194 8.30806C8.05915 8.42527 8.125 8.58424 8.125 8.75C8.125 8.91576 8.05915 9.07473 7.94194 9.19194C7.82473 9.30915 7.66576 9.375 7.5 9.375Z" fill="#333333"/>
</g>
</svg>
