<svg width="53" height="47" viewBox="0 0 53 47" fill="none" xmlns="http://www.w3.org/2000/svg">
<mask id="path-1-inside-1_6866_1041" fill="white">
<path d="M8 23.5C8 14.6634 15.1634 7.5 24 7.5V7.5C32.8366 7.5 40 14.6634 40 23.5V23.5C40 32.3366 32.8366 39.5 24 39.5V39.5C15.1634 39.5 8 32.3366 8 23.5V23.5Z"/>
</mask>
<path d="M8 23.5C8 14.6634 15.1634 7.5 24 7.5V7.5C32.8366 7.5 40 14.6634 40 23.5V23.5C40 32.3366 32.8366 39.5 24 39.5V39.5C15.1634 39.5 8 32.3366 8 23.5V23.5Z" fill="#1762F3"/>
<path d="M8 7.5H40H8ZM40 25.5C40 34.3366 32.8366 41.5 24 41.5C15.1634 41.5 8 34.3366 8 25.5V23.5C8 31.232 15.1634 37.5 24 37.5C32.8366 37.5 40 31.232 40 23.5V25.5ZM8 39.5V7.5V39.5ZM40 7.5V39.5V7.5Z" fill="#6F86F6" mask="url(#path-1-inside-1_6866_1041)"/>
<g filter="url(#filter0_df_6866_1041)">
<path d="M17.8239 17.6865C16.2857 19.7081 16.1095 21.1783 14.5933 20.0247C13.0771 18.8712 13.0949 16.2972 14.633 14.2756C16.1711 12.254 18.6471 11.5504 20.1633 12.704C21.6794 13.8576 19.362 15.665 17.8239 17.6865Z" fill="url(#paint0_linear_6866_1041)"/>
</g>
<path d="M20.2507 31.8334C19.4451 31.8334 18.7576 31.5486 18.1882 30.9792C17.6187 30.4097 17.334 29.7222 17.334 28.9167V18.0834C17.334 17.2778 17.6187 16.5903 18.1882 16.0209C18.7576 15.4514 19.4451 15.1667 20.2507 15.1667H30.6673V27.6667C30.3201 27.6667 30.025 27.7882 29.7819 28.0313C29.5388 28.2743 29.4173 28.5695 29.4173 28.9167C29.4173 29.2639 29.5388 29.559 29.7819 29.8021C30.025 30.0452 30.3201 30.1667 30.6673 30.1667V31.8334H20.2507ZM19.0007 26.2709C19.1951 26.1736 19.3965 26.1042 19.6048 26.0625C19.8132 26.0209 20.0284 26 20.2507 26H20.6673V16.8334H20.2507C19.9034 16.8334 19.6083 16.9549 19.3652 17.1979C19.1222 17.441 19.0007 17.7361 19.0007 18.0834V26.2709ZM22.334 26H29.0007V16.8334H22.334V26ZM20.2507 30.1667H28.0215C27.9382 29.9722 27.8722 29.7743 27.8236 29.5729C27.775 29.3715 27.7507 29.1528 27.7507 28.9167C27.7507 28.6945 27.7715 28.4792 27.8132 28.2709C27.8548 28.0625 27.9243 27.8611 28.0215 27.6667H20.2507C19.8895 27.6667 19.5909 27.7882 19.3548 28.0313C19.1187 28.2743 19.0007 28.5695 19.0007 28.9167C19.0007 29.2778 19.1187 29.5764 19.3548 29.8125C19.5909 30.0486 19.8895 30.1667 20.2507 30.1667Z" fill="url(#paint1_linear_6866_1041)"/>
<defs>
<filter id="filter0_df_6866_1041" x="-18.5332" y="-11.8508" width="71.1895" height="72.2814" filterUnits="userSpaceOnUse" color-interpolation-filters="sRGB">
<feFlood flood-opacity="0" result="BackgroundImageFix"/>
<feColorMatrix in="SourceAlpha" type="matrix" values="0 0 0 0 0 0 0 0 0 0 0 0 0 0 0 0 0 0 127 0" result="hardAlpha"/>
<feOffset dy="8"/>
<feGaussianBlur stdDeviation="16"/>
<feComposite in2="hardAlpha" operator="out"/>
<feColorMatrix type="matrix" values="0 0 0 0 1 0 0 0 0 1 0 0 0 0 1 0 0 0 0.5 0"/>
<feBlend mode="normal" in2="BackgroundImageFix" result="effect1_dropShadow_6866_1041"/>
<feBlend mode="normal" in="SourceGraphic" in2="effect1_dropShadow_6866_1041" result="shape"/>
<feGaussianBlur stdDeviation="2" result="effect2_foregroundBlur_6866_1041"/>
</filter>
<linearGradient id="paint0_linear_6866_1041" x1="16.5232" y1="15.7138" x2="13.7382" y2="19.3742" gradientUnits="userSpaceOnUse">
<stop stop-color="white"/>
</linearGradient>
<linearGradient id="paint1_linear_6866_1041" x1="24.0007" y1="23.5" x2="24.0007" y2="31.8334" gradientUnits="userSpaceOnUse">
<stop stop-color="white"/>
</linearGradient>
</defs>
</svg>
