<svg width="40" height="40" viewBox="0 0 40 40" fill="none" xmlns="http://www.w3.org/2000/svg">
<g clip-path="url(#clip0_2795_9353)">
<g filter="url(#filter0_dd_2795_9353)">
<mask id="path-2-inside-1_2795_9353" fill="white">
<path d="M0 20C0 8.95431 8.95431 0 20 0C31.0457 0 40 8.95431 40 20C40 31.0457 31.0457 40 20 40C8.95431 40 0 31.0457 0 20Z"/>
</mask>
<path d="M0 20C0 8.95431 8.95431 0 20 0C31.0457 0 40 8.95431 40 20C40 31.0457 31.0457 40 20 40C8.95431 40 0 31.0457 0 20Z" fill="#1762F3" shape-rendering="crispEdges"/>
<path d="M0 0H40H0ZM40 22C40 33.0457 31.0457 42 20 42C8.9543 42 0 33.0457 0 22V20C0 29.9411 8.9543 38 20 38C31.0457 38 40 29.9411 40 20V22ZM0 40V0V40ZM40 0V40V0Z" fill="#6F86F6" mask="url(#path-2-inside-1_2795_9353)"/>
<g clip-path="url(#clip1_2795_9353)">
<mask id="path-4-inside-2_2795_9353" fill="white">
<path d="M0 20C0 8.95431 8.95431 0 20 0C31.0457 0 40 8.95431 40 20C40 31.0457 31.0457 40 20 40C8.95431 40 0 31.0457 0 20Z"/>
</mask>
<g filter="url(#filter1_dd_2795_9353)">
<mask id="path-6-outside-3_2795_9353" maskUnits="userSpaceOnUse" x="16" y="14" width="8" height="12" fill="black">
<rect fill="white" x="16" y="14" width="8" height="12"/>
<path d="M20.1641 18.5273C20.9922 18.5273 21.6504 18.7598 22.1387 19.2246C22.6309 19.6895 22.877 20.3262 22.877 21.1348C22.877 22.0918 22.582 22.8281 21.9922 23.3438C21.4023 23.8594 20.5586 24.1172 19.4609 24.1172C18.5078 24.1172 17.7383 23.9629 17.1523 23.6543V22.0898C17.4609 22.2539 17.8203 22.3887 18.2305 22.4941C18.6406 22.5957 19.0293 22.6465 19.3965 22.6465C20.502 22.6465 21.0547 22.1934 21.0547 21.2871C21.0547 20.4238 20.4824 19.9922 19.3379 19.9922C19.1309 19.9922 18.9023 20.0137 18.6523 20.0566C18.4023 20.0957 18.1992 20.1387 18.043 20.1855L17.3223 19.7988L17.6445 15.4336H22.291V16.9688H19.2324L19.0742 18.6504L19.2793 18.6094C19.5176 18.5547 19.8125 18.5273 20.1641 18.5273Z"/>
</mask>
<path d="M20.1641 18.5273C20.9922 18.5273 21.6504 18.7598 22.1387 19.2246C22.6309 19.6895 22.877 20.3262 22.877 21.1348C22.877 22.0918 22.582 22.8281 21.9922 23.3438C21.4023 23.8594 20.5586 24.1172 19.4609 24.1172C18.5078 24.1172 17.7383 23.9629 17.1523 23.6543V22.0898C17.4609 22.2539 17.8203 22.3887 18.2305 22.4941C18.6406 22.5957 19.0293 22.6465 19.3965 22.6465C20.502 22.6465 21.0547 22.1934 21.0547 21.2871C21.0547 20.4238 20.4824 19.9922 19.3379 19.9922C19.1309 19.9922 18.9023 20.0137 18.6523 20.0566C18.4023 20.0957 18.1992 20.1387 18.043 20.1855L17.3223 19.7988L17.6445 15.4336H22.291V16.9688H19.2324L19.0742 18.6504L19.2793 18.6094C19.5176 18.5547 19.8125 18.5273 20.1641 18.5273Z" fill="white"/>
<path d="M22.1387 19.2246L21.4492 19.9489L21.452 19.9516L22.1387 19.2246ZM17.1523 23.6543H16.1523V24.2578L16.6864 24.5391L17.1523 23.6543ZM17.1523 22.0898L17.6218 21.2069L16.1523 20.4257V22.0898H17.1523ZM18.2305 22.4941L17.9814 23.4627L17.9901 23.4648L18.2305 22.4941ZM18.6523 20.0566L18.8067 21.0447L18.8142 21.0435L18.8217 21.0422L18.6523 20.0566ZM18.043 20.1855L17.5702 21.0667L17.9344 21.2622L18.3303 21.1434L18.043 20.1855ZM17.3223 19.7988L16.325 19.7252L16.2772 20.3729L16.8494 20.68L17.3223 19.7988ZM17.6445 15.4336V14.4336H16.7156L16.6472 15.36L17.6445 15.4336ZM22.291 15.4336H23.291V14.4336H22.291V15.4336ZM22.291 16.9688V17.9688H23.291V16.9688H22.291ZM19.2324 16.9688V15.9688H18.3221L18.2368 16.8751L19.2324 16.9688ZM19.0742 18.6504L18.0786 18.5567L17.9528 19.8945L19.2703 19.631L19.0742 18.6504ZM19.2793 18.6094L19.4754 19.59L19.4892 19.5872L19.503 19.584L19.2793 18.6094ZM20.1641 19.5273C20.7973 19.5273 21.1872 19.6995 21.4492 19.9489L22.8282 18.5003C22.1136 17.82 21.1871 17.5273 20.1641 17.5273V19.5273ZM21.452 19.9516C21.7057 20.1912 21.877 20.5435 21.877 21.1348H23.877C23.877 20.1089 23.556 19.1877 22.8253 18.4976L21.452 19.9516ZM21.877 21.1348C21.877 21.8728 21.6593 22.3066 21.334 22.5909L22.6503 24.0966C23.5048 23.3497 23.877 22.3108 23.877 21.1348H21.877ZM21.334 22.5909C20.988 22.8934 20.4131 23.1172 19.4609 23.1172V25.1172C20.7041 25.1172 21.8167 24.8254 22.6503 24.0966L21.334 22.5909ZM19.4609 23.1172C18.6036 23.1172 18.0114 22.9765 17.6183 22.7695L16.6864 24.5391C17.4652 24.9493 18.412 25.1172 19.4609 25.1172V23.1172ZM18.1523 23.6543V22.0898H16.1523V23.6543H18.1523ZM16.6829 22.9728C17.0742 23.1808 17.5102 23.3415 17.9814 23.4626L18.4795 21.5256C18.1304 21.4359 17.8477 21.327 17.6218 21.2069L16.6829 22.9728ZM17.9901 23.4648C18.4674 23.583 18.9372 23.6465 19.3965 23.6465V21.6465C19.1214 21.6465 18.8139 21.6084 18.4708 21.5235L17.9901 23.4648ZM19.3965 23.6465C20.0604 23.6465 20.7442 23.5144 21.2741 23.08C21.8421 22.6144 22.0547 21.9526 22.0547 21.2871H20.0547C20.0547 21.4139 20.0352 21.4794 20.0247 21.5052C20.0167 21.5248 20.0118 21.5287 20.0062 21.5333C19.9834 21.552 19.838 21.6465 19.3965 21.6465V23.6465ZM22.0547 21.2871C22.0547 20.6136 21.8167 19.9618 21.2277 19.5176C20.6918 19.1134 20.0072 18.9922 19.3379 18.9922V20.9922C19.8131 20.9922 19.9869 21.0868 20.0233 21.1143C20.0321 21.1209 20.031 21.1208 20.0327 21.1248C20.0371 21.1346 20.0547 21.1806 20.0547 21.2871H22.0547ZM19.3379 18.9922C19.0631 18.9922 18.7769 19.0206 18.483 19.0711L18.8217 21.0422C19.0277 21.0068 19.1986 20.9922 19.3379 20.9922V18.9922ZM18.498 19.0686C18.2246 19.1113 17.9723 19.1627 17.7556 19.2277L18.3303 21.1434C18.4261 21.1146 18.5801 21.0801 18.8067 21.0447L18.498 19.0686ZM18.5158 19.3044L17.7951 18.9177L16.8494 20.68L17.5702 21.0667L18.5158 19.3044ZM18.3196 19.8725L18.6418 15.5072L16.6472 15.36L16.325 19.7252L18.3196 19.8725ZM17.6445 16.4336H22.291V14.4336H17.6445V16.4336ZM21.291 15.4336V16.9688H23.291V15.4336H21.291ZM22.291 15.9688H19.2324V17.9688H22.291V15.9688ZM18.2368 16.8751L18.0786 18.5567L20.0698 18.7441L20.228 17.0624L18.2368 16.8751ZM19.2703 19.631L19.4754 19.59L19.0832 17.6288L18.8781 17.6698L19.2703 19.631ZM19.503 19.584C19.6437 19.5517 19.858 19.5273 20.1641 19.5273V17.5273C19.767 17.5273 19.3915 17.5576 19.0556 17.6347L19.503 19.584Z" fill="#5B22FD" mask="url(#path-6-outside-3_2795_9353)"/>
</g>
<g filter="url(#filter2_df_2795_9353)">
<path d="M9.82483 9.68653C8.28673 11.7081 8.11044 13.1783 6.59426 12.0247C5.07808 10.8712 5.09586 8.29719 6.63396 6.27562C8.17207 4.25404 10.6481 3.55039 12.1642 4.70397C13.6804 5.85755 11.3629 7.66495 9.82483 9.68653Z" fill="url(#paint0_linear_2795_9353)"/>
</g>
</g>
<path d="M0 0H40H0ZM40 24C40 35.0457 31.0457 44 20 44C8.9543 44 0 35.0457 0 24V20C0 28.8366 8.9543 36 20 36C31.0457 36 40 28.8366 40 20V24ZM0 40V0V40ZM40 0V40V0Z" fill="black" fill-opacity="0.05" mask="url(#path-4-inside-2_2795_9353)"/>
</g>
</g>
<defs>
<filter id="filter0_dd_2795_9353" x="-8" y="0" width="56" height="56" filterUnits="userSpaceOnUse" color-interpolation-filters="sRGB">
<feFlood flood-opacity="0" result="BackgroundImageFix"/>
<feColorMatrix in="SourceAlpha" type="matrix" values="0 0 0 0 0 0 0 0 0 0 0 0 0 0 0 0 0 0 127 0" result="hardAlpha"/>
<feOffset dy="8"/>
<feGaussianBlur stdDeviation="4"/>
<feComposite in2="hardAlpha" operator="out"/>
<feColorMatrix type="matrix" values="0 0 0 0 0 0 0 0 0 0 0 0 0 0 0 0 0 0 0.05 0"/>
<feBlend mode="normal" in2="BackgroundImageFix" result="effect1_dropShadow_2795_9353"/>
<feColorMatrix in="SourceAlpha" type="matrix" values="0 0 0 0 0 0 0 0 0 0 0 0 0 0 0 0 0 0 127 0" result="hardAlpha"/>
<feOffset dy="4"/>
<feGaussianBlur stdDeviation="2"/>
<feComposite in2="hardAlpha" operator="out"/>
<feColorMatrix type="matrix" values="0 0 0 0 0 0 0 0 0 0 0 0 0 0 0 0 0 0 0.15 0"/>
<feBlend mode="normal" in2="effect1_dropShadow_2795_9353" result="effect2_dropShadow_2795_9353"/>
<feBlend mode="normal" in="SourceGraphic" in2="effect2_dropShadow_2795_9353" result="shape"/>
</filter>
<filter id="filter1_dd_2795_9353" x="9.15234" y="15.4336" width="21.7246" height="24.6836" filterUnits="userSpaceOnUse" color-interpolation-filters="sRGB">
<feFlood flood-opacity="0" result="BackgroundImageFix"/>
<feColorMatrix in="SourceAlpha" type="matrix" values="0 0 0 0 0 0 0 0 0 0 0 0 0 0 0 0 0 0 127 0" result="hardAlpha"/>
<feOffset dy="8"/>
<feGaussianBlur stdDeviation="4"/>
<feComposite in2="hardAlpha" operator="out"/>
<feColorMatrix type="matrix" values="0 0 0 0 0 0 0 0 0 0 0 0 0 0 0 0 0 0 0.05 0"/>
<feBlend mode="normal" in2="BackgroundImageFix" result="effect1_dropShadow_2795_9353"/>
<feColorMatrix in="SourceAlpha" type="matrix" values="0 0 0 0 0 0 0 0 0 0 0 0 0 0 0 0 0 0 127 0" result="hardAlpha"/>
<feOffset dy="4"/>
<feGaussianBlur stdDeviation="2"/>
<feComposite in2="hardAlpha" operator="out"/>
<feColorMatrix type="matrix" values="0 0 0 0 0 0 0 0 0 0 0 0 0 0 0 0 0 0 0.15 0"/>
<feBlend mode="normal" in2="effect1_dropShadow_2795_9353" result="effect2_dropShadow_2795_9353"/>
<feBlend mode="normal" in="SourceGraphic" in2="effect2_dropShadow_2795_9353" result="shape"/>
</filter>
<filter id="filter2_df_2795_9353" x="-26.5312" y="-19.8508" width="71.1895" height="72.2815" filterUnits="userSpaceOnUse" color-interpolation-filters="sRGB">
<feFlood flood-opacity="0" result="BackgroundImageFix"/>
<feColorMatrix in="SourceAlpha" type="matrix" values="0 0 0 0 0 0 0 0 0 0 0 0 0 0 0 0 0 0 127 0" result="hardAlpha"/>
<feOffset dy="8"/>
<feGaussianBlur stdDeviation="16"/>
<feComposite in2="hardAlpha" operator="out"/>
<feColorMatrix type="matrix" values="0 0 0 0 1 0 0 0 0 1 0 0 0 0 1 0 0 0 0.5 0"/>
<feBlend mode="normal" in2="BackgroundImageFix" result="effect1_dropShadow_2795_9353"/>
<feBlend mode="normal" in="SourceGraphic" in2="effect1_dropShadow_2795_9353" result="shape"/>
<feGaussianBlur stdDeviation="2" result="effect2_foregroundBlur_2795_9353"/>
</filter>
<linearGradient id="paint0_linear_2795_9353" x1="8.52418" y1="7.71378" x2="5.7392" y2="11.3742" gradientUnits="userSpaceOnUse">
<stop stop-color="white"/>
</linearGradient>
<clipPath id="clip0_2795_9353">
<rect width="40" height="40" rx="20" fill="white"/>
</clipPath>
<clipPath id="clip1_2795_9353">
<path d="M0 20C0 8.95431 8.95431 0 20 0C31.0457 0 40 8.95431 40 20C40 31.0457 31.0457 40 20 40C8.95431 40 0 31.0457 0 20Z" fill="white"/>
</clipPath>
</defs>
</svg>
