<svg width="40" height="40" viewBox="0 0 40 40" fill="none" xmlns="http://www.w3.org/2000/svg">
<g clip-path="url(#clip0_2795_9355)">
<g filter="url(#filter0_dd_2795_9355)">
<mask id="path-2-inside-1_2795_9355" fill="white">
<path d="M0 20C0 8.95431 8.95431 0 20 0C31.0457 0 40 8.95431 40 20C40 31.0457 31.0457 40 20 40C8.95431 40 0 31.0457 0 20Z"/>
</mask>
<path d="M0 20C0 8.95431 8.95431 0 20 0C31.0457 0 40 8.95431 40 20C40 31.0457 31.0457 40 20 40C8.95431 40 0 31.0457 0 20Z" fill="#1762F3" shape-rendering="crispEdges"/>
<path d="M0 0H40H0ZM40 22C40 33.0457 31.0457 42 20 42C8.9543 42 0 33.0457 0 22V20C0 29.9411 8.9543 38 20 38C31.0457 38 40 29.9411 40 20V22ZM0 40V0V40ZM40 0V40V0Z" fill="#6F86F6" mask="url(#path-2-inside-1_2795_9355)"/>
<g clip-path="url(#clip1_2795_9355)">
<mask id="path-4-inside-2_2795_9355" fill="white">
<path d="M0 20C0 8.95431 8.95431 0 20 0C31.0457 0 40 8.95431 40 20C40 31.0457 31.0457 40 20 40C8.95431 40 0 31.0457 0 20Z"/>
</mask>
<g filter="url(#filter1_dd_2795_9355)">
<mask id="path-6-outside-3_2795_9355" maskUnits="userSpaceOnUse" x="15" y="14" width="10" height="12" fill="black">
<rect fill="white" x="15" y="14" width="10" height="12"/>
<path d="M16.9883 20.3613C16.9883 18.666 17.3457 17.4043 18.0605 16.5762C18.7793 15.748 19.8535 15.334 21.2832 15.334C21.7715 15.334 22.1543 15.3633 22.4316 15.4219V16.8691C22.084 16.791 21.7402 16.752 21.4004 16.752C20.7793 16.752 20.2715 16.8457 19.877 17.0332C19.4863 17.2207 19.1934 17.498 18.998 17.8652C18.8027 18.2324 18.6875 18.7539 18.6523 19.4297H18.7285C19.1152 18.7656 19.7344 18.4336 20.5859 18.4336C21.3516 18.4336 21.9512 18.6738 22.3848 19.1543C22.8184 19.6348 23.0352 20.2988 23.0352 21.1465C23.0352 22.0605 22.7773 22.7852 22.2617 23.3203C21.7461 23.8516 21.0312 24.1172 20.1172 24.1172C19.4844 24.1172 18.9316 23.9707 18.459 23.6777C17.9902 23.3848 17.627 22.957 17.3691 22.3945C17.1152 21.832 16.9883 21.1543 16.9883 20.3613ZM20.082 22.6699C20.4688 22.6699 20.7656 22.541 20.9727 22.2832C21.1797 22.0215 21.2832 21.6504 21.2832 21.1699C21.2832 20.752 21.1855 20.4238 20.9902 20.1855C20.7988 19.9434 20.5078 19.8223 20.1172 19.8223C19.75 19.8223 19.4355 19.9414 19.1738 20.1797C18.916 20.418 18.7871 20.6953 18.7871 21.0117C18.7871 21.4766 18.9082 21.8691 19.1504 22.1895C19.3965 22.5098 19.707 22.6699 20.082 22.6699Z"/>
</mask>
<path d="M16.9883 20.3613C16.9883 18.666 17.3457 17.4043 18.0605 16.5762C18.7793 15.748 19.8535 15.334 21.2832 15.334C21.7715 15.334 22.1543 15.3633 22.4316 15.4219V16.8691C22.084 16.791 21.7402 16.752 21.4004 16.752C20.7793 16.752 20.2715 16.8457 19.877 17.0332C19.4863 17.2207 19.1934 17.498 18.998 17.8652C18.8027 18.2324 18.6875 18.7539 18.6523 19.4297H18.7285C19.1152 18.7656 19.7344 18.4336 20.5859 18.4336C21.3516 18.4336 21.9512 18.6738 22.3848 19.1543C22.8184 19.6348 23.0352 20.2988 23.0352 21.1465C23.0352 22.0605 22.7773 22.7852 22.2617 23.3203C21.7461 23.8516 21.0312 24.1172 20.1172 24.1172C19.4844 24.1172 18.9316 23.9707 18.459 23.6777C17.9902 23.3848 17.627 22.957 17.3691 22.3945C17.1152 21.832 16.9883 21.1543 16.9883 20.3613ZM20.082 22.6699C20.4688 22.6699 20.7656 22.541 20.9727 22.2832C21.1797 22.0215 21.2832 21.6504 21.2832 21.1699C21.2832 20.752 21.1855 20.4238 20.9902 20.1855C20.7988 19.9434 20.5078 19.8223 20.1172 19.8223C19.75 19.8223 19.4355 19.9414 19.1738 20.1797C18.916 20.418 18.7871 20.6953 18.7871 21.0117C18.7871 21.4766 18.9082 21.8691 19.1504 22.1895C19.3965 22.5098 19.707 22.6699 20.082 22.6699Z" fill="white"/>
<path d="M18.0605 16.5762L17.3053 15.9207L17.3036 15.9227L18.0605 16.5762ZM22.4316 15.4219H23.4316V14.6111L22.6383 14.4435L22.4316 15.4219ZM22.4316 16.8691L22.2124 17.8448L23.4316 18.1188V16.8691H22.4316ZM19.877 17.0332L19.4477 16.13L19.4442 16.1317L19.877 17.0332ZM18.6523 19.4297L17.6537 19.3777L17.599 20.4297H18.6523V19.4297ZM18.7285 19.4297V20.4297H19.3034L19.5927 19.9329L18.7285 19.4297ZM22.2617 23.3203L22.9793 24.0168L22.9818 24.0142L22.2617 23.3203ZM18.459 23.6777L17.929 24.5257L17.9321 24.5277L18.459 23.6777ZM17.3691 22.3945L16.4577 22.806L16.4601 22.8112L17.3691 22.3945ZM20.9727 22.2832L21.7524 22.9094L21.7569 22.9036L20.9727 22.2832ZM20.9902 20.1855L20.2057 20.8056L20.2112 20.8126L20.2168 20.8195L20.9902 20.1855ZM19.1738 20.1797L18.5006 19.4402L18.4951 19.4453L19.1738 20.1797ZM19.1504 22.1895L18.3527 22.7926L18.3574 22.7987L19.1504 22.1895ZM17.9883 20.3613C17.9883 18.78 18.3257 17.7993 18.8175 17.2296L17.3036 15.9227C16.3657 17.0093 15.9883 18.552 15.9883 20.3613H17.9883ZM18.8158 17.2316C19.2907 16.6844 20.0495 16.334 21.2832 16.334V14.334C19.6576 14.334 18.2679 14.8116 17.3053 15.9207L18.8158 17.2316ZM21.2832 16.334C21.7441 16.334 22.0471 16.3627 22.2249 16.4003L22.6383 14.4435C22.2615 14.3639 21.7989 14.334 21.2832 14.334V16.334ZM21.4316 15.4219V16.8691H23.4316V15.4219H21.4316ZM22.6509 15.8935C22.2348 15.8 21.8175 15.752 21.4004 15.752V17.752C21.663 17.752 21.9332 17.7821 22.2124 17.8448L22.6509 15.8935ZM21.4004 15.752C20.6891 15.752 20.0206 15.8577 19.4477 16.13L20.3062 17.9364C20.5224 17.8337 20.8695 17.752 21.4004 17.752V15.752ZM19.4442 16.1317C18.8699 16.4073 18.415 16.8319 18.1152 17.3956L19.8809 18.3348C19.9717 18.1642 20.1027 18.0341 20.3097 17.9347L19.4442 16.1317ZM18.1152 17.3956C17.8213 17.9481 17.6922 18.6367 17.6537 19.3777L19.651 19.4816C19.6828 18.8711 19.7842 18.5168 19.8809 18.3348L18.1152 17.3956ZM18.6523 20.4297H18.7285V18.4297H18.6523V20.4297ZM19.5927 19.9329C19.778 19.6146 20.0438 19.4336 20.5859 19.4336V17.4336C19.4249 17.4336 18.4524 17.9166 17.8644 18.9264L19.5927 19.9329ZM20.5859 19.4336C21.1252 19.4336 21.4333 19.5926 21.6424 19.8243L23.1272 18.4843C22.4691 17.7551 21.578 17.4336 20.5859 17.4336V19.4336ZM21.6424 19.8243C21.8642 20.07 22.0352 20.4678 22.0352 21.1465H24.0352C24.0352 20.1298 23.7726 19.1995 23.1272 18.4843L21.6424 19.8243ZM22.0352 21.1465C22.0352 21.8646 21.8383 22.3185 21.5416 22.6265L22.9818 24.0142C23.7164 23.2518 24.0352 22.2565 24.0352 21.1465H22.0352ZM21.5441 22.6238C21.2592 22.9174 20.8285 23.1172 20.1172 23.1172V25.1172C21.234 25.1172 22.233 24.7857 22.9793 24.0168L21.5441 22.6238ZM20.1172 23.1172C19.6442 23.1172 19.2793 23.0097 18.9858 22.8278L17.9321 24.5277C18.584 24.9317 19.3245 25.1172 20.1172 25.1172V23.1172ZM18.989 22.8297C18.7054 22.6525 18.4646 22.3846 18.2782 21.9779L16.4601 22.8112C16.7893 23.5295 17.2751 24.117 17.929 24.5257L18.989 22.8297ZM18.2806 21.9831C18.0992 21.5812 17.9883 21.0513 17.9883 20.3613H15.9883C15.9883 21.2573 16.1313 22.0829 16.4577 22.8059L18.2806 21.9831ZM20.082 23.6699C20.7143 23.6699 21.3222 23.445 21.7524 22.9093L20.1929 21.6571C20.1892 21.6617 20.1887 21.6614 20.1917 21.6591C20.1948 21.6567 20.1971 21.6557 20.1964 21.656C20.1957 21.6563 20.1646 21.6699 20.082 21.6699V23.6699ZM21.7569 22.9036C22.1535 22.4023 22.2832 21.7793 22.2832 21.1699H20.2832C20.2832 21.5215 20.2058 21.6407 20.1884 21.6628L21.7569 22.9036ZM22.2832 21.1699C22.2832 20.6031 22.1503 20.0233 21.7636 19.5516L20.2168 20.8195C20.2208 20.8243 20.2832 20.9008 20.2832 21.1699H22.2832ZM21.7748 19.5655C21.3447 19.0214 20.7248 18.8223 20.1172 18.8223V20.8223C20.2112 20.8223 20.2458 20.837 20.2442 20.8363C20.243 20.8358 20.236 20.8326 20.2265 20.8254C20.2168 20.8182 20.2097 20.8107 20.2057 20.8056L21.7748 19.5655ZM20.1172 18.8223C19.5112 18.8223 18.9539 19.0275 18.5006 19.4402L19.847 20.9191C19.9172 20.8553 19.9888 20.8223 20.1172 20.8223V18.8223ZM18.4951 19.4453C18.0574 19.8499 17.7871 20.3842 17.7871 21.0117H19.7871C19.7871 21.001 19.7881 20.9956 19.7885 20.9939C19.7889 20.9923 19.7893 20.9907 19.7906 20.9879C19.7926 20.9835 19.8053 20.9577 19.8526 20.9141L18.4951 19.4453ZM17.7871 21.0117C17.7871 21.6586 17.9592 22.2721 18.3527 22.7926L19.948 21.5863C19.8572 21.4662 19.7871 21.2946 19.7871 21.0117H17.7871ZM18.3574 22.7987C18.7759 23.3434 19.3697 23.6699 20.082 23.6699V21.6699C20.042 21.6699 20.0295 21.6627 20.0262 21.661C20.0206 21.6581 19.9907 21.6419 19.9434 21.5802L18.3574 22.7987Z" fill="#5B22FD" mask="url(#path-6-outside-3_2795_9355)"/>
</g>
<g filter="url(#filter2_df_2795_9355)">
<path d="M9.82483 9.68653C8.28673 11.7081 8.11044 13.1783 6.59426 12.0247C5.07808 10.8712 5.09586 8.29719 6.63396 6.27562C8.17207 4.25404 10.6481 3.55039 12.1642 4.70397C13.6804 5.85755 11.3629 7.66495 9.82483 9.68653Z" fill="url(#paint0_linear_2795_9355)"/>
</g>
</g>
<path d="M0 0H40H0ZM40 24C40 35.0457 31.0457 44 20 44C8.9543 44 0 35.0457 0 24V20C0 28.8366 8.9543 36 20 36C31.0457 36 40 28.8366 40 20V24ZM0 40V0V40ZM40 0V40V0Z" fill="black" fill-opacity="0.05" mask="url(#path-4-inside-2_2795_9355)"/>
</g>
</g>
<defs>
<filter id="filter0_dd_2795_9355" x="-8" y="0" width="56" height="56" filterUnits="userSpaceOnUse" color-interpolation-filters="sRGB">
<feFlood flood-opacity="0" result="BackgroundImageFix"/>
<feColorMatrix in="SourceAlpha" type="matrix" values="0 0 0 0 0 0 0 0 0 0 0 0 0 0 0 0 0 0 127 0" result="hardAlpha"/>
<feOffset dy="8"/>
<feGaussianBlur stdDeviation="4"/>
<feComposite in2="hardAlpha" operator="out"/>
<feColorMatrix type="matrix" values="0 0 0 0 0 0 0 0 0 0 0 0 0 0 0 0 0 0 0.05 0"/>
<feBlend mode="normal" in2="BackgroundImageFix" result="effect1_dropShadow_2795_9355"/>
<feColorMatrix in="SourceAlpha" type="matrix" values="0 0 0 0 0 0 0 0 0 0 0 0 0 0 0 0 0 0 127 0" result="hardAlpha"/>
<feOffset dy="4"/>
<feGaussianBlur stdDeviation="2"/>
<feComposite in2="hardAlpha" operator="out"/>
<feColorMatrix type="matrix" values="0 0 0 0 0 0 0 0 0 0 0 0 0 0 0 0 0 0 0.15 0"/>
<feBlend mode="normal" in2="effect1_dropShadow_2795_9355" result="effect2_dropShadow_2795_9355"/>
<feBlend mode="normal" in="SourceGraphic" in2="effect2_dropShadow_2795_9355" result="shape"/>
</filter>
<filter id="filter1_dd_2795_9355" x="8.98828" y="15.334" width="22.0469" height="24.7832" filterUnits="userSpaceOnUse" color-interpolation-filters="sRGB">
<feFlood flood-opacity="0" result="BackgroundImageFix"/>
<feColorMatrix in="SourceAlpha" type="matrix" values="0 0 0 0 0 0 0 0 0 0 0 0 0 0 0 0 0 0 127 0" result="hardAlpha"/>
<feOffset dy="8"/>
<feGaussianBlur stdDeviation="4"/>
<feComposite in2="hardAlpha" operator="out"/>
<feColorMatrix type="matrix" values="0 0 0 0 0 0 0 0 0 0 0 0 0 0 0 0 0 0 0.05 0"/>
<feBlend mode="normal" in2="BackgroundImageFix" result="effect1_dropShadow_2795_9355"/>
<feColorMatrix in="SourceAlpha" type="matrix" values="0 0 0 0 0 0 0 0 0 0 0 0 0 0 0 0 0 0 127 0" result="hardAlpha"/>
<feOffset dy="4"/>
<feGaussianBlur stdDeviation="2"/>
<feComposite in2="hardAlpha" operator="out"/>
<feColorMatrix type="matrix" values="0 0 0 0 0 0 0 0 0 0 0 0 0 0 0 0 0 0 0.15 0"/>
<feBlend mode="normal" in2="effect1_dropShadow_2795_9355" result="effect2_dropShadow_2795_9355"/>
<feBlend mode="normal" in="SourceGraphic" in2="effect2_dropShadow_2795_9355" result="shape"/>
</filter>
<filter id="filter2_df_2795_9355" x="-26.5312" y="-19.8508" width="71.1895" height="72.2815" filterUnits="userSpaceOnUse" color-interpolation-filters="sRGB">
<feFlood flood-opacity="0" result="BackgroundImageFix"/>
<feColorMatrix in="SourceAlpha" type="matrix" values="0 0 0 0 0 0 0 0 0 0 0 0 0 0 0 0 0 0 127 0" result="hardAlpha"/>
<feOffset dy="8"/>
<feGaussianBlur stdDeviation="16"/>
<feComposite in2="hardAlpha" operator="out"/>
<feColorMatrix type="matrix" values="0 0 0 0 1 0 0 0 0 1 0 0 0 0 1 0 0 0 0.5 0"/>
<feBlend mode="normal" in2="BackgroundImageFix" result="effect1_dropShadow_2795_9355"/>
<feBlend mode="normal" in="SourceGraphic" in2="effect1_dropShadow_2795_9355" result="shape"/>
<feGaussianBlur stdDeviation="2" result="effect2_foregroundBlur_2795_9355"/>
</filter>
<linearGradient id="paint0_linear_2795_9355" x1="8.52418" y1="7.71378" x2="5.7392" y2="11.3742" gradientUnits="userSpaceOnUse">
<stop stop-color="white"/>
</linearGradient>
<clipPath id="clip0_2795_9355">
<rect width="40" height="40" rx="20" fill="white"/>
</clipPath>
<clipPath id="clip1_2795_9355">
<path d="M0 20C0 8.95431 8.95431 0 20 0C31.0457 0 40 8.95431 40 20C40 31.0457 31.0457 40 20 40C8.95431 40 0 31.0457 0 20Z" fill="white"/>
</clipPath>
</defs>
</svg>
