<svg width="41" height="40" viewBox="0 0 41 40" fill="none" xmlns="http://www.w3.org/2000/svg">
<g clip-path="url(#clip0_2795_9350)">
<g filter="url(#filter0_dd_2795_9350)">
<mask id="path-2-inside-1_2795_9350" fill="white">
<path d="M0.25 20C0.25 8.95431 9.20431 0 20.25 0C31.2957 0 40.25 8.95431 40.25 20C40.25 31.0457 31.2957 40 20.25 40C9.20431 40 0.25 31.0457 0.25 20Z"/>
</mask>
<path d="M0.25 20C0.25 8.95431 9.20431 0 20.25 0C31.2957 0 40.25 8.95431 40.25 20C40.25 31.0457 31.2957 40 20.25 40C9.20431 40 0.25 31.0457 0.25 20Z" fill="#1762F3" shape-rendering="crispEdges"/>
<path d="M0.25 0H40.25H0.25ZM40.25 22C40.25 33.0457 31.2957 42 20.25 42C9.2043 42 0.25 33.0457 0.25 22V20C0.25 29.9411 9.2043 38 20.25 38C31.2957 38 40.25 29.9411 40.25 20V22ZM0.25 40V0V40ZM40.25 0V40V0Z" fill="#6F86F6" mask="url(#path-2-inside-1_2795_9350)"/>
<g clip-path="url(#clip1_2795_9350)">
<mask id="path-4-inside-2_2795_9350" fill="white">
<path d="M0.25 20C0.25 8.95431 9.20431 0 20.25 0C31.2957 0 40.25 8.95431 40.25 20C40.25 31.0457 31.2957 40 20.25 40C9.20431 40 0.25 31.0457 0.25 20Z"/>
</mask>
<g filter="url(#filter1_dd_2795_9350)">
<mask id="path-6-outside-3_2795_9350" maskUnits="userSpaceOnUse" x="15.25" y="14" width="10" height="11" fill="black">
<rect fill="white" x="15.25" y="14" width="10" height="11"/>
<path d="M23.2852 24H17.2969V22.7402L19.4473 20.5664C20.084 19.9141 20.5 19.4629 20.6953 19.2129C20.8906 18.959 21.0312 18.7246 21.1172 18.5098C21.2031 18.2949 21.2461 18.0723 21.2461 17.8418C21.2461 17.498 21.1504 17.2422 20.959 17.0742C20.7715 16.9062 20.5195 16.8223 20.2031 16.8223C19.8711 16.8223 19.5488 16.8984 19.2363 17.0508C18.9238 17.2031 18.5977 17.4199 18.2578 17.7012L17.2734 16.5352C17.6953 16.1758 18.0449 15.9219 18.3223 15.7734C18.5996 15.625 18.9023 15.5117 19.2305 15.4336C19.5586 15.3516 19.9258 15.3105 20.332 15.3105C20.8672 15.3105 21.3398 15.4082 21.75 15.6035C22.1602 15.7988 22.4785 16.0723 22.7051 16.4238C22.9316 16.7754 23.0449 17.1777 23.0449 17.6309C23.0449 18.0254 22.9746 18.3965 22.834 18.7441C22.6973 19.0879 22.4824 19.4414 22.1895 19.8047C21.9004 20.168 21.3887 20.6855 20.6543 21.3574L19.5527 22.3945V22.4766H23.2852V24Z"/>
</mask>
<path d="M23.2852 24H17.2969V22.7402L19.4473 20.5664C20.084 19.9141 20.5 19.4629 20.6953 19.2129C20.8906 18.959 21.0312 18.7246 21.1172 18.5098C21.2031 18.2949 21.2461 18.0723 21.2461 17.8418C21.2461 17.498 21.1504 17.2422 20.959 17.0742C20.7715 16.9062 20.5195 16.8223 20.2031 16.8223C19.8711 16.8223 19.5488 16.8984 19.2363 17.0508C18.9238 17.2031 18.5977 17.4199 18.2578 17.7012L17.2734 16.5352C17.6953 16.1758 18.0449 15.9219 18.3223 15.7734C18.5996 15.625 18.9023 15.5117 19.2305 15.4336C19.5586 15.3516 19.9258 15.3105 20.332 15.3105C20.8672 15.3105 21.3398 15.4082 21.75 15.6035C22.1602 15.7988 22.4785 16.0723 22.7051 16.4238C22.9316 16.7754 23.0449 17.1777 23.0449 17.6309C23.0449 18.0254 22.9746 18.3965 22.834 18.7441C22.6973 19.0879 22.4824 19.4414 22.1895 19.8047C21.9004 20.168 21.3887 20.6855 20.6543 21.3574L19.5527 22.3945V22.4766H23.2852V24Z" fill="white"/>
<path d="M23.2852 24V25H24.2852V24H23.2852ZM17.2969 24H16.2969V25H17.2969V24ZM17.2969 22.7402L16.5859 22.037L16.2969 22.3292V22.7402H17.2969ZM19.4473 20.5664L20.1582 21.2697L20.1629 21.2649L19.4473 20.5664ZM20.6953 19.2129L21.4834 19.8286L21.4879 19.8226L20.6953 19.2129ZM20.959 17.0742L20.2917 17.8191L20.2994 17.8258L20.959 17.0742ZM18.2578 17.7012L17.4937 18.3463L18.1325 19.1029L18.8954 18.4716L18.2578 17.7012ZM17.2734 16.5352L16.625 15.7739L15.8671 16.4195L16.5093 17.1802L17.2734 16.5352ZM19.2305 15.4336L19.4621 16.4065L19.473 16.4037L19.2305 15.4336ZM22.834 18.7441L21.9069 18.3692L21.9048 18.3746L22.834 18.7441ZM22.1895 19.8047L21.411 19.1769L21.4069 19.182L22.1895 19.8047ZM20.6543 21.3574L19.9793 20.6196L19.974 20.6244L19.9688 20.6293L20.6543 21.3574ZM19.5527 22.3945L18.8672 21.6664L18.5527 21.9626V22.3945H19.5527ZM19.5527 22.4766H18.5527V23.4766H19.5527V22.4766ZM23.2852 22.4766H24.2852V21.4766H23.2852V22.4766ZM23.2852 23H17.2969V25H23.2852V23ZM18.2969 24V22.7402H16.2969V24H18.2969ZM18.0078 23.4435L20.1582 21.2697L18.7363 19.8631L16.5859 22.037L18.0078 23.4435ZM20.1629 21.2649C20.7944 20.6179 21.2488 20.1287 21.4833 19.8285L19.9073 18.5972C19.7512 18.7971 19.3736 19.2102 18.7316 19.8679L20.1629 21.2649ZM21.4879 19.8226C21.7195 19.5216 21.9153 19.2069 22.0457 18.8812L20.1887 18.1384C20.1472 18.2423 20.0618 18.3964 19.9027 18.6032L21.4879 19.8226ZM22.0457 18.8812C22.1787 18.5487 22.2461 18.2 22.2461 17.8418H20.2461C20.2461 17.9445 20.2276 18.0412 20.1887 18.1384L22.0457 18.8812ZM22.2461 17.8418C22.2461 17.316 22.0949 16.7406 21.6186 16.3226L20.2994 17.8258C20.2829 17.8114 20.2683 17.7947 20.2567 17.7775C20.2452 17.7606 20.2397 17.7477 20.2377 17.7424C20.2344 17.7336 20.2461 17.7599 20.2461 17.8418H22.2461ZM21.6262 16.3294C21.2117 15.958 20.7002 15.8223 20.2031 15.8223V17.8223C20.2738 17.8223 20.3065 17.8317 20.3132 17.8339C20.3163 17.835 20.3142 17.8346 20.3089 17.8315C20.3034 17.8284 20.2973 17.8241 20.2917 17.8191L21.6262 16.3294ZM20.2031 15.8223C19.7121 15.8223 19.2405 15.9362 18.7981 16.1519L19.6745 17.9497C19.8571 17.8606 20.0301 17.8223 20.2031 17.8223V15.8223ZM18.7981 16.1519C18.3982 16.3468 18.0057 16.6118 17.6202 16.9308L18.8954 18.4716C19.1896 18.2281 19.4494 18.0594 19.6745 17.9497L18.7981 16.1519ZM19.0219 17.0561L18.0376 15.8901L16.5093 17.1802L17.4937 18.3463L19.0219 17.0561ZM17.9219 17.2964C18.3238 16.954 18.61 16.7537 18.7941 16.6551L17.8504 14.8918C17.4798 15.0901 17.0668 15.3975 16.625 15.7739L17.9219 17.2964ZM18.7941 16.6551C18.9904 16.5501 19.2116 16.466 19.4621 16.4064L18.9988 14.4608C18.5931 14.5574 18.2088 14.6999 17.8504 14.8918L18.7941 16.6551ZM19.473 16.4037C19.7078 16.345 19.9917 16.3105 20.332 16.3105V14.3105C19.8598 14.3105 19.4094 14.3581 18.9879 14.4635L19.473 16.4037ZM20.332 16.3105C20.7447 16.3105 21.0661 16.3854 21.3201 16.5064L22.1799 14.7007C21.6136 14.431 20.9897 14.3105 20.332 14.3105V16.3105ZM21.3201 16.5064C21.5774 16.6289 21.7472 16.7836 21.8645 16.9655L23.5456 15.8821C23.2098 15.361 22.7429 14.9687 22.1799 14.7007L21.3201 16.5064ZM21.8645 16.9655C21.9783 17.1421 22.0449 17.3532 22.0449 17.6309H24.0449C24.0449 17.0023 23.885 16.4087 23.5456 15.8821L21.8645 16.9655ZM22.0449 17.6309C22.0449 17.9037 21.9969 18.1468 21.907 18.3692L23.761 19.1191C23.9523 18.6462 24.0449 18.1471 24.0449 17.6309H22.0449ZM21.9048 18.3746C21.8133 18.6046 21.6567 18.8723 21.411 19.1769L22.9679 20.4324C23.3081 20.0106 23.5812 19.5712 23.7632 19.1137L21.9048 18.3746ZM21.4069 19.182C21.1702 19.4796 20.7084 19.9526 19.9793 20.6196L21.3293 22.0952C22.069 21.4185 22.6306 20.8564 22.972 20.4273L21.4069 19.182ZM19.9688 20.6293L18.8672 21.6664L20.2382 23.1226L21.3398 22.0855L19.9688 20.6293ZM18.5527 22.3945V22.4766H20.5527V22.3945H18.5527ZM19.5527 23.4766H23.2852V21.4766H19.5527V23.4766ZM22.2852 22.4766V24H24.2852V22.4766H22.2852Z" fill="#5B22FD" mask="url(#path-6-outside-3_2795_9350)"/>
</g>
<g filter="url(#filter2_df_2795_9350)">
<path d="M10.0748 9.68653C8.53673 11.7081 8.36044 13.1783 6.84426 12.0247C5.32808 10.8712 5.34586 8.29719 6.88396 6.27562C8.42207 4.25404 10.8981 3.55039 12.4142 4.70397C13.9304 5.85755 11.6129 7.66495 10.0748 9.68653Z" fill="url(#paint0_linear_2795_9350)"/>
</g>
</g>
<path d="M0.25 0H40.25H0.25ZM40.25 24C40.25 35.0457 31.2957 44 20.25 44C9.2043 44 0.25 35.0457 0.25 24V20C0.25 28.8366 9.2043 36 20.25 36C31.2957 36 40.25 28.8366 40.25 20V24ZM0.25 40V0V40ZM40.25 0V40V0Z" fill="black" fill-opacity="0.05" mask="url(#path-4-inside-2_2795_9350)"/>
</g>
</g>
<defs>
<filter id="filter0_dd_2795_9350" x="-7.75" y="0" width="56" height="56" filterUnits="userSpaceOnUse" color-interpolation-filters="sRGB">
<feFlood flood-opacity="0" result="BackgroundImageFix"/>
<feColorMatrix in="SourceAlpha" type="matrix" values="0 0 0 0 0 0 0 0 0 0 0 0 0 0 0 0 0 0 127 0" result="hardAlpha"/>
<feOffset dy="8"/>
<feGaussianBlur stdDeviation="4"/>
<feComposite in2="hardAlpha" operator="out"/>
<feColorMatrix type="matrix" values="0 0 0 0 0 0 0 0 0 0 0 0 0 0 0 0 0 0 0.05 0"/>
<feBlend mode="normal" in2="BackgroundImageFix" result="effect1_dropShadow_2795_9350"/>
<feColorMatrix in="SourceAlpha" type="matrix" values="0 0 0 0 0 0 0 0 0 0 0 0 0 0 0 0 0 0 127 0" result="hardAlpha"/>
<feOffset dy="4"/>
<feGaussianBlur stdDeviation="2"/>
<feComposite in2="hardAlpha" operator="out"/>
<feColorMatrix type="matrix" values="0 0 0 0 0 0 0 0 0 0 0 0 0 0 0 0 0 0 0.15 0"/>
<feBlend mode="normal" in2="effect1_dropShadow_2795_9350" result="effect2_dropShadow_2795_9350"/>
<feBlend mode="normal" in="SourceGraphic" in2="effect2_dropShadow_2795_9350" result="shape"/>
</filter>
<filter id="filter1_dd_2795_9350" x="9.27344" y="15.3105" width="22.0117" height="24.6895" filterUnits="userSpaceOnUse" color-interpolation-filters="sRGB">
<feFlood flood-opacity="0" result="BackgroundImageFix"/>
<feColorMatrix in="SourceAlpha" type="matrix" values="0 0 0 0 0 0 0 0 0 0 0 0 0 0 0 0 0 0 127 0" result="hardAlpha"/>
<feOffset dy="8"/>
<feGaussianBlur stdDeviation="4"/>
<feComposite in2="hardAlpha" operator="out"/>
<feColorMatrix type="matrix" values="0 0 0 0 0 0 0 0 0 0 0 0 0 0 0 0 0 0 0.05 0"/>
<feBlend mode="normal" in2="BackgroundImageFix" result="effect1_dropShadow_2795_9350"/>
<feColorMatrix in="SourceAlpha" type="matrix" values="0 0 0 0 0 0 0 0 0 0 0 0 0 0 0 0 0 0 127 0" result="hardAlpha"/>
<feOffset dy="4"/>
<feGaussianBlur stdDeviation="2"/>
<feComposite in2="hardAlpha" operator="out"/>
<feColorMatrix type="matrix" values="0 0 0 0 0 0 0 0 0 0 0 0 0 0 0 0 0 0 0.15 0"/>
<feBlend mode="normal" in2="effect1_dropShadow_2795_9350" result="effect2_dropShadow_2795_9350"/>
<feBlend mode="normal" in="SourceGraphic" in2="effect2_dropShadow_2795_9350" result="shape"/>
</filter>
<filter id="filter2_df_2795_9350" x="-26.2812" y="-19.8508" width="71.1895" height="72.2815" filterUnits="userSpaceOnUse" color-interpolation-filters="sRGB">
<feFlood flood-opacity="0" result="BackgroundImageFix"/>
<feColorMatrix in="SourceAlpha" type="matrix" values="0 0 0 0 0 0 0 0 0 0 0 0 0 0 0 0 0 0 127 0" result="hardAlpha"/>
<feOffset dy="8"/>
<feGaussianBlur stdDeviation="16"/>
<feComposite in2="hardAlpha" operator="out"/>
<feColorMatrix type="matrix" values="0 0 0 0 1 0 0 0 0 1 0 0 0 0 1 0 0 0 0.5 0"/>
<feBlend mode="normal" in2="BackgroundImageFix" result="effect1_dropShadow_2795_9350"/>
<feBlend mode="normal" in="SourceGraphic" in2="effect1_dropShadow_2795_9350" result="shape"/>
<feGaussianBlur stdDeviation="2" result="effect2_foregroundBlur_2795_9350"/>
</filter>
<linearGradient id="paint0_linear_2795_9350" x1="8.77418" y1="7.71378" x2="5.9892" y2="11.3742" gradientUnits="userSpaceOnUse">
<stop stop-color="white"/>
</linearGradient>
<clipPath id="clip0_2795_9350">
<rect x="0.25" width="40" height="40" rx="20" fill="white"/>
</clipPath>
<clipPath id="clip1_2795_9350">
<path d="M0.25 20C0.25 8.95431 9.20431 0 20.25 0C31.2957 0 40.25 8.95431 40.25 20C40.25 31.0457 31.2957 40 20.25 40C9.20431 40 0.25 31.0457 0.25 20Z" fill="white"/>
</clipPath>
</defs>
</svg>
