<svg width="25" height="24" viewBox="0 0 25 24" fill="none" xmlns="http://www.w3.org/2000/svg">
<path d="M24.5 12C24.5 5.37258 19.1274 0 12.5 0C5.87258 0 0.5 5.37258 0.5 12C0.5 18.6274 5.87258 24 12.5 24C19.1274 24 24.5 18.6274 24.5 12Z" fill="url(#paint0_linear_40_29)"/>
<path fill-rule="evenodd" clip-rule="evenodd" d="M4.1665 12C4.1665 7.4 7.8915 3.66663 12.4915 3.66663C17.0998 3.66663 20.8332 7.4 20.8332 12C20.8332 16.6 17.0998 20.3333 12.4915 20.3333C7.8915 20.3333 4.1665 16.6 4.1665 12ZM15.8082 8.6666H18.2665C17.4665 7.2916 16.1915 6.225 14.6582 5.7C15.1582 6.625 15.5415 7.625 15.8082 8.6666ZM12.4998 5.3666C13.1915 6.3666 13.7332 7.475 14.0915 8.6666H10.9082C11.2665 7.475 11.8082 6.3666 12.4998 5.3666ZM5.8332 12C5.8332 12.575 5.9165 13.1333 6.0498 13.6666H8.8665C8.7998 13.1166 8.7498 12.5666 8.7498 12C8.7498 11.4333 8.7998 10.8833 8.8665 10.3333H6.0498C5.9165 10.8666 5.8332 11.425 5.8332 12ZM6.7332 15.3333H9.1915C9.4582 16.375 9.8415 17.375 10.3415 18.3C8.8082 17.775 7.5332 16.7166 6.7332 15.3333ZM6.7332 8.6666H9.1915C9.4582 7.625 9.8415 6.625 10.3415 5.7C8.8082 6.225 7.5332 7.2833 6.7332 8.6666ZM12.4998 18.6333C11.8082 17.6333 11.2665 16.525 10.9082 15.3333H14.0915C13.7332 16.525 13.1915 17.6333 12.4998 18.6333ZM10.4165 12C10.4165 12.5666 10.4748 13.1166 10.5498 13.6666H14.4498C14.5248 13.1166 14.5832 12.5666 14.5832 12C14.5832 11.4333 14.5248 10.875 14.4498 10.3333H10.5498C10.4748 10.875 10.4165 11.4333 10.4165 12ZM14.6582 18.3C15.1582 17.375 15.5415 16.375 15.8082 15.3333H18.2665C17.4665 16.7083 16.1915 17.775 14.6582 18.3ZM16.2498 12C16.2498 12.5666 16.1998 13.1166 16.1332 13.6666H18.9498C19.0832 13.1333 19.1665 12.575 19.1665 12C19.1665 11.425 19.0832 10.8666 18.9498 10.3333H16.1332C16.1998 10.8833 16.2498 11.4333 16.2498 12Z" fill="#3C6F01"/>
<defs>
<linearGradient id="paint0_linear_40_29" x1="12.5" y1="12" x2="12.5" y2="24" gradientUnits="userSpaceOnUse">
<stop stop-color="white"/>
</linearGradient>
</defs>
</svg>
