<svg width="170" height="59" viewBox="0 0 170 59" fill="none" xmlns="http://www.w3.org/2000/svg">
<path d="M169 1V42.877L168.751 43.1602L157.751 55.6602L157.452 56H1V13.624L1.24707 13.3418L11.7471 1.3418L12.0459 1H169Z" stroke="#8900FF" stroke-width="2"/>
<g filter="url(#filter0_d_2275_10707)">
<path d="M6 15.4151L15.1084 5L164.5 6V41L155 51H6V15.4151Z" fill="url(#paint0_linear_2275_10707)"/>
</g>
<path d="M67.9955 36C67.1289 36 66.5155 35.82 66.1555 35.46C65.8089 35.1 65.6355 34.5333 65.6355 33.76V25.2H68.3355V33.06C68.3355 33.62 68.6089 33.9 69.1555 33.9H69.8355V36H67.9955ZM75.1479 36.2C74.4679 36.2 73.8412 36.0933 73.2679 35.88C72.6946 35.6533 72.2346 35.2933 71.8879 34.8C71.5546 34.2933 71.3879 33.6267 71.3879 32.8C71.3879 31.72 71.7546 30.8933 72.4879 30.32C73.2212 29.7333 74.2746 29.44 75.6479 29.44H78.7079V28.92C78.7079 28.2533 78.5212 27.7867 78.1479 27.52C77.7746 27.24 77.1146 27.1 76.1679 27.1C75.5146 27.1 74.8946 27.1467 74.3079 27.24C73.7346 27.32 73.1612 27.4533 72.5879 27.64V25.62C73.1346 25.4467 73.7679 25.3 74.4879 25.18C75.2079 25.06 75.9146 25 76.6079 25C78.2212 25 79.4212 25.34 80.2079 26.02C81.0079 26.7 81.4079 27.76 81.4079 29.2V36H78.7079V31.42H75.8079C75.2346 31.42 74.7812 31.52 74.4479 31.72C74.1146 31.92 73.9479 32.28 73.9479 32.8C73.9479 33.2933 74.0946 33.6333 74.3879 33.82C74.6812 34.0067 75.1746 34.1 75.8679 34.1C76.1212 34.1 76.3679 34.0867 76.6079 34.06C76.8612 34.0333 77.0746 33.9933 77.2479 33.94V35.92C76.9946 36 76.6812 36.0667 76.3079 36.12C75.9479 36.1733 75.5612 36.2 75.1479 36.2ZM72.6587 23.72L72.7987 21.88H76.4587V20.26H78.3587V21.88H79.4987V20.26H81.3987V23.72H72.6587ZM87.8387 36.2C86.9453 36.2 86.112 36.12 85.3387 35.96C84.5653 35.7867 83.912 35.5867 83.3787 35.36V29.68H87.9587L88.0787 31.66H85.9387V33.84C86.192 33.92 86.492 33.9867 86.8387 34.04C87.1987 34.08 87.5387 34.1 87.8587 34.1C88.952 34.1 89.7187 33.84 90.1587 33.32C90.5987 32.8 90.8187 31.9067 90.8187 30.64C90.8187 29.7333 90.6987 29.0267 90.4587 28.52C90.232 28 89.852 27.6333 89.3187 27.42C88.7987 27.2067 88.0853 27.1 87.1787 27.1C86.592 27.1 85.9787 27.1467 85.3387 27.24C84.712 27.32 84.1053 27.4533 83.5187 27.64V25.62C84.1187 25.42 84.8053 25.2667 85.5787 25.16C86.352 25.0533 87.1053 25 87.8387 25C89.7853 25 91.192 25.4867 92.0587 26.46C92.9387 27.42 93.3787 28.8133 93.3787 30.64C93.3787 32.4267 92.9387 33.8 92.0587 34.76C91.192 35.72 89.7853 36.2 87.8387 36.2ZM95.363 36V32.56C95.363 31.9467 95.463 31.4067 95.663 30.94C95.8764 30.46 96.2897 30.1267 96.903 29.94L94.863 29.4V26.82C95.4097 26.3533 96.1364 25.9333 97.043 25.56C97.963 25.1867 99.0097 25 100.183 25C101.263 25 102.183 25.14 102.943 25.42C103.716 25.7 104.303 26.1667 104.703 26.82C105.116 27.4733 105.323 28.36 105.323 29.48V36H102.623V29.42C102.623 28.58 102.423 27.9867 102.023 27.64C101.636 27.28 100.976 27.1 100.043 27.1C99.443 27.1 98.8897 27.1867 98.383 27.36C97.8897 27.5333 97.4897 27.7533 97.183 28.02V28.3L99.403 28.9V30.54C98.8697 30.6733 98.5097 30.8933 98.323 31.2C98.1497 31.4933 98.063 31.9533 98.063 32.58V36H95.363Z" fill="white"/>
<defs>
<filter id="filter0_d_2275_10707" x="2" y="5" width="166.5" height="54" filterUnits="userSpaceOnUse" color-interpolation-filters="sRGB">
<feFlood flood-opacity="0" result="BackgroundImageFix"/>
<feColorMatrix in="SourceAlpha" type="matrix" values="0 0 0 0 0 0 0 0 0 0 0 0 0 0 0 0 0 0 127 0" result="hardAlpha"/>
<feOffset dy="4"/>
<feGaussianBlur stdDeviation="2"/>
<feComposite in2="hardAlpha" operator="out"/>
<feColorMatrix type="matrix" values="0 0 0 0 0 0 0 0 0 0 0 0 0 0 0 0 0 0 0.25 0"/>
<feBlend mode="normal" in2="BackgroundImageFix" result="effect1_dropShadow_2275_10707"/>
<feBlend mode="normal" in="SourceGraphic" in2="effect1_dropShadow_2275_10707" result="shape"/>
</filter>
<linearGradient id="paint0_linear_2275_10707" x1="87" y1="6.5" x2="87" y2="51" gradientUnits="userSpaceOnUse">
<stop stop-color="#6B01FF"/>
<stop offset="0.98" stop-color="#8E1EFE"/>
</linearGradient>
</defs>
</svg>
