<svg width="22" height="21" viewBox="0 0 22 21" fill="none" xmlns="http://www.w3.org/2000/svg">
<path d="M11.9016 1.82694C11.5337 1.08197 10.4704 1.08469 10.1062 1.83154L7.86872 6.42043C7.72379 6.71767 7.44129 6.92404 7.11405 6.97172L1.99437 7.71766C1.17614 7.83688 0.847898 8.84115 1.43778 9.4206L5.15757 13.0746C5.39224 13.3051 5.49853 13.6363 5.44182 13.9604L4.56414 18.9758C4.42039 19.7973 5.2862 20.4235 6.02136 20.0297L10.5271 17.6161C10.822 17.4582 11.1764 17.4581 11.4714 17.6161L15.9815 20.0315C16.7162 20.4249 17.5815 19.7999 17.4389 18.9788L16.5669 13.9592C16.5108 13.6358 16.6168 13.3054 16.8508 13.0752L20.5664 9.4189C21.1553 8.83947 20.8274 7.83644 20.01 7.71668L14.9244 6.97159C14.5993 6.92395 14.3183 6.71963 14.1728 6.42501L11.9016 1.82694Z" fill="#161A29"/>
</svg>
