<svg width="256" height="347" viewBox="0 0 256 347" fill="none" xmlns="http://www.w3.org/2000/svg">
<g clip-path="url(#clip0_2343_4126)">
<path d="M59.8359 1.5L64.3896 6.50879L64.8369 7H196.323L196.766 6.30566L199.824 1.5H246.249L254.5 12.5V334.418L244.839 345H12.6729L1.5 332.43V15.0391L12.7051 1.5H59.8359Z" fill="url(#paint0_linear_2343_4126)" stroke="#6B01FF" stroke-width="3"/>
<g filter="url(#filter0_f_2343_4126)">
<path d="M238.667 115.095C242.332 171.764 216.676 176.098 113.806 194C40.7468 188.912 19 159.715 19 115.095C19 70.476 76.852 44 148.216 44C219.58 44 238.667 70.476 238.667 115.095Z" fill="white" fill-opacity="0.3"/>
</g>
<rect x="17" y="221" width="224" height="102" fill="#0742A3"/>
<rect x="17" y="221" width="224" height="102" stroke="#00A6C7" stroke-width="2"/>
<path d="M36 5H61L64.5 10H196L200.5 5H223.5L206 44H53.5L36 5Z" fill="url(#paint1_linear_2343_4126)"/>
<g filter="url(#filter1_d_2343_4126)">
<line x1="53" y1="43.5" x2="205" y2="43.5" stroke="url(#paint2_linear_2343_4126)"/>
</g>
</g>
<defs>
<filter id="filter0_f_2343_4126" x="-81" y="-56" width="420" height="350" filterUnits="userSpaceOnUse" color-interpolation-filters="sRGB">
<feFlood flood-opacity="0" result="BackgroundImageFix"/>
<feBlend mode="normal" in="SourceGraphic" in2="BackgroundImageFix" result="shape"/>
<feGaussianBlur stdDeviation="50" result="effect1_foregroundBlur_2343_4126"/>
</filter>
<filter id="filter1_d_2343_4126" x="33" y="19" width="192" height="41" filterUnits="userSpaceOnUse" color-interpolation-filters="sRGB">
<feFlood flood-opacity="0" result="BackgroundImageFix"/>
<feColorMatrix in="SourceAlpha" type="matrix" values="0 0 0 0 0 0 0 0 0 0 0 0 0 0 0 0 0 0 127 0" result="hardAlpha"/>
<feOffset dy="-4"/>
<feGaussianBlur stdDeviation="10"/>
<feComposite in2="hardAlpha" operator="out"/>
<feColorMatrix type="matrix" values="0 0 0 0 0.731841 0 0 0 0 0.463681 0 0 0 0 1 0 0 0 1 0"/>
<feBlend mode="normal" in2="BackgroundImageFix" result="effect1_dropShadow_2343_4126"/>
<feBlend mode="normal" in="SourceGraphic" in2="effect1_dropShadow_2343_4126" result="shape"/>
</filter>
<linearGradient id="paint0_linear_2343_4126" x1="128" y1="65.5" x2="128" y2="346.5" gradientUnits="userSpaceOnUse">
<stop stop-color="#430E8C"/>
<stop offset="1" stop-color="#350873"/>
</linearGradient>
<linearGradient id="paint1_linear_2343_4126" x1="119.5" y1="12" x2="119.5" y2="78.5" gradientUnits="userSpaceOnUse">
<stop stop-color="#430E8C"/>
<stop offset="1" stop-color="#0062A8"/>
</linearGradient>
<linearGradient id="paint2_linear_2343_4126" x1="53" y1="44.5" x2="205" y2="44.5" gradientUnits="userSpaceOnUse">
<stop stop-color="#0024DA"/>
<stop offset="0.48" stop-color="#8900FF"/>
<stop offset="1" stop-color="#0024DA"/>
</linearGradient>
<clipPath id="clip0_2343_4126">
<rect width="256" height="346.5" fill="white"/>
</clipPath>
</defs>
</svg>
