<svg width="720" height="49" viewBox="0 0 720 49" fill="none" xmlns="http://www.w3.org/2000/svg">
<path d="M254.441 17.1675L228.441 17.1675L230.941 16.1675L260.941 16.1675L267.441 22.1675H259.441L254.441 17.1675ZM10.9414 31.6675L28.0205 24.1831L28.0381 24.1675L177.608 24.1675L183.441 19.1675L251.441 19.1675L256.441 24.1675H267.441L266.941 25.1675L28.2578 25.1675L10.001 32.8325L10.9414 31.6675Z" fill="url(#paint0_linear_2126_10550)"/>
<path d="M292.2 41.98C289.928 41.98 287.736 41.772 285.624 41.356C283.544 40.94 281.816 40.428 280.44 39.82V26.044H292.536L292.872 31.948H289.368V35.02C290.168 35.276 291.08 35.404 292.104 35.404C294.088 35.404 295.448 34.892 296.184 33.868C296.952 32.844 297.336 31.116 297.336 28.684C297.336 26.828 297.08 25.404 296.568 24.412C296.056 23.388 295.256 22.684 294.168 22.3C293.08 21.884 291.656 21.676 289.896 21.676C288.552 21.676 287.064 21.788 285.432 22.012C283.8 22.236 282.232 22.572 280.728 23.02V16.78C282.392 16.236 284.264 15.82 286.344 15.532C288.424 15.244 290.328 15.1 292.056 15.1C297.08 15.1 300.744 16.252 303.048 18.556C305.384 20.828 306.552 24.204 306.552 28.684C306.552 33.036 305.416 36.348 303.144 38.62C300.904 40.86 297.256 41.98 292.2 41.98ZM291.366 12.892V4.012H298.134V7.18H309.606L309.318 12.892H291.366ZM323.19 41.98C320.534 41.98 318.198 41.564 316.182 40.732C314.198 39.9 312.646 38.636 311.526 36.94C310.438 35.212 309.894 33.052 309.894 30.46V15.58H318.918V30.844C318.918 32.444 319.254 33.612 319.926 34.348C320.63 35.052 321.718 35.404 323.19 35.404C324.694 35.404 325.782 35.052 326.454 34.348C327.126 33.612 327.462 32.444 327.462 30.844V7.9H336.486V30.46C336.486 33.052 335.926 35.212 334.806 36.94C333.718 38.636 332.166 39.9 330.15 40.732C328.166 41.564 325.846 41.98 323.19 41.98ZM345.825 41.5C344.289 41.5 343.057 41.036 342.129 40.108C341.233 39.148 340.785 37.932 340.785 36.46V15.58H349.809V34.156C349.809 35.148 350.305 35.644 351.297 35.644H353.265V41.5H345.825ZM356.485 41.5V33.34C356.485 32.092 356.757 30.94 357.301 29.884C357.845 28.796 358.757 28.044 360.037 27.628L355.669 26.284V19.468C357.109 18.38 358.981 17.388 361.285 16.492C363.589 15.564 366.197 15.1 369.109 15.1C373.781 15.1 377.205 16.044 379.381 17.932C381.557 19.82 382.645 22.476 382.645 25.9V41.5H373.621V26.188C373.621 24.556 373.221 23.404 372.421 22.732C371.653 22.028 370.373 21.676 368.581 21.676C367.525 21.676 366.533 21.82 365.605 22.108C364.709 22.364 363.957 22.716 363.349 23.164V23.548L368.389 25.132V29.356C367.397 29.644 366.661 30.108 366.181 30.748C365.733 31.356 365.509 32.268 365.509 33.484V41.5H356.485ZM396.221 41.98C394.237 41.98 392.349 41.836 390.557 41.548C388.765 41.26 387.357 40.908 386.333 40.492V33.628C387.517 34.14 388.845 34.572 390.317 34.924C391.789 35.244 393.165 35.404 394.445 35.404C396.013 35.404 397.085 35.308 397.661 35.116C398.237 34.892 398.525 34.508 398.525 33.964C398.525 33.26 398.061 32.732 397.133 32.38C396.237 31.996 394.749 31.42 392.669 30.652C390.461 29.82 388.797 28.86 387.677 27.772C386.557 26.652 385.997 25.1 385.997 23.116C385.997 20.748 386.941 18.828 388.829 17.356C390.749 15.852 393.645 15.1 397.517 15.1C399.117 15.1 400.733 15.228 402.365 15.484C404.029 15.708 405.341 15.964 406.301 16.252V23.02C405.277 22.572 404.109 22.236 402.797 22.012C401.485 21.788 400.333 21.676 399.341 21.676C398.125 21.676 397.133 21.772 396.365 21.964C395.597 22.156 395.213 22.588 395.213 23.26C395.213 23.964 395.709 24.46 396.701 24.748C397.693 25.036 399.069 25.532 400.829 26.236C402.717 26.94 404.157 27.644 405.149 28.348C406.141 29.02 406.813 29.804 407.165 30.7C407.549 31.596 407.741 32.748 407.741 34.156C407.741 36.588 406.749 38.508 404.765 39.916C402.781 41.292 399.933 41.98 396.221 41.98ZM421.37 41.98C419.194 41.98 417.258 41.564 415.562 40.732C413.866 39.9 412.538 38.572 411.578 36.748C410.618 34.892 410.138 32.444 410.138 29.404C410.138 24.796 411.338 21.26 413.738 18.796C416.138 16.332 419.802 15.1 424.73 15.1C427.962 15.1 430.586 15.612 432.602 16.636C434.618 17.628 436.09 18.94 437.018 20.572C437.978 22.172 438.458 23.9 438.458 25.756V41.5H429.434V26.572C429.434 25.068 429.114 23.884 428.474 23.02C427.834 22.124 426.522 21.676 424.538 21.676C422.714 21.676 421.386 22.284 420.554 23.5C419.754 24.716 419.354 26.684 419.354 29.404C419.354 31.644 419.674 33.212 420.314 34.108C420.986 34.972 422.058 35.404 423.53 35.404C424.042 35.404 424.554 35.372 425.066 35.308C425.578 35.244 426.026 35.148 426.41 35.02V41.116C425.802 41.372 425.082 41.58 424.25 41.74C423.45 41.9 422.49 41.98 421.37 41.98Z" fill="white"/>
<path d="M465.559 17.1675L491.559 17.1675L489.059 16.1675L459.059 16.1675L452.559 22.1675H460.559L465.559 17.1675ZM709.059 31.6675L691.979 24.1831L691.962 24.1675L542.392 24.1675L536.559 19.1675L468.559 19.1675L463.559 24.1675H452.559L453.059 25.1675L691.742 25.1675L709.999 32.8325L709.059 31.6675Z" fill="url(#paint1_linear_2126_10550)"/>
<defs>
<linearGradient id="paint0_linear_2126_10550" x1="10.001" y1="24.5" x2="232.941" y2="16.1675" gradientUnits="userSpaceOnUse">
<stop stop-color="#00FFEA"/>
<stop offset="1" stop-color="#7CC7FF"/>
</linearGradient>
<linearGradient id="paint1_linear_2126_10550" x1="709.999" y1="24.5" x2="487.059" y2="16.1675" gradientUnits="userSpaceOnUse">
<stop stop-color="#00FFEA"/>
<stop offset="1" stop-color="#7CC7FF"/>
</linearGradient>
</defs>
</svg>
