<svg width="16" height="16" viewBox="0 0 16 16" fill="none" xmlns="http://www.w3.org/2000/svg">
<path d="M7.99963 0C12.4179 0 15.9996 3.58172 15.9996 8C15.9996 12.4183 12.4179 16 7.99963 16C3.58136 16 -0.000363672 12.4183 -0.000366211 8C-0.000366211 3.58172 3.58136 2.58759e-06 7.99963 0ZM7.99963 1C4.13364 1 0.999634 4.13401 0.999634 8C0.999636 11.866 4.13364 15 7.99963 15C11.8656 15 14.9996 11.866 14.9996 8C14.9996 4.13401 11.8656 1 7.99963 1ZM8.49963 11C8.77578 11 8.99963 11.2239 8.99963 11.5C8.99963 11.7761 8.77577 12 8.49963 12H7.49963C7.2235 12 6.99964 11.7761 6.99963 11.5C6.99963 11.2239 7.22349 11 7.49963 11H8.49963ZM10.4996 8C10.7758 8 10.9996 8.22386 10.9996 8.5C10.9996 8.77614 10.7758 9 10.4996 9H5.49963C5.2235 9 4.99964 8.77614 4.99963 8.5C4.99963 8.22386 5.22349 8 5.49963 8H10.4996ZM12.4996 5C12.7758 5 12.9996 5.22386 12.9996 5.5C12.9996 5.77614 12.7758 6 12.4996 6H3.49963C3.2235 6 2.99964 5.77614 2.99963 5.5C2.99963 5.22386 3.22349 5 3.49963 5H12.4996Z" fill="white"/>
</svg>
