<svg width="16" height="16" viewBox="0 0 16 16" fill="none" xmlns="http://www.w3.org/2000/svg">
<g clip-path="url(#clip0_4136_24293)">
<path d="M11.4998 10.999C12.7092 10.999 13.7183 11.8579 13.95 12.999H15.9998V13.999H13.95C13.7183 15.1401 12.7092 15.999 11.4998 15.999C10.2903 15.999 9.2812 15.1401 9.04956 13.999H-0.000244141V12.999H9.04956C9.2812 11.8579 10.2903 10.999 11.4998 10.999ZM11.4998 11.999C10.6713 11.999 9.99976 12.6706 9.99976 13.499C9.99976 14.3274 10.6713 14.999 11.4998 14.999C12.3282 14.999 12.9998 14.3274 12.9998 13.499C12.9998 12.6706 12.3282 11.999 11.4998 11.999ZM4.49976 5.99902C5.70923 5.99903 6.71832 6.8579 6.94995 7.99902H15.9998V8.99902H6.94995C6.71832 10.1401 5.70923 10.999 4.49976 10.999C3.29028 10.999 2.2812 10.1401 2.04956 8.99902H-0.000244141V7.99902H2.04956C2.2812 6.8579 3.29028 5.99902 4.49976 5.99902ZM4.49976 6.99902C3.67133 6.99902 2.99976 7.6706 2.99976 8.49902C2.99976 9.32745 3.67133 9.99902 4.49976 9.99902C5.32818 9.99902 5.99975 9.32745 5.99976 8.49902C5.99976 7.6706 5.32818 6.99903 4.49976 6.99902ZM11.4998 0.999023C12.7092 0.999025 13.7183 1.8579 13.95 2.99902H15.9998V3.99902H13.95C13.7183 5.14014 12.7092 5.99902 11.4998 5.99902C10.2903 5.99902 9.2812 5.14014 9.04956 3.99902H-0.000244141V2.99902H9.04956C9.2812 1.8579 10.2903 0.999023 11.4998 0.999023ZM11.4998 1.99902C10.6713 1.99902 9.99976 2.6706 9.99976 3.49902C9.99976 4.32745 10.6713 4.99902 11.4998 4.99902C12.3282 4.99902 12.9998 4.32745 12.9998 3.49902C12.9998 2.6706 12.3282 1.99903 11.4998 1.99902Z" fill="black"/>
</g>
<defs>
<clipPath id="clip0_4136_24293">
<rect width="16" height="16" fill="white"/>
</clipPath>
</defs>
</svg>