<svg width="1440" height="900" viewBox="0 0 1440 900" fill="none" xmlns="http://www.w3.org/2000/svg">
<rect width="1440" height="900" fill="#0C0C0C" fill-opacity="0.38"/>
<g clip-path="url(#clip0_1_10201)">
<rect x="440" y="269.5" width="560" height="360" rx="12" fill="white"/>
<rect width="560" height="141" transform="translate(440 269.5)" fill="white"/>
<g clip-path="url(#clip1_1_10201)">
<rect width="48" height="48" transform="translate(696 301.5)" fill="white" fill-opacity="0.01"/>
<path d="M720 301.502C733.255 301.502 744 312.247 744 325.502C744 338.757 733.255 349.502 720 349.502C706.745 349.502 696 338.757 696 325.502C696 312.247 706.745 301.502 720 301.502ZM732.091 316.411C731.212 315.533 729.788 315.532 728.909 316.411C728.888 316.432 728.868 316.455 728.85 316.479L718.433 329.752L712.151 323.472C711.273 322.593 709.848 322.593 708.97 323.472C708.091 324.35 708.091 325.775 708.97 326.653L716.909 334.593C717.788 335.471 719.212 335.471 720.091 334.593C720.11 334.573 720.129 334.553 720.146 334.531L732.123 319.561C732.97 318.68 732.959 317.279 732.091 316.411Z" fill="#198754"/>
</g>
<path d="M694.36 387.86C693.368 387.86 692.664 387.604 692.248 387.092C691.848 386.564 691.648 385.74 691.648 384.62C691.648 381.26 693.24 379.58 696.424 379.58C697.112 379.58 697.736 379.676 698.296 379.868C698.872 380.044 699.304 380.316 699.592 380.684V379.1C699.592 378.284 699.36 377.668 698.896 377.252C698.448 376.836 697.736 376.628 696.76 376.628C695.336 376.628 694.136 377.068 693.16 377.948L691.84 376.148C693.216 375.012 694.984 374.444 697.144 374.444C698.264 374.444 699.216 374.612 700 374.948C700.176 374.788 700.328 374.596 700.456 374.372C700.584 374.148 700.672 373.924 700.72 373.7L703.288 374.252C703.256 374.604 703.12 374.996 702.88 375.428C702.656 375.844 702.376 376.196 702.04 376.484C702.568 377.14 702.832 378.012 702.832 379.1V387.5H699.688C699.688 386.076 699.584 384.948 699.376 384.116C699.168 383.284 698.832 382.684 698.368 382.316C697.92 381.948 697.304 381.764 696.52 381.764C695.896 381.764 695.416 381.876 695.08 382.1C694.76 382.324 694.576 382.692 694.528 383.204L694.912 383.18C695.664 383.18 696.216 383.372 696.568 383.756C696.92 384.14 697.096 384.724 697.096 385.508C697.096 386.324 696.896 386.924 696.496 387.308C696.096 387.676 695.384 387.86 694.36 387.86ZM694.432 386.396C694.8 386.396 695.048 386.332 695.176 386.204C695.32 386.06 695.392 385.804 695.392 385.436C695.392 385.1 695.32 384.868 695.176 384.74C695.048 384.612 694.8 384.548 694.432 384.548C694.064 384.548 693.808 384.612 693.664 384.74C693.536 384.868 693.472 385.1 693.472 385.436C693.472 385.788 693.544 386.036 693.688 386.18C693.832 386.324 694.08 386.396 694.432 386.396ZM701.61 373.364C700.65 373.364 699.946 373.156 699.498 372.74C699.05 372.324 698.826 371.676 698.826 370.796C698.826 369.916 699.05 369.276 699.498 368.876C699.946 368.46 700.65 368.252 701.61 368.252C702.554 368.252 703.25 368.46 703.698 368.876C704.146 369.276 704.37 369.916 704.37 370.796C704.37 371.676 704.146 372.324 703.698 372.74C703.25 373.156 702.554 373.364 701.61 373.364ZM701.61 371.684C702.25 371.684 702.57 371.388 702.57 370.796C702.57 370.204 702.25 369.908 701.61 369.908C700.938 369.908 700.602 370.204 700.602 370.796C700.602 371.388 700.938 371.684 701.61 371.684ZM711.282 379.1C711.282 378.236 711.122 377.612 710.802 377.228C710.482 376.828 709.921 376.628 709.122 376.628C708.161 376.628 707.265 377.012 706.433 377.78L705.137 376.028C705.745 375.484 706.409 375.084 707.129 374.828C707.849 374.572 708.665 374.444 709.577 374.444C711.402 374.444 712.682 374.852 713.418 375.668C714.154 376.484 714.522 377.636 714.522 379.124V387.5H711.282V379.1ZM719.669 387.86C718.645 387.86 717.925 387.652 717.509 387.236C717.109 386.804 716.909 386.1 716.909 385.124V374.804H720.149V383.228C720.853 383.228 721.405 383.42 721.805 383.804C722.205 384.172 722.405 384.724 722.405 385.46C722.405 386.292 722.205 386.9 721.805 387.284C721.405 387.668 720.693 387.86 719.669 387.86ZM719.741 386.372C720.109 386.372 720.357 386.308 720.485 386.18C720.629 386.052 720.701 385.804 720.701 385.436C720.701 385.1 720.629 384.868 720.485 384.74C720.357 384.612 720.109 384.548 719.741 384.548C719.373 384.548 719.117 384.612 718.973 384.74C718.845 384.868 718.781 385.1 718.781 385.436C718.781 385.804 718.845 386.052 718.973 386.18C719.117 386.308 719.373 386.372 719.741 386.372ZM729.026 387.86C728.002 387.86 727.29 387.668 726.89 387.284C726.49 386.9 726.29 386.292 726.29 385.46C726.29 384.724 726.49 384.172 726.89 383.804C727.29 383.42 727.842 383.228 728.546 383.228V382.196C728.546 381.78 728.466 381.484 728.306 381.308C728.146 381.116 727.85 380.956 727.418 380.828L723.65 379.724V378.284C723.65 376.94 724.106 375.964 725.018 375.356C725.93 374.748 727.154 374.444 728.69 374.444C729.842 374.444 730.794 374.564 731.546 374.804C732.298 375.028 733.002 375.396 733.658 375.908L732.338 377.684C731.954 377.364 731.49 377.108 730.946 376.916C730.402 376.724 729.802 376.628 729.146 376.628C728.394 376.628 727.826 376.756 727.442 377.012C727.074 377.252 726.89 377.596 726.89 378.044V378.404L730.106 379.34C730.602 379.484 730.97 379.668 731.21 379.892C731.45 380.1 731.602 380.372 731.666 380.708C731.746 381.044 731.786 381.508 731.786 382.1V385.124C731.786 386.1 731.578 386.804 731.162 387.236C730.762 387.652 730.05 387.86 729.026 387.86ZM728.954 386.372C729.322 386.372 729.57 386.308 729.698 386.18C729.842 386.052 729.914 385.804 729.914 385.436C729.914 385.1 729.842 384.868 729.698 384.74C729.57 384.612 729.322 384.548 728.954 384.548C728.586 384.548 728.33 384.612 728.186 384.74C728.058 384.868 727.994 385.1 727.994 385.436C727.994 385.804 728.058 386.052 728.186 386.18C728.33 386.308 728.586 386.372 728.954 386.372ZM730.442 373.556C729.93 373.556 729.49 373.5 729.122 373.388C728.738 373.26 728.394 373.044 728.09 372.74L727.562 372.188L726.29 373.364H724.034V370.1C724.034 369.14 724.29 368.412 724.802 367.916C725.314 367.42 726.066 367.172 727.058 367.172H732.698V368.972H727.538C727.074 368.972 726.746 369.068 726.554 369.26C726.346 369.452 726.242 369.78 726.242 370.244V371.252L727.202 370.364H727.994L728.618 371.036C728.618 369.964 729.29 369.428 730.634 369.428C731.37 369.428 731.906 369.58 732.242 369.884C732.578 370.188 732.746 370.684 732.746 371.372C732.746 372.124 732.578 372.676 732.242 373.028C731.89 373.38 731.29 373.556 730.442 373.556ZM730.658 372.284C730.978 372.284 731.194 372.236 731.306 372.14C731.418 372.028 731.474 371.82 731.474 371.516C731.474 371.228 731.418 371.028 731.306 370.916C731.178 370.788 730.962 370.724 730.658 370.724C730.354 370.724 730.146 370.788 730.034 370.916C729.906 371.028 729.842 371.228 729.842 371.516C729.842 371.82 729.898 372.028 730.01 372.14C730.122 372.236 730.338 372.284 730.658 372.284ZM739.17 383.684C738.946 383.716 738.762 383.732 738.618 383.732C737.866 383.732 737.29 383.54 736.89 383.156C736.506 382.772 736.314 382.212 736.314 381.476C736.314 380.66 736.506 380.068 736.89 379.7C737.274 379.316 737.954 379.124 738.93 379.124C739.618 379.124 740.13 379.204 740.466 379.364C740.818 379.508 741.066 379.748 741.21 380.084C741.354 380.404 741.498 380.924 741.642 381.644L742.362 385.316H742.746C743.098 385.316 743.354 385.236 743.514 385.076C743.69 384.916 743.778 384.66 743.778 384.308V379.172C743.778 378.276 743.538 377.628 743.058 377.228C742.578 376.828 741.802 376.628 740.73 376.628C740.026 376.628 739.394 376.74 738.834 376.964C738.274 377.172 737.738 377.484 737.226 377.9L735.906 376.148C737.282 375.012 739.026 374.444 741.138 374.444C743.058 374.444 744.514 374.836 745.506 375.62C746.514 376.388 747.018 377.54 747.018 379.076V383.78C747.018 384.756 746.73 385.62 746.154 386.372C745.594 387.124 744.554 387.5 743.034 387.5H739.914L739.17 383.684ZM738.93 382.436C739.282 382.436 739.522 382.372 739.65 382.244C739.794 382.116 739.866 381.884 739.866 381.548C739.866 381.18 739.802 380.932 739.674 380.804C739.546 380.676 739.298 380.612 738.93 380.612C738.562 380.612 738.306 380.684 738.162 380.828C738.018 380.956 737.946 381.196 737.946 381.548C737.946 381.884 738.018 382.116 738.162 382.244C738.306 382.372 738.562 382.436 738.93 382.436Z" fill="black"/>
<path d="M654 453.8C652.28 453.8 651.053 453.467 650.32 452.8C649.587 452.12 649.22 451.14 649.22 449.86V446.48C648.633 446.48 648.173 446.327 647.84 446.02C647.507 445.7 647.34 445.233 647.34 444.62C647.34 443.927 647.507 443.42 647.84 443.1C648.173 442.78 648.767 442.62 649.62 442.62C650.473 442.62 651.067 442.8 651.4 443.16C651.747 443.507 651.92 444.087 651.92 444.9V449.98C651.92 450.66 652.073 451.167 652.38 451.5C652.7 451.82 653.227 451.98 653.96 451.98C654.693 451.98 655.213 451.82 655.52 451.5C655.84 451.167 656 450.66 656 449.98V442.92H658.7V449.86C658.7 451.14 658.347 452.12 657.64 452.8C656.933 453.467 655.72 453.8 654 453.8ZM649.56 445.38C649.867 445.38 650.073 445.327 650.18 445.22C650.3 445.113 650.36 444.92 650.36 444.64C650.36 444.333 650.3 444.127 650.18 444.02C650.073 443.913 649.867 443.86 649.56 443.86C649.253 443.86 649.04 443.913 648.92 444.02C648.813 444.127 648.76 444.333 648.76 444.64C648.76 444.92 648.813 445.113 648.92 445.22C649.04 445.327 649.253 445.38 649.56 445.38ZM657.377 441.72C654.603 441.72 653.217 440.887 653.217 439.22C653.217 438.473 653.41 437.927 653.797 437.58C654.17 437.22 654.777 437.04 655.617 437.04C656.417 437.04 656.983 437.193 657.317 437.5C657.65 437.793 657.817 438.26 657.817 438.9C657.817 439.233 657.743 439.527 657.597 439.78C657.757 439.82 657.983 439.84 658.277 439.84C658.73 439.84 659.19 439.74 659.657 439.54C660.11 439.327 660.503 439.06 660.837 438.74L661.897 440.14C660.91 441.193 659.403 441.72 657.377 441.72ZM655.557 439.9C655.863 439.9 656.077 439.847 656.197 439.74C656.317 439.633 656.377 439.44 656.377 439.16C656.377 438.867 656.317 438.667 656.197 438.56C656.077 438.44 655.863 438.38 655.557 438.38C655.25 438.38 655.043 438.433 654.937 438.54C654.83 438.647 654.777 438.853 654.777 439.16C654.777 439.44 654.83 439.633 654.937 439.74C655.043 439.847 655.25 439.9 655.557 439.9ZM669.397 453.8C667.823 453.8 667.09 453.227 667.197 452.08L665.197 453.5H662.877V446.48C662.29 446.48 661.823 446.327 661.477 446.02C661.143 445.7 660.977 445.233 660.977 444.62C660.977 443.927 661.143 443.42 661.477 443.1C661.81 442.78 662.403 442.62 663.257 442.62C664.123 442.62 664.723 442.8 665.057 443.16C665.403 443.507 665.577 444.087 665.577 444.9V450.96L668.377 449.08C668.537 448.987 668.643 448.88 668.697 448.76C668.763 448.64 668.797 448.48 668.797 448.28V442.92H671.497V447.94C671.497 448.38 671.417 448.747 671.257 449.04C671.11 449.32 670.83 449.6 670.417 449.88C670.923 449.973 671.283 450.167 671.497 450.46C671.71 450.753 671.817 451.173 671.817 451.72C671.817 452.48 671.643 453.02 671.297 453.34C670.95 453.647 670.317 453.8 669.397 453.8ZM663.197 445.38C663.503 445.38 663.71 445.327 663.817 445.22C663.937 445.113 663.997 444.92 663.997 444.64C663.997 444.333 663.937 444.127 663.817 444.02C663.71 443.913 663.503 443.86 663.197 443.86C662.89 443.86 662.677 443.913 662.557 444.02C662.45 444.127 662.397 444.333 662.397 444.64C662.397 444.92 662.45 445.113 662.557 445.22C662.677 445.327 662.89 445.38 663.197 445.38ZM669.457 452.46C669.763 452.46 669.97 452.407 670.077 452.3C670.197 452.193 670.257 451.993 670.257 451.7C670.257 451.407 670.197 451.207 670.077 451.1C669.97 450.98 669.763 450.92 669.457 450.92C669.15 450.92 668.937 450.98 668.817 451.1C668.71 451.207 668.657 451.407 668.657 451.7C668.657 451.993 668.71 452.193 668.817 452.3C668.937 452.407 669.15 452.46 669.457 452.46ZM675.174 446.48C674.587 446.48 674.12 446.327 673.774 446.02C673.44 445.7 673.274 445.233 673.274 444.62C673.274 443.927 673.44 443.42 673.774 443.1C674.107 442.78 674.7 442.62 675.554 442.62C676.42 442.62 677.02 442.8 677.354 443.16C677.7 443.507 677.874 444.087 677.874 444.9V447.36L679.534 444.46C679.907 443.793 680.294 443.32 680.694 443.04C681.094 442.76 681.594 442.62 682.194 442.62C682.82 442.62 683.3 442.813 683.634 443.2C683.98 443.573 684.154 444.08 684.154 444.72V453.5H681.454V445.9C681.454 445.793 681.44 445.72 681.414 445.68C681.387 445.627 681.334 445.6 681.254 445.6C681.174 445.6 681.1 445.633 681.034 445.7C680.98 445.767 680.9 445.893 680.794 446.08L677.874 451.16V453.5H675.174V446.48ZM675.494 445.38C675.8 445.38 676.007 445.327 676.114 445.22C676.234 445.113 676.294 444.92 676.294 444.64C676.294 444.333 676.234 444.127 676.114 444.02C676.007 443.913 675.8 443.86 675.494 443.86C675.187 443.86 674.974 443.913 674.854 444.02C674.747 444.127 674.694 444.333 674.694 444.64C674.694 444.92 674.747 445.113 674.854 445.22C674.974 445.327 675.187 445.38 675.494 445.38ZM674.922 441.72C675.015 440.493 675.515 439.553 676.422 438.9C677.328 438.233 678.448 437.9 679.782 437.9C680.235 437.9 680.695 437.973 681.162 438.12C681.268 437.387 681.862 437.02 682.942 437.02C683.728 437.02 684.255 437.16 684.522 437.44C684.788 437.72 684.922 438.187 684.922 438.84C684.922 439.2 684.862 439.493 684.742 439.72C684.608 439.933 684.402 440.1 684.122 440.22C684.428 440.647 684.602 441.147 684.642 441.72H674.922ZM682.962 439.46C683.242 439.46 683.435 439.407 683.542 439.3C683.635 439.193 683.682 439.013 683.682 438.76C683.682 438.493 683.635 438.313 683.542 438.22C683.435 438.127 683.242 438.08 682.962 438.08C682.695 438.08 682.508 438.133 682.402 438.24C682.295 438.333 682.242 438.507 682.242 438.76C682.242 439.227 682.482 439.46 682.962 439.46ZM682.122 440.38C681.948 440.087 681.655 439.847 681.242 439.66C680.828 439.473 680.342 439.38 679.782 439.38C679.182 439.38 678.668 439.467 678.242 439.64C677.815 439.8 677.548 440.047 677.442 440.38H682.122ZM687.022 449.38C687.022 448.793 687.102 448.313 687.262 447.94C687.435 447.567 687.735 447.253 688.162 447L686.642 446.1V444.54C687.282 443.927 688.028 443.453 688.882 443.12C689.748 442.787 690.688 442.62 691.702 442.62C693.342 442.62 694.575 442.967 695.402 443.66C696.242 444.353 696.662 445.287 696.662 446.46V453.5H693.962V446.34C693.962 445.727 693.768 445.26 693.382 444.94C692.995 444.607 692.428 444.44 691.682 444.44C690.708 444.44 689.882 444.687 689.202 445.18V445.44L690.742 446.4V447.46C690.342 447.62 690.068 447.827 689.922 448.08C689.788 448.333 689.722 448.72 689.722 449.24V453.5H687.022V449.38ZM703.565 453.8C700.579 453.8 699.085 452.527 699.085 449.98V449.16C699.085 448.653 699.185 448.173 699.385 447.72C699.585 447.267 699.872 446.867 700.245 446.52C699.659 446.48 699.245 446.313 699.005 446.02C698.765 445.713 698.645 445.233 698.645 444.58C698.645 443.9 698.805 443.407 699.125 443.1C699.459 442.78 700.052 442.62 700.905 442.62C701.772 442.62 702.365 442.767 702.685 443.06C703.019 443.353 703.185 443.88 703.185 444.64V445.34C703.185 445.62 703.132 445.86 703.025 446.06C702.932 446.26 702.779 446.5 702.565 446.78C702.312 447.113 702.119 447.433 701.985 447.74C701.852 448.033 701.785 448.4 701.785 448.84V450.1C701.785 450.74 701.899 451.213 702.125 451.52C702.352 451.827 702.832 451.98 703.565 451.98C704.072 451.98 704.452 451.907 704.705 451.76C704.972 451.6 705.145 451.393 705.225 451.14C705.305 450.873 705.345 450.527 705.345 450.1V442.92H708.045V449.86C708.045 452.487 706.552 453.8 703.565 453.8ZM700.885 445.38C701.192 445.38 701.399 445.327 701.505 445.22C701.625 445.113 701.685 444.92 701.685 444.64C701.685 444.333 701.625 444.127 701.505 444.02C701.399 443.913 701.192 443.86 700.885 443.86C700.579 443.86 700.365 443.92 700.245 444.04C700.125 444.147 700.065 444.347 700.065 444.64C700.065 444.92 700.125 445.113 700.245 445.22C700.365 445.327 700.579 445.38 700.885 445.38ZM703.404 440.4C703.711 440.4 703.944 440.38 704.104 440.34C704.251 440.287 704.351 440.187 704.404 440.04C703.858 440.093 703.451 440 703.184 439.76C702.904 439.507 702.764 439.133 702.764 438.64C702.764 438.08 702.918 437.68 703.224 437.44C703.518 437.2 703.991 437.08 704.644 437.08C705.324 437.08 705.804 437.207 706.084 437.46C706.351 437.7 706.484 438.113 706.484 438.7C706.484 439.353 706.338 439.84 706.044 440.16C706.644 440.08 707.058 439.88 707.284 439.56C707.511 439.227 707.624 438.707 707.624 438V437.64H709.624V438.06C709.624 438.727 709.484 439.34 709.204 439.9C708.924 440.46 708.518 440.907 707.984 441.24C707.438 441.56 706.784 441.72 706.024 441.72H703.404V440.4ZM704.644 439.26C704.911 439.26 705.091 439.213 705.184 439.12C705.278 439.027 705.324 438.86 705.324 438.62C705.324 438.38 705.278 438.213 705.184 438.12C705.078 438.027 704.898 437.98 704.644 437.98C704.378 437.98 704.198 438.027 704.104 438.12C704.011 438.2 703.964 438.367 703.964 438.62C703.964 438.86 704.011 439.027 704.104 439.12C704.198 439.213 704.378 439.26 704.644 439.26ZM715.144 453.8C713.424 453.8 712.244 453.48 711.604 452.84C710.964 452.187 710.644 451.313 710.644 450.22V449.02C710.644 448.207 710.811 447.627 711.144 447.28C711.491 446.92 712.091 446.74 712.944 446.74C713.798 446.74 714.391 446.9 714.724 447.22C715.058 447.54 715.224 448.047 715.224 448.74C715.224 449.34 715.044 449.78 714.684 450.06C714.338 450.327 713.858 450.46 713.244 450.46V450.74C713.244 451.153 713.398 451.467 713.704 451.68C714.011 451.88 714.491 451.98 715.144 451.98C715.798 451.98 716.298 451.867 716.644 451.64C716.991 451.4 717.164 451.067 717.164 450.64V446.5C717.164 445.793 716.958 445.273 716.544 444.94C716.131 444.607 715.484 444.44 714.604 444.44C714.018 444.44 713.484 444.527 713.004 444.7C712.538 444.873 712.078 445.14 711.624 445.5L710.524 444.04C711.098 443.573 711.758 443.22 712.504 442.98C713.264 442.74 714.084 442.62 714.964 442.62C716.684 442.62 717.931 442.953 718.704 443.62C719.478 444.287 719.864 445.24 719.864 446.48V450.5C719.864 451.033 719.711 451.553 719.404 452.06C719.111 452.553 718.611 452.967 717.904 453.3C717.211 453.633 716.291 453.8 715.144 453.8ZM713.004 449.5C713.311 449.5 713.518 449.447 713.624 449.34C713.744 449.233 713.804 449.04 713.804 448.76C713.804 448.453 713.744 448.247 713.624 448.14C713.518 448.033 713.311 447.98 713.004 447.98C712.698 447.98 712.484 448.033 712.364 448.14C712.258 448.247 712.204 448.453 712.204 448.76C712.204 449.04 712.258 449.233 712.364 449.34C712.484 449.447 712.698 449.5 713.004 449.5ZM724.245 453.8C723.431 453.8 722.851 453.64 722.505 453.32C722.171 453 722.005 452.507 722.005 451.84C722.005 451.173 722.145 450.687 722.425 450.38C722.718 450.073 723.158 449.907 723.745 449.88V446.48C723.158 446.48 722.691 446.327 722.345 446.02C722.011 445.7 721.845 445.233 721.845 444.62C721.845 443.927 722.011 443.42 722.345 443.1C722.678 442.78 723.271 442.62 724.125 442.62C724.991 442.62 725.591 442.8 725.925 443.16C726.271 443.507 726.445 444.087 726.445 444.9V449.96L729.305 451.02V442.92H732.005V453.5H730.445L726.585 452.08C726.545 452.667 726.358 453.1 726.025 453.38C725.691 453.66 725.098 453.8 724.245 453.8ZM724.065 445.38C724.371 445.38 724.578 445.327 724.685 445.22C724.805 445.113 724.865 444.92 724.865 444.64C724.865 444.333 724.805 444.127 724.685 444.02C724.578 443.913 724.371 443.86 724.065 443.86C723.758 443.86 723.545 443.913 723.425 444.02C723.318 444.127 723.265 444.333 723.265 444.64C723.265 444.92 723.318 445.113 723.425 445.22C723.545 445.327 723.758 445.38 724.065 445.38ZM724.345 452.58C724.651 452.58 724.858 452.527 724.965 452.42C725.085 452.3 725.145 452.1 725.145 451.82C725.145 451.527 725.085 451.327 724.965 451.22C724.858 451.113 724.651 451.06 724.345 451.06C724.038 451.06 723.825 451.113 723.705 451.22C723.598 451.327 723.545 451.527 723.545 451.82C723.545 452.113 723.598 452.313 723.705 452.42C723.825 452.527 724.038 452.58 724.345 452.58ZM729.745 459.82C728.905 459.82 728.239 459.66 727.745 459.34C727.252 459.033 727.005 458.567 727.005 457.94V457.82C726.939 457.833 726.839 457.84 726.705 457.84C726.145 457.84 725.719 457.7 725.425 457.42C725.119 457.153 724.965 456.713 724.965 456.1C724.965 455.46 725.132 455 725.465 454.72C725.799 454.453 726.345 454.32 727.105 454.32C727.892 454.32 728.432 454.46 728.725 454.74C729.019 455.033 729.165 455.56 729.165 456.32V457.52C729.165 457.747 729.205 457.9 729.285 457.98C729.365 458.073 729.512 458.12 729.725 458.12C729.952 458.12 730.105 458.073 730.185 457.98C730.265 457.9 730.305 457.747 730.305 457.52V454.44H732.505V457.4C732.505 458.187 732.292 458.787 731.865 459.2C731.439 459.613 730.732 459.82 729.745 459.82ZM727.065 456.86C727.359 456.86 727.565 456.807 727.685 456.7C727.792 456.593 727.845 456.407 727.845 456.14C727.845 455.86 727.792 455.667 727.685 455.56C727.565 455.453 727.359 455.4 727.065 455.4C726.785 455.4 726.585 455.453 726.465 455.56C726.345 455.667 726.285 455.86 726.285 456.14C726.285 456.407 726.345 456.593 726.465 456.7C726.585 456.807 726.785 456.86 727.065 456.86ZM736.745 453.8C735.919 453.8 735.332 453.587 734.985 453.16C734.652 452.72 734.485 452.033 734.485 451.1C734.485 448.3 735.812 446.9 738.465 446.9C739.039 446.9 739.559 446.98 740.025 447.14C740.505 447.287 740.865 447.513 741.105 447.82V446.5C741.105 445.82 740.912 445.307 740.525 444.96C740.152 444.613 739.559 444.44 738.745 444.44C737.559 444.44 736.559 444.807 735.745 445.54L734.645 444.04C735.792 443.093 737.265 442.62 739.065 442.62C740.625 442.62 741.805 442.967 742.605 443.66C743.405 444.353 743.805 445.3 743.805 446.5V453.5H741.185C741.185 452.313 741.099 451.373 740.925 450.68C740.752 449.987 740.472 449.487 740.085 449.18C739.712 448.873 739.199 448.72 738.545 448.72C738.025 448.72 737.625 448.813 737.345 449C737.079 449.187 736.925 449.493 736.885 449.92L737.205 449.9C737.832 449.9 738.292 450.06 738.585 450.38C738.879 450.7 739.025 451.187 739.025 451.84C739.025 452.52 738.859 453.02 738.525 453.34C738.192 453.647 737.599 453.8 736.745 453.8ZM736.805 452.58C737.112 452.58 737.319 452.527 737.425 452.42C737.545 452.3 737.605 452.087 737.605 451.78C737.605 451.5 737.545 451.307 737.425 451.2C737.319 451.093 737.112 451.04 736.805 451.04C736.499 451.04 736.285 451.093 736.165 451.2C736.059 451.307 736.005 451.5 736.005 451.78C736.005 452.073 736.065 452.28 736.185 452.4C736.305 452.52 736.512 452.58 736.805 452.58ZM748.046 453.8C747.219 453.8 746.633 453.587 746.286 453.16C745.953 452.72 745.786 452.033 745.786 451.1C745.786 448.3 747.113 446.9 749.766 446.9C750.339 446.9 750.859 446.98 751.326 447.14C751.806 447.287 752.166 447.513 752.406 447.82V446.5C752.406 445.82 752.213 445.307 751.826 444.96C751.453 444.613 750.859 444.44 750.046 444.44C748.859 444.44 747.859 444.807 747.046 445.54L745.946 444.04C747.093 443.093 748.566 442.62 750.366 442.62C751.299 442.62 752.093 442.76 752.746 443.04C752.893 442.907 753.019 442.747 753.126 442.56C753.233 442.373 753.306 442.187 753.346 442L755.486 442.46C755.459 442.753 755.346 443.08 755.146 443.44C754.959 443.787 754.726 444.08 754.446 444.32C754.886 444.867 755.106 445.593 755.106 446.5V453.5H752.486C752.486 452.313 752.399 451.373 752.226 450.68C752.053 449.987 751.773 449.487 751.386 449.18C751.013 448.873 750.499 448.72 749.846 448.72C749.326 448.72 748.926 448.813 748.646 449C748.379 449.187 748.226 449.493 748.186 449.92L748.506 449.9C749.133 449.9 749.593 450.06 749.886 450.38C750.179 450.7 750.326 451.187 750.326 451.84C750.326 452.52 750.159 453.02 749.826 453.34C749.493 453.647 748.899 453.8 748.046 453.8ZM748.106 452.58C748.413 452.58 748.619 452.527 748.726 452.42C748.846 452.3 748.906 452.087 748.906 451.78C748.906 451.5 748.846 451.307 748.726 451.2C748.619 451.093 748.413 451.04 748.106 451.04C747.799 451.04 747.586 451.093 747.466 451.2C747.359 451.307 747.306 451.5 747.306 451.78C747.306 452.073 747.366 452.28 747.486 452.4C747.606 452.52 747.813 452.58 748.106 452.58ZM754.087 441.72C753.287 441.72 752.701 441.547 752.327 441.2C751.954 440.853 751.767 440.313 751.767 439.58C751.767 438.847 751.954 438.313 752.327 437.98C752.701 437.633 753.287 437.46 754.087 437.46C754.874 437.46 755.454 437.633 755.827 437.98C756.201 438.313 756.387 438.847 756.387 439.58C756.387 440.313 756.201 440.853 755.827 441.2C755.454 441.547 754.874 441.72 754.087 441.72ZM754.087 440.32C754.621 440.32 754.887 440.073 754.887 439.58C754.887 439.087 754.621 438.84 754.087 438.84C753.527 438.84 753.247 439.087 753.247 439.58C753.247 440.073 753.527 440.32 754.087 440.32ZM762.147 446.5C762.147 445.78 762.014 445.26 761.747 444.94C761.481 444.607 761.014 444.44 760.347 444.44C759.547 444.44 758.801 444.76 758.107 445.4L757.027 443.94C757.534 443.487 758.087 443.153 758.687 442.94C759.287 442.727 759.967 442.62 760.727 442.62C762.247 442.62 763.314 442.96 763.927 443.64C764.541 444.32 764.847 445.28 764.847 446.52V453.5H762.147V446.5ZM769.137 453.8C768.284 453.8 767.684 453.627 767.337 453.28C767.004 452.92 766.837 452.333 766.837 451.52V442.92H769.537V449.94C770.124 449.94 770.584 450.1 770.917 450.42C771.25 450.727 771.417 451.187 771.417 451.8C771.417 452.493 771.25 453 770.917 453.32C770.584 453.64 769.99 453.8 769.137 453.8ZM769.197 452.56C769.504 452.56 769.71 452.507 769.817 452.4C769.937 452.293 769.997 452.087 769.997 451.78C769.997 451.5 769.937 451.307 769.817 451.2C769.71 451.093 769.504 451.04 769.197 451.04C768.89 451.04 768.677 451.093 768.557 451.2C768.45 451.307 768.397 451.5 768.397 451.78C768.397 452.087 768.45 452.293 768.557 452.4C768.677 452.507 768.89 452.56 769.197 452.56ZM776.934 453.8C776.081 453.8 775.487 453.64 775.154 453.32C774.821 453 774.654 452.493 774.654 451.8C774.654 451.187 774.821 450.727 775.154 450.42C775.487 450.1 775.947 449.94 776.534 449.94V449.08C776.534 448.733 776.467 448.487 776.334 448.34C776.201 448.18 775.954 448.047 775.594 447.94L772.454 447.02V445.82C772.454 444.7 772.834 443.887 773.594 443.38C774.354 442.873 775.374 442.62 776.654 442.62C777.614 442.62 778.407 442.72 779.034 442.92C779.661 443.107 780.247 443.413 780.794 443.84L779.694 445.32C779.374 445.053 778.987 444.84 778.534 444.68C778.081 444.52 777.581 444.44 777.034 444.44C776.407 444.44 775.934 444.547 775.614 444.76C775.307 444.96 775.154 445.247 775.154 445.62V445.92L777.834 446.7C778.247 446.82 778.554 446.973 778.754 447.16C778.954 447.333 779.081 447.56 779.134 447.84C779.201 448.12 779.234 448.507 779.234 449V451.52C779.234 452.333 779.061 452.92 778.714 453.28C778.381 453.627 777.787 453.8 776.934 453.8ZM776.874 452.56C777.181 452.56 777.387 452.507 777.494 452.4C777.614 452.293 777.674 452.087 777.674 451.78C777.674 451.5 777.614 451.307 777.494 451.2C777.387 451.093 777.181 451.04 776.874 451.04C776.567 451.04 776.354 451.093 776.234 451.2C776.127 451.307 776.074 451.5 776.074 451.78C776.074 452.087 776.127 452.293 776.234 452.4C776.354 452.507 776.567 452.56 776.874 452.56ZM778.114 441.88C777.688 441.88 777.321 441.833 777.014 441.74C776.694 441.633 776.408 441.453 776.154 441.2L775.714 440.74L774.654 441.72H772.774V439C772.774 438.2 772.988 437.593 773.414 437.18C773.841 436.767 774.468 436.56 775.294 436.56H779.994V438.06H775.694C775.308 438.06 775.034 438.14 774.874 438.3C774.701 438.46 774.614 438.733 774.614 439.12V439.96L775.414 439.22H776.074L776.594 439.78C776.594 438.887 777.154 438.44 778.274 438.44C778.888 438.44 779.334 438.567 779.614 438.82C779.894 439.073 780.034 439.487 780.034 440.06C780.034 440.687 779.894 441.147 779.614 441.44C779.321 441.733 778.821 441.88 778.114 441.88ZM778.294 440.82C778.561 440.82 778.741 440.78 778.834 440.7C778.928 440.607 778.974 440.433 778.974 440.18C778.974 439.94 778.928 439.773 778.834 439.68C778.728 439.573 778.548 439.52 778.294 439.52C778.041 439.52 777.868 439.573 777.774 439.68C777.668 439.773 777.614 439.94 777.614 440.18C777.614 440.433 777.661 440.607 777.754 440.7C777.848 440.78 778.028 440.82 778.294 440.82ZM785.388 450.32C785.201 450.347 785.048 450.36 784.928 450.36C784.301 450.36 783.821 450.2 783.488 449.88C783.168 449.56 783.008 449.093 783.008 448.48C783.008 447.8 783.168 447.307 783.488 447C783.808 446.68 784.375 446.52 785.188 446.52C785.761 446.52 786.188 446.587 786.468 446.72C786.761 446.84 786.968 447.04 787.088 447.32C787.208 447.587 787.328 448.02 787.448 448.62L788.048 451.68H788.368C788.661 451.68 788.875 451.613 789.008 451.48C789.155 451.347 789.228 451.133 789.228 450.84V446.56C789.228 445.813 789.028 445.273 788.628 444.94C788.228 444.607 787.581 444.44 786.688 444.44C786.101 444.44 785.575 444.533 785.108 444.72C784.641 444.893 784.195 445.153 783.768 445.5L782.668 444.04C783.815 443.093 785.268 442.62 787.028 442.62C788.628 442.62 789.841 442.947 790.668 443.6C791.508 444.24 791.928 445.2 791.928 446.48V450.4C791.928 451.213 791.688 451.933 791.208 452.56C790.741 453.187 789.875 453.5 788.608 453.5H786.008L785.388 450.32ZM785.188 449.28C785.481 449.28 785.681 449.227 785.788 449.12C785.908 449.013 785.968 448.82 785.968 448.54C785.968 448.233 785.915 448.027 785.808 447.92C785.701 447.813 785.495 447.76 785.188 447.76C784.881 447.76 784.668 447.82 784.548 447.94C784.428 448.047 784.368 448.247 784.368 448.54C784.368 448.82 784.428 449.013 784.548 449.12C784.668 449.227 784.881 449.28 785.188 449.28Z" fill="black"/>
<mask id="path-6-inside-1_1_10201" fill="white">
<path d="M440 553.5H1000V623.5H440V553.5Z"/>
</mask>
<path d="M440 553.5H1000V623.5H440V553.5Z" fill="white"/>
<path d="M440 553.5V554.5H1000V553.5V552.5H440V553.5Z" fill="#CBD5E1" mask="url(#path-6-inside-1_1_10201)"/>
<rect x="640.5" y="570" width="159" height="37" rx="5.5" fill="#198754"/>
<rect x="640.5" y="570" width="159" height="37" rx="5.5" stroke="#198754"/>
<g clip-path="url(#clip2_1_10201)">
<rect width="37" height="24" transform="translate(701.5 576.5)" fill="white" fill-opacity="0.01"/>
<path d="M702.348 587.164C702.348 586.385 702.535 585.799 702.908 585.404C703.281 584.999 703.799 584.796 704.46 584.796C705.388 584.796 705.953 585.127 706.156 585.788C706.401 585.127 706.983 584.796 707.9 584.796C709.276 584.796 709.964 585.585 709.964 587.164V593.5H708.236V587.292C708.236 586.769 708.193 586.417 708.108 586.236C708.023 586.055 707.825 585.964 707.516 585.964C707.26 585.964 707.073 586.039 706.956 586.188C706.849 586.337 706.796 586.567 706.796 586.876V587.052H705.5V586.876C705.5 586.556 705.452 586.327 705.356 586.188C705.271 586.039 705.1 585.964 704.844 585.964C704.535 585.964 704.327 586.06 704.22 586.252C704.124 586.433 704.076 586.775 704.076 587.276V592.156L705.356 590.844C705.068 590.759 704.871 590.625 704.764 590.444C704.657 590.252 704.604 589.959 704.604 589.564C704.604 589.031 704.732 588.652 704.988 588.428C705.244 588.193 705.633 588.076 706.156 588.076C706.775 588.076 707.201 588.188 707.436 588.412C707.671 588.636 707.788 589.015 707.788 589.548C707.788 589.868 707.719 590.14 707.58 590.364C707.452 590.588 707.244 590.844 706.956 591.132L704.652 593.5H702.348V587.164ZM706.188 590.204C706.444 590.204 706.62 590.156 706.716 590.06C706.823 589.953 706.876 589.783 706.876 589.548C706.876 589.292 706.823 589.121 706.716 589.036C706.62 588.94 706.444 588.892 706.188 588.892C705.921 588.892 705.74 588.94 705.644 589.036C705.548 589.121 705.5 589.292 705.5 589.548C705.5 589.793 705.548 589.964 705.644 590.06C705.751 590.156 705.932 590.204 706.188 590.204ZM712.076 590.028C712.076 589.58 712.146 589.207 712.284 588.908C712.423 588.599 712.663 588.348 713.004 588.156L711.74 587.404V586.268C712.242 585.799 712.823 585.436 713.484 585.18C714.146 584.924 714.86 584.796 715.628 584.796C716.876 584.796 717.82 585.068 718.46 585.612C719.1 586.145 719.42 586.871 719.42 587.788V593.5H717.693V587.74C717.693 587.164 717.516 586.732 717.164 586.444C716.812 586.145 716.3 585.996 715.628 585.996C714.732 585.996 713.975 586.236 713.356 586.716V586.924L714.652 587.74V588.492C714.322 588.62 714.098 588.796 713.98 589.02C713.863 589.233 713.804 589.559 713.804 589.996V593.5H712.076V590.028ZM722.883 593.74C722.275 593.74 721.843 593.575 721.587 593.244C721.331 592.903 721.203 592.385 721.203 591.692C721.203 589.431 722.243 588.3 724.323 588.3C724.835 588.3 725.294 588.385 725.699 588.556C726.104 588.716 726.408 588.961 726.611 589.292V587.852C726.611 587.233 726.451 586.769 726.131 586.46C725.822 586.151 725.315 585.996 724.611 585.996C724.078 585.996 723.603 586.071 723.187 586.22C722.782 586.369 722.403 586.609 722.051 586.94L721.283 585.948C722.158 585.18 723.304 584.796 724.723 584.796C725.918 584.796 726.819 585.068 727.427 585.612C728.035 586.145 728.339 586.881 728.339 587.82V593.5H726.659C726.659 592.54 726.584 591.772 726.435 591.196C726.286 590.609 726.04 590.183 725.699 589.916C725.368 589.639 724.915 589.5 724.339 589.5C723.838 589.5 723.464 589.596 723.219 589.788C722.984 589.969 722.84 590.289 722.787 590.748C722.872 590.737 722.99 590.732 723.139 590.732C723.63 590.732 723.987 590.86 724.211 591.116C724.446 591.361 724.563 591.735 724.563 592.236C724.563 592.759 724.435 593.143 724.179 593.388C723.923 593.623 723.491 593.74 722.883 593.74ZM722.915 592.876C723.182 592.876 723.363 592.828 723.459 592.732C723.555 592.636 723.603 592.46 723.603 592.204C723.603 591.959 723.555 591.793 723.459 591.708C723.363 591.612 723.182 591.564 722.915 591.564C722.659 591.564 722.478 591.612 722.371 591.708C722.275 591.804 722.227 591.969 722.227 592.204C722.227 592.449 722.28 592.625 722.387 592.732C722.494 592.828 722.67 592.876 722.915 592.876ZM729.799 587.756H731.495L733.159 592.3H734.055C734.385 592.3 734.631 592.236 734.791 592.108C734.951 591.969 735.031 591.751 735.031 591.452V587.756C734.935 587.767 734.812 587.772 734.663 587.772C734.257 587.772 733.943 587.655 733.719 587.42C733.495 587.175 733.383 586.812 733.383 586.332C733.383 585.799 733.505 585.409 733.751 585.164C734.007 584.919 734.444 584.796 735.063 584.796C735.703 584.796 736.145 584.919 736.391 585.164C736.636 585.399 736.759 585.815 736.759 586.412V590.796C736.759 591.265 736.711 591.692 736.615 592.076C736.529 592.449 736.311 592.78 735.959 593.068C735.617 593.356 735.095 593.5 734.391 593.5H731.911L729.799 587.756ZM735.031 586.972C735.287 586.972 735.463 586.924 735.559 586.828C735.665 586.732 735.719 586.567 735.719 586.332C735.719 586.076 735.671 585.905 735.575 585.82C735.479 585.724 735.297 585.676 735.031 585.676C734.764 585.676 734.583 585.724 734.487 585.82C734.391 585.905 734.343 586.076 734.343 586.332C734.343 586.577 734.391 586.748 734.487 586.844C734.583 586.929 734.764 586.972 735.031 586.972Z" fill="white"/>
</g>
</g>
<rect x="440.5" y="270" width="559" height="359" rx="11.5" stroke="#EEEEEE"/>
<defs>
<clipPath id="clip0_1_10201">
<rect x="440" y="269.5" width="560" height="360" rx="12" fill="white"/>
</clipPath>
<clipPath id="clip1_1_10201">
<rect width="48" height="48" fill="white" transform="translate(696 301.5)"/>
</clipPath>
<clipPath id="clip2_1_10201">
<rect width="37" height="24" fill="white" transform="translate(701.5 576.5)"/>
</clipPath>
</defs>
</svg>