<svg width="41" height="40" viewBox="0 0 41 40" fill="none" xmlns="http://www.w3.org/2000/svg">
<g clip-path="url(#clip0_2795_9358)">
<g filter="url(#filter0_dd_2795_9358)">
<mask id="path-2-inside-1_2795_9358" fill="white">
<path d="M0.75 20C0.75 8.95431 9.70431 0 20.75 0C31.7957 0 40.75 8.95431 40.75 20C40.75 31.0457 31.7957 40 20.75 40C9.70431 40 0.75 31.0457 0.75 20Z"/>
</mask>
<path d="M0.75 20C0.75 8.95431 9.70431 0 20.75 0C31.7957 0 40.75 8.95431 40.75 20C40.75 31.0457 31.7957 40 20.75 40C9.70431 40 0.75 31.0457 0.75 20Z" fill="#1762F3" shape-rendering="crispEdges"/>
<path d="M0.75 0H40.75H0.75ZM40.75 22C40.75 33.0457 31.7957 42 20.75 42C9.7043 42 0.75 33.0457 0.75 22V20C0.75 29.9411 9.7043 38 20.75 38C31.7957 38 40.75 29.9411 40.75 20V22ZM0.75 40V0V40ZM40.75 0V40V0Z" fill="#6F86F6" mask="url(#path-2-inside-1_2795_9358)"/>
<g clip-path="url(#clip1_2795_9358)">
<mask id="path-4-inside-2_2795_9358" fill="white">
<path d="M0.75 20C0.75 8.95431 9.70431 0 20.75 0C31.7957 0 40.75 8.95431 40.75 20C40.75 31.0457 31.7957 40 20.75 40C9.70431 40 0.75 31.0457 0.75 20Z"/>
</mask>
<g filter="url(#filter1_dd_2795_9358)">
<mask id="path-6-outside-3_2795_9358" maskUnits="userSpaceOnUse" x="15.75" y="14" width="9" height="12" fill="black">
<rect fill="white" x="15.75" y="14" width="9" height="12"/>
<path d="M23.75 19.0898C23.75 20.7773 23.3945 22.0371 22.6836 22.8691C21.9727 23.7012 20.8965 24.1172 19.4551 24.1172C18.9473 24.1172 18.5625 24.0898 18.3008 24.0352V22.582C18.6289 22.6641 18.9727 22.7051 19.332 22.7051C19.9375 22.7051 20.4355 22.6172 20.8262 22.4414C21.2168 22.2617 21.5156 21.9824 21.7227 21.6035C21.9297 21.2207 22.0488 20.6953 22.0801 20.0273H22.0098C21.7832 20.3945 21.5215 20.6523 21.2246 20.8008C20.9277 20.9492 20.5566 21.0234 20.1113 21.0234C19.3652 21.0234 18.7773 20.7852 18.3477 20.3086C17.918 19.8281 17.7031 19.1621 17.7031 18.3105C17.7031 17.3926 17.9629 16.668 18.4824 16.1367C19.0059 15.6016 19.7168 15.334 20.6152 15.334C21.248 15.334 21.8008 15.4824 22.2734 15.7793C22.75 16.0762 23.1152 16.5078 23.3691 17.0742C23.623 17.6367 23.75 18.3086 23.75 19.0898ZM20.6504 16.7871C20.2754 16.7871 19.9824 16.916 19.7715 17.1738C19.5605 17.4316 19.4551 17.8027 19.4551 18.2871C19.4551 18.7012 19.5508 19.0293 19.7422 19.2715C19.9336 19.5137 20.2246 19.6348 20.6152 19.6348C20.9824 19.6348 21.2969 19.5156 21.5586 19.2773C21.8203 19.0352 21.9512 18.7578 21.9512 18.4453C21.9512 17.9805 21.8281 17.5879 21.582 17.2676C21.3398 16.9473 21.0293 16.7871 20.6504 16.7871Z"/>
</mask>
<path d="M23.75 19.0898C23.75 20.7773 23.3945 22.0371 22.6836 22.8691C21.9727 23.7012 20.8965 24.1172 19.4551 24.1172C18.9473 24.1172 18.5625 24.0898 18.3008 24.0352V22.582C18.6289 22.6641 18.9727 22.7051 19.332 22.7051C19.9375 22.7051 20.4355 22.6172 20.8262 22.4414C21.2168 22.2617 21.5156 21.9824 21.7227 21.6035C21.9297 21.2207 22.0488 20.6953 22.0801 20.0273H22.0098C21.7832 20.3945 21.5215 20.6523 21.2246 20.8008C20.9277 20.9492 20.5566 21.0234 20.1113 21.0234C19.3652 21.0234 18.7773 20.7852 18.3477 20.3086C17.918 19.8281 17.7031 19.1621 17.7031 18.3105C17.7031 17.3926 17.9629 16.668 18.4824 16.1367C19.0059 15.6016 19.7168 15.334 20.6152 15.334C21.248 15.334 21.8008 15.4824 22.2734 15.7793C22.75 16.0762 23.1152 16.5078 23.3691 17.0742C23.623 17.6367 23.75 18.3086 23.75 19.0898ZM20.6504 16.7871C20.2754 16.7871 19.9824 16.916 19.7715 17.1738C19.5605 17.4316 19.4551 17.8027 19.4551 18.2871C19.4551 18.7012 19.5508 19.0293 19.7422 19.2715C19.9336 19.5137 20.2246 19.6348 20.6152 19.6348C20.9824 19.6348 21.2969 19.5156 21.5586 19.2773C21.8203 19.0352 21.9512 18.7578 21.9512 18.4453C21.9512 17.9805 21.8281 17.5879 21.582 17.2676C21.3398 16.9473 21.0293 16.7871 20.6504 16.7871Z" fill="white"/>
<path d="M18.3008 24.0352H17.3008V24.8478L18.0962 25.014L18.3008 24.0352ZM18.3008 22.582L18.5433 21.6119L17.3008 21.3013V22.582H18.3008ZM20.8262 22.4414L21.2366 23.3534L21.2441 23.3499L20.8262 22.4414ZM21.7227 21.6035L22.6002 22.083L22.6023 22.0792L21.7227 21.6035ZM22.0801 20.0273L23.079 20.0741L23.128 19.0273H22.0801V20.0273ZM22.0098 20.0273V19.0273H21.4517L21.1587 19.5022L22.0098 20.0273ZM18.3477 20.3086L17.6023 20.9752L17.605 20.9782L18.3477 20.3086ZM18.4824 16.1367L17.7675 15.4375L17.7675 15.4375L18.4824 16.1367ZM22.2734 15.7793L21.7415 16.6261L21.7447 16.6281L22.2734 15.7793ZM23.3691 17.0742L22.4566 17.4833L22.4577 17.4856L23.3691 17.0742ZM21.5586 19.2773L22.2318 20.0168L22.2378 20.0113L21.5586 19.2773ZM21.582 17.2676L20.7843 17.8707L20.789 17.8768L21.582 17.2676ZM22.75 19.0898C22.75 20.6625 22.4148 21.6443 21.9233 22.2195L23.4439 23.5188C24.3742 22.4299 24.75 20.8922 24.75 19.0898H22.75ZM21.9233 22.2195C21.4583 22.7638 20.7027 23.1172 19.4551 23.1172V25.1172C21.0902 25.1172 22.487 24.6386 23.4439 23.5188L21.9233 22.2195ZM19.4551 23.1172C18.9664 23.1172 18.6642 23.0895 18.5053 23.0563L18.0962 25.014C18.4608 25.0902 18.9282 25.1172 19.4551 25.1172V23.1172ZM19.3008 24.0352V22.582H17.3008V24.0352H19.3008ZM18.0582 23.5522C18.4705 23.6552 18.896 23.7051 19.332 23.7051V21.7051C19.0493 21.7051 18.7873 21.6729 18.5433 21.6119L18.0582 23.5522ZM19.332 23.7051C20.0246 23.7051 20.6751 23.606 21.2365 23.3533L20.4158 21.5295C20.196 21.6284 19.8504 21.7051 19.332 21.7051V23.7051ZM21.2441 23.3499C21.8309 23.0799 22.2905 22.6498 22.6002 22.083L20.8451 21.124C20.7407 21.3151 20.6027 21.4435 20.4083 21.5329L21.2441 23.3499ZM22.6023 22.0792C22.9089 21.5123 23.0441 20.8193 23.079 20.0741L21.0812 19.9806C21.0535 20.5713 20.9505 20.9291 20.8431 21.1278L22.6023 22.0792ZM22.0801 19.0273H22.0098V21.0273H22.0801V19.0273ZM21.1587 19.5022C21.0011 19.7577 20.865 19.8626 20.7774 19.9064L21.6718 21.6952C22.178 21.4421 22.5653 21.0313 22.8608 20.5525L21.1587 19.5022ZM20.7774 19.9064C20.6585 19.9658 20.452 20.0234 20.1113 20.0234V22.0234C20.6613 22.0234 21.197 21.9326 21.6718 21.6952L20.7774 19.9064ZM20.1113 20.0234C19.5978 20.0234 19.299 19.8703 19.0903 19.639L17.605 20.9782C18.2557 21.7 19.1327 22.0234 20.1113 22.0234V20.0234ZM19.0931 19.642C18.8741 19.3971 18.7031 18.9967 18.7031 18.3105H16.7031C16.7031 19.3275 16.9619 20.2592 17.6023 20.9752L19.0931 19.642ZM18.7031 18.3105C18.7031 17.5889 18.9015 17.1385 19.1974 16.8359L17.7675 15.4375C17.0243 16.1975 16.7031 17.1962 16.7031 18.3105H18.7031ZM19.1973 16.836C19.4957 16.5309 19.928 16.334 20.6152 16.334V14.334C19.5056 14.334 18.516 14.6722 17.7675 15.4375L19.1973 16.836ZM20.6152 16.334C21.0857 16.334 21.4488 16.4422 21.7416 16.6261L22.8053 14.9325C22.1528 14.5226 21.4104 14.334 20.6152 14.334V16.334ZM21.7447 16.6281C22.0348 16.8088 22.2751 17.0784 22.4566 17.4833L24.2817 16.6652C23.9553 15.9372 23.4652 15.3435 22.8022 14.9305L21.7447 16.6281ZM22.4577 17.4856C22.6399 17.8893 22.75 18.414 22.75 19.0898H24.75C24.75 18.2032 24.6062 17.3842 24.2806 16.6628L22.4577 17.4856ZM20.6504 15.7871C20.018 15.7871 19.4238 16.0196 18.9975 16.5406L20.5454 17.8071C20.5518 17.7992 20.5548 17.7972 20.5539 17.7979C20.5528 17.7988 20.5517 17.7993 20.5522 17.7991C20.5529 17.7988 20.5593 17.796 20.574 17.7932C20.5891 17.7903 20.6138 17.7871 20.6504 17.7871V15.7871ZM18.9975 16.5406C18.5868 17.0426 18.4551 17.6738 18.4551 18.2871H20.4551C20.4551 17.9316 20.5343 17.8207 20.5454 17.8071L18.9975 16.5406ZM18.4551 18.2871C18.4551 18.8496 18.5856 19.4209 18.9576 19.8915L20.5267 18.6514C20.5159 18.6377 20.4551 18.5527 20.4551 18.2871H18.4551ZM18.9576 19.8915C19.3877 20.4357 20.0076 20.6348 20.6152 20.6348V18.6348C20.5212 18.6348 20.4866 18.62 20.4882 18.6207C20.4894 18.6212 20.4964 18.6244 20.506 18.6316C20.5156 18.6388 20.5227 18.6463 20.5267 18.6514L18.9576 19.8915ZM20.6152 20.6348C21.2212 20.6348 21.7785 20.4295 22.2318 20.0168L20.8854 18.5379C20.8152 18.6018 20.7437 18.6348 20.6152 18.6348V20.6348ZM22.2378 20.0113C22.6723 19.6092 22.9512 19.077 22.9512 18.4453H20.9512C20.9512 18.4531 20.9504 18.4563 20.9504 18.4565C20.9503 18.4566 20.9502 18.4578 20.9486 18.461C20.946 18.4665 20.9313 18.4954 20.8794 18.5434L22.2378 20.0113ZM22.9512 18.4453C22.9512 17.7948 22.7751 17.179 22.375 16.6583L20.789 17.8768C20.8812 17.9967 20.9512 18.1661 20.9512 18.4453H22.9512ZM22.3797 16.6645C21.9617 16.1116 21.3639 15.7871 20.6504 15.7871V17.7871C20.6941 17.7871 20.7073 17.7951 20.7091 17.796C20.7128 17.7979 20.7401 17.8121 20.7844 17.8707L22.3797 16.6645Z" fill="#5B22FD" mask="url(#path-6-outside-3_2795_9358)"/>
</g>
<g filter="url(#filter2_df_2795_9358)">
<path d="M10.5748 9.68653C9.03673 11.7081 8.86044 13.1783 7.34426 12.0247C5.82808 10.8712 5.84586 8.29719 7.38396 6.27562C8.92207 4.25404 11.3981 3.55039 12.9142 4.70397C14.4304 5.85755 12.1129 7.66495 10.5748 9.68653Z" fill="url(#paint0_linear_2795_9358)"/>
</g>
</g>
<path d="M0.75 0H40.75H0.75ZM40.75 24C40.75 35.0457 31.7957 44 20.75 44C9.7043 44 0.75 35.0457 0.75 24V20C0.75 28.8366 9.7043 36 20.75 36C31.7957 36 40.75 28.8366 40.75 20V24ZM0.75 40V0V40ZM40.75 0V40V0Z" fill="black" fill-opacity="0.05" mask="url(#path-4-inside-2_2795_9358)"/>
</g>
</g>
<defs>
<filter id="filter0_dd_2795_9358" x="-7.25" y="0" width="56" height="56" filterUnits="userSpaceOnUse" color-interpolation-filters="sRGB">
<feFlood flood-opacity="0" result="BackgroundImageFix"/>
<feColorMatrix in="SourceAlpha" type="matrix" values="0 0 0 0 0 0 0 0 0 0 0 0 0 0 0 0 0 0 127 0" result="hardAlpha"/>
<feOffset dy="8"/>
<feGaussianBlur stdDeviation="4"/>
<feComposite in2="hardAlpha" operator="out"/>
<feColorMatrix type="matrix" values="0 0 0 0 0 0 0 0 0 0 0 0 0 0 0 0 0 0 0.05 0"/>
<feBlend mode="normal" in2="BackgroundImageFix" result="effect1_dropShadow_2795_9358"/>
<feColorMatrix in="SourceAlpha" type="matrix" values="0 0 0 0 0 0 0 0 0 0 0 0 0 0 0 0 0 0 127 0" result="hardAlpha"/>
<feOffset dy="4"/>
<feGaussianBlur stdDeviation="2"/>
<feComposite in2="hardAlpha" operator="out"/>
<feColorMatrix type="matrix" values="0 0 0 0 0 0 0 0 0 0 0 0 0 0 0 0 0 0 0.15 0"/>
<feBlend mode="normal" in2="effect1_dropShadow_2795_9358" result="effect2_dropShadow_2795_9358"/>
<feBlend mode="normal" in="SourceGraphic" in2="effect2_dropShadow_2795_9358" result="shape"/>
</filter>
<filter id="filter1_dd_2795_9358" x="9.70312" y="15.334" width="22.0469" height="24.7832" filterUnits="userSpaceOnUse" color-interpolation-filters="sRGB">
<feFlood flood-opacity="0" result="BackgroundImageFix"/>
<feColorMatrix in="SourceAlpha" type="matrix" values="0 0 0 0 0 0 0 0 0 0 0 0 0 0 0 0 0 0 127 0" result="hardAlpha"/>
<feOffset dy="8"/>
<feGaussianBlur stdDeviation="4"/>
<feComposite in2="hardAlpha" operator="out"/>
<feColorMatrix type="matrix" values="0 0 0 0 0 0 0 0 0 0 0 0 0 0 0 0 0 0 0.05 0"/>
<feBlend mode="normal" in2="BackgroundImageFix" result="effect1_dropShadow_2795_9358"/>
<feColorMatrix in="SourceAlpha" type="matrix" values="0 0 0 0 0 0 0 0 0 0 0 0 0 0 0 0 0 0 127 0" result="hardAlpha"/>
<feOffset dy="4"/>
<feGaussianBlur stdDeviation="2"/>
<feComposite in2="hardAlpha" operator="out"/>
<feColorMatrix type="matrix" values="0 0 0 0 0 0 0 0 0 0 0 0 0 0 0 0 0 0 0.15 0"/>
<feBlend mode="normal" in2="effect1_dropShadow_2795_9358" result="effect2_dropShadow_2795_9358"/>
<feBlend mode="normal" in="SourceGraphic" in2="effect2_dropShadow_2795_9358" result="shape"/>
</filter>
<filter id="filter2_df_2795_9358" x="-25.7812" y="-19.8508" width="71.1895" height="72.2815" filterUnits="userSpaceOnUse" color-interpolation-filters="sRGB">
<feFlood flood-opacity="0" result="BackgroundImageFix"/>
<feColorMatrix in="SourceAlpha" type="matrix" values="0 0 0 0 0 0 0 0 0 0 0 0 0 0 0 0 0 0 127 0" result="hardAlpha"/>
<feOffset dy="8"/>
<feGaussianBlur stdDeviation="16"/>
<feComposite in2="hardAlpha" operator="out"/>
<feColorMatrix type="matrix" values="0 0 0 0 1 0 0 0 0 1 0 0 0 0 1 0 0 0 0.5 0"/>
<feBlend mode="normal" in2="BackgroundImageFix" result="effect1_dropShadow_2795_9358"/>
<feBlend mode="normal" in="SourceGraphic" in2="effect1_dropShadow_2795_9358" result="shape"/>
<feGaussianBlur stdDeviation="2" result="effect2_foregroundBlur_2795_9358"/>
</filter>
<linearGradient id="paint0_linear_2795_9358" x1="9.27418" y1="7.71378" x2="6.4892" y2="11.3742" gradientUnits="userSpaceOnUse">
<stop stop-color="white"/>
</linearGradient>
<clipPath id="clip0_2795_9358">
<rect x="0.75" width="40" height="40" rx="20" fill="white"/>
</clipPath>
<clipPath id="clip1_2795_9358">
<path d="M0.75 20C0.75 8.95431 9.70431 0 20.75 0C31.7957 0 40.75 8.95431 40.75 20C40.75 31.0457 31.7957 40 20.75 40C9.70431 40 0.75 31.0457 0.75 20Z" fill="white"/>
</clipPath>
</defs>
</svg>
