<svg width="41" height="40" viewBox="0 0 41 40" fill="none" xmlns="http://www.w3.org/2000/svg">
<g clip-path="url(#clip0_2795_9351)">
<g filter="url(#filter0_dd_2795_9351)">
<mask id="path-2-inside-1_2795_9351" fill="white">
<path d="M0.5 20C0.5 8.95431 9.45431 0 20.5 0C31.5457 0 40.5 8.95431 40.5 20C40.5 31.0457 31.5457 40 20.5 40C9.45431 40 0.5 31.0457 0.5 20Z"/>
</mask>
<path d="M0.5 20C0.5 8.95431 9.45431 0 20.5 0C31.5457 0 40.5 8.95431 40.5 20C40.5 31.0457 31.5457 40 20.5 40C9.45431 40 0.5 31.0457 0.5 20Z" fill="#1762F3" shape-rendering="crispEdges"/>
<path d="M0.5 0H40.5H0.5ZM40.5 22C40.5 33.0457 31.5457 42 20.5 42C9.4543 42 0.5 33.0457 0.5 22V20C0.5 29.9411 9.4543 38 20.5 38C31.5457 38 40.5 29.9411 40.5 20V22ZM0.5 40V0V40ZM40.5 0V40V0Z" fill="#6F86F6" mask="url(#path-2-inside-1_2795_9351)"/>
<g clip-path="url(#clip1_2795_9351)">
<mask id="path-4-inside-2_2795_9351" fill="white">
<path d="M0.5 20C0.5 8.95431 9.45431 0 20.5 0C31.5457 0 40.5 8.95431 40.5 20C40.5 31.0457 31.5457 40 20.5 40C9.45431 40 0.5 31.0457 0.5 20Z"/>
</mask>
<g filter="url(#filter1_dd_2795_9351)">
<mask id="path-6-outside-3_2795_9351" maskUnits="userSpaceOnUse" x="15.5" y="14" width="9" height="12" fill="black">
<rect fill="white" x="15.5" y="14" width="9" height="12"/>
<path d="M23.2012 17.3496C23.2012 17.8848 23.0391 18.3398 22.7148 18.7148C22.3906 19.0898 21.9355 19.3477 21.3496 19.4883V19.5234C22.041 19.6094 22.5645 19.8203 22.9199 20.1562C23.2754 20.4883 23.4531 20.9375 23.4531 21.5039C23.4531 22.3281 23.1543 22.9707 22.5566 23.4316C21.959 23.8887 21.1055 24.1172 19.9961 24.1172C19.0664 24.1172 18.2422 23.9629 17.5234 23.6543V22.1133C17.8555 22.2812 18.2207 22.418 18.6191 22.5234C19.0176 22.6289 19.4121 22.6816 19.8027 22.6816C20.4004 22.6816 20.8418 22.5801 21.127 22.377C21.4121 22.1738 21.5547 21.8477 21.5547 21.3984C21.5547 20.9961 21.3906 20.7109 21.0625 20.543C20.7344 20.375 20.2109 20.291 19.4922 20.291H18.8418V18.9023H19.5039C20.168 18.9023 20.6523 18.8164 20.957 18.6445C21.2656 18.4688 21.4199 18.1699 21.4199 17.748C21.4199 17.0996 21.0137 16.7754 20.2012 16.7754C19.9199 16.7754 19.6328 16.8223 19.3398 16.916C19.0508 17.0098 18.7285 17.1719 18.373 17.4023L17.5352 16.1543C18.3164 15.5918 19.248 15.3105 20.3301 15.3105C21.2168 15.3105 21.916 15.4902 22.4277 15.8496C22.9434 16.209 23.2012 16.709 23.2012 17.3496Z"/>
</mask>
<path d="M23.2012 17.3496C23.2012 17.8848 23.0391 18.3398 22.7148 18.7148C22.3906 19.0898 21.9355 19.3477 21.3496 19.4883V19.5234C22.041 19.6094 22.5645 19.8203 22.9199 20.1562C23.2754 20.4883 23.4531 20.9375 23.4531 21.5039C23.4531 22.3281 23.1543 22.9707 22.5566 23.4316C21.959 23.8887 21.1055 24.1172 19.9961 24.1172C19.0664 24.1172 18.2422 23.9629 17.5234 23.6543V22.1133C17.8555 22.2812 18.2207 22.418 18.6191 22.5234C19.0176 22.6289 19.4121 22.6816 19.8027 22.6816C20.4004 22.6816 20.8418 22.5801 21.127 22.377C21.4121 22.1738 21.5547 21.8477 21.5547 21.3984C21.5547 20.9961 21.3906 20.7109 21.0625 20.543C20.7344 20.375 20.2109 20.291 19.4922 20.291H18.8418V18.9023H19.5039C20.168 18.9023 20.6523 18.8164 20.957 18.6445C21.2656 18.4688 21.4199 18.1699 21.4199 17.748C21.4199 17.0996 21.0137 16.7754 20.2012 16.7754C19.9199 16.7754 19.6328 16.8223 19.3398 16.916C19.0508 17.0098 18.7285 17.1719 18.373 17.4023L17.5352 16.1543C18.3164 15.5918 19.248 15.3105 20.3301 15.3105C21.2168 15.3105 21.916 15.4902 22.4277 15.8496C22.9434 16.209 23.2012 16.709 23.2012 17.3496Z" fill="white"/>
<path d="M21.3496 19.4883L21.1162 18.5159L20.3496 18.6999V19.4883H21.3496ZM21.3496 19.5234H20.3496V20.4068L21.2263 20.5158L21.3496 19.5234ZM22.9199 20.1562L22.2331 20.8831L22.2373 20.887L22.9199 20.1562ZM22.5566 23.4316L23.1641 24.226L23.1674 24.2235L22.5566 23.4316ZM17.5234 23.6543H16.5234V24.3132L17.1289 24.5732L17.5234 23.6543ZM17.5234 22.1133L17.9748 21.221L16.5234 20.4867V22.1133H17.5234ZM18.8418 20.291H17.8418V21.291H18.8418V20.291ZM18.8418 18.9023V17.9023H17.8418V18.9023H18.8418ZM20.957 18.6445L21.4484 19.5155L21.452 19.5135L20.957 18.6445ZM19.3398 16.916L19.0351 15.9636L19.0313 15.9648L19.3398 16.916ZM18.373 17.4023L17.5428 17.9597L18.0913 18.7768L18.9171 18.2414L18.373 17.4023ZM17.5352 16.1543L16.9509 15.3428L16.1655 15.9082L16.7049 16.7117L17.5352 16.1543ZM22.4277 15.8496L21.853 16.668L21.8559 16.67L22.4277 15.8496ZM22.2012 17.3496C22.2012 17.6652 22.1125 17.8825 21.9584 18.0608L23.4713 19.3689C23.9656 18.7971 24.2012 18.1043 24.2012 17.3496H22.2012ZM21.9584 18.0608C21.7982 18.2461 21.5435 18.4134 21.1162 18.5159L21.583 20.4607C22.3276 20.282 22.9831 19.9336 23.4713 19.3689L21.9584 18.0608ZM20.3496 19.4883V19.5234H22.3496V19.4883H20.3496ZM21.2263 20.5158C21.7931 20.5863 22.0857 20.7438 22.2331 20.883L23.6068 19.4295C23.0432 18.8969 22.2889 18.6325 21.473 18.5311L21.2263 20.5158ZM22.2373 20.887C22.3566 20.9985 22.4531 21.1648 22.4531 21.5039H24.4531C24.4531 20.7102 24.1942 19.9781 23.6025 19.4255L22.2373 20.887ZM22.4531 21.5039C22.4531 22.0509 22.2732 22.3874 21.9459 22.6398L23.1674 24.2235C24.0354 23.554 24.4531 22.6053 24.4531 21.5039H22.4531ZM21.9492 22.6373C21.5914 22.9109 20.9858 23.1172 19.9961 23.1172V25.1172C21.2251 25.1172 22.3265 24.8665 23.1641 24.226L21.9492 22.6373ZM19.9961 23.1172C19.1769 23.1172 18.4909 22.9814 17.918 22.7354L17.1289 24.5732C17.9935 24.9444 18.9559 25.1172 19.9961 25.1172V23.1172ZM18.5234 23.6543V22.1133H16.5234V23.6543H18.5234ZM17.072 23.0056C17.4727 23.2083 17.9044 23.3687 18.3632 23.4901L18.875 21.5567C18.537 21.4673 18.2382 21.3542 17.9748 21.221L17.072 23.0056ZM18.3632 23.4901C18.8406 23.6165 19.3211 23.6816 19.8027 23.6816V21.6816C19.5031 21.6816 19.1946 21.6413 18.875 21.5567L18.3632 23.4901ZM19.8027 23.6816C20.4767 23.6816 21.1701 23.574 21.7071 23.1914L20.5468 21.5625C20.5135 21.5861 20.3241 21.6816 19.8027 21.6816V23.6816ZM21.7071 23.1914C22.3288 22.7486 22.5547 22.0695 22.5547 21.3984H20.5547C20.5547 21.5201 20.5351 21.5711 20.5315 21.5794C20.5299 21.5829 20.5311 21.5795 20.5363 21.573C20.5387 21.5701 20.5411 21.5675 20.5433 21.5654C20.5455 21.5634 20.5468 21.5624 20.5468 21.5625L21.7071 23.1914ZM22.5547 21.3984C22.5547 21.0611 22.4852 20.7088 22.2984 20.3841C22.1087 20.0544 21.8328 19.8139 21.5182 19.6528L20.6068 21.4331C20.6164 21.438 20.6119 21.4371 20.6005 21.4266C20.5885 21.4155 20.5754 21.3999 20.5649 21.3815C20.5599 21.3729 20.5565 21.3654 20.5542 21.3596C20.552 21.3539 20.5512 21.3507 20.5512 21.3508C20.5513 21.351 20.5547 21.3655 20.5547 21.3984H22.5547ZM21.5182 19.6528C20.9697 19.3721 20.2462 19.291 19.4922 19.291V21.291C20.1757 21.291 20.499 21.3779 20.6068 21.4331L21.5182 19.6528ZM19.4922 19.291H18.8418V21.291H19.4922V19.291ZM19.8418 20.291V18.9023H17.8418V20.291H19.8418ZM18.8418 19.9023H19.5039V17.9023H18.8418V19.9023ZM19.5039 19.9023C20.211 19.9023 20.9114 19.8184 21.4484 19.5155L20.4657 17.7736C20.3933 17.8144 20.125 17.9023 19.5039 17.9023V19.9023ZM21.452 19.5135C22.1368 19.1234 22.4199 18.4491 22.4199 17.748H20.4199C20.4199 17.8391 20.4033 17.8537 20.4157 17.8298C20.4218 17.8179 20.4314 17.8039 20.4437 17.7914C20.4556 17.7792 20.4637 17.7747 20.4621 17.7756L21.452 19.5135ZM22.4199 17.748C22.4199 17.2023 22.2378 16.635 21.739 16.237C21.2833 15.8733 20.7138 15.7754 20.2012 15.7754V17.7754C20.3411 17.7754 20.4289 17.7897 20.4773 17.8026C20.5238 17.8149 20.5185 17.8217 20.4915 17.8002C20.4597 17.7748 20.434 17.7392 20.421 17.7079C20.4105 17.6828 20.4199 17.6887 20.4199 17.748H22.4199ZM20.2012 15.7754C19.8073 15.7754 19.4174 15.8413 19.0351 15.9636L19.6446 17.8684C19.8482 17.8033 20.0326 17.7754 20.2012 17.7754V15.7754ZM19.0313 15.9648C18.6338 16.0937 18.2313 16.3024 17.829 16.5633L18.9171 18.2414C19.2257 18.0413 19.4678 17.9258 19.6483 17.8672L19.0313 15.9648ZM19.2033 16.8449L18.3654 15.5969L16.7049 16.7117L17.5428 17.9597L19.2033 16.8449ZM18.1195 16.9658C18.7097 16.5408 19.4306 16.3105 20.3301 16.3105V14.3105C19.0655 14.3105 17.9231 14.6428 16.9509 15.3428L18.1195 16.9658ZM20.3301 16.3105C21.094 16.3105 21.5667 16.4669 21.853 16.668L23.0025 15.0313C22.2654 14.5136 21.3396 14.3105 20.3301 14.3105V16.3105ZM21.8559 16.67C22.0971 16.8381 22.2012 17.0285 22.2012 17.3496H24.2012C24.2012 16.3895 23.7896 15.5798 22.9995 15.0292L21.8559 16.67Z" fill="#5B22FD" mask="url(#path-6-outside-3_2795_9351)"/>
</g>
<g filter="url(#filter2_df_2795_9351)">
<path d="M10.3248 9.68653C8.78673 11.7081 8.61044 13.1783 7.09426 12.0247C5.57808 10.8712 5.59586 8.29719 7.13396 6.27562C8.67207 4.25404 11.1481 3.55039 12.6642 4.70397C14.1804 5.85755 11.8629 7.66495 10.3248 9.68653Z" fill="url(#paint0_linear_2795_9351)"/>
</g>
</g>
<path d="M0.5 0H40.5H0.5ZM40.5 24C40.5 35.0457 31.5457 44 20.5 44C9.4543 44 0.5 35.0457 0.5 24V20C0.5 28.8366 9.4543 36 20.5 36C31.5457 36 40.5 28.8366 40.5 20V24ZM0.5 40V0V40ZM40.5 0V40V0Z" fill="black" fill-opacity="0.05" mask="url(#path-4-inside-2_2795_9351)"/>
</g>
</g>
<defs>
<filter id="filter0_dd_2795_9351" x="-7.5" y="0" width="56" height="56" filterUnits="userSpaceOnUse" color-interpolation-filters="sRGB">
<feFlood flood-opacity="0" result="BackgroundImageFix"/>
<feColorMatrix in="SourceAlpha" type="matrix" values="0 0 0 0 0 0 0 0 0 0 0 0 0 0 0 0 0 0 127 0" result="hardAlpha"/>
<feOffset dy="8"/>
<feGaussianBlur stdDeviation="4"/>
<feComposite in2="hardAlpha" operator="out"/>
<feColorMatrix type="matrix" values="0 0 0 0 0 0 0 0 0 0 0 0 0 0 0 0 0 0 0.05 0"/>
<feBlend mode="normal" in2="BackgroundImageFix" result="effect1_dropShadow_2795_9351"/>
<feColorMatrix in="SourceAlpha" type="matrix" values="0 0 0 0 0 0 0 0 0 0 0 0 0 0 0 0 0 0 127 0" result="hardAlpha"/>
<feOffset dy="4"/>
<feGaussianBlur stdDeviation="2"/>
<feComposite in2="hardAlpha" operator="out"/>
<feColorMatrix type="matrix" values="0 0 0 0 0 0 0 0 0 0 0 0 0 0 0 0 0 0 0.15 0"/>
<feBlend mode="normal" in2="effect1_dropShadow_2795_9351" result="effect2_dropShadow_2795_9351"/>
<feBlend mode="normal" in="SourceGraphic" in2="effect2_dropShadow_2795_9351" result="shape"/>
</filter>
<filter id="filter1_dd_2795_9351" x="9.52344" y="15.3105" width="21.9297" height="24.8066" filterUnits="userSpaceOnUse" color-interpolation-filters="sRGB">
<feFlood flood-opacity="0" result="BackgroundImageFix"/>
<feColorMatrix in="SourceAlpha" type="matrix" values="0 0 0 0 0 0 0 0 0 0 0 0 0 0 0 0 0 0 127 0" result="hardAlpha"/>
<feOffset dy="8"/>
<feGaussianBlur stdDeviation="4"/>
<feComposite in2="hardAlpha" operator="out"/>
<feColorMatrix type="matrix" values="0 0 0 0 0 0 0 0 0 0 0 0 0 0 0 0 0 0 0.05 0"/>
<feBlend mode="normal" in2="BackgroundImageFix" result="effect1_dropShadow_2795_9351"/>
<feColorMatrix in="SourceAlpha" type="matrix" values="0 0 0 0 0 0 0 0 0 0 0 0 0 0 0 0 0 0 127 0" result="hardAlpha"/>
<feOffset dy="4"/>
<feGaussianBlur stdDeviation="2"/>
<feComposite in2="hardAlpha" operator="out"/>
<feColorMatrix type="matrix" values="0 0 0 0 0 0 0 0 0 0 0 0 0 0 0 0 0 0 0.15 0"/>
<feBlend mode="normal" in2="effect1_dropShadow_2795_9351" result="effect2_dropShadow_2795_9351"/>
<feBlend mode="normal" in="SourceGraphic" in2="effect2_dropShadow_2795_9351" result="shape"/>
</filter>
<filter id="filter2_df_2795_9351" x="-26.0312" y="-19.8508" width="71.1895" height="72.2815" filterUnits="userSpaceOnUse" color-interpolation-filters="sRGB">
<feFlood flood-opacity="0" result="BackgroundImageFix"/>
<feColorMatrix in="SourceAlpha" type="matrix" values="0 0 0 0 0 0 0 0 0 0 0 0 0 0 0 0 0 0 127 0" result="hardAlpha"/>
<feOffset dy="8"/>
<feGaussianBlur stdDeviation="16"/>
<feComposite in2="hardAlpha" operator="out"/>
<feColorMatrix type="matrix" values="0 0 0 0 1 0 0 0 0 1 0 0 0 0 1 0 0 0 0.5 0"/>
<feBlend mode="normal" in2="BackgroundImageFix" result="effect1_dropShadow_2795_9351"/>
<feBlend mode="normal" in="SourceGraphic" in2="effect1_dropShadow_2795_9351" result="shape"/>
<feGaussianBlur stdDeviation="2" result="effect2_foregroundBlur_2795_9351"/>
</filter>
<linearGradient id="paint0_linear_2795_9351" x1="9.02418" y1="7.71378" x2="6.2392" y2="11.3742" gradientUnits="userSpaceOnUse">
<stop stop-color="white"/>
</linearGradient>
<clipPath id="clip0_2795_9351">
<rect x="0.5" width="40" height="40" rx="20" fill="white"/>
</clipPath>
<clipPath id="clip1_2795_9351">
<path d="M0.5 20C0.5 8.95431 9.45431 0 20.5 0C31.5457 0 40.5 8.95431 40.5 20C40.5 31.0457 31.5457 40 20.5 40C9.45431 40 0.5 31.0457 0.5 20Z" fill="white"/>
</clipPath>
</defs>
</svg>
