<svg width="40" height="40" viewBox="0 0 40 40" fill="none" xmlns="http://www.w3.org/2000/svg">
<g clip-path="url(#clip0_2795_9359)">
<g filter="url(#filter0_dd_2795_9359)">
<mask id="path-2-inside-1_2795_9359" fill="white">
<path d="M0 20C0 8.95431 8.95431 0 20 0C31.0457 0 40 8.95431 40 20C40 31.0457 31.0457 40 20 40C8.95431 40 0 31.0457 0 20Z"/>
</mask>
<path d="M0 20C0 8.95431 8.95431 0 20 0C31.0457 0 40 8.95431 40 20C40 31.0457 31.0457 40 20 40C8.95431 40 0 31.0457 0 20Z" fill="#1762F3" shape-rendering="crispEdges"/>
<path d="M0 0H40H0ZM40 22C40 33.0457 31.0457 42 20 42C8.9543 42 0 33.0457 0 22V20C0 29.9411 8.9543 38 20 38C31.0457 38 40 29.9411 40 20V22ZM0 40V0V40ZM40 0V40V0Z" fill="#6F86F6" mask="url(#path-2-inside-1_2795_9359)"/>
<g clip-path="url(#clip1_2795_9359)">
<mask id="path-4-inside-2_2795_9359" fill="white">
<path d="M0 20C0 8.95431 8.95431 0 20 0C31.0457 0 40 8.95431 40 20C40 31.0457 31.0457 40 20 40C8.95431 40 0 31.0457 0 20Z"/>
</mask>
<g filter="url(#filter1_dd_2795_9359)">
<mask id="path-6-outside-3_2795_9359" maskUnits="userSpaceOnUse" x="16" y="14" width="8" height="12" fill="black">
<rect fill="white" x="16" y="14" width="8" height="12"/>
<path d="M22.9883 19.7168C22.9883 21.2129 22.7422 22.3203 22.25 23.0391C21.7617 23.7578 21.0078 24.1172 19.9883 24.1172C19 24.1172 18.2539 23.7461 17.75 23.0039C17.25 22.2617 17 21.166 17 19.7168C17 18.2051 17.2441 17.0918 17.7324 16.377C18.2207 15.6582 18.9727 15.2988 19.9883 15.2988C20.9766 15.2988 21.7227 15.6738 22.2266 16.4238C22.7344 17.1738 22.9883 18.2715 22.9883 19.7168ZM18.7988 19.7168C18.7988 20.7676 18.8887 21.5215 19.0684 21.9785C19.252 22.4316 19.5586 22.6582 19.9883 22.6582C20.4102 22.6582 20.7148 22.4277 20.9023 21.9668C21.0898 21.5059 21.1836 20.7559 21.1836 19.7168C21.1836 18.666 21.0879 17.9121 20.8965 17.4551C20.709 16.9941 20.4062 16.7637 19.9883 16.7637C19.5625 16.7637 19.2578 16.9941 19.0742 17.4551C18.8906 17.9121 18.7988 18.666 18.7988 19.7168Z"/>
</mask>
<path d="M22.9883 19.7168C22.9883 21.2129 22.7422 22.3203 22.25 23.0391C21.7617 23.7578 21.0078 24.1172 19.9883 24.1172C19 24.1172 18.2539 23.7461 17.75 23.0039C17.25 22.2617 17 21.166 17 19.7168C17 18.2051 17.2441 17.0918 17.7324 16.377C18.2207 15.6582 18.9727 15.2988 19.9883 15.2988C20.9766 15.2988 21.7227 15.6738 22.2266 16.4238C22.7344 17.1738 22.9883 18.2715 22.9883 19.7168ZM18.7988 19.7168C18.7988 20.7676 18.8887 21.5215 19.0684 21.9785C19.252 22.4316 19.5586 22.6582 19.9883 22.6582C20.4102 22.6582 20.7148 22.4277 20.9023 21.9668C21.0898 21.5059 21.1836 20.7559 21.1836 19.7168C21.1836 18.666 21.0879 17.9121 20.8965 17.4551C20.709 16.9941 20.4062 16.7637 19.9883 16.7637C19.5625 16.7637 19.2578 16.9941 19.0742 17.4551C18.8906 17.9121 18.7988 18.666 18.7988 19.7168Z" fill="white"/>
<path d="M22.25 23.0391L21.4249 22.4741L21.4228 22.4771L22.25 23.0391ZM17.75 23.0039L16.9206 23.5626L16.9227 23.5656L17.75 23.0039ZM17.7324 16.377L18.5582 16.941L18.5596 16.9389L17.7324 16.377ZM22.2266 16.4238L21.3965 16.9815L21.3985 16.9845L22.2266 16.4238ZM19.0684 21.9785L18.1377 22.3444L18.1415 22.354L19.0684 21.9785ZM20.8965 17.4551L19.9701 17.8319L19.9741 17.8414L20.8965 17.4551ZM19.0742 17.4551L20.0022 17.8278L20.0032 17.8251L19.0742 17.4551ZM21.9883 19.7168C21.9883 21.1399 21.7474 22.0031 21.4249 22.4741L23.0751 23.6041C23.737 22.6375 23.9883 21.2859 23.9883 19.7168H21.9883ZM21.4228 22.4771C21.155 22.8713 20.7428 23.1172 19.9883 23.1172V25.1172C21.2729 25.1172 22.3684 24.6443 23.0772 23.601L21.4228 22.4771ZM19.9883 23.1172C19.2918 23.1172 18.8739 22.879 18.5773 22.4422L16.9227 23.5656C17.6339 24.6132 18.7082 25.1172 19.9883 25.1172V23.1172ZM18.5794 22.4452C18.2401 21.9416 18 21.0792 18 19.7168H16C16 21.2528 16.2599 22.5819 16.9206 23.5626L18.5794 22.4452ZM18 19.7168C18 18.2738 18.2403 17.4063 18.5582 16.941L16.9067 15.8129C16.248 16.7773 16 18.1364 16 19.7168H18ZM18.5596 16.9389C18.8282 16.5436 19.2394 16.2988 19.9883 16.2988V14.2988C18.706 14.2988 17.6132 14.7728 16.9052 15.815L18.5596 16.9389ZM19.9883 16.2988C20.6803 16.2988 21.098 16.5372 21.3965 16.9815L23.0566 15.8661C22.3473 14.8104 21.2728 14.2988 19.9883 14.2988V16.2988ZM21.3985 16.9845C21.7457 17.4972 21.9883 18.3622 21.9883 19.7168H23.9883C23.9883 18.1808 23.7231 16.8505 23.0546 15.8632L21.3985 16.9845ZM17.7988 19.7168C17.7988 20.7828 17.8843 21.6999 18.1377 22.3444L19.999 21.6126C19.8931 21.3431 19.7988 20.7524 19.7988 19.7168H17.7988ZM18.1415 22.354C18.2833 22.7039 18.5038 23.0428 18.8418 23.2926C19.1887 23.5489 19.5879 23.6582 19.9883 23.6582V21.6582C19.9692 21.6582 19.9696 21.6558 19.9832 21.6599C19.9897 21.6619 19.9977 21.665 20.0066 21.6695C20.0155 21.674 20.0235 21.679 20.0303 21.684C20.0446 21.6946 20.0469 21.7002 20.0402 21.6909C20.0327 21.6806 20.0159 21.6541 19.9952 21.603L18.1415 22.354ZM19.9883 23.6582C20.393 23.6582 20.7923 23.5433 21.1365 23.2829C21.4696 23.0309 21.6871 22.6915 21.8286 22.3436L19.976 21.59C19.9301 21.703 19.9015 21.7093 19.9299 21.6878C19.9443 21.677 19.9625 21.6675 19.9804 21.6618C19.9972 21.6565 20.002 21.6582 19.9883 21.6582V23.6582ZM21.8286 22.3436C22.0938 21.6917 22.1836 20.7752 22.1836 19.7168H20.1836C20.1836 20.7365 20.0859 21.32 19.976 21.59L21.8286 22.3436ZM22.1836 19.7168C22.1836 18.6488 22.0925 17.7223 21.8189 17.0688L19.9741 17.8414C20.0832 18.102 20.1836 18.6832 20.1836 19.7168H22.1836ZM21.8228 17.0783C21.6818 16.7318 21.4657 16.393 21.1345 16.1409C20.7917 15.8799 20.3933 15.7637 19.9883 15.7637V17.7637C20.0001 17.7637 19.9937 17.7652 19.9756 17.7594C19.9564 17.7533 19.9376 17.7432 19.9231 17.7322C19.8946 17.7105 19.9236 17.7174 19.9702 17.8319L21.8228 17.0783ZM19.9883 15.7637C19.5839 15.7637 19.183 15.8774 18.8372 16.139C18.5019 16.3926 18.2848 16.7346 18.1452 17.085L20.0032 17.8251C20.0473 17.7146 20.0743 17.7109 20.0437 17.7341C20.0369 17.7392 20.0285 17.7446 20.0189 17.7496C20.0094 17.7545 20.0003 17.7581 19.9925 17.7605C19.9763 17.7657 19.9726 17.7637 19.9883 17.7637V15.7637ZM18.1463 17.0823C17.8862 17.7299 17.7988 18.6502 17.7988 19.7168H19.7988C19.7988 18.6819 19.8951 18.0943 20.0021 17.8278L18.1463 17.0823Z" fill="#5B22FD" mask="url(#path-6-outside-3_2795_9359)"/>
</g>
<g filter="url(#filter2_df_2795_9359)">
<path d="M9.82483 9.68653C8.28673 11.7081 8.11044 13.1783 6.59426 12.0247C5.07808 10.8712 5.09586 8.29719 6.63396 6.27562C8.17207 4.25404 10.6481 3.55039 12.1642 4.70397C13.6804 5.85755 11.3629 7.66495 9.82483 9.68653Z" fill="url(#paint0_linear_2795_9359)"/>
</g>
</g>
<path d="M0 0H40H0ZM40 24C40 35.0457 31.0457 44 20 44C8.9543 44 0 35.0457 0 24V20C0 28.8366 8.9543 36 20 36C31.0457 36 40 28.8366 40 20V24ZM0 40V0V40ZM40 0V40V0Z" fill="black" fill-opacity="0.05" mask="url(#path-4-inside-2_2795_9359)"/>
</g>
</g>
<defs>
<filter id="filter0_dd_2795_9359" x="-8" y="0" width="56" height="56" filterUnits="userSpaceOnUse" color-interpolation-filters="sRGB">
<feFlood flood-opacity="0" result="BackgroundImageFix"/>
<feColorMatrix in="SourceAlpha" type="matrix" values="0 0 0 0 0 0 0 0 0 0 0 0 0 0 0 0 0 0 127 0" result="hardAlpha"/>
<feOffset dy="8"/>
<feGaussianBlur stdDeviation="4"/>
<feComposite in2="hardAlpha" operator="out"/>
<feColorMatrix type="matrix" values="0 0 0 0 0 0 0 0 0 0 0 0 0 0 0 0 0 0 0.05 0"/>
<feBlend mode="normal" in2="BackgroundImageFix" result="effect1_dropShadow_2795_9359"/>
<feColorMatrix in="SourceAlpha" type="matrix" values="0 0 0 0 0 0 0 0 0 0 0 0 0 0 0 0 0 0 127 0" result="hardAlpha"/>
<feOffset dy="4"/>
<feGaussianBlur stdDeviation="2"/>
<feComposite in2="hardAlpha" operator="out"/>
<feColorMatrix type="matrix" values="0 0 0 0 0 0 0 0 0 0 0 0 0 0 0 0 0 0 0.15 0"/>
<feBlend mode="normal" in2="effect1_dropShadow_2795_9359" result="effect2_dropShadow_2795_9359"/>
<feBlend mode="normal" in="SourceGraphic" in2="effect2_dropShadow_2795_9359" result="shape"/>
</filter>
<filter id="filter1_dd_2795_9359" x="9" y="15.2988" width="21.9883" height="24.8184" filterUnits="userSpaceOnUse" color-interpolation-filters="sRGB">
<feFlood flood-opacity="0" result="BackgroundImageFix"/>
<feColorMatrix in="SourceAlpha" type="matrix" values="0 0 0 0 0 0 0 0 0 0 0 0 0 0 0 0 0 0 127 0" result="hardAlpha"/>
<feOffset dy="8"/>
<feGaussianBlur stdDeviation="4"/>
<feComposite in2="hardAlpha" operator="out"/>
<feColorMatrix type="matrix" values="0 0 0 0 0 0 0 0 0 0 0 0 0 0 0 0 0 0 0.05 0"/>
<feBlend mode="normal" in2="BackgroundImageFix" result="effect1_dropShadow_2795_9359"/>
<feColorMatrix in="SourceAlpha" type="matrix" values="0 0 0 0 0 0 0 0 0 0 0 0 0 0 0 0 0 0 127 0" result="hardAlpha"/>
<feOffset dy="4"/>
<feGaussianBlur stdDeviation="2"/>
<feComposite in2="hardAlpha" operator="out"/>
<feColorMatrix type="matrix" values="0 0 0 0 0 0 0 0 0 0 0 0 0 0 0 0 0 0 0.15 0"/>
<feBlend mode="normal" in2="effect1_dropShadow_2795_9359" result="effect2_dropShadow_2795_9359"/>
<feBlend mode="normal" in="SourceGraphic" in2="effect2_dropShadow_2795_9359" result="shape"/>
</filter>
<filter id="filter2_df_2795_9359" x="-26.5312" y="-19.8508" width="71.1895" height="72.2815" filterUnits="userSpaceOnUse" color-interpolation-filters="sRGB">
<feFlood flood-opacity="0" result="BackgroundImageFix"/>
<feColorMatrix in="SourceAlpha" type="matrix" values="0 0 0 0 0 0 0 0 0 0 0 0 0 0 0 0 0 0 127 0" result="hardAlpha"/>
<feOffset dy="8"/>
<feGaussianBlur stdDeviation="16"/>
<feComposite in2="hardAlpha" operator="out"/>
<feColorMatrix type="matrix" values="0 0 0 0 1 0 0 0 0 1 0 0 0 0 1 0 0 0 0.5 0"/>
<feBlend mode="normal" in2="BackgroundImageFix" result="effect1_dropShadow_2795_9359"/>
<feBlend mode="normal" in="SourceGraphic" in2="effect1_dropShadow_2795_9359" result="shape"/>
<feGaussianBlur stdDeviation="2" result="effect2_foregroundBlur_2795_9359"/>
</filter>
<linearGradient id="paint0_linear_2795_9359" x1="8.52418" y1="7.71378" x2="5.7392" y2="11.3742" gradientUnits="userSpaceOnUse">
<stop stop-color="white"/>
</linearGradient>
<clipPath id="clip0_2795_9359">
<rect width="40" height="40" rx="20" fill="white"/>
</clipPath>
<clipPath id="clip1_2795_9359">
<path d="M0 20C0 8.95431 8.95431 0 20 0C31.0457 0 40 8.95431 40 20C40 31.0457 31.0457 40 20 40C8.95431 40 0 31.0457 0 20Z" fill="white"/>
</clipPath>
</defs>
</svg>
