<svg width="41" height="40" viewBox="0 0 41 40" fill="none" xmlns="http://www.w3.org/2000/svg">
<g clip-path="url(#clip0_2795_9356)">
<g filter="url(#filter0_dd_2795_9356)">
<mask id="path-2-inside-1_2795_9356" fill="white">
<path d="M0.25 20C0.25 8.95431 9.20431 0 20.25 0C31.2957 0 40.25 8.95431 40.25 20C40.25 31.0457 31.2957 40 20.25 40C9.20431 40 0.25 31.0457 0.25 20Z"/>
</mask>
<path d="M0.25 20C0.25 8.95431 9.20431 0 20.25 0C31.2957 0 40.25 8.95431 40.25 20C40.25 31.0457 31.2957 40 20.25 40C9.20431 40 0.25 31.0457 0.25 20Z" fill="#1762F3" shape-rendering="crispEdges"/>
<path d="M0.25 0H40.25H0.25ZM40.25 22C40.25 33.0457 31.2957 42 20.25 42C9.2043 42 0.25 33.0457 0.25 22V20C0.25 29.9411 9.2043 38 20.25 38C31.2957 38 40.25 29.9411 40.25 20V22ZM0.25 40V0V40ZM40.25 0V40V0Z" fill="#6F86F6" mask="url(#path-2-inside-1_2795_9356)"/>
<g clip-path="url(#clip1_2795_9356)">
<mask id="path-4-inside-2_2795_9356" fill="white">
<path d="M0.25 20C0.25 8.95431 9.20431 0 20.25 0C31.2957 0 40.25 8.95431 40.25 20C40.25 31.0457 31.2957 40 20.25 40C9.20431 40 0.25 31.0457 0.25 20Z"/>
</mask>
<g filter="url(#filter1_dd_2795_9356)">
<mask id="path-6-outside-3_2795_9356" maskUnits="userSpaceOnUse" x="15.25" y="14" width="10" height="11" fill="black">
<rect fill="white" x="15.25" y="14" width="10" height="11"/>
<path d="M18.1465 24L21.3633 16.957H17.1387V15.4336H23.2852V16.5703L20.0449 24H18.1465Z"/>
</mask>
<path d="M18.1465 24L21.3633 16.957H17.1387V15.4336H23.2852V16.5703L20.0449 24H18.1465Z" fill="white"/>
<path d="M18.1465 24L17.2369 23.5845L16.5904 25H18.1465V24ZM21.3633 16.957L22.2729 17.3725L22.9194 15.957H21.3633V16.957ZM17.1387 16.957H16.1387V17.957H17.1387V16.957ZM17.1387 15.4336V14.4336H16.1387V15.4336H17.1387ZM23.2852 15.4336H24.2852V14.4336H23.2852V15.4336ZM23.2852 16.5703L24.2018 16.9701L24.2852 16.7789V16.5703H23.2852ZM20.0449 24V25H20.6998L20.9615 24.3998L20.0449 24ZM19.0561 24.4155L22.2729 17.3725L20.4537 16.5416L17.2369 23.5845L19.0561 24.4155ZM21.3633 15.957H17.1387V17.957H21.3633V15.957ZM18.1387 16.957V15.4336H16.1387V16.957H18.1387ZM17.1387 16.4336H23.2852V14.4336H17.1387V16.4336ZM22.2852 15.4336V16.5703H24.2852V15.4336H22.2852ZM22.3685 16.1706L19.1283 23.6002L20.9615 24.3998L24.2018 16.9701L22.3685 16.1706ZM20.0449 23H18.1465V25H20.0449V23Z" fill="#5B22FD" mask="url(#path-6-outside-3_2795_9356)"/>
</g>
<g filter="url(#filter2_df_2795_9356)">
<path d="M10.0748 9.68653C8.53673 11.7081 8.36044 13.1783 6.84426 12.0247C5.32808 10.8712 5.34586 8.29719 6.88396 6.27562C8.42207 4.25404 10.8981 3.55039 12.4142 4.70397C13.9304 5.85755 11.6129 7.66495 10.0748 9.68653Z" fill="url(#paint0_linear_2795_9356)"/>
</g>
</g>
<path d="M0.25 0H40.25H0.25ZM40.25 24C40.25 35.0457 31.2957 44 20.25 44C9.2043 44 0.25 35.0457 0.25 24V20C0.25 28.8366 9.2043 36 20.25 36C31.2957 36 40.25 28.8366 40.25 20V24ZM0.25 40V0V40ZM40.25 0V40V0Z" fill="black" fill-opacity="0.05" mask="url(#path-4-inside-2_2795_9356)"/>
</g>
</g>
<defs>
<filter id="filter0_dd_2795_9356" x="-7.75" y="0" width="56" height="56" filterUnits="userSpaceOnUse" color-interpolation-filters="sRGB">
<feFlood flood-opacity="0" result="BackgroundImageFix"/>
<feColorMatrix in="SourceAlpha" type="matrix" values="0 0 0 0 0 0 0 0 0 0 0 0 0 0 0 0 0 0 127 0" result="hardAlpha"/>
<feOffset dy="8"/>
<feGaussianBlur stdDeviation="4"/>
<feComposite in2="hardAlpha" operator="out"/>
<feColorMatrix type="matrix" values="0 0 0 0 0 0 0 0 0 0 0 0 0 0 0 0 0 0 0.05 0"/>
<feBlend mode="normal" in2="BackgroundImageFix" result="effect1_dropShadow_2795_9356"/>
<feColorMatrix in="SourceAlpha" type="matrix" values="0 0 0 0 0 0 0 0 0 0 0 0 0 0 0 0 0 0 127 0" result="hardAlpha"/>
<feOffset dy="4"/>
<feGaussianBlur stdDeviation="2"/>
<feComposite in2="hardAlpha" operator="out"/>
<feColorMatrix type="matrix" values="0 0 0 0 0 0 0 0 0 0 0 0 0 0 0 0 0 0 0.15 0"/>
<feBlend mode="normal" in2="effect1_dropShadow_2795_9356" result="effect2_dropShadow_2795_9356"/>
<feBlend mode="normal" in="SourceGraphic" in2="effect2_dropShadow_2795_9356" result="shape"/>
</filter>
<filter id="filter1_dd_2795_9356" x="9.13867" y="15.4336" width="22.1465" height="24.5664" filterUnits="userSpaceOnUse" color-interpolation-filters="sRGB">
<feFlood flood-opacity="0" result="BackgroundImageFix"/>
<feColorMatrix in="SourceAlpha" type="matrix" values="0 0 0 0 0 0 0 0 0 0 0 0 0 0 0 0 0 0 127 0" result="hardAlpha"/>
<feOffset dy="8"/>
<feGaussianBlur stdDeviation="4"/>
<feComposite in2="hardAlpha" operator="out"/>
<feColorMatrix type="matrix" values="0 0 0 0 0 0 0 0 0 0 0 0 0 0 0 0 0 0 0.05 0"/>
<feBlend mode="normal" in2="BackgroundImageFix" result="effect1_dropShadow_2795_9356"/>
<feColorMatrix in="SourceAlpha" type="matrix" values="0 0 0 0 0 0 0 0 0 0 0 0 0 0 0 0 0 0 127 0" result="hardAlpha"/>
<feOffset dy="4"/>
<feGaussianBlur stdDeviation="2"/>
<feComposite in2="hardAlpha" operator="out"/>
<feColorMatrix type="matrix" values="0 0 0 0 0 0 0 0 0 0 0 0 0 0 0 0 0 0 0.15 0"/>
<feBlend mode="normal" in2="effect1_dropShadow_2795_9356" result="effect2_dropShadow_2795_9356"/>
<feBlend mode="normal" in="SourceGraphic" in2="effect2_dropShadow_2795_9356" result="shape"/>
</filter>
<filter id="filter2_df_2795_9356" x="-26.2812" y="-19.8508" width="71.1895" height="72.2815" filterUnits="userSpaceOnUse" color-interpolation-filters="sRGB">
<feFlood flood-opacity="0" result="BackgroundImageFix"/>
<feColorMatrix in="SourceAlpha" type="matrix" values="0 0 0 0 0 0 0 0 0 0 0 0 0 0 0 0 0 0 127 0" result="hardAlpha"/>
<feOffset dy="8"/>
<feGaussianBlur stdDeviation="16"/>
<feComposite in2="hardAlpha" operator="out"/>
<feColorMatrix type="matrix" values="0 0 0 0 1 0 0 0 0 1 0 0 0 0 1 0 0 0 0.5 0"/>
<feBlend mode="normal" in2="BackgroundImageFix" result="effect1_dropShadow_2795_9356"/>
<feBlend mode="normal" in="SourceGraphic" in2="effect1_dropShadow_2795_9356" result="shape"/>
<feGaussianBlur stdDeviation="2" result="effect2_foregroundBlur_2795_9356"/>
</filter>
<linearGradient id="paint0_linear_2795_9356" x1="8.77418" y1="7.71378" x2="5.9892" y2="11.3742" gradientUnits="userSpaceOnUse">
<stop stop-color="white"/>
</linearGradient>
<clipPath id="clip0_2795_9356">
<rect x="0.25" width="40" height="40" rx="20" fill="white"/>
</clipPath>
<clipPath id="clip1_2795_9356">
<path d="M0.25 20C0.25 8.95431 9.20431 0 20.25 0C31.2957 0 40.25 8.95431 40.25 20C40.25 31.0457 31.2957 40 20.25 40C9.20431 40 0.25 31.0457 0.25 20Z" fill="white"/>
</clipPath>
</defs>
</svg>
