<svg width="41" height="40" viewBox="0 0 41 40" fill="none" xmlns="http://www.w3.org/2000/svg">
<g clip-path="url(#clip0_2795_9357)">
<g filter="url(#filter0_dd_2795_9357)">
<mask id="path-2-inside-1_2795_9357" fill="white">
<path d="M0.5 20C0.5 8.95431 9.45431 0 20.5 0C31.5457 0 40.5 8.95431 40.5 20C40.5 31.0457 31.5457 40 20.5 40C9.45431 40 0.5 31.0457 0.5 20Z"/>
</mask>
<path d="M0.5 20C0.5 8.95431 9.45431 0 20.5 0C31.5457 0 40.5 8.95431 40.5 20C40.5 31.0457 31.5457 40 20.5 40C9.45431 40 0.5 31.0457 0.5 20Z" fill="#1762F3" shape-rendering="crispEdges"/>
<path d="M0.5 0H40.5H0.5ZM40.5 22C40.5 33.0457 31.5457 42 20.5 42C9.4543 42 0.5 33.0457 0.5 22V20C0.5 29.9411 9.4543 38 20.5 38C31.5457 38 40.5 29.9411 40.5 20V22ZM0.5 40V0V40ZM40.5 0V40V0Z" fill="#6F86F6" mask="url(#path-2-inside-1_2795_9357)"/>
<g clip-path="url(#clip1_2795_9357)">
<mask id="path-4-inside-2_2795_9357" fill="white">
<path d="M0.5 20C0.5 8.95431 9.45431 0 20.5 0C31.5457 0 40.5 8.95431 40.5 20C40.5 31.0457 31.5457 40 20.5 40C9.45431 40 0.5 31.0457 0.5 20Z"/>
</mask>
<g filter="url(#filter1_dd_2795_9357)">
<mask id="path-6-outside-3_2795_9357" maskUnits="userSpaceOnUse" x="15.5" y="14" width="9" height="12" fill="black">
<rect fill="white" x="15.5" y="14" width="9" height="12"/>
<path d="M20.5 15.3223C21.3203 15.3223 21.9805 15.5098 22.4805 15.8848C22.9844 16.2559 23.2363 16.7578 23.2363 17.3906C23.2363 17.8281 23.1152 18.2188 22.873 18.5625C22.6309 18.9023 22.2402 19.207 21.7012 19.4766C22.3418 19.8203 22.8008 20.1797 23.0781 20.5547C23.3594 20.9258 23.5 21.334 23.5 21.7793C23.5 22.4824 23.2246 23.0488 22.6738 23.4785C22.123 23.9043 21.3984 24.1172 20.5 24.1172C19.5625 24.1172 18.8262 23.918 18.291 23.5195C17.7559 23.1211 17.4883 22.5566 17.4883 21.8262C17.4883 21.3379 17.6172 20.9043 17.875 20.5254C18.1367 20.1465 18.5547 19.8125 19.1289 19.5234C18.6406 19.2148 18.2891 18.8848 18.0742 18.5332C17.8594 18.1816 17.752 17.7969 17.752 17.3789C17.752 16.7656 18.0059 16.2695 18.5137 15.8906C19.0215 15.5117 19.6836 15.3223 20.5 15.3223ZM19.1641 21.7207C19.1641 22.0566 19.2812 22.3184 19.5156 22.5059C19.75 22.6934 20.0703 22.7871 20.4766 22.7871C20.9258 22.7871 21.2617 22.6914 21.4844 22.5C21.707 22.3047 21.8184 22.0488 21.8184 21.7324C21.8184 21.4707 21.707 21.2266 21.4844 21C21.2656 20.7695 20.9082 20.5254 20.4121 20.2676C19.5801 20.6504 19.1641 21.1348 19.1641 21.7207ZM20.4883 16.6465C20.1797 16.6465 19.9297 16.7266 19.7383 16.8867C19.5508 17.043 19.457 17.2539 19.457 17.5195C19.457 17.7539 19.5312 17.9648 19.6797 18.1523C19.832 18.3359 20.1055 18.5254 20.5 18.7207C20.8828 18.541 21.1504 18.3574 21.3027 18.1699C21.4551 17.9824 21.5312 17.7656 21.5312 17.5195C21.5312 17.25 21.4336 17.0371 21.2383 16.8809C21.043 16.7246 20.793 16.6465 20.4883 16.6465Z"/>
</mask>
<path d="M20.5 15.3223C21.3203 15.3223 21.9805 15.5098 22.4805 15.8848C22.9844 16.2559 23.2363 16.7578 23.2363 17.3906C23.2363 17.8281 23.1152 18.2188 22.873 18.5625C22.6309 18.9023 22.2402 19.207 21.7012 19.4766C22.3418 19.8203 22.8008 20.1797 23.0781 20.5547C23.3594 20.9258 23.5 21.334 23.5 21.7793C23.5 22.4824 23.2246 23.0488 22.6738 23.4785C22.123 23.9043 21.3984 24.1172 20.5 24.1172C19.5625 24.1172 18.8262 23.918 18.291 23.5195C17.7559 23.1211 17.4883 22.5566 17.4883 21.8262C17.4883 21.3379 17.6172 20.9043 17.875 20.5254C18.1367 20.1465 18.5547 19.8125 19.1289 19.5234C18.6406 19.2148 18.2891 18.8848 18.0742 18.5332C17.8594 18.1816 17.752 17.7969 17.752 17.3789C17.752 16.7656 18.0059 16.2695 18.5137 15.8906C19.0215 15.5117 19.6836 15.3223 20.5 15.3223ZM19.1641 21.7207C19.1641 22.0566 19.2812 22.3184 19.5156 22.5059C19.75 22.6934 20.0703 22.7871 20.4766 22.7871C20.9258 22.7871 21.2617 22.6914 21.4844 22.5C21.707 22.3047 21.8184 22.0488 21.8184 21.7324C21.8184 21.4707 21.707 21.2266 21.4844 21C21.2656 20.7695 20.9082 20.5254 20.4121 20.2676C19.5801 20.6504 19.1641 21.1348 19.1641 21.7207ZM20.4883 16.6465C20.1797 16.6465 19.9297 16.7266 19.7383 16.8867C19.5508 17.043 19.457 17.2539 19.457 17.5195C19.457 17.7539 19.5312 17.9648 19.6797 18.1523C19.832 18.3359 20.1055 18.5254 20.5 18.7207C20.8828 18.541 21.1504 18.3574 21.3027 18.1699C21.4551 17.9824 21.5312 17.7656 21.5312 17.5195C21.5312 17.25 21.4336 17.0371 21.2383 16.8809C21.043 16.7246 20.793 16.6465 20.4883 16.6465Z" fill="white"/>
<path d="M22.4805 15.8848L21.8804 16.6848L21.8875 16.69L22.4805 15.8848ZM22.873 18.5625L23.6874 19.1429L23.6905 19.1385L22.873 18.5625ZM21.7012 19.4766L21.254 18.5821L19.5278 19.4452L21.2284 20.3577L21.7012 19.4766ZM23.0781 20.5547L22.2741 21.1494L22.2812 21.1587L23.0781 20.5547ZM22.6738 23.4785L23.2854 24.2697L23.2889 24.267L22.6738 23.4785ZM17.875 20.5254L17.0522 19.957L17.0482 19.9628L17.875 20.5254ZM19.1289 19.5234L19.5785 20.4166L21.1569 19.6221L19.6632 18.6781L19.1289 19.5234ZM21.4844 22.5L22.1363 23.2584L22.1438 23.2518L21.4844 22.5ZM21.4844 21L20.7591 21.6884L20.7651 21.6947L20.7711 21.7009L21.4844 21ZM20.4121 20.2676L20.8732 19.3802L20.4389 19.1545L19.9941 19.3591L20.4121 20.2676ZM19.7383 16.8867L20.3785 17.6549L20.38 17.6537L19.7383 16.8867ZM19.6797 18.1523L18.8956 18.773L18.9028 18.7821L18.9101 18.7909L19.6797 18.1523ZM20.5 18.7207L20.0563 19.6169L20.4884 19.8308L20.9249 19.6259L20.5 18.7207ZM20.5 16.3223C21.1715 16.3223 21.6007 16.475 21.8805 16.6848L23.0805 15.0848C22.3602 14.5446 21.4692 14.3223 20.5 14.3223V16.3223ZM21.8875 16.69C22.1321 16.8701 22.2363 17.0714 22.2363 17.3906H24.2363C24.2363 16.4442 23.8367 15.6416 23.0735 15.0796L21.8875 16.69ZM22.2363 17.3906C22.2363 17.6308 22.174 17.8185 22.0556 17.9865L23.6905 19.1385C24.0565 18.619 24.2363 18.0255 24.2363 17.3906H22.2363ZM22.0587 17.9821C21.9441 18.1429 21.7074 18.3554 21.254 18.5821L22.1484 20.371C22.7731 20.0586 23.3176 19.6618 23.6874 19.1429L22.0587 17.9821ZM21.2284 20.3577C21.8041 20.6667 22.1201 20.941 22.2741 21.1493L23.8821 19.9601C23.4815 19.4183 22.8795 18.9739 22.174 18.5954L21.2284 20.3577ZM22.2812 21.1587C22.4371 21.3645 22.5 21.5625 22.5 21.7793H24.5C24.5 21.1055 24.2816 20.4871 23.8751 19.9507L22.2812 21.1587ZM22.5 21.7793C22.5 22.1767 22.3648 22.4513 22.0587 22.6901L23.2889 24.267C24.0845 23.6463 24.5 22.7881 24.5 21.7793H22.5ZM22.0622 22.6874C21.7318 22.9428 21.2419 23.1172 20.5 23.1172V25.1172C21.555 25.1172 22.5143 24.8658 23.2854 24.2697L22.0622 22.6874ZM20.5 23.1172C19.6928 23.1172 19.1933 22.9446 18.8882 22.7174L17.6938 24.3216C18.4591 24.8914 19.4322 25.1172 20.5 25.1172V23.1172ZM18.8882 22.7174C18.6331 22.5275 18.4883 22.2753 18.4883 21.8262H16.4883C16.4883 22.838 16.8786 23.7147 17.6938 24.3216L18.8882 22.7174ZM18.4883 21.8262C18.4883 21.5247 18.5644 21.2899 18.7018 21.0879L17.0482 19.9628C16.67 20.5187 16.4883 21.1511 16.4883 21.8262H18.4883ZM18.6978 21.0937C18.8341 20.8964 19.0979 20.6586 19.5785 20.4166L18.6793 18.6302C18.0115 18.9664 17.4394 19.3965 17.0522 19.9571L18.6978 21.0937ZM19.6632 18.6781C19.2557 18.4206 19.0367 18.1905 18.9275 18.0118L17.2209 19.0547C17.5414 19.579 18.0255 20.0091 18.5947 20.3688L19.6632 18.6781ZM18.9275 18.0118C18.8101 17.8196 18.752 17.6157 18.752 17.3789H16.752C16.752 17.9781 16.9087 18.5437 17.2209 19.0547L18.9275 18.0118ZM18.752 17.3789C18.752 17.0933 18.847 16.8896 19.1117 16.6921L17.9156 15.0891C17.1647 15.6495 16.752 16.4379 16.752 17.3789H18.752ZM19.1117 16.6921C19.4027 16.475 19.8367 16.3223 20.5 16.3223V14.3223C19.5305 14.3223 18.6403 14.5484 17.9156 15.0891L19.1117 16.6921ZM18.1641 21.7207C18.1641 22.3193 18.389 22.8852 18.8909 23.2867L20.1403 21.725C20.139 21.724 20.1431 21.7271 20.1493 21.735C20.1556 21.7431 20.161 21.7521 20.1646 21.7603C20.1682 21.7682 20.1683 21.7712 20.1673 21.7663C20.1663 21.7611 20.1641 21.7466 20.1641 21.7207H18.1641ZM18.8909 23.2867C19.3563 23.659 19.9232 23.7871 20.4766 23.7871V21.7871C20.2175 21.7871 20.1437 21.7277 20.1403 21.725L18.8909 23.2867ZM20.4766 23.7871C21.0434 23.7871 21.6574 23.6699 22.1363 23.2583L20.8325 21.7417C20.8498 21.7268 20.8463 21.738 20.7914 21.7536C20.7338 21.77 20.6335 21.7871 20.4766 21.7871V23.7871ZM22.1438 23.2518C22.5991 22.8524 22.8184 22.3145 22.8184 21.7324H20.8184C20.8184 21.7528 20.8166 21.7639 20.8159 21.7674C20.8153 21.7706 20.8154 21.7684 20.8179 21.7626C20.8204 21.7568 20.8237 21.7513 20.8268 21.7472C20.8297 21.7433 20.83 21.7438 20.8249 21.7482L22.1438 23.2518ZM22.8184 21.7324C22.8184 21.1544 22.5623 20.6701 22.1976 20.2991L20.7711 21.7009C20.8154 21.746 20.8257 21.7694 20.825 21.7679C20.8246 21.7672 20.8226 21.7624 20.8209 21.7544C20.8191 21.7463 20.8184 21.7385 20.8184 21.7324H22.8184ZM22.2097 20.3116C21.8775 19.9616 21.4049 19.6566 20.8732 19.3802L19.951 21.1549C20.4115 21.3942 20.6537 21.5774 20.7591 21.6884L22.2097 20.3116ZM19.9941 19.3591C19.0298 19.8028 18.1641 20.5477 18.1641 21.7207H20.1641C20.1641 21.6889 20.1674 21.6479 20.2347 21.5695C20.3174 21.4732 20.4922 21.3315 20.8301 21.176L19.9941 19.3591ZM20.4883 15.6465C20.0024 15.6465 19.5075 15.776 19.0966 16.1198L20.38 17.6537C20.3714 17.6608 20.3661 17.6615 20.3744 17.6589C20.3852 17.6554 20.4198 17.6465 20.4883 17.6465V15.6465ZM19.0981 16.1185C18.6607 16.483 18.457 16.9869 18.457 17.5195H20.457C20.457 17.5057 20.459 17.528 20.4412 17.5682C20.4222 17.6109 20.3955 17.6407 20.3785 17.6549L19.0981 16.1185ZM18.457 17.5195C18.457 17.9841 18.6104 18.4128 18.8956 18.773L20.4637 17.5316C20.4582 17.5246 20.4558 17.5205 20.4552 17.5195C20.4547 17.5185 20.4552 17.5194 20.456 17.5216C20.4568 17.5239 20.4572 17.5257 20.4573 17.5265C20.4575 17.5272 20.457 17.5251 20.457 17.5195H18.457ZM18.9101 18.7909C19.1985 19.1385 19.6247 19.4032 20.0563 19.6169L20.9437 17.8245C20.777 17.742 20.6547 17.6699 20.5685 17.6101C20.5261 17.5807 20.496 17.5568 20.4756 17.539C20.4551 17.521 20.448 17.5123 20.4492 17.5138L18.9101 18.7909ZM20.9249 19.6259C21.3564 19.4234 21.7852 19.1619 22.0788 18.8005L20.5266 17.5393C20.5276 17.5382 20.502 17.5688 20.422 17.6237C20.344 17.6772 20.2313 17.7422 20.0751 17.8155L20.9249 19.6259ZM22.0788 18.8005C22.3789 18.4312 22.5312 17.9906 22.5312 17.5195H20.5312C20.5312 17.5293 20.5305 17.5346 20.5302 17.5362C20.53 17.5378 20.53 17.5371 20.5307 17.5352C20.531 17.5344 20.5313 17.5335 20.5316 17.5328C20.5319 17.5321 20.5322 17.5317 20.5321 17.5317C20.5321 17.5318 20.5318 17.5324 20.531 17.5336C20.5302 17.5347 20.5288 17.5367 20.5266 17.5393L22.0788 18.8005ZM22.5312 17.5195C22.5312 16.9733 22.3159 16.4623 21.863 16.1L20.6136 17.6617C20.5979 17.6492 20.5697 17.6196 20.5491 17.5747C20.5295 17.532 20.5312 17.5071 20.5312 17.5195H22.5312ZM21.863 16.1C21.4542 15.773 20.9689 15.6465 20.4883 15.6465V17.6465C20.5556 17.6465 20.5918 17.6551 20.606 17.6596C20.618 17.6633 20.6175 17.6649 20.6136 17.6617L21.863 16.1Z" fill="#5B22FD" mask="url(#path-6-outside-3_2795_9357)"/>
</g>
<g filter="url(#filter2_df_2795_9357)">
<path d="M10.3248 9.68653C8.78673 11.7081 8.61044 13.1783 7.09426 12.0247C5.57808 10.8712 5.59586 8.29719 7.13396 6.27562C8.67207 4.25404 11.1481 3.55039 12.6642 4.70397C14.1804 5.85755 11.8629 7.66495 10.3248 9.68653Z" fill="url(#paint0_linear_2795_9357)"/>
</g>
</g>
<path d="M0.5 0H40.5H0.5ZM40.5 24C40.5 35.0457 31.5457 44 20.5 44C9.4543 44 0.5 35.0457 0.5 24V20C0.5 28.8366 9.4543 36 20.5 36C31.5457 36 40.5 28.8366 40.5 20V24ZM0.5 40V0V40ZM40.5 0V40V0Z" fill="black" fill-opacity="0.05" mask="url(#path-4-inside-2_2795_9357)"/>
</g>
</g>
<defs>
<filter id="filter0_dd_2795_9357" x="-7.5" y="0" width="56" height="56" filterUnits="userSpaceOnUse" color-interpolation-filters="sRGB">
<feFlood flood-opacity="0" result="BackgroundImageFix"/>
<feColorMatrix in="SourceAlpha" type="matrix" values="0 0 0 0 0 0 0 0 0 0 0 0 0 0 0 0 0 0 127 0" result="hardAlpha"/>
<feOffset dy="8"/>
<feGaussianBlur stdDeviation="4"/>
<feComposite in2="hardAlpha" operator="out"/>
<feColorMatrix type="matrix" values="0 0 0 0 0 0 0 0 0 0 0 0 0 0 0 0 0 0 0.05 0"/>
<feBlend mode="normal" in2="BackgroundImageFix" result="effect1_dropShadow_2795_9357"/>
<feColorMatrix in="SourceAlpha" type="matrix" values="0 0 0 0 0 0 0 0 0 0 0 0 0 0 0 0 0 0 127 0" result="hardAlpha"/>
<feOffset dy="4"/>
<feGaussianBlur stdDeviation="2"/>
<feComposite in2="hardAlpha" operator="out"/>
<feColorMatrix type="matrix" values="0 0 0 0 0 0 0 0 0 0 0 0 0 0 0 0 0 0 0.15 0"/>
<feBlend mode="normal" in2="effect1_dropShadow_2795_9357" result="effect2_dropShadow_2795_9357"/>
<feBlend mode="normal" in="SourceGraphic" in2="effect2_dropShadow_2795_9357" result="shape"/>
</filter>
<filter id="filter1_dd_2795_9357" x="9.48828" y="15.3223" width="22.0117" height="24.7949" filterUnits="userSpaceOnUse" color-interpolation-filters="sRGB">
<feFlood flood-opacity="0" result="BackgroundImageFix"/>
<feColorMatrix in="SourceAlpha" type="matrix" values="0 0 0 0 0 0 0 0 0 0 0 0 0 0 0 0 0 0 127 0" result="hardAlpha"/>
<feOffset dy="8"/>
<feGaussianBlur stdDeviation="4"/>
<feComposite in2="hardAlpha" operator="out"/>
<feColorMatrix type="matrix" values="0 0 0 0 0 0 0 0 0 0 0 0 0 0 0 0 0 0 0.05 0"/>
<feBlend mode="normal" in2="BackgroundImageFix" result="effect1_dropShadow_2795_9357"/>
<feColorMatrix in="SourceAlpha" type="matrix" values="0 0 0 0 0 0 0 0 0 0 0 0 0 0 0 0 0 0 127 0" result="hardAlpha"/>
<feOffset dy="4"/>
<feGaussianBlur stdDeviation="2"/>
<feComposite in2="hardAlpha" operator="out"/>
<feColorMatrix type="matrix" values="0 0 0 0 0 0 0 0 0 0 0 0 0 0 0 0 0 0 0.15 0"/>
<feBlend mode="normal" in2="effect1_dropShadow_2795_9357" result="effect2_dropShadow_2795_9357"/>
<feBlend mode="normal" in="SourceGraphic" in2="effect2_dropShadow_2795_9357" result="shape"/>
</filter>
<filter id="filter2_df_2795_9357" x="-26.0312" y="-19.8508" width="71.1895" height="72.2815" filterUnits="userSpaceOnUse" color-interpolation-filters="sRGB">
<feFlood flood-opacity="0" result="BackgroundImageFix"/>
<feColorMatrix in="SourceAlpha" type="matrix" values="0 0 0 0 0 0 0 0 0 0 0 0 0 0 0 0 0 0 127 0" result="hardAlpha"/>
<feOffset dy="8"/>
<feGaussianBlur stdDeviation="16"/>
<feComposite in2="hardAlpha" operator="out"/>
<feColorMatrix type="matrix" values="0 0 0 0 1 0 0 0 0 1 0 0 0 0 1 0 0 0 0.5 0"/>
<feBlend mode="normal" in2="BackgroundImageFix" result="effect1_dropShadow_2795_9357"/>
<feBlend mode="normal" in="SourceGraphic" in2="effect1_dropShadow_2795_9357" result="shape"/>
<feGaussianBlur stdDeviation="2" result="effect2_foregroundBlur_2795_9357"/>
</filter>
<linearGradient id="paint0_linear_2795_9357" x1="9.02418" y1="7.71378" x2="6.2392" y2="11.3742" gradientUnits="userSpaceOnUse">
<stop stop-color="white"/>
</linearGradient>
<clipPath id="clip0_2795_9357">
<rect x="0.5" width="40" height="40" rx="20" fill="white"/>
</clipPath>
<clipPath id="clip1_2795_9357">
<path d="M0.5 20C0.5 8.95431 9.45431 0 20.5 0C31.5457 0 40.5 8.95431 40.5 20C40.5 31.0457 31.5457 40 20.5 40C9.45431 40 0.5 31.0457 0.5 20Z" fill="white"/>
</clipPath>
</defs>
</svg>
