<svg xmlns="http://www.w3.org/2000/svg" width="21" height="20" viewBox="0 0 21 20" fill="currentColor">
  <path d="M9.3263 10.9375V5.84579H10.968V10.9375V10.9676L10.9893 10.9463L13.1262 8.80938L14.2962 9.99988L10.1472 14.1489L5.97729 9.95832L7.14714 8.78847L9.30496 10.9463L9.3263 10.9676V10.9375ZM9.3013 18.2777C8.25251 18.1657 7.27602 17.8715 6.37171 17.3952C5.46326 16.9167 4.67625 16.3064 4.01061 15.5645C3.34495 14.8226 2.82142 13.9732 2.44 13.0162C2.05866 12.0594 1.86797 11.047 1.86797 9.97913C1.86797 7.8294 2.57866 5.96781 4.00016 4.39375C5.41861 2.82308 7.19241 1.91875 9.32214 1.68059V3.32243C7.64349 3.56063 6.25544 4.30809 5.15855 5.56466C4.05933 6.8239 3.50964 8.29557 3.50964 9.97913C3.50964 11.6627 4.05933 13.1344 5.15855 14.3936C6.25541 15.6501 7.6365 16.3976 9.3013 16.6358V18.2777ZM14.2294 15.2665L15.42 16.4572C14.7712 16.9663 14.0745 17.3761 13.3298 17.6863C12.5852 17.9966 11.8062 18.1938 10.993 18.2778V16.6358C11.5874 16.5519 12.1578 16.3924 12.7042 16.1573C13.2503 15.9222 13.7588 15.6253 14.2294 15.2665ZM14.2708 4.69171C13.7865 4.33297 13.2712 4.03605 12.725 3.80098C12.1786 3.56584 11.6082 3.40632 11.0138 3.32242V1.68047C11.8271 1.76449 12.606 1.96164 13.3507 2.27191C14.0954 2.58222 14.7853 2.99195 15.4203 3.50113L14.2708 4.69171ZM16.783 10.825H18.4662C18.3547 11.6383 18.1473 12.4208 17.8439 13.1724C17.5405 13.9238 17.1275 14.6102 16.6048 15.2314L15.4553 14.0614C15.8141 13.5907 16.1041 13.0822 16.3254 12.5359C16.5467 11.9896 16.6992 11.4193 16.783 10.825ZM18.4666 9.13329H16.783C16.6992 8.53896 16.5467 7.96863 16.3254 7.42235C16.1041 6.87604 15.8141 6.36752 15.4553 5.89682L16.6048 4.72685C17.1276 5.34812 17.5476 6.03451 17.8648 6.78607C18.182 7.53763 18.3826 8.32002 18.4666 9.13329Z" fill="white" stroke="white" stroke-width="0.025"/>
</svg>