<svg width="36" height="36" viewBox="0 0 36 36" fill="none" xmlns="http://www.w3.org/2000/svg">
<path d="M25.5 5.00984C27.7624 6.31612 29.6444 8.19063 30.9597 10.4478C32.275 12.705 32.978 15.2665 32.9991 17.8788C33.0202 20.4912 32.3587 23.0638 31.08 25.3419C29.8014 27.62 27.9499 29.5247 25.7089 30.8673C23.4679 32.21 20.9151 32.9441 18.3031 32.9969C15.6912 33.0498 13.1108 32.4196 10.8173 31.1687C8.52384 29.9178 6.59681 28.0896 5.227 25.8651C3.85719 23.6406 3.09211 21.0969 3.0075 18.4858L3 17.9998L3.0075 17.5138C3.0915 14.9233 3.84532 12.3988 5.19546 10.1863C6.5456 7.97388 8.44598 6.14902 10.7113 4.88966C12.9767 3.63031 15.5297 2.97943 18.1215 3.0005C20.7133 3.02156 23.2554 3.71384 25.5 5.00984ZM18 8.99984C17.6326 8.99989 17.278 9.13477 17.0034 9.37891C16.7289 9.62305 16.5535 9.95946 16.5105 10.3243L16.5 10.4998V17.9998L16.5135 18.1963C16.5477 18.4566 16.6496 18.7033 16.809 18.9118L16.9395 19.0618L21.4395 23.5618L21.5805 23.6848C21.8436 23.8889 22.167 23.9997 22.5 23.9997C22.833 23.9997 23.1564 23.8889 23.4195 23.6848L23.5605 23.5603L23.685 23.4193C23.8891 23.1563 23.9999 22.8328 23.9999 22.4998C23.9999 22.1669 23.8891 21.8434 23.685 21.5803L23.5605 21.4393L19.5 17.3773V10.4998L19.4895 10.3243C19.4465 9.95946 19.2711 9.62305 18.9966 9.37891C18.722 9.13477 18.3674 8.99989 18 8.99984Z" fill="#B68C40"/>
</svg>
