<svg width="36" height="36" viewBox="0 0 36 36" fill="none" xmlns="http://www.w3.org/2000/svg">
<path d="M31.5 15.9945C31.5 9.6585 25.4385 4.5 18 4.5C10.5615 4.5 4.5 9.6585 4.5 15.9945C4.5 21.669 9.3015 26.4315 15.7905 27.3345C17.37 27.693 17.1885 28.3005 16.8345 30.534C16.776 30.891 16.5585 31.932 18 31.302C19.44 30.672 25.77 26.5005 28.6095 23.082C30.5655 20.826 31.5 18.5385 31.5 16.0095V15.9945Z" fill="#B68C40" stroke="#B68C40" stroke-width="2" stroke-linecap="round" stroke-linejoin="round"/>
<path d="M10.5406 19C10.1886 19 10.0126 18.824 10.0126 18.472V13.928C10.0126 13.576 10.1859 13.4 10.5326 13.4C10.8792 13.4 11.0526 13.576 11.0526 13.928V18.04H13.3966C13.7486 18.04 13.9246 18.2 13.9246 18.52C13.9246 18.84 13.7486 19 13.3966 19H10.5406ZM15.1107 19C14.764 19 14.5907 18.824 14.5907 18.472V13.928C14.5907 13.576 14.764 13.4 15.1107 13.4C15.4574 13.4 15.6307 13.576 15.6307 13.928V18.472C15.6307 18.824 15.4574 19 15.1107 19ZM17.2201 19C16.8734 19 16.7001 18.824 16.7001 18.472V13.928C16.7001 13.576 16.8734 13.4 17.2201 13.4H17.3321C17.5987 13.4 17.8094 13.5147 17.9641 13.744L20.2441 17.184V13.928C20.2441 13.576 20.4201 13.4 20.7721 13.4C21.1187 13.4 21.2921 13.576 21.2921 13.928V18.472C21.2921 18.824 21.1267 19 20.7961 19H20.7081C20.4307 19 20.2201 18.8853 20.0761 18.656L17.7401 15.088V18.472C17.7401 18.824 17.5667 19 17.2201 19ZM22.8843 19C22.5323 19 22.3563 18.824 22.3563 18.472V13.928C22.3563 13.576 22.5323 13.4 22.8843 13.4H25.6443C25.9963 13.4 26.1723 13.56 26.1723 13.88C26.1723 14.2 25.9963 14.36 25.6443 14.36H23.3963V15.664H25.4043C25.7563 15.664 25.9323 15.824 25.9323 16.144C25.9323 16.464 25.7563 16.624 25.4043 16.624H23.3963V18.04H25.7323C26.0843 18.04 26.2603 18.2 26.2603 18.52C26.2603 18.84 26.0843 19 25.7323 19H22.8843Z" fill="#262626"/>
</svg>
