<svg width="26" height="30" viewBox="0 0 26 30" fill="none" xmlns="http://www.w3.org/2000/svg">
<path d="M22.0157 4.56742C24.3565 6.90794 25.6953 10.0671 25.749 13.3768C25.8027 16.6866 24.567 19.8875 22.3033 22.3027L22.0157 22.6002L16.0048 28.6097C15.2421 29.3719 14.2182 29.8157 13.1405 29.8512C12.0629 29.8867 11.012 29.5113 10.2007 28.8009L9.99675 28.6097L3.98441 22.5988C1.59331 20.2076 0.25 16.9646 0.25 13.5831C0.25 10.2016 1.59331 6.95852 3.98441 4.56742C6.37552 2.17632 9.61855 0.833008 13.0001 0.833008C16.3816 0.833008 19.6246 2.17632 22.0157 4.56742ZM13.0001 9.33309C12.442 9.33309 11.8893 9.44302 11.3737 9.6566C10.858 9.87018 10.3895 10.1832 9.99487 10.5779C9.60023 10.9725 9.28717 11.441 9.07359 11.9567C8.86001 12.4723 8.75008 13.025 8.75008 13.5831C8.75008 14.1412 8.86001 14.6939 9.07359 15.2095C9.28717 15.7251 9.60023 16.1936 9.99487 16.5883C10.3895 16.9829 10.858 17.296 11.3737 17.5096C11.8893 17.7232 12.442 17.8331 13.0001 17.8331C14.1272 17.8331 15.2083 17.3853 16.0053 16.5883C16.8023 15.7913 17.2501 14.7103 17.2501 13.5831C17.2501 12.4559 16.8023 11.3749 16.0053 10.5779C15.2083 9.78085 14.1272 9.33309 13.0001 9.33309Z" fill="#B68C40"/>
</svg>
